<?xml version="1.0" encoding="utf-8" standalone="no"?>
<!DOCTYPE svg PUBLIC "-//W3C//DTD SVG 1.1//EN"
  "http://www.w3.org/Graphics/SVG/1.1/DTD/svg11.dtd">
<svg xmlns:xlink="http://www.w3.org/1999/xlink" width="864pt" height="432pt" viewBox="0 0 864 432" xmlns="http://www.w3.org/2000/svg" version="1.1">
 <metadata>
  <rdf:RDF xmlns:dc="http://purl.org/dc/elements/1.1/" xmlns:cc="http://creativecommons.org/ns#" xmlns:rdf="http://www.w3.org/1999/02/22-rdf-syntax-ns#">
   <cc:Work>
    <dc:type rdf:resource="http://purl.org/dc/dcmitype/StillImage"/>
    <dc:date>2026-03-07T11:40:57.497801</dc:date>
    <dc:format>image/svg+xml</dc:format>
    <dc:creator>
     <cc:Agent>
      <dc:title>Matplotlib v3.6.3, https://matplotlib.org/</dc:title>
     </cc:Agent>
    </dc:creator>
   </cc:Work>
  </rdf:RDF>
 </metadata>
 <defs>
  <style type="text/css">*{stroke-linejoin: round; stroke-linecap: butt}</style>
 </defs>
 <g id="figure_1">
  <g id="patch_1">
   <path d="M 0 432 
L 864 432 
L 864 0 
L 0 0 
z
" style="fill: #ffffff"/>
  </g>
  <g id="axes_1">
   <g id="patch_2">
    <path d="M 51.3 395.14 
L 851.04 395.14 
L 851.04 27.6 
L 51.3 27.6 
z
" style="fill: #ffffff"/>
   </g>
   <g id="matplotlib.axis_1">
    <g id="xtick_1">
     <g id="text_1">
      <!-- P-256 -->
      <g style="fill: #262626" transform="translate(111.324 415.277812) scale(0.14 -0.14)">
       <defs>
        <path id="DejaVuSans-50" d="M 1259 4147 
L 1259 2394 
L 2053 2394 
Q 2494 2394 2734 2622 
Q 2975 2850 2975 3272 
Q 2975 3691 2734 3919 
Q 2494 4147 2053 4147 
L 1259 4147 
z
M 628 4666 
L 2053 4666 
Q 2838 4666 3239 4311 
Q 3641 3956 3641 3272 
Q 3641 2581 3239 2228 
Q 2838 1875 2053 1875 
L 1259 1875 
L 1259 0 
L 628 0 
L 628 4666 
z
" transform="scale(0.015625)"/>
        <path id="DejaVuSans-2d" d="M 313 2009 
L 1997 2009 
L 1997 1497 
L 313 1497 
L 313 2009 
z
" transform="scale(0.015625)"/>
        <path id="DejaVuSans-32" d="M 1228 531 
L 3431 531 
L 3431 0 
L 469 0 
L 469 531 
Q 828 903 1448 1529 
Q 2069 2156 2228 2338 
Q 2531 2678 2651 2914 
Q 2772 3150 2772 3378 
Q 2772 3750 2511 3984 
Q 2250 4219 1831 4219 
Q 1534 4219 1204 4116 
Q 875 4013 500 3803 
L 500 4441 
Q 881 4594 1212 4672 
Q 1544 4750 1819 4750 
Q 2544 4750 2975 4387 
Q 3406 4025 3406 3419 
Q 3406 3131 3298 2873 
Q 3191 2616 2906 2266 
Q 2828 2175 2409 1742 
Q 1991 1309 1228 531 
z
" transform="scale(0.015625)"/>
        <path id="DejaVuSans-35" d="M 691 4666 
L 3169 4666 
L 3169 4134 
L 1269 4134 
L 1269 2991 
Q 1406 3038 1543 3061 
Q 1681 3084 1819 3084 
Q 2600 3084 3056 2656 
Q 3513 2228 3513 1497 
Q 3513 744 3044 326 
Q 2575 -91 1722 -91 
Q 1428 -91 1123 -41 
Q 819 9 494 109 
L 494 744 
Q 775 591 1075 516 
Q 1375 441 1709 441 
Q 2250 441 2565 725 
Q 2881 1009 2881 1497 
Q 2881 1984 2565 2268 
Q 2250 2553 1709 2553 
Q 1456 2553 1204 2497 
Q 953 2441 691 2322 
L 691 4666 
z
" transform="scale(0.015625)"/>
        <path id="DejaVuSans-36" d="M 2113 2584 
Q 1688 2584 1439 2293 
Q 1191 2003 1191 1497 
Q 1191 994 1439 701 
Q 1688 409 2113 409 
Q 2538 409 2786 701 
Q 3034 994 3034 1497 
Q 3034 2003 2786 2293 
Q 2538 2584 2113 2584 
z
M 3366 4563 
L 3366 3988 
Q 3128 4100 2886 4159 
Q 2644 4219 2406 4219 
Q 1781 4219 1451 3797 
Q 1122 3375 1075 2522 
Q 1259 2794 1537 2939 
Q 1816 3084 2150 3084 
Q 2853 3084 3261 2657 
Q 3669 2231 3669 1497 
Q 3669 778 3244 343 
Q 2819 -91 2113 -91 
Q 1303 -91 875 529 
Q 447 1150 447 2328 
Q 447 3434 972 4092 
Q 1497 4750 2381 4750 
Q 2619 4750 2861 4703 
Q 3103 4656 3366 4563 
z
" transform="scale(0.015625)"/>
       </defs>
       <use xlink:href="#DejaVuSans-50"/>
       <use xlink:href="#DejaVuSans-2d" x="58.052734"/>
       <use xlink:href="#DejaVuSans-32" x="94.136719"/>
       <use xlink:href="#DejaVuSans-35" x="157.759766"/>
       <use xlink:href="#DejaVuSans-36" x="221.382812"/>
      </g>
     </g>
    </g>
    <g id="xtick_2">
     <g id="text_2">
      <!-- x25519 -->
      <g style="fill: #262626" transform="translate(264.810125 415.277812) scale(0.14 -0.14)">
       <defs>
        <path id="DejaVuSans-78" d="M 3513 3500 
L 2247 1797 
L 3578 0 
L 2900 0 
L 1881 1375 
L 863 0 
L 184 0 
L 1544 1831 
L 300 3500 
L 978 3500 
L 1906 2253 
L 2834 3500 
L 3513 3500 
z
" transform="scale(0.015625)"/>
        <path id="DejaVuSans-31" d="M 794 531 
L 1825 531 
L 1825 4091 
L 703 3866 
L 703 4441 
L 1819 4666 
L 2450 4666 
L 2450 531 
L 3481 531 
L 3481 0 
L 794 0 
L 794 531 
z
" transform="scale(0.015625)"/>
        <path id="DejaVuSans-39" d="M 703 97 
L 703 672 
Q 941 559 1184 500 
Q 1428 441 1663 441 
Q 2288 441 2617 861 
Q 2947 1281 2994 2138 
Q 2813 1869 2534 1725 
Q 2256 1581 1919 1581 
Q 1219 1581 811 2004 
Q 403 2428 403 3163 
Q 403 3881 828 4315 
Q 1253 4750 1959 4750 
Q 2769 4750 3195 4129 
Q 3622 3509 3622 2328 
Q 3622 1225 3098 567 
Q 2575 -91 1691 -91 
Q 1453 -91 1209 -44 
Q 966 3 703 97 
z
M 1959 2075 
Q 2384 2075 2632 2365 
Q 2881 2656 2881 3163 
Q 2881 3666 2632 3958 
Q 2384 4250 1959 4250 
Q 1534 4250 1286 3958 
Q 1038 3666 1038 3163 
Q 1038 2656 1286 2365 
Q 1534 2075 1959 2075 
z
" transform="scale(0.015625)"/>
       </defs>
       <use xlink:href="#DejaVuSans-78"/>
       <use xlink:href="#DejaVuSans-32" x="59.179688"/>
       <use xlink:href="#DejaVuSans-35" x="122.802734"/>
       <use xlink:href="#DejaVuSans-35" x="186.425781"/>
       <use xlink:href="#DejaVuSans-31" x="250.048828"/>
       <use xlink:href="#DejaVuSans-39" x="313.671875"/>
      </g>
     </g>
    </g>
    <g id="xtick_3">
     <g id="text_3">
      <!-- p256_mlkem512 -->
      <g style="fill: #262626" transform="translate(392.815156 415.277812) scale(0.14 -0.14)">
       <defs>
        <path id="DejaVuSans-70" d="M 1159 525 
L 1159 -1331 
L 581 -1331 
L 581 3500 
L 1159 3500 
L 1159 2969 
Q 1341 3281 1617 3432 
Q 1894 3584 2278 3584 
Q 2916 3584 3314 3078 
Q 3713 2572 3713 1747 
Q 3713 922 3314 415 
Q 2916 -91 2278 -91 
Q 1894 -91 1617 61 
Q 1341 213 1159 525 
z
M 3116 1747 
Q 3116 2381 2855 2742 
Q 2594 3103 2138 3103 
Q 1681 3103 1420 2742 
Q 1159 2381 1159 1747 
Q 1159 1113 1420 752 
Q 1681 391 2138 391 
Q 2594 391 2855 752 
Q 3116 1113 3116 1747 
z
" transform="scale(0.015625)"/>
        <path id="DejaVuSans-5f" d="M 3263 -1063 
L 3263 -1509 
L -63 -1509 
L -63 -1063 
L 3263 -1063 
z
" transform="scale(0.015625)"/>
        <path id="DejaVuSans-6d" d="M 3328 2828 
Q 3544 3216 3844 3400 
Q 4144 3584 4550 3584 
Q 5097 3584 5394 3201 
Q 5691 2819 5691 2113 
L 5691 0 
L 5113 0 
L 5113 2094 
Q 5113 2597 4934 2840 
Q 4756 3084 4391 3084 
Q 3944 3084 3684 2787 
Q 3425 2491 3425 1978 
L 3425 0 
L 2847 0 
L 2847 2094 
Q 2847 2600 2669 2842 
Q 2491 3084 2119 3084 
Q 1678 3084 1418 2786 
Q 1159 2488 1159 1978 
L 1159 0 
L 581 0 
L 581 3500 
L 1159 3500 
L 1159 2956 
Q 1356 3278 1631 3431 
Q 1906 3584 2284 3584 
Q 2666 3584 2933 3390 
Q 3200 3197 3328 2828 
z
" transform="scale(0.015625)"/>
        <path id="DejaVuSans-6c" d="M 603 4863 
L 1178 4863 
L 1178 0 
L 603 0 
L 603 4863 
z
" transform="scale(0.015625)"/>
        <path id="DejaVuSans-6b" d="M 581 4863 
L 1159 4863 
L 1159 1991 
L 2875 3500 
L 3609 3500 
L 1753 1863 
L 3688 0 
L 2938 0 
L 1159 1709 
L 1159 0 
L 581 0 
L 581 4863 
z
" transform="scale(0.015625)"/>
        <path id="DejaVuSans-65" d="M 3597 1894 
L 3597 1613 
L 953 1613 
Q 991 1019 1311 708 
Q 1631 397 2203 397 
Q 2534 397 2845 478 
Q 3156 559 3463 722 
L 3463 178 
Q 3153 47 2828 -22 
Q 2503 -91 2169 -91 
Q 1331 -91 842 396 
Q 353 884 353 1716 
Q 353 2575 817 3079 
Q 1281 3584 2069 3584 
Q 2775 3584 3186 3129 
Q 3597 2675 3597 1894 
z
M 3022 2063 
Q 3016 2534 2758 2815 
Q 2500 3097 2075 3097 
Q 1594 3097 1305 2825 
Q 1016 2553 972 2059 
L 3022 2063 
z
" transform="scale(0.015625)"/>
       </defs>
       <use xlink:href="#DejaVuSans-70"/>
       <use xlink:href="#DejaVuSans-32" x="63.476562"/>
       <use xlink:href="#DejaVuSans-35" x="127.099609"/>
       <use xlink:href="#DejaVuSans-36" x="190.722656"/>
       <use xlink:href="#DejaVuSans-5f" x="254.345703"/>
       <use xlink:href="#DejaVuSans-6d" x="304.345703"/>
       <use xlink:href="#DejaVuSans-6c" x="401.757812"/>
       <use xlink:href="#DejaVuSans-6b" x="429.541016"/>
       <use xlink:href="#DejaVuSans-65" x="483.826172"/>
       <use xlink:href="#DejaVuSans-6d" x="545.349609"/>
       <use xlink:href="#DejaVuSans-35" x="642.761719"/>
       <use xlink:href="#DejaVuSans-31" x="706.384766"/>
       <use xlink:href="#DejaVuSans-32" x="770.007812"/>
      </g>
     </g>
    </g>
    <g id="xtick_4">
     <g id="text_4">
      <!-- x25519_mlkem512 -->
      <g style="fill: #262626" transform="translate(544.156437 415.277812) scale(0.14 -0.14)">
       <use xlink:href="#DejaVuSans-78"/>
       <use xlink:href="#DejaVuSans-32" x="59.179688"/>
       <use xlink:href="#DejaVuSans-35" x="122.802734"/>
       <use xlink:href="#DejaVuSans-35" x="186.425781"/>
       <use xlink:href="#DejaVuSans-31" x="250.048828"/>
       <use xlink:href="#DejaVuSans-39" x="313.671875"/>
       <use xlink:href="#DejaVuSans-5f" x="377.294922"/>
       <use xlink:href="#DejaVuSans-6d" x="427.294922"/>
       <use xlink:href="#DejaVuSans-6c" x="524.707031"/>
       <use xlink:href="#DejaVuSans-6b" x="552.490234"/>
       <use xlink:href="#DejaVuSans-65" x="606.775391"/>
       <use xlink:href="#DejaVuSans-6d" x="668.298828"/>
       <use xlink:href="#DejaVuSans-35" x="765.710938"/>
       <use xlink:href="#DejaVuSans-31" x="829.333984"/>
       <use xlink:href="#DejaVuSans-32" x="892.957031"/>
      </g>
     </g>
    </g>
    <g id="xtick_5">
     <g id="text_5">
      <!-- mlkem512 -->
      <g style="fill: #262626" transform="translate(734.016312 415.277812) scale(0.14 -0.14)">
       <use xlink:href="#DejaVuSans-6d"/>
       <use xlink:href="#DejaVuSans-6c" x="97.412109"/>
       <use xlink:href="#DejaVuSans-6b" x="125.195312"/>
       <use xlink:href="#DejaVuSans-65" x="179.480469"/>
       <use xlink:href="#DejaVuSans-6d" x="241.003906"/>
       <use xlink:href="#DejaVuSans-35" x="338.416016"/>
       <use xlink:href="#DejaVuSans-31" x="402.039062"/>
       <use xlink:href="#DejaVuSans-32" x="465.662109"/>
      </g>
     </g>
    </g>
   </g>
   <g id="matplotlib.axis_2">
    <g id="ytick_1">
     <g id="line2d_1">
      <path d="M 51.3 344.591993 
L 851.04 344.591993 
" clip-path="url(#p690c80c54d)" style="fill: none; stroke: #cccccc; stroke-linecap: round"/>
     </g>
     <g id="text_6">
      <!-- 5 -->
      <g style="fill: #262626" transform="translate(34.80125 348.771133) scale(0.11 -0.11)">
       <use xlink:href="#DejaVuSans-35"/>
      </g>
     </g>
    </g>
    <g id="ytick_2">
     <g id="line2d_2">
      <path d="M 51.3 290.63211 
L 851.04 290.63211 
" clip-path="url(#p690c80c54d)" style="fill: none; stroke: #cccccc; stroke-linecap: round"/>
     </g>
     <g id="text_7">
      <!-- 10 -->
      <g style="fill: #262626" transform="translate(27.8025 294.811251) scale(0.11 -0.11)">
       <defs>
        <path id="DejaVuSans-30" d="M 2034 4250 
Q 1547 4250 1301 3770 
Q 1056 3291 1056 2328 
Q 1056 1369 1301 889 
Q 1547 409 2034 409 
Q 2525 409 2770 889 
Q 3016 1369 3016 2328 
Q 3016 3291 2770 3770 
Q 2525 4250 2034 4250 
z
M 2034 4750 
Q 2819 4750 3233 4129 
Q 3647 3509 3647 2328 
Q 3647 1150 3233 529 
Q 2819 -91 2034 -91 
Q 1250 -91 836 529 
Q 422 1150 422 2328 
Q 422 3509 836 4129 
Q 1250 4750 2034 4750 
z
" transform="scale(0.015625)"/>
       </defs>
       <use xlink:href="#DejaVuSans-31"/>
       <use xlink:href="#DejaVuSans-30" x="63.623047"/>
      </g>
     </g>
    </g>
    <g id="ytick_3">
     <g id="line2d_3">
      <path d="M 51.3 236.672227 
L 851.04 236.672227 
" clip-path="url(#p690c80c54d)" style="fill: none; stroke: #cccccc; stroke-linecap: round"/>
     </g>
     <g id="text_8">
      <!-- 15 -->
      <g style="fill: #262626" transform="translate(27.8025 240.851368) scale(0.11 -0.11)">
       <use xlink:href="#DejaVuSans-31"/>
       <use xlink:href="#DejaVuSans-35" x="63.623047"/>
      </g>
     </g>
    </g>
    <g id="ytick_4">
     <g id="line2d_4">
      <path d="M 51.3 182.712345 
L 851.04 182.712345 
" clip-path="url(#p690c80c54d)" style="fill: none; stroke: #cccccc; stroke-linecap: round"/>
     </g>
     <g id="text_9">
      <!-- 20 -->
      <g style="fill: #262626" transform="translate(27.8025 186.891485) scale(0.11 -0.11)">
       <use xlink:href="#DejaVuSans-32"/>
       <use xlink:href="#DejaVuSans-30" x="63.623047"/>
      </g>
     </g>
    </g>
    <g id="ytick_5">
     <g id="line2d_5">
      <path d="M 51.3 128.752462 
L 851.04 128.752462 
" clip-path="url(#p690c80c54d)" style="fill: none; stroke: #cccccc; stroke-linecap: round"/>
     </g>
     <g id="text_10">
      <!-- 25 -->
      <g style="fill: #262626" transform="translate(27.8025 132.931603) scale(0.11 -0.11)">
       <use xlink:href="#DejaVuSans-32"/>
       <use xlink:href="#DejaVuSans-35" x="63.623047"/>
      </g>
     </g>
    </g>
    <g id="ytick_6">
     <g id="line2d_6">
      <path d="M 51.3 74.792579 
L 851.04 74.792579 
" clip-path="url(#p690c80c54d)" style="fill: none; stroke: #cccccc; stroke-linecap: round"/>
     </g>
     <g id="text_11">
      <!-- 30 -->
      <g style="fill: #262626" transform="translate(27.8025 78.97172) scale(0.11 -0.11)">
       <defs>
        <path id="DejaVuSans-33" d="M 2597 2516 
Q 3050 2419 3304 2112 
Q 3559 1806 3559 1356 
Q 3559 666 3084 287 
Q 2609 -91 1734 -91 
Q 1441 -91 1130 -33 
Q 819 25 488 141 
L 488 750 
Q 750 597 1062 519 
Q 1375 441 1716 441 
Q 2309 441 2620 675 
Q 2931 909 2931 1356 
Q 2931 1769 2642 2001 
Q 2353 2234 1838 2234 
L 1294 2234 
L 1294 2753 
L 1863 2753 
Q 2328 2753 2575 2939 
Q 2822 3125 2822 3475 
Q 2822 3834 2567 4026 
Q 2313 4219 1838 4219 
Q 1578 4219 1281 4162 
Q 984 4106 628 3988 
L 628 4550 
Q 988 4650 1302 4700 
Q 1616 4750 1894 4750 
Q 2613 4750 3031 4423 
Q 3450 4097 3450 3541 
Q 3450 3153 3228 2886 
Q 3006 2619 2597 2516 
z
" transform="scale(0.015625)"/>
       </defs>
       <use xlink:href="#DejaVuSans-33"/>
       <use xlink:href="#DejaVuSans-30" x="63.623047"/>
      </g>
     </g>
    </g>
    <g id="text_12">
     <!-- Handshake duration (ms) -->
     <g style="fill: #262626" transform="translate(21.306875 287.437813) rotate(-90) scale(0.12 -0.12)">
      <defs>
       <path id="DejaVuSans-48" d="M 628 4666 
L 1259 4666 
L 1259 2753 
L 3553 2753 
L 3553 4666 
L 4184 4666 
L 4184 0 
L 3553 0 
L 3553 2222 
L 1259 2222 
L 1259 0 
L 628 0 
L 628 4666 
z
" transform="scale(0.015625)"/>
       <path id="DejaVuSans-61" d="M 2194 1759 
Q 1497 1759 1228 1600 
Q 959 1441 959 1056 
Q 959 750 1161 570 
Q 1363 391 1709 391 
Q 2188 391 2477 730 
Q 2766 1069 2766 1631 
L 2766 1759 
L 2194 1759 
z
M 3341 1997 
L 3341 0 
L 2766 0 
L 2766 531 
Q 2569 213 2275 61 
Q 1981 -91 1556 -91 
Q 1019 -91 701 211 
Q 384 513 384 1019 
Q 384 1609 779 1909 
Q 1175 2209 1959 2209 
L 2766 2209 
L 2766 2266 
Q 2766 2663 2505 2880 
Q 2244 3097 1772 3097 
Q 1472 3097 1187 3025 
Q 903 2953 641 2809 
L 641 3341 
Q 956 3463 1253 3523 
Q 1550 3584 1831 3584 
Q 2591 3584 2966 3190 
Q 3341 2797 3341 1997 
z
" transform="scale(0.015625)"/>
       <path id="DejaVuSans-6e" d="M 3513 2113 
L 3513 0 
L 2938 0 
L 2938 2094 
Q 2938 2591 2744 2837 
Q 2550 3084 2163 3084 
Q 1697 3084 1428 2787 
Q 1159 2491 1159 1978 
L 1159 0 
L 581 0 
L 581 3500 
L 1159 3500 
L 1159 2956 
Q 1366 3272 1645 3428 
Q 1925 3584 2291 3584 
Q 2894 3584 3203 3211 
Q 3513 2838 3513 2113 
z
" transform="scale(0.015625)"/>
       <path id="DejaVuSans-64" d="M 2906 2969 
L 2906 4863 
L 3481 4863 
L 3481 0 
L 2906 0 
L 2906 525 
Q 2725 213 2448 61 
Q 2172 -91 1784 -91 
Q 1150 -91 751 415 
Q 353 922 353 1747 
Q 353 2572 751 3078 
Q 1150 3584 1784 3584 
Q 2172 3584 2448 3432 
Q 2725 3281 2906 2969 
z
M 947 1747 
Q 947 1113 1208 752 
Q 1469 391 1925 391 
Q 2381 391 2643 752 
Q 2906 1113 2906 1747 
Q 2906 2381 2643 2742 
Q 2381 3103 1925 3103 
Q 1469 3103 1208 2742 
Q 947 2381 947 1747 
z
" transform="scale(0.015625)"/>
       <path id="DejaVuSans-73" d="M 2834 3397 
L 2834 2853 
Q 2591 2978 2328 3040 
Q 2066 3103 1784 3103 
Q 1356 3103 1142 2972 
Q 928 2841 928 2578 
Q 928 2378 1081 2264 
Q 1234 2150 1697 2047 
L 1894 2003 
Q 2506 1872 2764 1633 
Q 3022 1394 3022 966 
Q 3022 478 2636 193 
Q 2250 -91 1575 -91 
Q 1294 -91 989 -36 
Q 684 19 347 128 
L 347 722 
Q 666 556 975 473 
Q 1284 391 1588 391 
Q 1994 391 2212 530 
Q 2431 669 2431 922 
Q 2431 1156 2273 1281 
Q 2116 1406 1581 1522 
L 1381 1569 
Q 847 1681 609 1914 
Q 372 2147 372 2553 
Q 372 3047 722 3315 
Q 1072 3584 1716 3584 
Q 2034 3584 2315 3537 
Q 2597 3491 2834 3397 
z
" transform="scale(0.015625)"/>
       <path id="DejaVuSans-68" d="M 3513 2113 
L 3513 0 
L 2938 0 
L 2938 2094 
Q 2938 2591 2744 2837 
Q 2550 3084 2163 3084 
Q 1697 3084 1428 2787 
Q 1159 2491 1159 1978 
L 1159 0 
L 581 0 
L 581 4863 
L 1159 4863 
L 1159 2956 
Q 1366 3272 1645 3428 
Q 1925 3584 2291 3584 
Q 2894 3584 3203 3211 
Q 3513 2838 3513 2113 
z
" transform="scale(0.015625)"/>
       <path id="DejaVuSans-20" transform="scale(0.015625)"/>
       <path id="DejaVuSans-75" d="M 544 1381 
L 544 3500 
L 1119 3500 
L 1119 1403 
Q 1119 906 1312 657 
Q 1506 409 1894 409 
Q 2359 409 2629 706 
Q 2900 1003 2900 1516 
L 2900 3500 
L 3475 3500 
L 3475 0 
L 2900 0 
L 2900 538 
Q 2691 219 2414 64 
Q 2138 -91 1772 -91 
Q 1169 -91 856 284 
Q 544 659 544 1381 
z
M 1991 3584 
L 1991 3584 
z
" transform="scale(0.015625)"/>
       <path id="DejaVuSans-72" d="M 2631 2963 
Q 2534 3019 2420 3045 
Q 2306 3072 2169 3072 
Q 1681 3072 1420 2755 
Q 1159 2438 1159 1844 
L 1159 0 
L 581 0 
L 581 3500 
L 1159 3500 
L 1159 2956 
Q 1341 3275 1631 3429 
Q 1922 3584 2338 3584 
Q 2397 3584 2469 3576 
Q 2541 3569 2628 3553 
L 2631 2963 
z
" transform="scale(0.015625)"/>
       <path id="DejaVuSans-74" d="M 1172 4494 
L 1172 3500 
L 2356 3500 
L 2356 3053 
L 1172 3053 
L 1172 1153 
Q 1172 725 1289 603 
Q 1406 481 1766 481 
L 2356 481 
L 2356 0 
L 1766 0 
Q 1100 0 847 248 
Q 594 497 594 1153 
L 594 3053 
L 172 3053 
L 172 3500 
L 594 3500 
L 594 4494 
L 1172 4494 
z
" transform="scale(0.015625)"/>
       <path id="DejaVuSans-69" d="M 603 3500 
L 1178 3500 
L 1178 0 
L 603 0 
L 603 3500 
z
M 603 4863 
L 1178 4863 
L 1178 4134 
L 603 4134 
L 603 4863 
z
" transform="scale(0.015625)"/>
       <path id="DejaVuSans-6f" d="M 1959 3097 
Q 1497 3097 1228 2736 
Q 959 2375 959 1747 
Q 959 1119 1226 758 
Q 1494 397 1959 397 
Q 2419 397 2687 759 
Q 2956 1122 2956 1747 
Q 2956 2369 2687 2733 
Q 2419 3097 1959 3097 
z
M 1959 3584 
Q 2709 3584 3137 3096 
Q 3566 2609 3566 1747 
Q 3566 888 3137 398 
Q 2709 -91 1959 -91 
Q 1206 -91 779 398 
Q 353 888 353 1747 
Q 353 2609 779 3096 
Q 1206 3584 1959 3584 
z
" transform="scale(0.015625)"/>
       <path id="DejaVuSans-28" d="M 1984 4856 
Q 1566 4138 1362 3434 
Q 1159 2731 1159 2009 
Q 1159 1288 1364 580 
Q 1569 -128 1984 -844 
L 1484 -844 
Q 1016 -109 783 600 
Q 550 1309 550 2009 
Q 550 2706 781 3412 
Q 1013 4119 1484 4856 
L 1984 4856 
z
" transform="scale(0.015625)"/>
       <path id="DejaVuSans-29" d="M 513 4856 
L 1013 4856 
Q 1481 4119 1714 3412 
Q 1947 2706 1947 2009 
Q 1947 1309 1714 600 
Q 1481 -109 1013 -844 
L 513 -844 
Q 928 -128 1133 580 
Q 1338 1288 1338 2009 
Q 1338 2731 1133 3434 
Q 928 4138 513 4856 
z
" transform="scale(0.015625)"/>
      </defs>
      <use xlink:href="#DejaVuSans-48"/>
      <use xlink:href="#DejaVuSans-61" x="75.195312"/>
      <use xlink:href="#DejaVuSans-6e" x="136.474609"/>
      <use xlink:href="#DejaVuSans-64" x="199.853516"/>
      <use xlink:href="#DejaVuSans-73" x="263.330078"/>
      <use xlink:href="#DejaVuSans-68" x="315.429688"/>
      <use xlink:href="#DejaVuSans-61" x="378.808594"/>
      <use xlink:href="#DejaVuSans-6b" x="440.087891"/>
      <use xlink:href="#DejaVuSans-65" x="494.373047"/>
      <use xlink:href="#DejaVuSans-20" x="555.896484"/>
      <use xlink:href="#DejaVuSans-64" x="587.683594"/>
      <use xlink:href="#DejaVuSans-75" x="651.160156"/>
      <use xlink:href="#DejaVuSans-72" x="714.539062"/>
      <use xlink:href="#DejaVuSans-61" x="755.652344"/>
      <use xlink:href="#DejaVuSans-74" x="816.931641"/>
      <use xlink:href="#DejaVuSans-69" x="856.140625"/>
      <use xlink:href="#DejaVuSans-6f" x="883.923828"/>
      <use xlink:href="#DejaVuSans-6e" x="945.105469"/>
      <use xlink:href="#DejaVuSans-20" x="1008.484375"/>
      <use xlink:href="#DejaVuSans-28" x="1040.271484"/>
      <use xlink:href="#DejaVuSans-6d" x="1079.285156"/>
      <use xlink:href="#DejaVuSans-73" x="1176.697266"/>
      <use xlink:href="#DejaVuSans-29" x="1228.796875"/>
     </g>
    </g>
   </g>
   <g id="PolyCollection_1">
    <defs>
     <path id="m4528c613f3" d="M 133.784715 -53.566364 
L 128.763285 -53.566364 
L 120.382483 -56.347383 
L 101.21101 -59.128402 
L 77.669755 -61.909422 
L 67.2948 -64.690441 
L 75.761772 -67.47146 
L 90.393236 -70.25248 
L 101.123887 -73.033499 
L 107.813098 -75.814518 
L 112.606432 -78.595538 
L 117.112893 -81.376557 
L 121.915805 -84.157577 
L 125.994609 -86.938596 
L 128.37645 -89.719615 
L 129.382433 -92.500635 
L 129.892074 -95.281654 
L 130.402924 -98.062673 
L 130.876983 -100.843693 
L 131.153437 -103.624712 
L 131.250503 -106.405731 
L 131.271114 -109.186751 
L 131.273779 -111.96777 
L 131.273989 -114.748789 
L 131.274 -117.529809 
L 131.274 -120.310828 
L 131.274 -123.091847 
L 131.274 -125.872867 
L 131.274 -128.653886 
L 131.274 -131.434905 
L 131.274 -134.215925 
L 131.274 -136.996944 
L 131.274 -139.777964 
L 131.274 -142.558983 
L 131.274 -145.340002 
L 131.274 -148.121022 
L 131.274 -150.902041 
L 131.274 -153.68306 
L 131.274 -156.46408 
L 131.274 -159.245099 
L 131.274 -162.026118 
L 131.274 -164.807138 
L 131.274 -167.588157 
L 131.274 -170.369176 
L 131.274 -173.150196 
L 131.274 -175.931215 
L 131.274 -178.712234 
L 131.274 -181.493254 
L 131.274 -184.274273 
L 131.274 -187.055293 
L 131.274 -189.836312 
L 131.274 -192.617331 
L 131.274 -195.398351 
L 131.274 -198.17937 
L 131.274 -200.960389 
L 131.274 -203.741409 
L 131.274 -206.522428 
L 131.274 -209.303447 
L 131.274 -212.084467 
L 131.274 -214.865486 
L 131.274 -217.646505 
L 131.274 -220.427525 
L 131.274 -223.208544 
L 131.274 -225.989563 
L 131.274 -228.770583 
L 131.274 -231.551602 
L 131.274 -234.332621 
L 131.274 -237.113641 
L 131.274 -239.89466 
L 131.274 -242.67568 
L 131.274 -245.456699 
L 131.274 -248.237718 
L 131.274 -251.018738 
L 131.274 -253.799757 
L 131.274 -256.580776 
L 131.274 -259.361796 
L 131.274 -262.142815 
L 131.274 -264.923834 
L 131.274 -267.704854 
L 131.274 -270.485873 
L 131.274 -273.266892 
L 131.274 -276.047912 
L 131.274 -278.828931 
L 131.274 -281.60995 
L 131.274 -284.39097 
L 131.274 -287.171989 
L 131.274 -289.953009 
L 131.274 -292.734028 
L 131.274 -295.515047 
L 131.274 -298.296067 
L 131.273999 -301.077086 
L 131.273981 -303.858105 
L 131.273689 -306.639125 
L 131.270964 -309.420144 
L 131.255853 -312.201163 
L 131.207584 -314.982183 
L 131.125172 -317.763202 
L 131.069813 -320.544221 
L 131.102483 -323.325241 
L 131.18579 -326.10626 
L 131.246224 -328.887279 
L 131.301776 -328.887279 
L 131.301776 -328.887279 
L 131.36221 -326.10626 
L 131.445517 -323.325241 
L 131.478187 -320.544221 
L 131.422828 -317.763202 
L 131.340416 -314.982183 
L 131.292147 -312.201163 
L 131.277036 -309.420144 
L 131.274311 -306.639125 
L 131.274019 -303.858105 
L 131.274001 -301.077086 
L 131.274 -298.296067 
L 131.274 -295.515047 
L 131.274 -292.734028 
L 131.274 -289.953009 
L 131.274 -287.171989 
L 131.274 -284.39097 
L 131.274 -281.60995 
L 131.274 -278.828931 
L 131.274 -276.047912 
L 131.274 -273.266892 
L 131.274 -270.485873 
L 131.274 -267.704854 
L 131.274 -264.923834 
L 131.274 -262.142815 
L 131.274 -259.361796 
L 131.274 -256.580776 
L 131.274 -253.799757 
L 131.274 -251.018738 
L 131.274 -248.237718 
L 131.274 -245.456699 
L 131.274 -242.67568 
L 131.274 -239.89466 
L 131.274 -237.113641 
L 131.274 -234.332621 
L 131.274 -231.551602 
L 131.274 -228.770583 
L 131.274 -225.989563 
L 131.274 -223.208544 
L 131.274 -220.427525 
L 131.274 -217.646505 
L 131.274 -214.865486 
L 131.274 -212.084467 
L 131.274 -209.303447 
L 131.274 -206.522428 
L 131.274 -203.741409 
L 131.274 -200.960389 
L 131.274 -198.17937 
L 131.274 -195.398351 
L 131.274 -192.617331 
L 131.274 -189.836312 
L 131.274 -187.055293 
L 131.274 -184.274273 
L 131.274 -181.493254 
L 131.274 -178.712234 
L 131.274 -175.931215 
L 131.274 -173.150196 
L 131.274 -170.369176 
L 131.274 -167.588157 
L 131.274 -164.807138 
L 131.274 -162.026118 
L 131.274 -159.245099 
L 131.274 -156.46408 
L 131.274 -153.68306 
L 131.274 -150.902041 
L 131.274 -148.121022 
L 131.274 -145.340002 
L 131.274 -142.558983 
L 131.274 -139.777964 
L 131.274 -136.996944 
L 131.274 -134.215925 
L 131.274 -131.434905 
L 131.274 -128.653886 
L 131.274 -125.872867 
L 131.274 -123.091847 
L 131.274 -120.310828 
L 131.274 -117.529809 
L 131.274011 -114.748789 
L 131.274221 -111.96777 
L 131.276886 -109.186751 
L 131.297497 -106.405731 
L 131.394563 -103.624712 
L 131.671017 -100.843693 
L 132.145076 -98.062673 
L 132.655926 -95.281654 
L 133.165567 -92.500635 
L 134.17155 -89.719615 
L 136.553391 -86.938596 
L 140.632195 -84.157577 
L 145.435107 -81.376557 
L 149.941568 -78.595538 
L 154.734902 -75.814518 
L 161.424113 -73.033499 
L 172.154764 -70.25248 
L 186.786228 -67.47146 
L 195.2532 -64.690441 
L 184.878245 -61.909422 
L 161.33699 -59.128402 
L 142.165517 -56.347383 
L 133.784715 -53.566364 
z
" style="stroke: #595959; stroke-width: 1.25"/>
    </defs>
    <g clip-path="url(#p690c80c54d)">
     <use xlink:href="#m4528c613f3" x="0" y="432" style="fill: #72b6a1; stroke: #595959; stroke-width: 1.25"/>
    </g>
   </g>
   <g id="PolyCollection_2">
    <defs>
     <path id="m13f16977b5" d="M 292.390255 -54.65598 
L 290.053745 -54.65598 
L 288.980587 -55.132321 
L 287.167666 -55.608661 
L 284.30709 -56.085001 
L 280.099617 -56.561342 
L 274.346584 -57.037682 
L 267.062164 -57.514022 
L 258.570409 -57.990363 
L 249.540427 -58.466703 
L 240.921672 -58.943043 
L 233.773028 -59.419384 
L 229.023994 -59.895724 
L 227.2428 -60.372064 
L 228.493194 -60.848405 
L 232.331589 -61.324745 
L 237.942007 -61.801085 
L 244.354507 -62.277426 
L 250.668426 -62.753766 
L 256.213306 -63.230106 
L 260.616668 -63.706447 
L 263.787311 -64.182787 
L 265.847013 -64.659127 
L 267.046624 -65.135468 
L 267.690654 -65.611808 
L 268.079175 -66.088148 
L 268.466112 -66.564489 
L 269.031178 -67.040829 
L 269.865573 -67.517169 
L 270.973881 -67.99351 
L 272.292919 -68.46985 
L 273.723118 -68.946191 
L 275.162702 -69.422531 
L 276.533432 -69.898871 
L 277.790553 -70.375212 
L 278.916917 -70.851552 
L 279.908078 -71.327892 
L 280.757938 -71.804233 
L 281.452324 -72.280573 
L 281.972462 -72.756913 
L 282.305159 -73.233254 
L 282.453817 -73.709594 
L 282.445119 -74.185934 
L 282.328871 -74.662275 
L 282.171439 -75.138615 
L 282.04504 -75.614955 
L 282.015698 -76.091296 
L 282.132435 -76.567636 
L 282.419801 -77.043976 
L 282.875274 -77.520317 
L 283.472057 -77.996657 
L 284.166439 -78.472997 
L 284.907495 -78.949338 
L 285.646332 -79.425678 
L 286.34272 -79.902018 
L 286.968397 -80.378359 
L 287.507749 -80.854699 
L 287.957072 -81.331039 
L 288.323188 -81.80738 
L 288.621412 -82.28372 
L 288.872499 -82.76006 
L 289.098534 -83.236401 
L 289.318465 -83.712741 
L 289.544449 -84.189081 
L 289.780131 -84.665422 
L 290.021239 -85.141762 
L 290.258112 -85.618102 
L 290.479151 -86.094443 
L 290.674081 -86.570783 
L 290.836196 -87.047123 
L 290.963229 -87.523464 
L 291.056979 -87.999804 
L 291.122115 -88.476145 
L 291.164703 -88.952485 
L 291.190893 -89.428825 
L 291.206028 -89.905166 
L 291.214225 -90.381506 
L 291.218342 -90.857846 
L 291.220145 -91.334187 
L 291.220561 -91.810527 
L 291.219876 -92.286867 
L 291.217851 -92.763208 
L 291.213784 -93.239548 
L 291.206544 -93.715888 
L 291.194703 -94.192229 
L 291.176831 -94.668569 
L 291.151993 -95.144909 
L 291.120377 -95.62125 
L 291.083841 -96.09759 
L 291.046083 -96.57393 
L 291.012212 -97.050271 
L 290.987689 -97.526611 
L 290.976899 -98.002951 
L 290.981873 -98.479292 
L 291.001669 -98.955632 
L 291.032655 -99.431972 
L 291.069605 -99.908313 
L 291.107124 -100.384653 
L 291.140898 -100.860993 
L 291.168374 -101.337334 
L 291.188791 -101.813674 
L 291.255209 -101.813674 
L 291.255209 -101.813674 
L 291.275626 -101.337334 
L 291.303102 -100.860993 
L 291.336876 -100.384653 
L 291.374395 -99.908313 
L 291.411345 -99.431972 
L 291.442331 -98.955632 
L 291.462127 -98.479292 
L 291.467101 -98.002951 
L 291.456311 -97.526611 
L 291.431788 -97.050271 
L 291.397917 -96.57393 
L 291.360159 -96.09759 
L 291.323623 -95.62125 
L 291.292007 -95.144909 
L 291.267169 -94.668569 
L 291.249297 -94.192229 
L 291.237456 -93.715888 
L 291.230216 -93.239548 
L 291.226149 -92.763208 
L 291.224124 -92.286867 
L 291.223439 -91.810527 
L 291.223855 -91.334187 
L 291.225658 -90.857846 
L 291.229775 -90.381506 
L 291.237972 -89.905166 
L 291.253107 -89.428825 
L 291.279297 -88.952485 
L 291.321885 -88.476145 
L 291.387021 -87.999804 
L 291.480771 -87.523464 
L 291.607804 -87.047123 
L 291.769919 -86.570783 
L 291.964849 -86.094443 
L 292.185888 -85.618102 
L 292.422761 -85.141762 
L 292.663869 -84.665422 
L 292.899551 -84.189081 
L 293.125535 -83.712741 
L 293.345466 -83.236401 
L 293.571501 -82.76006 
L 293.822588 -82.28372 
L 294.120812 -81.80738 
L 294.486928 -81.331039 
L 294.936251 -80.854699 
L 295.475603 -80.378359 
L 296.10128 -79.902018 
L 296.797668 -79.425678 
L 297.536505 -78.949338 
L 298.277561 -78.472997 
L 298.971943 -77.996657 
L 299.568726 -77.520317 
L 300.024199 -77.043976 
L 300.311565 -76.567636 
L 300.428302 -76.091296 
L 300.39896 -75.614955 
L 300.272561 -75.138615 
L 300.115129 -74.662275 
L 299.998881 -74.185934 
L 299.990183 -73.709594 
L 300.138841 -73.233254 
L 300.471538 -72.756913 
L 300.991676 -72.280573 
L 301.686062 -71.804233 
L 302.535922 -71.327892 
L 303.527083 -70.851552 
L 304.653447 -70.375212 
L 305.910568 -69.898871 
L 307.281298 -69.422531 
L 308.720882 -68.946191 
L 310.151081 -68.46985 
L 311.470119 -67.99351 
L 312.578427 -67.517169 
L 313.412822 -67.040829 
L 313.977888 -66.564489 
L 314.364825 -66.088148 
L 314.753346 -65.611808 
L 315.397376 -65.135468 
L 316.596987 -64.659127 
L 318.656689 -64.182787 
L 321.827332 -63.706447 
L 326.230694 -63.230106 
L 331.775574 -62.753766 
L 338.089493 -62.277426 
L 344.501993 -61.801085 
L 350.112411 -61.324745 
L 353.950806 -60.848405 
L 355.2012 -60.372064 
L 353.420006 -59.895724 
L 348.670972 -59.419384 
L 341.522328 -58.943043 
L 332.903573 -58.466703 
L 323.873591 -57.990363 
L 315.381836 -57.514022 
L 308.097416 -57.037682 
L 302.344383 -56.561342 
L 298.13691 -56.085001 
L 295.276334 -55.608661 
L 293.463413 -55.132321 
L 292.390255 -54.65598 
z
" style="stroke: #595959; stroke-width: 1.25"/>
    </defs>
    <g clip-path="url(#p690c80c54d)">
     <use xlink:href="#m13f16977b5" x="0" y="432" style="fill: #e99675; stroke: #595959; stroke-width: 1.25"/>
    </g>
   </g>
   <g id="PolyCollection_3">
    <defs>
     <path id="mb59a38d7db" d="M 452.696508 -137.322017 
L 449.643492 -137.322017 
L 448.634063 -139.851023 
L 447.115083 -142.380029 
L 444.928577 -144.909036 
L 441.920643 -147.438042 
L 437.970704 -149.967048 
L 433.02708 -152.496054 
L 427.142272 -155.025061 
L 420.498787 -157.554067 
L 413.415839 -160.083073 
L 406.330002 -162.612079 
L 399.74857 -165.141086 
L 394.181761 -167.670092 
L 390.066655 -170.199098 
L 387.69936 -172.728104 
L 387.1908 -175.257111 
L 388.455788 -177.786117 
L 391.236517 -180.315123 
L 395.153118 -182.844129 
L 399.768171 -185.373136 
L 404.65058 -187.902142 
L 409.426855 -190.431148 
L 413.813068 -192.960154 
L 417.626449 -195.489161 
L 420.780044 -198.018167 
L 423.266091 -200.547173 
L 425.133995 -203.076179 
L 426.467604 -205.605186 
L 427.364908 -208.134192 
L 427.921867 -210.663198 
L 428.221169 -213.192205 
L 428.326149 -215.721211 
L 428.279727 -218.250217 
L 428.107768 -220.779223 
L 427.82576 -223.30823 
L 427.447164 -225.837236 
L 426.991515 -228.366242 
L 426.490339 -230.895248 
L 425.989434 -233.424255 
L 425.546844 -235.953261 
L 425.22686 -238.482267 
L 425.091355 -241.011273 
L 425.190448 -243.54028 
L 425.554741 -246.069286 
L 426.190967 -248.598292 
L 427.082023 -251.127298 
L 428.191154 -253.656305 
L 429.468957 -256.185311 
L 430.861218 -258.714317 
L 432.315603 -261.243323 
L 433.785875 -263.77233 
L 435.233294 -266.301336 
L 436.625832 -268.830342 
L 437.936404 -271.359348 
L 439.141396 -273.888355 
L 440.220342 -276.417361 
L 441.157006 -278.946367 
L 441.941488 -281.475374 
L 442.572591 -284.00438 
L 443.059566 -286.533386 
L 443.422509 -289.062392 
L 443.690969 -291.591399 
L 443.900807 -294.120405 
L 444.089736 -296.649411 
L 444.29236 -299.178417 
L 444.535718 -301.707424 
L 444.836262 -304.23643 
L 445.198882 -306.765436 
L 445.618061 -309.294442 
L 446.080722 -311.823449 
L 446.569894 -314.352455 
L 447.068239 -316.881461 
L 447.560633 -319.410467 
L 448.035435 -321.939474 
L 448.484488 -324.46848 
L 448.902293 -326.997486 
L 449.28491 -329.526492 
L 449.62908 -332.055499 
L 449.931854 -334.584505 
L 450.19074 -337.113511 
L 450.404208 -339.642517 
L 450.572285 -342.171524 
L 450.697005 -344.70053 
L 450.782558 -347.229536 
L 450.835092 -349.758542 
L 450.86219 -352.287549 
L 450.872131 -354.816555 
L 450.873044 -357.345561 
L 450.872083 -359.874568 
L 450.874758 -362.403574 
L 450.884523 -364.93258 
L 450.902682 -367.461586 
L 450.928631 -369.990593 
L 450.960351 -372.519599 
L 450.995062 -375.048605 
L 451.029866 -377.577611 
L 451.06228 -380.106618 
L 451.090558 -382.635624 
L 451.113798 -385.16463 
L 451.13186 -387.693636 
L 451.20814 -387.693636 
L 451.20814 -387.693636 
L 451.226202 -385.16463 
L 451.249442 -382.635624 
L 451.27772 -380.106618 
L 451.310134 -377.577611 
L 451.344938 -375.048605 
L 451.379649 -372.519599 
L 451.411369 -369.990593 
L 451.437318 -367.461586 
L 451.455477 -364.93258 
L 451.465242 -362.403574 
L 451.467917 -359.874568 
L 451.466956 -357.345561 
L 451.467869 -354.816555 
L 451.47781 -352.287549 
L 451.504908 -349.758542 
L 451.557442 -347.229536 
L 451.642995 -344.70053 
L 451.767715 -342.171524 
L 451.935792 -339.642517 
L 452.14926 -337.113511 
L 452.408146 -334.584505 
L 452.71092 -332.055499 
L 453.05509 -329.526492 
L 453.437707 -326.997486 
L 453.855512 -324.46848 
L 454.304565 -321.939474 
L 454.779367 -319.410467 
L 455.271761 -316.881461 
L 455.770106 -314.352455 
L 456.259278 -311.823449 
L 456.721939 -309.294442 
L 457.141118 -306.765436 
L 457.503738 -304.23643 
L 457.804282 -301.707424 
L 458.04764 -299.178417 
L 458.250264 -296.649411 
L 458.439193 -294.120405 
L 458.649031 -291.591399 
L 458.917491 -289.062392 
L 459.280434 -286.533386 
L 459.767409 -284.00438 
L 460.398512 -281.475374 
L 461.182994 -278.946367 
L 462.119658 -276.417361 
L 463.198604 -273.888355 
L 464.403596 -271.359348 
L 465.714168 -268.830342 
L 467.106706 -266.301336 
L 468.554125 -263.77233 
L 470.024397 -261.243323 
L 471.478782 -258.714317 
L 472.871043 -256.185311 
L 474.148846 -253.656305 
L 475.257977 -251.127298 
L 476.149033 -248.598292 
L 476.785259 -246.069286 
L 477.149552 -243.54028 
L 477.248645 -241.011273 
L 477.11314 -238.482267 
L 476.793156 -235.953261 
L 476.350566 -233.424255 
L 475.849661 -230.895248 
L 475.348485 -228.366242 
L 474.892836 -225.837236 
L 474.51424 -223.30823 
L 474.232232 -220.779223 
L 474.060273 -218.250217 
L 474.013851 -215.721211 
L 474.118831 -213.192205 
L 474.418133 -210.663198 
L 474.975092 -208.134192 
L 475.872396 -205.605186 
L 477.206005 -203.076179 
L 479.073909 -200.547173 
L 481.559956 -198.018167 
L 484.713551 -195.489161 
L 488.526932 -192.960154 
L 492.913145 -190.431148 
L 497.68942 -187.902142 
L 502.571829 -185.373136 
L 507.186882 -182.844129 
L 511.103483 -180.315123 
L 513.884212 -177.786117 
L 515.1492 -175.257111 
L 514.64064 -172.728104 
L 512.273345 -170.199098 
L 508.158239 -167.670092 
L 502.59143 -165.141086 
L 496.009998 -162.612079 
L 488.924161 -160.083073 
L 481.841213 -157.554067 
L 475.197728 -155.025061 
L 469.31292 -152.496054 
L 464.369296 -149.967048 
L 460.419357 -147.438042 
L 457.411423 -144.909036 
L 455.224917 -142.380029 
L 453.705937 -139.851023 
L 452.696508 -137.322017 
z
" style="stroke: #595959; stroke-width: 1.25"/>
    </defs>
    <g clip-path="url(#p690c80c54d)">
     <use xlink:href="#mb59a38d7db" x="0" y="432" style="fill: #95a3c3; stroke: #595959; stroke-width: 1.25"/>
    </g>
   </g>
   <g id="PolyCollection_4">
    <defs>
     <path id="m4e5356fd27" d="M 611.787896 -74.543458 
L 610.448104 -74.543458 
L 609.69742 -75.227396 
L 608.309754 -75.911334 
L 605.940372 -76.595273 
L 602.209719 -77.279211 
L 596.80596 -77.963149 
L 589.630748 -78.647087 
L 580.944132 -79.331026 
L 571.439446 -80.014964 
L 562.183785 -80.698902 
L 554.40531 -81.38284 
L 549.180932 -82.066779 
L 547.1388 -82.750717 
L 548.298994 -83.434655 
L 552.119227 -84.118593 
L 557.717577 -84.802532 
L 564.164968 -85.48647 
L 570.721147 -86.170408 
L 576.935311 -86.854346 
L 582.611774 -87.538285 
L 587.702639 -88.222223 
L 592.203127 -88.906161 
L 596.095538 -89.590099 
L 599.344165 -90.274038 
L 601.91513 -90.957976 
L 603.792913 -91.641914 
L 604.980817 -92.325853 
L 605.489976 -93.009791 
L 605.330109 -93.693729 
L 604.513365 -94.377667 
L 603.074274 -95.061606 
L 601.099074 -95.745544 
L 598.750705 -96.429482 
L 596.27463 -97.11342 
L 593.976437 -97.797359 
L 592.173031 -98.481297 
L 591.130244 -99.165235 
L 591.005912 -99.849173 
L 591.816248 -100.533112 
L 593.435775 -101.21705 
L 595.630321 -101.900988 
L 598.112465 -102.584926 
L 600.602645 -103.268865 
L 602.878898 -103.952803 
L 604.803908 -104.636741 
L 606.327038 -105.320679 
L 607.467334 -106.004618 
L 608.287531 -106.688556 
L 608.868331 -107.372494 
L 609.288391 -108.056432 
L 609.611606 -108.740371 
L 609.881091 -109.424309 
L 610.118681 -110.108247 
L 610.328726 -110.792186 
L 610.504684 -111.476124 
L 610.636659 -112.160062 
L 610.717994 -112.844 
L 610.749525 -113.527939 
L 610.740877 -114.211877 
L 610.708856 -114.895815 
L 610.67355 -115.579753 
L 610.653294 -116.263692 
L 610.660065 -116.94763 
L 610.696911 -117.631568 
L 610.75831 -118.315506 
L 610.833178 -118.999445 
L 610.909131 -119.683383 
L 610.976228 -120.367321 
L 611.028966 -121.051259 
L 611.066283 -121.735198 
L 611.090222 -122.419136 
L 611.104208 -123.103074 
L 611.111672 -123.787012 
L 611.115317 -124.470951 
L 611.116949 -125.154889 
L 611.117619 -125.838827 
L 611.117867 -126.522765 
L 611.117939 -127.206704 
L 611.117916 -127.890642 
L 611.117776 -128.57458 
L 611.117381 -129.258519 
L 611.116405 -129.942457 
L 611.11421 -130.626395 
L 611.109707 -131.310333 
L 611.101284 -131.994272 
L 611.086969 -132.67821 
L 611.064939 -133.362148 
L 611.034431 -134.046086 
L 610.996771 -134.730025 
L 610.956019 -135.413963 
L 610.91865 -136.097901 
L 610.892023 -136.781839 
L 610.882059 -137.465778 
L 610.891098 -138.149716 
L 610.917013 -138.833654 
L 610.95402 -139.517592 
L 610.994772 -140.201531 
L 611.032706 -140.885469 
L 611.063622 -141.569407 
L 611.086068 -142.253345 
L 611.149932 -142.253345 
L 611.149932 -142.253345 
L 611.172378 -141.569407 
L 611.203294 -140.885469 
L 611.241228 -140.201531 
L 611.28198 -139.517592 
L 611.318987 -138.833654 
L 611.344902 -138.149716 
L 611.353941 -137.465778 
L 611.343977 -136.781839 
L 611.31735 -136.097901 
L 611.279981 -135.413963 
L 611.239229 -134.730025 
L 611.201569 -134.046086 
L 611.171061 -133.362148 
L 611.149031 -132.67821 
L 611.134716 -131.994272 
L 611.126293 -131.310333 
L 611.12179 -130.626395 
L 611.119595 -129.942457 
L 611.118619 -129.258519 
L 611.118224 -128.57458 
L 611.118084 -127.890642 
L 611.118061 -127.206704 
L 611.118133 -126.522765 
L 611.118381 -125.838827 
L 611.119051 -125.154889 
L 611.120683 -124.470951 
L 611.124328 -123.787012 
L 611.131792 -123.103074 
L 611.145778 -122.419136 
L 611.169717 -121.735198 
L 611.207034 -121.051259 
L 611.259772 -120.367321 
L 611.326869 -119.683383 
L 611.402822 -118.999445 
L 611.47769 -118.315506 
L 611.539089 -117.631568 
L 611.575935 -116.94763 
L 611.582706 -116.263692 
L 611.56245 -115.579753 
L 611.527144 -114.895815 
L 611.495123 -114.211877 
L 611.486475 -113.527939 
L 611.518006 -112.844 
L 611.599341 -112.160062 
L 611.731316 -111.476124 
L 611.907274 -110.792186 
L 612.117319 -110.108247 
L 612.354909 -109.424309 
L 612.624394 -108.740371 
L 612.947609 -108.056432 
L 613.367669 -107.372494 
L 613.948469 -106.688556 
L 614.768666 -106.004618 
L 615.908962 -105.320679 
L 617.432092 -104.636741 
L 619.357102 -103.952803 
L 621.633355 -103.268865 
L 624.123535 -102.584926 
L 626.605679 -101.900988 
L 628.800225 -101.21705 
L 630.419752 -100.533112 
L 631.230088 -99.849173 
L 631.105756 -99.165235 
L 630.062969 -98.481297 
L 628.259563 -97.797359 
L 625.96137 -97.11342 
L 623.485295 -96.429482 
L 621.136926 -95.745544 
L 619.161726 -95.061606 
L 617.722635 -94.377667 
L 616.905891 -93.693729 
L 616.746024 -93.009791 
L 617.255183 -92.325853 
L 618.443087 -91.641914 
L 620.32087 -90.957976 
L 622.891835 -90.274038 
L 626.140462 -89.590099 
L 630.032873 -88.906161 
L 634.533361 -88.222223 
L 639.624226 -87.538285 
L 645.300689 -86.854346 
L 651.514853 -86.170408 
L 658.071032 -85.48647 
L 664.518423 -84.802532 
L 670.116773 -84.118593 
L 673.937006 -83.434655 
L 675.0972 -82.750717 
L 673.055068 -82.066779 
L 667.83069 -81.38284 
L 660.052215 -80.698902 
L 650.796554 -80.014964 
L 641.291868 -79.331026 
L 632.605252 -78.647087 
L 625.43004 -77.963149 
L 620.026281 -77.279211 
L 616.295628 -76.595273 
L 613.926246 -75.911334 
L 612.53858 -75.227396 
L 611.787896 -74.543458 
z
" style="stroke: #595959; stroke-width: 1.25"/>
    </defs>
    <g clip-path="url(#p690c80c54d)">
     <use xlink:href="#m4e5356fd27" x="0" y="432" style="fill: #db96c0; stroke: #595959; stroke-width: 1.25"/>
    </g>
   </g>
   <g id="PolyCollection_5">
    <defs>
     <path id="mc94edbe8fb" d="M 771.267819 -55.230688 
L 770.864181 -55.230688 
L 770.675212 -55.462137 
L 770.345447 -55.693586 
L 769.797827 -55.925035 
L 768.93059 -56.156484 
L 767.618492 -56.387933 
L 765.719343 -56.619382 
L 763.087286 -56.850831 
L 759.593295 -57.08228 
L 755.151824 -57.313729 
L 749.750752 -57.545178 
L 743.480329 -57.776627 
L 736.555815 -58.008076 
L 729.327848 -58.239525 
L 722.273855 -58.470974 
L 715.963906 -58.702423 
L 710.997136 -58.933872 
L 707.912237 -59.165321 
L 707.0868 -59.39677 
L 708.650986 -59.628219 
L 712.444024 -59.859667 
L 718.032831 -60.091116 
L 724.792357 -60.322565 
L 732.025596 -60.554014 
L 739.088106 -60.785463 
L 745.483304 -61.016912 
L 750.908923 -61.248361 
L 755.253789 -61.47981 
L 758.558825 -61.711259 
L 760.962104 -61.942708 
L 762.645383 -62.174157 
L 763.79272 -62.405606 
L 764.56458 -62.637055 
L 765.085707 -62.868504 
L 765.442646 -63.099953 
L 765.686627 -63.331402 
L 765.838742 -63.562851 
L 765.896081 -63.7943 
L 765.839007 -64.025749 
L 765.640315 -64.257198 
L 765.276555 -64.488647 
L 764.740408 -64.720096 
L 764.051574 -64.951545 
L 763.262774 -65.182994 
L 762.457921 -65.414443 
L 761.741254 -65.645892 
L 761.218934 -65.877341 
L 760.977319 -66.10879 
L 761.063983 -66.340239 
L 761.477355 -66.571688 
L 762.16856 -66.803137 
L 763.05501 -67.034586 
L 764.041191 -67.266035 
L 765.039685 -67.497484 
L 765.985915 -67.728933 
L 766.843244 -67.960382 
L 767.599126 -68.191831 
L 768.256121 -68.42328 
L 768.822433 -68.654729 
L 769.305288 -68.886178 
L 769.708305 -69.117627 
L 770.032199 -69.349076 
L 770.277314 -69.580524 
L 770.446538 -69.811973 
L 770.5475 -70.043422 
L 770.59333 -70.274871 
L 770.601617 -70.50632 
L 770.591669 -70.737769 
L 770.580797 -70.969218 
L 770.580853 -71.200667 
L 770.596368 -71.432116 
L 770.625065 -71.663565 
L 770.660542 -71.895014 
L 770.695952 -72.126463 
L 770.727053 -72.357912 
L 770.753429 -72.589361 
L 770.777603 -72.82081 
L 770.802802 -73.052259 
L 770.830624 -73.283708 
L 770.859716 -73.515157 
L 770.885936 -73.746606 
L 770.903716 -73.978055 
L 770.907959 -74.209504 
L 770.895735 -74.440953 
L 770.867301 -74.672402 
L 770.826254 -74.903851 
L 770.778899 -75.1353 
L 770.733028 -75.366749 
L 770.696439 -75.598198 
L 770.675487 -75.829647 
L 770.673972 -76.061096 
L 770.69255 -76.292545 
L 770.728762 -76.523994 
L 770.77767 -76.755443 
L 770.832954 -76.986892 
L 770.888228 -77.218341 
L 770.938239 -77.44979 
L 770.979641 -77.681239 
L 771.011184 -77.912688 
L 771.033372 -78.144137 
L 771.098628 -78.144137 
L 771.098628 -78.144137 
L 771.120816 -77.912688 
L 771.152359 -77.681239 
L 771.193761 -77.44979 
L 771.243772 -77.218341 
L 771.299046 -76.986892 
L 771.35433 -76.755443 
L 771.403238 -76.523994 
L 771.43945 -76.292545 
L 771.458028 -76.061096 
L 771.456513 -75.829647 
L 771.435561 -75.598198 
L 771.398972 -75.366749 
L 771.353101 -75.1353 
L 771.305746 -74.903851 
L 771.264699 -74.672402 
L 771.236265 -74.440953 
L 771.224041 -74.209504 
L 771.228284 -73.978055 
L 771.246064 -73.746606 
L 771.272284 -73.515157 
L 771.301376 -73.283708 
L 771.329198 -73.052259 
L 771.354397 -72.82081 
L 771.378571 -72.589361 
L 771.404947 -72.357912 
L 771.436048 -72.126463 
L 771.471458 -71.895014 
L 771.506935 -71.663565 
L 771.535632 -71.432116 
L 771.551147 -71.200667 
L 771.551203 -70.969218 
L 771.540331 -70.737769 
L 771.530383 -70.50632 
L 771.53867 -70.274871 
L 771.5845 -70.043422 
L 771.685462 -69.811973 
L 771.854686 -69.580524 
L 772.099801 -69.349076 
L 772.423695 -69.117627 
L 772.826712 -68.886178 
L 773.309567 -68.654729 
L 773.875879 -68.42328 
L 774.532874 -68.191831 
L 775.288756 -67.960382 
L 776.146085 -67.728933 
L 777.092315 -67.497484 
L 778.090809 -67.266035 
L 779.07699 -67.034586 
L 779.96344 -66.803137 
L 780.654645 -66.571688 
L 781.068017 -66.340239 
L 781.154681 -66.10879 
L 780.913066 -65.877341 
L 780.390746 -65.645892 
L 779.674079 -65.414443 
L 778.869226 -65.182994 
L 778.080426 -64.951545 
L 777.391592 -64.720096 
L 776.855445 -64.488647 
L 776.491685 -64.257198 
L 776.292993 -64.025749 
L 776.235919 -63.7943 
L 776.293258 -63.562851 
L 776.445373 -63.331402 
L 776.689354 -63.099953 
L 777.046293 -62.868504 
L 777.56742 -62.637055 
L 778.33928 -62.405606 
L 779.486617 -62.174157 
L 781.169896 -61.942708 
L 783.573175 -61.711259 
L 786.878211 -61.47981 
L 791.223077 -61.248361 
L 796.648696 -61.016912 
L 803.043894 -60.785463 
L 810.106404 -60.554014 
L 817.339643 -60.322565 
L 824.099169 -60.091116 
L 829.687976 -59.859667 
L 833.481014 -59.628219 
L 835.0452 -59.39677 
L 834.219763 -59.165321 
L 831.134864 -58.933872 
L 826.168094 -58.702423 
L 819.858145 -58.470974 
L 812.804152 -58.239525 
L 805.576185 -58.008076 
L 798.651671 -57.776627 
L 792.381248 -57.545178 
L 786.980176 -57.313729 
L 782.538705 -57.08228 
L 779.044714 -56.850831 
L 776.412657 -56.619382 
L 774.513508 -56.387933 
L 773.20141 -56.156484 
L 772.334173 -55.925035 
L 771.786553 -55.693586 
L 771.456788 -55.462137 
L 771.267819 -55.230688 
z
" style="stroke: #595959; stroke-width: 1.25"/>
    </defs>
    <g clip-path="url(#p690c80c54d)">
     <use xlink:href="#mc94edbe8fb" x="0" y="432" style="fill: #a2c865; stroke: #595959; stroke-width: 1.25"/>
    </g>
   </g>
   <g id="line2d_7">
    <path d="M 131.274 368.334341 
L 131.274 370.492736 
" clip-path="url(#p690c80c54d)" style="fill: none; stroke: #000000"/>
   </g>
   <g id="line2d_8">
    <path d="M 131.274 359.70076 
L 131.274 346.750388 
" clip-path="url(#p690c80c54d)" style="fill: none; stroke: #000000"/>
   </g>
   <g id="line2d_9">
    <path d="M 125.27595 370.492736 
L 137.27205 370.492736 
" clip-path="url(#p690c80c54d)" style="fill: none; stroke: #000000; stroke-linecap: round"/>
   </g>
   <g id="line2d_10">
    <path d="M 125.27595 346.750388 
L 137.27205 346.750388 
" clip-path="url(#p690c80c54d)" style="fill: none; stroke: #000000; stroke-linecap: round"/>
   </g>
   <g id="line2d_11">
    <path d="M 291.222 371.895693 
L 291.222 373.62241 
" clip-path="url(#p690c80c54d)" style="fill: none; stroke: #000000"/>
   </g>
   <g id="line2d_12">
    <path d="M 291.222 364.44923 
L 291.222 353.441414 
" clip-path="url(#p690c80c54d)" style="fill: none; stroke: #000000"/>
   </g>
   <g id="line2d_13">
    <path d="M 285.22395 373.62241 
L 297.22005 373.62241 
" clip-path="url(#p690c80c54d)" style="fill: none; stroke: #000000; stroke-linecap: round"/>
   </g>
   <g id="line2d_14">
    <path d="M 285.22395 353.441414 
L 297.22005 353.441414 
" clip-path="url(#p690c80c54d)" style="fill: none; stroke: #000000; stroke-linecap: round"/>
   </g>
   <g id="line2d_15">
    <path d="M 451.17 259.874977 
L 451.17 269.911515 
" clip-path="url(#p690c80c54d)" style="fill: none; stroke: #000000"/>
   </g>
   <g id="line2d_16">
    <path d="M 451.17 190.644447 
L 451.17 103.391317 
" clip-path="url(#p690c80c54d)" style="fill: none; stroke: #000000"/>
   </g>
   <g id="line2d_17">
    <path d="M 445.17195 269.911515 
L 457.16805 269.911515 
" clip-path="url(#p690c80c54d)" style="fill: none; stroke: #000000; stroke-linecap: round"/>
   </g>
   <g id="line2d_18">
    <path d="M 445.17195 103.391317 
L 457.16805 103.391317 
" clip-path="url(#p690c80c54d)" style="fill: none; stroke: #000000; stroke-linecap: round"/>
   </g>
   <g id="line2d_19">
    <path d="M 611.118 349.772142 
L 611.118 352.685975 
" clip-path="url(#p690c80c54d)" style="fill: none; stroke: #000000"/>
   </g>
   <g id="line2d_20">
    <path d="M 611.118 339.951443 
L 611.118 325.813954 
" clip-path="url(#p690c80c54d)" style="fill: none; stroke: #000000"/>
   </g>
   <g id="line2d_21">
    <path d="M 605.11995 352.685975 
L 617.11605 352.685975 
" clip-path="url(#p690c80c54d)" style="fill: none; stroke: #000000; stroke-linecap: round"/>
   </g>
   <g id="line2d_22">
    <path d="M 605.11995 325.813954 
L 617.11605 325.813954 
" clip-path="url(#p690c80c54d)" style="fill: none; stroke: #000000; stroke-linecap: round"/>
   </g>
   <g id="line2d_23">
    <path d="M 771.066 372.974891 
L 771.066 375.025367 
" clip-path="url(#p690c80c54d)" style="fill: none; stroke: #000000"/>
   </g>
   <g id="line2d_24">
    <path d="M 771.066 371.248175 
L 771.066 368.76602 
" clip-path="url(#p690c80c54d)" style="fill: none; stroke: #000000"/>
   </g>
   <g id="line2d_25">
    <path d="M 765.06795 375.025367 
L 777.06405 375.025367 
" clip-path="url(#p690c80c54d)" style="fill: none; stroke: #000000; stroke-linecap: round"/>
   </g>
   <g id="line2d_26">
    <path d="M 765.06795 368.76602 
L 777.06405 368.76602 
" clip-path="url(#p690c80c54d)" style="fill: none; stroke: #000000; stroke-linecap: round"/>
   </g>
   <g id="line2d_27">
    <path d="M 119.2779 366.607625 
L 143.2701 366.607625 
" clip-path="url(#p690c80c54d)" style="fill: none; stroke: #ff0000; stroke-width: 2"/>
   </g>
   <g id="line2d_28">
    <path d="M 279.2259 370.438777 
L 303.2181 370.438777 
" clip-path="url(#p690c80c54d)" style="fill: none; stroke: #ff0000; stroke-width: 2"/>
   </g>
   <g id="line2d_29">
    <path d="M 439.1739 239.90982 
L 463.1661 239.90982 
" clip-path="url(#p690c80c54d)" style="fill: none; stroke: #ff0000; stroke-width: 2"/>
   </g>
   <g id="line2d_30">
    <path d="M 599.1219 348.099385 
L 623.1141 348.099385 
" clip-path="url(#p690c80c54d)" style="fill: none; stroke: #ff0000; stroke-width: 2"/>
   </g>
   <g id="line2d_31">
    <path d="M 759.0699 372.435292 
L 783.0621 372.435292 
" clip-path="url(#p690c80c54d)" style="fill: none; stroke: #ff0000; stroke-width: 2"/>
   </g>
   <g id="patch_3">
    <path d="M 51.3 395.14 
L 51.3 27.6 
" style="fill: none; stroke: #cccccc; stroke-width: 1.25; stroke-linejoin: miter; stroke-linecap: square"/>
   </g>
   <g id="patch_4">
    <path d="M 851.04 395.14 
L 851.04 27.6 
" style="fill: none; stroke: #cccccc; stroke-width: 1.25; stroke-linejoin: miter; stroke-linecap: square"/>
   </g>
   <g id="patch_5">
    <path d="M 51.3 395.14 
L 851.04 395.14 
" style="fill: none; stroke: #cccccc; stroke-width: 1.25; stroke-linejoin: miter; stroke-linecap: square"/>
   </g>
   <g id="patch_6">
    <path d="M 51.3 27.6 
L 851.04 27.6 
" style="fill: none; stroke: #cccccc; stroke-width: 1.25; stroke-linejoin: miter; stroke-linecap: square"/>
   </g>
   <g id="text_13">
    <!-- Handshake duration on QUIC with ed25519 signature algorithm -->
    <g style="fill: #262626" transform="translate(260.139375 21.6) scale(0.12 -0.12)">
     <defs>
      <path id="DejaVuSans-51" d="M 2522 4238 
Q 1834 4238 1429 3725 
Q 1025 3213 1025 2328 
Q 1025 1447 1429 934 
Q 1834 422 2522 422 
Q 3209 422 3611 934 
Q 4013 1447 4013 2328 
Q 4013 3213 3611 3725 
Q 3209 4238 2522 4238 
z
M 3406 84 
L 4238 -825 
L 3475 -825 
L 2784 -78 
Q 2681 -84 2626 -87 
Q 2572 -91 2522 -91 
Q 1538 -91 948 567 
Q 359 1225 359 2328 
Q 359 3434 948 4092 
Q 1538 4750 2522 4750 
Q 3503 4750 4090 4092 
Q 4678 3434 4678 2328 
Q 4678 1516 4351 937 
Q 4025 359 3406 84 
z
" transform="scale(0.015625)"/>
      <path id="DejaVuSans-55" d="M 556 4666 
L 1191 4666 
L 1191 1831 
Q 1191 1081 1462 751 
Q 1734 422 2344 422 
Q 2950 422 3222 751 
Q 3494 1081 3494 1831 
L 3494 4666 
L 4128 4666 
L 4128 1753 
Q 4128 841 3676 375 
Q 3225 -91 2344 -91 
Q 1459 -91 1007 375 
Q 556 841 556 1753 
L 556 4666 
z
" transform="scale(0.015625)"/>
      <path id="DejaVuSans-49" d="M 628 4666 
L 1259 4666 
L 1259 0 
L 628 0 
L 628 4666 
z
" transform="scale(0.015625)"/>
      <path id="DejaVuSans-43" d="M 4122 4306 
L 4122 3641 
Q 3803 3938 3442 4084 
Q 3081 4231 2675 4231 
Q 1875 4231 1450 3742 
Q 1025 3253 1025 2328 
Q 1025 1406 1450 917 
Q 1875 428 2675 428 
Q 3081 428 3442 575 
Q 3803 722 4122 1019 
L 4122 359 
Q 3791 134 3420 21 
Q 3050 -91 2638 -91 
Q 1578 -91 968 557 
Q 359 1206 359 2328 
Q 359 3453 968 4101 
Q 1578 4750 2638 4750 
Q 3056 4750 3426 4639 
Q 3797 4528 4122 4306 
z
" transform="scale(0.015625)"/>
      <path id="DejaVuSans-77" d="M 269 3500 
L 844 3500 
L 1563 769 
L 2278 3500 
L 2956 3500 
L 3675 769 
L 4391 3500 
L 4966 3500 
L 4050 0 
L 3372 0 
L 2619 2869 
L 1863 0 
L 1184 0 
L 269 3500 
z
" transform="scale(0.015625)"/>
      <path id="DejaVuSans-67" d="M 2906 1791 
Q 2906 2416 2648 2759 
Q 2391 3103 1925 3103 
Q 1463 3103 1205 2759 
Q 947 2416 947 1791 
Q 947 1169 1205 825 
Q 1463 481 1925 481 
Q 2391 481 2648 825 
Q 2906 1169 2906 1791 
z
M 3481 434 
Q 3481 -459 3084 -895 
Q 2688 -1331 1869 -1331 
Q 1566 -1331 1297 -1286 
Q 1028 -1241 775 -1147 
L 775 -588 
Q 1028 -725 1275 -790 
Q 1522 -856 1778 -856 
Q 2344 -856 2625 -561 
Q 2906 -266 2906 331 
L 2906 616 
Q 2728 306 2450 153 
Q 2172 0 1784 0 
Q 1141 0 747 490 
Q 353 981 353 1791 
Q 353 2603 747 3093 
Q 1141 3584 1784 3584 
Q 2172 3584 2450 3431 
Q 2728 3278 2906 2969 
L 2906 3500 
L 3481 3500 
L 3481 434 
z
" transform="scale(0.015625)"/>
     </defs>
     <use xlink:href="#DejaVuSans-48"/>
     <use xlink:href="#DejaVuSans-61" x="75.195312"/>
     <use xlink:href="#DejaVuSans-6e" x="136.474609"/>
     <use xlink:href="#DejaVuSans-64" x="199.853516"/>
     <use xlink:href="#DejaVuSans-73" x="263.330078"/>
     <use xlink:href="#DejaVuSans-68" x="315.429688"/>
     <use xlink:href="#DejaVuSans-61" x="378.808594"/>
     <use xlink:href="#DejaVuSans-6b" x="440.087891"/>
     <use xlink:href="#DejaVuSans-65" x="494.373047"/>
     <use xlink:href="#DejaVuSans-20" x="555.896484"/>
     <use xlink:href="#DejaVuSans-64" x="587.683594"/>
     <use xlink:href="#DejaVuSans-75" x="651.160156"/>
     <use xlink:href="#DejaVuSans-72" x="714.539062"/>
     <use xlink:href="#DejaVuSans-61" x="755.652344"/>
     <use xlink:href="#DejaVuSans-74" x="816.931641"/>
     <use xlink:href="#DejaVuSans-69" x="856.140625"/>
     <use xlink:href="#DejaVuSans-6f" x="883.923828"/>
     <use xlink:href="#DejaVuSans-6e" x="945.105469"/>
     <use xlink:href="#DejaVuSans-20" x="1008.484375"/>
     <use xlink:href="#DejaVuSans-6f" x="1040.271484"/>
     <use xlink:href="#DejaVuSans-6e" x="1101.453125"/>
     <use xlink:href="#DejaVuSans-20" x="1164.832031"/>
     <use xlink:href="#DejaVuSans-51" x="1196.619141"/>
     <use xlink:href="#DejaVuSans-55" x="1275.330078"/>
     <use xlink:href="#DejaVuSans-49" x="1348.523438"/>
     <use xlink:href="#DejaVuSans-43" x="1378.015625"/>
     <use xlink:href="#DejaVuSans-20" x="1447.839844"/>
     <use xlink:href="#DejaVuSans-77" x="1479.626953"/>
     <use xlink:href="#DejaVuSans-69" x="1561.414062"/>
     <use xlink:href="#DejaVuSans-74" x="1589.197266"/>
     <use xlink:href="#DejaVuSans-68" x="1628.40625"/>
     <use xlink:href="#DejaVuSans-20" x="1691.785156"/>
     <use xlink:href="#DejaVuSans-65" x="1723.572266"/>
     <use xlink:href="#DejaVuSans-64" x="1785.095703"/>
     <use xlink:href="#DejaVuSans-32" x="1848.572266"/>
     <use xlink:href="#DejaVuSans-35" x="1912.195312"/>
     <use xlink:href="#DejaVuSans-35" x="1975.818359"/>
     <use xlink:href="#DejaVuSans-31" x="2039.441406"/>
     <use xlink:href="#DejaVuSans-39" x="2103.064453"/>
     <use xlink:href="#DejaVuSans-20" x="2166.6875"/>
     <use xlink:href="#DejaVuSans-73" x="2198.474609"/>
     <use xlink:href="#DejaVuSans-69" x="2250.574219"/>
     <use xlink:href="#DejaVuSans-67" x="2278.357422"/>
     <use xlink:href="#DejaVuSans-6e" x="2341.833984"/>
     <use xlink:href="#DejaVuSans-61" x="2405.212891"/>
     <use xlink:href="#DejaVuSans-74" x="2466.492188"/>
     <use xlink:href="#DejaVuSans-75" x="2505.701172"/>
     <use xlink:href="#DejaVuSans-72" x="2569.080078"/>
     <use xlink:href="#DejaVuSans-65" x="2607.943359"/>
     <use xlink:href="#DejaVuSans-20" x="2669.466797"/>
     <use xlink:href="#DejaVuSans-61" x="2701.253906"/>
     <use xlink:href="#DejaVuSans-6c" x="2762.533203"/>
     <use xlink:href="#DejaVuSans-67" x="2790.316406"/>
     <use xlink:href="#DejaVuSans-6f" x="2853.792969"/>
     <use xlink:href="#DejaVuSans-72" x="2914.974609"/>
     <use xlink:href="#DejaVuSans-69" x="2956.087891"/>
     <use xlink:href="#DejaVuSans-74" x="2983.871094"/>
     <use xlink:href="#DejaVuSans-68" x="3023.080078"/>
     <use xlink:href="#DejaVuSans-6d" x="3086.458984"/>
    </g>
   </g>
  </g>
 </g>
 <defs>
  <clipPath id="p690c80c54d">
   <rect x="51.3" y="27.6" width="799.74" height="367.54"/>
  </clipPath>
 </defs>
</svg>
