<?xml version="1.0" encoding="utf-8" standalone="no"?>
<!DOCTYPE svg PUBLIC "-//W3C//DTD SVG 1.1//EN"
  "http://www.w3.org/Graphics/SVG/1.1/DTD/svg11.dtd">
<svg xmlns:xlink="http://www.w3.org/1999/xlink" width="864pt" height="432pt" viewBox="0 0 864 432" xmlns="http://www.w3.org/2000/svg" version="1.1">
 <metadata>
  <rdf:RDF xmlns:dc="http://purl.org/dc/elements/1.1/" xmlns:cc="http://creativecommons.org/ns#" xmlns:rdf="http://www.w3.org/1999/02/22-rdf-syntax-ns#">
   <cc:Work>
    <dc:type rdf:resource="http://purl.org/dc/dcmitype/StillImage"/>
    <dc:date>2026-03-07T11:40:56.753298</dc:date>
    <dc:format>image/svg+xml</dc:format>
    <dc:creator>
     <cc:Agent>
      <dc:title>Matplotlib v3.6.3, https://matplotlib.org/</dc:title>
     </cc:Agent>
    </dc:creator>
   </cc:Work>
  </rdf:RDF>
 </metadata>
 <defs>
  <style type="text/css">*{stroke-linejoin: round; stroke-linecap: butt}</style>
 </defs>
 <g id="figure_1">
  <g id="patch_1">
   <path d="M 0 432 
L 864 432 
L 864 0 
L 0 0 
z
" style="fill: #ffffff"/>
  </g>
  <g id="axes_1">
   <g id="patch_2">
    <path d="M 51.3 395.14 
L 851.04 395.14 
L 851.04 27.6 
L 51.3 27.6 
z
" style="fill: #ffffff"/>
   </g>
   <g id="matplotlib.axis_1">
    <g id="xtick_1">
     <g id="text_1">
      <!-- P-384 -->
      <g style="fill: #262626" transform="translate(111.324 415.277812) scale(0.14 -0.14)">
       <defs>
        <path id="DejaVuSans-50" d="M 1259 4147 
L 1259 2394 
L 2053 2394 
Q 2494 2394 2734 2622 
Q 2975 2850 2975 3272 
Q 2975 3691 2734 3919 
Q 2494 4147 2053 4147 
L 1259 4147 
z
M 628 4666 
L 2053 4666 
Q 2838 4666 3239 4311 
Q 3641 3956 3641 3272 
Q 3641 2581 3239 2228 
Q 2838 1875 2053 1875 
L 1259 1875 
L 1259 0 
L 628 0 
L 628 4666 
z
" transform="scale(0.015625)"/>
        <path id="DejaVuSans-2d" d="M 313 2009 
L 1997 2009 
L 1997 1497 
L 313 1497 
L 313 2009 
z
" transform="scale(0.015625)"/>
        <path id="DejaVuSans-33" d="M 2597 2516 
Q 3050 2419 3304 2112 
Q 3559 1806 3559 1356 
Q 3559 666 3084 287 
Q 2609 -91 1734 -91 
Q 1441 -91 1130 -33 
Q 819 25 488 141 
L 488 750 
Q 750 597 1062 519 
Q 1375 441 1716 441 
Q 2309 441 2620 675 
Q 2931 909 2931 1356 
Q 2931 1769 2642 2001 
Q 2353 2234 1838 2234 
L 1294 2234 
L 1294 2753 
L 1863 2753 
Q 2328 2753 2575 2939 
Q 2822 3125 2822 3475 
Q 2822 3834 2567 4026 
Q 2313 4219 1838 4219 
Q 1578 4219 1281 4162 
Q 984 4106 628 3988 
L 628 4550 
Q 988 4650 1302 4700 
Q 1616 4750 1894 4750 
Q 2613 4750 3031 4423 
Q 3450 4097 3450 3541 
Q 3450 3153 3228 2886 
Q 3006 2619 2597 2516 
z
" transform="scale(0.015625)"/>
        <path id="DejaVuSans-38" d="M 2034 2216 
Q 1584 2216 1326 1975 
Q 1069 1734 1069 1313 
Q 1069 891 1326 650 
Q 1584 409 2034 409 
Q 2484 409 2743 651 
Q 3003 894 3003 1313 
Q 3003 1734 2745 1975 
Q 2488 2216 2034 2216 
z
M 1403 2484 
Q 997 2584 770 2862 
Q 544 3141 544 3541 
Q 544 4100 942 4425 
Q 1341 4750 2034 4750 
Q 2731 4750 3128 4425 
Q 3525 4100 3525 3541 
Q 3525 3141 3298 2862 
Q 3072 2584 2669 2484 
Q 3125 2378 3379 2068 
Q 3634 1759 3634 1313 
Q 3634 634 3220 271 
Q 2806 -91 2034 -91 
Q 1263 -91 848 271 
Q 434 634 434 1313 
Q 434 1759 690 2068 
Q 947 2378 1403 2484 
z
M 1172 3481 
Q 1172 3119 1398 2916 
Q 1625 2713 2034 2713 
Q 2441 2713 2670 2916 
Q 2900 3119 2900 3481 
Q 2900 3844 2670 4047 
Q 2441 4250 2034 4250 
Q 1625 4250 1398 4047 
Q 1172 3844 1172 3481 
z
" transform="scale(0.015625)"/>
        <path id="DejaVuSans-34" d="M 2419 4116 
L 825 1625 
L 2419 1625 
L 2419 4116 
z
M 2253 4666 
L 3047 4666 
L 3047 1625 
L 3713 1625 
L 3713 1100 
L 3047 1100 
L 3047 0 
L 2419 0 
L 2419 1100 
L 313 1100 
L 313 1709 
L 2253 4666 
z
" transform="scale(0.015625)"/>
       </defs>
       <use xlink:href="#DejaVuSans-50"/>
       <use xlink:href="#DejaVuSans-2d" x="58.052734"/>
       <use xlink:href="#DejaVuSans-33" x="94.136719"/>
       <use xlink:href="#DejaVuSans-38" x="157.759766"/>
       <use xlink:href="#DejaVuSans-34" x="221.382812"/>
      </g>
     </g>
    </g>
    <g id="xtick_2">
     <g id="text_2">
      <!-- x448 -->
      <g style="fill: #262626" transform="translate(273.717625 415.277812) scale(0.14 -0.14)">
       <defs>
        <path id="DejaVuSans-78" d="M 3513 3500 
L 2247 1797 
L 3578 0 
L 2900 0 
L 1881 1375 
L 863 0 
L 184 0 
L 1544 1831 
L 300 3500 
L 978 3500 
L 1906 2253 
L 2834 3500 
L 3513 3500 
z
" transform="scale(0.015625)"/>
       </defs>
       <use xlink:href="#DejaVuSans-78"/>
       <use xlink:href="#DejaVuSans-34" x="59.179688"/>
       <use xlink:href="#DejaVuSans-34" x="122.802734"/>
       <use xlink:href="#DejaVuSans-38" x="186.425781"/>
      </g>
     </g>
    </g>
    <g id="xtick_3">
     <g id="text_3">
      <!-- p384_mlkem768 -->
      <g style="fill: #262626" transform="translate(392.815156 415.277812) scale(0.14 -0.14)">
       <defs>
        <path id="DejaVuSans-70" d="M 1159 525 
L 1159 -1331 
L 581 -1331 
L 581 3500 
L 1159 3500 
L 1159 2969 
Q 1341 3281 1617 3432 
Q 1894 3584 2278 3584 
Q 2916 3584 3314 3078 
Q 3713 2572 3713 1747 
Q 3713 922 3314 415 
Q 2916 -91 2278 -91 
Q 1894 -91 1617 61 
Q 1341 213 1159 525 
z
M 3116 1747 
Q 3116 2381 2855 2742 
Q 2594 3103 2138 3103 
Q 1681 3103 1420 2742 
Q 1159 2381 1159 1747 
Q 1159 1113 1420 752 
Q 1681 391 2138 391 
Q 2594 391 2855 752 
Q 3116 1113 3116 1747 
z
" transform="scale(0.015625)"/>
        <path id="DejaVuSans-5f" d="M 3263 -1063 
L 3263 -1509 
L -63 -1509 
L -63 -1063 
L 3263 -1063 
z
" transform="scale(0.015625)"/>
        <path id="DejaVuSans-6d" d="M 3328 2828 
Q 3544 3216 3844 3400 
Q 4144 3584 4550 3584 
Q 5097 3584 5394 3201 
Q 5691 2819 5691 2113 
L 5691 0 
L 5113 0 
L 5113 2094 
Q 5113 2597 4934 2840 
Q 4756 3084 4391 3084 
Q 3944 3084 3684 2787 
Q 3425 2491 3425 1978 
L 3425 0 
L 2847 0 
L 2847 2094 
Q 2847 2600 2669 2842 
Q 2491 3084 2119 3084 
Q 1678 3084 1418 2786 
Q 1159 2488 1159 1978 
L 1159 0 
L 581 0 
L 581 3500 
L 1159 3500 
L 1159 2956 
Q 1356 3278 1631 3431 
Q 1906 3584 2284 3584 
Q 2666 3584 2933 3390 
Q 3200 3197 3328 2828 
z
" transform="scale(0.015625)"/>
        <path id="DejaVuSans-6c" d="M 603 4863 
L 1178 4863 
L 1178 0 
L 603 0 
L 603 4863 
z
" transform="scale(0.015625)"/>
        <path id="DejaVuSans-6b" d="M 581 4863 
L 1159 4863 
L 1159 1991 
L 2875 3500 
L 3609 3500 
L 1753 1863 
L 3688 0 
L 2938 0 
L 1159 1709 
L 1159 0 
L 581 0 
L 581 4863 
z
" transform="scale(0.015625)"/>
        <path id="DejaVuSans-65" d="M 3597 1894 
L 3597 1613 
L 953 1613 
Q 991 1019 1311 708 
Q 1631 397 2203 397 
Q 2534 397 2845 478 
Q 3156 559 3463 722 
L 3463 178 
Q 3153 47 2828 -22 
Q 2503 -91 2169 -91 
Q 1331 -91 842 396 
Q 353 884 353 1716 
Q 353 2575 817 3079 
Q 1281 3584 2069 3584 
Q 2775 3584 3186 3129 
Q 3597 2675 3597 1894 
z
M 3022 2063 
Q 3016 2534 2758 2815 
Q 2500 3097 2075 3097 
Q 1594 3097 1305 2825 
Q 1016 2553 972 2059 
L 3022 2063 
z
" transform="scale(0.015625)"/>
        <path id="DejaVuSans-37" d="M 525 4666 
L 3525 4666 
L 3525 4397 
L 1831 0 
L 1172 0 
L 2766 4134 
L 525 4134 
L 525 4666 
z
" transform="scale(0.015625)"/>
        <path id="DejaVuSans-36" d="M 2113 2584 
Q 1688 2584 1439 2293 
Q 1191 2003 1191 1497 
Q 1191 994 1439 701 
Q 1688 409 2113 409 
Q 2538 409 2786 701 
Q 3034 994 3034 1497 
Q 3034 2003 2786 2293 
Q 2538 2584 2113 2584 
z
M 3366 4563 
L 3366 3988 
Q 3128 4100 2886 4159 
Q 2644 4219 2406 4219 
Q 1781 4219 1451 3797 
Q 1122 3375 1075 2522 
Q 1259 2794 1537 2939 
Q 1816 3084 2150 3084 
Q 2853 3084 3261 2657 
Q 3669 2231 3669 1497 
Q 3669 778 3244 343 
Q 2819 -91 2113 -91 
Q 1303 -91 875 529 
Q 447 1150 447 2328 
Q 447 3434 972 4092 
Q 1497 4750 2381 4750 
Q 2619 4750 2861 4703 
Q 3103 4656 3366 4563 
z
" transform="scale(0.015625)"/>
       </defs>
       <use xlink:href="#DejaVuSans-70"/>
       <use xlink:href="#DejaVuSans-33" x="63.476562"/>
       <use xlink:href="#DejaVuSans-38" x="127.099609"/>
       <use xlink:href="#DejaVuSans-34" x="190.722656"/>
       <use xlink:href="#DejaVuSans-5f" x="254.345703"/>
       <use xlink:href="#DejaVuSans-6d" x="304.345703"/>
       <use xlink:href="#DejaVuSans-6c" x="401.757812"/>
       <use xlink:href="#DejaVuSans-6b" x="429.541016"/>
       <use xlink:href="#DejaVuSans-65" x="483.826172"/>
       <use xlink:href="#DejaVuSans-6d" x="545.349609"/>
       <use xlink:href="#DejaVuSans-37" x="642.761719"/>
       <use xlink:href="#DejaVuSans-36" x="706.384766"/>
       <use xlink:href="#DejaVuSans-38" x="770.007812"/>
      </g>
     </g>
    </g>
    <g id="xtick_4">
     <g id="text_4">
      <!-- x448_mlkem768 -->
      <g style="fill: #262626" transform="translate(553.063937 415.277812) scale(0.14 -0.14)">
       <use xlink:href="#DejaVuSans-78"/>
       <use xlink:href="#DejaVuSans-34" x="59.179688"/>
       <use xlink:href="#DejaVuSans-34" x="122.802734"/>
       <use xlink:href="#DejaVuSans-38" x="186.425781"/>
       <use xlink:href="#DejaVuSans-5f" x="250.048828"/>
       <use xlink:href="#DejaVuSans-6d" x="300.048828"/>
       <use xlink:href="#DejaVuSans-6c" x="397.460938"/>
       <use xlink:href="#DejaVuSans-6b" x="425.244141"/>
       <use xlink:href="#DejaVuSans-65" x="479.529297"/>
       <use xlink:href="#DejaVuSans-6d" x="541.052734"/>
       <use xlink:href="#DejaVuSans-37" x="638.464844"/>
       <use xlink:href="#DejaVuSans-36" x="702.087891"/>
       <use xlink:href="#DejaVuSans-38" x="765.710938"/>
      </g>
     </g>
    </g>
    <g id="xtick_5">
     <g id="text_5">
      <!-- mlkem768 -->
      <g style="fill: #262626" transform="translate(734.016312 415.277812) scale(0.14 -0.14)">
       <use xlink:href="#DejaVuSans-6d"/>
       <use xlink:href="#DejaVuSans-6c" x="97.412109"/>
       <use xlink:href="#DejaVuSans-6b" x="125.195312"/>
       <use xlink:href="#DejaVuSans-65" x="179.480469"/>
       <use xlink:href="#DejaVuSans-6d" x="241.003906"/>
       <use xlink:href="#DejaVuSans-37" x="338.416016"/>
       <use xlink:href="#DejaVuSans-36" x="402.039062"/>
       <use xlink:href="#DejaVuSans-38" x="465.662109"/>
      </g>
     </g>
    </g>
   </g>
   <g id="matplotlib.axis_2">
    <g id="ytick_1">
     <g id="line2d_1">
      <path d="M 51.3 364.313964 
L 851.04 364.313964 
" clip-path="url(#p8662e9c18f)" style="fill: none; stroke: #cccccc; stroke-linecap: round"/>
     </g>
     <g id="text_6">
      <!-- 5 -->
      <g style="fill: #262626" transform="translate(34.80125 368.493105) scale(0.11 -0.11)">
       <defs>
        <path id="DejaVuSans-35" d="M 691 4666 
L 3169 4666 
L 3169 4134 
L 1269 4134 
L 1269 2991 
Q 1406 3038 1543 3061 
Q 1681 3084 1819 3084 
Q 2600 3084 3056 2656 
Q 3513 2228 3513 1497 
Q 3513 744 3044 326 
Q 2575 -91 1722 -91 
Q 1428 -91 1123 -41 
Q 819 9 494 109 
L 494 744 
Q 775 591 1075 516 
Q 1375 441 1709 441 
Q 2250 441 2565 725 
Q 2881 1009 2881 1497 
Q 2881 1984 2565 2268 
Q 2250 2553 1709 2553 
Q 1456 2553 1204 2497 
Q 953 2441 691 2322 
L 691 4666 
z
" transform="scale(0.015625)"/>
       </defs>
       <use xlink:href="#DejaVuSans-35"/>
      </g>
     </g>
    </g>
    <g id="ytick_2">
     <g id="line2d_2">
      <path d="M 51.3 308.218114 
L 851.04 308.218114 
" clip-path="url(#p8662e9c18f)" style="fill: none; stroke: #cccccc; stroke-linecap: round"/>
     </g>
     <g id="text_7">
      <!-- 10 -->
      <g style="fill: #262626" transform="translate(27.8025 312.397255) scale(0.11 -0.11)">
       <defs>
        <path id="DejaVuSans-31" d="M 794 531 
L 1825 531 
L 1825 4091 
L 703 3866 
L 703 4441 
L 1819 4666 
L 2450 4666 
L 2450 531 
L 3481 531 
L 3481 0 
L 794 0 
L 794 531 
z
" transform="scale(0.015625)"/>
        <path id="DejaVuSans-30" d="M 2034 4250 
Q 1547 4250 1301 3770 
Q 1056 3291 1056 2328 
Q 1056 1369 1301 889 
Q 1547 409 2034 409 
Q 2525 409 2770 889 
Q 3016 1369 3016 2328 
Q 3016 3291 2770 3770 
Q 2525 4250 2034 4250 
z
M 2034 4750 
Q 2819 4750 3233 4129 
Q 3647 3509 3647 2328 
Q 3647 1150 3233 529 
Q 2819 -91 2034 -91 
Q 1250 -91 836 529 
Q 422 1150 422 2328 
Q 422 3509 836 4129 
Q 1250 4750 2034 4750 
z
" transform="scale(0.015625)"/>
       </defs>
       <use xlink:href="#DejaVuSans-31"/>
       <use xlink:href="#DejaVuSans-30" x="63.623047"/>
      </g>
     </g>
    </g>
    <g id="ytick_3">
     <g id="line2d_3">
      <path d="M 51.3 252.122263 
L 851.04 252.122263 
" clip-path="url(#p8662e9c18f)" style="fill: none; stroke: #cccccc; stroke-linecap: round"/>
     </g>
     <g id="text_8">
      <!-- 15 -->
      <g style="fill: #262626" transform="translate(27.8025 256.301404) scale(0.11 -0.11)">
       <use xlink:href="#DejaVuSans-31"/>
       <use xlink:href="#DejaVuSans-35" x="63.623047"/>
      </g>
     </g>
    </g>
    <g id="ytick_4">
     <g id="line2d_4">
      <path d="M 51.3 196.026413 
L 851.04 196.026413 
" clip-path="url(#p8662e9c18f)" style="fill: none; stroke: #cccccc; stroke-linecap: round"/>
     </g>
     <g id="text_9">
      <!-- 20 -->
      <g style="fill: #262626" transform="translate(27.8025 200.205553) scale(0.11 -0.11)">
       <defs>
        <path id="DejaVuSans-32" d="M 1228 531 
L 3431 531 
L 3431 0 
L 469 0 
L 469 531 
Q 828 903 1448 1529 
Q 2069 2156 2228 2338 
Q 2531 2678 2651 2914 
Q 2772 3150 2772 3378 
Q 2772 3750 2511 3984 
Q 2250 4219 1831 4219 
Q 1534 4219 1204 4116 
Q 875 4013 500 3803 
L 500 4441 
Q 881 4594 1212 4672 
Q 1544 4750 1819 4750 
Q 2544 4750 2975 4387 
Q 3406 4025 3406 3419 
Q 3406 3131 3298 2873 
Q 3191 2616 2906 2266 
Q 2828 2175 2409 1742 
Q 1991 1309 1228 531 
z
" transform="scale(0.015625)"/>
       </defs>
       <use xlink:href="#DejaVuSans-32"/>
       <use xlink:href="#DejaVuSans-30" x="63.623047"/>
      </g>
     </g>
    </g>
    <g id="ytick_5">
     <g id="line2d_5">
      <path d="M 51.3 139.930562 
L 851.04 139.930562 
" clip-path="url(#p8662e9c18f)" style="fill: none; stroke: #cccccc; stroke-linecap: round"/>
     </g>
     <g id="text_10">
      <!-- 25 -->
      <g style="fill: #262626" transform="translate(27.8025 144.109703) scale(0.11 -0.11)">
       <use xlink:href="#DejaVuSans-32"/>
       <use xlink:href="#DejaVuSans-35" x="63.623047"/>
      </g>
     </g>
    </g>
    <g id="ytick_6">
     <g id="line2d_6">
      <path d="M 51.3 83.834712 
L 851.04 83.834712 
" clip-path="url(#p8662e9c18f)" style="fill: none; stroke: #cccccc; stroke-linecap: round"/>
     </g>
     <g id="text_11">
      <!-- 30 -->
      <g style="fill: #262626" transform="translate(27.8025 88.013852) scale(0.11 -0.11)">
       <use xlink:href="#DejaVuSans-33"/>
       <use xlink:href="#DejaVuSans-30" x="63.623047"/>
      </g>
     </g>
    </g>
    <g id="ytick_7">
     <g id="line2d_7">
      <path d="M 51.3 27.738861 
L 851.04 27.738861 
" clip-path="url(#p8662e9c18f)" style="fill: none; stroke: #cccccc; stroke-linecap: round"/>
     </g>
     <g id="text_12">
      <!-- 35 -->
      <g style="fill: #262626" transform="translate(27.8025 31.918002) scale(0.11 -0.11)">
       <use xlink:href="#DejaVuSans-33"/>
       <use xlink:href="#DejaVuSans-35" x="63.623047"/>
      </g>
     </g>
    </g>
    <g id="text_13">
     <!-- Handshake duration (ms) -->
     <g style="fill: #262626" transform="translate(21.306875 287.437813) rotate(-90) scale(0.12 -0.12)">
      <defs>
       <path id="DejaVuSans-48" d="M 628 4666 
L 1259 4666 
L 1259 2753 
L 3553 2753 
L 3553 4666 
L 4184 4666 
L 4184 0 
L 3553 0 
L 3553 2222 
L 1259 2222 
L 1259 0 
L 628 0 
L 628 4666 
z
" transform="scale(0.015625)"/>
       <path id="DejaVuSans-61" d="M 2194 1759 
Q 1497 1759 1228 1600 
Q 959 1441 959 1056 
Q 959 750 1161 570 
Q 1363 391 1709 391 
Q 2188 391 2477 730 
Q 2766 1069 2766 1631 
L 2766 1759 
L 2194 1759 
z
M 3341 1997 
L 3341 0 
L 2766 0 
L 2766 531 
Q 2569 213 2275 61 
Q 1981 -91 1556 -91 
Q 1019 -91 701 211 
Q 384 513 384 1019 
Q 384 1609 779 1909 
Q 1175 2209 1959 2209 
L 2766 2209 
L 2766 2266 
Q 2766 2663 2505 2880 
Q 2244 3097 1772 3097 
Q 1472 3097 1187 3025 
Q 903 2953 641 2809 
L 641 3341 
Q 956 3463 1253 3523 
Q 1550 3584 1831 3584 
Q 2591 3584 2966 3190 
Q 3341 2797 3341 1997 
z
" transform="scale(0.015625)"/>
       <path id="DejaVuSans-6e" d="M 3513 2113 
L 3513 0 
L 2938 0 
L 2938 2094 
Q 2938 2591 2744 2837 
Q 2550 3084 2163 3084 
Q 1697 3084 1428 2787 
Q 1159 2491 1159 1978 
L 1159 0 
L 581 0 
L 581 3500 
L 1159 3500 
L 1159 2956 
Q 1366 3272 1645 3428 
Q 1925 3584 2291 3584 
Q 2894 3584 3203 3211 
Q 3513 2838 3513 2113 
z
" transform="scale(0.015625)"/>
       <path id="DejaVuSans-64" d="M 2906 2969 
L 2906 4863 
L 3481 4863 
L 3481 0 
L 2906 0 
L 2906 525 
Q 2725 213 2448 61 
Q 2172 -91 1784 -91 
Q 1150 -91 751 415 
Q 353 922 353 1747 
Q 353 2572 751 3078 
Q 1150 3584 1784 3584 
Q 2172 3584 2448 3432 
Q 2725 3281 2906 2969 
z
M 947 1747 
Q 947 1113 1208 752 
Q 1469 391 1925 391 
Q 2381 391 2643 752 
Q 2906 1113 2906 1747 
Q 2906 2381 2643 2742 
Q 2381 3103 1925 3103 
Q 1469 3103 1208 2742 
Q 947 2381 947 1747 
z
" transform="scale(0.015625)"/>
       <path id="DejaVuSans-73" d="M 2834 3397 
L 2834 2853 
Q 2591 2978 2328 3040 
Q 2066 3103 1784 3103 
Q 1356 3103 1142 2972 
Q 928 2841 928 2578 
Q 928 2378 1081 2264 
Q 1234 2150 1697 2047 
L 1894 2003 
Q 2506 1872 2764 1633 
Q 3022 1394 3022 966 
Q 3022 478 2636 193 
Q 2250 -91 1575 -91 
Q 1294 -91 989 -36 
Q 684 19 347 128 
L 347 722 
Q 666 556 975 473 
Q 1284 391 1588 391 
Q 1994 391 2212 530 
Q 2431 669 2431 922 
Q 2431 1156 2273 1281 
Q 2116 1406 1581 1522 
L 1381 1569 
Q 847 1681 609 1914 
Q 372 2147 372 2553 
Q 372 3047 722 3315 
Q 1072 3584 1716 3584 
Q 2034 3584 2315 3537 
Q 2597 3491 2834 3397 
z
" transform="scale(0.015625)"/>
       <path id="DejaVuSans-68" d="M 3513 2113 
L 3513 0 
L 2938 0 
L 2938 2094 
Q 2938 2591 2744 2837 
Q 2550 3084 2163 3084 
Q 1697 3084 1428 2787 
Q 1159 2491 1159 1978 
L 1159 0 
L 581 0 
L 581 4863 
L 1159 4863 
L 1159 2956 
Q 1366 3272 1645 3428 
Q 1925 3584 2291 3584 
Q 2894 3584 3203 3211 
Q 3513 2838 3513 2113 
z
" transform="scale(0.015625)"/>
       <path id="DejaVuSans-20" transform="scale(0.015625)"/>
       <path id="DejaVuSans-75" d="M 544 1381 
L 544 3500 
L 1119 3500 
L 1119 1403 
Q 1119 906 1312 657 
Q 1506 409 1894 409 
Q 2359 409 2629 706 
Q 2900 1003 2900 1516 
L 2900 3500 
L 3475 3500 
L 3475 0 
L 2900 0 
L 2900 538 
Q 2691 219 2414 64 
Q 2138 -91 1772 -91 
Q 1169 -91 856 284 
Q 544 659 544 1381 
z
M 1991 3584 
L 1991 3584 
z
" transform="scale(0.015625)"/>
       <path id="DejaVuSans-72" d="M 2631 2963 
Q 2534 3019 2420 3045 
Q 2306 3072 2169 3072 
Q 1681 3072 1420 2755 
Q 1159 2438 1159 1844 
L 1159 0 
L 581 0 
L 581 3500 
L 1159 3500 
L 1159 2956 
Q 1341 3275 1631 3429 
Q 1922 3584 2338 3584 
Q 2397 3584 2469 3576 
Q 2541 3569 2628 3553 
L 2631 2963 
z
" transform="scale(0.015625)"/>
       <path id="DejaVuSans-74" d="M 1172 4494 
L 1172 3500 
L 2356 3500 
L 2356 3053 
L 1172 3053 
L 1172 1153 
Q 1172 725 1289 603 
Q 1406 481 1766 481 
L 2356 481 
L 2356 0 
L 1766 0 
Q 1100 0 847 248 
Q 594 497 594 1153 
L 594 3053 
L 172 3053 
L 172 3500 
L 594 3500 
L 594 4494 
L 1172 4494 
z
" transform="scale(0.015625)"/>
       <path id="DejaVuSans-69" d="M 603 3500 
L 1178 3500 
L 1178 0 
L 603 0 
L 603 3500 
z
M 603 4863 
L 1178 4863 
L 1178 4134 
L 603 4134 
L 603 4863 
z
" transform="scale(0.015625)"/>
       <path id="DejaVuSans-6f" d="M 1959 3097 
Q 1497 3097 1228 2736 
Q 959 2375 959 1747 
Q 959 1119 1226 758 
Q 1494 397 1959 397 
Q 2419 397 2687 759 
Q 2956 1122 2956 1747 
Q 2956 2369 2687 2733 
Q 2419 3097 1959 3097 
z
M 1959 3584 
Q 2709 3584 3137 3096 
Q 3566 2609 3566 1747 
Q 3566 888 3137 398 
Q 2709 -91 1959 -91 
Q 1206 -91 779 398 
Q 353 888 353 1747 
Q 353 2609 779 3096 
Q 1206 3584 1959 3584 
z
" transform="scale(0.015625)"/>
       <path id="DejaVuSans-28" d="M 1984 4856 
Q 1566 4138 1362 3434 
Q 1159 2731 1159 2009 
Q 1159 1288 1364 580 
Q 1569 -128 1984 -844 
L 1484 -844 
Q 1016 -109 783 600 
Q 550 1309 550 2009 
Q 550 2706 781 3412 
Q 1013 4119 1484 4856 
L 1984 4856 
z
" transform="scale(0.015625)"/>
       <path id="DejaVuSans-29" d="M 513 4856 
L 1013 4856 
Q 1481 4119 1714 3412 
Q 1947 2706 1947 2009 
Q 1947 1309 1714 600 
Q 1481 -109 1013 -844 
L 513 -844 
Q 928 -128 1133 580 
Q 1338 1288 1338 2009 
Q 1338 2731 1133 3434 
Q 928 4138 513 4856 
z
" transform="scale(0.015625)"/>
      </defs>
      <use xlink:href="#DejaVuSans-48"/>
      <use xlink:href="#DejaVuSans-61" x="75.195312"/>
      <use xlink:href="#DejaVuSans-6e" x="136.474609"/>
      <use xlink:href="#DejaVuSans-64" x="199.853516"/>
      <use xlink:href="#DejaVuSans-73" x="263.330078"/>
      <use xlink:href="#DejaVuSans-68" x="315.429688"/>
      <use xlink:href="#DejaVuSans-61" x="378.808594"/>
      <use xlink:href="#DejaVuSans-6b" x="440.087891"/>
      <use xlink:href="#DejaVuSans-65" x="494.373047"/>
      <use xlink:href="#DejaVuSans-20" x="555.896484"/>
      <use xlink:href="#DejaVuSans-64" x="587.683594"/>
      <use xlink:href="#DejaVuSans-75" x="651.160156"/>
      <use xlink:href="#DejaVuSans-72" x="714.539062"/>
      <use xlink:href="#DejaVuSans-61" x="755.652344"/>
      <use xlink:href="#DejaVuSans-74" x="816.931641"/>
      <use xlink:href="#DejaVuSans-69" x="856.140625"/>
      <use xlink:href="#DejaVuSans-6f" x="883.923828"/>
      <use xlink:href="#DejaVuSans-6e" x="945.105469"/>
      <use xlink:href="#DejaVuSans-20" x="1008.484375"/>
      <use xlink:href="#DejaVuSans-28" x="1040.271484"/>
      <use xlink:href="#DejaVuSans-6d" x="1079.285156"/>
      <use xlink:href="#DejaVuSans-73" x="1176.697266"/>
      <use xlink:href="#DejaVuSans-29" x="1228.796875"/>
     </g>
    </g>
   </g>
   <g id="PolyCollection_1">
    <defs>
     <path id="m32f04ab89c" d="M 133.027498 -83.254481 
L 129.520502 -83.254481 
L 128.498421 -83.975757 
L 127.018371 -84.697033 
L 124.953008 -85.418309 
L 122.177665 -86.139585 
L 118.590013 -86.860861 
L 114.134358 -87.582137 
L 108.827233 -88.303413 
L 102.779376 -89.024689 
L 96.208266 -89.745965 
L 89.435949 -90.467241 
L 82.868854 -91.188517 
L 76.959804 -91.909793 
L 72.1565 -92.631069 
L 68.844488 -93.352345 
L 67.2948 -94.073621 
L 67.626309 -94.794897 
L 69.790218 -95.516173 
L 73.579535 -96.237449 
L 78.661205 -96.958725 
L 84.624005 -97.680001 
L 91.032677 -98.401277 
L 97.478539 -99.122553 
L 103.618725 -99.843829 
L 109.199679 -100.565105 
L 114.064202 -101.286381 
L 118.144555 -102.007657 
L 121.446 -102.728933 
L 124.025748 -103.450209 
L 125.971686 -104.171485 
L 127.384009 -104.892761 
L 128.361481 -105.614037 
L 128.992738 -106.335313 
L 129.352158 -107.056589 
L 129.499341 -107.777865 
L 129.481007 -108.499141 
L 129.334209 -109.220417 
L 129.089864 -109.941693 
L 128.775821 -110.662969 
L 128.418892 -111.384245 
L 128.045477 -112.105521 
L 127.68071 -112.826797 
L 127.346294 -113.548073 
L 127.057526 -114.269349 
L 126.820222 -114.990625 
L 126.628419 -115.711901 
L 126.46367 -116.433177 
L 126.29652 -117.154453 
L 126.090341 -117.875729 
L 125.807216 -118.597005 
L 125.415033 -119.318281 
L 124.894595 -120.039557 
L 124.245398 -120.760833 
L 123.488818 -121.482109 
L 122.667861 -122.203385 
L 121.843201 -122.924661 
L 121.085949 -123.645937 
L 120.468266 -124.367213 
L 120.053376 -125.088489 
L 119.886763 -125.809765 
L 119.990081 -126.531041 
L 120.358819 -127.252317 
L 120.963984 -127.973593 
L 121.757304 -128.694869 
L 122.678775 -129.416145 
L 123.66505 -130.137421 
L 124.657157 -130.858697 
L 125.606356 -131.579973 
L 126.47747 -132.301249 
L 127.249625 -133.022525 
L 127.914818 -133.743801 
L 128.47506 -134.465077 
L 128.938942 -135.186353 
L 129.318357 -135.907629 
L 129.625904 -136.628905 
L 129.873219 -137.350181 
L 130.070216 -138.071457 
L 130.225049 -138.792733 
L 130.344525 -139.514009 
L 130.434669 -140.235285 
L 130.501209 -140.956561 
L 130.54986 -141.677837 
L 130.586325 -142.399113 
L 130.616087 -143.120389 
L 130.644051 -143.841665 
L 130.674175 -144.562941 
L 130.709167 -145.284217 
L 130.75035 -146.005493 
L 130.797699 -146.726769 
L 130.850058 -147.448045 
L 130.905471 -148.169321 
L 130.961576 -148.890597 
L 131.015989 -149.611873 
L 131.066622 -150.333149 
L 131.111896 -151.054425 
L 131.150846 -151.775701 
L 131.183121 -152.496977 
L 131.208897 -153.218253 
L 131.228749 -153.939529 
L 131.243498 -154.660805 
L 131.304502 -154.660805 
L 131.304502 -154.660805 
L 131.319251 -153.939529 
L 131.339103 -153.218253 
L 131.364879 -152.496977 
L 131.397154 -151.775701 
L 131.436104 -151.054425 
L 131.481378 -150.333149 
L 131.532011 -149.611873 
L 131.586424 -148.890597 
L 131.642529 -148.169321 
L 131.697942 -147.448045 
L 131.750301 -146.726769 
L 131.79765 -146.005493 
L 131.838833 -145.284217 
L 131.873825 -144.562941 
L 131.903949 -143.841665 
L 131.931913 -143.120389 
L 131.961675 -142.399113 
L 131.99814 -141.677837 
L 132.046791 -140.956561 
L 132.113331 -140.235285 
L 132.203475 -139.514009 
L 132.322951 -138.792733 
L 132.477784 -138.071457 
L 132.674781 -137.350181 
L 132.922096 -136.628905 
L 133.229643 -135.907629 
L 133.609058 -135.186353 
L 134.07294 -134.465077 
L 134.633182 -133.743801 
L 135.298375 -133.022525 
L 136.07053 -132.301249 
L 136.941644 -131.579973 
L 137.890843 -130.858697 
L 138.88295 -130.137421 
L 139.869225 -129.416145 
L 140.790696 -128.694869 
L 141.584016 -127.973593 
L 142.189181 -127.252317 
L 142.557919 -126.531041 
L 142.661237 -125.809765 
L 142.494624 -125.088489 
L 142.079734 -124.367213 
L 141.462051 -123.645937 
L 140.704799 -122.924661 
L 139.880139 -122.203385 
L 139.059182 -121.482109 
L 138.302602 -120.760833 
L 137.653405 -120.039557 
L 137.132967 -119.318281 
L 136.740784 -118.597005 
L 136.457659 -117.875729 
L 136.25148 -117.154453 
L 136.08433 -116.433177 
L 135.919581 -115.711901 
L 135.727778 -114.990625 
L 135.490474 -114.269349 
L 135.201706 -113.548073 
L 134.86729 -112.826797 
L 134.502523 -112.105521 
L 134.129108 -111.384245 
L 133.772179 -110.662969 
L 133.458136 -109.941693 
L 133.213791 -109.220417 
L 133.066993 -108.499141 
L 133.048659 -107.777865 
L 133.195842 -107.056589 
L 133.555262 -106.335313 
L 134.186519 -105.614037 
L 135.163991 -104.892761 
L 136.576314 -104.171485 
L 138.522252 -103.450209 
L 141.102 -102.728933 
L 144.403445 -102.007657 
L 148.483798 -101.286381 
L 153.348321 -100.565105 
L 158.929275 -99.843829 
L 165.069461 -99.122553 
L 171.515323 -98.401277 
L 177.923995 -97.680001 
L 183.886795 -96.958725 
L 188.968465 -96.237449 
L 192.757782 -95.516173 
L 194.921691 -94.794897 
L 195.2532 -94.073621 
L 193.703512 -93.352345 
L 190.3915 -92.631069 
L 185.588196 -91.909793 
L 179.679146 -91.188517 
L 173.112051 -90.467241 
L 166.339734 -89.745965 
L 159.768624 -89.024689 
L 153.720767 -88.303413 
L 148.413642 -87.582137 
L 143.957987 -86.860861 
L 140.370335 -86.139585 
L 137.594992 -85.418309 
L 135.529629 -84.697033 
L 134.049579 -83.975757 
L 133.027498 -83.254481 
z
" style="stroke: #595959; stroke-width: 1.25"/>
    </defs>
    <g clip-path="url(#p8662e9c18f)">
     <use xlink:href="#m32f04ab89c" x="0" y="432" style="fill: #72b6a1; stroke: #595959; stroke-width: 1.25"/>
    </g>
   </g>
   <g id="PolyCollection_2">
    <defs>
     <path id="ma5ba71a57d" d="M 292.775663 -62.09192 
L 289.668337 -62.09192 
L 288.571177 -62.773824 
L 286.886377 -63.455727 
L 284.422584 -64.137631 
L 280.995133 -64.819535 
L 276.466133 -65.501438 
L 270.793502 -66.183342 
L 264.079207 -66.865246 
L 256.60299 -67.547149 
L 248.827217 -68.229053 
L 241.362786 -68.910957 
L 234.895082 -69.59286 
L 230.080649 -70.274764 
L 227.435705 -70.956668 
L 227.2428 -71.638572 
L 229.499179 -72.320475 
L 233.920072 -73.002379 
L 239.995387 -73.684283 
L 247.08421 -74.366186 
L 254.522844 -75.04809 
L 261.721359 -75.729994 
L 268.230153 -76.411897 
L 273.768765 -77.093801 
L 278.219971 -77.775705 
L 281.599649 -78.457608 
L 284.015576 -79.139512 
L 285.626674 -79.821416 
L 286.610016 -80.503319 
L 287.138232 -81.185223 
L 287.366334 -81.867127 
L 287.425181 -82.549031 
L 287.41863 -83.230934 
L 287.422318 -83.912838 
L 287.48327 -84.594742 
L 287.620426 -85.276645 
L 287.826589 -85.958549 
L 288.072108 -86.640453 
L 288.31021 -87.322356 
L 288.483518 -88.00426 
L 288.531142 -88.686164 
L 288.395907 -89.368067 
L 288.031482 -90.049971 
L 287.40926 -90.731875 
L 286.524683 -91.413779 
L 285.402259 -92.095682 
L 284.098083 -92.777586 
L 282.698519 -93.45949 
L 281.314007 -94.141393 
L 280.06782 -94.823297 
L 279.080849 -95.505201 
L 278.454695 -96.187104 
L 278.256232 -96.869008 
L 278.506898 -97.550912 
L 279.17924 -98.232815 
L 280.201707 -98.914719 
L 281.470841 -99.596623 
L 282.868248 -100.278527 
L 284.278686 -100.96043 
L 285.605525 -101.642334 
L 286.780759 -102.324238 
L 287.768338 -103.006141 
L 288.561324 -103.688045 
L 289.17472 -104.369949 
L 289.63646 -105.051852 
L 289.978896 -105.733756 
L 290.232415 -106.41566 
L 290.421858 -107.097563 
L 290.565521 -107.779467 
L 290.675982 -108.461371 
L 290.761763 -109.143274 
L 290.828991 -109.825178 
L 290.882554 -110.507082 
L 290.926584 -111.188986 
L 290.964416 -111.870889 
L 290.998314 -112.552793 
L 291.029233 -113.234697 
L 291.05681 -113.9166 
L 291.079617 -114.598504 
L 291.095624 -115.280408 
L 291.102754 -115.962311 
L 291.099421 -116.644215 
L 291.084978 -117.326119 
L 291.060037 -118.008022 
L 291.026606 -118.689926 
L 290.988029 -119.37183 
L 290.948681 -120.053734 
L 290.91343 -120.735637 
L 290.886928 -121.417541 
L 290.872859 -122.099445 
L 290.873302 -122.781348 
L 290.888391 -123.463252 
L 290.916341 -124.145156 
L 290.953857 -124.827059 
L 290.996804 -125.508963 
L 291.040966 -126.190867 
L 291.082715 -126.87277 
L 291.119454 -127.554674 
L 291.149767 -128.236578 
L 291.173328 -128.918481 
L 291.190634 -129.600385 
L 291.253366 -129.600385 
L 291.253366 -129.600385 
L 291.270672 -128.918481 
L 291.294233 -128.236578 
L 291.324546 -127.554674 
L 291.361285 -126.87277 
L 291.403034 -126.190867 
L 291.447196 -125.508963 
L 291.490143 -124.827059 
L 291.527659 -124.145156 
L 291.555609 -123.463252 
L 291.570698 -122.781348 
L 291.571141 -122.099445 
L 291.557072 -121.417541 
L 291.53057 -120.735637 
L 291.495319 -120.053734 
L 291.455971 -119.37183 
L 291.417394 -118.689926 
L 291.383963 -118.008022 
L 291.359022 -117.326119 
L 291.344579 -116.644215 
L 291.341246 -115.962311 
L 291.348376 -115.280408 
L 291.364383 -114.598504 
L 291.38719 -113.9166 
L 291.414767 -113.234697 
L 291.445686 -112.552793 
L 291.479584 -111.870889 
L 291.517416 -111.188986 
L 291.561446 -110.507082 
L 291.615009 -109.825178 
L 291.682237 -109.143274 
L 291.768018 -108.461371 
L 291.878479 -107.779467 
L 292.022142 -107.097563 
L 292.211585 -106.41566 
L 292.465104 -105.733756 
L 292.80754 -105.051852 
L 293.26928 -104.369949 
L 293.882676 -103.688045 
L 294.675662 -103.006141 
L 295.663241 -102.324238 
L 296.838475 -101.642334 
L 298.165314 -100.96043 
L 299.575752 -100.278527 
L 300.973159 -99.596623 
L 302.242293 -98.914719 
L 303.26476 -98.232815 
L 303.937102 -97.550912 
L 304.187768 -96.869008 
L 303.989305 -96.187104 
L 303.363151 -95.505201 
L 302.37618 -94.823297 
L 301.129993 -94.141393 
L 299.745481 -93.45949 
L 298.345917 -92.777586 
L 297.041741 -92.095682 
L 295.919317 -91.413779 
L 295.03474 -90.731875 
L 294.412518 -90.049971 
L 294.048093 -89.368067 
L 293.912858 -88.686164 
L 293.960482 -88.00426 
L 294.13379 -87.322356 
L 294.371892 -86.640453 
L 294.617411 -85.958549 
L 294.823574 -85.276645 
L 294.96073 -84.594742 
L 295.021682 -83.912838 
L 295.02537 -83.230934 
L 295.018819 -82.549031 
L 295.077666 -81.867127 
L 295.305768 -81.185223 
L 295.833984 -80.503319 
L 296.817326 -79.821416 
L 298.428424 -79.139512 
L 300.844351 -78.457608 
L 304.224029 -77.775705 
L 308.675235 -77.093801 
L 314.213847 -76.411897 
L 320.722641 -75.729994 
L 327.921156 -75.04809 
L 335.35979 -74.366186 
L 342.448613 -73.684283 
L 348.523928 -73.002379 
L 352.944821 -72.320475 
L 355.2012 -71.638572 
L 355.008295 -70.956668 
L 352.363351 -70.274764 
L 347.548918 -69.59286 
L 341.081214 -68.910957 
L 333.616783 -68.229053 
L 325.84101 -67.547149 
L 318.364793 -66.865246 
L 311.650498 -66.183342 
L 305.977867 -65.501438 
L 301.448867 -64.819535 
L 298.021416 -64.137631 
L 295.557623 -63.455727 
L 293.872823 -62.773824 
L 292.775663 -62.09192 
z
" style="stroke: #595959; stroke-width: 1.25"/>
    </defs>
    <g clip-path="url(#p8662e9c18f)">
     <use xlink:href="#ma5ba71a57d" x="0" y="432" style="fill: #e99675; stroke: #595959; stroke-width: 1.25"/>
    </g>
   </g>
   <g id="PolyCollection_3">
    <defs>
     <path id="me0e44ef72a" d="M 453.104318 -175.353199 
L 449.235682 -175.353199 
L 448.040573 -177.498052 
L 446.28613 -179.642905 
L 443.816984 -181.787758 
L 440.489048 -183.932611 
L 436.199377 -186.077464 
L 430.921177 -188.222317 
L 424.737555 -190.36717 
L 417.865392 -192.512023 
L 410.660336 -194.656876 
L 403.596322 -196.801728 
L 397.218018 -198.946581 
L 392.071355 -201.091434 
L 388.623878 -203.236287 
L 387.1908 -205.38114 
L 387.882908 -207.525993 
L 390.588124 -209.670846 
L 394.990873 -211.815699 
L 400.624559 -213.960552 
L 406.945067 -216.105405 
L 413.409456 -218.250257 
L 419.544562 -220.39511 
L 424.994545 -222.539963 
L 429.54266 -224.684816 
L 433.108747 -226.829669 
L 435.728366 -228.974522 
L 437.521493 -231.119375 
L 438.658359 -233.264228 
L 439.328135 -235.409081 
L 439.713825 -237.553933 
L 439.974555 -239.698786 
L 440.235047 -241.843639 
L 440.581271 -243.988492 
L 441.061025 -246.133345 
L 441.68816 -248.278198 
L 442.449258 -250.423051 
L 443.311611 -252.567904 
L 444.231437 -254.712757 
L 445.161451 -256.85761 
L 446.057047 -259.002462 
L 446.88069 -261.147315 
L 447.604321 -263.292168 
L 448.209903 -265.437021 
L 448.688386 -267.581874 
L 449.037571 -269.726727 
L 449.259398 -271.87158 
L 449.357252 -274.016433 
L 449.333818 -276.161286 
L 449.189947 -278.306139 
L 448.924846 -280.450991 
L 448.537662 -282.595844 
L 448.030278 -284.740697 
L 447.410841 -286.88555 
L 446.697227 -289.030403 
L 445.919529 -291.175256 
L 445.120625 -293.320109 
L 444.354164 -295.464962 
L 443.679769 -297.609815 
L 443.155967 -299.754668 
L 442.831963 -301.89952 
L 442.73989 -304.044373 
L 442.889241 -306.189226 
L 443.264856 -308.334079 
L 443.829062 -310.478932 
L 444.527606 -312.623785 
L 445.298125 -314.768638 
L 446.079331 -316.913491 
L 446.819032 -319.058344 
L 447.479539 -321.203197 
L 448.039773 -323.348049 
L 448.494236 -325.492902 
L 448.849673 -327.637755 
L 449.120599 -329.782608 
L 449.324832 -331.927461 
L 449.479894 -334.072314 
L 449.600682 -336.217167 
L 449.698451 -338.36202 
L 449.78085 -340.506873 
L 449.852625 -342.651726 
L 449.916622 -344.796578 
L 449.974766 -346.941431 
L 450.028829 -349.086284 
L 450.080866 -351.231137 
L 450.133295 -353.37599 
L 450.188683 -355.520843 
L 450.249336 -357.665696 
L 450.316841 -359.810549 
L 450.3917 -361.955402 
L 450.473153 -364.100254 
L 450.559262 -366.245107 
L 450.647202 -368.38996 
L 450.733712 -370.534813 
L 450.815585 -372.679666 
L 450.890101 -374.824519 
L 450.955325 -376.969372 
L 451.010247 -379.114225 
L 451.054746 -381.259078 
L 451.089447 -383.403931 
L 451.115495 -385.548783 
L 451.134319 -387.693636 
L 451.205681 -387.693636 
L 451.205681 -387.693636 
L 451.224505 -385.548783 
L 451.250553 -383.403931 
L 451.285254 -381.259078 
L 451.329753 -379.114225 
L 451.384675 -376.969372 
L 451.449899 -374.824519 
L 451.524415 -372.679666 
L 451.606288 -370.534813 
L 451.692798 -368.38996 
L 451.780738 -366.245107 
L 451.866847 -364.100254 
L 451.9483 -361.955402 
L 452.023159 -359.810549 
L 452.090664 -357.665696 
L 452.151317 -355.520843 
L 452.206705 -353.37599 
L 452.259134 -351.231137 
L 452.311171 -349.086284 
L 452.365234 -346.941431 
L 452.423378 -344.796578 
L 452.487375 -342.651726 
L 452.55915 -340.506873 
L 452.641549 -338.36202 
L 452.739318 -336.217167 
L 452.860106 -334.072314 
L 453.015168 -331.927461 
L 453.219401 -329.782608 
L 453.490327 -327.637755 
L 453.845764 -325.492902 
L 454.300227 -323.348049 
L 454.860461 -321.203197 
L 455.520968 -319.058344 
L 456.260669 -316.913491 
L 457.041875 -314.768638 
L 457.812394 -312.623785 
L 458.510938 -310.478932 
L 459.075144 -308.334079 
L 459.450759 -306.189226 
L 459.60011 -304.044373 
L 459.508037 -301.89952 
L 459.184033 -299.754668 
L 458.660231 -297.609815 
L 457.985836 -295.464962 
L 457.219375 -293.320109 
L 456.420471 -291.175256 
L 455.642773 -289.030403 
L 454.929159 -286.88555 
L 454.309722 -284.740697 
L 453.802338 -282.595844 
L 453.415154 -280.450991 
L 453.150053 -278.306139 
L 453.006182 -276.161286 
L 452.982748 -274.016433 
L 453.080602 -271.87158 
L 453.302429 -269.726727 
L 453.651614 -267.581874 
L 454.130097 -265.437021 
L 454.735679 -263.292168 
L 455.45931 -261.147315 
L 456.282953 -259.002462 
L 457.178549 -256.85761 
L 458.108563 -254.712757 
L 459.028389 -252.567904 
L 459.890742 -250.423051 
L 460.65184 -248.278198 
L 461.278975 -246.133345 
L 461.758729 -243.988492 
L 462.104953 -241.843639 
L 462.365445 -239.698786 
L 462.626175 -237.553933 
L 463.011865 -235.409081 
L 463.681641 -233.264228 
L 464.818507 -231.119375 
L 466.611634 -228.974522 
L 469.231253 -226.829669 
L 472.79734 -224.684816 
L 477.345455 -222.539963 
L 482.795438 -220.39511 
L 488.930544 -218.250257 
L 495.394933 -216.105405 
L 501.715441 -213.960552 
L 507.349127 -211.815699 
L 511.751876 -209.670846 
L 514.457092 -207.525993 
L 515.1492 -205.38114 
L 513.716122 -203.236287 
L 510.268645 -201.091434 
L 505.121982 -198.946581 
L 498.743678 -196.801728 
L 491.679664 -194.656876 
L 484.474608 -192.512023 
L 477.602445 -190.36717 
L 471.418823 -188.222317 
L 466.140623 -186.077464 
L 461.850952 -183.932611 
L 458.523016 -181.787758 
L 456.05387 -179.642905 
L 454.299427 -177.498052 
L 453.104318 -175.353199 
z
" style="stroke: #595959; stroke-width: 1.25"/>
    </defs>
    <g clip-path="url(#p8662e9c18f)">
     <use xlink:href="#me0e44ef72a" x="0" y="432" style="fill: #95a3c3; stroke: #595959; stroke-width: 1.25"/>
    </g>
   </g>
   <g id="PolyCollection_4">
    <defs>
     <path id="m2a10104507" d="M 612.87735 -93.61466 
L 609.35865 -93.61466 
L 608.380593 -94.502878 
L 606.985285 -95.391096 
L 605.063354 -96.279315 
L 602.508957 -97.167533 
L 599.235739 -98.055751 
L 595.195944 -98.94397 
L 590.399946 -99.832188 
L 584.932342 -100.720406 
L 578.960316 -101.608624 
L 572.730487 -102.496843 
L 566.55221 -103.385061 
L 560.767889 -104.273279 
L 555.713927 -105.161498 
L 551.678526 -106.049716 
L 548.863993 -106.937934 
L 547.360833 -107.826152 
L 547.1388 -108.714371 
L 548.05657 -109.602589 
L 549.887805 -110.490807 
L 552.358052 -111.379026 
L 555.185041 -112.267244 
L 558.11493 -113.155462 
L 560.948723 -114.043681 
L 563.555871 -114.931899 
L 565.875089 -115.820117 
L 567.904932 -116.708335 
L 569.688075 -117.596554 
L 571.293469 -118.484772 
L 572.799774 -119.37299 
L 574.282177 -120.261209 
L 575.80335 -121.149427 
L 577.408302 -122.037645 
L 579.122365 -122.925863 
L 580.951452 -123.814082 
L 582.883976 -124.7023 
L 584.893986 -125.590518 
L 586.945261 -126.478737 
L 588.996017 -127.366955 
L 591.003739 -128.255173 
L 592.929492 -129.143392 
L 594.74103 -130.03161 
L 596.414194 -130.919828 
L 597.932399 -131.808046 
L 599.284472 -132.696265 
L 600.461482 -133.584483 
L 601.453503 -134.472701 
L 602.247271 -135.36092 
L 602.82556 -136.249138 
L 603.168668 -137.137356 
L 603.257975 -138.025574 
L 603.080973 -138.913793 
L 602.6368 -139.802011 
L 601.9411 -140.690229 
L 601.029006 -141.578448 
L 599.955371 -142.466666 
L 598.791791 -143.354884 
L 597.620638 -144.243103 
L 596.526871 -145.131321 
L 595.58897 -146.019539 
L 594.870519 -146.907757 
L 594.413952 -147.795976 
L 594.237512 -148.684194 
L 594.335865 -149.572412 
L 594.684035 -150.460631 
L 595.243657 -151.348849 
L 595.970147 -152.237067 
L 596.819321 -153.125286 
L 597.752273 -154.013504 
L 598.737885 -154.901722 
L 599.752938 -155.78994 
L 600.780399 -156.678159 
L 601.806758 -157.566377 
L 602.819384 -158.454595 
L 603.804685 -159.342814 
L 604.747503 -160.231032 
L 605.631749 -161.11925 
L 606.441979 -162.007468 
L 607.16537 -162.895687 
L 607.79354 -163.783905 
L 608.323741 -164.672123 
L 608.759191 -165.560342 
L 609.108492 -166.44856 
L 609.384308 -167.336778 
L 609.601599 -168.224997 
L 609.775732 -169.113215 
L 609.920797 -170.001433 
L 610.048352 -170.889651 
L 610.166707 -171.77787 
L 610.280796 -172.666088 
L 610.392521 -173.554306 
L 610.501451 -174.442525 
L 610.605686 -175.330743 
L 610.70272 -176.218961 
L 610.790171 -177.107179 
L 610.866284 -177.995398 
L 610.930186 -178.883616 
L 610.981921 -179.771834 
L 611.02231 -180.660053 
L 611.052721 -181.548271 
L 611.183279 -181.548271 
L 611.183279 -181.548271 
L 611.21369 -180.660053 
L 611.254079 -179.771834 
L 611.305814 -178.883616 
L 611.369716 -177.995398 
L 611.445829 -177.107179 
L 611.53328 -176.218961 
L 611.630314 -175.330743 
L 611.734549 -174.442525 
L 611.843479 -173.554306 
L 611.955204 -172.666088 
L 612.069293 -171.77787 
L 612.187648 -170.889651 
L 612.315203 -170.001433 
L 612.460268 -169.113215 
L 612.634401 -168.224997 
L 612.851692 -167.336778 
L 613.127508 -166.44856 
L 613.476809 -165.560342 
L 613.912259 -164.672123 
L 614.44246 -163.783905 
L 615.07063 -162.895687 
L 615.794021 -162.007468 
L 616.604251 -161.11925 
L 617.488497 -160.231032 
L 618.431315 -159.342814 
L 619.416616 -158.454595 
L 620.429242 -157.566377 
L 621.455601 -156.678159 
L 622.483062 -155.78994 
L 623.498115 -154.901722 
L 624.483727 -154.013504 
L 625.416679 -153.125286 
L 626.265853 -152.237067 
L 626.992343 -151.348849 
L 627.551965 -150.460631 
L 627.900135 -149.572412 
L 627.998488 -148.684194 
L 627.822048 -147.795976 
L 627.365481 -146.907757 
L 626.64703 -146.019539 
L 625.709129 -145.131321 
L 624.615362 -144.243103 
L 623.444209 -143.354884 
L 622.280629 -142.466666 
L 621.206994 -141.578448 
L 620.2949 -140.690229 
L 619.5992 -139.802011 
L 619.155027 -138.913793 
L 618.978025 -138.025574 
L 619.067332 -137.137356 
L 619.41044 -136.249138 
L 619.988729 -135.36092 
L 620.782497 -134.472701 
L 621.774518 -133.584483 
L 622.951528 -132.696265 
L 624.303601 -131.808046 
L 625.821806 -130.919828 
L 627.49497 -130.03161 
L 629.306508 -129.143392 
L 631.232261 -128.255173 
L 633.239983 -127.366955 
L 635.290739 -126.478737 
L 637.342014 -125.590518 
L 639.352024 -124.7023 
L 641.284548 -123.814082 
L 643.113635 -122.925863 
L 644.827698 -122.037645 
L 646.43265 -121.149427 
L 647.953823 -120.261209 
L 649.436226 -119.37299 
L 650.942531 -118.484772 
L 652.547925 -117.596554 
L 654.331068 -116.708335 
L 656.360911 -115.820117 
L 658.680129 -114.931899 
L 661.287277 -114.043681 
L 664.12107 -113.155462 
L 667.050959 -112.267244 
L 669.877948 -111.379026 
L 672.348195 -110.490807 
L 674.17943 -109.602589 
L 675.0972 -108.714371 
L 674.875167 -107.826152 
L 673.372007 -106.937934 
L 670.557474 -106.049716 
L 666.522073 -105.161498 
L 661.468111 -104.273279 
L 655.68379 -103.385061 
L 649.505513 -102.496843 
L 643.275684 -101.608624 
L 637.303658 -100.720406 
L 631.836054 -99.832188 
L 627.040056 -98.94397 
L 623.000261 -98.055751 
L 619.727043 -97.167533 
L 617.172646 -96.279315 
L 615.250715 -95.391096 
L 613.855407 -94.502878 
L 612.87735 -93.61466 
z
" style="stroke: #595959; stroke-width: 1.25"/>
    </defs>
    <g clip-path="url(#p8662e9c18f)">
     <use xlink:href="#m2a10104507" x="0" y="432" style="fill: #db96c0; stroke: #595959; stroke-width: 1.25"/>
    </g>
   </g>
   <g id="PolyCollection_5">
    <defs>
     <path id="mbb6e48252d" d="M 772.411511 -53.566364 
L 769.720489 -53.566364 
L 768.844414 -54.103191 
L 767.527761 -54.640018 
L 765.629408 -55.176845 
L 763.005601 -55.713673 
L 759.532488 -56.2505 
L 755.135124 -56.787327 
L 749.818632 -57.324155 
L 743.694796 -57.860982 
L 736.996152 -58.397809 
L 730.070548 -58.934637 
L 723.352464 -59.471464 
L 717.312709 -60.008291 
L 712.394097 -60.545118 
L 708.945437 -61.081946 
L 707.168031 -61.618773 
L 707.0868 -62.1556 
L 708.552641 -62.692428 
L 711.275057 -63.229255 
L 714.87696 -63.766082 
L 718.95875 -64.302909 
L 723.157807 -64.839737 
L 727.192135 -65.376564 
L 730.882163 -65.913391 
L 734.150523 -66.450219 
L 737.004551 -66.987046 
L 739.508904 -67.523873 
L 741.756044 -68.0607 
L 743.840695 -68.597528 
L 745.841857 -69.134355 
L 747.813297 -69.671182 
L 749.78145 -70.20801 
L 751.748532 -70.744837 
L 753.698415 -71.281664 
L 755.603154 -71.818491 
L 757.428732 -72.355319 
L 759.139282 -72.892146 
L 760.699677 -73.428973 
L 762.076812 -73.965801 
L 763.240135 -74.502628 
L 764.162083 -75.039455 
L 764.819023 -75.576282 
L 765.193096 -76.11311 
L 765.275068 -76.649937 
L 765.067893 -77.186764 
L 764.590262 -77.723592 
L 763.879135 -78.260419 
L 762.99015 -78.797246 
L 761.995088 -79.334073 
L 760.976177 -79.870901 
L 760.017824 -80.407728 
L 759.197148 -80.944555 
L 758.575191 -81.481383 
L 758.190663 -82.01821 
L 758.057543 -82.555037 
L 758.166871 -83.091864 
L 758.492034 -83.628692 
L 758.995945 -84.165519 
L 759.638224 -84.702346 
L 760.380681 -85.239174 
L 761.190158 -85.776001 
L 762.03872 -86.312828 
L 762.90203 -86.849655 
L 763.757193 -87.386483 
L 764.581328 -87.92331 
L 765.351656 -88.460137 
L 766.047179 -88.996965 
L 766.651407 -89.533792 
L 767.155155 -90.070619 
L 767.558422 -90.607446 
L 767.870648 -91.144274 
L 768.109149 -91.681101 
L 768.29604 -92.217928 
L 768.454352 -92.754756 
L 768.604213 -93.291583 
L 768.759896 -93.82841 
L 768.928284 -94.365237 
L 769.108939 -94.902065 
L 769.2956 -95.438892 
L 769.478654 -95.975719 
L 769.647954 -96.512547 
L 769.795361 -97.049374 
L 769.916503 -97.586201 
L 770.011486 -98.123028 
L 770.084517 -98.659856 
L 770.142669 -99.196683 
L 770.194163 -99.73351 
L 770.246608 -100.270338 
L 770.305587 -100.807165 
L 770.373863 -101.343992 
L 770.451274 -101.880819 
L 770.535243 -102.417647 
L 770.621674 -102.954474 
L 770.705982 -103.491301 
L 770.784009 -104.028129 
L 770.85266 -104.564956 
L 770.910194 -105.101783 
L 770.956205 -105.638611 
L 770.991367 -106.175438 
L 771.017077 -106.712265 
L 771.114923 -106.712265 
L 771.114923 -106.712265 
L 771.140633 -106.175438 
L 771.175795 -105.638611 
L 771.221806 -105.101783 
L 771.27934 -104.564956 
L 771.347991 -104.028129 
L 771.426018 -103.491301 
L 771.510326 -102.954474 
L 771.596757 -102.417647 
L 771.680726 -101.880819 
L 771.758137 -101.343992 
L 771.826413 -100.807165 
L 771.885392 -100.270338 
L 771.937837 -99.73351 
L 771.989331 -99.196683 
L 772.047483 -98.659856 
L 772.120514 -98.123028 
L 772.215497 -97.586201 
L 772.336639 -97.049374 
L 772.484046 -96.512547 
L 772.653346 -95.975719 
L 772.8364 -95.438892 
L 773.023061 -94.902065 
L 773.203716 -94.365237 
L 773.372104 -93.82841 
L 773.527787 -93.291583 
L 773.677648 -92.754756 
L 773.83596 -92.217928 
L 774.022851 -91.681101 
L 774.261352 -91.144274 
L 774.573578 -90.607446 
L 774.976845 -90.070619 
L 775.480593 -89.533792 
L 776.084821 -88.996965 
L 776.780344 -88.460137 
L 777.550672 -87.92331 
L 778.374807 -87.386483 
L 779.22997 -86.849655 
L 780.09328 -86.312828 
L 780.941842 -85.776001 
L 781.751319 -85.239174 
L 782.493776 -84.702346 
L 783.136055 -84.165519 
L 783.639966 -83.628692 
L 783.965129 -83.091864 
L 784.074457 -82.555037 
L 783.941337 -82.01821 
L 783.556809 -81.481383 
L 782.934852 -80.944555 
L 782.114176 -80.407728 
L 781.155823 -79.870901 
L 780.136912 -79.334073 
L 779.14185 -78.797246 
L 778.252865 -78.260419 
L 777.541738 -77.723592 
L 777.064107 -77.186764 
L 776.856932 -76.649937 
L 776.938904 -76.11311 
L 777.312977 -75.576282 
L 777.969917 -75.039455 
L 778.891865 -74.502628 
L 780.055188 -73.965801 
L 781.432323 -73.428973 
L 782.992718 -72.892146 
L 784.703268 -72.355319 
L 786.528846 -71.818491 
L 788.433585 -71.281664 
L 790.383468 -70.744837 
L 792.35055 -70.20801 
L 794.318703 -69.671182 
L 796.290143 -69.134355 
L 798.291305 -68.597528 
L 800.375956 -68.0607 
L 802.623096 -67.523873 
L 805.127449 -66.987046 
L 807.981477 -66.450219 
L 811.249837 -65.913391 
L 814.939865 -65.376564 
L 818.974193 -64.839737 
L 823.17325 -64.302909 
L 827.25504 -63.766082 
L 830.856943 -63.229255 
L 833.579359 -62.692428 
L 835.0452 -62.1556 
L 834.963969 -61.618773 
L 833.186563 -61.081946 
L 829.737903 -60.545118 
L 824.819291 -60.008291 
L 818.779536 -59.471464 
L 812.061452 -58.934637 
L 805.135848 -58.397809 
L 798.437204 -57.860982 
L 792.313368 -57.324155 
L 786.996876 -56.787327 
L 782.599512 -56.2505 
L 779.126399 -55.713673 
L 776.502592 -55.176845 
L 774.604239 -54.640018 
L 773.287586 -54.103191 
L 772.411511 -53.566364 
z
" style="stroke: #595959; stroke-width: 1.25"/>
    </defs>
    <g clip-path="url(#p8662e9c18f)">
     <use xlink:href="#mbb6e48252d" x="0" y="432" style="fill: #a2c865; stroke: #595959; stroke-width: 1.25"/>
    </g>
   </g>
   <g id="line2d_8">
    <path d="M 131.274 338.28549 
L 131.274 341.090282 
" clip-path="url(#p8662e9c18f)" style="fill: none; stroke: #000000"/>
   </g>
   <g id="line2d_9">
    <path d="M 131.274 333.994157 
L 131.274 327.73947 
" clip-path="url(#p8662e9c18f)" style="fill: none; stroke: #000000"/>
   </g>
   <g id="line2d_10">
    <path d="M 125.27595 341.090282 
L 137.27205 341.090282 
" clip-path="url(#p8662e9c18f)" style="fill: none; stroke: #000000; stroke-linecap: round"/>
   </g>
   <g id="line2d_11">
    <path d="M 125.27595 327.73947 
L 137.27205 327.73947 
" clip-path="url(#p8662e9c18f)" style="fill: none; stroke: #000000; stroke-linecap: round"/>
   </g>
   <g id="line2d_12">
    <path d="M 291.222 361.284789 
L 291.222 363.640814 
" clip-path="url(#p8662e9c18f)" style="fill: none; stroke: #000000"/>
   </g>
   <g id="line2d_13">
    <path d="M 291.222 357.217839 
L 291.222 351.748494 
" clip-path="url(#p8662e9c18f)" style="fill: none; stroke: #000000"/>
   </g>
   <g id="line2d_14">
    <path d="M 285.22395 363.640814 
L 297.22005 363.640814 
" clip-path="url(#p8662e9c18f)" style="fill: none; stroke: #000000; stroke-linecap: round"/>
   </g>
   <g id="line2d_15">
    <path d="M 285.22395 351.748494 
L 297.22005 351.748494 
" clip-path="url(#p8662e9c18f)" style="fill: none; stroke: #000000; stroke-linecap: round"/>
   </g>
   <g id="line2d_16">
    <path d="M 451.17 228.113239 
L 451.17 234.956933 
" clip-path="url(#p8662e9c18f)" style="fill: none; stroke: #000000"/>
   </g>
   <g id="line2d_17">
    <path d="M 451.17 199.840931 
L 451.17 158.554385 
" clip-path="url(#p8662e9c18f)" style="fill: none; stroke: #000000"/>
   </g>
   <g id="line2d_18">
    <path d="M 445.17195 234.956933 
L 457.16805 234.956933 
" clip-path="url(#p8662e9c18f)" style="fill: none; stroke: #000000; stroke-linecap: round"/>
   </g>
   <g id="line2d_19">
    <path d="M 445.17195 158.554385 
L 457.16805 158.554385 
" clip-path="url(#p8662e9c18f)" style="fill: none; stroke: #000000; stroke-linecap: round"/>
   </g>
   <g id="line2d_20">
    <path d="M 611.118 324.513958 
L 611.118 328.637004 
" clip-path="url(#p8662e9c18f)" style="fill: none; stroke: #000000"/>
   </g>
   <g id="line2d_21">
    <path d="M 611.118 305.581609 
L 611.118 277.701971 
" clip-path="url(#p8662e9c18f)" style="fill: none; stroke: #000000"/>
   </g>
   <g id="line2d_22">
    <path d="M 605.11995 328.637004 
L 617.11605 328.637004 
" clip-path="url(#p8662e9c18f)" style="fill: none; stroke: #000000; stroke-linecap: round"/>
   </g>
   <g id="line2d_23">
    <path d="M 605.11995 277.701971 
L 617.11605 277.701971 
" clip-path="url(#p8662e9c18f)" style="fill: none; stroke: #000000; stroke-linecap: round"/>
   </g>
   <g id="line2d_24">
    <path d="M 771.066 370.5967 
L 771.066 373.064917 
" clip-path="url(#p8662e9c18f)" style="fill: none; stroke: #000000"/>
   </g>
   <g id="line2d_25">
    <path d="M 771.066 361.929891 
L 771.066 348.943701 
" clip-path="url(#p8662e9c18f)" style="fill: none; stroke: #000000"/>
   </g>
   <g id="line2d_26">
    <path d="M 765.06795 373.064917 
L 777.06405 373.064917 
" clip-path="url(#p8662e9c18f)" style="fill: none; stroke: #000000; stroke-linecap: round"/>
   </g>
   <g id="line2d_27">
    <path d="M 765.06795 348.943701 
L 777.06405 348.943701 
" clip-path="url(#p8662e9c18f)" style="fill: none; stroke: #000000; stroke-linecap: round"/>
   </g>
   <g id="line2d_28">
    <path d="M 119.2779 337.275764 
L 143.2701 337.275764 
" clip-path="url(#p8662e9c18f)" style="fill: none; stroke: #ff0000; stroke-width: 2"/>
   </g>
   <g id="line2d_29">
    <path d="M 279.2259 360.162872 
L 303.2181 360.162872 
" clip-path="url(#p8662e9c18f)" style="fill: none; stroke: #ff0000; stroke-width: 2"/>
   </g>
   <g id="line2d_30">
    <path d="M 439.1739 224.523105 
L 463.1661 224.523105 
" clip-path="url(#p8662e9c18f)" style="fill: none; stroke: #ff0000; stroke-width: 2"/>
   </g>
   <g id="line2d_31">
    <path d="M 599.1219 316.632491 
L 623.1141 316.632491 
" clip-path="url(#p8662e9c18f)" style="fill: none; stroke: #ff0000; stroke-width: 2"/>
   </g>
   <g id="line2d_32">
    <path d="M 759.0699 368.521153 
L 783.0621 368.521153 
" clip-path="url(#p8662e9c18f)" style="fill: none; stroke: #ff0000; stroke-width: 2"/>
   </g>
   <g id="patch_3">
    <path d="M 51.3 395.14 
L 51.3 27.6 
" style="fill: none; stroke: #cccccc; stroke-width: 1.25; stroke-linejoin: miter; stroke-linecap: square"/>
   </g>
   <g id="patch_4">
    <path d="M 851.04 395.14 
L 851.04 27.6 
" style="fill: none; stroke: #cccccc; stroke-width: 1.25; stroke-linejoin: miter; stroke-linecap: square"/>
   </g>
   <g id="patch_5">
    <path d="M 51.3 395.14 
L 851.04 395.14 
" style="fill: none; stroke: #cccccc; stroke-width: 1.25; stroke-linejoin: miter; stroke-linecap: square"/>
   </g>
   <g id="patch_6">
    <path d="M 51.3 27.6 
L 851.04 27.6 
" style="fill: none; stroke: #cccccc; stroke-width: 1.25; stroke-linejoin: miter; stroke-linecap: square"/>
   </g>
   <g id="text_14">
    <!-- Handshake duration on QUIC with secp384r1 signature algorithm -->
    <g style="fill: #262626" transform="translate(255.065625 21.6) scale(0.12 -0.12)">
     <defs>
      <path id="DejaVuSans-51" d="M 2522 4238 
Q 1834 4238 1429 3725 
Q 1025 3213 1025 2328 
Q 1025 1447 1429 934 
Q 1834 422 2522 422 
Q 3209 422 3611 934 
Q 4013 1447 4013 2328 
Q 4013 3213 3611 3725 
Q 3209 4238 2522 4238 
z
M 3406 84 
L 4238 -825 
L 3475 -825 
L 2784 -78 
Q 2681 -84 2626 -87 
Q 2572 -91 2522 -91 
Q 1538 -91 948 567 
Q 359 1225 359 2328 
Q 359 3434 948 4092 
Q 1538 4750 2522 4750 
Q 3503 4750 4090 4092 
Q 4678 3434 4678 2328 
Q 4678 1516 4351 937 
Q 4025 359 3406 84 
z
" transform="scale(0.015625)"/>
      <path id="DejaVuSans-55" d="M 556 4666 
L 1191 4666 
L 1191 1831 
Q 1191 1081 1462 751 
Q 1734 422 2344 422 
Q 2950 422 3222 751 
Q 3494 1081 3494 1831 
L 3494 4666 
L 4128 4666 
L 4128 1753 
Q 4128 841 3676 375 
Q 3225 -91 2344 -91 
Q 1459 -91 1007 375 
Q 556 841 556 1753 
L 556 4666 
z
" transform="scale(0.015625)"/>
      <path id="DejaVuSans-49" d="M 628 4666 
L 1259 4666 
L 1259 0 
L 628 0 
L 628 4666 
z
" transform="scale(0.015625)"/>
      <path id="DejaVuSans-43" d="M 4122 4306 
L 4122 3641 
Q 3803 3938 3442 4084 
Q 3081 4231 2675 4231 
Q 1875 4231 1450 3742 
Q 1025 3253 1025 2328 
Q 1025 1406 1450 917 
Q 1875 428 2675 428 
Q 3081 428 3442 575 
Q 3803 722 4122 1019 
L 4122 359 
Q 3791 134 3420 21 
Q 3050 -91 2638 -91 
Q 1578 -91 968 557 
Q 359 1206 359 2328 
Q 359 3453 968 4101 
Q 1578 4750 2638 4750 
Q 3056 4750 3426 4639 
Q 3797 4528 4122 4306 
z
" transform="scale(0.015625)"/>
      <path id="DejaVuSans-77" d="M 269 3500 
L 844 3500 
L 1563 769 
L 2278 3500 
L 2956 3500 
L 3675 769 
L 4391 3500 
L 4966 3500 
L 4050 0 
L 3372 0 
L 2619 2869 
L 1863 0 
L 1184 0 
L 269 3500 
z
" transform="scale(0.015625)"/>
      <path id="DejaVuSans-63" d="M 3122 3366 
L 3122 2828 
Q 2878 2963 2633 3030 
Q 2388 3097 2138 3097 
Q 1578 3097 1268 2742 
Q 959 2388 959 1747 
Q 959 1106 1268 751 
Q 1578 397 2138 397 
Q 2388 397 2633 464 
Q 2878 531 3122 666 
L 3122 134 
Q 2881 22 2623 -34 
Q 2366 -91 2075 -91 
Q 1284 -91 818 406 
Q 353 903 353 1747 
Q 353 2603 823 3093 
Q 1294 3584 2113 3584 
Q 2378 3584 2631 3529 
Q 2884 3475 3122 3366 
z
" transform="scale(0.015625)"/>
      <path id="DejaVuSans-67" d="M 2906 1791 
Q 2906 2416 2648 2759 
Q 2391 3103 1925 3103 
Q 1463 3103 1205 2759 
Q 947 2416 947 1791 
Q 947 1169 1205 825 
Q 1463 481 1925 481 
Q 2391 481 2648 825 
Q 2906 1169 2906 1791 
z
M 3481 434 
Q 3481 -459 3084 -895 
Q 2688 -1331 1869 -1331 
Q 1566 -1331 1297 -1286 
Q 1028 -1241 775 -1147 
L 775 -588 
Q 1028 -725 1275 -790 
Q 1522 -856 1778 -856 
Q 2344 -856 2625 -561 
Q 2906 -266 2906 331 
L 2906 616 
Q 2728 306 2450 153 
Q 2172 0 1784 0 
Q 1141 0 747 490 
Q 353 981 353 1791 
Q 353 2603 747 3093 
Q 1141 3584 1784 3584 
Q 2172 3584 2450 3431 
Q 2728 3278 2906 2969 
L 2906 3500 
L 3481 3500 
L 3481 434 
z
" transform="scale(0.015625)"/>
     </defs>
     <use xlink:href="#DejaVuSans-48"/>
     <use xlink:href="#DejaVuSans-61" x="75.195312"/>
     <use xlink:href="#DejaVuSans-6e" x="136.474609"/>
     <use xlink:href="#DejaVuSans-64" x="199.853516"/>
     <use xlink:href="#DejaVuSans-73" x="263.330078"/>
     <use xlink:href="#DejaVuSans-68" x="315.429688"/>
     <use xlink:href="#DejaVuSans-61" x="378.808594"/>
     <use xlink:href="#DejaVuSans-6b" x="440.087891"/>
     <use xlink:href="#DejaVuSans-65" x="494.373047"/>
     <use xlink:href="#DejaVuSans-20" x="555.896484"/>
     <use xlink:href="#DejaVuSans-64" x="587.683594"/>
     <use xlink:href="#DejaVuSans-75" x="651.160156"/>
     <use xlink:href="#DejaVuSans-72" x="714.539062"/>
     <use xlink:href="#DejaVuSans-61" x="755.652344"/>
     <use xlink:href="#DejaVuSans-74" x="816.931641"/>
     <use xlink:href="#DejaVuSans-69" x="856.140625"/>
     <use xlink:href="#DejaVuSans-6f" x="883.923828"/>
     <use xlink:href="#DejaVuSans-6e" x="945.105469"/>
     <use xlink:href="#DejaVuSans-20" x="1008.484375"/>
     <use xlink:href="#DejaVuSans-6f" x="1040.271484"/>
     <use xlink:href="#DejaVuSans-6e" x="1101.453125"/>
     <use xlink:href="#DejaVuSans-20" x="1164.832031"/>
     <use xlink:href="#DejaVuSans-51" x="1196.619141"/>
     <use xlink:href="#DejaVuSans-55" x="1275.330078"/>
     <use xlink:href="#DejaVuSans-49" x="1348.523438"/>
     <use xlink:href="#DejaVuSans-43" x="1378.015625"/>
     <use xlink:href="#DejaVuSans-20" x="1447.839844"/>
     <use xlink:href="#DejaVuSans-77" x="1479.626953"/>
     <use xlink:href="#DejaVuSans-69" x="1561.414062"/>
     <use xlink:href="#DejaVuSans-74" x="1589.197266"/>
     <use xlink:href="#DejaVuSans-68" x="1628.40625"/>
     <use xlink:href="#DejaVuSans-20" x="1691.785156"/>
     <use xlink:href="#DejaVuSans-73" x="1723.572266"/>
     <use xlink:href="#DejaVuSans-65" x="1775.671875"/>
     <use xlink:href="#DejaVuSans-63" x="1837.195312"/>
     <use xlink:href="#DejaVuSans-70" x="1892.175781"/>
     <use xlink:href="#DejaVuSans-33" x="1955.652344"/>
     <use xlink:href="#DejaVuSans-38" x="2019.275391"/>
     <use xlink:href="#DejaVuSans-34" x="2082.898438"/>
     <use xlink:href="#DejaVuSans-72" x="2146.521484"/>
     <use xlink:href="#DejaVuSans-31" x="2187.634766"/>
     <use xlink:href="#DejaVuSans-20" x="2251.257812"/>
     <use xlink:href="#DejaVuSans-73" x="2283.044922"/>
     <use xlink:href="#DejaVuSans-69" x="2335.144531"/>
     <use xlink:href="#DejaVuSans-67" x="2362.927734"/>
     <use xlink:href="#DejaVuSans-6e" x="2426.404297"/>
     <use xlink:href="#DejaVuSans-61" x="2489.783203"/>
     <use xlink:href="#DejaVuSans-74" x="2551.0625"/>
     <use xlink:href="#DejaVuSans-75" x="2590.271484"/>
     <use xlink:href="#DejaVuSans-72" x="2653.650391"/>
     <use xlink:href="#DejaVuSans-65" x="2692.513672"/>
     <use xlink:href="#DejaVuSans-20" x="2754.037109"/>
     <use xlink:href="#DejaVuSans-61" x="2785.824219"/>
     <use xlink:href="#DejaVuSans-6c" x="2847.103516"/>
     <use xlink:href="#DejaVuSans-67" x="2874.886719"/>
     <use xlink:href="#DejaVuSans-6f" x="2938.363281"/>
     <use xlink:href="#DejaVuSans-72" x="2999.544922"/>
     <use xlink:href="#DejaVuSans-69" x="3040.658203"/>
     <use xlink:href="#DejaVuSans-74" x="3068.441406"/>
     <use xlink:href="#DejaVuSans-68" x="3107.650391"/>
     <use xlink:href="#DejaVuSans-6d" x="3171.029297"/>
    </g>
   </g>
  </g>
 </g>
 <defs>
  <clipPath id="p8662e9c18f">
   <rect x="51.3" y="27.6" width="799.74" height="367.54"/>
  </clipPath>
 </defs>
</svg>
