<?xml version="1.0" encoding="utf-8" standalone="no"?>
<!DOCTYPE svg PUBLIC "-//W3C//DTD SVG 1.1//EN"
  "http://www.w3.org/Graphics/SVG/1.1/DTD/svg11.dtd">
<svg xmlns:xlink="http://www.w3.org/1999/xlink" width="864pt" height="432pt" viewBox="0 0 864 432" xmlns="http://www.w3.org/2000/svg" version="1.1">
 <metadata>
  <rdf:RDF xmlns:dc="http://purl.org/dc/elements/1.1/" xmlns:cc="http://creativecommons.org/ns#" xmlns:rdf="http://www.w3.org/1999/02/22-rdf-syntax-ns#">
   <cc:Work>
    <dc:type rdf:resource="http://purl.org/dc/dcmitype/StillImage"/>
    <dc:date>2026-03-07T11:40:57.123750</dc:date>
    <dc:format>image/svg+xml</dc:format>
    <dc:creator>
     <cc:Agent>
      <dc:title>Matplotlib v3.6.3, https://matplotlib.org/</dc:title>
     </cc:Agent>
    </dc:creator>
   </cc:Work>
  </rdf:RDF>
 </metadata>
 <defs>
  <style type="text/css">*{stroke-linejoin: round; stroke-linecap: butt}</style>
 </defs>
 <g id="figure_1">
  <g id="patch_1">
   <path d="M 0 432 
L 864 432 
L 864 0 
L 0 0 
z
" style="fill: #ffffff"/>
  </g>
  <g id="axes_1">
   <g id="patch_2">
    <path d="M 51.3 395.14 
L 851.04 395.14 
L 851.04 27.6 
L 51.3 27.6 
z
" style="fill: #ffffff"/>
   </g>
   <g id="matplotlib.axis_1">
    <g id="xtick_1">
     <g id="text_1">
      <!-- P-521 -->
      <g style="fill: #262626" transform="translate(164.64 415.277812) scale(0.14 -0.14)">
       <defs>
        <path id="DejaVuSans-50" d="M 1259 4147 
L 1259 2394 
L 2053 2394 
Q 2494 2394 2734 2622 
Q 2975 2850 2975 3272 
Q 2975 3691 2734 3919 
Q 2494 4147 2053 4147 
L 1259 4147 
z
M 628 4666 
L 2053 4666 
Q 2838 4666 3239 4311 
Q 3641 3956 3641 3272 
Q 3641 2581 3239 2228 
Q 2838 1875 2053 1875 
L 1259 1875 
L 1259 0 
L 628 0 
L 628 4666 
z
" transform="scale(0.015625)"/>
        <path id="DejaVuSans-2d" d="M 313 2009 
L 1997 2009 
L 1997 1497 
L 313 1497 
L 313 2009 
z
" transform="scale(0.015625)"/>
        <path id="DejaVuSans-35" d="M 691 4666 
L 3169 4666 
L 3169 4134 
L 1269 4134 
L 1269 2991 
Q 1406 3038 1543 3061 
Q 1681 3084 1819 3084 
Q 2600 3084 3056 2656 
Q 3513 2228 3513 1497 
Q 3513 744 3044 326 
Q 2575 -91 1722 -91 
Q 1428 -91 1123 -41 
Q 819 9 494 109 
L 494 744 
Q 775 591 1075 516 
Q 1375 441 1709 441 
Q 2250 441 2565 725 
Q 2881 1009 2881 1497 
Q 2881 1984 2565 2268 
Q 2250 2553 1709 2553 
Q 1456 2553 1204 2497 
Q 953 2441 691 2322 
L 691 4666 
z
" transform="scale(0.015625)"/>
        <path id="DejaVuSans-32" d="M 1228 531 
L 3431 531 
L 3431 0 
L 469 0 
L 469 531 
Q 828 903 1448 1529 
Q 2069 2156 2228 2338 
Q 2531 2678 2651 2914 
Q 2772 3150 2772 3378 
Q 2772 3750 2511 3984 
Q 2250 4219 1831 4219 
Q 1534 4219 1204 4116 
Q 875 4013 500 3803 
L 500 4441 
Q 881 4594 1212 4672 
Q 1544 4750 1819 4750 
Q 2544 4750 2975 4387 
Q 3406 4025 3406 3419 
Q 3406 3131 3298 2873 
Q 3191 2616 2906 2266 
Q 2828 2175 2409 1742 
Q 1991 1309 1228 531 
z
" transform="scale(0.015625)"/>
        <path id="DejaVuSans-31" d="M 794 531 
L 1825 531 
L 1825 4091 
L 703 3866 
L 703 4441 
L 1819 4666 
L 2450 4666 
L 2450 531 
L 3481 531 
L 3481 0 
L 794 0 
L 794 531 
z
" transform="scale(0.015625)"/>
       </defs>
       <use xlink:href="#DejaVuSans-50"/>
       <use xlink:href="#DejaVuSans-2d" x="58.052734"/>
       <use xlink:href="#DejaVuSans-35" x="94.136719"/>
       <use xlink:href="#DejaVuSans-32" x="157.759766"/>
       <use xlink:href="#DejaVuSans-31" x="221.382812"/>
      </g>
     </g>
    </g>
    <g id="xtick_2">
     <g id="text_2">
      <!-- p521_mlkem1024 -->
      <g style="fill: #262626" transform="translate(388.361406 415.277812) scale(0.14 -0.14)">
       <defs>
        <path id="DejaVuSans-70" d="M 1159 525 
L 1159 -1331 
L 581 -1331 
L 581 3500 
L 1159 3500 
L 1159 2969 
Q 1341 3281 1617 3432 
Q 1894 3584 2278 3584 
Q 2916 3584 3314 3078 
Q 3713 2572 3713 1747 
Q 3713 922 3314 415 
Q 2916 -91 2278 -91 
Q 1894 -91 1617 61 
Q 1341 213 1159 525 
z
M 3116 1747 
Q 3116 2381 2855 2742 
Q 2594 3103 2138 3103 
Q 1681 3103 1420 2742 
Q 1159 2381 1159 1747 
Q 1159 1113 1420 752 
Q 1681 391 2138 391 
Q 2594 391 2855 752 
Q 3116 1113 3116 1747 
z
" transform="scale(0.015625)"/>
        <path id="DejaVuSans-5f" d="M 3263 -1063 
L 3263 -1509 
L -63 -1509 
L -63 -1063 
L 3263 -1063 
z
" transform="scale(0.015625)"/>
        <path id="DejaVuSans-6d" d="M 3328 2828 
Q 3544 3216 3844 3400 
Q 4144 3584 4550 3584 
Q 5097 3584 5394 3201 
Q 5691 2819 5691 2113 
L 5691 0 
L 5113 0 
L 5113 2094 
Q 5113 2597 4934 2840 
Q 4756 3084 4391 3084 
Q 3944 3084 3684 2787 
Q 3425 2491 3425 1978 
L 3425 0 
L 2847 0 
L 2847 2094 
Q 2847 2600 2669 2842 
Q 2491 3084 2119 3084 
Q 1678 3084 1418 2786 
Q 1159 2488 1159 1978 
L 1159 0 
L 581 0 
L 581 3500 
L 1159 3500 
L 1159 2956 
Q 1356 3278 1631 3431 
Q 1906 3584 2284 3584 
Q 2666 3584 2933 3390 
Q 3200 3197 3328 2828 
z
" transform="scale(0.015625)"/>
        <path id="DejaVuSans-6c" d="M 603 4863 
L 1178 4863 
L 1178 0 
L 603 0 
L 603 4863 
z
" transform="scale(0.015625)"/>
        <path id="DejaVuSans-6b" d="M 581 4863 
L 1159 4863 
L 1159 1991 
L 2875 3500 
L 3609 3500 
L 1753 1863 
L 3688 0 
L 2938 0 
L 1159 1709 
L 1159 0 
L 581 0 
L 581 4863 
z
" transform="scale(0.015625)"/>
        <path id="DejaVuSans-65" d="M 3597 1894 
L 3597 1613 
L 953 1613 
Q 991 1019 1311 708 
Q 1631 397 2203 397 
Q 2534 397 2845 478 
Q 3156 559 3463 722 
L 3463 178 
Q 3153 47 2828 -22 
Q 2503 -91 2169 -91 
Q 1331 -91 842 396 
Q 353 884 353 1716 
Q 353 2575 817 3079 
Q 1281 3584 2069 3584 
Q 2775 3584 3186 3129 
Q 3597 2675 3597 1894 
z
M 3022 2063 
Q 3016 2534 2758 2815 
Q 2500 3097 2075 3097 
Q 1594 3097 1305 2825 
Q 1016 2553 972 2059 
L 3022 2063 
z
" transform="scale(0.015625)"/>
        <path id="DejaVuSans-30" d="M 2034 4250 
Q 1547 4250 1301 3770 
Q 1056 3291 1056 2328 
Q 1056 1369 1301 889 
Q 1547 409 2034 409 
Q 2525 409 2770 889 
Q 3016 1369 3016 2328 
Q 3016 3291 2770 3770 
Q 2525 4250 2034 4250 
z
M 2034 4750 
Q 2819 4750 3233 4129 
Q 3647 3509 3647 2328 
Q 3647 1150 3233 529 
Q 2819 -91 2034 -91 
Q 1250 -91 836 529 
Q 422 1150 422 2328 
Q 422 3509 836 4129 
Q 1250 4750 2034 4750 
z
" transform="scale(0.015625)"/>
        <path id="DejaVuSans-34" d="M 2419 4116 
L 825 1625 
L 2419 1625 
L 2419 4116 
z
M 2253 4666 
L 3047 4666 
L 3047 1625 
L 3713 1625 
L 3713 1100 
L 3047 1100 
L 3047 0 
L 2419 0 
L 2419 1100 
L 313 1100 
L 313 1709 
L 2253 4666 
z
" transform="scale(0.015625)"/>
       </defs>
       <use xlink:href="#DejaVuSans-70"/>
       <use xlink:href="#DejaVuSans-35" x="63.476562"/>
       <use xlink:href="#DejaVuSans-32" x="127.099609"/>
       <use xlink:href="#DejaVuSans-31" x="190.722656"/>
       <use xlink:href="#DejaVuSans-5f" x="254.345703"/>
       <use xlink:href="#DejaVuSans-6d" x="304.345703"/>
       <use xlink:href="#DejaVuSans-6c" x="401.757812"/>
       <use xlink:href="#DejaVuSans-6b" x="429.541016"/>
       <use xlink:href="#DejaVuSans-65" x="483.826172"/>
       <use xlink:href="#DejaVuSans-6d" x="545.349609"/>
       <use xlink:href="#DejaVuSans-31" x="642.761719"/>
       <use xlink:href="#DejaVuSans-30" x="706.384766"/>
       <use xlink:href="#DejaVuSans-32" x="770.007812"/>
       <use xlink:href="#DejaVuSans-34" x="833.630859"/>
      </g>
     </g>
    </g>
    <g id="xtick_3">
     <g id="text_3">
      <!-- mlkem1024 -->
      <g style="fill: #262626" transform="translate(676.246562 415.277812) scale(0.14 -0.14)">
       <use xlink:href="#DejaVuSans-6d"/>
       <use xlink:href="#DejaVuSans-6c" x="97.412109"/>
       <use xlink:href="#DejaVuSans-6b" x="125.195312"/>
       <use xlink:href="#DejaVuSans-65" x="179.480469"/>
       <use xlink:href="#DejaVuSans-6d" x="241.003906"/>
       <use xlink:href="#DejaVuSans-31" x="338.416016"/>
       <use xlink:href="#DejaVuSans-30" x="402.039062"/>
       <use xlink:href="#DejaVuSans-32" x="465.662109"/>
       <use xlink:href="#DejaVuSans-34" x="529.285156"/>
      </g>
     </g>
    </g>
   </g>
   <g id="matplotlib.axis_2">
    <g id="ytick_1">
     <g id="line2d_1">
      <path d="M 51.3 368.589419 
L 851.04 368.589419 
" clip-path="url(#p312a87216f)" style="fill: none; stroke: #cccccc; stroke-linecap: round"/>
     </g>
     <g id="text_4">
      <!-- 5 -->
      <g style="fill: #262626" transform="translate(34.80125 372.768559) scale(0.11 -0.11)">
       <use xlink:href="#DejaVuSans-35"/>
      </g>
     </g>
    </g>
    <g id="ytick_2">
     <g id="line2d_2">
      <path d="M 51.3 321.477511 
L 851.04 321.477511 
" clip-path="url(#p312a87216f)" style="fill: none; stroke: #cccccc; stroke-linecap: round"/>
     </g>
     <g id="text_5">
      <!-- 10 -->
      <g style="fill: #262626" transform="translate(27.8025 325.656652) scale(0.11 -0.11)">
       <use xlink:href="#DejaVuSans-31"/>
       <use xlink:href="#DejaVuSans-30" x="63.623047"/>
      </g>
     </g>
    </g>
    <g id="ytick_3">
     <g id="line2d_3">
      <path d="M 51.3 274.365603 
L 851.04 274.365603 
" clip-path="url(#p312a87216f)" style="fill: none; stroke: #cccccc; stroke-linecap: round"/>
     </g>
     <g id="text_6">
      <!-- 15 -->
      <g style="fill: #262626" transform="translate(27.8025 278.544744) scale(0.11 -0.11)">
       <use xlink:href="#DejaVuSans-31"/>
       <use xlink:href="#DejaVuSans-35" x="63.623047"/>
      </g>
     </g>
    </g>
    <g id="ytick_4">
     <g id="line2d_4">
      <path d="M 51.3 227.253695 
L 851.04 227.253695 
" clip-path="url(#p312a87216f)" style="fill: none; stroke: #cccccc; stroke-linecap: round"/>
     </g>
     <g id="text_7">
      <!-- 20 -->
      <g style="fill: #262626" transform="translate(27.8025 231.432836) scale(0.11 -0.11)">
       <use xlink:href="#DejaVuSans-32"/>
       <use xlink:href="#DejaVuSans-30" x="63.623047"/>
      </g>
     </g>
    </g>
    <g id="ytick_5">
     <g id="line2d_5">
      <path d="M 51.3 180.141788 
L 851.04 180.141788 
" clip-path="url(#p312a87216f)" style="fill: none; stroke: #cccccc; stroke-linecap: round"/>
     </g>
     <g id="text_8">
      <!-- 25 -->
      <g style="fill: #262626" transform="translate(27.8025 184.320928) scale(0.11 -0.11)">
       <use xlink:href="#DejaVuSans-32"/>
       <use xlink:href="#DejaVuSans-35" x="63.623047"/>
      </g>
     </g>
    </g>
    <g id="ytick_6">
     <g id="line2d_6">
      <path d="M 51.3 133.02988 
L 851.04 133.02988 
" clip-path="url(#p312a87216f)" style="fill: none; stroke: #cccccc; stroke-linecap: round"/>
     </g>
     <g id="text_9">
      <!-- 30 -->
      <g style="fill: #262626" transform="translate(27.8025 137.209021) scale(0.11 -0.11)">
       <defs>
        <path id="DejaVuSans-33" d="M 2597 2516 
Q 3050 2419 3304 2112 
Q 3559 1806 3559 1356 
Q 3559 666 3084 287 
Q 2609 -91 1734 -91 
Q 1441 -91 1130 -33 
Q 819 25 488 141 
L 488 750 
Q 750 597 1062 519 
Q 1375 441 1716 441 
Q 2309 441 2620 675 
Q 2931 909 2931 1356 
Q 2931 1769 2642 2001 
Q 2353 2234 1838 2234 
L 1294 2234 
L 1294 2753 
L 1863 2753 
Q 2328 2753 2575 2939 
Q 2822 3125 2822 3475 
Q 2822 3834 2567 4026 
Q 2313 4219 1838 4219 
Q 1578 4219 1281 4162 
Q 984 4106 628 3988 
L 628 4550 
Q 988 4650 1302 4700 
Q 1616 4750 1894 4750 
Q 2613 4750 3031 4423 
Q 3450 4097 3450 3541 
Q 3450 3153 3228 2886 
Q 3006 2619 2597 2516 
z
" transform="scale(0.015625)"/>
       </defs>
       <use xlink:href="#DejaVuSans-33"/>
       <use xlink:href="#DejaVuSans-30" x="63.623047"/>
      </g>
     </g>
    </g>
    <g id="ytick_7">
     <g id="line2d_7">
      <path d="M 51.3 85.917972 
L 851.04 85.917972 
" clip-path="url(#p312a87216f)" style="fill: none; stroke: #cccccc; stroke-linecap: round"/>
     </g>
     <g id="text_10">
      <!-- 35 -->
      <g style="fill: #262626" transform="translate(27.8025 90.097113) scale(0.11 -0.11)">
       <use xlink:href="#DejaVuSans-33"/>
       <use xlink:href="#DejaVuSans-35" x="63.623047"/>
      </g>
     </g>
    </g>
    <g id="ytick_8">
     <g id="line2d_8">
      <path d="M 51.3 38.806065 
L 851.04 38.806065 
" clip-path="url(#p312a87216f)" style="fill: none; stroke: #cccccc; stroke-linecap: round"/>
     </g>
     <g id="text_11">
      <!-- 40 -->
      <g style="fill: #262626" transform="translate(27.8025 42.985205) scale(0.11 -0.11)">
       <use xlink:href="#DejaVuSans-34"/>
       <use xlink:href="#DejaVuSans-30" x="63.623047"/>
      </g>
     </g>
    </g>
    <g id="text_12">
     <!-- Handshake duration (ms) -->
     <g style="fill: #262626" transform="translate(21.306875 287.437813) rotate(-90) scale(0.12 -0.12)">
      <defs>
       <path id="DejaVuSans-48" d="M 628 4666 
L 1259 4666 
L 1259 2753 
L 3553 2753 
L 3553 4666 
L 4184 4666 
L 4184 0 
L 3553 0 
L 3553 2222 
L 1259 2222 
L 1259 0 
L 628 0 
L 628 4666 
z
" transform="scale(0.015625)"/>
       <path id="DejaVuSans-61" d="M 2194 1759 
Q 1497 1759 1228 1600 
Q 959 1441 959 1056 
Q 959 750 1161 570 
Q 1363 391 1709 391 
Q 2188 391 2477 730 
Q 2766 1069 2766 1631 
L 2766 1759 
L 2194 1759 
z
M 3341 1997 
L 3341 0 
L 2766 0 
L 2766 531 
Q 2569 213 2275 61 
Q 1981 -91 1556 -91 
Q 1019 -91 701 211 
Q 384 513 384 1019 
Q 384 1609 779 1909 
Q 1175 2209 1959 2209 
L 2766 2209 
L 2766 2266 
Q 2766 2663 2505 2880 
Q 2244 3097 1772 3097 
Q 1472 3097 1187 3025 
Q 903 2953 641 2809 
L 641 3341 
Q 956 3463 1253 3523 
Q 1550 3584 1831 3584 
Q 2591 3584 2966 3190 
Q 3341 2797 3341 1997 
z
" transform="scale(0.015625)"/>
       <path id="DejaVuSans-6e" d="M 3513 2113 
L 3513 0 
L 2938 0 
L 2938 2094 
Q 2938 2591 2744 2837 
Q 2550 3084 2163 3084 
Q 1697 3084 1428 2787 
Q 1159 2491 1159 1978 
L 1159 0 
L 581 0 
L 581 3500 
L 1159 3500 
L 1159 2956 
Q 1366 3272 1645 3428 
Q 1925 3584 2291 3584 
Q 2894 3584 3203 3211 
Q 3513 2838 3513 2113 
z
" transform="scale(0.015625)"/>
       <path id="DejaVuSans-64" d="M 2906 2969 
L 2906 4863 
L 3481 4863 
L 3481 0 
L 2906 0 
L 2906 525 
Q 2725 213 2448 61 
Q 2172 -91 1784 -91 
Q 1150 -91 751 415 
Q 353 922 353 1747 
Q 353 2572 751 3078 
Q 1150 3584 1784 3584 
Q 2172 3584 2448 3432 
Q 2725 3281 2906 2969 
z
M 947 1747 
Q 947 1113 1208 752 
Q 1469 391 1925 391 
Q 2381 391 2643 752 
Q 2906 1113 2906 1747 
Q 2906 2381 2643 2742 
Q 2381 3103 1925 3103 
Q 1469 3103 1208 2742 
Q 947 2381 947 1747 
z
" transform="scale(0.015625)"/>
       <path id="DejaVuSans-73" d="M 2834 3397 
L 2834 2853 
Q 2591 2978 2328 3040 
Q 2066 3103 1784 3103 
Q 1356 3103 1142 2972 
Q 928 2841 928 2578 
Q 928 2378 1081 2264 
Q 1234 2150 1697 2047 
L 1894 2003 
Q 2506 1872 2764 1633 
Q 3022 1394 3022 966 
Q 3022 478 2636 193 
Q 2250 -91 1575 -91 
Q 1294 -91 989 -36 
Q 684 19 347 128 
L 347 722 
Q 666 556 975 473 
Q 1284 391 1588 391 
Q 1994 391 2212 530 
Q 2431 669 2431 922 
Q 2431 1156 2273 1281 
Q 2116 1406 1581 1522 
L 1381 1569 
Q 847 1681 609 1914 
Q 372 2147 372 2553 
Q 372 3047 722 3315 
Q 1072 3584 1716 3584 
Q 2034 3584 2315 3537 
Q 2597 3491 2834 3397 
z
" transform="scale(0.015625)"/>
       <path id="DejaVuSans-68" d="M 3513 2113 
L 3513 0 
L 2938 0 
L 2938 2094 
Q 2938 2591 2744 2837 
Q 2550 3084 2163 3084 
Q 1697 3084 1428 2787 
Q 1159 2491 1159 1978 
L 1159 0 
L 581 0 
L 581 4863 
L 1159 4863 
L 1159 2956 
Q 1366 3272 1645 3428 
Q 1925 3584 2291 3584 
Q 2894 3584 3203 3211 
Q 3513 2838 3513 2113 
z
" transform="scale(0.015625)"/>
       <path id="DejaVuSans-20" transform="scale(0.015625)"/>
       <path id="DejaVuSans-75" d="M 544 1381 
L 544 3500 
L 1119 3500 
L 1119 1403 
Q 1119 906 1312 657 
Q 1506 409 1894 409 
Q 2359 409 2629 706 
Q 2900 1003 2900 1516 
L 2900 3500 
L 3475 3500 
L 3475 0 
L 2900 0 
L 2900 538 
Q 2691 219 2414 64 
Q 2138 -91 1772 -91 
Q 1169 -91 856 284 
Q 544 659 544 1381 
z
M 1991 3584 
L 1991 3584 
z
" transform="scale(0.015625)"/>
       <path id="DejaVuSans-72" d="M 2631 2963 
Q 2534 3019 2420 3045 
Q 2306 3072 2169 3072 
Q 1681 3072 1420 2755 
Q 1159 2438 1159 1844 
L 1159 0 
L 581 0 
L 581 3500 
L 1159 3500 
L 1159 2956 
Q 1341 3275 1631 3429 
Q 1922 3584 2338 3584 
Q 2397 3584 2469 3576 
Q 2541 3569 2628 3553 
L 2631 2963 
z
" transform="scale(0.015625)"/>
       <path id="DejaVuSans-74" d="M 1172 4494 
L 1172 3500 
L 2356 3500 
L 2356 3053 
L 1172 3053 
L 1172 1153 
Q 1172 725 1289 603 
Q 1406 481 1766 481 
L 2356 481 
L 2356 0 
L 1766 0 
Q 1100 0 847 248 
Q 594 497 594 1153 
L 594 3053 
L 172 3053 
L 172 3500 
L 594 3500 
L 594 4494 
L 1172 4494 
z
" transform="scale(0.015625)"/>
       <path id="DejaVuSans-69" d="M 603 3500 
L 1178 3500 
L 1178 0 
L 603 0 
L 603 3500 
z
M 603 4863 
L 1178 4863 
L 1178 4134 
L 603 4134 
L 603 4863 
z
" transform="scale(0.015625)"/>
       <path id="DejaVuSans-6f" d="M 1959 3097 
Q 1497 3097 1228 2736 
Q 959 2375 959 1747 
Q 959 1119 1226 758 
Q 1494 397 1959 397 
Q 2419 397 2687 759 
Q 2956 1122 2956 1747 
Q 2956 2369 2687 2733 
Q 2419 3097 1959 3097 
z
M 1959 3584 
Q 2709 3584 3137 3096 
Q 3566 2609 3566 1747 
Q 3566 888 3137 398 
Q 2709 -91 1959 -91 
Q 1206 -91 779 398 
Q 353 888 353 1747 
Q 353 2609 779 3096 
Q 1206 3584 1959 3584 
z
" transform="scale(0.015625)"/>
       <path id="DejaVuSans-28" d="M 1984 4856 
Q 1566 4138 1362 3434 
Q 1159 2731 1159 2009 
Q 1159 1288 1364 580 
Q 1569 -128 1984 -844 
L 1484 -844 
Q 1016 -109 783 600 
Q 550 1309 550 2009 
Q 550 2706 781 3412 
Q 1013 4119 1484 4856 
L 1984 4856 
z
" transform="scale(0.015625)"/>
       <path id="DejaVuSans-29" d="M 513 4856 
L 1013 4856 
Q 1481 4119 1714 3412 
Q 1947 2706 1947 2009 
Q 1947 1309 1714 600 
Q 1481 -109 1013 -844 
L 513 -844 
Q 928 -128 1133 580 
Q 1338 1288 1338 2009 
Q 1338 2731 1133 3434 
Q 928 4138 513 4856 
z
" transform="scale(0.015625)"/>
      </defs>
      <use xlink:href="#DejaVuSans-48"/>
      <use xlink:href="#DejaVuSans-61" x="75.195312"/>
      <use xlink:href="#DejaVuSans-6e" x="136.474609"/>
      <use xlink:href="#DejaVuSans-64" x="199.853516"/>
      <use xlink:href="#DejaVuSans-73" x="263.330078"/>
      <use xlink:href="#DejaVuSans-68" x="315.429688"/>
      <use xlink:href="#DejaVuSans-61" x="378.808594"/>
      <use xlink:href="#DejaVuSans-6b" x="440.087891"/>
      <use xlink:href="#DejaVuSans-65" x="494.373047"/>
      <use xlink:href="#DejaVuSans-20" x="555.896484"/>
      <use xlink:href="#DejaVuSans-64" x="587.683594"/>
      <use xlink:href="#DejaVuSans-75" x="651.160156"/>
      <use xlink:href="#DejaVuSans-72" x="714.539062"/>
      <use xlink:href="#DejaVuSans-61" x="755.652344"/>
      <use xlink:href="#DejaVuSans-74" x="816.931641"/>
      <use xlink:href="#DejaVuSans-69" x="856.140625"/>
      <use xlink:href="#DejaVuSans-6f" x="883.923828"/>
      <use xlink:href="#DejaVuSans-6e" x="945.105469"/>
      <use xlink:href="#DejaVuSans-20" x="1008.484375"/>
      <use xlink:href="#DejaVuSans-28" x="1040.271484"/>
      <use xlink:href="#DejaVuSans-6d" x="1079.285156"/>
      <use xlink:href="#DejaVuSans-73" x="1176.697266"/>
      <use xlink:href="#DejaVuSans-29" x="1228.796875"/>
     </g>
    </g>
   </g>
   <g id="PolyCollection_1">
    <defs>
     <path id="m6b8b625d47" d="M 187.44592 -76.621459 
L 181.73408 -76.621459 
L 180.191393 -77.268258 
L 178.005106 -77.915057 
L 175.006912 -78.561856 
L 171.030411 -79.208655 
L 165.933197 -79.855454 
L 159.624046 -80.502253 
L 152.09195 -81.149053 
L 143.432173 -81.795852 
L 133.863516 -82.442651 
L 123.731208 -83.08945 
L 113.491423 -83.736249 
L 103.676383 -84.383048 
L 94.842886 -85.029847 
L 87.510913 -85.676646 
L 82.101939 -86.323445 
L 78.887585 -86.970244 
L 77.958 -87.617043 
L 79.215907 -88.263842 
L 82.397355 -88.910641 
L 87.114992 -89.55744 
L 92.915484 -90.204239 
L 99.340372 -90.851039 
L 105.979823 -91.497838 
L 112.511038 -92.144637 
L 118.716946 -92.791436 
L 124.485094 -93.438235 
L 129.790416 -94.085034 
L 134.667984 -94.731833 
L 139.182698 -95.378632 
L 143.402072 -96.025431 
L 147.376506 -96.67223 
L 151.129049 -97.319029 
L 154.654425 -97.965828 
L 157.925369 -98.612627 
L 160.903357 -99.259426 
L 163.550583 -99.906225 
L 165.840472 -100.553025 
L 167.764792 -101.199824 
L 169.336384 -101.846623 
L 170.587432 -102.493422 
L 171.563966 -103.140221 
L 172.317843 -103.78702 
L 172.89776 -104.433819 
L 173.340955 -105.080618 
L 173.667101 -105.727417 
L 173.875548 -106.374216 
L 173.946499 -107.021015 
L 173.846077 -107.667814 
L 173.534526 -108.314613 
L 172.976216 -108.961412 
L 172.149735 -109.608211 
L 171.056275 -110.25501 
L 169.724768 -110.90181 
L 168.21274 -111.548609 
L 166.602626 -112.195408 
L 164.994048 -112.842207 
L 163.49329 -113.489006 
L 162.201661 -114.135805 
L 161.204593 -114.782604 
L 160.563097 -115.429403 
L 160.308744 -116.076202 
L 160.442631 -116.723001 
L 160.938136 -117.3698 
L 161.746655 -118.016599 
L 162.80519 -118.663398 
L 164.044501 -119.310197 
L 165.396661 -119.956996 
L 166.801118 -120.603796 
L 168.20873 -121.250595 
L 169.583593 -121.897394 
L 170.902822 -122.544193 
L 172.154723 -123.190992 
L 173.335921 -123.837791 
L 174.448116 -124.48459 
L 175.495037 -125.131389 
L 176.480098 -125.778188 
L 177.404975 -126.424987 
L 178.269195 -127.071786 
L 179.070535 -127.718585 
L 179.805975 -128.365384 
L 180.472825 -129.012183 
L 181.069736 -129.658982 
L 181.597345 -130.305781 
L 182.058473 -130.952581 
L 182.457875 -131.59938 
L 182.801689 -132.246179 
L 183.096714 -132.892978 
L 183.349708 -133.539777 
L 183.566828 -134.186576 
L 183.753286 -134.833375 
L 183.913238 -135.480174 
L 184.049881 -136.126973 
L 184.165666 -136.773772 
L 184.262572 -137.420571 
L 184.342358 -138.06737 
L 184.406749 -138.714169 
L 184.457537 -139.360968 
L 184.496591 -140.007767 
L 184.525816 -140.654567 
L 184.654184 -140.654567 
L 184.654184 -140.654567 
L 184.683409 -140.007767 
L 184.722463 -139.360968 
L 184.773251 -138.714169 
L 184.837642 -138.06737 
L 184.917428 -137.420571 
L 185.014334 -136.773772 
L 185.130119 -136.126973 
L 185.266762 -135.480174 
L 185.426714 -134.833375 
L 185.613172 -134.186576 
L 185.830292 -133.539777 
L 186.083286 -132.892978 
L 186.378311 -132.246179 
L 186.722125 -131.59938 
L 187.121527 -130.952581 
L 187.582655 -130.305781 
L 188.110264 -129.658982 
L 188.707175 -129.012183 
L 189.374025 -128.365384 
L 190.109465 -127.718585 
L 190.910805 -127.071786 
L 191.775025 -126.424987 
L 192.699902 -125.778188 
L 193.684963 -125.131389 
L 194.731884 -124.48459 
L 195.844079 -123.837791 
L 197.025277 -123.190992 
L 198.277178 -122.544193 
L 199.596407 -121.897394 
L 200.97127 -121.250595 
L 202.378882 -120.603796 
L 203.783339 -119.956996 
L 205.135499 -119.310197 
L 206.37481 -118.663398 
L 207.433345 -118.016599 
L 208.241864 -117.3698 
L 208.737369 -116.723001 
L 208.871256 -116.076202 
L 208.616903 -115.429403 
L 207.975407 -114.782604 
L 206.978339 -114.135805 
L 205.68671 -113.489006 
L 204.185952 -112.842207 
L 202.577374 -112.195408 
L 200.96726 -111.548609 
L 199.455232 -110.90181 
L 198.123725 -110.25501 
L 197.030265 -109.608211 
L 196.203784 -108.961412 
L 195.645474 -108.314613 
L 195.333923 -107.667814 
L 195.233501 -107.021015 
L 195.304452 -106.374216 
L 195.512899 -105.727417 
L 195.839045 -105.080618 
L 196.28224 -104.433819 
L 196.862157 -103.78702 
L 197.616034 -103.140221 
L 198.592568 -102.493422 
L 199.843616 -101.846623 
L 201.415208 -101.199824 
L 203.339528 -100.553025 
L 205.629417 -99.906225 
L 208.276643 -99.259426 
L 211.254631 -98.612627 
L 214.525575 -97.965828 
L 218.050951 -97.319029 
L 221.803494 -96.67223 
L 225.777928 -96.025431 
L 229.997302 -95.378632 
L 234.512016 -94.731833 
L 239.389584 -94.085034 
L 244.694906 -93.438235 
L 250.463054 -92.791436 
L 256.668962 -92.144637 
L 263.200177 -91.497838 
L 269.839628 -90.851039 
L 276.264516 -90.204239 
L 282.065008 -89.55744 
L 286.782645 -88.910641 
L 289.964093 -88.263842 
L 291.222 -87.617043 
L 290.292415 -86.970244 
L 287.078061 -86.323445 
L 281.669087 -85.676646 
L 274.337114 -85.029847 
L 265.503617 -84.383048 
L 255.688577 -83.736249 
L 245.448792 -83.08945 
L 235.316484 -82.442651 
L 225.747827 -81.795852 
L 217.08805 -81.149053 
L 209.555954 -80.502253 
L 203.246803 -79.855454 
L 198.149589 -79.208655 
L 194.173088 -78.561856 
L 191.174894 -77.915057 
L 188.988607 -77.268258 
L 187.44592 -76.621459 
z
" style="stroke: #595959; stroke-width: 1.25"/>
    </defs>
    <g clip-path="url(#p312a87216f)">
     <use xlink:href="#m6b8b625d47" x="0" y="432" style="fill: #72b6a1; stroke: #595959; stroke-width: 1.25"/>
    </g>
   </g>
   <g id="PolyCollection_2">
    <defs>
     <path id="m9cf7d703da" d="M 453.875814 -158.611953 
L 448.464186 -158.611953 
L 446.405903 -160.925909 
L 443.185392 -163.239865 
L 438.425683 -165.553822 
L 431.788518 -167.867778 
L 423.070352 -170.181735 
L 412.309007 -172.495691 
L 399.871795 -174.809647 
L 386.490908 -177.123604 
L 373.218879 -179.43756 
L 361.2965 -181.751517 
L 351.952498 -184.065473 
L 346.178851 -186.379429 
L 344.538 -188.693386 
L 347.052564 -191.007342 
L 353.206198 -193.321299 
L 362.053626 -195.635255 
L 372.409288 -197.949211 
L 383.066415 -200.263168 
L 392.995724 -202.577124 
L 401.484012 -204.891081 
L 408.192451 -207.205037 
L 413.135622 -209.518993 
L 416.599477 -211.83295 
L 419.026075 -214.146906 
L 420.894403 -216.460863 
L 422.621389 -218.774819 
L 424.498015 -221.088775 
L 426.665235 -223.402732 
L 429.125343 -225.716688 
L 431.778287 -228.030645 
L 434.469605 -230.344601 
L 437.037197 -232.658557 
L 439.347224 -234.972514 
L 441.313794 -237.28647 
L 442.901666 -239.600427 
L 444.11493 -241.914383 
L 444.977164 -244.228339 
L 445.509773 -246.542296 
L 445.715258 -248.856252 
L 445.570821 -251.170209 
L 445.03515 -253.484165 
L 444.067553 -255.798121 
L 442.65456 -258.112078 
L 440.835929 -260.426034 
L 438.721006 -262.739991 
L 436.488322 -265.053947 
L 434.36597 -267.367904 
L 432.596263 -269.68186 
L 431.393278 -271.995816 
L 430.904227 -274.309773 
L 431.184366 -276.623729 
L 432.190921 -278.937686 
L 433.796097 -281.251642 
L 435.814474 -283.565598 
L 438.03743 -285.879555 
L 440.266875 -288.193511 
L 442.341995 -290.507468 
L 444.155164 -292.821424 
L 445.655875 -295.13538 
L 446.844017 -297.449337 
L 447.755777 -299.763293 
L 448.446433 -302.07725 
L 448.974295 -304.391206 
L 449.388979 -306.705162 
L 449.725484 -309.019119 
L 450.003785 -311.333075 
L 450.232353 -313.647032 
L 450.41344 -315.960988 
L 450.548163 -318.274944 
L 450.640042 -320.588901 
L 450.696427 -322.902857 
L 450.727969 -325.216814 
L 450.746737 -327.53077 
L 450.763823 -329.844726 
L 450.787248 -332.158683 
L 450.820775 -334.472639 
L 450.863861 -336.786596 
L 450.912591 -339.100552 
L 450.961175 -341.414508 
L 451.003498 -343.728465 
L 451.034318 -346.042421 
L 451.049973 -348.356378 
L 451.048693 -350.670334 
L 451.030687 -352.98429 
L 450.998178 -355.298247 
L 450.955369 -357.612203 
L 450.908201 -359.92616 
L 450.863737 -362.240116 
L 450.8291 -364.554072 
L 450.810162 -366.868029 
L 450.810305 -369.181985 
L 450.829701 -371.495942 
L 450.86536 -373.809898 
L 450.911971 -376.123854 
L 450.963228 -378.437811 
L 451.013235 -380.751767 
L 451.057556 -383.065724 
L 451.093695 -385.37968 
L 451.121011 -387.693636 
L 451.218989 -387.693636 
L 451.218989 -387.693636 
L 451.246305 -385.37968 
L 451.282444 -383.065724 
L 451.326765 -380.751767 
L 451.376772 -378.437811 
L 451.428029 -376.123854 
L 451.47464 -373.809898 
L 451.510299 -371.495942 
L 451.529695 -369.181985 
L 451.529838 -366.868029 
L 451.5109 -364.554072 
L 451.476263 -362.240116 
L 451.431799 -359.92616 
L 451.384631 -357.612203 
L 451.341822 -355.298247 
L 451.309313 -352.98429 
L 451.291307 -350.670334 
L 451.290027 -348.356378 
L 451.305682 -346.042421 
L 451.336502 -343.728465 
L 451.378825 -341.414508 
L 451.427409 -339.100552 
L 451.476139 -336.786596 
L 451.519225 -334.472639 
L 451.552752 -332.158683 
L 451.576177 -329.844726 
L 451.593263 -327.53077 
L 451.612031 -325.216814 
L 451.643573 -322.902857 
L 451.699958 -320.588901 
L 451.791837 -318.274944 
L 451.92656 -315.960988 
L 452.107647 -313.647032 
L 452.336215 -311.333075 
L 452.614516 -309.019119 
L 452.951021 -306.705162 
L 453.365705 -304.391206 
L 453.893567 -302.07725 
L 454.584223 -299.763293 
L 455.495983 -297.449337 
L 456.684125 -295.13538 
L 458.184836 -292.821424 
L 459.998005 -290.507468 
L 462.073125 -288.193511 
L 464.30257 -285.879555 
L 466.525526 -283.565598 
L 468.543903 -281.251642 
L 470.149079 -278.937686 
L 471.155634 -276.623729 
L 471.435773 -274.309773 
L 470.946722 -271.995816 
L 469.743737 -269.68186 
L 467.97403 -267.367904 
L 465.851678 -265.053947 
L 463.618994 -262.739991 
L 461.504071 -260.426034 
L 459.68544 -258.112078 
L 458.272447 -255.798121 
L 457.30485 -253.484165 
L 456.769179 -251.170209 
L 456.624742 -248.856252 
L 456.830227 -246.542296 
L 457.362836 -244.228339 
L 458.22507 -241.914383 
L 459.438334 -239.600427 
L 461.026206 -237.28647 
L 462.992776 -234.972514 
L 465.302803 -232.658557 
L 467.870395 -230.344601 
L 470.561713 -228.030645 
L 473.214657 -225.716688 
L 475.674765 -223.402732 
L 477.841985 -221.088775 
L 479.718611 -218.774819 
L 481.445597 -216.460863 
L 483.313925 -214.146906 
L 485.740523 -211.83295 
L 489.204378 -209.518993 
L 494.147549 -207.205037 
L 500.855988 -204.891081 
L 509.344276 -202.577124 
L 519.273585 -200.263168 
L 529.930712 -197.949211 
L 540.286374 -195.635255 
L 549.133802 -193.321299 
L 555.287436 -191.007342 
L 557.802 -188.693386 
L 556.161149 -186.379429 
L 550.387502 -184.065473 
L 541.0435 -181.751517 
L 529.121121 -179.43756 
L 515.849092 -177.123604 
L 502.468205 -174.809647 
L 490.030993 -172.495691 
L 479.269648 -170.181735 
L 470.551482 -167.867778 
L 463.914317 -165.553822 
L 459.154608 -163.239865 
L 455.934097 -160.925909 
L 453.875814 -158.611953 
z
" style="stroke: #595959; stroke-width: 1.25"/>
    </defs>
    <g clip-path="url(#p312a87216f)">
     <use xlink:href="#m9cf7d703da" x="0" y="432" style="fill: #e99675; stroke: #595959; stroke-width: 1.25"/>
    </g>
   </g>
   <g id="PolyCollection_3">
    <defs>
     <path id="m862ad2a402" d="M 720.151073 -53.566364 
L 715.348927 -53.566364 
L 713.729157 -54.087882 
L 711.277045 -54.6094 
L 707.729529 -55.130918 
L 702.82853 -55.652437 
L 696.369163 -56.173955 
L 688.258546 -56.695473 
L 678.574373 -57.216992 
L 667.608098 -57.73851 
L 655.876879 -58.260028 
L 644.092642 -58.781546 
L 633.085852 -59.303065 
L 623.693525 -59.824583 
L 616.632269 -60.346101 
L 612.383603 -60.867619 
L 611.118 -61.389138 
L 612.675566 -61.910656 
L 616.607554 -62.432174 
L 622.268053 -62.953693 
L 628.933663 -63.475211 
L 635.923921 -63.996729 
L 642.697556 -64.518247 
L 648.907973 -65.039766 
L 654.412744 -65.561284 
L 659.242944 -66.082802 
L 663.54613 -66.60432 
L 667.520053 -67.125839 
L 671.352871 -67.647357 
L 675.180827 -68.168875 
L 679.067991 -68.690394 
L 683.006617 -69.211912 
L 686.93246 -69.73343 
L 690.747565 -70.254948 
L 694.34351 -70.776467 
L 697.620043 -71.297985 
L 700.49666 -71.819503 
L 702.917045 -72.341021 
L 704.848044 -72.86254 
L 706.275715 -73.384058 
L 707.201134 -73.905576 
L 707.638008 -74.427095 
L 707.613097 -74.948613 
L 707.169071 -75.470131 
L 706.368182 -75.991649 
L 705.294345 -76.513168 
L 704.051361 -77.034686 
L 702.755998 -77.556204 
L 701.526398 -78.077722 
L 700.468025 -78.599241 
L 699.66055 -79.120759 
L 699.149145 -79.642277 
L 698.942465 -80.163796 
L 699.01768 -80.685314 
L 699.330848 -81.206832 
L 699.829499 -81.72835 
L 700.463967 -82.249869 
L 701.194868 -82.771387 
L 701.995612 -83.292905 
L 702.850574 -83.814423 
L 703.750686 -84.335942 
L 704.688629 -84.85746 
L 705.65537 -85.378978 
L 706.638879 -85.900497 
L 707.624865 -86.422015 
L 708.598656 -86.943533 
L 709.547145 -87.465051 
L 710.45991 -87.98657 
L 711.329155 -88.508088 
L 712.148632 -89.029606 
L 712.912158 -89.551124 
L 713.612419 -90.072643 
L 714.240686 -90.594161 
L 714.78768 -91.115679 
L 715.245424 -91.637198 
L 715.609579 -92.158716 
L 715.881518 -92.680234 
L 716.069447 -93.201752 
L 716.188108 -93.723271 
L 716.256996 -94.244789 
L 716.297437 -94.766307 
L 716.329247 -95.287825 
L 716.367795 -95.809344 
L 716.422214 -96.330862 
L 716.495135 -96.85238 
L 716.583885 -97.373899 
L 716.682658 -97.895417 
L 716.784934 -98.416935 
L 716.885429 -98.938453 
L 716.981119 -99.459972 
L 717.071239 -99.98149 
L 717.156518 -100.503008 
L 717.238103 -101.024526 
L 717.316633 -101.546045 
L 717.391765 -102.067563 
L 717.462229 -102.589081 
L 717.526257 -103.1106 
L 717.582161 -103.632118 
L 717.628823 -104.153636 
L 717.665946 -104.675154 
L 717.694057 -105.196673 
L 717.805943 -105.196673 
L 717.805943 -105.196673 
L 717.834054 -104.675154 
L 717.871177 -104.153636 
L 717.917839 -103.632118 
L 717.973743 -103.1106 
L 718.037771 -102.589081 
L 718.108235 -102.067563 
L 718.183367 -101.546045 
L 718.261897 -101.024526 
L 718.343482 -100.503008 
L 718.428761 -99.98149 
L 718.518881 -99.459972 
L 718.614571 -98.938453 
L 718.715066 -98.416935 
L 718.817342 -97.895417 
L 718.916115 -97.373899 
L 719.004865 -96.85238 
L 719.077786 -96.330862 
L 719.132205 -95.809344 
L 719.170753 -95.287825 
L 719.202563 -94.766307 
L 719.243004 -94.244789 
L 719.311892 -93.723271 
L 719.430553 -93.201752 
L 719.618482 -92.680234 
L 719.890421 -92.158716 
L 720.254576 -91.637198 
L 720.71232 -91.115679 
L 721.259314 -90.594161 
L 721.887581 -90.072643 
L 722.587842 -89.551124 
L 723.351368 -89.029606 
L 724.170845 -88.508088 
L 725.04009 -87.98657 
L 725.952855 -87.465051 
L 726.901344 -86.943533 
L 727.875135 -86.422015 
L 728.861121 -85.900497 
L 729.84463 -85.378978 
L 730.811371 -84.85746 
L 731.749314 -84.335942 
L 732.649426 -83.814423 
L 733.504388 -83.292905 
L 734.305132 -82.771387 
L 735.036033 -82.249869 
L 735.670501 -81.72835 
L 736.169152 -81.206832 
L 736.48232 -80.685314 
L 736.557535 -80.163796 
L 736.350855 -79.642277 
L 735.83945 -79.120759 
L 735.031975 -78.599241 
L 733.973602 -78.077722 
L 732.744002 -77.556204 
L 731.448639 -77.034686 
L 730.205655 -76.513168 
L 729.131818 -75.991649 
L 728.330929 -75.470131 
L 727.886903 -74.948613 
L 727.861992 -74.427095 
L 728.298866 -73.905576 
L 729.224285 -73.384058 
L 730.651956 -72.86254 
L 732.582955 -72.341021 
L 735.00334 -71.819503 
L 737.879957 -71.297985 
L 741.15649 -70.776467 
L 744.752435 -70.254948 
L 748.56754 -69.73343 
L 752.493383 -69.211912 
L 756.432009 -68.690394 
L 760.319173 -68.168875 
L 764.147129 -67.647357 
L 767.979947 -67.125839 
L 771.95387 -66.60432 
L 776.257056 -66.082802 
L 781.087256 -65.561284 
L 786.592027 -65.039766 
L 792.802444 -64.518247 
L 799.576079 -63.996729 
L 806.566337 -63.475211 
L 813.231947 -62.953693 
L 818.892446 -62.432174 
L 822.824434 -61.910656 
L 824.382 -61.389138 
L 823.116397 -60.867619 
L 818.867731 -60.346101 
L 811.806475 -59.824583 
L 802.414148 -59.303065 
L 791.407358 -58.781546 
L 779.623121 -58.260028 
L 767.891902 -57.73851 
L 756.925627 -57.216992 
L 747.241454 -56.695473 
L 739.130837 -56.173955 
L 732.67147 -55.652437 
L 727.770471 -55.130918 
L 724.222955 -54.6094 
L 721.770843 -54.087882 
L 720.151073 -53.566364 
z
" style="stroke: #595959; stroke-width: 1.25"/>
    </defs>
    <g clip-path="url(#p312a87216f)">
     <use xlink:href="#m862ad2a402" x="0" y="432" style="fill: #95a3c3; stroke: #595959; stroke-width: 1.25"/>
    </g>
   </g>
   <g id="line2d_9">
    <path d="M 184.59 345.127689 
L 184.59 348.142851 
" clip-path="url(#p312a87216f)" style="fill: none; stroke: #000000"/>
   </g>
   <g id="line2d_10">
    <path d="M 184.59 333.891499 
L 184.59 317.143215 
" clip-path="url(#p312a87216f)" style="fill: none; stroke: #000000"/>
   </g>
   <g id="line2d_11">
    <path d="M 174.59325 348.142851 
L 194.58675 348.142851 
" clip-path="url(#p312a87216f)" style="fill: none; stroke: #000000; stroke-linecap: round"/>
   </g>
   <g id="line2d_12">
    <path d="M 174.59325 317.143215 
L 194.58675 317.143215 
" clip-path="url(#p312a87216f)" style="fill: none; stroke: #000000; stroke-linecap: round"/>
   </g>
   <g id="line2d_13">
    <path d="M 451.17 245.721563 
L 451.17 253.730588 
" clip-path="url(#p312a87216f)" style="fill: none; stroke: #000000"/>
   </g>
   <g id="line2d_14">
    <path d="M 451.17 213.402795 
L 451.17 165.065977 
" clip-path="url(#p312a87216f)" style="fill: none; stroke: #000000"/>
   </g>
   <g id="line2d_15">
    <path d="M 441.17325 253.730588 
L 461.16675 253.730588 
" clip-path="url(#p312a87216f)" style="fill: none; stroke: #000000; stroke-linecap: round"/>
   </g>
   <g id="line2d_16">
    <path d="M 441.17325 165.065977 
L 461.16675 165.065977 
" clip-path="url(#p312a87216f)" style="fill: none; stroke: #000000; stroke-linecap: round"/>
   </g>
   <g id="line2d_17">
    <path d="M 717.75 371.227685 
L 717.75 373.489057 
" clip-path="url(#p312a87216f)" style="fill: none; stroke: #000000"/>
   </g>
   <g id="line2d_18">
    <path d="M 717.75 363.477777 
L 717.75 351.911803 
" clip-path="url(#p312a87216f)" style="fill: none; stroke: #000000"/>
   </g>
   <g id="line2d_19">
    <path d="M 707.75325 373.489057 
L 727.74675 373.489057 
" clip-path="url(#p312a87216f)" style="fill: none; stroke: #000000; stroke-linecap: round"/>
   </g>
   <g id="line2d_20">
    <path d="M 707.75325 351.911803 
L 727.74675 351.911803 
" clip-path="url(#p312a87216f)" style="fill: none; stroke: #000000; stroke-linecap: round"/>
   </g>
   <g id="line2d_21">
    <path d="M 164.5965 342.772093 
L 204.5835 342.772093 
" clip-path="url(#p312a87216f)" style="fill: none; stroke: #ff0000; stroke-width: 2"/>
   </g>
   <g id="line2d_22">
    <path d="M 431.1765 239.549903 
L 471.1635 239.549903 
" clip-path="url(#p312a87216f)" style="fill: none; stroke: #ff0000; stroke-width: 2"/>
   </g>
   <g id="line2d_23">
    <path d="M 697.7565 369.248985 
L 737.7435 369.248985 
" clip-path="url(#p312a87216f)" style="fill: none; stroke: #ff0000; stroke-width: 2"/>
   </g>
   <g id="patch_3">
    <path d="M 51.3 395.14 
L 51.3 27.6 
" style="fill: none; stroke: #cccccc; stroke-width: 1.25; stroke-linejoin: miter; stroke-linecap: square"/>
   </g>
   <g id="patch_4">
    <path d="M 851.04 395.14 
L 851.04 27.6 
" style="fill: none; stroke: #cccccc; stroke-width: 1.25; stroke-linejoin: miter; stroke-linecap: square"/>
   </g>
   <g id="patch_5">
    <path d="M 51.3 395.14 
L 851.04 395.14 
" style="fill: none; stroke: #cccccc; stroke-width: 1.25; stroke-linejoin: miter; stroke-linecap: square"/>
   </g>
   <g id="patch_6">
    <path d="M 51.3 27.6 
L 851.04 27.6 
" style="fill: none; stroke: #cccccc; stroke-width: 1.25; stroke-linejoin: miter; stroke-linecap: square"/>
   </g>
   <g id="text_13">
    <!-- Handshake duration on QUIC with secp521r1 signature algorithm -->
    <g style="fill: #262626" transform="translate(255.065625 21.6) scale(0.12 -0.12)">
     <defs>
      <path id="DejaVuSans-51" d="M 2522 4238 
Q 1834 4238 1429 3725 
Q 1025 3213 1025 2328 
Q 1025 1447 1429 934 
Q 1834 422 2522 422 
Q 3209 422 3611 934 
Q 4013 1447 4013 2328 
Q 4013 3213 3611 3725 
Q 3209 4238 2522 4238 
z
M 3406 84 
L 4238 -825 
L 3475 -825 
L 2784 -78 
Q 2681 -84 2626 -87 
Q 2572 -91 2522 -91 
Q 1538 -91 948 567 
Q 359 1225 359 2328 
Q 359 3434 948 4092 
Q 1538 4750 2522 4750 
Q 3503 4750 4090 4092 
Q 4678 3434 4678 2328 
Q 4678 1516 4351 937 
Q 4025 359 3406 84 
z
" transform="scale(0.015625)"/>
      <path id="DejaVuSans-55" d="M 556 4666 
L 1191 4666 
L 1191 1831 
Q 1191 1081 1462 751 
Q 1734 422 2344 422 
Q 2950 422 3222 751 
Q 3494 1081 3494 1831 
L 3494 4666 
L 4128 4666 
L 4128 1753 
Q 4128 841 3676 375 
Q 3225 -91 2344 -91 
Q 1459 -91 1007 375 
Q 556 841 556 1753 
L 556 4666 
z
" transform="scale(0.015625)"/>
      <path id="DejaVuSans-49" d="M 628 4666 
L 1259 4666 
L 1259 0 
L 628 0 
L 628 4666 
z
" transform="scale(0.015625)"/>
      <path id="DejaVuSans-43" d="M 4122 4306 
L 4122 3641 
Q 3803 3938 3442 4084 
Q 3081 4231 2675 4231 
Q 1875 4231 1450 3742 
Q 1025 3253 1025 2328 
Q 1025 1406 1450 917 
Q 1875 428 2675 428 
Q 3081 428 3442 575 
Q 3803 722 4122 1019 
L 4122 359 
Q 3791 134 3420 21 
Q 3050 -91 2638 -91 
Q 1578 -91 968 557 
Q 359 1206 359 2328 
Q 359 3453 968 4101 
Q 1578 4750 2638 4750 
Q 3056 4750 3426 4639 
Q 3797 4528 4122 4306 
z
" transform="scale(0.015625)"/>
      <path id="DejaVuSans-77" d="M 269 3500 
L 844 3500 
L 1563 769 
L 2278 3500 
L 2956 3500 
L 3675 769 
L 4391 3500 
L 4966 3500 
L 4050 0 
L 3372 0 
L 2619 2869 
L 1863 0 
L 1184 0 
L 269 3500 
z
" transform="scale(0.015625)"/>
      <path id="DejaVuSans-63" d="M 3122 3366 
L 3122 2828 
Q 2878 2963 2633 3030 
Q 2388 3097 2138 3097 
Q 1578 3097 1268 2742 
Q 959 2388 959 1747 
Q 959 1106 1268 751 
Q 1578 397 2138 397 
Q 2388 397 2633 464 
Q 2878 531 3122 666 
L 3122 134 
Q 2881 22 2623 -34 
Q 2366 -91 2075 -91 
Q 1284 -91 818 406 
Q 353 903 353 1747 
Q 353 2603 823 3093 
Q 1294 3584 2113 3584 
Q 2378 3584 2631 3529 
Q 2884 3475 3122 3366 
z
" transform="scale(0.015625)"/>
      <path id="DejaVuSans-67" d="M 2906 1791 
Q 2906 2416 2648 2759 
Q 2391 3103 1925 3103 
Q 1463 3103 1205 2759 
Q 947 2416 947 1791 
Q 947 1169 1205 825 
Q 1463 481 1925 481 
Q 2391 481 2648 825 
Q 2906 1169 2906 1791 
z
M 3481 434 
Q 3481 -459 3084 -895 
Q 2688 -1331 1869 -1331 
Q 1566 -1331 1297 -1286 
Q 1028 -1241 775 -1147 
L 775 -588 
Q 1028 -725 1275 -790 
Q 1522 -856 1778 -856 
Q 2344 -856 2625 -561 
Q 2906 -266 2906 331 
L 2906 616 
Q 2728 306 2450 153 
Q 2172 0 1784 0 
Q 1141 0 747 490 
Q 353 981 353 1791 
Q 353 2603 747 3093 
Q 1141 3584 1784 3584 
Q 2172 3584 2450 3431 
Q 2728 3278 2906 2969 
L 2906 3500 
L 3481 3500 
L 3481 434 
z
" transform="scale(0.015625)"/>
     </defs>
     <use xlink:href="#DejaVuSans-48"/>
     <use xlink:href="#DejaVuSans-61" x="75.195312"/>
     <use xlink:href="#DejaVuSans-6e" x="136.474609"/>
     <use xlink:href="#DejaVuSans-64" x="199.853516"/>
     <use xlink:href="#DejaVuSans-73" x="263.330078"/>
     <use xlink:href="#DejaVuSans-68" x="315.429688"/>
     <use xlink:href="#DejaVuSans-61" x="378.808594"/>
     <use xlink:href="#DejaVuSans-6b" x="440.087891"/>
     <use xlink:href="#DejaVuSans-65" x="494.373047"/>
     <use xlink:href="#DejaVuSans-20" x="555.896484"/>
     <use xlink:href="#DejaVuSans-64" x="587.683594"/>
     <use xlink:href="#DejaVuSans-75" x="651.160156"/>
     <use xlink:href="#DejaVuSans-72" x="714.539062"/>
     <use xlink:href="#DejaVuSans-61" x="755.652344"/>
     <use xlink:href="#DejaVuSans-74" x="816.931641"/>
     <use xlink:href="#DejaVuSans-69" x="856.140625"/>
     <use xlink:href="#DejaVuSans-6f" x="883.923828"/>
     <use xlink:href="#DejaVuSans-6e" x="945.105469"/>
     <use xlink:href="#DejaVuSans-20" x="1008.484375"/>
     <use xlink:href="#DejaVuSans-6f" x="1040.271484"/>
     <use xlink:href="#DejaVuSans-6e" x="1101.453125"/>
     <use xlink:href="#DejaVuSans-20" x="1164.832031"/>
     <use xlink:href="#DejaVuSans-51" x="1196.619141"/>
     <use xlink:href="#DejaVuSans-55" x="1275.330078"/>
     <use xlink:href="#DejaVuSans-49" x="1348.523438"/>
     <use xlink:href="#DejaVuSans-43" x="1378.015625"/>
     <use xlink:href="#DejaVuSans-20" x="1447.839844"/>
     <use xlink:href="#DejaVuSans-77" x="1479.626953"/>
     <use xlink:href="#DejaVuSans-69" x="1561.414062"/>
     <use xlink:href="#DejaVuSans-74" x="1589.197266"/>
     <use xlink:href="#DejaVuSans-68" x="1628.40625"/>
     <use xlink:href="#DejaVuSans-20" x="1691.785156"/>
     <use xlink:href="#DejaVuSans-73" x="1723.572266"/>
     <use xlink:href="#DejaVuSans-65" x="1775.671875"/>
     <use xlink:href="#DejaVuSans-63" x="1837.195312"/>
     <use xlink:href="#DejaVuSans-70" x="1892.175781"/>
     <use xlink:href="#DejaVuSans-35" x="1955.652344"/>
     <use xlink:href="#DejaVuSans-32" x="2019.275391"/>
     <use xlink:href="#DejaVuSans-31" x="2082.898438"/>
     <use xlink:href="#DejaVuSans-72" x="2146.521484"/>
     <use xlink:href="#DejaVuSans-31" x="2187.634766"/>
     <use xlink:href="#DejaVuSans-20" x="2251.257812"/>
     <use xlink:href="#DejaVuSans-73" x="2283.044922"/>
     <use xlink:href="#DejaVuSans-69" x="2335.144531"/>
     <use xlink:href="#DejaVuSans-67" x="2362.927734"/>
     <use xlink:href="#DejaVuSans-6e" x="2426.404297"/>
     <use xlink:href="#DejaVuSans-61" x="2489.783203"/>
     <use xlink:href="#DejaVuSans-74" x="2551.0625"/>
     <use xlink:href="#DejaVuSans-75" x="2590.271484"/>
     <use xlink:href="#DejaVuSans-72" x="2653.650391"/>
     <use xlink:href="#DejaVuSans-65" x="2692.513672"/>
     <use xlink:href="#DejaVuSans-20" x="2754.037109"/>
     <use xlink:href="#DejaVuSans-61" x="2785.824219"/>
     <use xlink:href="#DejaVuSans-6c" x="2847.103516"/>
     <use xlink:href="#DejaVuSans-67" x="2874.886719"/>
     <use xlink:href="#DejaVuSans-6f" x="2938.363281"/>
     <use xlink:href="#DejaVuSans-72" x="2999.544922"/>
     <use xlink:href="#DejaVuSans-69" x="3040.658203"/>
     <use xlink:href="#DejaVuSans-74" x="3068.441406"/>
     <use xlink:href="#DejaVuSans-68" x="3107.650391"/>
     <use xlink:href="#DejaVuSans-6d" x="3171.029297"/>
    </g>
   </g>
  </g>
 </g>
 <defs>
  <clipPath id="p312a87216f">
   <rect x="51.3" y="27.6" width="799.74" height="367.54"/>
  </clipPath>
 </defs>
</svg>
