<?xml version="1.0" encoding="utf-8" standalone="no"?>
<!DOCTYPE svg PUBLIC "-//W3C//DTD SVG 1.1//EN"
  "http://www.w3.org/Graphics/SVG/1.1/DTD/svg11.dtd">
<svg xmlns:xlink="http://www.w3.org/1999/xlink" width="864pt" height="432pt" viewBox="0 0 864 432" xmlns="http://www.w3.org/2000/svg" version="1.1">
 <metadata>
  <rdf:RDF xmlns:dc="http://purl.org/dc/elements/1.1/" xmlns:cc="http://creativecommons.org/ns#" xmlns:rdf="http://www.w3.org/1999/02/22-rdf-syntax-ns#">
   <cc:Work>
    <dc:type rdf:resource="http://purl.org/dc/dcmitype/StillImage"/>
    <dc:date>2026-03-07T11:43:49.686128</dc:date>
    <dc:format>image/svg+xml</dc:format>
    <dc:creator>
     <cc:Agent>
      <dc:title>Matplotlib v3.6.3, https://matplotlib.org/</dc:title>
     </cc:Agent>
    </dc:creator>
   </cc:Work>
  </rdf:RDF>
 </metadata>
 <defs>
  <style type="text/css">*{stroke-linejoin: round; stroke-linecap: butt}</style>
 </defs>
 <g id="figure_1">
  <g id="patch_1">
   <path d="M 0 432 
L 864 432 
L 864 0 
L 0 0 
z
" style="fill: #ffffff"/>
  </g>
  <g id="axes_1">
   <g id="patch_2">
    <path d="M 65.52 358.276 
L 851.04 358.276 
L 851.04 20.88 
L 65.52 20.88 
z
" style="fill: #ffffff"/>
   </g>
   <g id="matplotlib.axis_1">
    <g id="xtick_1">
     <g id="text_1">
      <!-- P-256 -->
      <g style="fill: #262626" transform="translate(109.872 386.01225) scale(0.24 -0.24)">
       <defs>
        <path id="DejaVuSans-50" d="M 1259 4147 
L 1259 2394 
L 2053 2394 
Q 2494 2394 2734 2622 
Q 2975 2850 2975 3272 
Q 2975 3691 2734 3919 
Q 2494 4147 2053 4147 
L 1259 4147 
z
M 628 4666 
L 2053 4666 
Q 2838 4666 3239 4311 
Q 3641 3956 3641 3272 
Q 3641 2581 3239 2228 
Q 2838 1875 2053 1875 
L 1259 1875 
L 1259 0 
L 628 0 
L 628 4666 
z
" transform="scale(0.015625)"/>
        <path id="DejaVuSans-2d" d="M 313 2009 
L 1997 2009 
L 1997 1497 
L 313 1497 
L 313 2009 
z
" transform="scale(0.015625)"/>
        <path id="DejaVuSans-32" d="M 1228 531 
L 3431 531 
L 3431 0 
L 469 0 
L 469 531 
Q 828 903 1448 1529 
Q 2069 2156 2228 2338 
Q 2531 2678 2651 2914 
Q 2772 3150 2772 3378 
Q 2772 3750 2511 3984 
Q 2250 4219 1831 4219 
Q 1534 4219 1204 4116 
Q 875 4013 500 3803 
L 500 4441 
Q 881 4594 1212 4672 
Q 1544 4750 1819 4750 
Q 2544 4750 2975 4387 
Q 3406 4025 3406 3419 
Q 3406 3131 3298 2873 
Q 3191 2616 2906 2266 
Q 2828 2175 2409 1742 
Q 1991 1309 1228 531 
z
" transform="scale(0.015625)"/>
        <path id="DejaVuSans-35" d="M 691 4666 
L 3169 4666 
L 3169 4134 
L 1269 4134 
L 1269 2991 
Q 1406 3038 1543 3061 
Q 1681 3084 1819 3084 
Q 2600 3084 3056 2656 
Q 3513 2228 3513 1497 
Q 3513 744 3044 326 
Q 2575 -91 1722 -91 
Q 1428 -91 1123 -41 
Q 819 9 494 109 
L 494 744 
Q 775 591 1075 516 
Q 1375 441 1709 441 
Q 2250 441 2565 725 
Q 2881 1009 2881 1497 
Q 2881 1984 2565 2268 
Q 2250 2553 1709 2553 
Q 1456 2553 1204 2497 
Q 953 2441 691 2322 
L 691 4666 
z
" transform="scale(0.015625)"/>
        <path id="DejaVuSans-36" d="M 2113 2584 
Q 1688 2584 1439 2293 
Q 1191 2003 1191 1497 
Q 1191 994 1439 701 
Q 1688 409 2113 409 
Q 2538 409 2786 701 
Q 3034 994 3034 1497 
Q 3034 2003 2786 2293 
Q 2538 2584 2113 2584 
z
M 3366 4563 
L 3366 3988 
Q 3128 4100 2886 4159 
Q 2644 4219 2406 4219 
Q 1781 4219 1451 3797 
Q 1122 3375 1075 2522 
Q 1259 2794 1537 2939 
Q 1816 3084 2150 3084 
Q 2853 3084 3261 2657 
Q 3669 2231 3669 1497 
Q 3669 778 3244 343 
Q 2819 -91 2113 -91 
Q 1303 -91 875 529 
Q 447 1150 447 2328 
Q 447 3434 972 4092 
Q 1497 4750 2381 4750 
Q 2619 4750 2861 4703 
Q 3103 4656 3366 4563 
z
" transform="scale(0.015625)"/>
       </defs>
       <use xlink:href="#DejaVuSans-50"/>
       <use xlink:href="#DejaVuSans-2d" x="58.052734"/>
       <use xlink:href="#DejaVuSans-32" x="94.136719"/>
       <use xlink:href="#DejaVuSans-35" x="157.759766"/>
       <use xlink:href="#DejaVuSans-36" x="221.382812"/>
      </g>
     </g>
    </g>
    <g id="xtick_2">
     <g id="text_2">
      <!-- x25519 -->
      <g style="fill: #262626" transform="translate(255.8985 386.01225) scale(0.24 -0.24)">
       <defs>
        <path id="DejaVuSans-78" d="M 3513 3500 
L 2247 1797 
L 3578 0 
L 2900 0 
L 1881 1375 
L 863 0 
L 184 0 
L 1544 1831 
L 300 3500 
L 978 3500 
L 1906 2253 
L 2834 3500 
L 3513 3500 
z
" transform="scale(0.015625)"/>
        <path id="DejaVuSans-31" d="M 794 531 
L 1825 531 
L 1825 4091 
L 703 3866 
L 703 4441 
L 1819 4666 
L 2450 4666 
L 2450 531 
L 3481 531 
L 3481 0 
L 794 0 
L 794 531 
z
" transform="scale(0.015625)"/>
        <path id="DejaVuSans-39" d="M 703 97 
L 703 672 
Q 941 559 1184 500 
Q 1428 441 1663 441 
Q 2288 441 2617 861 
Q 2947 1281 2994 2138 
Q 2813 1869 2534 1725 
Q 2256 1581 1919 1581 
Q 1219 1581 811 2004 
Q 403 2428 403 3163 
Q 403 3881 828 4315 
Q 1253 4750 1959 4750 
Q 2769 4750 3195 4129 
Q 3622 3509 3622 2328 
Q 3622 1225 3098 567 
Q 2575 -91 1691 -91 
Q 1453 -91 1209 -44 
Q 966 3 703 97 
z
M 1959 2075 
Q 2384 2075 2632 2365 
Q 2881 2656 2881 3163 
Q 2881 3666 2632 3958 
Q 2384 4250 1959 4250 
Q 1534 4250 1286 3958 
Q 1038 3666 1038 3163 
Q 1038 2656 1286 2365 
Q 1534 2075 1959 2075 
z
" transform="scale(0.015625)"/>
       </defs>
       <use xlink:href="#DejaVuSans-78"/>
       <use xlink:href="#DejaVuSans-32" x="59.179688"/>
       <use xlink:href="#DejaVuSans-35" x="122.802734"/>
       <use xlink:href="#DejaVuSans-35" x="186.425781"/>
       <use xlink:href="#DejaVuSans-31" x="250.048828"/>
       <use xlink:href="#DejaVuSans-39" x="313.671875"/>
      </g>
     </g>
    </g>
    <g id="xtick_3">
     <g id="text_3">
      <!-- P-256 -->
      <g style="fill: #262626" transform="translate(424.08 386.01225) scale(0.24 -0.24)">
       <use xlink:href="#DejaVuSans-50"/>
       <use xlink:href="#DejaVuSans-2d" x="58.052734"/>
       <use xlink:href="#DejaVuSans-32" x="94.136719"/>
       <use xlink:href="#DejaVuSans-35" x="157.759766"/>
       <use xlink:href="#DejaVuSans-36" x="221.382812"/>
      </g>
      <!-- mlkem512 -->
      <g style="fill: #262626" transform="translate(394.76625 412.887) scale(0.24 -0.24)">
       <defs>
        <path id="DejaVuSans-6d" d="M 3328 2828 
Q 3544 3216 3844 3400 
Q 4144 3584 4550 3584 
Q 5097 3584 5394 3201 
Q 5691 2819 5691 2113 
L 5691 0 
L 5113 0 
L 5113 2094 
Q 5113 2597 4934 2840 
Q 4756 3084 4391 3084 
Q 3944 3084 3684 2787 
Q 3425 2491 3425 1978 
L 3425 0 
L 2847 0 
L 2847 2094 
Q 2847 2600 2669 2842 
Q 2491 3084 2119 3084 
Q 1678 3084 1418 2786 
Q 1159 2488 1159 1978 
L 1159 0 
L 581 0 
L 581 3500 
L 1159 3500 
L 1159 2956 
Q 1356 3278 1631 3431 
Q 1906 3584 2284 3584 
Q 2666 3584 2933 3390 
Q 3200 3197 3328 2828 
z
" transform="scale(0.015625)"/>
        <path id="DejaVuSans-6c" d="M 603 4863 
L 1178 4863 
L 1178 0 
L 603 0 
L 603 4863 
z
" transform="scale(0.015625)"/>
        <path id="DejaVuSans-6b" d="M 581 4863 
L 1159 4863 
L 1159 1991 
L 2875 3500 
L 3609 3500 
L 1753 1863 
L 3688 0 
L 2938 0 
L 1159 1709 
L 1159 0 
L 581 0 
L 581 4863 
z
" transform="scale(0.015625)"/>
        <path id="DejaVuSans-65" d="M 3597 1894 
L 3597 1613 
L 953 1613 
Q 991 1019 1311 708 
Q 1631 397 2203 397 
Q 2534 397 2845 478 
Q 3156 559 3463 722 
L 3463 178 
Q 3153 47 2828 -22 
Q 2503 -91 2169 -91 
Q 1331 -91 842 396 
Q 353 884 353 1716 
Q 353 2575 817 3079 
Q 1281 3584 2069 3584 
Q 2775 3584 3186 3129 
Q 3597 2675 3597 1894 
z
M 3022 2063 
Q 3016 2534 2758 2815 
Q 2500 3097 2075 3097 
Q 1594 3097 1305 2825 
Q 1016 2553 972 2059 
L 3022 2063 
z
" transform="scale(0.015625)"/>
       </defs>
       <use xlink:href="#DejaVuSans-6d"/>
       <use xlink:href="#DejaVuSans-6c" x="97.412109"/>
       <use xlink:href="#DejaVuSans-6b" x="125.195312"/>
       <use xlink:href="#DejaVuSans-65" x="179.480469"/>
       <use xlink:href="#DejaVuSans-6d" x="241.003906"/>
       <use xlink:href="#DejaVuSans-35" x="338.416016"/>
       <use xlink:href="#DejaVuSans-31" x="402.039062"/>
       <use xlink:href="#DejaVuSans-32" x="465.662109"/>
      </g>
     </g>
    </g>
    <g id="xtick_4">
     <g id="text_4">
      <!-- x25519 -->
      <g style="fill: #262626" transform="translate(570.1065 386.01225) scale(0.24 -0.24)">
       <use xlink:href="#DejaVuSans-78"/>
       <use xlink:href="#DejaVuSans-32" x="59.179688"/>
       <use xlink:href="#DejaVuSans-35" x="122.802734"/>
       <use xlink:href="#DejaVuSans-35" x="186.425781"/>
       <use xlink:href="#DejaVuSans-31" x="250.048828"/>
       <use xlink:href="#DejaVuSans-39" x="313.671875"/>
      </g>
      <!-- mlkem512 -->
      <g style="fill: #262626" transform="translate(551.87025 412.887) scale(0.24 -0.24)">
       <use xlink:href="#DejaVuSans-6d"/>
       <use xlink:href="#DejaVuSans-6c" x="97.412109"/>
       <use xlink:href="#DejaVuSans-6b" x="125.195312"/>
       <use xlink:href="#DejaVuSans-65" x="179.480469"/>
       <use xlink:href="#DejaVuSans-6d" x="241.003906"/>
       <use xlink:href="#DejaVuSans-35" x="338.416016"/>
       <use xlink:href="#DejaVuSans-31" x="402.039062"/>
       <use xlink:href="#DejaVuSans-32" x="465.662109"/>
      </g>
     </g>
    </g>
    <g id="xtick_5">
     <g id="text_5">
      <!-- mlkem512 -->
      <g style="fill: #262626" transform="translate(708.97425 386.01225) scale(0.24 -0.24)">
       <use xlink:href="#DejaVuSans-6d"/>
       <use xlink:href="#DejaVuSans-6c" x="97.412109"/>
       <use xlink:href="#DejaVuSans-6b" x="125.195312"/>
       <use xlink:href="#DejaVuSans-65" x="179.480469"/>
       <use xlink:href="#DejaVuSans-6d" x="241.003906"/>
       <use xlink:href="#DejaVuSans-35" x="338.416016"/>
       <use xlink:href="#DejaVuSans-31" x="402.039062"/>
       <use xlink:href="#DejaVuSans-32" x="465.662109"/>
      </g>
     </g>
    </g>
   </g>
   <g id="matplotlib.axis_2">
    <g id="ytick_1">
     <g id="line2d_1">
      <path d="M 65.52 358.276 
L 851.04 358.276 
" clip-path="url(#pddec1ddef7)" style="fill: none; stroke: #cccccc; stroke-linecap: round"/>
     </g>
     <g id="text_6">
      <!-- 0 -->
      <g style="fill: #262626" transform="translate(43.295 365.874437) scale(0.2 -0.2)">
       <defs>
        <path id="DejaVuSans-30" d="M 2034 4250 
Q 1547 4250 1301 3770 
Q 1056 3291 1056 2328 
Q 1056 1369 1301 889 
Q 1547 409 2034 409 
Q 2525 409 2770 889 
Q 3016 1369 3016 2328 
Q 3016 3291 2770 3770 
Q 2525 4250 2034 4250 
z
M 2034 4750 
Q 2819 4750 3233 4129 
Q 3647 3509 3647 2328 
Q 3647 1150 3233 529 
Q 2819 -91 2034 -91 
Q 1250 -91 836 529 
Q 422 1150 422 2328 
Q 422 3509 836 4129 
Q 1250 4750 2034 4750 
z
" transform="scale(0.015625)"/>
       </defs>
       <use xlink:href="#DejaVuSans-30"/>
      </g>
     </g>
    </g>
    <g id="ytick_2">
     <g id="line2d_2">
      <path d="M 65.52 310.076571 
L 851.04 310.076571 
" clip-path="url(#pddec1ddef7)" style="fill: none; stroke: #cccccc; stroke-linecap: round"/>
     </g>
     <g id="text_7">
      <!-- 5 -->
      <g style="fill: #262626" transform="translate(43.295 317.675009) scale(0.2 -0.2)">
       <use xlink:href="#DejaVuSans-35"/>
      </g>
     </g>
    </g>
    <g id="ytick_3">
     <g id="line2d_3">
      <path d="M 65.52 261.877143 
L 851.04 261.877143 
" clip-path="url(#pddec1ddef7)" style="fill: none; stroke: #cccccc; stroke-linecap: round"/>
     </g>
     <g id="text_8">
      <!-- 10 -->
      <g style="fill: #262626" transform="translate(30.57 269.47558) scale(0.2 -0.2)">
       <use xlink:href="#DejaVuSans-31"/>
       <use xlink:href="#DejaVuSans-30" x="63.623047"/>
      </g>
     </g>
    </g>
    <g id="ytick_4">
     <g id="line2d_4">
      <path d="M 65.52 213.677714 
L 851.04 213.677714 
" clip-path="url(#pddec1ddef7)" style="fill: none; stroke: #cccccc; stroke-linecap: round"/>
     </g>
     <g id="text_9">
      <!-- 15 -->
      <g style="fill: #262626" transform="translate(30.57 221.276152) scale(0.2 -0.2)">
       <use xlink:href="#DejaVuSans-31"/>
       <use xlink:href="#DejaVuSans-35" x="63.623047"/>
      </g>
     </g>
    </g>
    <g id="ytick_5">
     <g id="line2d_5">
      <path d="M 65.52 165.478286 
L 851.04 165.478286 
" clip-path="url(#pddec1ddef7)" style="fill: none; stroke: #cccccc; stroke-linecap: round"/>
     </g>
     <g id="text_10">
      <!-- 20 -->
      <g style="fill: #262626" transform="translate(30.57 173.076723) scale(0.2 -0.2)">
       <use xlink:href="#DejaVuSans-32"/>
       <use xlink:href="#DejaVuSans-30" x="63.623047"/>
      </g>
     </g>
    </g>
    <g id="ytick_6">
     <g id="line2d_6">
      <path d="M 65.52 117.278857 
L 851.04 117.278857 
" clip-path="url(#pddec1ddef7)" style="fill: none; stroke: #cccccc; stroke-linecap: round"/>
     </g>
     <g id="text_11">
      <!-- 25 -->
      <g style="fill: #262626" transform="translate(30.57 124.877295) scale(0.2 -0.2)">
       <use xlink:href="#DejaVuSans-32"/>
       <use xlink:href="#DejaVuSans-35" x="63.623047"/>
      </g>
     </g>
    </g>
    <g id="ytick_7">
     <g id="line2d_7">
      <path d="M 65.52 69.079429 
L 851.04 69.079429 
" clip-path="url(#pddec1ddef7)" style="fill: none; stroke: #cccccc; stroke-linecap: round"/>
     </g>
     <g id="text_12">
      <!-- 30 -->
      <g style="fill: #262626" transform="translate(30.57 76.677866) scale(0.2 -0.2)">
       <defs>
        <path id="DejaVuSans-33" d="M 2597 2516 
Q 3050 2419 3304 2112 
Q 3559 1806 3559 1356 
Q 3559 666 3084 287 
Q 2609 -91 1734 -91 
Q 1441 -91 1130 -33 
Q 819 25 488 141 
L 488 750 
Q 750 597 1062 519 
Q 1375 441 1716 441 
Q 2309 441 2620 675 
Q 2931 909 2931 1356 
Q 2931 1769 2642 2001 
Q 2353 2234 1838 2234 
L 1294 2234 
L 1294 2753 
L 1863 2753 
Q 2328 2753 2575 2939 
Q 2822 3125 2822 3475 
Q 2822 3834 2567 4026 
Q 2313 4219 1838 4219 
Q 1578 4219 1281 4162 
Q 984 4106 628 3988 
L 628 4550 
Q 988 4650 1302 4700 
Q 1616 4750 1894 4750 
Q 2613 4750 3031 4423 
Q 3450 4097 3450 3541 
Q 3450 3153 3228 2886 
Q 3006 2619 2597 2516 
z
" transform="scale(0.015625)"/>
       </defs>
       <use xlink:href="#DejaVuSans-33"/>
       <use xlink:href="#DejaVuSans-30" x="63.623047"/>
      </g>
     </g>
    </g>
    <g id="ytick_8">
     <g id="line2d_8">
      <path d="M 65.52 20.88 
L 851.04 20.88 
" clip-path="url(#pddec1ddef7)" style="fill: none; stroke: #cccccc; stroke-linecap: round"/>
     </g>
     <g id="text_13">
      <!-- 35 -->
      <g style="fill: #262626" transform="translate(30.57 28.478438) scale(0.2 -0.2)">
       <use xlink:href="#DejaVuSans-33"/>
       <use xlink:href="#DejaVuSans-35" x="63.623047"/>
      </g>
     </g>
    </g>
    <g id="text_14">
     <!-- Handshake duration (ms) -->
     <g style="fill: #262626" transform="translate(23.658438 278.323781) rotate(-90) scale(0.14 -0.14)">
      <defs>
       <path id="DejaVuSans-48" d="M 628 4666 
L 1259 4666 
L 1259 2753 
L 3553 2753 
L 3553 4666 
L 4184 4666 
L 4184 0 
L 3553 0 
L 3553 2222 
L 1259 2222 
L 1259 0 
L 628 0 
L 628 4666 
z
" transform="scale(0.015625)"/>
       <path id="DejaVuSans-61" d="M 2194 1759 
Q 1497 1759 1228 1600 
Q 959 1441 959 1056 
Q 959 750 1161 570 
Q 1363 391 1709 391 
Q 2188 391 2477 730 
Q 2766 1069 2766 1631 
L 2766 1759 
L 2194 1759 
z
M 3341 1997 
L 3341 0 
L 2766 0 
L 2766 531 
Q 2569 213 2275 61 
Q 1981 -91 1556 -91 
Q 1019 -91 701 211 
Q 384 513 384 1019 
Q 384 1609 779 1909 
Q 1175 2209 1959 2209 
L 2766 2209 
L 2766 2266 
Q 2766 2663 2505 2880 
Q 2244 3097 1772 3097 
Q 1472 3097 1187 3025 
Q 903 2953 641 2809 
L 641 3341 
Q 956 3463 1253 3523 
Q 1550 3584 1831 3584 
Q 2591 3584 2966 3190 
Q 3341 2797 3341 1997 
z
" transform="scale(0.015625)"/>
       <path id="DejaVuSans-6e" d="M 3513 2113 
L 3513 0 
L 2938 0 
L 2938 2094 
Q 2938 2591 2744 2837 
Q 2550 3084 2163 3084 
Q 1697 3084 1428 2787 
Q 1159 2491 1159 1978 
L 1159 0 
L 581 0 
L 581 3500 
L 1159 3500 
L 1159 2956 
Q 1366 3272 1645 3428 
Q 1925 3584 2291 3584 
Q 2894 3584 3203 3211 
Q 3513 2838 3513 2113 
z
" transform="scale(0.015625)"/>
       <path id="DejaVuSans-64" d="M 2906 2969 
L 2906 4863 
L 3481 4863 
L 3481 0 
L 2906 0 
L 2906 525 
Q 2725 213 2448 61 
Q 2172 -91 1784 -91 
Q 1150 -91 751 415 
Q 353 922 353 1747 
Q 353 2572 751 3078 
Q 1150 3584 1784 3584 
Q 2172 3584 2448 3432 
Q 2725 3281 2906 2969 
z
M 947 1747 
Q 947 1113 1208 752 
Q 1469 391 1925 391 
Q 2381 391 2643 752 
Q 2906 1113 2906 1747 
Q 2906 2381 2643 2742 
Q 2381 3103 1925 3103 
Q 1469 3103 1208 2742 
Q 947 2381 947 1747 
z
" transform="scale(0.015625)"/>
       <path id="DejaVuSans-73" d="M 2834 3397 
L 2834 2853 
Q 2591 2978 2328 3040 
Q 2066 3103 1784 3103 
Q 1356 3103 1142 2972 
Q 928 2841 928 2578 
Q 928 2378 1081 2264 
Q 1234 2150 1697 2047 
L 1894 2003 
Q 2506 1872 2764 1633 
Q 3022 1394 3022 966 
Q 3022 478 2636 193 
Q 2250 -91 1575 -91 
Q 1294 -91 989 -36 
Q 684 19 347 128 
L 347 722 
Q 666 556 975 473 
Q 1284 391 1588 391 
Q 1994 391 2212 530 
Q 2431 669 2431 922 
Q 2431 1156 2273 1281 
Q 2116 1406 1581 1522 
L 1381 1569 
Q 847 1681 609 1914 
Q 372 2147 372 2553 
Q 372 3047 722 3315 
Q 1072 3584 1716 3584 
Q 2034 3584 2315 3537 
Q 2597 3491 2834 3397 
z
" transform="scale(0.015625)"/>
       <path id="DejaVuSans-68" d="M 3513 2113 
L 3513 0 
L 2938 0 
L 2938 2094 
Q 2938 2591 2744 2837 
Q 2550 3084 2163 3084 
Q 1697 3084 1428 2787 
Q 1159 2491 1159 1978 
L 1159 0 
L 581 0 
L 581 4863 
L 1159 4863 
L 1159 2956 
Q 1366 3272 1645 3428 
Q 1925 3584 2291 3584 
Q 2894 3584 3203 3211 
Q 3513 2838 3513 2113 
z
" transform="scale(0.015625)"/>
       <path id="DejaVuSans-20" transform="scale(0.015625)"/>
       <path id="DejaVuSans-75" d="M 544 1381 
L 544 3500 
L 1119 3500 
L 1119 1403 
Q 1119 906 1312 657 
Q 1506 409 1894 409 
Q 2359 409 2629 706 
Q 2900 1003 2900 1516 
L 2900 3500 
L 3475 3500 
L 3475 0 
L 2900 0 
L 2900 538 
Q 2691 219 2414 64 
Q 2138 -91 1772 -91 
Q 1169 -91 856 284 
Q 544 659 544 1381 
z
M 1991 3584 
L 1991 3584 
z
" transform="scale(0.015625)"/>
       <path id="DejaVuSans-72" d="M 2631 2963 
Q 2534 3019 2420 3045 
Q 2306 3072 2169 3072 
Q 1681 3072 1420 2755 
Q 1159 2438 1159 1844 
L 1159 0 
L 581 0 
L 581 3500 
L 1159 3500 
L 1159 2956 
Q 1341 3275 1631 3429 
Q 1922 3584 2338 3584 
Q 2397 3584 2469 3576 
Q 2541 3569 2628 3553 
L 2631 2963 
z
" transform="scale(0.015625)"/>
       <path id="DejaVuSans-74" d="M 1172 4494 
L 1172 3500 
L 2356 3500 
L 2356 3053 
L 1172 3053 
L 1172 1153 
Q 1172 725 1289 603 
Q 1406 481 1766 481 
L 2356 481 
L 2356 0 
L 1766 0 
Q 1100 0 847 248 
Q 594 497 594 1153 
L 594 3053 
L 172 3053 
L 172 3500 
L 594 3500 
L 594 4494 
L 1172 4494 
z
" transform="scale(0.015625)"/>
       <path id="DejaVuSans-69" d="M 603 3500 
L 1178 3500 
L 1178 0 
L 603 0 
L 603 3500 
z
M 603 4863 
L 1178 4863 
L 1178 4134 
L 603 4134 
L 603 4863 
z
" transform="scale(0.015625)"/>
       <path id="DejaVuSans-6f" d="M 1959 3097 
Q 1497 3097 1228 2736 
Q 959 2375 959 1747 
Q 959 1119 1226 758 
Q 1494 397 1959 397 
Q 2419 397 2687 759 
Q 2956 1122 2956 1747 
Q 2956 2369 2687 2733 
Q 2419 3097 1959 3097 
z
M 1959 3584 
Q 2709 3584 3137 3096 
Q 3566 2609 3566 1747 
Q 3566 888 3137 398 
Q 2709 -91 1959 -91 
Q 1206 -91 779 398 
Q 353 888 353 1747 
Q 353 2609 779 3096 
Q 1206 3584 1959 3584 
z
" transform="scale(0.015625)"/>
       <path id="DejaVuSans-28" d="M 1984 4856 
Q 1566 4138 1362 3434 
Q 1159 2731 1159 2009 
Q 1159 1288 1364 580 
Q 1569 -128 1984 -844 
L 1484 -844 
Q 1016 -109 783 600 
Q 550 1309 550 2009 
Q 550 2706 781 3412 
Q 1013 4119 1484 4856 
L 1984 4856 
z
" transform="scale(0.015625)"/>
       <path id="DejaVuSans-29" d="M 513 4856 
L 1013 4856 
Q 1481 4119 1714 3412 
Q 1947 2706 1947 2009 
Q 1947 1309 1714 600 
Q 1481 -109 1013 -844 
L 513 -844 
Q 928 -128 1133 580 
Q 1338 1288 1338 2009 
Q 1338 2731 1133 3434 
Q 928 4138 513 4856 
z
" transform="scale(0.015625)"/>
      </defs>
      <use xlink:href="#DejaVuSans-48"/>
      <use xlink:href="#DejaVuSans-61" x="75.195312"/>
      <use xlink:href="#DejaVuSans-6e" x="136.474609"/>
      <use xlink:href="#DejaVuSans-64" x="199.853516"/>
      <use xlink:href="#DejaVuSans-73" x="263.330078"/>
      <use xlink:href="#DejaVuSans-68" x="315.429688"/>
      <use xlink:href="#DejaVuSans-61" x="378.808594"/>
      <use xlink:href="#DejaVuSans-6b" x="440.087891"/>
      <use xlink:href="#DejaVuSans-65" x="494.373047"/>
      <use xlink:href="#DejaVuSans-20" x="555.896484"/>
      <use xlink:href="#DejaVuSans-64" x="587.683594"/>
      <use xlink:href="#DejaVuSans-75" x="651.160156"/>
      <use xlink:href="#DejaVuSans-72" x="714.539062"/>
      <use xlink:href="#DejaVuSans-61" x="755.652344"/>
      <use xlink:href="#DejaVuSans-74" x="816.931641"/>
      <use xlink:href="#DejaVuSans-69" x="856.140625"/>
      <use xlink:href="#DejaVuSans-6f" x="883.923828"/>
      <use xlink:href="#DejaVuSans-6e" x="945.105469"/>
      <use xlink:href="#DejaVuSans-20" x="1008.484375"/>
      <use xlink:href="#DejaVuSans-28" x="1040.271484"/>
      <use xlink:href="#DejaVuSans-6d" x="1079.285156"/>
      <use xlink:href="#DejaVuSans-73" x="1176.697266"/>
      <use xlink:href="#DejaVuSans-29" x="1228.796875"/>
     </g>
    </g>
   </g>
   <g id="PolyCollection_1">
    <defs>
     <path id="mbf0486bd61" d="M 144.587558 -85.547198 
L 143.556442 -85.547198 
L 142.687792 -87.534283 
L 141.059647 -89.521368 
L 138.698924 -91.508452 
L 136.078856 -93.495537 
L 133.896861 -95.482622 
L 132.605625 -97.469707 
L 132.191748 -99.456791 
L 132.364762 -101.443876 
L 132.833759 -103.430961 
L 133.420365 -105.418046 
L 134.053065 -107.40513 
L 134.697115 -109.392215 
L 135.19551 -111.3793 
L 135.09882 -113.366385 
L 133.632525 -115.353469 
L 129.811607 -117.340554 
L 122.683752 -119.327639 
L 111.93995 -121.314724 
L 98.958118 -123.301809 
L 87.286901 -125.288893 
L 81.2304 -127.275978 
L 83.117421 -129.263063 
L 91.801213 -131.250148 
L 103.777975 -133.237232 
L 115.536952 -135.224317 
L 125.053673 -137.211402 
L 131.8478 -139.198487 
L 136.315782 -141.185571 
L 139.097123 -143.172656 
L 140.752275 -145.159741 
L 141.69995 -147.146826 
L 142.258059 -149.13391 
L 142.661875 -151.120995 
L 143.038774 -153.10808 
L 143.401832 -155.095165 
L 143.70235 -157.082249 
L 143.902664 -159.069334 
L 144.00848 -161.056419 
L 144.052664 -163.043504 
L 144.067252 -165.030588 
L 144.071064 -167.017673 
L 144.071852 -169.004758 
L 144.071981 -170.991843 
L 144.071998 -172.978928 
L 144.072 -174.966012 
L 144.072 -176.953097 
L 144.072 -178.940182 
L 144.072 -180.927267 
L 144.072 -182.914351 
L 144.072 -184.901436 
L 144.072 -186.888521 
L 144.072 -188.875606 
L 144.072 -190.86269 
L 144.072 -192.849775 
L 144.072 -194.83686 
L 144.072 -196.823945 
L 144.072 -198.811029 
L 144.072 -200.798114 
L 144.072 -202.785199 
L 144.072 -204.772284 
L 144.072 -206.759368 
L 144.072 -208.746453 
L 144.072 -210.733538 
L 144.072 -212.720623 
L 144.072 -214.707707 
L 144.072 -216.694792 
L 144.072 -218.681877 
L 144.072 -220.668962 
L 144.072 -222.656047 
L 144.072 -224.643131 
L 144.072 -226.630216 
L 144.072 -228.617301 
L 144.072 -230.604386 
L 144.072 -232.59147 
L 144.072 -234.578555 
L 144.072 -236.56564 
L 144.072 -238.552725 
L 144.072 -240.539809 
L 144.072 -242.526894 
L 144.072 -244.513979 
L 144.072 -246.501064 
L 144.072 -248.488148 
L 144.072 -250.475233 
L 144.072 -252.462318 
L 144.071997 -254.449403 
L 144.071975 -256.436487 
L 144.071827 -258.423572 
L 144.071037 -260.410657 
L 144.067756 -262.397742 
L 144.057181 -264.384826 
L 144.031023 -266.371911 
L 143.982272 -268.358996 
L 143.916406 -270.346081 
L 143.858336 -272.333166 
L 143.839649 -274.32025 
L 143.871906 -276.307335 
L 143.935542 -278.29442 
L 143.998305 -280.281505 
L 144.040482 -282.268589 
L 144.103518 -282.268589 
L 144.103518 -282.268589 
L 144.145695 -280.281505 
L 144.208458 -278.29442 
L 144.272094 -276.307335 
L 144.304351 -274.32025 
L 144.285664 -272.333166 
L 144.227594 -270.346081 
L 144.161728 -268.358996 
L 144.112977 -266.371911 
L 144.086819 -264.384826 
L 144.076244 -262.397742 
L 144.072963 -260.410657 
L 144.072173 -258.423572 
L 144.072025 -256.436487 
L 144.072003 -254.449403 
L 144.072 -252.462318 
L 144.072 -250.475233 
L 144.072 -248.488148 
L 144.072 -246.501064 
L 144.072 -244.513979 
L 144.072 -242.526894 
L 144.072 -240.539809 
L 144.072 -238.552725 
L 144.072 -236.56564 
L 144.072 -234.578555 
L 144.072 -232.59147 
L 144.072 -230.604386 
L 144.072 -228.617301 
L 144.072 -226.630216 
L 144.072 -224.643131 
L 144.072 -222.656047 
L 144.072 -220.668962 
L 144.072 -218.681877 
L 144.072 -216.694792 
L 144.072 -214.707707 
L 144.072 -212.720623 
L 144.072 -210.733538 
L 144.072 -208.746453 
L 144.072 -206.759368 
L 144.072 -204.772284 
L 144.072 -202.785199 
L 144.072 -200.798114 
L 144.072 -198.811029 
L 144.072 -196.823945 
L 144.072 -194.83686 
L 144.072 -192.849775 
L 144.072 -190.86269 
L 144.072 -188.875606 
L 144.072 -186.888521 
L 144.072 -184.901436 
L 144.072 -182.914351 
L 144.072 -180.927267 
L 144.072 -178.940182 
L 144.072 -176.953097 
L 144.072 -174.966012 
L 144.072002 -172.978928 
L 144.072019 -170.991843 
L 144.072148 -169.004758 
L 144.072936 -167.017673 
L 144.076748 -165.030588 
L 144.091336 -163.043504 
L 144.13552 -161.056419 
L 144.241336 -159.069334 
L 144.44165 -157.082249 
L 144.742168 -155.095165 
L 145.105226 -153.10808 
L 145.482125 -151.120995 
L 145.885941 -149.13391 
L 146.44405 -147.146826 
L 147.391725 -145.159741 
L 149.046877 -143.172656 
L 151.828218 -141.185571 
L 156.2962 -139.198487 
L 163.090327 -137.211402 
L 172.607048 -135.224317 
L 184.366025 -133.237232 
L 196.342787 -131.250148 
L 205.026579 -129.263063 
L 206.9136 -127.275978 
L 200.857099 -125.288893 
L 189.185882 -123.301809 
L 176.20405 -121.314724 
L 165.460248 -119.327639 
L 158.332393 -117.340554 
L 154.511475 -115.353469 
L 153.04518 -113.366385 
L 152.94849 -111.3793 
L 153.446885 -109.392215 
L 154.090935 -107.40513 
L 154.723635 -105.418046 
L 155.310241 -103.430961 
L 155.779238 -101.443876 
L 155.952252 -99.456791 
L 155.538375 -97.469707 
L 154.247139 -95.482622 
L 152.065144 -93.495537 
L 149.445076 -91.508452 
L 147.084353 -89.521368 
L 145.456208 -87.534283 
L 144.587558 -85.547198 
z
" style="stroke: #595959; stroke-width: 1.25"/>
    </defs>
    <g clip-path="url(#pddec1ddef7)">
     <use xlink:href="#mbf0486bd61" x="0" y="432" style="fill: #72b6a1; stroke: #595959; stroke-width: 1.25"/>
    </g>
   </g>
   <g id="PolyCollection_2">
    <defs>
     <path id="ma54f7eca8a" d="M 301.658265 -85.947443 
L 300.693735 -85.947443 
L 300.411751 -86.682021 
L 300.011769 -87.416598 
L 299.469488 -88.151175 
L 298.766365 -88.885753 
L 297.893671 -89.62033 
L 296.855379 -90.354908 
L 295.66892 -91.089485 
L 294.36337 -91.824062 
L 292.975524 -92.55864 
L 291.545164 -93.293217 
L 290.111198 -94.027795 
L 288.709999 -94.762372 
L 287.376287 -95.496949 
L 286.145543 -96.231527 
L 285.056088 -96.966104 
L 284.148858 -97.700682 
L 283.463864 -98.435259 
L 283.033836 -99.169836 
L 282.87699 -99.904414 
L 282.991444 -100.638991 
L 283.353408 -101.373568 
L 283.919948 -102.108146 
L 284.635623 -102.842723 
L 285.441138 -103.577301 
L 286.281819 -104.311878 
L 287.114072 -105.046455 
L 287.908815 -105.781033 
L 288.65169 -106.51561 
L 289.340407 -107.250188 
L 289.979895 -107.984765 
L 290.575962 -108.719342 
L 291.128248 -109.45392 
L 291.623327 -110.188497 
L 292.02889 -110.923074 
L 292.2899 -111.657652 
L 292.327469 -112.392229 
L 292.04086 -113.126807 
L 291.312833 -113.861384 
L 290.018415 -114.595961 
L 288.037306 -115.330539 
L 285.270086 -116.065116 
L 281.657958 -116.799694 
L 277.204509 -117.534271 
L 271.996121 -118.268848 
L 266.215803 -119.003426 
L 260.144416 -119.738003 
L 254.144494 -120.472581 
L 248.625413 -121.207158 
L 243.993785 -121.941735 
L 240.597935 -122.676313 
L 238.67822 -123.41089 
L 238.3344 -124.145467 
L 239.517234 -124.880045 
L 242.045252 -125.614622 
L 245.64143 -126.3492 
L 249.98025 -127.083777 
L 254.734558 -127.818354 
L 259.613498 -128.552932 
L 264.386572 -129.287509 
L 268.892934 -130.022087 
L 273.038244 -130.756664 
L 276.78313 -131.491241 
L 280.127632 -132.225819 
L 283.095369 -132.960396 
L 285.720094 -133.694974 
L 288.036136 -134.429551 
L 290.073164 -135.164128 
L 291.854812 -135.898706 
L 293.400065 -136.633283 
L 294.725979 -137.36786 
L 295.85034 -138.102438 
L 296.793273 -138.837015 
L 297.577381 -139.571593 
L 298.226591 -140.30617 
L 298.764264 -141.040747 
L 299.211293 -141.775325 
L 299.584735 -142.509902 
L 299.897292 -143.24448 
L 300.157624 -143.979057 
L 300.371296 -144.713634 
L 300.54203 -145.448212 
L 300.672962 -146.182789 
L 300.76766 -146.917366 
L 300.830749 -147.651944 
L 300.868104 -148.386521 
L 300.886602 -149.121099 
L 300.893552 -149.855676 
L 300.895918 -150.590253 
L 300.899539 -151.324831 
L 300.908501 -152.059408 
L 300.924826 -152.793986 
L 300.948531 -153.528563 
L 300.978029 -154.26314 
L 301.010761 -154.997718 
L 301.043886 -155.732295 
L 301.074885 -156.466873 
L 301.101945 -157.20145 
L 301.124113 -157.936027 
L 301.141223 -158.670605 
L 301.210777 -158.670605 
L 301.210777 -158.670605 
L 301.227887 -157.936027 
L 301.250055 -157.20145 
L 301.277115 -156.466873 
L 301.308114 -155.732295 
L 301.341239 -154.997718 
L 301.373971 -154.26314 
L 301.403469 -153.528563 
L 301.427174 -152.793986 
L 301.443499 -152.059408 
L 301.452461 -151.324831 
L 301.456082 -150.590253 
L 301.458448 -149.855676 
L 301.465398 -149.121099 
L 301.483896 -148.386521 
L 301.521251 -147.651944 
L 301.58434 -146.917366 
L 301.679038 -146.182789 
L 301.80997 -145.448212 
L 301.980704 -144.713634 
L 302.194376 -143.979057 
L 302.454708 -143.24448 
L 302.767265 -142.509902 
L 303.140707 -141.775325 
L 303.587736 -141.040747 
L 304.125409 -140.30617 
L 304.774619 -139.571593 
L 305.558727 -138.837015 
L 306.50166 -138.102438 
L 307.626021 -137.36786 
L 308.951935 -136.633283 
L 310.497188 -135.898706 
L 312.278836 -135.164128 
L 314.315864 -134.429551 
L 316.631906 -133.694974 
L 319.256631 -132.960396 
L 322.224368 -132.225819 
L 325.56887 -131.491241 
L 329.313756 -130.756664 
L 333.459066 -130.022087 
L 337.965428 -129.287509 
L 342.738502 -128.552932 
L 347.617442 -127.818354 
L 352.37175 -127.083777 
L 356.71057 -126.3492 
L 360.306748 -125.614622 
L 362.834766 -124.880045 
L 364.0176 -124.145467 
L 363.67378 -123.41089 
L 361.754065 -122.676313 
L 358.358215 -121.941735 
L 353.726587 -121.207158 
L 348.207506 -120.472581 
L 342.207584 -119.738003 
L 336.136197 -119.003426 
L 330.355879 -118.268848 
L 325.147491 -117.534271 
L 320.694042 -116.799694 
L 317.081914 -116.065116 
L 314.314694 -115.330539 
L 312.333585 -114.595961 
L 311.039167 -113.861384 
L 310.31114 -113.126807 
L 310.024531 -112.392229 
L 310.0621 -111.657652 
L 310.32311 -110.923074 
L 310.728673 -110.188497 
L 311.223752 -109.45392 
L 311.776038 -108.719342 
L 312.372105 -107.984765 
L 313.011593 -107.250188 
L 313.70031 -106.51561 
L 314.443185 -105.781033 
L 315.237928 -105.046455 
L 316.070181 -104.311878 
L 316.910862 -103.577301 
L 317.716377 -102.842723 
L 318.432052 -102.108146 
L 318.998592 -101.373568 
L 319.360556 -100.638991 
L 319.47501 -99.904414 
L 319.318164 -99.169836 
L 318.888136 -98.435259 
L 318.203142 -97.700682 
L 317.295912 -96.966104 
L 316.206457 -96.231527 
L 314.975713 -95.496949 
L 313.642001 -94.762372 
L 312.240802 -94.027795 
L 310.806836 -93.293217 
L 309.376476 -92.55864 
L 307.98863 -91.824062 
L 306.68308 -91.089485 
L 305.496621 -90.354908 
L 304.458329 -89.62033 
L 303.585635 -88.885753 
L 302.882512 -88.151175 
L 302.340231 -87.416598 
L 301.940249 -86.682021 
L 301.658265 -85.947443 
z
" style="stroke: #595959; stroke-width: 1.25"/>
    </defs>
    <g clip-path="url(#pddec1ddef7)">
     <use xlink:href="#ma54f7eca8a" x="0" y="432" style="fill: #e99675; stroke: #595959; stroke-width: 1.25"/>
    </g>
   </g>
   <g id="PolyCollection_3">
    <defs>
     <path id="m287fe1b1c3" d="M 458.404169 -144.802139 
L 458.155831 -144.802139 
L 458.068519 -147.121878 
L 457.934498 -149.441616 
L 457.738075 -151.761355 
L 457.463217 -154.081093 
L 457.096166 -156.400832 
L 456.628842 -158.72057 
L 456.062536 -161.040309 
L 455.411138 -163.360047 
L 454.702899 -165.679786 
L 453.979811 -167.999525 
L 453.294012 -170.319263 
L 452.701334 -172.639002 
L 452.252941 -174.95874 
L 451.986812 -177.278479 
L 451.921127 -179.598217 
L 452.051378 -181.917956 
L 452.352061 -184.237694 
L 452.78246 -186.557433 
L 453.294839 -188.877171 
L 453.842623 -191.19691 
L 454.386338 -193.516648 
L 454.896027 -195.836387 
L 455.350201 -198.156125 
L 455.732671 -200.475864 
L 456.029248 -202.795602 
L 456.22616 -205.115341 
L 456.311147 -207.435079 
L 456.276954 -209.754818 
L 456.125832 -212.074556 
L 455.873071 -214.394295 
L 455.547796 -216.714033 
L 455.190163 -219.033772 
L 454.845371 -221.35351 
L 454.55611 -223.673249 
L 454.355577 -225.992987 
L 454.262996 -228.312726 
L 454.282538 -230.632465 
L 454.405344 -232.952203 
L 454.613313 -235.271942 
L 454.883014 -237.59168 
L 455.188359 -239.911419 
L 455.501295 -242.231157 
L 455.790348 -244.550896 
L 456.017142 -246.870634 
L 456.131077 -249.190373 
L 456.062595 -251.510111 
L 455.716169 -253.82985 
L 454.965366 -256.149588 
L 453.653771 -258.469327 
L 451.606174 -260.789065 
L 448.653372 -263.108804 
L 444.670429 -265.428542 
L 439.622727 -267.748281 
L 433.608205 -270.068019 
L 426.880644 -272.387758 
L 419.840319 -274.707496 
L 412.985954 -277.027235 
L 406.834106 -279.346973 
L 401.824574 -281.666712 
L 398.237972 -283.98645 
L 396.150253 -286.306189 
L 395.4384 -288.625927 
L 395.835278 -290.945666 
L 397.015876 -293.265405 
L 398.687751 -295.585143 
L 400.658669 -297.904882 
L 402.863624 -300.22462 
L 405.347737 -302.544359 
L 408.215738 -304.864097 
L 411.567967 -307.183836 
L 415.444691 -309.503574 
L 419.795123 -311.823313 
L 424.477566 -314.143051 
L 429.286498 -316.46279 
L 433.99473 -318.782528 
L 438.396258 -321.102267 
L 442.337937 -323.422005 
L 445.733908 -325.741744 
L 448.56313 -328.061482 
L 450.855036 -330.381221 
L 452.670209 -332.700959 
L 454.082188 -335.020698 
L 455.164122 -337.340436 
L 455.981348 -339.660175 
L 456.588963 -341.979913 
L 457.032507 -344.299652 
L 457.349836 -346.61939 
L 457.57283 -348.939129 
L 457.72833 -351.258867 
L 457.838318 -353.578606 
L 457.919748 -355.898345 
L 457.984491 -358.218083 
L 458.039729 -360.537822 
L 458.088854 -362.85756 
L 458.132704 -365.177299 
L 458.170838 -367.497037 
L 458.20257 -369.816776 
L 458.227599 -372.136514 
L 458.246235 -374.456253 
L 458.313765 -374.456253 
L 458.313765 -374.456253 
L 458.332401 -372.136514 
L 458.35743 -369.816776 
L 458.389162 -367.497037 
L 458.427296 -365.177299 
L 458.471146 -362.85756 
L 458.520271 -360.537822 
L 458.575509 -358.218083 
L 458.640252 -355.898345 
L 458.721682 -353.578606 
L 458.83167 -351.258867 
L 458.98717 -348.939129 
L 459.210164 -346.61939 
L 459.527493 -344.299652 
L 459.971037 -341.979913 
L 460.578652 -339.660175 
L 461.395878 -337.340436 
L 462.477812 -335.020698 
L 463.889791 -332.700959 
L 465.704964 -330.381221 
L 467.99687 -328.061482 
L 470.826092 -325.741744 
L 474.222063 -323.422005 
L 478.163742 -321.102267 
L 482.56527 -318.782528 
L 487.273502 -316.46279 
L 492.082434 -314.143051 
L 496.764877 -311.823313 
L 501.115309 -309.503574 
L 504.992033 -307.183836 
L 508.344262 -304.864097 
L 511.212263 -302.544359 
L 513.696376 -300.22462 
L 515.901331 -297.904882 
L 517.872249 -295.585143 
L 519.544124 -293.265405 
L 520.724722 -290.945666 
L 521.1216 -288.625927 
L 520.409747 -286.306189 
L 518.322028 -283.98645 
L 514.735426 -281.666712 
L 509.725894 -279.346973 
L 503.574046 -277.027235 
L 496.719681 -274.707496 
L 489.679356 -272.387758 
L 482.951795 -270.068019 
L 476.937273 -267.748281 
L 471.889571 -265.428542 
L 467.906628 -263.108804 
L 464.953826 -260.789065 
L 462.906229 -258.469327 
L 461.594634 -256.149588 
L 460.843831 -253.82985 
L 460.497405 -251.510111 
L 460.428923 -249.190373 
L 460.542858 -246.870634 
L 460.769652 -244.550896 
L 461.058705 -242.231157 
L 461.371641 -239.911419 
L 461.676986 -237.59168 
L 461.946687 -235.271942 
L 462.154656 -232.952203 
L 462.277462 -230.632465 
L 462.297004 -228.312726 
L 462.204423 -225.992987 
L 462.00389 -223.673249 
L 461.714629 -221.35351 
L 461.369837 -219.033772 
L 461.012204 -216.714033 
L 460.686929 -214.394295 
L 460.434168 -212.074556 
L 460.283046 -209.754818 
L 460.248853 -207.435079 
L 460.33384 -205.115341 
L 460.530752 -202.795602 
L 460.827329 -200.475864 
L 461.209799 -198.156125 
L 461.663973 -195.836387 
L 462.173662 -193.516648 
L 462.717377 -191.19691 
L 463.265161 -188.877171 
L 463.77754 -186.557433 
L 464.207939 -184.237694 
L 464.508622 -181.917956 
L 464.638873 -179.598217 
L 464.573188 -177.278479 
L 464.307059 -174.95874 
L 463.858666 -172.639002 
L 463.265988 -170.319263 
L 462.580189 -167.999525 
L 461.857101 -165.679786 
L 461.148862 -163.360047 
L 460.497464 -161.040309 
L 459.931158 -158.72057 
L 459.463834 -156.400832 
L 459.096783 -154.081093 
L 458.821925 -151.761355 
L 458.625502 -149.441616 
L 458.491481 -147.121878 
L 458.404169 -144.802139 
z
" style="stroke: #595959; stroke-width: 1.25"/>
    </defs>
    <g clip-path="url(#pddec1ddef7)">
     <use xlink:href="#m287fe1b1c3" x="0" y="432" style="fill: #95a3c3; stroke: #595959; stroke-width: 1.25"/>
    </g>
   </g>
   <g id="PolyCollection_4">
    <defs>
     <path id="m61a9c872dc" d="M 615.613159 -89.975986 
L 615.154841 -89.975986 
L 615.020398 -90.727525 
L 614.827137 -91.479064 
L 614.560293 -92.230603 
L 614.206342 -92.982142 
L 613.755207 -93.733681 
L 613.202481 -94.48522 
L 612.551174 -95.236759 
L 611.812513 -95.988298 
L 611.005479 -96.739837 
L 610.155108 -97.491376 
L 609.289896 -98.242915 
L 608.438897 -98.994454 
L 607.629174 -99.745993 
L 606.884043 -100.497532 
L 606.222244 -101.249071 
L 605.657815 -102.00061 
L 605.20026 -102.752149 
L 604.854643 -103.503688 
L 604.621477 -104.255227 
L 604.496597 -105.006766 
L 604.471375 -105.758305 
L 604.53361 -106.509844 
L 604.66914 -107.261383 
L 604.863836 -108.012922 
L 605.105392 -108.764461 
L 605.384273 -109.516 
L 605.693497 -110.267539 
L 606.02734 -111.019078 
L 606.379554 -111.770617 
L 606.741837 -112.522156 
L 607.103265 -113.273695 
L 607.45095 -114.025234 
L 607.771757 -114.776773 
L 608.054477 -115.528312 
L 608.291701 -116.279851 
L 608.480733 -117.03139 
L 608.623168 -117.782929 
L 608.723137 -118.534468 
L 608.784455 -119.286007 
L 608.80712 -120.037546 
L 608.783547 -120.789085 
L 608.69491 -121.540624 
L 608.507867 -122.292163 
L 608.171991 -123.043702 
L 607.618357 -123.795241 
L 606.760027 -124.54678 
L 605.495408 -125.298319 
L 603.715587 -126.049858 
L 601.316476 -126.801397 
L 598.215725 -127.552936 
L 594.373005 -128.304475 
L 589.810518 -129.056014 
L 584.629192 -129.807553 
L 579.015502 -130.559092 
L 573.234885 -131.310631 
L 567.610295 -132.06217 
L 562.488023 -132.813709 
L 558.196468 -133.565248 
L 555.005787 -134.316787 
L 553.096424 -135.068326 
L 552.5424 -135.819865 
L 553.311456 -136.571404 
L 555.280161 -137.322943 
L 558.259034 -138.074482 
L 562.021465 -138.826021 
L 566.330797 -139.57756 
L 570.961794 -140.329099 
L 575.714982 -141.080638 
L 580.424232 -141.832177 
L 584.959027 -142.583716 
L 589.223158 -143.335255 
L 593.151329 -144.086794 
L 596.704706 -144.838333 
L 599.866104 -145.589872 
L 602.635239 -146.341411 
L 605.024386 -147.09295 
L 607.054689 -147.844489 
L 608.753232 -148.596028 
L 610.150871 -149.347567 
L 611.28069 -150.099106 
L 612.176873 -150.850645 
L 612.873799 -151.602184 
L 613.4052 -152.353723 
L 613.803317 -153.105262 
L 614.098039 -153.856801 
L 614.316068 -154.60834 
L 614.480202 -155.359879 
L 614.608808 -156.111418 
L 614.715609 -156.862957 
L 614.809818 -157.614496 
L 614.896656 -158.366035 
L 614.978173 -159.117574 
L 615.054254 -159.869113 
L 615.123649 -160.620652 
L 615.184853 -161.372191 
L 615.236743 -162.12373 
L 615.278904 -162.875269 
L 615.311688 -163.626808 
L 615.336071 -164.378347 
L 615.431929 -164.378347 
L 615.431929 -164.378347 
L 615.456312 -163.626808 
L 615.489096 -162.875269 
L 615.531257 -162.12373 
L 615.583147 -161.372191 
L 615.644351 -160.620652 
L 615.713746 -159.869113 
L 615.789827 -159.117574 
L 615.871344 -158.366035 
L 615.958182 -157.614496 
L 616.052391 -156.862957 
L 616.159192 -156.111418 
L 616.287798 -155.359879 
L 616.451932 -154.60834 
L 616.669961 -153.856801 
L 616.964683 -153.105262 
L 617.3628 -152.353723 
L 617.894201 -151.602184 
L 618.591127 -150.850645 
L 619.48731 -150.099106 
L 620.617129 -149.347567 
L 622.014768 -148.596028 
L 623.713311 -147.844489 
L 625.743614 -147.09295 
L 628.132761 -146.341411 
L 630.901896 -145.589872 
L 634.063294 -144.838333 
L 637.616671 -144.086794 
L 641.544842 -143.335255 
L 645.808973 -142.583716 
L 650.343768 -141.832177 
L 655.053018 -141.080638 
L 659.806206 -140.329099 
L 664.437203 -139.57756 
L 668.746535 -138.826021 
L 672.508966 -138.074482 
L 675.487839 -137.322943 
L 677.456544 -136.571404 
L 678.2256 -135.819865 
L 677.671576 -135.068326 
L 675.762213 -134.316787 
L 672.571532 -133.565248 
L 668.279977 -132.813709 
L 663.157705 -132.06217 
L 657.533115 -131.310631 
L 651.752498 -130.559092 
L 646.138808 -129.807553 
L 640.957482 -129.056014 
L 636.394995 -128.304475 
L 632.552275 -127.552936 
L 629.451524 -126.801397 
L 627.052413 -126.049858 
L 625.272592 -125.298319 
L 624.007973 -124.54678 
L 623.149643 -123.795241 
L 622.596009 -123.043702 
L 622.260133 -122.292163 
L 622.07309 -121.540624 
L 621.984453 -120.789085 
L 621.96088 -120.037546 
L 621.983545 -119.286007 
L 622.044863 -118.534468 
L 622.144832 -117.782929 
L 622.287267 -117.03139 
L 622.476299 -116.279851 
L 622.713523 -115.528312 
L 622.996243 -114.776773 
L 623.31705 -114.025234 
L 623.664735 -113.273695 
L 624.026163 -112.522156 
L 624.388446 -111.770617 
L 624.74066 -111.019078 
L 625.074503 -110.267539 
L 625.383727 -109.516 
L 625.662608 -108.764461 
L 625.904164 -108.012922 
L 626.09886 -107.261383 
L 626.23439 -106.509844 
L 626.296625 -105.758305 
L 626.271403 -105.006766 
L 626.146523 -104.255227 
L 625.913357 -103.503688 
L 625.56774 -102.752149 
L 625.110185 -102.00061 
L 624.545756 -101.249071 
L 623.883957 -100.497532 
L 623.138826 -99.745993 
L 622.329103 -98.994454 
L 621.478104 -98.242915 
L 620.612892 -97.491376 
L 619.762521 -96.739837 
L 618.955487 -95.988298 
L 618.216826 -95.236759 
L 617.565519 -94.48522 
L 617.012793 -93.733681 
L 616.561658 -92.982142 
L 616.207707 -92.230603 
L 615.940863 -91.479064 
L 615.747602 -90.727525 
L 615.613159 -89.975986 
z
" style="stroke: #595959; stroke-width: 1.25"/>
    </defs>
    <g clip-path="url(#pddec1ddef7)">
     <use xlink:href="#m61a9c872dc" x="0" y="432" style="fill: #db96c0; stroke: #595959; stroke-width: 1.25"/>
    </g>
   </g>
   <g id="PolyCollection_5">
    <defs>
     <path id="m8086b5403a" d="M 772.704504 -87.317084 
L 772.271496 -87.317084 
L 772.134555 -88.012307 
L 771.936898 -88.707531 
L 771.666636 -89.402754 
L 771.316647 -90.097977 
L 770.887322 -90.7932 
L 770.388022 -91.488423 
L 769.836269 -92.183646 
L 769.254331 -92.87887 
L 768.663858 -93.574093 
L 768.080279 -94.269316 
L 767.509195 -94.964539 
L 766.946585 -95.659762 
L 766.383265 -96.354985 
L 765.812207 -97.050209 
L 765.235787 -97.745432 
L 764.669772 -98.440655 
L 764.141948 -99.135878 
L 763.685507 -99.831101 
L 763.329564 -100.526324 
L 763.090412 -101.221548 
L 762.966853 -101.916771 
L 762.941207 -102.611994 
L 762.985322 -103.307217 
L 763.06903 -104.00244 
L 763.167787 -104.697663 
L 763.266822 -105.392886 
L 763.360726 -106.08811 
L 763.449205 -106.783333 
L 763.531152 -107.478556 
L 763.599663 -108.173779 
L 763.640029 -108.869002 
L 763.631404 -109.564225 
L 763.551204 -110.259449 
L 763.380114 -110.954672 
L 763.10537 -111.649895 
L 762.720781 -112.345118 
L 762.223409 -113.040341 
L 761.608129 -113.735564 
L 760.861768 -114.430788 
L 759.958079 -115.126011 
L 758.853859 -115.821234 
L 757.486207 -116.516457 
L 755.771625 -117.21168 
L 753.609352 -117.906903 
L 750.892493 -118.602127 
L 747.529712 -119.29735 
L 743.476596 -119.992573 
L 738.770283 -120.687796 
L 733.556133 -121.383019 
L 728.094224 -122.078242 
L 722.737887 -122.773466 
L 717.885471 -123.468689 
L 713.916349 -124.163912 
L 711.128457 -124.859135 
L 709.694394 -125.554358 
L 709.6464 -126.249581 
L 710.890575 -126.944805 
L 713.241872 -127.640028 
L 716.467047 -128.335251 
L 720.323716 -129.030474 
L 724.588199 -129.725697 
L 729.070227 -130.42092 
L 733.616506 -131.116144 
L 738.106931 -131.811367 
L 742.44723 -132.50659 
L 746.561136 -133.201813 
L 750.384352 -133.897036 
L 753.861793 -134.592259 
L 756.948568 -135.287483 
L 759.613954 -135.982706 
L 761.84646 -136.677929 
L 763.657487 -137.373152 
L 765.081507 -138.068375 
L 766.171906 -138.763598 
L 766.993274 -139.458822 
L 767.612176 -140.154045 
L 768.088871 -140.849268 
L 768.471899 -141.544491 
L 768.796298 -142.239714 
L 769.084962 -142.934937 
L 769.351796 -143.630161 
L 769.605155 -144.325384 
L 769.850445 -145.020607 
L 770.091455 -145.71583 
L 770.330632 -146.411053 
L 770.568835 -147.106276 
L 770.805127 -147.8015 
L 771.036901 -148.496723 
L 771.260354 -149.191946 
L 771.471172 -149.887169 
L 771.665196 -150.582392 
L 771.838958 -151.277615 
L 771.990047 -151.972839 
L 772.117299 -152.668062 
L 772.220854 -153.363285 
L 772.302067 -154.058508 
L 772.363292 -154.753731 
L 772.407557 -155.448954 
L 772.438187 -156.144177 
L 772.537813 -156.144177 
L 772.537813 -156.144177 
L 772.568443 -155.448954 
L 772.612708 -154.753731 
L 772.673933 -154.058508 
L 772.755146 -153.363285 
L 772.858701 -152.668062 
L 772.985953 -151.972839 
L 773.137042 -151.277615 
L 773.310804 -150.582392 
L 773.504828 -149.887169 
L 773.715646 -149.191946 
L 773.939099 -148.496723 
L 774.170873 -147.8015 
L 774.407165 -147.106276 
L 774.645368 -146.411053 
L 774.884545 -145.71583 
L 775.125555 -145.020607 
L 775.370845 -144.325384 
L 775.624204 -143.630161 
L 775.891038 -142.934937 
L 776.179702 -142.239714 
L 776.504101 -141.544491 
L 776.887129 -140.849268 
L 777.363824 -140.154045 
L 777.982726 -139.458822 
L 778.804094 -138.763598 
L 779.894493 -138.068375 
L 781.318513 -137.373152 
L 783.12954 -136.677929 
L 785.362046 -135.982706 
L 788.027432 -135.287483 
L 791.114207 -134.592259 
L 794.591648 -133.897036 
L 798.414864 -133.201813 
L 802.52877 -132.50659 
L 806.869069 -131.811367 
L 811.359494 -131.116144 
L 815.905773 -130.42092 
L 820.387801 -129.725697 
L 824.652284 -129.030474 
L 828.508953 -128.335251 
L 831.734128 -127.640028 
L 834.085425 -126.944805 
L 835.3296 -126.249581 
L 835.281606 -125.554358 
L 833.847543 -124.859135 
L 831.059651 -124.163912 
L 827.090529 -123.468689 
L 822.238113 -122.773466 
L 816.881776 -122.078242 
L 811.419867 -121.383019 
L 806.205717 -120.687796 
L 801.499404 -119.992573 
L 797.446288 -119.29735 
L 794.083507 -118.602127 
L 791.366648 -117.906903 
L 789.204375 -117.21168 
L 787.489793 -116.516457 
L 786.122141 -115.821234 
L 785.017921 -115.126011 
L 784.114232 -114.430788 
L 783.367871 -113.735564 
L 782.752591 -113.040341 
L 782.255219 -112.345118 
L 781.87063 -111.649895 
L 781.595886 -110.954672 
L 781.424796 -110.259449 
L 781.344596 -109.564225 
L 781.335971 -108.869002 
L 781.376337 -108.173779 
L 781.444848 -107.478556 
L 781.526795 -106.783333 
L 781.615274 -106.08811 
L 781.709178 -105.392886 
L 781.808213 -104.697663 
L 781.90697 -104.00244 
L 781.990678 -103.307217 
L 782.034793 -102.611994 
L 782.009147 -101.916771 
L 781.885588 -101.221548 
L 781.646436 -100.526324 
L 781.290493 -99.831101 
L 780.834052 -99.135878 
L 780.306228 -98.440655 
L 779.740213 -97.745432 
L 779.163793 -97.050209 
L 778.592735 -96.354985 
L 778.029415 -95.659762 
L 777.466805 -94.964539 
L 776.895721 -94.269316 
L 776.312142 -93.574093 
L 775.721669 -92.87887 
L 775.139731 -92.183646 
L 774.587978 -91.488423 
L 774.088678 -90.7932 
L 773.659353 -90.097977 
L 773.309364 -89.402754 
L 773.039102 -88.707531 
L 772.841445 -88.012307 
L 772.704504 -87.317084 
z
" style="stroke: #595959; stroke-width: 1.25"/>
    </defs>
    <g clip-path="url(#pddec1ddef7)">
     <use xlink:href="#m8086b5403a" x="0" y="432" style="fill: #a2c865; stroke: #595959; stroke-width: 1.25"/>
    </g>
   </g>
   <g id="line2d_9">
    <path d="M 144.072 311.90815 
L 144.072 326.560776 
" clip-path="url(#pddec1ddef7)" style="fill: none; stroke: #000000"/>
   </g>
   <g id="line2d_10">
    <path d="M 144.072 302.075466 
L 144.072 289.158019 
" clip-path="url(#pddec1ddef7)" style="fill: none; stroke: #000000"/>
   </g>
   <g id="line2d_11">
    <path d="M 138.1806 326.560776 
L 149.9634 326.560776 
" clip-path="url(#pddec1ddef7)" style="fill: none; stroke: #000000; stroke-linecap: round"/>
   </g>
   <g id="line2d_12">
    <path d="M 138.1806 289.158019 
L 149.9634 289.158019 
" clip-path="url(#pddec1ddef7)" style="fill: none; stroke: #000000; stroke-linecap: round"/>
   </g>
   <g id="line2d_13">
    <path d="M 301.176 321.379337 
L 301.176 339.092627 
" clip-path="url(#pddec1ddef7)" style="fill: none; stroke: #000000"/>
   </g>
   <g id="line2d_14">
    <path d="M 301.176 306.100119 
L 301.176 289.061621 
" clip-path="url(#pddec1ddef7)" style="fill: none; stroke: #000000"/>
   </g>
   <g id="line2d_15">
    <path d="M 295.2846 339.092627 
L 307.0674 339.092627 
" clip-path="url(#pddec1ddef7)" style="fill: none; stroke: #000000; stroke-linecap: round"/>
   </g>
   <g id="line2d_16">
    <path d="M 295.2846 289.061621 
L 307.0674 289.061621 
" clip-path="url(#pddec1ddef7)" style="fill: none; stroke: #000000; stroke-linecap: round"/>
   </g>
   <g id="line2d_17">
    <path d="M 458.28 150.729261 
L 458.28 183.794069 
" clip-path="url(#pddec1ddef7)" style="fill: none; stroke: #000000"/>
   </g>
   <g id="line2d_18">
    <path d="M 458.28 127.762233 
L 458.28 94.528727 
" clip-path="url(#pddec1ddef7)" style="fill: none; stroke: #000000"/>
   </g>
   <g id="line2d_19">
    <path d="M 452.3886 183.794069 
L 464.1714 183.794069 
" clip-path="url(#pddec1ddef7)" style="fill: none; stroke: #000000; stroke-linecap: round"/>
   </g>
   <g id="line2d_20">
    <path d="M 452.3886 94.528727 
L 464.1714 94.528727 
" clip-path="url(#pddec1ddef7)" style="fill: none; stroke: #000000; stroke-linecap: round"/>
   </g>
   <g id="line2d_21">
    <path d="M 615.384 302.943056 
L 615.384 316.438896 
" clip-path="url(#pddec1ddef7)" style="fill: none; stroke: #000000"/>
   </g>
   <g id="line2d_22">
    <path d="M 615.384 293.881563 
L 615.384 280.385723 
" clip-path="url(#pddec1ddef7)" style="fill: none; stroke: #000000"/>
   </g>
   <g id="line2d_23">
    <path d="M 609.4926 316.438896 
L 621.2754 316.438896 
" clip-path="url(#pddec1ddef7)" style="fill: none; stroke: #000000; stroke-linecap: round"/>
   </g>
   <g id="line2d_24">
    <path d="M 609.4926 280.385723 
L 621.2754 280.385723 
" clip-path="url(#pddec1ddef7)" style="fill: none; stroke: #000000; stroke-linecap: round"/>
   </g>
   <g id="line2d_25">
    <path d="M 772.488 312.607041 
L 772.488 326.464377 
" clip-path="url(#pddec1ddef7)" style="fill: none; stroke: #000000"/>
   </g>
   <g id="line2d_26">
    <path d="M 772.488 303.328651 
L 772.488 289.736413 
" clip-path="url(#pddec1ddef7)" style="fill: none; stroke: #000000"/>
   </g>
   <g id="line2d_27">
    <path d="M 766.5966 326.464377 
L 778.3794 326.464377 
" clip-path="url(#pddec1ddef7)" style="fill: none; stroke: #000000; stroke-linecap: round"/>
   </g>
   <g id="line2d_28">
    <path d="M 766.5966 289.736413 
L 778.3794 289.736413 
" clip-path="url(#pddec1ddef7)" style="fill: none; stroke: #000000; stroke-linecap: round"/>
   </g>
   <g id="line2d_29">
    <path d="M 132.2892 305.353027 
L 155.8548 305.353027 
" clip-path="url(#pddec1ddef7)" style="fill: none; stroke: #ff0000; stroke-width: 2"/>
   </g>
   <g id="line2d_30">
    <path d="M 289.3932 309.257181 
L 312.9588 309.257181 
" clip-path="url(#pddec1ddef7)" style="fill: none; stroke: #ff0000; stroke-width: 2"/>
   </g>
   <g id="line2d_31">
    <path d="M 446.4972 142.583557 
L 470.0628 142.583557 
" clip-path="url(#pddec1ddef7)" style="fill: none; stroke: #ff0000; stroke-width: 2"/>
   </g>
   <g id="line2d_32">
    <path d="M 603.6012 297.54472 
L 627.1668 297.54472 
" clip-path="url(#pddec1ddef7)" style="fill: none; stroke: #ff0000; stroke-width: 2"/>
   </g>
   <g id="line2d_33">
    <path d="M 760.7052 307.184606 
L 784.2708 307.184606 
" clip-path="url(#pddec1ddef7)" style="fill: none; stroke: #ff0000; stroke-width: 2"/>
   </g>
   <g id="patch_3">
    <path d="M 65.52 358.276 
L 65.52 20.88 
" style="fill: none; stroke: #cccccc; stroke-width: 1.25; stroke-linejoin: miter; stroke-linecap: square"/>
   </g>
   <g id="patch_4">
    <path d="M 851.04 358.276 
L 851.04 20.88 
" style="fill: none; stroke: #cccccc; stroke-width: 1.25; stroke-linejoin: miter; stroke-linecap: square"/>
   </g>
   <g id="patch_5">
    <path d="M 65.52 358.276 
L 851.04 358.276 
" style="fill: none; stroke: #cccccc; stroke-width: 1.25; stroke-linejoin: miter; stroke-linecap: square"/>
   </g>
   <g id="patch_6">
    <path d="M 65.52 20.88 
L 851.04 20.88 
" style="fill: none; stroke: #cccccc; stroke-width: 1.25; stroke-linejoin: miter; stroke-linecap: square"/>
   </g>
   <g id="text_15">
    <g id="patch_7">
     <path d="M 624.386812 64.170425 
L 820.764 64.170425 
L 820.764 28.7498 
L 624.386812 28.7498 
z
" style="fill: #ffffff; opacity: 0.8; stroke: #808080; stroke-linejoin: miter"/>
    </g>
    <!-- Signature: ed25519 -->
    <g style="fill: #262626" transform="translate(633.386812 51.426988) scale(0.18 -0.18)">
     <defs>
      <path id="DejaVuSans-53" d="M 3425 4513 
L 3425 3897 
Q 3066 4069 2747 4153 
Q 2428 4238 2131 4238 
Q 1616 4238 1336 4038 
Q 1056 3838 1056 3469 
Q 1056 3159 1242 3001 
Q 1428 2844 1947 2747 
L 2328 2669 
Q 3034 2534 3370 2195 
Q 3706 1856 3706 1288 
Q 3706 609 3251 259 
Q 2797 -91 1919 -91 
Q 1588 -91 1214 -16 
Q 841 59 441 206 
L 441 856 
Q 825 641 1194 531 
Q 1563 422 1919 422 
Q 2459 422 2753 634 
Q 3047 847 3047 1241 
Q 3047 1584 2836 1778 
Q 2625 1972 2144 2069 
L 1759 2144 
Q 1053 2284 737 2584 
Q 422 2884 422 3419 
Q 422 4038 858 4394 
Q 1294 4750 2059 4750 
Q 2388 4750 2728 4690 
Q 3069 4631 3425 4513 
z
" transform="scale(0.015625)"/>
      <path id="DejaVuSans-67" d="M 2906 1791 
Q 2906 2416 2648 2759 
Q 2391 3103 1925 3103 
Q 1463 3103 1205 2759 
Q 947 2416 947 1791 
Q 947 1169 1205 825 
Q 1463 481 1925 481 
Q 2391 481 2648 825 
Q 2906 1169 2906 1791 
z
M 3481 434 
Q 3481 -459 3084 -895 
Q 2688 -1331 1869 -1331 
Q 1566 -1331 1297 -1286 
Q 1028 -1241 775 -1147 
L 775 -588 
Q 1028 -725 1275 -790 
Q 1522 -856 1778 -856 
Q 2344 -856 2625 -561 
Q 2906 -266 2906 331 
L 2906 616 
Q 2728 306 2450 153 
Q 2172 0 1784 0 
Q 1141 0 747 490 
Q 353 981 353 1791 
Q 353 2603 747 3093 
Q 1141 3584 1784 3584 
Q 2172 3584 2450 3431 
Q 2728 3278 2906 2969 
L 2906 3500 
L 3481 3500 
L 3481 434 
z
" transform="scale(0.015625)"/>
      <path id="DejaVuSans-3a" d="M 750 794 
L 1409 794 
L 1409 0 
L 750 0 
L 750 794 
z
M 750 3309 
L 1409 3309 
L 1409 2516 
L 750 2516 
L 750 3309 
z
" transform="scale(0.015625)"/>
     </defs>
     <use xlink:href="#DejaVuSans-53"/>
     <use xlink:href="#DejaVuSans-69" x="63.476562"/>
     <use xlink:href="#DejaVuSans-67" x="91.259766"/>
     <use xlink:href="#DejaVuSans-6e" x="154.736328"/>
     <use xlink:href="#DejaVuSans-61" x="218.115234"/>
     <use xlink:href="#DejaVuSans-74" x="279.394531"/>
     <use xlink:href="#DejaVuSans-75" x="318.603516"/>
     <use xlink:href="#DejaVuSans-72" x="381.982422"/>
     <use xlink:href="#DejaVuSans-65" x="420.845703"/>
     <use xlink:href="#DejaVuSans-3a" x="482.369141"/>
     <use xlink:href="#DejaVuSans-20" x="516.060547"/>
     <use xlink:href="#DejaVuSans-65" x="547.847656"/>
     <use xlink:href="#DejaVuSans-64" x="609.371094"/>
     <use xlink:href="#DejaVuSans-32" x="672.847656"/>
     <use xlink:href="#DejaVuSans-35" x="736.470703"/>
     <use xlink:href="#DejaVuSans-35" x="800.09375"/>
     <use xlink:href="#DejaVuSans-31" x="863.716797"/>
     <use xlink:href="#DejaVuSans-39" x="927.339844"/>
    </g>
   </g>
  </g>
 </g>
 <defs>
  <clipPath id="pddec1ddef7">
   <rect x="65.52" y="20.88" width="785.52" height="337.396"/>
  </clipPath>
 </defs>
</svg>
