<?xml version="1.0" encoding="utf-8" standalone="no"?>
<!DOCTYPE svg PUBLIC "-//W3C//DTD SVG 1.1//EN"
  "http://www.w3.org/Graphics/SVG/1.1/DTD/svg11.dtd">
<svg xmlns:xlink="http://www.w3.org/1999/xlink" width="864pt" height="432pt" viewBox="0 0 864 432" xmlns="http://www.w3.org/2000/svg" version="1.1">
 <metadata>
  <rdf:RDF xmlns:dc="http://purl.org/dc/elements/1.1/" xmlns:cc="http://creativecommons.org/ns#" xmlns:rdf="http://www.w3.org/1999/02/22-rdf-syntax-ns#">
   <cc:Work>
    <dc:type rdf:resource="http://purl.org/dc/dcmitype/StillImage"/>
    <dc:date>2026-03-07T11:43:50.141692</dc:date>
    <dc:format>image/svg+xml</dc:format>
    <dc:creator>
     <cc:Agent>
      <dc:title>Matplotlib v3.6.3, https://matplotlib.org/</dc:title>
     </cc:Agent>
    </dc:creator>
   </cc:Work>
  </rdf:RDF>
 </metadata>
 <defs>
  <style type="text/css">*{stroke-linejoin: round; stroke-linecap: butt}</style>
 </defs>
 <g id="figure_1">
  <g id="patch_1">
   <path d="M 0 432 
L 864 432 
L 864 0 
L 0 0 
z
" style="fill: #ffffff"/>
  </g>
  <g id="axes_1">
   <g id="patch_2">
    <path d="M 65.52 358.276 
L 851.04 358.276 
L 851.04 20.88 
L 65.52 20.88 
z
" style="fill: #ffffff"/>
   </g>
   <g id="matplotlib.axis_1">
    <g id="xtick_1">
     <g id="text_1">
      <!-- P-256 -->
      <g style="fill: #262626" transform="translate(109.872 386.01225) scale(0.24 -0.24)">
       <defs>
        <path id="DejaVuSans-50" d="M 1259 4147 
L 1259 2394 
L 2053 2394 
Q 2494 2394 2734 2622 
Q 2975 2850 2975 3272 
Q 2975 3691 2734 3919 
Q 2494 4147 2053 4147 
L 1259 4147 
z
M 628 4666 
L 2053 4666 
Q 2838 4666 3239 4311 
Q 3641 3956 3641 3272 
Q 3641 2581 3239 2228 
Q 2838 1875 2053 1875 
L 1259 1875 
L 1259 0 
L 628 0 
L 628 4666 
z
" transform="scale(0.015625)"/>
        <path id="DejaVuSans-2d" d="M 313 2009 
L 1997 2009 
L 1997 1497 
L 313 1497 
L 313 2009 
z
" transform="scale(0.015625)"/>
        <path id="DejaVuSans-32" d="M 1228 531 
L 3431 531 
L 3431 0 
L 469 0 
L 469 531 
Q 828 903 1448 1529 
Q 2069 2156 2228 2338 
Q 2531 2678 2651 2914 
Q 2772 3150 2772 3378 
Q 2772 3750 2511 3984 
Q 2250 4219 1831 4219 
Q 1534 4219 1204 4116 
Q 875 4013 500 3803 
L 500 4441 
Q 881 4594 1212 4672 
Q 1544 4750 1819 4750 
Q 2544 4750 2975 4387 
Q 3406 4025 3406 3419 
Q 3406 3131 3298 2873 
Q 3191 2616 2906 2266 
Q 2828 2175 2409 1742 
Q 1991 1309 1228 531 
z
" transform="scale(0.015625)"/>
        <path id="DejaVuSans-35" d="M 691 4666 
L 3169 4666 
L 3169 4134 
L 1269 4134 
L 1269 2991 
Q 1406 3038 1543 3061 
Q 1681 3084 1819 3084 
Q 2600 3084 3056 2656 
Q 3513 2228 3513 1497 
Q 3513 744 3044 326 
Q 2575 -91 1722 -91 
Q 1428 -91 1123 -41 
Q 819 9 494 109 
L 494 744 
Q 775 591 1075 516 
Q 1375 441 1709 441 
Q 2250 441 2565 725 
Q 2881 1009 2881 1497 
Q 2881 1984 2565 2268 
Q 2250 2553 1709 2553 
Q 1456 2553 1204 2497 
Q 953 2441 691 2322 
L 691 4666 
z
" transform="scale(0.015625)"/>
        <path id="DejaVuSans-36" d="M 2113 2584 
Q 1688 2584 1439 2293 
Q 1191 2003 1191 1497 
Q 1191 994 1439 701 
Q 1688 409 2113 409 
Q 2538 409 2786 701 
Q 3034 994 3034 1497 
Q 3034 2003 2786 2293 
Q 2538 2584 2113 2584 
z
M 3366 4563 
L 3366 3988 
Q 3128 4100 2886 4159 
Q 2644 4219 2406 4219 
Q 1781 4219 1451 3797 
Q 1122 3375 1075 2522 
Q 1259 2794 1537 2939 
Q 1816 3084 2150 3084 
Q 2853 3084 3261 2657 
Q 3669 2231 3669 1497 
Q 3669 778 3244 343 
Q 2819 -91 2113 -91 
Q 1303 -91 875 529 
Q 447 1150 447 2328 
Q 447 3434 972 4092 
Q 1497 4750 2381 4750 
Q 2619 4750 2861 4703 
Q 3103 4656 3366 4563 
z
" transform="scale(0.015625)"/>
       </defs>
       <use xlink:href="#DejaVuSans-50"/>
       <use xlink:href="#DejaVuSans-2d" x="58.052734"/>
       <use xlink:href="#DejaVuSans-32" x="94.136719"/>
       <use xlink:href="#DejaVuSans-35" x="157.759766"/>
       <use xlink:href="#DejaVuSans-36" x="221.382812"/>
      </g>
     </g>
    </g>
    <g id="xtick_2">
     <g id="text_2">
      <!-- x25519 -->
      <g style="fill: #262626" transform="translate(255.8985 386.01225) scale(0.24 -0.24)">
       <defs>
        <path id="DejaVuSans-78" d="M 3513 3500 
L 2247 1797 
L 3578 0 
L 2900 0 
L 1881 1375 
L 863 0 
L 184 0 
L 1544 1831 
L 300 3500 
L 978 3500 
L 1906 2253 
L 2834 3500 
L 3513 3500 
z
" transform="scale(0.015625)"/>
        <path id="DejaVuSans-31" d="M 794 531 
L 1825 531 
L 1825 4091 
L 703 3866 
L 703 4441 
L 1819 4666 
L 2450 4666 
L 2450 531 
L 3481 531 
L 3481 0 
L 794 0 
L 794 531 
z
" transform="scale(0.015625)"/>
        <path id="DejaVuSans-39" d="M 703 97 
L 703 672 
Q 941 559 1184 500 
Q 1428 441 1663 441 
Q 2288 441 2617 861 
Q 2947 1281 2994 2138 
Q 2813 1869 2534 1725 
Q 2256 1581 1919 1581 
Q 1219 1581 811 2004 
Q 403 2428 403 3163 
Q 403 3881 828 4315 
Q 1253 4750 1959 4750 
Q 2769 4750 3195 4129 
Q 3622 3509 3622 2328 
Q 3622 1225 3098 567 
Q 2575 -91 1691 -91 
Q 1453 -91 1209 -44 
Q 966 3 703 97 
z
M 1959 2075 
Q 2384 2075 2632 2365 
Q 2881 2656 2881 3163 
Q 2881 3666 2632 3958 
Q 2384 4250 1959 4250 
Q 1534 4250 1286 3958 
Q 1038 3666 1038 3163 
Q 1038 2656 1286 2365 
Q 1534 2075 1959 2075 
z
" transform="scale(0.015625)"/>
       </defs>
       <use xlink:href="#DejaVuSans-78"/>
       <use xlink:href="#DejaVuSans-32" x="59.179688"/>
       <use xlink:href="#DejaVuSans-35" x="122.802734"/>
       <use xlink:href="#DejaVuSans-35" x="186.425781"/>
       <use xlink:href="#DejaVuSans-31" x="250.048828"/>
       <use xlink:href="#DejaVuSans-39" x="313.671875"/>
      </g>
     </g>
    </g>
    <g id="xtick_3">
     <g id="text_3">
      <!-- P-256 -->
      <g style="fill: #262626" transform="translate(424.08 386.01225) scale(0.24 -0.24)">
       <use xlink:href="#DejaVuSans-50"/>
       <use xlink:href="#DejaVuSans-2d" x="58.052734"/>
       <use xlink:href="#DejaVuSans-32" x="94.136719"/>
       <use xlink:href="#DejaVuSans-35" x="157.759766"/>
       <use xlink:href="#DejaVuSans-36" x="221.382812"/>
      </g>
      <!-- mlkem512 -->
      <g style="fill: #262626" transform="translate(394.76625 412.887) scale(0.24 -0.24)">
       <defs>
        <path id="DejaVuSans-6d" d="M 3328 2828 
Q 3544 3216 3844 3400 
Q 4144 3584 4550 3584 
Q 5097 3584 5394 3201 
Q 5691 2819 5691 2113 
L 5691 0 
L 5113 0 
L 5113 2094 
Q 5113 2597 4934 2840 
Q 4756 3084 4391 3084 
Q 3944 3084 3684 2787 
Q 3425 2491 3425 1978 
L 3425 0 
L 2847 0 
L 2847 2094 
Q 2847 2600 2669 2842 
Q 2491 3084 2119 3084 
Q 1678 3084 1418 2786 
Q 1159 2488 1159 1978 
L 1159 0 
L 581 0 
L 581 3500 
L 1159 3500 
L 1159 2956 
Q 1356 3278 1631 3431 
Q 1906 3584 2284 3584 
Q 2666 3584 2933 3390 
Q 3200 3197 3328 2828 
z
" transform="scale(0.015625)"/>
        <path id="DejaVuSans-6c" d="M 603 4863 
L 1178 4863 
L 1178 0 
L 603 0 
L 603 4863 
z
" transform="scale(0.015625)"/>
        <path id="DejaVuSans-6b" d="M 581 4863 
L 1159 4863 
L 1159 1991 
L 2875 3500 
L 3609 3500 
L 1753 1863 
L 3688 0 
L 2938 0 
L 1159 1709 
L 1159 0 
L 581 0 
L 581 4863 
z
" transform="scale(0.015625)"/>
        <path id="DejaVuSans-65" d="M 3597 1894 
L 3597 1613 
L 953 1613 
Q 991 1019 1311 708 
Q 1631 397 2203 397 
Q 2534 397 2845 478 
Q 3156 559 3463 722 
L 3463 178 
Q 3153 47 2828 -22 
Q 2503 -91 2169 -91 
Q 1331 -91 842 396 
Q 353 884 353 1716 
Q 353 2575 817 3079 
Q 1281 3584 2069 3584 
Q 2775 3584 3186 3129 
Q 3597 2675 3597 1894 
z
M 3022 2063 
Q 3016 2534 2758 2815 
Q 2500 3097 2075 3097 
Q 1594 3097 1305 2825 
Q 1016 2553 972 2059 
L 3022 2063 
z
" transform="scale(0.015625)"/>
       </defs>
       <use xlink:href="#DejaVuSans-6d"/>
       <use xlink:href="#DejaVuSans-6c" x="97.412109"/>
       <use xlink:href="#DejaVuSans-6b" x="125.195312"/>
       <use xlink:href="#DejaVuSans-65" x="179.480469"/>
       <use xlink:href="#DejaVuSans-6d" x="241.003906"/>
       <use xlink:href="#DejaVuSans-35" x="338.416016"/>
       <use xlink:href="#DejaVuSans-31" x="402.039062"/>
       <use xlink:href="#DejaVuSans-32" x="465.662109"/>
      </g>
     </g>
    </g>
    <g id="xtick_4">
     <g id="text_4">
      <!-- x25519 -->
      <g style="fill: #262626" transform="translate(570.1065 386.01225) scale(0.24 -0.24)">
       <use xlink:href="#DejaVuSans-78"/>
       <use xlink:href="#DejaVuSans-32" x="59.179688"/>
       <use xlink:href="#DejaVuSans-35" x="122.802734"/>
       <use xlink:href="#DejaVuSans-35" x="186.425781"/>
       <use xlink:href="#DejaVuSans-31" x="250.048828"/>
       <use xlink:href="#DejaVuSans-39" x="313.671875"/>
      </g>
      <!-- mlkem512 -->
      <g style="fill: #262626" transform="translate(551.87025 412.887) scale(0.24 -0.24)">
       <use xlink:href="#DejaVuSans-6d"/>
       <use xlink:href="#DejaVuSans-6c" x="97.412109"/>
       <use xlink:href="#DejaVuSans-6b" x="125.195312"/>
       <use xlink:href="#DejaVuSans-65" x="179.480469"/>
       <use xlink:href="#DejaVuSans-6d" x="241.003906"/>
       <use xlink:href="#DejaVuSans-35" x="338.416016"/>
       <use xlink:href="#DejaVuSans-31" x="402.039062"/>
       <use xlink:href="#DejaVuSans-32" x="465.662109"/>
      </g>
     </g>
    </g>
    <g id="xtick_5">
     <g id="text_5">
      <!-- mlkem512 -->
      <g style="fill: #262626" transform="translate(708.97425 386.01225) scale(0.24 -0.24)">
       <use xlink:href="#DejaVuSans-6d"/>
       <use xlink:href="#DejaVuSans-6c" x="97.412109"/>
       <use xlink:href="#DejaVuSans-6b" x="125.195312"/>
       <use xlink:href="#DejaVuSans-65" x="179.480469"/>
       <use xlink:href="#DejaVuSans-6d" x="241.003906"/>
       <use xlink:href="#DejaVuSans-35" x="338.416016"/>
       <use xlink:href="#DejaVuSans-31" x="402.039062"/>
       <use xlink:href="#DejaVuSans-32" x="465.662109"/>
      </g>
     </g>
    </g>
   </g>
   <g id="matplotlib.axis_2">
    <g id="ytick_1">
     <g id="line2d_1">
      <path d="M 65.52 358.276 
L 851.04 358.276 
" clip-path="url(#p09ae75b0c8)" style="fill: none; stroke: #cccccc; stroke-linecap: round"/>
     </g>
     <g id="text_6">
      <!-- 0 -->
      <g style="fill: #262626" transform="translate(43.295 365.874437) scale(0.2 -0.2)">
       <defs>
        <path id="DejaVuSans-30" d="M 2034 4250 
Q 1547 4250 1301 3770 
Q 1056 3291 1056 2328 
Q 1056 1369 1301 889 
Q 1547 409 2034 409 
Q 2525 409 2770 889 
Q 3016 1369 3016 2328 
Q 3016 3291 2770 3770 
Q 2525 4250 2034 4250 
z
M 2034 4750 
Q 2819 4750 3233 4129 
Q 3647 3509 3647 2328 
Q 3647 1150 3233 529 
Q 2819 -91 2034 -91 
Q 1250 -91 836 529 
Q 422 1150 422 2328 
Q 422 3509 836 4129 
Q 1250 4750 2034 4750 
z
" transform="scale(0.015625)"/>
       </defs>
       <use xlink:href="#DejaVuSans-30"/>
      </g>
     </g>
    </g>
    <g id="ytick_2">
     <g id="line2d_2">
      <path d="M 65.52 310.076571 
L 851.04 310.076571 
" clip-path="url(#p09ae75b0c8)" style="fill: none; stroke: #cccccc; stroke-linecap: round"/>
     </g>
     <g id="text_7">
      <!-- 5 -->
      <g style="fill: #262626" transform="translate(43.295 317.675009) scale(0.2 -0.2)">
       <use xlink:href="#DejaVuSans-35"/>
      </g>
     </g>
    </g>
    <g id="ytick_3">
     <g id="line2d_3">
      <path d="M 65.52 261.877143 
L 851.04 261.877143 
" clip-path="url(#p09ae75b0c8)" style="fill: none; stroke: #cccccc; stroke-linecap: round"/>
     </g>
     <g id="text_8">
      <!-- 10 -->
      <g style="fill: #262626" transform="translate(30.57 269.47558) scale(0.2 -0.2)">
       <use xlink:href="#DejaVuSans-31"/>
       <use xlink:href="#DejaVuSans-30" x="63.623047"/>
      </g>
     </g>
    </g>
    <g id="ytick_4">
     <g id="line2d_4">
      <path d="M 65.52 213.677714 
L 851.04 213.677714 
" clip-path="url(#p09ae75b0c8)" style="fill: none; stroke: #cccccc; stroke-linecap: round"/>
     </g>
     <g id="text_9">
      <!-- 15 -->
      <g style="fill: #262626" transform="translate(30.57 221.276152) scale(0.2 -0.2)">
       <use xlink:href="#DejaVuSans-31"/>
       <use xlink:href="#DejaVuSans-35" x="63.623047"/>
      </g>
     </g>
    </g>
    <g id="ytick_5">
     <g id="line2d_5">
      <path d="M 65.52 165.478286 
L 851.04 165.478286 
" clip-path="url(#p09ae75b0c8)" style="fill: none; stroke: #cccccc; stroke-linecap: round"/>
     </g>
     <g id="text_10">
      <!-- 20 -->
      <g style="fill: #262626" transform="translate(30.57 173.076723) scale(0.2 -0.2)">
       <use xlink:href="#DejaVuSans-32"/>
       <use xlink:href="#DejaVuSans-30" x="63.623047"/>
      </g>
     </g>
    </g>
    <g id="ytick_6">
     <g id="line2d_6">
      <path d="M 65.52 117.278857 
L 851.04 117.278857 
" clip-path="url(#p09ae75b0c8)" style="fill: none; stroke: #cccccc; stroke-linecap: round"/>
     </g>
     <g id="text_11">
      <!-- 25 -->
      <g style="fill: #262626" transform="translate(30.57 124.877295) scale(0.2 -0.2)">
       <use xlink:href="#DejaVuSans-32"/>
       <use xlink:href="#DejaVuSans-35" x="63.623047"/>
      </g>
     </g>
    </g>
    <g id="ytick_7">
     <g id="line2d_7">
      <path d="M 65.52 69.079429 
L 851.04 69.079429 
" clip-path="url(#p09ae75b0c8)" style="fill: none; stroke: #cccccc; stroke-linecap: round"/>
     </g>
     <g id="text_12">
      <!-- 30 -->
      <g style="fill: #262626" transform="translate(30.57 76.677866) scale(0.2 -0.2)">
       <defs>
        <path id="DejaVuSans-33" d="M 2597 2516 
Q 3050 2419 3304 2112 
Q 3559 1806 3559 1356 
Q 3559 666 3084 287 
Q 2609 -91 1734 -91 
Q 1441 -91 1130 -33 
Q 819 25 488 141 
L 488 750 
Q 750 597 1062 519 
Q 1375 441 1716 441 
Q 2309 441 2620 675 
Q 2931 909 2931 1356 
Q 2931 1769 2642 2001 
Q 2353 2234 1838 2234 
L 1294 2234 
L 1294 2753 
L 1863 2753 
Q 2328 2753 2575 2939 
Q 2822 3125 2822 3475 
Q 2822 3834 2567 4026 
Q 2313 4219 1838 4219 
Q 1578 4219 1281 4162 
Q 984 4106 628 3988 
L 628 4550 
Q 988 4650 1302 4700 
Q 1616 4750 1894 4750 
Q 2613 4750 3031 4423 
Q 3450 4097 3450 3541 
Q 3450 3153 3228 2886 
Q 3006 2619 2597 2516 
z
" transform="scale(0.015625)"/>
       </defs>
       <use xlink:href="#DejaVuSans-33"/>
       <use xlink:href="#DejaVuSans-30" x="63.623047"/>
      </g>
     </g>
    </g>
    <g id="ytick_8">
     <g id="line2d_8">
      <path d="M 65.52 20.88 
L 851.04 20.88 
" clip-path="url(#p09ae75b0c8)" style="fill: none; stroke: #cccccc; stroke-linecap: round"/>
     </g>
     <g id="text_13">
      <!-- 35 -->
      <g style="fill: #262626" transform="translate(30.57 28.478438) scale(0.2 -0.2)">
       <use xlink:href="#DejaVuSans-33"/>
       <use xlink:href="#DejaVuSans-35" x="63.623047"/>
      </g>
     </g>
    </g>
    <g id="text_14">
     <!-- Handshake duration (ms) -->
     <g style="fill: #262626" transform="translate(23.658438 278.323781) rotate(-90) scale(0.14 -0.14)">
      <defs>
       <path id="DejaVuSans-48" d="M 628 4666 
L 1259 4666 
L 1259 2753 
L 3553 2753 
L 3553 4666 
L 4184 4666 
L 4184 0 
L 3553 0 
L 3553 2222 
L 1259 2222 
L 1259 0 
L 628 0 
L 628 4666 
z
" transform="scale(0.015625)"/>
       <path id="DejaVuSans-61" d="M 2194 1759 
Q 1497 1759 1228 1600 
Q 959 1441 959 1056 
Q 959 750 1161 570 
Q 1363 391 1709 391 
Q 2188 391 2477 730 
Q 2766 1069 2766 1631 
L 2766 1759 
L 2194 1759 
z
M 3341 1997 
L 3341 0 
L 2766 0 
L 2766 531 
Q 2569 213 2275 61 
Q 1981 -91 1556 -91 
Q 1019 -91 701 211 
Q 384 513 384 1019 
Q 384 1609 779 1909 
Q 1175 2209 1959 2209 
L 2766 2209 
L 2766 2266 
Q 2766 2663 2505 2880 
Q 2244 3097 1772 3097 
Q 1472 3097 1187 3025 
Q 903 2953 641 2809 
L 641 3341 
Q 956 3463 1253 3523 
Q 1550 3584 1831 3584 
Q 2591 3584 2966 3190 
Q 3341 2797 3341 1997 
z
" transform="scale(0.015625)"/>
       <path id="DejaVuSans-6e" d="M 3513 2113 
L 3513 0 
L 2938 0 
L 2938 2094 
Q 2938 2591 2744 2837 
Q 2550 3084 2163 3084 
Q 1697 3084 1428 2787 
Q 1159 2491 1159 1978 
L 1159 0 
L 581 0 
L 581 3500 
L 1159 3500 
L 1159 2956 
Q 1366 3272 1645 3428 
Q 1925 3584 2291 3584 
Q 2894 3584 3203 3211 
Q 3513 2838 3513 2113 
z
" transform="scale(0.015625)"/>
       <path id="DejaVuSans-64" d="M 2906 2969 
L 2906 4863 
L 3481 4863 
L 3481 0 
L 2906 0 
L 2906 525 
Q 2725 213 2448 61 
Q 2172 -91 1784 -91 
Q 1150 -91 751 415 
Q 353 922 353 1747 
Q 353 2572 751 3078 
Q 1150 3584 1784 3584 
Q 2172 3584 2448 3432 
Q 2725 3281 2906 2969 
z
M 947 1747 
Q 947 1113 1208 752 
Q 1469 391 1925 391 
Q 2381 391 2643 752 
Q 2906 1113 2906 1747 
Q 2906 2381 2643 2742 
Q 2381 3103 1925 3103 
Q 1469 3103 1208 2742 
Q 947 2381 947 1747 
z
" transform="scale(0.015625)"/>
       <path id="DejaVuSans-73" d="M 2834 3397 
L 2834 2853 
Q 2591 2978 2328 3040 
Q 2066 3103 1784 3103 
Q 1356 3103 1142 2972 
Q 928 2841 928 2578 
Q 928 2378 1081 2264 
Q 1234 2150 1697 2047 
L 1894 2003 
Q 2506 1872 2764 1633 
Q 3022 1394 3022 966 
Q 3022 478 2636 193 
Q 2250 -91 1575 -91 
Q 1294 -91 989 -36 
Q 684 19 347 128 
L 347 722 
Q 666 556 975 473 
Q 1284 391 1588 391 
Q 1994 391 2212 530 
Q 2431 669 2431 922 
Q 2431 1156 2273 1281 
Q 2116 1406 1581 1522 
L 1381 1569 
Q 847 1681 609 1914 
Q 372 2147 372 2553 
Q 372 3047 722 3315 
Q 1072 3584 1716 3584 
Q 2034 3584 2315 3537 
Q 2597 3491 2834 3397 
z
" transform="scale(0.015625)"/>
       <path id="DejaVuSans-68" d="M 3513 2113 
L 3513 0 
L 2938 0 
L 2938 2094 
Q 2938 2591 2744 2837 
Q 2550 3084 2163 3084 
Q 1697 3084 1428 2787 
Q 1159 2491 1159 1978 
L 1159 0 
L 581 0 
L 581 4863 
L 1159 4863 
L 1159 2956 
Q 1366 3272 1645 3428 
Q 1925 3584 2291 3584 
Q 2894 3584 3203 3211 
Q 3513 2838 3513 2113 
z
" transform="scale(0.015625)"/>
       <path id="DejaVuSans-20" transform="scale(0.015625)"/>
       <path id="DejaVuSans-75" d="M 544 1381 
L 544 3500 
L 1119 3500 
L 1119 1403 
Q 1119 906 1312 657 
Q 1506 409 1894 409 
Q 2359 409 2629 706 
Q 2900 1003 2900 1516 
L 2900 3500 
L 3475 3500 
L 3475 0 
L 2900 0 
L 2900 538 
Q 2691 219 2414 64 
Q 2138 -91 1772 -91 
Q 1169 -91 856 284 
Q 544 659 544 1381 
z
M 1991 3584 
L 1991 3584 
z
" transform="scale(0.015625)"/>
       <path id="DejaVuSans-72" d="M 2631 2963 
Q 2534 3019 2420 3045 
Q 2306 3072 2169 3072 
Q 1681 3072 1420 2755 
Q 1159 2438 1159 1844 
L 1159 0 
L 581 0 
L 581 3500 
L 1159 3500 
L 1159 2956 
Q 1341 3275 1631 3429 
Q 1922 3584 2338 3584 
Q 2397 3584 2469 3576 
Q 2541 3569 2628 3553 
L 2631 2963 
z
" transform="scale(0.015625)"/>
       <path id="DejaVuSans-74" d="M 1172 4494 
L 1172 3500 
L 2356 3500 
L 2356 3053 
L 1172 3053 
L 1172 1153 
Q 1172 725 1289 603 
Q 1406 481 1766 481 
L 2356 481 
L 2356 0 
L 1766 0 
Q 1100 0 847 248 
Q 594 497 594 1153 
L 594 3053 
L 172 3053 
L 172 3500 
L 594 3500 
L 594 4494 
L 1172 4494 
z
" transform="scale(0.015625)"/>
       <path id="DejaVuSans-69" d="M 603 3500 
L 1178 3500 
L 1178 0 
L 603 0 
L 603 3500 
z
M 603 4863 
L 1178 4863 
L 1178 4134 
L 603 4134 
L 603 4863 
z
" transform="scale(0.015625)"/>
       <path id="DejaVuSans-6f" d="M 1959 3097 
Q 1497 3097 1228 2736 
Q 959 2375 959 1747 
Q 959 1119 1226 758 
Q 1494 397 1959 397 
Q 2419 397 2687 759 
Q 2956 1122 2956 1747 
Q 2956 2369 2687 2733 
Q 2419 3097 1959 3097 
z
M 1959 3584 
Q 2709 3584 3137 3096 
Q 3566 2609 3566 1747 
Q 3566 888 3137 398 
Q 2709 -91 1959 -91 
Q 1206 -91 779 398 
Q 353 888 353 1747 
Q 353 2609 779 3096 
Q 1206 3584 1959 3584 
z
" transform="scale(0.015625)"/>
       <path id="DejaVuSans-28" d="M 1984 4856 
Q 1566 4138 1362 3434 
Q 1159 2731 1159 2009 
Q 1159 1288 1364 580 
Q 1569 -128 1984 -844 
L 1484 -844 
Q 1016 -109 783 600 
Q 550 1309 550 2009 
Q 550 2706 781 3412 
Q 1013 4119 1484 4856 
L 1984 4856 
z
" transform="scale(0.015625)"/>
       <path id="DejaVuSans-29" d="M 513 4856 
L 1013 4856 
Q 1481 4119 1714 3412 
Q 1947 2706 1947 2009 
Q 1947 1309 1714 600 
Q 1481 -109 1013 -844 
L 513 -844 
Q 928 -128 1133 580 
Q 1338 1288 1338 2009 
Q 1338 2731 1133 3434 
Q 928 4138 513 4856 
z
" transform="scale(0.015625)"/>
      </defs>
      <use xlink:href="#DejaVuSans-48"/>
      <use xlink:href="#DejaVuSans-61" x="75.195312"/>
      <use xlink:href="#DejaVuSans-6e" x="136.474609"/>
      <use xlink:href="#DejaVuSans-64" x="199.853516"/>
      <use xlink:href="#DejaVuSans-73" x="263.330078"/>
      <use xlink:href="#DejaVuSans-68" x="315.429688"/>
      <use xlink:href="#DejaVuSans-61" x="378.808594"/>
      <use xlink:href="#DejaVuSans-6b" x="440.087891"/>
      <use xlink:href="#DejaVuSans-65" x="494.373047"/>
      <use xlink:href="#DejaVuSans-20" x="555.896484"/>
      <use xlink:href="#DejaVuSans-64" x="587.683594"/>
      <use xlink:href="#DejaVuSans-75" x="651.160156"/>
      <use xlink:href="#DejaVuSans-72" x="714.539062"/>
      <use xlink:href="#DejaVuSans-61" x="755.652344"/>
      <use xlink:href="#DejaVuSans-74" x="816.931641"/>
      <use xlink:href="#DejaVuSans-69" x="856.140625"/>
      <use xlink:href="#DejaVuSans-6f" x="883.923828"/>
      <use xlink:href="#DejaVuSans-6e" x="945.105469"/>
      <use xlink:href="#DejaVuSans-20" x="1008.484375"/>
      <use xlink:href="#DejaVuSans-28" x="1040.271484"/>
      <use xlink:href="#DejaVuSans-6d" x="1079.285156"/>
      <use xlink:href="#DejaVuSans-73" x="1176.697266"/>
      <use xlink:href="#DejaVuSans-29" x="1228.796875"/>
     </g>
    </g>
   </g>
   <g id="PolyCollection_1">
    <defs>
     <path id="mf96446d21c" d="M 146.538073 -91.694529 
L 141.605927 -91.694529 
L 133.374143 -94.178662 
L 114.543553 -96.662796 
L 91.42088 -99.146929 
L 81.2304 -101.631062 
L 89.546823 -104.115196 
L 103.918128 -106.599329 
L 114.457979 -109.083462 
L 121.028251 -111.567596 
L 125.736356 -114.051729 
L 130.162688 -116.535862 
L 134.880201 -119.019996 
L 138.886481 -121.504129 
L 141.225971 -123.988262 
L 142.214066 -126.472396 
L 142.714645 -128.956529 
L 143.216413 -131.440662 
L 143.682042 -133.924796 
L 143.953581 -136.408929 
L 144.048921 -138.893062 
L 144.069165 -141.377196 
L 144.071783 -143.861329 
L 144.07199 -146.345462 
L 144.072 -148.829596 
L 144.072 -151.313729 
L 144.072 -153.797862 
L 144.072 -156.281996 
L 144.072 -158.766129 
L 144.072 -161.250262 
L 144.072 -163.734396 
L 144.072 -166.218529 
L 144.072 -168.702662 
L 144.072 -171.186796 
L 144.072 -173.670929 
L 144.072 -176.155062 
L 144.072 -178.639196 
L 144.072 -181.123329 
L 144.072 -183.607462 
L 144.072 -186.091596 
L 144.072 -188.575729 
L 144.072 -191.059862 
L 144.072 -193.543996 
L 144.072 -196.028129 
L 144.072 -198.512262 
L 144.072 -200.996396 
L 144.072 -203.480529 
L 144.072 -205.964662 
L 144.072 -208.448796 
L 144.072 -210.932929 
L 144.072 -213.417062 
L 144.072 -215.901196 
L 144.072 -218.385329 
L 144.072 -220.869462 
L 144.072 -223.353596 
L 144.072 -225.837729 
L 144.072 -228.321863 
L 144.072 -230.805996 
L 144.072 -233.290129 
L 144.072 -235.774263 
L 144.072 -238.258396 
L 144.072 -240.742529 
L 144.072 -243.226663 
L 144.072 -245.710796 
L 144.072 -248.194929 
L 144.072 -250.679063 
L 144.072 -253.163196 
L 144.072 -255.647329 
L 144.072 -258.131463 
L 144.072 -260.615596 
L 144.072 -263.099729 
L 144.072 -265.583863 
L 144.072 -268.067996 
L 144.072 -270.552129 
L 144.072 -273.036263 
L 144.072 -275.520396 
L 144.072 -278.004529 
L 144.072 -280.488663 
L 144.072 -282.972796 
L 144.072 -285.456929 
L 144.072 -287.941063 
L 144.072 -290.425196 
L 144.072 -292.909329 
L 144.072 -295.393463 
L 144.072 -297.877596 
L 144.072 -300.361729 
L 144.072 -302.845863 
L 144.072 -305.329996 
L 144.072 -307.814129 
L 144.072 -310.298263 
L 144.071999 -312.782396 
L 144.071981 -315.266529 
L 144.071695 -317.750663 
L 144.069018 -320.234796 
L 144.054176 -322.718929 
L 144.006765 -325.203063 
L 143.925818 -327.687196 
L 143.871444 -330.171329 
L 143.903533 -332.655463 
L 143.985358 -335.139596 
L 144.044718 -337.623729 
L 144.099282 -337.623729 
L 144.099282 -337.623729 
L 144.158642 -335.139596 
L 144.240467 -332.655463 
L 144.272556 -330.171329 
L 144.218182 -327.687196 
L 144.137235 -325.203063 
L 144.089824 -322.718929 
L 144.074982 -320.234796 
L 144.072305 -317.750663 
L 144.072019 -315.266529 
L 144.072001 -312.782396 
L 144.072 -310.298263 
L 144.072 -307.814129 
L 144.072 -305.329996 
L 144.072 -302.845863 
L 144.072 -300.361729 
L 144.072 -297.877596 
L 144.072 -295.393463 
L 144.072 -292.909329 
L 144.072 -290.425196 
L 144.072 -287.941063 
L 144.072 -285.456929 
L 144.072 -282.972796 
L 144.072 -280.488663 
L 144.072 -278.004529 
L 144.072 -275.520396 
L 144.072 -273.036263 
L 144.072 -270.552129 
L 144.072 -268.067996 
L 144.072 -265.583863 
L 144.072 -263.099729 
L 144.072 -260.615596 
L 144.072 -258.131463 
L 144.072 -255.647329 
L 144.072 -253.163196 
L 144.072 -250.679063 
L 144.072 -248.194929 
L 144.072 -245.710796 
L 144.072 -243.226663 
L 144.072 -240.742529 
L 144.072 -238.258396 
L 144.072 -235.774263 
L 144.072 -233.290129 
L 144.072 -230.805996 
L 144.072 -228.321863 
L 144.072 -225.837729 
L 144.072 -223.353596 
L 144.072 -220.869462 
L 144.072 -218.385329 
L 144.072 -215.901196 
L 144.072 -213.417062 
L 144.072 -210.932929 
L 144.072 -208.448796 
L 144.072 -205.964662 
L 144.072 -203.480529 
L 144.072 -200.996396 
L 144.072 -198.512262 
L 144.072 -196.028129 
L 144.072 -193.543996 
L 144.072 -191.059862 
L 144.072 -188.575729 
L 144.072 -186.091596 
L 144.072 -183.607462 
L 144.072 -181.123329 
L 144.072 -178.639196 
L 144.072 -176.155062 
L 144.072 -173.670929 
L 144.072 -171.186796 
L 144.072 -168.702662 
L 144.072 -166.218529 
L 144.072 -163.734396 
L 144.072 -161.250262 
L 144.072 -158.766129 
L 144.072 -156.281996 
L 144.072 -153.797862 
L 144.072 -151.313729 
L 144.072 -148.829596 
L 144.07201 -146.345462 
L 144.072217 -143.861329 
L 144.074835 -141.377196 
L 144.095079 -138.893062 
L 144.190419 -136.408929 
L 144.461958 -133.924796 
L 144.927587 -131.440662 
L 145.429355 -128.956529 
L 145.929934 -126.472396 
L 146.918029 -123.988262 
L 149.257519 -121.504129 
L 153.263799 -119.019996 
L 157.981312 -116.535862 
L 162.407644 -114.051729 
L 167.115749 -111.567596 
L 173.686021 -109.083462 
L 184.225872 -106.599329 
L 198.597177 -104.115196 
L 206.9136 -101.631062 
L 196.72312 -99.146929 
L 173.600447 -96.662796 
L 154.769857 -94.178662 
L 146.538073 -91.694529 
z
" style="stroke: #595959; stroke-width: 1.25"/>
    </defs>
    <g clip-path="url(#p09ae75b0c8)">
     <use xlink:href="#mf96446d21c" x="0" y="432" style="fill: #72b6a1; stroke: #595959; stroke-width: 1.25"/>
    </g>
   </g>
   <g id="PolyCollection_2">
    <defs>
     <path id="m986dd556ff" d="M 302.323482 -92.667824 
L 300.028518 -92.667824 
L 298.974441 -93.093313 
L 297.193755 -93.518802 
L 294.384043 -93.944291 
L 290.251382 -94.36978 
L 284.600642 -94.795269 
L 277.445744 -95.220758 
L 269.10498 -95.646247 
L 260.235557 -96.071735 
L 251.770051 -96.497224 
L 244.748515 -96.922713 
L 240.083923 -97.348202 
L 238.3344 -97.773691 
L 239.562561 -98.19918 
L 243.332706 -98.624669 
L 248.843367 -99.050158 
L 255.141847 -99.475647 
L 261.3435 -99.901136 
L 266.789787 -100.326625 
L 271.114855 -100.752114 
L 274.229121 -101.177603 
L 276.2522 -101.603091 
L 277.430481 -102.02858 
L 278.06306 -102.454069 
L 278.444673 -102.879558 
L 278.82473 -103.305047 
L 279.379748 -103.730536 
L 280.199307 -104.156025 
L 281.287909 -104.581514 
L 282.583493 -105.007003 
L 283.988262 -105.432492 
L 285.402249 -105.857981 
L 286.748606 -106.28347 
L 287.983374 -106.708959 
L 289.089711 -107.134447 
L 290.063248 -107.559936 
L 290.897997 -107.985425 
L 291.580036 -108.410914 
L 292.090926 -108.836403 
L 292.417707 -109.261892 
L 292.563722 -109.687381 
L 292.555179 -110.11287 
L 292.440997 -110.538359 
L 292.286365 -110.963848 
L 292.162213 -111.389337 
L 292.133393 -111.814826 
L 292.248054 -112.240314 
L 292.530311 -112.665803 
L 292.977685 -113.091292 
L 293.563857 -113.516781 
L 294.245892 -113.94227 
L 294.973771 -114.367759 
L 295.699472 -114.793248 
L 296.383478 -115.218737 
L 296.998029 -115.644226 
L 297.527791 -116.069715 
L 297.969125 -116.495204 
L 298.328731 -116.920693 
L 298.621653 -117.346182 
L 298.868275 -117.77167 
L 299.090291 -118.197159 
L 299.306311 -118.622648 
L 299.528278 -119.048137 
L 299.759769 -119.473626 
L 299.996589 -119.899115 
L 300.229251 -120.324604 
L 300.44636 -120.750093 
L 300.637824 -121.175582 
L 300.797056 -121.601071 
L 300.92183 -122.02656 
L 301.013913 -122.452049 
L 301.077891 -122.877538 
L 301.119722 -123.303026 
L 301.145446 -123.728515 
L 301.160312 -124.154004 
L 301.168364 -124.579493 
L 301.172407 -125.004982 
L 301.174178 -125.430471 
L 301.174587 -125.85596 
L 301.173913 -126.281449 
L 301.171925 -126.706938 
L 301.16793 -127.132427 
L 301.160819 -127.557916 
L 301.149188 -127.983405 
L 301.131634 -128.408893 
L 301.107237 -128.834382 
L 301.076184 -129.259871 
L 301.040298 -129.68536 
L 301.00321 -130.110849 
L 300.969942 -130.536338 
L 300.945855 -130.961827 
L 300.935257 -131.387316 
L 300.940143 -131.812805 
L 300.959586 -132.238294 
L 300.990022 -132.663783 
L 301.026315 -133.089272 
L 301.063166 -133.514761 
L 301.09634 -133.940249 
L 301.123328 -134.365738 
L 301.143382 -134.791227 
L 301.208618 -134.791227 
L 301.208618 -134.791227 
L 301.228672 -134.365738 
L 301.25566 -133.940249 
L 301.288834 -133.514761 
L 301.325685 -133.089272 
L 301.361978 -132.663783 
L 301.392414 -132.238294 
L 301.411857 -131.812805 
L 301.416743 -131.387316 
L 301.406145 -130.961827 
L 301.382058 -130.536338 
L 301.34879 -130.110849 
L 301.311702 -129.68536 
L 301.275816 -129.259871 
L 301.244763 -128.834382 
L 301.220366 -128.408893 
L 301.202812 -127.983405 
L 301.191181 -127.557916 
L 301.18407 -127.132427 
L 301.180075 -126.706938 
L 301.178087 -126.281449 
L 301.177413 -125.85596 
L 301.177822 -125.430471 
L 301.179593 -125.004982 
L 301.183636 -124.579493 
L 301.191688 -124.154004 
L 301.206554 -123.728515 
L 301.232278 -123.303026 
L 301.274109 -122.877538 
L 301.338087 -122.452049 
L 301.43017 -122.02656 
L 301.554944 -121.601071 
L 301.714176 -121.175582 
L 301.90564 -120.750093 
L 302.122749 -120.324604 
L 302.355411 -119.899115 
L 302.592231 -119.473626 
L 302.823722 -119.048137 
L 303.045689 -118.622648 
L 303.261709 -118.197159 
L 303.483725 -117.77167 
L 303.730347 -117.346182 
L 304.023269 -116.920693 
L 304.382875 -116.495204 
L 304.824209 -116.069715 
L 305.353971 -115.644226 
L 305.968522 -115.218737 
L 306.652528 -114.793248 
L 307.378229 -114.367759 
L 308.106108 -113.94227 
L 308.788143 -113.516781 
L 309.374315 -113.091292 
L 309.821689 -112.665803 
L 310.103946 -112.240314 
L 310.218607 -111.814826 
L 310.189787 -111.389337 
L 310.065635 -110.963848 
L 309.911003 -110.538359 
L 309.796821 -110.11287 
L 309.788278 -109.687381 
L 309.934293 -109.261892 
L 310.261074 -108.836403 
L 310.771964 -108.410914 
L 311.454003 -107.985425 
L 312.288752 -107.559936 
L 313.262289 -107.134447 
L 314.368626 -106.708959 
L 315.603394 -106.28347 
L 316.949751 -105.857981 
L 318.363738 -105.432492 
L 319.768507 -105.007003 
L 321.064091 -104.581514 
L 322.152693 -104.156025 
L 322.972252 -103.730536 
L 323.52727 -103.305047 
L 323.907327 -102.879558 
L 324.28894 -102.454069 
L 324.921519 -102.02858 
L 326.0998 -101.603091 
L 328.122879 -101.177603 
L 331.237145 -100.752114 
L 335.562213 -100.326625 
L 341.0085 -99.901136 
L 347.210153 -99.475647 
L 353.508633 -99.050158 
L 359.019294 -98.624669 
L 362.789439 -98.19918 
L 364.0176 -97.773691 
L 362.268077 -97.348202 
L 357.603485 -96.922713 
L 350.581949 -96.497224 
L 342.116443 -96.071735 
L 333.24702 -95.646247 
L 324.906256 -95.220758 
L 317.751358 -94.795269 
L 312.100618 -94.36978 
L 307.967957 -93.944291 
L 305.158245 -93.518802 
L 303.377559 -93.093313 
L 302.323482 -92.667824 
z
" style="stroke: #595959; stroke-width: 1.25"/>
    </defs>
    <g clip-path="url(#p09ae75b0c8)">
     <use xlink:href="#m986dd556ff" x="0" y="432" style="fill: #e99675; stroke: #595959; stroke-width: 1.25"/>
    </g>
   </g>
   <g id="PolyCollection_3">
    <defs>
     <path id="ma39c1fd16a" d="M 459.779365 -166.508899 
L 456.780635 -166.508899 
L 455.789154 -168.767922 
L 454.297183 -171.026946 
L 452.149554 -173.28597 
L 449.195104 -175.544994 
L 445.315398 -177.804017 
L 440.459675 -180.063041 
L 434.679504 -182.322065 
L 428.154146 -184.581089 
L 421.197137 -186.840112 
L 414.237292 -189.099136 
L 407.772883 -191.35816 
L 402.305057 -193.617184 
L 398.26312 -195.876207 
L 395.937917 -198.135231 
L 395.4384 -200.394255 
L 396.680895 -202.653279 
L 399.412181 -204.912302 
L 403.259142 -207.171326 
L 407.792136 -209.43035 
L 412.587731 -211.689374 
L 417.279081 -213.948397 
L 421.587303 -216.207421 
L 425.33288 -218.466445 
L 428.430401 -220.725469 
L 430.872244 -222.984492 
L 432.706935 -225.243516 
L 434.016832 -227.50254 
L 434.898182 -229.761564 
L 435.445237 -232.020587 
L 435.739217 -234.279611 
L 435.84233 -236.538635 
L 435.796733 -238.797659 
L 435.627833 -241.056682 
L 435.350839 -243.315706 
L 434.978975 -245.57473 
L 434.531428 -247.833754 
L 434.039163 -250.092777 
L 433.547164 -252.351801 
L 433.112443 -254.610825 
L 432.798149 -256.869849 
L 432.665053 -259.128872 
L 432.762384 -261.387896 
L 433.1202 -263.64692 
L 433.745113 -265.905944 
L 434.620326 -268.164967 
L 435.709736 -270.423991 
L 436.964819 -272.683015 
L 438.332324 -274.942039 
L 439.760849 -277.201062 
L 441.204978 -279.460086 
L 442.626661 -281.71911 
L 443.994439 -283.978134 
L 445.281708 -286.237157 
L 446.465274 -288.496181 
L 447.525035 -290.755205 
L 448.445045 -293.014229 
L 449.215578 -295.273252 
L 449.835459 -297.532276 
L 450.313776 -299.7913 
L 450.670265 -302.050324 
L 450.933952 -304.309347 
L 451.140059 -306.568371 
L 451.325628 -308.827395 
L 451.524649 -311.086419 
L 451.76368 -313.345442 
L 452.058881 -315.604466 
L 452.415053 -317.86349 
L 452.826779 -320.122514 
L 453.281213 -322.381537 
L 453.761688 -324.640561 
L 454.251171 -326.899585 
L 454.73481 -329.158609 
L 455.20117 -331.417632 
L 455.642238 -333.676656 
L 456.052615 -335.93568 
L 456.428428 -338.194704 
L 456.766478 -340.453727 
L 457.063869 -342.712751 
L 457.318152 -344.971775 
L 457.527825 -347.230799 
L 457.692913 -349.489822 
L 457.815415 -351.748846 
L 457.899447 -354.00787 
L 457.951047 -356.266894 
L 457.977663 -358.525917 
L 457.987428 -360.784941 
L 457.988324 -363.043965 
L 457.98738 -365.302989 
L 457.990008 -367.562012 
L 457.999599 -369.821036 
L 458.017435 -372.08006 
L 458.042922 -374.339084 
L 458.074079 -376.598107 
L 458.108173 -378.857131 
L 458.142358 -381.116155 
L 458.174195 -383.375179 
L 458.201971 -385.634202 
L 458.224797 -387.893226 
L 458.242538 -390.15225 
L 458.317462 -390.15225 
L 458.317462 -390.15225 
L 458.335203 -387.893226 
L 458.358029 -385.634202 
L 458.385805 -383.375179 
L 458.417642 -381.116155 
L 458.451827 -378.857131 
L 458.485921 -376.598107 
L 458.517078 -374.339084 
L 458.542565 -372.08006 
L 458.560401 -369.821036 
L 458.569992 -367.562012 
L 458.57262 -365.302989 
L 458.571676 -363.043965 
L 458.572572 -360.784941 
L 458.582337 -358.525917 
L 458.608953 -356.266894 
L 458.660553 -354.00787 
L 458.744585 -351.748846 
L 458.867087 -349.489822 
L 459.032175 -347.230799 
L 459.241848 -344.971775 
L 459.496131 -342.712751 
L 459.793522 -340.453727 
L 460.131572 -338.194704 
L 460.507385 -335.93568 
L 460.917762 -333.676656 
L 461.35883 -331.417632 
L 461.82519 -329.158609 
L 462.308829 -326.899585 
L 462.798312 -324.640561 
L 463.278787 -322.381537 
L 463.733221 -320.122514 
L 464.144947 -317.86349 
L 464.501119 -315.604466 
L 464.79632 -313.345442 
L 465.035351 -311.086419 
L 465.234372 -308.827395 
L 465.419941 -306.568371 
L 465.626048 -304.309347 
L 465.889735 -302.050324 
L 466.246224 -299.7913 
L 466.724541 -297.532276 
L 467.344422 -295.273252 
L 468.114955 -293.014229 
L 469.034965 -290.755205 
L 470.094726 -288.496181 
L 471.278292 -286.237157 
L 472.565561 -283.978134 
L 473.933339 -281.71911 
L 475.355022 -279.460086 
L 476.799151 -277.201062 
L 478.227676 -274.942039 
L 479.595181 -272.683015 
L 480.850264 -270.423991 
L 481.939674 -268.164967 
L 482.814887 -265.905944 
L 483.4398 -263.64692 
L 483.797616 -261.387896 
L 483.894947 -259.128872 
L 483.761851 -256.869849 
L 483.447557 -254.610825 
L 483.012836 -252.351801 
L 482.520837 -250.092777 
L 482.028572 -247.833754 
L 481.581025 -245.57473 
L 481.209161 -243.315706 
L 480.932167 -241.056682 
L 480.763267 -238.797659 
L 480.71767 -236.538635 
L 480.820783 -234.279611 
L 481.114763 -232.020587 
L 481.661818 -229.761564 
L 482.543168 -227.50254 
L 483.853065 -225.243516 
L 485.687756 -222.984492 
L 488.129599 -220.725469 
L 491.22712 -218.466445 
L 494.972697 -216.207421 
L 499.280919 -213.948397 
L 503.972269 -211.689374 
L 508.767864 -209.43035 
L 513.300858 -207.171326 
L 517.147819 -204.912302 
L 519.879105 -202.653279 
L 521.1216 -200.394255 
L 520.622083 -198.135231 
L 518.29688 -195.876207 
L 514.254943 -193.617184 
L 508.787117 -191.35816 
L 502.322708 -189.099136 
L 495.362863 -186.840112 
L 488.405854 -184.581089 
L 481.880496 -182.322065 
L 476.100325 -180.063041 
L 471.244602 -177.804017 
L 467.364896 -175.544994 
L 464.410446 -173.28597 
L 462.262817 -171.026946 
L 460.770846 -168.767922 
L 459.779365 -166.508899 
z
" style="stroke: #595959; stroke-width: 1.25"/>
    </defs>
    <g clip-path="url(#p09ae75b0c8)">
     <use xlink:href="#ma39c1fd16a" x="0" y="432" style="fill: #95a3c3; stroke: #595959; stroke-width: 1.25"/>
    </g>
   </g>
   <g id="PolyCollection_4">
    <defs>
     <path id="m11c73d9be8" d="M 616.041985 -110.432226 
L 614.726015 -110.432226 
L 613.988679 -111.043151 
L 612.625687 -111.654076 
L 610.298435 -112.265001 
L 606.634115 -112.875926 
L 601.326439 -113.48685 
L 594.278809 -114.097775 
L 585.746647 -114.7087 
L 576.410961 -115.319625 
L 567.319873 -115.93055 
L 559.679706 -116.541475 
L 554.548222 -117.1524 
L 552.5424 -117.763324 
L 553.681965 -118.374249 
L 557.434272 -118.985174 
L 562.933078 -119.596099 
L 569.26583 -120.207024 
L 575.705435 -120.817949 
L 581.809106 -121.428873 
L 587.384637 -122.039798 
L 592.384983 -122.650723 
L 596.805449 -123.261648 
L 600.628649 -123.872573 
L 603.819513 -124.483498 
L 606.344764 -125.094423 
L 608.189159 -125.705347 
L 609.355941 -126.316272 
L 609.856047 -126.927197 
L 609.699022 -127.538122 
L 608.8968 -128.149047 
L 607.483297 -128.759972 
L 605.543218 -129.370897 
L 603.236605 -129.981821 
L 600.804556 -130.592746 
L 598.547227 -131.203671 
L 596.775887 -131.814596 
L 595.751642 -132.425521 
L 595.629521 -133.036446 
L 596.425448 -133.647371 
L 598.016179 -134.258295 
L 600.171704 -134.86922 
L 602.609714 -135.480145 
L 605.055616 -136.09107 
L 607.291396 -136.701995 
L 609.182177 -137.31292 
L 610.678226 -137.923844 
L 611.798246 -138.534769 
L 612.603859 -139.145694 
L 613.174332 -139.756619 
L 613.586923 -140.367544 
L 613.904391 -140.978469 
L 614.169084 -141.589394 
L 614.40245 -142.200318 
L 614.60876 -142.811243 
L 614.781589 -143.422168 
L 614.911218 -144.033093 
L 614.991107 -144.644018 
L 615.022077 -145.254943 
L 615.013583 -145.865868 
L 614.982131 -146.476792 
L 614.947453 -147.087717 
L 614.927557 -147.698642 
L 614.934207 -148.309567 
L 614.970398 -148.920492 
L 615.030705 -149.531417 
L 615.104242 -150.142341 
L 615.178844 -150.753266 
L 615.244749 -151.364191 
L 615.296549 -151.975116 
L 615.333203 -152.586041 
L 615.356716 -153.196966 
L 615.370454 -153.807891 
L 615.377784 -154.418815 
L 615.381365 -155.02974 
L 615.382968 -155.640665 
L 615.383625 -156.25159 
L 615.383869 -156.862515 
L 615.38394 -157.47344 
L 615.383918 -158.084365 
L 615.38378 -158.695289 
L 615.383392 -159.306214 
L 615.382433 -159.917139 
L 615.380277 -160.528064 
L 615.375854 -161.138989 
L 615.367582 -161.749914 
L 615.35352 -162.360838 
L 615.331883 -162.971763 
L 615.301917 -163.582688 
L 615.264926 -164.193613 
L 615.224899 -164.804538 
L 615.188194 -165.415463 
L 615.162042 -166.026388 
L 615.152254 -166.637312 
L 615.161132 -167.248237 
L 615.186587 -167.859162 
L 615.222936 -168.470087 
L 615.262963 -169.081012 
L 615.300222 -169.691937 
L 615.330589 -170.302862 
L 615.352636 -170.913786 
L 615.415364 -170.913786 
L 615.415364 -170.913786 
L 615.437411 -170.302862 
L 615.467778 -169.691937 
L 615.505037 -169.081012 
L 615.545064 -168.470087 
L 615.581413 -167.859162 
L 615.606868 -167.248237 
L 615.615746 -166.637312 
L 615.605958 -166.026388 
L 615.579806 -165.415463 
L 615.543101 -164.804538 
L 615.503074 -164.193613 
L 615.466083 -163.582688 
L 615.436117 -162.971763 
L 615.41448 -162.360838 
L 615.400418 -161.749914 
L 615.392146 -161.138989 
L 615.387723 -160.528064 
L 615.385567 -159.917139 
L 615.384608 -159.306214 
L 615.38422 -158.695289 
L 615.384082 -158.084365 
L 615.38406 -157.47344 
L 615.384131 -156.862515 
L 615.384375 -156.25159 
L 615.385032 -155.640665 
L 615.386635 -155.02974 
L 615.390216 -154.418815 
L 615.397546 -153.807891 
L 615.411284 -153.196966 
L 615.434797 -152.586041 
L 615.471451 -151.975116 
L 615.523251 -151.364191 
L 615.589156 -150.753266 
L 615.663758 -150.142341 
L 615.737295 -149.531417 
L 615.797602 -148.920492 
L 615.833793 -148.309567 
L 615.840443 -147.698642 
L 615.820547 -147.087717 
L 615.785869 -146.476792 
L 615.754417 -145.865868 
L 615.745923 -145.254943 
L 615.776893 -144.644018 
L 615.856782 -144.033093 
L 615.986411 -143.422168 
L 616.15924 -142.811243 
L 616.36555 -142.200318 
L 616.598916 -141.589394 
L 616.863609 -140.978469 
L 617.181077 -140.367544 
L 617.593668 -139.756619 
L 618.164141 -139.145694 
L 618.969754 -138.534769 
L 620.089774 -137.923844 
L 621.585823 -137.31292 
L 623.476604 -136.701995 
L 625.712384 -136.09107 
L 628.158286 -135.480145 
L 630.596296 -134.86922 
L 632.751821 -134.258295 
L 634.342552 -133.647371 
L 635.138479 -133.036446 
L 635.016358 -132.425521 
L 633.992113 -131.814596 
L 632.220773 -131.203671 
L 629.963444 -130.592746 
L 627.531395 -129.981821 
L 625.224782 -129.370897 
L 623.284703 -128.759972 
L 621.8712 -128.149047 
L 621.068978 -127.538122 
L 620.911953 -126.927197 
L 621.412059 -126.316272 
L 622.578841 -125.705347 
L 624.423236 -125.094423 
L 626.948487 -124.483498 
L 630.139351 -123.872573 
L 633.962551 -123.261648 
L 638.383017 -122.650723 
L 643.383363 -122.039798 
L 648.958894 -121.428873 
L 655.062565 -120.817949 
L 661.50217 -120.207024 
L 667.834922 -119.596099 
L 673.333728 -118.985174 
L 677.086035 -118.374249 
L 678.2256 -117.763324 
L 676.219778 -117.1524 
L 671.088294 -116.541475 
L 663.448127 -115.93055 
L 654.357039 -115.319625 
L 645.021353 -114.7087 
L 636.489191 -114.097775 
L 629.441561 -113.48685 
L 624.133885 -112.875926 
L 620.469565 -112.265001 
L 618.142313 -111.654076 
L 616.779321 -111.043151 
L 616.041985 -110.432226 
z
" style="stroke: #595959; stroke-width: 1.25"/>
    </defs>
    <g clip-path="url(#p09ae75b0c8)">
     <use xlink:href="#m11c73d9be8" x="0" y="432" style="fill: #db96c0; stroke: #595959; stroke-width: 1.25"/>
    </g>
   </g>
   <g id="PolyCollection_5">
    <defs>
     <path id="m2901415ccd" d="M 772.686231 -93.181179 
L 772.289769 -93.181179 
L 772.104161 -93.38792 
L 771.780259 -93.594661 
L 771.242377 -93.801402 
L 770.390559 -94.008142 
L 769.101791 -94.214883 
L 767.236411 -94.421624 
L 764.651154 -94.628365 
L 761.219289 -94.835106 
L 756.85679 -95.041846 
L 751.551754 -95.248587 
L 745.392824 -95.455328 
L 738.591433 -95.662069 
L 731.491985 -95.868809 
L 724.563418 -96.07555 
L 718.365664 -96.282291 
L 713.487207 -96.489032 
L 710.45716 -96.695773 
L 709.6464 -96.902513 
L 711.182774 -97.109254 
L 714.908368 -97.315995 
L 720.397802 -97.522736 
L 727.037138 -97.729476 
L 734.141765 -97.936217 
L 741.078698 -98.142958 
L 747.360184 -98.349699 
L 752.689332 -98.55644 
L 756.956943 -98.76318 
L 760.203213 -98.969921 
L 762.563759 -99.176662 
L 764.217108 -99.383403 
L 765.344044 -99.590144 
L 766.10218 -99.796884 
L 766.614041 -100.003625 
L 766.964633 -100.210366 
L 767.204276 -100.417107 
L 767.353686 -100.623847 
L 767.410006 -100.830588 
L 767.353947 -101.037329 
L 767.158788 -101.24407 
L 766.801495 -101.450811 
L 766.274882 -101.657551 
L 765.598296 -101.864292 
L 764.823521 -102.071033 
L 764.032979 -102.277774 
L 763.329056 -102.484514 
L 762.816022 -102.691255 
L 762.578704 -102.897996 
L 762.663827 -103.104737 
L 763.069848 -103.311478 
L 763.748763 -103.518218 
L 764.619451 -103.724959 
L 765.588098 -103.9317 
L 766.568837 -104.138441 
L 767.498242 -104.345182 
L 768.340328 -104.551922 
L 769.082769 -104.758663 
L 769.728083 -104.965404 
L 770.284326 -105.172145 
L 770.758595 -105.378885 
L 771.154446 -105.585626 
L 771.47258 -105.792367 
L 771.713337 -105.999108 
L 771.879552 -106.205849 
L 771.978719 -106.412589 
L 772.023734 -106.61933 
L 772.031874 -106.826071 
L 772.022103 -107.032812 
L 772.011424 -107.239552 
L 772.011479 -107.446293 
L 772.026718 -107.653034 
L 772.054905 -107.859775 
L 772.089752 -108.066516 
L 772.124532 -108.273256 
L 772.15508 -108.479997 
L 772.180987 -108.686738 
L 772.204731 -108.893479 
L 772.229482 -109.10022 
L 772.256809 -109.30696 
L 772.285384 -109.513701 
L 772.311138 -109.720442 
L 772.328602 -109.927183 
L 772.332769 -110.133923 
L 772.320762 -110.340664 
L 772.292834 -110.547405 
L 772.252517 -110.754146 
L 772.206003 -110.960887 
L 772.160948 -111.167627 
L 772.12501 -111.374368 
L 772.104431 -111.581109 
L 772.102943 -111.78785 
L 772.12119 -111.99459 
L 772.156759 -112.201331 
L 772.204797 -112.408072 
L 772.259098 -112.614813 
L 772.313389 -112.821554 
L 772.362511 -113.028294 
L 772.403177 -113.235035 
L 772.434159 -113.441776 
L 772.455952 -113.648517 
L 772.520048 -113.648517 
L 772.520048 -113.648517 
L 772.541841 -113.441776 
L 772.572823 -113.235035 
L 772.613489 -113.028294 
L 772.662611 -112.821554 
L 772.716902 -112.614813 
L 772.771203 -112.408072 
L 772.819241 -112.201331 
L 772.85481 -111.99459 
L 772.873057 -111.78785 
L 772.871569 -111.581109 
L 772.85099 -111.374368 
L 772.815052 -111.167627 
L 772.769997 -110.960887 
L 772.723483 -110.754146 
L 772.683166 -110.547405 
L 772.655238 -110.340664 
L 772.643231 -110.133923 
L 772.647398 -109.927183 
L 772.664862 -109.720442 
L 772.690616 -109.513701 
L 772.719191 -109.30696 
L 772.746518 -109.10022 
L 772.771269 -108.893479 
L 772.795013 -108.686738 
L 772.82092 -108.479997 
L 772.851468 -108.273256 
L 772.886248 -108.066516 
L 772.921095 -107.859775 
L 772.949282 -107.653034 
L 772.964521 -107.446293 
L 772.964576 -107.239552 
L 772.953897 -107.032812 
L 772.944126 -106.826071 
L 772.952266 -106.61933 
L 772.997281 -106.412589 
L 773.096448 -106.205849 
L 773.262663 -105.999108 
L 773.50342 -105.792367 
L 773.821554 -105.585626 
L 774.217405 -105.378885 
L 774.691674 -105.172145 
L 775.247917 -104.965404 
L 775.893231 -104.758663 
L 776.635672 -104.551922 
L 777.477758 -104.345182 
L 778.407163 -104.138441 
L 779.387902 -103.9317 
L 780.356549 -103.724959 
L 781.227237 -103.518218 
L 781.906152 -103.311478 
L 782.312173 -103.104737 
L 782.397296 -102.897996 
L 782.159978 -102.691255 
L 781.646944 -102.484514 
L 780.943021 -102.277774 
L 780.152479 -102.071033 
L 779.377704 -101.864292 
L 778.701118 -101.657551 
L 778.174505 -101.450811 
L 777.817212 -101.24407 
L 777.622053 -101.037329 
L 777.565994 -100.830588 
L 777.622314 -100.623847 
L 777.771724 -100.417107 
L 778.011367 -100.210366 
L 778.361959 -100.003625 
L 778.87382 -99.796884 
L 779.631956 -99.590144 
L 780.758892 -99.383403 
L 782.412241 -99.176662 
L 784.772787 -98.969921 
L 788.019057 -98.76318 
L 792.286668 -98.55644 
L 797.615816 -98.349699 
L 803.897302 -98.142958 
L 810.834235 -97.936217 
L 817.938862 -97.729476 
L 824.578198 -97.522736 
L 830.067632 -97.315995 
L 833.793226 -97.109254 
L 835.3296 -96.902513 
L 834.51884 -96.695773 
L 831.488793 -96.489032 
L 826.610336 -96.282291 
L 820.412582 -96.07555 
L 813.484015 -95.868809 
L 806.384567 -95.662069 
L 799.583176 -95.455328 
L 793.424246 -95.248587 
L 788.11921 -95.041846 
L 783.756711 -94.835106 
L 780.324846 -94.628365 
L 777.739589 -94.421624 
L 775.874209 -94.214883 
L 774.585441 -94.008142 
L 773.733623 -93.801402 
L 773.195741 -93.594661 
L 772.871839 -93.38792 
L 772.686231 -93.181179 
z
" style="stroke: #595959; stroke-width: 1.25"/>
    </defs>
    <g clip-path="url(#p09ae75b0c8)">
     <use xlink:href="#m2901415ccd" x="0" y="432" style="fill: #a2c865; stroke: #595959; stroke-width: 1.25"/>
    </g>
   </g>
   <g id="line2d_9">
    <path d="M 144.072 331.28432 
L 144.072 333.212297 
" clip-path="url(#p09ae75b0c8)" style="fill: none; stroke: #000000"/>
   </g>
   <g id="line2d_10">
    <path d="M 144.072 323.572411 
L 144.072 312.004549 
" clip-path="url(#p09ae75b0c8)" style="fill: none; stroke: #000000"/>
   </g>
   <g id="line2d_11">
    <path d="M 138.1806 333.212297 
L 149.9634 333.212297 
" clip-path="url(#p09ae75b0c8)" style="fill: none; stroke: #000000; stroke-linecap: round"/>
   </g>
   <g id="line2d_12">
    <path d="M 138.1806 312.004549 
L 149.9634 312.004549 
" clip-path="url(#p09ae75b0c8)" style="fill: none; stroke: #000000; stroke-linecap: round"/>
   </g>
   <g id="line2d_13">
    <path d="M 301.176 334.465482 
L 301.176 336.007864 
" clip-path="url(#p09ae75b0c8)" style="fill: none; stroke: #000000"/>
   </g>
   <g id="line2d_14">
    <path d="M 301.176 327.813961 
L 301.176 317.981278 
" clip-path="url(#p09ae75b0c8)" style="fill: none; stroke: #000000"/>
   </g>
   <g id="line2d_15">
    <path d="M 295.2846 336.007864 
L 307.0674 336.007864 
" clip-path="url(#p09ae75b0c8)" style="fill: none; stroke: #000000; stroke-linecap: round"/>
   </g>
   <g id="line2d_16">
    <path d="M 295.2846 317.981278 
L 307.0674 317.981278 
" clip-path="url(#p09ae75b0c8)" style="fill: none; stroke: #000000; stroke-linecap: round"/>
   </g>
   <g id="line2d_17">
    <path d="M 458.28 234.403469 
L 458.28 243.368562 
" clip-path="url(#p09ae75b0c8)" style="fill: none; stroke: #000000"/>
   </g>
   <g id="line2d_18">
    <path d="M 458.28 172.563602 
L 458.28 94.625126 
" clip-path="url(#p09ae75b0c8)" style="fill: none; stroke: #000000"/>
   </g>
   <g id="line2d_19">
    <path d="M 452.3886 243.368562 
L 464.1714 243.368562 
" clip-path="url(#p09ae75b0c8)" style="fill: none; stroke: #000000; stroke-linecap: round"/>
   </g>
   <g id="line2d_20">
    <path d="M 452.3886 94.625126 
L 464.1714 94.625126 
" clip-path="url(#p09ae75b0c8)" style="fill: none; stroke: #000000; stroke-linecap: round"/>
   </g>
   <g id="line2d_21">
    <path d="M 615.384 314.703717 
L 615.384 317.306486 
" clip-path="url(#p09ae75b0c8)" style="fill: none; stroke: #000000"/>
   </g>
   <g id="line2d_22">
    <path d="M 615.384 305.931421 
L 615.384 293.30317 
" clip-path="url(#p09ae75b0c8)" style="fill: none; stroke: #000000"/>
   </g>
   <g id="line2d_23">
    <path d="M 609.4926 317.306486 
L 621.2754 317.306486 
" clip-path="url(#p09ae75b0c8)" style="fill: none; stroke: #000000; stroke-linecap: round"/>
   </g>
   <g id="line2d_24">
    <path d="M 609.4926 293.30317 
L 621.2754 293.30317 
" clip-path="url(#p09ae75b0c8)" style="fill: none; stroke: #000000; stroke-linecap: round"/>
   </g>
   <g id="line2d_25">
    <path d="M 772.488 335.429471 
L 772.488 337.261049 
" clip-path="url(#p09ae75b0c8)" style="fill: none; stroke: #000000"/>
   </g>
   <g id="line2d_26">
    <path d="M 772.488 333.887089 
L 772.488 331.669915 
" clip-path="url(#p09ae75b0c8)" style="fill: none; stroke: #000000"/>
   </g>
   <g id="line2d_27">
    <path d="M 766.5966 337.261049 
L 778.3794 337.261049 
" clip-path="url(#p09ae75b0c8)" style="fill: none; stroke: #000000; stroke-linecap: round"/>
   </g>
   <g id="line2d_28">
    <path d="M 766.5966 331.669915 
L 778.3794 331.669915 
" clip-path="url(#p09ae75b0c8)" style="fill: none; stroke: #000000; stroke-linecap: round"/>
   </g>
   <g id="line2d_29">
    <path d="M 132.2892 329.741938 
L 155.8548 329.741938 
" clip-path="url(#p09ae75b0c8)" style="fill: none; stroke: #ff0000; stroke-width: 2"/>
   </g>
   <g id="line2d_30">
    <path d="M 289.3932 333.164098 
L 312.9588 333.164098 
" clip-path="url(#p09ae75b0c8)" style="fill: none; stroke: #ff0000; stroke-width: 2"/>
   </g>
   <g id="line2d_31">
    <path d="M 446.4972 216.56968 
L 470.0628 216.56968 
" clip-path="url(#p09ae75b0c8)" style="fill: none; stroke: #ff0000; stroke-width: 2"/>
   </g>
   <g id="line2d_32">
    <path d="M 603.6012 313.209534 
L 627.1668 313.209534 
" clip-path="url(#p09ae75b0c8)" style="fill: none; stroke: #ff0000; stroke-width: 2"/>
   </g>
   <g id="line2d_33">
    <path d="M 760.7052 334.947477 
L 784.2708 334.947477 
" clip-path="url(#p09ae75b0c8)" style="fill: none; stroke: #ff0000; stroke-width: 2"/>
   </g>
   <g id="patch_3">
    <path d="M 65.52 358.276 
L 65.52 20.88 
" style="fill: none; stroke: #cccccc; stroke-width: 1.25; stroke-linejoin: miter; stroke-linecap: square"/>
   </g>
   <g id="patch_4">
    <path d="M 851.04 358.276 
L 851.04 20.88 
" style="fill: none; stroke: #cccccc; stroke-width: 1.25; stroke-linejoin: miter; stroke-linecap: square"/>
   </g>
   <g id="patch_5">
    <path d="M 65.52 358.276 
L 851.04 358.276 
" style="fill: none; stroke: #cccccc; stroke-width: 1.25; stroke-linejoin: miter; stroke-linecap: square"/>
   </g>
   <g id="patch_6">
    <path d="M 65.52 20.88 
L 851.04 20.88 
" style="fill: none; stroke: #cccccc; stroke-width: 1.25; stroke-linejoin: miter; stroke-linecap: square"/>
   </g>
   <g id="text_15">
    <g id="patch_7">
     <path d="M 624.386812 64.170425 
L 820.764 64.170425 
L 820.764 28.7498 
L 624.386812 28.7498 
z
" style="fill: #ffffff; opacity: 0.8; stroke: #808080; stroke-linejoin: miter"/>
    </g>
    <!-- Signature: ed25519 -->
    <g style="fill: #262626" transform="translate(633.386812 51.426988) scale(0.18 -0.18)">
     <defs>
      <path id="DejaVuSans-53" d="M 3425 4513 
L 3425 3897 
Q 3066 4069 2747 4153 
Q 2428 4238 2131 4238 
Q 1616 4238 1336 4038 
Q 1056 3838 1056 3469 
Q 1056 3159 1242 3001 
Q 1428 2844 1947 2747 
L 2328 2669 
Q 3034 2534 3370 2195 
Q 3706 1856 3706 1288 
Q 3706 609 3251 259 
Q 2797 -91 1919 -91 
Q 1588 -91 1214 -16 
Q 841 59 441 206 
L 441 856 
Q 825 641 1194 531 
Q 1563 422 1919 422 
Q 2459 422 2753 634 
Q 3047 847 3047 1241 
Q 3047 1584 2836 1778 
Q 2625 1972 2144 2069 
L 1759 2144 
Q 1053 2284 737 2584 
Q 422 2884 422 3419 
Q 422 4038 858 4394 
Q 1294 4750 2059 4750 
Q 2388 4750 2728 4690 
Q 3069 4631 3425 4513 
z
" transform="scale(0.015625)"/>
      <path id="DejaVuSans-67" d="M 2906 1791 
Q 2906 2416 2648 2759 
Q 2391 3103 1925 3103 
Q 1463 3103 1205 2759 
Q 947 2416 947 1791 
Q 947 1169 1205 825 
Q 1463 481 1925 481 
Q 2391 481 2648 825 
Q 2906 1169 2906 1791 
z
M 3481 434 
Q 3481 -459 3084 -895 
Q 2688 -1331 1869 -1331 
Q 1566 -1331 1297 -1286 
Q 1028 -1241 775 -1147 
L 775 -588 
Q 1028 -725 1275 -790 
Q 1522 -856 1778 -856 
Q 2344 -856 2625 -561 
Q 2906 -266 2906 331 
L 2906 616 
Q 2728 306 2450 153 
Q 2172 0 1784 0 
Q 1141 0 747 490 
Q 353 981 353 1791 
Q 353 2603 747 3093 
Q 1141 3584 1784 3584 
Q 2172 3584 2450 3431 
Q 2728 3278 2906 2969 
L 2906 3500 
L 3481 3500 
L 3481 434 
z
" transform="scale(0.015625)"/>
      <path id="DejaVuSans-3a" d="M 750 794 
L 1409 794 
L 1409 0 
L 750 0 
L 750 794 
z
M 750 3309 
L 1409 3309 
L 1409 2516 
L 750 2516 
L 750 3309 
z
" transform="scale(0.015625)"/>
     </defs>
     <use xlink:href="#DejaVuSans-53"/>
     <use xlink:href="#DejaVuSans-69" x="63.476562"/>
     <use xlink:href="#DejaVuSans-67" x="91.259766"/>
     <use xlink:href="#DejaVuSans-6e" x="154.736328"/>
     <use xlink:href="#DejaVuSans-61" x="218.115234"/>
     <use xlink:href="#DejaVuSans-74" x="279.394531"/>
     <use xlink:href="#DejaVuSans-75" x="318.603516"/>
     <use xlink:href="#DejaVuSans-72" x="381.982422"/>
     <use xlink:href="#DejaVuSans-65" x="420.845703"/>
     <use xlink:href="#DejaVuSans-3a" x="482.369141"/>
     <use xlink:href="#DejaVuSans-20" x="516.060547"/>
     <use xlink:href="#DejaVuSans-65" x="547.847656"/>
     <use xlink:href="#DejaVuSans-64" x="609.371094"/>
     <use xlink:href="#DejaVuSans-32" x="672.847656"/>
     <use xlink:href="#DejaVuSans-35" x="736.470703"/>
     <use xlink:href="#DejaVuSans-35" x="800.09375"/>
     <use xlink:href="#DejaVuSans-31" x="863.716797"/>
     <use xlink:href="#DejaVuSans-39" x="927.339844"/>
    </g>
   </g>
  </g>
 </g>
 <defs>
  <clipPath id="p09ae75b0c8">
   <rect x="65.52" y="20.88" width="785.52" height="337.396"/>
  </clipPath>
 </defs>
</svg>
