<?xml version="1.0" encoding="utf-8" standalone="no"?>
<!DOCTYPE svg PUBLIC "-//W3C//DTD SVG 1.1//EN"
  "http://www.w3.org/Graphics/SVG/1.1/DTD/svg11.dtd">
<svg xmlns:xlink="http://www.w3.org/1999/xlink" width="864pt" height="432pt" viewBox="0 0 864 432" xmlns="http://www.w3.org/2000/svg" version="1.1">
 <metadata>
  <rdf:RDF xmlns:dc="http://purl.org/dc/elements/1.1/" xmlns:cc="http://creativecommons.org/ns#" xmlns:rdf="http://www.w3.org/1999/02/22-rdf-syntax-ns#">
   <cc:Work>
    <dc:type rdf:resource="http://purl.org/dc/dcmitype/StillImage"/>
    <dc:date>2026-03-07T11:43:49.058985</dc:date>
    <dc:format>image/svg+xml</dc:format>
    <dc:creator>
     <cc:Agent>
      <dc:title>Matplotlib v3.6.3, https://matplotlib.org/</dc:title>
     </cc:Agent>
    </dc:creator>
   </cc:Work>
  </rdf:RDF>
 </metadata>
 <defs>
  <style type="text/css">*{stroke-linejoin: round; stroke-linecap: butt}</style>
 </defs>
 <g id="figure_1">
  <g id="patch_1">
   <path d="M 0 432 
L 864 432 
L 864 0 
L 0 0 
z
" style="fill: #ffffff"/>
  </g>
  <g id="axes_1">
   <g id="patch_2">
    <path d="M 78.21 358.276 
L 851.04 358.276 
L 851.04 20.88 
L 78.21 20.88 
z
" style="fill: #ffffff"/>
   </g>
   <g id="matplotlib.axis_1">
    <g id="xtick_1">
     <g id="text_1">
      <!-- P-521 -->
      <g style="fill: #262626" transform="translate(172.815 386.01225) scale(0.24 -0.24)">
       <defs>
        <path id="DejaVuSans-50" d="M 1259 4147 
L 1259 2394 
L 2053 2394 
Q 2494 2394 2734 2622 
Q 2975 2850 2975 3272 
Q 2975 3691 2734 3919 
Q 2494 4147 2053 4147 
L 1259 4147 
z
M 628 4666 
L 2053 4666 
Q 2838 4666 3239 4311 
Q 3641 3956 3641 3272 
Q 3641 2581 3239 2228 
Q 2838 1875 2053 1875 
L 1259 1875 
L 1259 0 
L 628 0 
L 628 4666 
z
" transform="scale(0.015625)"/>
        <path id="DejaVuSans-2d" d="M 313 2009 
L 1997 2009 
L 1997 1497 
L 313 1497 
L 313 2009 
z
" transform="scale(0.015625)"/>
        <path id="DejaVuSans-35" d="M 691 4666 
L 3169 4666 
L 3169 4134 
L 1269 4134 
L 1269 2991 
Q 1406 3038 1543 3061 
Q 1681 3084 1819 3084 
Q 2600 3084 3056 2656 
Q 3513 2228 3513 1497 
Q 3513 744 3044 326 
Q 2575 -91 1722 -91 
Q 1428 -91 1123 -41 
Q 819 9 494 109 
L 494 744 
Q 775 591 1075 516 
Q 1375 441 1709 441 
Q 2250 441 2565 725 
Q 2881 1009 2881 1497 
Q 2881 1984 2565 2268 
Q 2250 2553 1709 2553 
Q 1456 2553 1204 2497 
Q 953 2441 691 2322 
L 691 4666 
z
" transform="scale(0.015625)"/>
        <path id="DejaVuSans-32" d="M 1228 531 
L 3431 531 
L 3431 0 
L 469 0 
L 469 531 
Q 828 903 1448 1529 
Q 2069 2156 2228 2338 
Q 2531 2678 2651 2914 
Q 2772 3150 2772 3378 
Q 2772 3750 2511 3984 
Q 2250 4219 1831 4219 
Q 1534 4219 1204 4116 
Q 875 4013 500 3803 
L 500 4441 
Q 881 4594 1212 4672 
Q 1544 4750 1819 4750 
Q 2544 4750 2975 4387 
Q 3406 4025 3406 3419 
Q 3406 3131 3298 2873 
Q 3191 2616 2906 2266 
Q 2828 2175 2409 1742 
Q 1991 1309 1228 531 
z
" transform="scale(0.015625)"/>
        <path id="DejaVuSans-31" d="M 794 531 
L 1825 531 
L 1825 4091 
L 703 3866 
L 703 4441 
L 1819 4666 
L 2450 4666 
L 2450 531 
L 3481 531 
L 3481 0 
L 794 0 
L 794 531 
z
" transform="scale(0.015625)"/>
       </defs>
       <use xlink:href="#DejaVuSans-50"/>
       <use xlink:href="#DejaVuSans-2d" x="58.052734"/>
       <use xlink:href="#DejaVuSans-35" x="94.136719"/>
       <use xlink:href="#DejaVuSans-32" x="157.759766"/>
       <use xlink:href="#DejaVuSans-31" x="221.382812"/>
      </g>
     </g>
    </g>
    <g id="xtick_2">
     <g id="text_2">
      <!-- P-521 -->
      <g style="fill: #262626" transform="translate(430.425 386.01225) scale(0.24 -0.24)">
       <use xlink:href="#DejaVuSans-50"/>
       <use xlink:href="#DejaVuSans-2d" x="58.052734"/>
       <use xlink:href="#DejaVuSans-35" x="94.136719"/>
       <use xlink:href="#DejaVuSans-32" x="157.759766"/>
       <use xlink:href="#DejaVuSans-31" x="221.382812"/>
      </g>
      <!-- mlkem1024 -->
      <g style="fill: #262626" transform="translate(393.47625 412.887) scale(0.24 -0.24)">
       <defs>
        <path id="DejaVuSans-6d" d="M 3328 2828 
Q 3544 3216 3844 3400 
Q 4144 3584 4550 3584 
Q 5097 3584 5394 3201 
Q 5691 2819 5691 2113 
L 5691 0 
L 5113 0 
L 5113 2094 
Q 5113 2597 4934 2840 
Q 4756 3084 4391 3084 
Q 3944 3084 3684 2787 
Q 3425 2491 3425 1978 
L 3425 0 
L 2847 0 
L 2847 2094 
Q 2847 2600 2669 2842 
Q 2491 3084 2119 3084 
Q 1678 3084 1418 2786 
Q 1159 2488 1159 1978 
L 1159 0 
L 581 0 
L 581 3500 
L 1159 3500 
L 1159 2956 
Q 1356 3278 1631 3431 
Q 1906 3584 2284 3584 
Q 2666 3584 2933 3390 
Q 3200 3197 3328 2828 
z
" transform="scale(0.015625)"/>
        <path id="DejaVuSans-6c" d="M 603 4863 
L 1178 4863 
L 1178 0 
L 603 0 
L 603 4863 
z
" transform="scale(0.015625)"/>
        <path id="DejaVuSans-6b" d="M 581 4863 
L 1159 4863 
L 1159 1991 
L 2875 3500 
L 3609 3500 
L 1753 1863 
L 3688 0 
L 2938 0 
L 1159 1709 
L 1159 0 
L 581 0 
L 581 4863 
z
" transform="scale(0.015625)"/>
        <path id="DejaVuSans-65" d="M 3597 1894 
L 3597 1613 
L 953 1613 
Q 991 1019 1311 708 
Q 1631 397 2203 397 
Q 2534 397 2845 478 
Q 3156 559 3463 722 
L 3463 178 
Q 3153 47 2828 -22 
Q 2503 -91 2169 -91 
Q 1331 -91 842 396 
Q 353 884 353 1716 
Q 353 2575 817 3079 
Q 1281 3584 2069 3584 
Q 2775 3584 3186 3129 
Q 3597 2675 3597 1894 
z
M 3022 2063 
Q 3016 2534 2758 2815 
Q 2500 3097 2075 3097 
Q 1594 3097 1305 2825 
Q 1016 2553 972 2059 
L 3022 2063 
z
" transform="scale(0.015625)"/>
        <path id="DejaVuSans-30" d="M 2034 4250 
Q 1547 4250 1301 3770 
Q 1056 3291 1056 2328 
Q 1056 1369 1301 889 
Q 1547 409 2034 409 
Q 2525 409 2770 889 
Q 3016 1369 3016 2328 
Q 3016 3291 2770 3770 
Q 2525 4250 2034 4250 
z
M 2034 4750 
Q 2819 4750 3233 4129 
Q 3647 3509 3647 2328 
Q 3647 1150 3233 529 
Q 2819 -91 2034 -91 
Q 1250 -91 836 529 
Q 422 1150 422 2328 
Q 422 3509 836 4129 
Q 1250 4750 2034 4750 
z
" transform="scale(0.015625)"/>
        <path id="DejaVuSans-34" d="M 2419 4116 
L 825 1625 
L 2419 1625 
L 2419 4116 
z
M 2253 4666 
L 3047 4666 
L 3047 1625 
L 3713 1625 
L 3713 1100 
L 3047 1100 
L 3047 0 
L 2419 0 
L 2419 1100 
L 313 1100 
L 313 1709 
L 2253 4666 
z
" transform="scale(0.015625)"/>
       </defs>
       <use xlink:href="#DejaVuSans-6d"/>
       <use xlink:href="#DejaVuSans-6c" x="97.412109"/>
       <use xlink:href="#DejaVuSans-6b" x="125.195312"/>
       <use xlink:href="#DejaVuSans-65" x="179.480469"/>
       <use xlink:href="#DejaVuSans-6d" x="241.003906"/>
       <use xlink:href="#DejaVuSans-31" x="338.416016"/>
       <use xlink:href="#DejaVuSans-30" x="402.039062"/>
       <use xlink:href="#DejaVuSans-32" x="465.662109"/>
       <use xlink:href="#DejaVuSans-34" x="529.285156"/>
      </g>
     </g>
    </g>
    <g id="xtick_3">
     <g id="text_3">
      <!-- mlkem1024 -->
      <g style="fill: #262626" transform="translate(651.08625 386.01225) scale(0.24 -0.24)">
       <use xlink:href="#DejaVuSans-6d"/>
       <use xlink:href="#DejaVuSans-6c" x="97.412109"/>
       <use xlink:href="#DejaVuSans-6b" x="125.195312"/>
       <use xlink:href="#DejaVuSans-65" x="179.480469"/>
       <use xlink:href="#DejaVuSans-6d" x="241.003906"/>
       <use xlink:href="#DejaVuSans-31" x="338.416016"/>
       <use xlink:href="#DejaVuSans-30" x="402.039062"/>
       <use xlink:href="#DejaVuSans-32" x="465.662109"/>
       <use xlink:href="#DejaVuSans-34" x="529.285156"/>
      </g>
     </g>
    </g>
   </g>
   <g id="matplotlib.axis_2">
    <g id="ytick_1">
     <g id="line2d_1">
      <path d="M 78.21 358.276 
L 851.04 358.276 
" clip-path="url(#pf527e04a3a)" style="fill: none; stroke: #cccccc; stroke-linecap: round"/>
     </g>
     <g id="text_4">
      <!-- 0 -->
      <g style="fill: #262626" transform="translate(55.985 365.874437) scale(0.2 -0.2)">
       <use xlink:href="#DejaVuSans-30"/>
      </g>
     </g>
    </g>
    <g id="ytick_2">
     <g id="line2d_2">
      <path d="M 78.21 310.076571 
L 851.04 310.076571 
" clip-path="url(#pf527e04a3a)" style="fill: none; stroke: #cccccc; stroke-linecap: round"/>
     </g>
     <g id="text_5">
      <!-- 20 -->
      <g style="fill: #262626" transform="translate(43.26 317.675009) scale(0.2 -0.2)">
       <use xlink:href="#DejaVuSans-32"/>
       <use xlink:href="#DejaVuSans-30" x="63.623047"/>
      </g>
     </g>
    </g>
    <g id="ytick_3">
     <g id="line2d_3">
      <path d="M 78.21 261.877143 
L 851.04 261.877143 
" clip-path="url(#pf527e04a3a)" style="fill: none; stroke: #cccccc; stroke-linecap: round"/>
     </g>
     <g id="text_6">
      <!-- 40 -->
      <g style="fill: #262626" transform="translate(43.26 269.47558) scale(0.2 -0.2)">
       <use xlink:href="#DejaVuSans-34"/>
       <use xlink:href="#DejaVuSans-30" x="63.623047"/>
      </g>
     </g>
    </g>
    <g id="ytick_4">
     <g id="line2d_4">
      <path d="M 78.21 213.677714 
L 851.04 213.677714 
" clip-path="url(#pf527e04a3a)" style="fill: none; stroke: #cccccc; stroke-linecap: round"/>
     </g>
     <g id="text_7">
      <!-- 60 -->
      <g style="fill: #262626" transform="translate(43.26 221.276152) scale(0.2 -0.2)">
       <defs>
        <path id="DejaVuSans-36" d="M 2113 2584 
Q 1688 2584 1439 2293 
Q 1191 2003 1191 1497 
Q 1191 994 1439 701 
Q 1688 409 2113 409 
Q 2538 409 2786 701 
Q 3034 994 3034 1497 
Q 3034 2003 2786 2293 
Q 2538 2584 2113 2584 
z
M 3366 4563 
L 3366 3988 
Q 3128 4100 2886 4159 
Q 2644 4219 2406 4219 
Q 1781 4219 1451 3797 
Q 1122 3375 1075 2522 
Q 1259 2794 1537 2939 
Q 1816 3084 2150 3084 
Q 2853 3084 3261 2657 
Q 3669 2231 3669 1497 
Q 3669 778 3244 343 
Q 2819 -91 2113 -91 
Q 1303 -91 875 529 
Q 447 1150 447 2328 
Q 447 3434 972 4092 
Q 1497 4750 2381 4750 
Q 2619 4750 2861 4703 
Q 3103 4656 3366 4563 
z
" transform="scale(0.015625)"/>
       </defs>
       <use xlink:href="#DejaVuSans-36"/>
       <use xlink:href="#DejaVuSans-30" x="63.623047"/>
      </g>
     </g>
    </g>
    <g id="ytick_5">
     <g id="line2d_5">
      <path d="M 78.21 165.478286 
L 851.04 165.478286 
" clip-path="url(#pf527e04a3a)" style="fill: none; stroke: #cccccc; stroke-linecap: round"/>
     </g>
     <g id="text_8">
      <!-- 80 -->
      <g style="fill: #262626" transform="translate(43.26 173.076723) scale(0.2 -0.2)">
       <defs>
        <path id="DejaVuSans-38" d="M 2034 2216 
Q 1584 2216 1326 1975 
Q 1069 1734 1069 1313 
Q 1069 891 1326 650 
Q 1584 409 2034 409 
Q 2484 409 2743 651 
Q 3003 894 3003 1313 
Q 3003 1734 2745 1975 
Q 2488 2216 2034 2216 
z
M 1403 2484 
Q 997 2584 770 2862 
Q 544 3141 544 3541 
Q 544 4100 942 4425 
Q 1341 4750 2034 4750 
Q 2731 4750 3128 4425 
Q 3525 4100 3525 3541 
Q 3525 3141 3298 2862 
Q 3072 2584 2669 2484 
Q 3125 2378 3379 2068 
Q 3634 1759 3634 1313 
Q 3634 634 3220 271 
Q 2806 -91 2034 -91 
Q 1263 -91 848 271 
Q 434 634 434 1313 
Q 434 1759 690 2068 
Q 947 2378 1403 2484 
z
M 1172 3481 
Q 1172 3119 1398 2916 
Q 1625 2713 2034 2713 
Q 2441 2713 2670 2916 
Q 2900 3119 2900 3481 
Q 2900 3844 2670 4047 
Q 2441 4250 2034 4250 
Q 1625 4250 1398 4047 
Q 1172 3844 1172 3481 
z
" transform="scale(0.015625)"/>
       </defs>
       <use xlink:href="#DejaVuSans-38"/>
       <use xlink:href="#DejaVuSans-30" x="63.623047"/>
      </g>
     </g>
    </g>
    <g id="ytick_6">
     <g id="line2d_6">
      <path d="M 78.21 117.278857 
L 851.04 117.278857 
" clip-path="url(#pf527e04a3a)" style="fill: none; stroke: #cccccc; stroke-linecap: round"/>
     </g>
     <g id="text_9">
      <!-- 100 -->
      <g style="fill: #262626" transform="translate(30.535 124.877295) scale(0.2 -0.2)">
       <use xlink:href="#DejaVuSans-31"/>
       <use xlink:href="#DejaVuSans-30" x="63.623047"/>
       <use xlink:href="#DejaVuSans-30" x="127.246094"/>
      </g>
     </g>
    </g>
    <g id="ytick_7">
     <g id="line2d_7">
      <path d="M 78.21 69.079429 
L 851.04 69.079429 
" clip-path="url(#pf527e04a3a)" style="fill: none; stroke: #cccccc; stroke-linecap: round"/>
     </g>
     <g id="text_10">
      <!-- 120 -->
      <g style="fill: #262626" transform="translate(30.535 76.677866) scale(0.2 -0.2)">
       <use xlink:href="#DejaVuSans-31"/>
       <use xlink:href="#DejaVuSans-32" x="63.623047"/>
       <use xlink:href="#DejaVuSans-30" x="127.246094"/>
      </g>
     </g>
    </g>
    <g id="ytick_8">
     <g id="line2d_8">
      <path d="M 78.21 20.88 
L 851.04 20.88 
" clip-path="url(#pf527e04a3a)" style="fill: none; stroke: #cccccc; stroke-linecap: round"/>
     </g>
     <g id="text_11">
      <!-- 140 -->
      <g style="fill: #262626" transform="translate(30.535 28.478438) scale(0.2 -0.2)">
       <use xlink:href="#DejaVuSans-31"/>
       <use xlink:href="#DejaVuSans-34" x="63.623047"/>
       <use xlink:href="#DejaVuSans-30" x="127.246094"/>
      </g>
     </g>
    </g>
    <g id="text_12">
     <!-- Handshake duration (ms) -->
     <g style="fill: #262626" transform="translate(23.623437 278.323781) rotate(-90) scale(0.14 -0.14)">
      <defs>
       <path id="DejaVuSans-48" d="M 628 4666 
L 1259 4666 
L 1259 2753 
L 3553 2753 
L 3553 4666 
L 4184 4666 
L 4184 0 
L 3553 0 
L 3553 2222 
L 1259 2222 
L 1259 0 
L 628 0 
L 628 4666 
z
" transform="scale(0.015625)"/>
       <path id="DejaVuSans-61" d="M 2194 1759 
Q 1497 1759 1228 1600 
Q 959 1441 959 1056 
Q 959 750 1161 570 
Q 1363 391 1709 391 
Q 2188 391 2477 730 
Q 2766 1069 2766 1631 
L 2766 1759 
L 2194 1759 
z
M 3341 1997 
L 3341 0 
L 2766 0 
L 2766 531 
Q 2569 213 2275 61 
Q 1981 -91 1556 -91 
Q 1019 -91 701 211 
Q 384 513 384 1019 
Q 384 1609 779 1909 
Q 1175 2209 1959 2209 
L 2766 2209 
L 2766 2266 
Q 2766 2663 2505 2880 
Q 2244 3097 1772 3097 
Q 1472 3097 1187 3025 
Q 903 2953 641 2809 
L 641 3341 
Q 956 3463 1253 3523 
Q 1550 3584 1831 3584 
Q 2591 3584 2966 3190 
Q 3341 2797 3341 1997 
z
" transform="scale(0.015625)"/>
       <path id="DejaVuSans-6e" d="M 3513 2113 
L 3513 0 
L 2938 0 
L 2938 2094 
Q 2938 2591 2744 2837 
Q 2550 3084 2163 3084 
Q 1697 3084 1428 2787 
Q 1159 2491 1159 1978 
L 1159 0 
L 581 0 
L 581 3500 
L 1159 3500 
L 1159 2956 
Q 1366 3272 1645 3428 
Q 1925 3584 2291 3584 
Q 2894 3584 3203 3211 
Q 3513 2838 3513 2113 
z
" transform="scale(0.015625)"/>
       <path id="DejaVuSans-64" d="M 2906 2969 
L 2906 4863 
L 3481 4863 
L 3481 0 
L 2906 0 
L 2906 525 
Q 2725 213 2448 61 
Q 2172 -91 1784 -91 
Q 1150 -91 751 415 
Q 353 922 353 1747 
Q 353 2572 751 3078 
Q 1150 3584 1784 3584 
Q 2172 3584 2448 3432 
Q 2725 3281 2906 2969 
z
M 947 1747 
Q 947 1113 1208 752 
Q 1469 391 1925 391 
Q 2381 391 2643 752 
Q 2906 1113 2906 1747 
Q 2906 2381 2643 2742 
Q 2381 3103 1925 3103 
Q 1469 3103 1208 2742 
Q 947 2381 947 1747 
z
" transform="scale(0.015625)"/>
       <path id="DejaVuSans-73" d="M 2834 3397 
L 2834 2853 
Q 2591 2978 2328 3040 
Q 2066 3103 1784 3103 
Q 1356 3103 1142 2972 
Q 928 2841 928 2578 
Q 928 2378 1081 2264 
Q 1234 2150 1697 2047 
L 1894 2003 
Q 2506 1872 2764 1633 
Q 3022 1394 3022 966 
Q 3022 478 2636 193 
Q 2250 -91 1575 -91 
Q 1294 -91 989 -36 
Q 684 19 347 128 
L 347 722 
Q 666 556 975 473 
Q 1284 391 1588 391 
Q 1994 391 2212 530 
Q 2431 669 2431 922 
Q 2431 1156 2273 1281 
Q 2116 1406 1581 1522 
L 1381 1569 
Q 847 1681 609 1914 
Q 372 2147 372 2553 
Q 372 3047 722 3315 
Q 1072 3584 1716 3584 
Q 2034 3584 2315 3537 
Q 2597 3491 2834 3397 
z
" transform="scale(0.015625)"/>
       <path id="DejaVuSans-68" d="M 3513 2113 
L 3513 0 
L 2938 0 
L 2938 2094 
Q 2938 2591 2744 2837 
Q 2550 3084 2163 3084 
Q 1697 3084 1428 2787 
Q 1159 2491 1159 1978 
L 1159 0 
L 581 0 
L 581 4863 
L 1159 4863 
L 1159 2956 
Q 1366 3272 1645 3428 
Q 1925 3584 2291 3584 
Q 2894 3584 3203 3211 
Q 3513 2838 3513 2113 
z
" transform="scale(0.015625)"/>
       <path id="DejaVuSans-20" transform="scale(0.015625)"/>
       <path id="DejaVuSans-75" d="M 544 1381 
L 544 3500 
L 1119 3500 
L 1119 1403 
Q 1119 906 1312 657 
Q 1506 409 1894 409 
Q 2359 409 2629 706 
Q 2900 1003 2900 1516 
L 2900 3500 
L 3475 3500 
L 3475 0 
L 2900 0 
L 2900 538 
Q 2691 219 2414 64 
Q 2138 -91 1772 -91 
Q 1169 -91 856 284 
Q 544 659 544 1381 
z
M 1991 3584 
L 1991 3584 
z
" transform="scale(0.015625)"/>
       <path id="DejaVuSans-72" d="M 2631 2963 
Q 2534 3019 2420 3045 
Q 2306 3072 2169 3072 
Q 1681 3072 1420 2755 
Q 1159 2438 1159 1844 
L 1159 0 
L 581 0 
L 581 3500 
L 1159 3500 
L 1159 2956 
Q 1341 3275 1631 3429 
Q 1922 3584 2338 3584 
Q 2397 3584 2469 3576 
Q 2541 3569 2628 3553 
L 2631 2963 
z
" transform="scale(0.015625)"/>
       <path id="DejaVuSans-74" d="M 1172 4494 
L 1172 3500 
L 2356 3500 
L 2356 3053 
L 1172 3053 
L 1172 1153 
Q 1172 725 1289 603 
Q 1406 481 1766 481 
L 2356 481 
L 2356 0 
L 1766 0 
Q 1100 0 847 248 
Q 594 497 594 1153 
L 594 3053 
L 172 3053 
L 172 3500 
L 594 3500 
L 594 4494 
L 1172 4494 
z
" transform="scale(0.015625)"/>
       <path id="DejaVuSans-69" d="M 603 3500 
L 1178 3500 
L 1178 0 
L 603 0 
L 603 3500 
z
M 603 4863 
L 1178 4863 
L 1178 4134 
L 603 4134 
L 603 4863 
z
" transform="scale(0.015625)"/>
       <path id="DejaVuSans-6f" d="M 1959 3097 
Q 1497 3097 1228 2736 
Q 959 2375 959 1747 
Q 959 1119 1226 758 
Q 1494 397 1959 397 
Q 2419 397 2687 759 
Q 2956 1122 2956 1747 
Q 2956 2369 2687 2733 
Q 2419 3097 1959 3097 
z
M 1959 3584 
Q 2709 3584 3137 3096 
Q 3566 2609 3566 1747 
Q 3566 888 3137 398 
Q 2709 -91 1959 -91 
Q 1206 -91 779 398 
Q 353 888 353 1747 
Q 353 2609 779 3096 
Q 1206 3584 1959 3584 
z
" transform="scale(0.015625)"/>
       <path id="DejaVuSans-28" d="M 1984 4856 
Q 1566 4138 1362 3434 
Q 1159 2731 1159 2009 
Q 1159 1288 1364 580 
Q 1569 -128 1984 -844 
L 1484 -844 
Q 1016 -109 783 600 
Q 550 1309 550 2009 
Q 550 2706 781 3412 
Q 1013 4119 1484 4856 
L 1984 4856 
z
" transform="scale(0.015625)"/>
       <path id="DejaVuSans-29" d="M 513 4856 
L 1013 4856 
Q 1481 4119 1714 3412 
Q 1947 2706 1947 2009 
Q 1947 1309 1714 600 
Q 1481 -109 1013 -844 
L 513 -844 
Q 928 -128 1133 580 
Q 1338 1288 1338 2009 
Q 1338 2731 1133 3434 
Q 928 4138 513 4856 
z
" transform="scale(0.015625)"/>
      </defs>
      <use xlink:href="#DejaVuSans-48"/>
      <use xlink:href="#DejaVuSans-61" x="75.195312"/>
      <use xlink:href="#DejaVuSans-6e" x="136.474609"/>
      <use xlink:href="#DejaVuSans-64" x="199.853516"/>
      <use xlink:href="#DejaVuSans-73" x="263.330078"/>
      <use xlink:href="#DejaVuSans-68" x="315.429688"/>
      <use xlink:href="#DejaVuSans-61" x="378.808594"/>
      <use xlink:href="#DejaVuSans-6b" x="440.087891"/>
      <use xlink:href="#DejaVuSans-65" x="494.373047"/>
      <use xlink:href="#DejaVuSans-20" x="555.896484"/>
      <use xlink:href="#DejaVuSans-64" x="587.683594"/>
      <use xlink:href="#DejaVuSans-75" x="651.160156"/>
      <use xlink:href="#DejaVuSans-72" x="714.539062"/>
      <use xlink:href="#DejaVuSans-61" x="755.652344"/>
      <use xlink:href="#DejaVuSans-74" x="816.931641"/>
      <use xlink:href="#DejaVuSans-69" x="856.140625"/>
      <use xlink:href="#DejaVuSans-6f" x="883.923828"/>
      <use xlink:href="#DejaVuSans-6e" x="945.105469"/>
      <use xlink:href="#DejaVuSans-20" x="1008.484375"/>
      <use xlink:href="#DejaVuSans-28" x="1040.271484"/>
      <use xlink:href="#DejaVuSans-6d" x="1079.285156"/>
      <use xlink:href="#DejaVuSans-73" x="1176.697266"/>
      <use xlink:href="#DejaVuSans-29" x="1228.796875"/>
     </g>
    </g>
   </g>
   <g id="PolyCollection_1">
    <defs>
     <path id="m23fe85490a" d="M 209.774822 -89.152816 
L 204.255178 -89.152816 
L 202.764399 -89.318248 
L 200.651677 -89.483681 
L 197.754368 -89.649113 
L 193.91167 -89.814545 
L 188.98597 -89.979978 
L 182.889111 -90.14541 
L 175.610459 -90.310843 
L 167.24207 -90.476275 
L 157.995383 -90.641707 
L 148.204011 -90.80714 
L 138.308779 -90.972572 
L 128.824 -91.138005 
L 120.287736 -91.303437 
L 113.202472 -91.46887 
L 107.975502 -91.634302 
L 104.869306 -91.799734 
L 103.971 -91.965167 
L 105.186581 -92.130599 
L 108.260977 -92.296032 
L 112.819873 -92.461464 
L 118.425188 -92.626896 
L 124.633889 -92.792329 
L 131.049933 -92.957761 
L 137.361382 -93.123194 
L 143.358471 -93.288626 
L 148.93253 -93.454058 
L 154.059336 -93.619491 
L 158.772782 -93.784923 
L 163.135583 -93.950356 
L 167.212981 -94.115788 
L 171.053682 -94.28122 
L 174.679958 -94.446653 
L 178.08671 -94.612085 
L 181.247592 -94.777518 
L 184.125376 -94.94295 
L 186.683526 -95.108382 
L 188.896364 -95.273815 
L 190.755934 -95.439247 
L 192.274644 -95.60468 
L 193.483596 -95.770112 
L 194.427272 -95.935545 
L 195.155782 -96.100977 
L 195.716185 -96.266409 
L 196.144467 -96.431842 
L 196.45964 -96.597274 
L 196.661073 -96.762707 
L 196.729636 -96.928139 
L 196.632593 -97.093571 
L 196.331525 -97.259004 
L 195.792002 -97.424436 
L 194.993331 -97.589869 
L 193.936664 -97.755301 
L 192.64996 -97.920733 
L 191.188809 -98.086166 
L 189.632873 -98.251598 
L 188.078421 -98.417031 
L 186.628161 -98.582463 
L 185.379994 -98.747895 
L 184.416475 -98.913328 
L 183.796565 -99.07876 
L 183.55077 -99.244193 
L 183.680153 -99.409625 
L 184.158984 -99.575058 
L 184.940298 -99.74049 
L 185.963215 -99.905922 
L 187.160825 -100.071355 
L 188.467487 -100.236787 
L 189.824686 -100.40222 
L 191.184935 -100.567652 
L 192.513535 -100.733084 
L 193.788374 -100.898517 
L 194.99815 -101.063949 
L 196.139603 -101.229382 
L 197.214374 -101.394814 
L 198.226069 -101.560246 
L 199.177983 -101.725679 
L 200.07174 -101.891111 
L 200.90688 -102.056544 
L 201.681256 -102.221976 
L 202.39195 -102.387408 
L 203.036361 -102.552841 
L 203.613187 -102.718273 
L 204.123044 -102.883706 
L 204.568655 -103.049138 
L 204.954618 -103.21457 
L 205.286863 -103.380003 
L 205.571961 -103.545435 
L 205.816442 -103.710868 
L 206.026257 -103.8763 
L 206.20644 -104.041733 
L 206.36101 -104.207165 
L 206.493056 -104.372597 
L 206.604945 -104.53803 
L 206.69859 -104.703462 
L 206.775691 -104.868895 
L 206.837915 -105.034327 
L 206.886994 -105.199759 
L 206.924734 -105.365192 
L 206.952975 -105.530624 
L 207.077025 -105.530624 
L 207.077025 -105.530624 
L 207.105266 -105.365192 
L 207.143006 -105.199759 
L 207.192085 -105.034327 
L 207.254309 -104.868895 
L 207.33141 -104.703462 
L 207.425055 -104.53803 
L 207.536944 -104.372597 
L 207.66899 -104.207165 
L 207.82356 -104.041733 
L 208.003743 -103.8763 
L 208.213558 -103.710868 
L 208.458039 -103.545435 
L 208.743137 -103.380003 
L 209.075382 -103.21457 
L 209.461345 -103.049138 
L 209.906956 -102.883706 
L 210.416813 -102.718273 
L 210.993639 -102.552841 
L 211.63805 -102.387408 
L 212.348744 -102.221976 
L 213.12312 -102.056544 
L 213.95826 -101.891111 
L 214.852017 -101.725679 
L 215.803931 -101.560246 
L 216.815626 -101.394814 
L 217.890397 -101.229382 
L 219.03185 -101.063949 
L 220.241626 -100.898517 
L 221.516465 -100.733084 
L 222.845065 -100.567652 
L 224.205314 -100.40222 
L 225.562513 -100.236787 
L 226.869175 -100.071355 
L 228.066785 -99.905922 
L 229.089702 -99.74049 
L 229.871016 -99.575058 
L 230.349847 -99.409625 
L 230.47923 -99.244193 
L 230.233435 -99.07876 
L 229.613525 -98.913328 
L 228.650006 -98.747895 
L 227.401839 -98.582463 
L 225.951579 -98.417031 
L 224.397127 -98.251598 
L 222.841191 -98.086166 
L 221.38004 -97.920733 
L 220.093336 -97.755301 
L 219.036669 -97.589869 
L 218.237998 -97.424436 
L 217.698475 -97.259004 
L 217.397407 -97.093571 
L 217.300364 -96.928139 
L 217.368927 -96.762707 
L 217.57036 -96.597274 
L 217.885533 -96.431842 
L 218.313815 -96.266409 
L 218.874218 -96.100977 
L 219.602728 -95.935545 
L 220.546404 -95.770112 
L 221.755356 -95.60468 
L 223.274066 -95.439247 
L 225.133636 -95.273815 
L 227.346474 -95.108382 
L 229.904624 -94.94295 
L 232.782408 -94.777518 
L 235.94329 -94.612085 
L 239.350042 -94.446653 
L 242.976318 -94.28122 
L 246.817019 -94.115788 
L 250.894417 -93.950356 
L 255.257218 -93.784923 
L 259.970664 -93.619491 
L 265.09747 -93.454058 
L 270.671529 -93.288626 
L 276.668618 -93.123194 
L 282.980067 -92.957761 
L 289.396111 -92.792329 
L 295.604812 -92.626896 
L 301.210127 -92.461464 
L 305.769023 -92.296032 
L 308.843419 -92.130599 
L 310.059 -91.965167 
L 309.160694 -91.799734 
L 306.054498 -91.634302 
L 300.827528 -91.46887 
L 293.742264 -91.303437 
L 285.206 -91.138005 
L 275.721221 -90.972572 
L 265.825989 -90.80714 
L 256.034617 -90.641707 
L 246.78793 -90.476275 
L 238.419541 -90.310843 
L 231.140889 -90.14541 
L 225.04403 -89.979978 
L 220.11833 -89.814545 
L 216.275632 -89.649113 
L 213.378323 -89.483681 
L 211.265601 -89.318248 
L 209.774822 -89.152816 
z
" style="stroke: #595959; stroke-width: 1.25"/>
    </defs>
    <g clip-path="url(#pf527e04a3a)">
     <use xlink:href="#m23fe85490a" x="0" y="432" style="fill: #72b6a1; stroke: #595959; stroke-width: 1.25"/>
    </g>
   </g>
   <g id="PolyCollection_2">
    <defs>
     <path id="mae1660890a" d="M 467.239767 -110.123602 
L 462.010233 -110.123602 
L 460.021207 -110.715445 
L 456.909062 -111.307287 
L 452.309509 -111.89913 
L 445.895675 -112.490973 
L 437.470861 -113.082816 
L 427.071618 -113.674659 
L 415.052899 -114.266502 
L 402.122258 -114.858344 
L 389.296812 -115.450187 
L 377.775603 -116.04203 
L 368.746011 -116.633873 
L 363.166639 -117.225716 
L 361.581 -117.817558 
L 364.010952 -118.409401 
L 369.957527 -119.001244 
L 378.507253 -119.593087 
L 388.514463 -120.18493 
L 398.812994 -120.776772 
L 408.408198 -121.368615 
L 416.610868 -121.960458 
L 423.093578 -122.552301 
L 427.870419 -123.144144 
L 431.217721 -123.735987 
L 433.562667 -124.327829 
L 435.36813 -124.919672 
L 437.037005 -125.511515 
L 438.850486 -126.103358 
L 440.944782 -126.695201 
L 443.322111 -127.287043 
L 445.885788 -127.878886 
L 448.486547 -128.470729 
L 450.967744 -129.062572 
L 453.200042 -129.654415 
L 455.10044 -130.246258 
L 456.634882 -130.8381 
L 457.807322 -131.429943 
L 458.640543 -132.021786 
L 459.155231 -132.613629 
L 459.353802 -133.205472 
L 459.214225 -133.797314 
L 458.696578 -134.389157 
L 457.761539 -134.981 
L 456.396091 -135.572843 
L 454.638654 -136.164686 
L 452.594895 -136.756528 
L 450.437338 -137.348371 
L 448.386399 -137.940214 
L 446.67624 -138.532057 
L 445.513733 -139.1239 
L 445.041139 -139.715743 
L 445.311851 -140.307585 
L 446.284537 -140.899428 
L 447.835702 -141.491271 
L 449.786163 -142.083114 
L 451.93432 -142.674957 
L 454.088748 -143.266799 
L 456.094043 -143.858642 
L 457.846203 -144.450485 
L 459.296417 -145.042328 
L 460.44458 -145.634171 
L 461.32566 -146.226014 
L 461.993076 -146.817856 
L 462.503177 -147.409699 
L 462.903908 -148.001542 
L 463.229089 -148.593385 
L 463.498026 -149.185228 
L 463.718903 -149.77707 
L 463.893897 -150.368913 
L 464.024087 -150.960756 
L 464.112875 -151.552599 
L 464.167362 -152.144442 
L 464.197842 -152.736284 
L 464.215979 -153.328127 
L 464.23249 -153.91997 
L 464.255127 -154.511813 
L 464.287526 -155.103656 
L 464.329163 -155.695499 
L 464.376252 -156.287341 
L 464.423202 -156.879184 
L 464.464101 -157.471027 
L 464.493883 -158.06287 
L 464.509012 -158.654713 
L 464.507775 -159.246555 
L 464.490374 -159.838398 
L 464.458959 -160.430241 
L 464.417591 -161.022084 
L 464.372011 -161.613927 
L 464.329042 -162.20577 
L 464.295571 -162.797612 
L 464.27727 -163.389455 
L 464.277408 -163.981298 
L 464.296151 -164.573141 
L 464.330611 -165.164984 
L 464.375653 -165.756826 
L 464.425185 -166.348669 
L 464.47351 -166.940512 
L 464.51634 -167.532355 
L 464.551263 -168.124198 
L 464.57766 -168.71604 
L 464.67234 -168.71604 
L 464.67234 -168.71604 
L 464.698737 -168.124198 
L 464.73366 -167.532355 
L 464.77649 -166.940512 
L 464.824815 -166.348669 
L 464.874347 -165.756826 
L 464.919389 -165.164984 
L 464.953849 -164.573141 
L 464.972592 -163.981298 
L 464.97273 -163.389455 
L 464.954429 -162.797612 
L 464.920958 -162.20577 
L 464.877989 -161.613927 
L 464.832409 -161.022084 
L 464.791041 -160.430241 
L 464.759626 -159.838398 
L 464.742225 -159.246555 
L 464.740988 -158.654713 
L 464.756117 -158.06287 
L 464.785899 -157.471027 
L 464.826798 -156.879184 
L 464.873748 -156.287341 
L 464.920837 -155.695499 
L 464.962474 -155.103656 
L 464.994873 -154.511813 
L 465.01751 -153.91997 
L 465.034021 -153.328127 
L 465.052158 -152.736284 
L 465.082638 -152.144442 
L 465.137125 -151.552599 
L 465.225913 -150.960756 
L 465.356103 -150.368913 
L 465.531097 -149.77707 
L 465.751974 -149.185228 
L 466.020911 -148.593385 
L 466.346092 -148.001542 
L 466.746823 -147.409699 
L 467.256924 -146.817856 
L 467.92434 -146.226014 
L 468.80542 -145.634171 
L 469.953583 -145.042328 
L 471.403797 -144.450485 
L 473.155957 -143.858642 
L 475.161252 -143.266799 
L 477.31568 -142.674957 
L 479.463837 -142.083114 
L 481.414298 -141.491271 
L 482.965463 -140.899428 
L 483.938149 -140.307585 
L 484.208861 -139.715743 
L 483.736267 -139.1239 
L 482.57376 -138.532057 
L 480.863601 -137.940214 
L 478.812662 -137.348371 
L 476.655105 -136.756528 
L 474.611346 -136.164686 
L 472.853909 -135.572843 
L 471.488461 -134.981 
L 470.553422 -134.389157 
L 470.035775 -133.797314 
L 469.896198 -133.205472 
L 470.094769 -132.613629 
L 470.609457 -132.021786 
L 471.442678 -131.429943 
L 472.615118 -130.8381 
L 474.14956 -130.246258 
L 476.049958 -129.654415 
L 478.282256 -129.062572 
L 480.763453 -128.470729 
L 483.364212 -127.878886 
L 485.927889 -127.287043 
L 488.305218 -126.695201 
L 490.399514 -126.103358 
L 492.212995 -125.511515 
L 493.88187 -124.919672 
L 495.687333 -124.327829 
L 498.032279 -123.735987 
L 501.379581 -123.144144 
L 506.156422 -122.552301 
L 512.639132 -121.960458 
L 520.841802 -121.368615 
L 530.437006 -120.776772 
L 540.735537 -120.18493 
L 550.742747 -119.593087 
L 559.292473 -119.001244 
L 565.239048 -118.409401 
L 567.669 -117.817558 
L 566.083361 -117.225716 
L 560.503989 -116.633873 
L 551.474397 -116.04203 
L 539.953188 -115.450187 
L 527.127742 -114.858344 
L 514.197101 -114.266502 
L 502.178382 -113.674659 
L 491.779139 -113.082816 
L 483.354325 -112.490973 
L 476.940491 -111.89913 
L 472.340938 -111.307287 
L 469.228793 -110.715445 
L 467.239767 -110.123602 
z
" style="stroke: #595959; stroke-width: 1.25"/>
    </defs>
    <g clip-path="url(#pf527e04a3a)">
     <use xlink:href="#mae1660890a" x="0" y="432" style="fill: #e99675; stroke: #595959; stroke-width: 1.25"/>
    </g>
   </g>
   <g id="PolyCollection_3">
    <defs>
     <path id="me54c6a866c" d="M 724.55528 -83.255992 
L 719.91472 -83.255992 
L 718.349452 -83.389381 
L 715.97985 -83.522771 
L 712.551702 -83.65616 
L 707.815614 -83.789549 
L 701.573595 -83.922938 
L 693.735888 -84.056328 
L 684.377571 -84.189717 
L 673.780294 -84.323106 
L 662.443812 -84.456495 
L 651.056097 -84.589884 
L 640.419668 -84.723274 
L 631.343379 -84.856663 
L 624.519722 -84.990052 
L 620.414017 -85.123441 
L 619.191 -85.256831 
L 620.696156 -85.39022 
L 624.495839 -85.523609 
L 629.965872 -85.656998 
L 636.407194 -85.790387 
L 643.16224 -85.923777 
L 649.707953 -86.057166 
L 655.7094 -86.190555 
L 661.028943 -86.323944 
L 665.696614 -86.457334 
L 669.855005 -86.590723 
L 673.695212 -86.724112 
L 677.399061 -86.857501 
L 681.098213 -86.99089 
L 684.85458 -87.12428 
L 688.660677 -87.257669 
L 692.454422 -87.391058 
L 696.141155 -87.524447 
L 699.616102 -87.657837 
L 702.782384 -87.791226 
L 705.562207 -87.924615 
L 707.901151 -88.058004 
L 709.767175 -88.191393 
L 711.146807 -88.324783 
L 712.041087 -88.458172 
L 712.463261 -88.591561 
L 712.439188 -88.72495 
L 712.010103 -88.85834 
L 711.236163 -88.991729 
L 710.198459 -89.125118 
L 708.997299 -89.258507 
L 707.745523 -89.391896 
L 706.557297 -89.525286 
L 705.534536 -89.658675 
L 704.754232 -89.792064 
L 704.260035 -89.925453 
L 704.060309 -90.058843 
L 704.132993 -90.192232 
L 704.435624 -90.325621 
L 704.917496 -90.45901 
L 705.530615 -90.592399 
L 706.236922 -90.725789 
L 707.010722 -90.859178 
L 707.836916 -90.992567 
L 708.706741 -91.125956 
L 709.613123 -91.259346 
L 710.547335 -91.392735 
L 711.497751 -91.526124 
L 712.45056 -91.659513 
L 713.391584 -91.792902 
L 714.308158 -91.926292 
L 715.19021 -92.059681 
L 716.030206 -92.19307 
L 716.82211 -92.326459 
L 717.559944 -92.459849 
L 718.236642 -92.593238 
L 718.843769 -92.726627 
L 719.372357 -92.860016 
L 719.814699 -92.993405 
L 720.166601 -93.126795 
L 720.429389 -93.260184 
L 720.610995 -93.393573 
L 720.725664 -93.526962 
L 720.792233 -93.660352 
L 720.831314 -93.793741 
L 720.862053 -93.92713 
L 720.899304 -94.060519 
L 720.951892 -94.193908 
L 721.022359 -94.327298 
L 721.108123 -94.460687 
L 721.203572 -94.594076 
L 721.302407 -94.727465 
L 721.39952 -94.860855 
L 721.49199 -94.994244 
L 721.579078 -95.127633 
L 721.661488 -95.261022 
L 721.740328 -95.394411 
L 721.816215 -95.527801 
L 721.888819 -95.66119 
L 721.956912 -95.794579 
L 722.018786 -95.927968 
L 722.072809 -96.061358 
L 722.1179 -96.194747 
L 722.153774 -96.328136 
L 722.18094 -96.461525 
L 722.28906 -96.461525 
L 722.28906 -96.461525 
L 722.316226 -96.328136 
L 722.3521 -96.194747 
L 722.397191 -96.061358 
L 722.451214 -95.927968 
L 722.513088 -95.794579 
L 722.581181 -95.66119 
L 722.653785 -95.527801 
L 722.729672 -95.394411 
L 722.808512 -95.261022 
L 722.890922 -95.127633 
L 722.97801 -94.994244 
L 723.07048 -94.860855 
L 723.167593 -94.727465 
L 723.266428 -94.594076 
L 723.361877 -94.460687 
L 723.447641 -94.327298 
L 723.518108 -94.193908 
L 723.570696 -94.060519 
L 723.607947 -93.92713 
L 723.638686 -93.793741 
L 723.677767 -93.660352 
L 723.744336 -93.526962 
L 723.859005 -93.393573 
L 724.040611 -93.260184 
L 724.303399 -93.126795 
L 724.655301 -92.993405 
L 725.097643 -92.860016 
L 725.626231 -92.726627 
L 726.233358 -92.593238 
L 726.910056 -92.459849 
L 727.64789 -92.326459 
L 728.439794 -92.19307 
L 729.27979 -92.059681 
L 730.161842 -91.926292 
L 731.078416 -91.792902 
L 732.01944 -91.659513 
L 732.972249 -91.526124 
L 733.922665 -91.392735 
L 734.856877 -91.259346 
L 735.763259 -91.125956 
L 736.633084 -90.992567 
L 737.459278 -90.859178 
L 738.233078 -90.725789 
L 738.939385 -90.592399 
L 739.552504 -90.45901 
L 740.034376 -90.325621 
L 740.337007 -90.192232 
L 740.409691 -90.058843 
L 740.209965 -89.925453 
L 739.715768 -89.792064 
L 738.935464 -89.658675 
L 737.912703 -89.525286 
L 736.724477 -89.391896 
L 735.472701 -89.258507 
L 734.271541 -89.125118 
L 733.233837 -88.991729 
L 732.459897 -88.85834 
L 732.030812 -88.72495 
L 732.006739 -88.591561 
L 732.428913 -88.458172 
L 733.323193 -88.324783 
L 734.702825 -88.191393 
L 736.568849 -88.058004 
L 738.907793 -87.924615 
L 741.687616 -87.791226 
L 744.853898 -87.657837 
L 748.328845 -87.524447 
L 752.015578 -87.391058 
L 755.809323 -87.257669 
L 759.61542 -87.12428 
L 763.371787 -86.99089 
L 767.070939 -86.857501 
L 770.774788 -86.724112 
L 774.614995 -86.590723 
L 778.773386 -86.457334 
L 783.441057 -86.323944 
L 788.7606 -86.190555 
L 794.762047 -86.057166 
L 801.30776 -85.923777 
L 808.062806 -85.790387 
L 814.504128 -85.656998 
L 819.974161 -85.523609 
L 823.773844 -85.39022 
L 825.279 -85.256831 
L 824.055983 -85.123441 
L 819.950278 -84.990052 
L 813.126621 -84.856663 
L 804.050332 -84.723274 
L 793.413903 -84.589884 
L 782.026188 -84.456495 
L 770.689706 -84.323106 
L 760.092429 -84.189717 
L 750.734112 -84.056328 
L 742.896405 -83.922938 
L 736.654386 -83.789549 
L 731.918298 -83.65616 
L 728.49015 -83.522771 
L 726.120548 -83.389381 
L 724.55528 -83.255992 
z
" style="stroke: #595959; stroke-width: 1.25"/>
    </defs>
    <g clip-path="url(#pf527e04a3a)">
     <use xlink:href="#me54c6a866c" x="0" y="432" style="fill: #95a3c3; stroke: #595959; stroke-width: 1.25"/>
    </g>
   </g>
   <g id="line2d_9">
    <path d="M 207.015 340.225314 
L 207.015 340.996505 
" clip-path="url(#pf527e04a3a)" style="fill: none; stroke: #000000"/>
   </g>
   <g id="line2d_10">
    <path d="M 207.015 337.351423 
L 207.015 333.067699 
" clip-path="url(#pf527e04a3a)" style="fill: none; stroke: #000000"/>
   </g>
   <g id="line2d_11">
    <path d="M 197.354625 340.996505 
L 216.675375 340.996505 
" clip-path="url(#pf527e04a3a)" style="fill: none; stroke: #000000; stroke-linecap: round"/>
   </g>
   <g id="line2d_12">
    <path d="M 197.354625 333.067699 
L 216.675375 333.067699 
" clip-path="url(#pf527e04a3a)" style="fill: none; stroke: #000000; stroke-linecap: round"/>
   </g>
   <g id="line2d_13">
    <path d="M 464.625 314.800115 
L 464.625 316.848591 
" clip-path="url(#pf527e04a3a)" style="fill: none; stroke: #000000"/>
   </g>
   <g id="line2d_14">
    <path d="M 464.625 306.533913 
L 464.625 294.17076 
" clip-path="url(#pf527e04a3a)" style="fill: none; stroke: #000000"/>
   </g>
   <g id="line2d_15">
    <path d="M 454.964625 316.848591 
L 474.285375 316.848591 
" clip-path="url(#pf527e04a3a)" style="fill: none; stroke: #000000; stroke-linecap: round"/>
   </g>
   <g id="line2d_16">
    <path d="M 454.964625 294.17076 
L 474.285375 294.17076 
" clip-path="url(#pf527e04a3a)" style="fill: none; stroke: #000000; stroke-linecap: round"/>
   </g>
   <g id="line2d_17">
    <path d="M 722.235 346.900935 
L 722.235 347.479328 
" clip-path="url(#pf527e04a3a)" style="fill: none; stroke: #000000"/>
   </g>
   <g id="line2d_18">
    <path d="M 722.235 344.918733 
L 722.235 341.960493 
" clip-path="url(#pf527e04a3a)" style="fill: none; stroke: #000000"/>
   </g>
   <g id="line2d_19">
    <path d="M 712.574625 347.479328 
L 731.895375 347.479328 
" clip-path="url(#pf527e04a3a)" style="fill: none; stroke: #000000; stroke-linecap: round"/>
   </g>
   <g id="line2d_20">
    <path d="M 712.574625 341.960493 
L 731.895375 341.960493 
" clip-path="url(#pf527e04a3a)" style="fill: none; stroke: #000000; stroke-linecap: round"/>
   </g>
   <g id="line2d_21">
    <path d="M 187.69425 339.622821 
L 226.33575 339.622821 
" clip-path="url(#pf527e04a3a)" style="fill: none; stroke: #ff0000; stroke-width: 2"/>
   </g>
   <g id="line2d_22">
    <path d="M 445.30425 313.221584 
L 483.94575 313.221584 
" clip-path="url(#pf527e04a3a)" style="fill: none; stroke: #ff0000; stroke-width: 2"/>
   </g>
   <g id="line2d_23">
    <path d="M 702.91425 346.394841 
L 741.55575 346.394841 
" clip-path="url(#pf527e04a3a)" style="fill: none; stroke: #ff0000; stroke-width: 2"/>
   </g>
   <g id="patch_3">
    <path d="M 78.21 358.276 
L 78.21 20.88 
" style="fill: none; stroke: #cccccc; stroke-width: 1.25; stroke-linejoin: miter; stroke-linecap: square"/>
   </g>
   <g id="patch_4">
    <path d="M 851.04 358.276 
L 851.04 20.88 
" style="fill: none; stroke: #cccccc; stroke-width: 1.25; stroke-linejoin: miter; stroke-linecap: square"/>
   </g>
   <g id="patch_5">
    <path d="M 78.21 358.276 
L 851.04 358.276 
" style="fill: none; stroke: #cccccc; stroke-width: 1.25; stroke-linejoin: miter; stroke-linecap: square"/>
   </g>
   <g id="patch_6">
    <path d="M 78.21 20.88 
L 851.04 20.88 
" style="fill: none; stroke: #cccccc; stroke-width: 1.25; stroke-linejoin: miter; stroke-linecap: square"/>
   </g>
   <g id="text_13">
    <g id="patch_7">
     <path d="M 609.800062 64.170425 
L 821.3985 64.170425 
L 821.3985 28.7498 
L 609.800062 28.7498 
z
" style="fill: #ffffff; opacity: 0.8; stroke: #808080; stroke-linejoin: miter"/>
    </g>
    <!-- Signature: secp521r1 -->
    <g style="fill: #262626" transform="translate(618.800062 51.426988) scale(0.18 -0.18)">
     <defs>
      <path id="DejaVuSans-53" d="M 3425 4513 
L 3425 3897 
Q 3066 4069 2747 4153 
Q 2428 4238 2131 4238 
Q 1616 4238 1336 4038 
Q 1056 3838 1056 3469 
Q 1056 3159 1242 3001 
Q 1428 2844 1947 2747 
L 2328 2669 
Q 3034 2534 3370 2195 
Q 3706 1856 3706 1288 
Q 3706 609 3251 259 
Q 2797 -91 1919 -91 
Q 1588 -91 1214 -16 
Q 841 59 441 206 
L 441 856 
Q 825 641 1194 531 
Q 1563 422 1919 422 
Q 2459 422 2753 634 
Q 3047 847 3047 1241 
Q 3047 1584 2836 1778 
Q 2625 1972 2144 2069 
L 1759 2144 
Q 1053 2284 737 2584 
Q 422 2884 422 3419 
Q 422 4038 858 4394 
Q 1294 4750 2059 4750 
Q 2388 4750 2728 4690 
Q 3069 4631 3425 4513 
z
" transform="scale(0.015625)"/>
      <path id="DejaVuSans-67" d="M 2906 1791 
Q 2906 2416 2648 2759 
Q 2391 3103 1925 3103 
Q 1463 3103 1205 2759 
Q 947 2416 947 1791 
Q 947 1169 1205 825 
Q 1463 481 1925 481 
Q 2391 481 2648 825 
Q 2906 1169 2906 1791 
z
M 3481 434 
Q 3481 -459 3084 -895 
Q 2688 -1331 1869 -1331 
Q 1566 -1331 1297 -1286 
Q 1028 -1241 775 -1147 
L 775 -588 
Q 1028 -725 1275 -790 
Q 1522 -856 1778 -856 
Q 2344 -856 2625 -561 
Q 2906 -266 2906 331 
L 2906 616 
Q 2728 306 2450 153 
Q 2172 0 1784 0 
Q 1141 0 747 490 
Q 353 981 353 1791 
Q 353 2603 747 3093 
Q 1141 3584 1784 3584 
Q 2172 3584 2450 3431 
Q 2728 3278 2906 2969 
L 2906 3500 
L 3481 3500 
L 3481 434 
z
" transform="scale(0.015625)"/>
      <path id="DejaVuSans-3a" d="M 750 794 
L 1409 794 
L 1409 0 
L 750 0 
L 750 794 
z
M 750 3309 
L 1409 3309 
L 1409 2516 
L 750 2516 
L 750 3309 
z
" transform="scale(0.015625)"/>
      <path id="DejaVuSans-63" d="M 3122 3366 
L 3122 2828 
Q 2878 2963 2633 3030 
Q 2388 3097 2138 3097 
Q 1578 3097 1268 2742 
Q 959 2388 959 1747 
Q 959 1106 1268 751 
Q 1578 397 2138 397 
Q 2388 397 2633 464 
Q 2878 531 3122 666 
L 3122 134 
Q 2881 22 2623 -34 
Q 2366 -91 2075 -91 
Q 1284 -91 818 406 
Q 353 903 353 1747 
Q 353 2603 823 3093 
Q 1294 3584 2113 3584 
Q 2378 3584 2631 3529 
Q 2884 3475 3122 3366 
z
" transform="scale(0.015625)"/>
      <path id="DejaVuSans-70" d="M 1159 525 
L 1159 -1331 
L 581 -1331 
L 581 3500 
L 1159 3500 
L 1159 2969 
Q 1341 3281 1617 3432 
Q 1894 3584 2278 3584 
Q 2916 3584 3314 3078 
Q 3713 2572 3713 1747 
Q 3713 922 3314 415 
Q 2916 -91 2278 -91 
Q 1894 -91 1617 61 
Q 1341 213 1159 525 
z
M 3116 1747 
Q 3116 2381 2855 2742 
Q 2594 3103 2138 3103 
Q 1681 3103 1420 2742 
Q 1159 2381 1159 1747 
Q 1159 1113 1420 752 
Q 1681 391 2138 391 
Q 2594 391 2855 752 
Q 3116 1113 3116 1747 
z
" transform="scale(0.015625)"/>
     </defs>
     <use xlink:href="#DejaVuSans-53"/>
     <use xlink:href="#DejaVuSans-69" x="63.476562"/>
     <use xlink:href="#DejaVuSans-67" x="91.259766"/>
     <use xlink:href="#DejaVuSans-6e" x="154.736328"/>
     <use xlink:href="#DejaVuSans-61" x="218.115234"/>
     <use xlink:href="#DejaVuSans-74" x="279.394531"/>
     <use xlink:href="#DejaVuSans-75" x="318.603516"/>
     <use xlink:href="#DejaVuSans-72" x="381.982422"/>
     <use xlink:href="#DejaVuSans-65" x="420.845703"/>
     <use xlink:href="#DejaVuSans-3a" x="482.369141"/>
     <use xlink:href="#DejaVuSans-20" x="516.060547"/>
     <use xlink:href="#DejaVuSans-73" x="547.847656"/>
     <use xlink:href="#DejaVuSans-65" x="599.947266"/>
     <use xlink:href="#DejaVuSans-63" x="661.470703"/>
     <use xlink:href="#DejaVuSans-70" x="716.451172"/>
     <use xlink:href="#DejaVuSans-35" x="779.927734"/>
     <use xlink:href="#DejaVuSans-32" x="843.550781"/>
     <use xlink:href="#DejaVuSans-31" x="907.173828"/>
     <use xlink:href="#DejaVuSans-72" x="970.796875"/>
     <use xlink:href="#DejaVuSans-31" x="1011.910156"/>
    </g>
   </g>
  </g>
 </g>
 <defs>
  <clipPath id="pf527e04a3a">
   <rect x="78.21" y="20.88" width="772.83" height="337.396"/>
  </clipPath>
 </defs>
</svg>
