<?xml version="1.0" encoding="utf-8" standalone="no"?>
<!DOCTYPE svg PUBLIC "-//W3C//DTD SVG 1.1//EN"
  "http://www.w3.org/Graphics/SVG/1.1/DTD/svg11.dtd">
<svg xmlns:xlink="http://www.w3.org/1999/xlink" width="864pt" height="432pt" viewBox="0 0 864 432" xmlns="http://www.w3.org/2000/svg" version="1.1">
 <metadata>
  <rdf:RDF xmlns:dc="http://purl.org/dc/elements/1.1/" xmlns:cc="http://creativecommons.org/ns#" xmlns:rdf="http://www.w3.org/1999/02/22-rdf-syntax-ns#">
   <cc:Work>
    <dc:type rdf:resource="http://purl.org/dc/dcmitype/StillImage"/>
    <dc:date>2026-03-07T11:43:48.158475</dc:date>
    <dc:format>image/svg+xml</dc:format>
    <dc:creator>
     <cc:Agent>
      <dc:title>Matplotlib v3.6.3, https://matplotlib.org/</dc:title>
     </cc:Agent>
    </dc:creator>
   </cc:Work>
  </rdf:RDF>
 </metadata>
 <defs>
  <style type="text/css">*{stroke-linejoin: round; stroke-linecap: butt}</style>
 </defs>
 <g id="figure_1">
  <g id="patch_1">
   <path d="M 0 432 
L 864 432 
L 864 0 
L 0 0 
z
" style="fill: #ffffff"/>
  </g>
  <g id="axes_1">
   <g id="patch_2">
    <path d="M 65.52 358.276 
L 851.04 358.276 
L 851.04 20.88 
L 65.52 20.88 
z
" style="fill: #ffffff"/>
   </g>
   <g id="matplotlib.axis_1">
    <g id="xtick_1">
     <g id="text_1">
      <!-- P-384 -->
      <g style="fill: #262626" transform="translate(109.872 386.01225) scale(0.24 -0.24)">
       <defs>
        <path id="DejaVuSans-50" d="M 1259 4147 
L 1259 2394 
L 2053 2394 
Q 2494 2394 2734 2622 
Q 2975 2850 2975 3272 
Q 2975 3691 2734 3919 
Q 2494 4147 2053 4147 
L 1259 4147 
z
M 628 4666 
L 2053 4666 
Q 2838 4666 3239 4311 
Q 3641 3956 3641 3272 
Q 3641 2581 3239 2228 
Q 2838 1875 2053 1875 
L 1259 1875 
L 1259 0 
L 628 0 
L 628 4666 
z
" transform="scale(0.015625)"/>
        <path id="DejaVuSans-2d" d="M 313 2009 
L 1997 2009 
L 1997 1497 
L 313 1497 
L 313 2009 
z
" transform="scale(0.015625)"/>
        <path id="DejaVuSans-33" d="M 2597 2516 
Q 3050 2419 3304 2112 
Q 3559 1806 3559 1356 
Q 3559 666 3084 287 
Q 2609 -91 1734 -91 
Q 1441 -91 1130 -33 
Q 819 25 488 141 
L 488 750 
Q 750 597 1062 519 
Q 1375 441 1716 441 
Q 2309 441 2620 675 
Q 2931 909 2931 1356 
Q 2931 1769 2642 2001 
Q 2353 2234 1838 2234 
L 1294 2234 
L 1294 2753 
L 1863 2753 
Q 2328 2753 2575 2939 
Q 2822 3125 2822 3475 
Q 2822 3834 2567 4026 
Q 2313 4219 1838 4219 
Q 1578 4219 1281 4162 
Q 984 4106 628 3988 
L 628 4550 
Q 988 4650 1302 4700 
Q 1616 4750 1894 4750 
Q 2613 4750 3031 4423 
Q 3450 4097 3450 3541 
Q 3450 3153 3228 2886 
Q 3006 2619 2597 2516 
z
" transform="scale(0.015625)"/>
        <path id="DejaVuSans-38" d="M 2034 2216 
Q 1584 2216 1326 1975 
Q 1069 1734 1069 1313 
Q 1069 891 1326 650 
Q 1584 409 2034 409 
Q 2484 409 2743 651 
Q 3003 894 3003 1313 
Q 3003 1734 2745 1975 
Q 2488 2216 2034 2216 
z
M 1403 2484 
Q 997 2584 770 2862 
Q 544 3141 544 3541 
Q 544 4100 942 4425 
Q 1341 4750 2034 4750 
Q 2731 4750 3128 4425 
Q 3525 4100 3525 3541 
Q 3525 3141 3298 2862 
Q 3072 2584 2669 2484 
Q 3125 2378 3379 2068 
Q 3634 1759 3634 1313 
Q 3634 634 3220 271 
Q 2806 -91 2034 -91 
Q 1263 -91 848 271 
Q 434 634 434 1313 
Q 434 1759 690 2068 
Q 947 2378 1403 2484 
z
M 1172 3481 
Q 1172 3119 1398 2916 
Q 1625 2713 2034 2713 
Q 2441 2713 2670 2916 
Q 2900 3119 2900 3481 
Q 2900 3844 2670 4047 
Q 2441 4250 2034 4250 
Q 1625 4250 1398 4047 
Q 1172 3844 1172 3481 
z
" transform="scale(0.015625)"/>
        <path id="DejaVuSans-34" d="M 2419 4116 
L 825 1625 
L 2419 1625 
L 2419 4116 
z
M 2253 4666 
L 3047 4666 
L 3047 1625 
L 3713 1625 
L 3713 1100 
L 3047 1100 
L 3047 0 
L 2419 0 
L 2419 1100 
L 313 1100 
L 313 1709 
L 2253 4666 
z
" transform="scale(0.015625)"/>
       </defs>
       <use xlink:href="#DejaVuSans-50"/>
       <use xlink:href="#DejaVuSans-2d" x="58.052734"/>
       <use xlink:href="#DejaVuSans-33" x="94.136719"/>
       <use xlink:href="#DejaVuSans-38" x="157.759766"/>
       <use xlink:href="#DejaVuSans-34" x="221.382812"/>
      </g>
     </g>
    </g>
    <g id="xtick_2">
     <g id="text_2">
      <!-- x448 -->
      <g style="fill: #262626" transform="translate(271.1685 386.01225) scale(0.24 -0.24)">
       <defs>
        <path id="DejaVuSans-78" d="M 3513 3500 
L 2247 1797 
L 3578 0 
L 2900 0 
L 1881 1375 
L 863 0 
L 184 0 
L 1544 1831 
L 300 3500 
L 978 3500 
L 1906 2253 
L 2834 3500 
L 3513 3500 
z
" transform="scale(0.015625)"/>
       </defs>
       <use xlink:href="#DejaVuSans-78"/>
       <use xlink:href="#DejaVuSans-34" x="59.179688"/>
       <use xlink:href="#DejaVuSans-34" x="122.802734"/>
       <use xlink:href="#DejaVuSans-38" x="186.425781"/>
      </g>
     </g>
    </g>
    <g id="xtick_3">
     <g id="text_3">
      <!-- P-384 -->
      <g style="fill: #262626" transform="translate(424.08 386.01225) scale(0.24 -0.24)">
       <use xlink:href="#DejaVuSans-50"/>
       <use xlink:href="#DejaVuSans-2d" x="58.052734"/>
       <use xlink:href="#DejaVuSans-33" x="94.136719"/>
       <use xlink:href="#DejaVuSans-38" x="157.759766"/>
       <use xlink:href="#DejaVuSans-34" x="221.382812"/>
      </g>
      <!-- mlkem768 -->
      <g style="fill: #262626" transform="translate(394.76625 412.887) scale(0.24 -0.24)">
       <defs>
        <path id="DejaVuSans-6d" d="M 3328 2828 
Q 3544 3216 3844 3400 
Q 4144 3584 4550 3584 
Q 5097 3584 5394 3201 
Q 5691 2819 5691 2113 
L 5691 0 
L 5113 0 
L 5113 2094 
Q 5113 2597 4934 2840 
Q 4756 3084 4391 3084 
Q 3944 3084 3684 2787 
Q 3425 2491 3425 1978 
L 3425 0 
L 2847 0 
L 2847 2094 
Q 2847 2600 2669 2842 
Q 2491 3084 2119 3084 
Q 1678 3084 1418 2786 
Q 1159 2488 1159 1978 
L 1159 0 
L 581 0 
L 581 3500 
L 1159 3500 
L 1159 2956 
Q 1356 3278 1631 3431 
Q 1906 3584 2284 3584 
Q 2666 3584 2933 3390 
Q 3200 3197 3328 2828 
z
" transform="scale(0.015625)"/>
        <path id="DejaVuSans-6c" d="M 603 4863 
L 1178 4863 
L 1178 0 
L 603 0 
L 603 4863 
z
" transform="scale(0.015625)"/>
        <path id="DejaVuSans-6b" d="M 581 4863 
L 1159 4863 
L 1159 1991 
L 2875 3500 
L 3609 3500 
L 1753 1863 
L 3688 0 
L 2938 0 
L 1159 1709 
L 1159 0 
L 581 0 
L 581 4863 
z
" transform="scale(0.015625)"/>
        <path id="DejaVuSans-65" d="M 3597 1894 
L 3597 1613 
L 953 1613 
Q 991 1019 1311 708 
Q 1631 397 2203 397 
Q 2534 397 2845 478 
Q 3156 559 3463 722 
L 3463 178 
Q 3153 47 2828 -22 
Q 2503 -91 2169 -91 
Q 1331 -91 842 396 
Q 353 884 353 1716 
Q 353 2575 817 3079 
Q 1281 3584 2069 3584 
Q 2775 3584 3186 3129 
Q 3597 2675 3597 1894 
z
M 3022 2063 
Q 3016 2534 2758 2815 
Q 2500 3097 2075 3097 
Q 1594 3097 1305 2825 
Q 1016 2553 972 2059 
L 3022 2063 
z
" transform="scale(0.015625)"/>
        <path id="DejaVuSans-37" d="M 525 4666 
L 3525 4666 
L 3525 4397 
L 1831 0 
L 1172 0 
L 2766 4134 
L 525 4134 
L 525 4666 
z
" transform="scale(0.015625)"/>
        <path id="DejaVuSans-36" d="M 2113 2584 
Q 1688 2584 1439 2293 
Q 1191 2003 1191 1497 
Q 1191 994 1439 701 
Q 1688 409 2113 409 
Q 2538 409 2786 701 
Q 3034 994 3034 1497 
Q 3034 2003 2786 2293 
Q 2538 2584 2113 2584 
z
M 3366 4563 
L 3366 3988 
Q 3128 4100 2886 4159 
Q 2644 4219 2406 4219 
Q 1781 4219 1451 3797 
Q 1122 3375 1075 2522 
Q 1259 2794 1537 2939 
Q 1816 3084 2150 3084 
Q 2853 3084 3261 2657 
Q 3669 2231 3669 1497 
Q 3669 778 3244 343 
Q 2819 -91 2113 -91 
Q 1303 -91 875 529 
Q 447 1150 447 2328 
Q 447 3434 972 4092 
Q 1497 4750 2381 4750 
Q 2619 4750 2861 4703 
Q 3103 4656 3366 4563 
z
" transform="scale(0.015625)"/>
       </defs>
       <use xlink:href="#DejaVuSans-6d"/>
       <use xlink:href="#DejaVuSans-6c" x="97.412109"/>
       <use xlink:href="#DejaVuSans-6b" x="125.195312"/>
       <use xlink:href="#DejaVuSans-65" x="179.480469"/>
       <use xlink:href="#DejaVuSans-6d" x="241.003906"/>
       <use xlink:href="#DejaVuSans-37" x="338.416016"/>
       <use xlink:href="#DejaVuSans-36" x="402.039062"/>
       <use xlink:href="#DejaVuSans-38" x="465.662109"/>
      </g>
     </g>
    </g>
    <g id="xtick_4">
     <g id="text_4">
      <!-- x448 -->
      <g style="fill: #262626" transform="translate(585.3765 386.01225) scale(0.24 -0.24)">
       <use xlink:href="#DejaVuSans-78"/>
       <use xlink:href="#DejaVuSans-34" x="59.179688"/>
       <use xlink:href="#DejaVuSans-34" x="122.802734"/>
       <use xlink:href="#DejaVuSans-38" x="186.425781"/>
      </g>
      <!-- mlkem768 -->
      <g style="fill: #262626" transform="translate(551.87025 412.887) scale(0.24 -0.24)">
       <use xlink:href="#DejaVuSans-6d"/>
       <use xlink:href="#DejaVuSans-6c" x="97.412109"/>
       <use xlink:href="#DejaVuSans-6b" x="125.195312"/>
       <use xlink:href="#DejaVuSans-65" x="179.480469"/>
       <use xlink:href="#DejaVuSans-6d" x="241.003906"/>
       <use xlink:href="#DejaVuSans-37" x="338.416016"/>
       <use xlink:href="#DejaVuSans-36" x="402.039062"/>
       <use xlink:href="#DejaVuSans-38" x="465.662109"/>
      </g>
     </g>
    </g>
    <g id="xtick_5">
     <g id="text_5">
      <!-- mlkem768 -->
      <g style="fill: #262626" transform="translate(708.97425 386.01225) scale(0.24 -0.24)">
       <use xlink:href="#DejaVuSans-6d"/>
       <use xlink:href="#DejaVuSans-6c" x="97.412109"/>
       <use xlink:href="#DejaVuSans-6b" x="125.195312"/>
       <use xlink:href="#DejaVuSans-65" x="179.480469"/>
       <use xlink:href="#DejaVuSans-6d" x="241.003906"/>
       <use xlink:href="#DejaVuSans-37" x="338.416016"/>
       <use xlink:href="#DejaVuSans-36" x="402.039062"/>
       <use xlink:href="#DejaVuSans-38" x="465.662109"/>
      </g>
     </g>
    </g>
   </g>
   <g id="matplotlib.axis_2">
    <g id="ytick_1">
     <g id="line2d_1">
      <path d="M 65.52 358.276 
L 851.04 358.276 
" clip-path="url(#pb169ca86f2)" style="fill: none; stroke: #cccccc; stroke-linecap: round"/>
     </g>
     <g id="text_6">
      <!-- 0 -->
      <g style="fill: #262626" transform="translate(43.295 365.874437) scale(0.2 -0.2)">
       <defs>
        <path id="DejaVuSans-30" d="M 2034 4250 
Q 1547 4250 1301 3770 
Q 1056 3291 1056 2328 
Q 1056 1369 1301 889 
Q 1547 409 2034 409 
Q 2525 409 2770 889 
Q 3016 1369 3016 2328 
Q 3016 3291 2770 3770 
Q 2525 4250 2034 4250 
z
M 2034 4750 
Q 2819 4750 3233 4129 
Q 3647 3509 3647 2328 
Q 3647 1150 3233 529 
Q 2819 -91 2034 -91 
Q 1250 -91 836 529 
Q 422 1150 422 2328 
Q 422 3509 836 4129 
Q 1250 4750 2034 4750 
z
" transform="scale(0.015625)"/>
       </defs>
       <use xlink:href="#DejaVuSans-30"/>
      </g>
     </g>
    </g>
    <g id="ytick_2">
     <g id="line2d_2">
      <path d="M 65.52 310.076571 
L 851.04 310.076571 
" clip-path="url(#pb169ca86f2)" style="fill: none; stroke: #cccccc; stroke-linecap: round"/>
     </g>
     <g id="text_7">
      <!-- 10 -->
      <g style="fill: #262626" transform="translate(30.57 317.675009) scale(0.2 -0.2)">
       <defs>
        <path id="DejaVuSans-31" d="M 794 531 
L 1825 531 
L 1825 4091 
L 703 3866 
L 703 4441 
L 1819 4666 
L 2450 4666 
L 2450 531 
L 3481 531 
L 3481 0 
L 794 0 
L 794 531 
z
" transform="scale(0.015625)"/>
       </defs>
       <use xlink:href="#DejaVuSans-31"/>
       <use xlink:href="#DejaVuSans-30" x="63.623047"/>
      </g>
     </g>
    </g>
    <g id="ytick_3">
     <g id="line2d_3">
      <path d="M 65.52 261.877143 
L 851.04 261.877143 
" clip-path="url(#pb169ca86f2)" style="fill: none; stroke: #cccccc; stroke-linecap: round"/>
     </g>
     <g id="text_8">
      <!-- 20 -->
      <g style="fill: #262626" transform="translate(30.57 269.47558) scale(0.2 -0.2)">
       <defs>
        <path id="DejaVuSans-32" d="M 1228 531 
L 3431 531 
L 3431 0 
L 469 0 
L 469 531 
Q 828 903 1448 1529 
Q 2069 2156 2228 2338 
Q 2531 2678 2651 2914 
Q 2772 3150 2772 3378 
Q 2772 3750 2511 3984 
Q 2250 4219 1831 4219 
Q 1534 4219 1204 4116 
Q 875 4013 500 3803 
L 500 4441 
Q 881 4594 1212 4672 
Q 1544 4750 1819 4750 
Q 2544 4750 2975 4387 
Q 3406 4025 3406 3419 
Q 3406 3131 3298 2873 
Q 3191 2616 2906 2266 
Q 2828 2175 2409 1742 
Q 1991 1309 1228 531 
z
" transform="scale(0.015625)"/>
       </defs>
       <use xlink:href="#DejaVuSans-32"/>
       <use xlink:href="#DejaVuSans-30" x="63.623047"/>
      </g>
     </g>
    </g>
    <g id="ytick_4">
     <g id="line2d_4">
      <path d="M 65.52 213.677714 
L 851.04 213.677714 
" clip-path="url(#pb169ca86f2)" style="fill: none; stroke: #cccccc; stroke-linecap: round"/>
     </g>
     <g id="text_9">
      <!-- 30 -->
      <g style="fill: #262626" transform="translate(30.57 221.276152) scale(0.2 -0.2)">
       <use xlink:href="#DejaVuSans-33"/>
       <use xlink:href="#DejaVuSans-30" x="63.623047"/>
      </g>
     </g>
    </g>
    <g id="ytick_5">
     <g id="line2d_5">
      <path d="M 65.52 165.478286 
L 851.04 165.478286 
" clip-path="url(#pb169ca86f2)" style="fill: none; stroke: #cccccc; stroke-linecap: round"/>
     </g>
     <g id="text_10">
      <!-- 40 -->
      <g style="fill: #262626" transform="translate(30.57 173.076723) scale(0.2 -0.2)">
       <use xlink:href="#DejaVuSans-34"/>
       <use xlink:href="#DejaVuSans-30" x="63.623047"/>
      </g>
     </g>
    </g>
    <g id="ytick_6">
     <g id="line2d_6">
      <path d="M 65.52 117.278857 
L 851.04 117.278857 
" clip-path="url(#pb169ca86f2)" style="fill: none; stroke: #cccccc; stroke-linecap: round"/>
     </g>
     <g id="text_11">
      <!-- 50 -->
      <g style="fill: #262626" transform="translate(30.57 124.877295) scale(0.2 -0.2)">
       <defs>
        <path id="DejaVuSans-35" d="M 691 4666 
L 3169 4666 
L 3169 4134 
L 1269 4134 
L 1269 2991 
Q 1406 3038 1543 3061 
Q 1681 3084 1819 3084 
Q 2600 3084 3056 2656 
Q 3513 2228 3513 1497 
Q 3513 744 3044 326 
Q 2575 -91 1722 -91 
Q 1428 -91 1123 -41 
Q 819 9 494 109 
L 494 744 
Q 775 591 1075 516 
Q 1375 441 1709 441 
Q 2250 441 2565 725 
Q 2881 1009 2881 1497 
Q 2881 1984 2565 2268 
Q 2250 2553 1709 2553 
Q 1456 2553 1204 2497 
Q 953 2441 691 2322 
L 691 4666 
z
" transform="scale(0.015625)"/>
       </defs>
       <use xlink:href="#DejaVuSans-35"/>
       <use xlink:href="#DejaVuSans-30" x="63.623047"/>
      </g>
     </g>
    </g>
    <g id="ytick_7">
     <g id="line2d_7">
      <path d="M 65.52 69.079429 
L 851.04 69.079429 
" clip-path="url(#pb169ca86f2)" style="fill: none; stroke: #cccccc; stroke-linecap: round"/>
     </g>
     <g id="text_12">
      <!-- 60 -->
      <g style="fill: #262626" transform="translate(30.57 76.677866) scale(0.2 -0.2)">
       <use xlink:href="#DejaVuSans-36"/>
       <use xlink:href="#DejaVuSans-30" x="63.623047"/>
      </g>
     </g>
    </g>
    <g id="ytick_8">
     <g id="line2d_8">
      <path d="M 65.52 20.88 
L 851.04 20.88 
" clip-path="url(#pb169ca86f2)" style="fill: none; stroke: #cccccc; stroke-linecap: round"/>
     </g>
     <g id="text_13">
      <!-- 70 -->
      <g style="fill: #262626" transform="translate(30.57 28.478438) scale(0.2 -0.2)">
       <use xlink:href="#DejaVuSans-37"/>
       <use xlink:href="#DejaVuSans-30" x="63.623047"/>
      </g>
     </g>
    </g>
    <g id="text_14">
     <!-- Handshake duration (ms) -->
     <g style="fill: #262626" transform="translate(23.658438 278.323781) rotate(-90) scale(0.14 -0.14)">
      <defs>
       <path id="DejaVuSans-48" d="M 628 4666 
L 1259 4666 
L 1259 2753 
L 3553 2753 
L 3553 4666 
L 4184 4666 
L 4184 0 
L 3553 0 
L 3553 2222 
L 1259 2222 
L 1259 0 
L 628 0 
L 628 4666 
z
" transform="scale(0.015625)"/>
       <path id="DejaVuSans-61" d="M 2194 1759 
Q 1497 1759 1228 1600 
Q 959 1441 959 1056 
Q 959 750 1161 570 
Q 1363 391 1709 391 
Q 2188 391 2477 730 
Q 2766 1069 2766 1631 
L 2766 1759 
L 2194 1759 
z
M 3341 1997 
L 3341 0 
L 2766 0 
L 2766 531 
Q 2569 213 2275 61 
Q 1981 -91 1556 -91 
Q 1019 -91 701 211 
Q 384 513 384 1019 
Q 384 1609 779 1909 
Q 1175 2209 1959 2209 
L 2766 2209 
L 2766 2266 
Q 2766 2663 2505 2880 
Q 2244 3097 1772 3097 
Q 1472 3097 1187 3025 
Q 903 2953 641 2809 
L 641 3341 
Q 956 3463 1253 3523 
Q 1550 3584 1831 3584 
Q 2591 3584 2966 3190 
Q 3341 2797 3341 1997 
z
" transform="scale(0.015625)"/>
       <path id="DejaVuSans-6e" d="M 3513 2113 
L 3513 0 
L 2938 0 
L 2938 2094 
Q 2938 2591 2744 2837 
Q 2550 3084 2163 3084 
Q 1697 3084 1428 2787 
Q 1159 2491 1159 1978 
L 1159 0 
L 581 0 
L 581 3500 
L 1159 3500 
L 1159 2956 
Q 1366 3272 1645 3428 
Q 1925 3584 2291 3584 
Q 2894 3584 3203 3211 
Q 3513 2838 3513 2113 
z
" transform="scale(0.015625)"/>
       <path id="DejaVuSans-64" d="M 2906 2969 
L 2906 4863 
L 3481 4863 
L 3481 0 
L 2906 0 
L 2906 525 
Q 2725 213 2448 61 
Q 2172 -91 1784 -91 
Q 1150 -91 751 415 
Q 353 922 353 1747 
Q 353 2572 751 3078 
Q 1150 3584 1784 3584 
Q 2172 3584 2448 3432 
Q 2725 3281 2906 2969 
z
M 947 1747 
Q 947 1113 1208 752 
Q 1469 391 1925 391 
Q 2381 391 2643 752 
Q 2906 1113 2906 1747 
Q 2906 2381 2643 2742 
Q 2381 3103 1925 3103 
Q 1469 3103 1208 2742 
Q 947 2381 947 1747 
z
" transform="scale(0.015625)"/>
       <path id="DejaVuSans-73" d="M 2834 3397 
L 2834 2853 
Q 2591 2978 2328 3040 
Q 2066 3103 1784 3103 
Q 1356 3103 1142 2972 
Q 928 2841 928 2578 
Q 928 2378 1081 2264 
Q 1234 2150 1697 2047 
L 1894 2003 
Q 2506 1872 2764 1633 
Q 3022 1394 3022 966 
Q 3022 478 2636 193 
Q 2250 -91 1575 -91 
Q 1294 -91 989 -36 
Q 684 19 347 128 
L 347 722 
Q 666 556 975 473 
Q 1284 391 1588 391 
Q 1994 391 2212 530 
Q 2431 669 2431 922 
Q 2431 1156 2273 1281 
Q 2116 1406 1581 1522 
L 1381 1569 
Q 847 1681 609 1914 
Q 372 2147 372 2553 
Q 372 3047 722 3315 
Q 1072 3584 1716 3584 
Q 2034 3584 2315 3537 
Q 2597 3491 2834 3397 
z
" transform="scale(0.015625)"/>
       <path id="DejaVuSans-68" d="M 3513 2113 
L 3513 0 
L 2938 0 
L 2938 2094 
Q 2938 2591 2744 2837 
Q 2550 3084 2163 3084 
Q 1697 3084 1428 2787 
Q 1159 2491 1159 1978 
L 1159 0 
L 581 0 
L 581 4863 
L 1159 4863 
L 1159 2956 
Q 1366 3272 1645 3428 
Q 1925 3584 2291 3584 
Q 2894 3584 3203 3211 
Q 3513 2838 3513 2113 
z
" transform="scale(0.015625)"/>
       <path id="DejaVuSans-20" transform="scale(0.015625)"/>
       <path id="DejaVuSans-75" d="M 544 1381 
L 544 3500 
L 1119 3500 
L 1119 1403 
Q 1119 906 1312 657 
Q 1506 409 1894 409 
Q 2359 409 2629 706 
Q 2900 1003 2900 1516 
L 2900 3500 
L 3475 3500 
L 3475 0 
L 2900 0 
L 2900 538 
Q 2691 219 2414 64 
Q 2138 -91 1772 -91 
Q 1169 -91 856 284 
Q 544 659 544 1381 
z
M 1991 3584 
L 1991 3584 
z
" transform="scale(0.015625)"/>
       <path id="DejaVuSans-72" d="M 2631 2963 
Q 2534 3019 2420 3045 
Q 2306 3072 2169 3072 
Q 1681 3072 1420 2755 
Q 1159 2438 1159 1844 
L 1159 0 
L 581 0 
L 581 3500 
L 1159 3500 
L 1159 2956 
Q 1341 3275 1631 3429 
Q 1922 3584 2338 3584 
Q 2397 3584 2469 3576 
Q 2541 3569 2628 3553 
L 2631 2963 
z
" transform="scale(0.015625)"/>
       <path id="DejaVuSans-74" d="M 1172 4494 
L 1172 3500 
L 2356 3500 
L 2356 3053 
L 1172 3053 
L 1172 1153 
Q 1172 725 1289 603 
Q 1406 481 1766 481 
L 2356 481 
L 2356 0 
L 1766 0 
Q 1100 0 847 248 
Q 594 497 594 1153 
L 594 3053 
L 172 3053 
L 172 3500 
L 594 3500 
L 594 4494 
L 1172 4494 
z
" transform="scale(0.015625)"/>
       <path id="DejaVuSans-69" d="M 603 3500 
L 1178 3500 
L 1178 0 
L 603 0 
L 603 3500 
z
M 603 4863 
L 1178 4863 
L 1178 4134 
L 603 4134 
L 603 4863 
z
" transform="scale(0.015625)"/>
       <path id="DejaVuSans-6f" d="M 1959 3097 
Q 1497 3097 1228 2736 
Q 959 2375 959 1747 
Q 959 1119 1226 758 
Q 1494 397 1959 397 
Q 2419 397 2687 759 
Q 2956 1122 2956 1747 
Q 2956 2369 2687 2733 
Q 2419 3097 1959 3097 
z
M 1959 3584 
Q 2709 3584 3137 3096 
Q 3566 2609 3566 1747 
Q 3566 888 3137 398 
Q 2709 -91 1959 -91 
Q 1206 -91 779 398 
Q 353 888 353 1747 
Q 353 2609 779 3096 
Q 1206 3584 1959 3584 
z
" transform="scale(0.015625)"/>
       <path id="DejaVuSans-28" d="M 1984 4856 
Q 1566 4138 1362 3434 
Q 1159 2731 1159 2009 
Q 1159 1288 1364 580 
Q 1569 -128 1984 -844 
L 1484 -844 
Q 1016 -109 783 600 
Q 550 1309 550 2009 
Q 550 2706 781 3412 
Q 1013 4119 1484 4856 
L 1984 4856 
z
" transform="scale(0.015625)"/>
       <path id="DejaVuSans-29" d="M 513 4856 
L 1013 4856 
Q 1481 4119 1714 3412 
Q 1947 2706 1947 2009 
Q 1947 1309 1714 600 
Q 1481 -109 1013 -844 
L 513 -844 
Q 928 -128 1133 580 
Q 1338 1288 1338 2009 
Q 1338 2731 1133 3434 
Q 928 4138 513 4856 
z
" transform="scale(0.015625)"/>
      </defs>
      <use xlink:href="#DejaVuSans-48"/>
      <use xlink:href="#DejaVuSans-61" x="75.195312"/>
      <use xlink:href="#DejaVuSans-6e" x="136.474609"/>
      <use xlink:href="#DejaVuSans-64" x="199.853516"/>
      <use xlink:href="#DejaVuSans-73" x="263.330078"/>
      <use xlink:href="#DejaVuSans-68" x="315.429688"/>
      <use xlink:href="#DejaVuSans-61" x="378.808594"/>
      <use xlink:href="#DejaVuSans-6b" x="440.087891"/>
      <use xlink:href="#DejaVuSans-65" x="494.373047"/>
      <use xlink:href="#DejaVuSans-20" x="555.896484"/>
      <use xlink:href="#DejaVuSans-64" x="587.683594"/>
      <use xlink:href="#DejaVuSans-75" x="651.160156"/>
      <use xlink:href="#DejaVuSans-72" x="714.539062"/>
      <use xlink:href="#DejaVuSans-61" x="755.652344"/>
      <use xlink:href="#DejaVuSans-74" x="816.931641"/>
      <use xlink:href="#DejaVuSans-69" x="856.140625"/>
      <use xlink:href="#DejaVuSans-6f" x="883.923828"/>
      <use xlink:href="#DejaVuSans-6e" x="945.105469"/>
      <use xlink:href="#DejaVuSans-20" x="1008.484375"/>
      <use xlink:href="#DejaVuSans-28" x="1040.271484"/>
      <use xlink:href="#DejaVuSans-6d" x="1079.285156"/>
      <use xlink:href="#DejaVuSans-73" x="1176.697266"/>
      <use xlink:href="#DejaVuSans-29" x="1228.796875"/>
     </g>
    </g>
   </g>
   <g id="PolyCollection_1">
    <defs>
     <path id="mb00632ca0f" d="M 145.79432 -104.512178 
L 142.34968 -104.512178 
L 141.345773 -104.822051 
L 139.892039 -105.131923 
L 137.8634 -105.441795 
L 135.137405 -105.751667 
L 131.613545 -106.06154 
L 127.237114 -106.371412 
L 122.024354 -106.681284 
L 116.084032 -106.991156 
L 109.629762 -107.301028 
L 102.977862 -107.610901 
L 96.527535 -107.920773 
L 90.723552 -108.230645 
L 86.005655 -108.540517 
L 82.752534 -108.850389 
L 81.2304 -109.160262 
L 81.556015 -109.470134 
L 83.681447 -109.780006 
L 87.403387 -110.089878 
L 92.394702 -110.399751 
L 98.251478 -110.709623 
L 104.546199 -111.019495 
L 110.877448 -111.329367 
L 116.908457 -111.639239 
L 122.390178 -111.949112 
L 127.168206 -112.258984 
L 131.176007 -112.568856 
L 134.418749 -112.878728 
L 136.952628 -113.188601 
L 138.863965 -113.498473 
L 140.251176 -113.808345 
L 141.211268 -114.118217 
L 141.8313 -114.428089 
L 142.18433 -114.737962 
L 142.328896 -115.047834 
L 142.310888 -115.357706 
L 142.1667 -115.667578 
L 141.9267 -115.97745 
L 141.618241 -116.287323 
L 141.267658 -116.597195 
L 140.900883 -116.907067 
L 140.542601 -117.216939 
L 140.214132 -117.526812 
L 139.930498 -117.836684 
L 139.697413 -118.146556 
L 139.509021 -118.456428 
L 139.347202 -118.7663 
L 139.183023 -119.076173 
L 138.98051 -119.386045 
L 138.70242 -119.695917 
L 138.31721 -120.005789 
L 137.806026 -120.315661 
L 137.168372 -120.625534 
L 136.425245 -120.935406 
L 135.618885 -121.245278 
L 134.808888 -121.55515 
L 134.065101 -121.865023 
L 133.4584 -122.174895 
L 133.050887 -122.484767 
L 132.887237 -122.794639 
L 132.988718 -123.104511 
L 133.350899 -123.414384 
L 133.945304 -123.724256 
L 134.724518 -124.034128 
L 135.629605 -124.344 
L 136.598343 -124.653872 
L 137.572809 -124.963745 
L 138.505131 -125.273617 
L 139.360756 -125.583489 
L 140.119181 -125.893361 
L 140.772547 -126.203234 
L 141.322827 -126.513106 
L 141.778461 -126.822978 
L 142.15113 -127.13285 
L 142.453208 -127.442722 
L 142.696126 -127.752595 
L 142.88962 -128.062467 
L 143.0417 -128.372339 
L 143.159052 -128.682211 
L 143.247593 -128.992084 
L 143.31295 -129.301956 
L 143.360736 -129.611828 
L 143.396553 -129.9217 
L 143.425785 -130.231572 
L 143.453252 -130.541445 
L 143.48284 -130.851317 
L 143.51721 -131.161189 
L 143.557661 -131.471061 
L 143.604168 -131.780933 
L 143.655596 -132.090806 
L 143.710024 -132.400678 
L 143.765131 -132.71055 
L 143.818576 -133.020422 
L 143.868309 -133.330295 
L 143.912778 -133.640167 
L 143.951036 -133.950039 
L 143.982737 -134.259911 
L 144.008055 -134.569783 
L 144.027554 -134.879656 
L 144.04204 -135.189528 
L 144.10196 -135.189528 
L 144.10196 -135.189528 
L 144.116446 -134.879656 
L 144.135945 -134.569783 
L 144.161263 -134.259911 
L 144.192964 -133.950039 
L 144.231222 -133.640167 
L 144.275691 -133.330295 
L 144.325424 -133.020422 
L 144.378869 -132.71055 
L 144.433976 -132.400678 
L 144.488404 -132.090806 
L 144.539832 -131.780933 
L 144.586339 -131.471061 
L 144.62679 -131.161189 
L 144.66116 -130.851317 
L 144.690748 -130.541445 
L 144.718215 -130.231572 
L 144.747447 -129.9217 
L 144.783264 -129.611828 
L 144.83105 -129.301956 
L 144.896407 -128.992084 
L 144.984948 -128.682211 
L 145.1023 -128.372339 
L 145.25438 -128.062467 
L 145.447874 -127.752595 
L 145.690792 -127.442722 
L 145.99287 -127.13285 
L 146.365539 -126.822978 
L 146.821173 -126.513106 
L 147.371453 -126.203234 
L 148.024819 -125.893361 
L 148.783244 -125.583489 
L 149.638869 -125.273617 
L 150.571191 -124.963745 
L 151.545657 -124.653872 
L 152.514395 -124.344 
L 153.419482 -124.034128 
L 154.198696 -123.724256 
L 154.793101 -123.414384 
L 155.155282 -123.104511 
L 155.256763 -122.794639 
L 155.093113 -122.484767 
L 154.6856 -122.174895 
L 154.078899 -121.865023 
L 153.335112 -121.55515 
L 152.525115 -121.245278 
L 151.718755 -120.935406 
L 150.975628 -120.625534 
L 150.337974 -120.315661 
L 149.82679 -120.005789 
L 149.44158 -119.695917 
L 149.16349 -119.386045 
L 148.960977 -119.076173 
L 148.796798 -118.7663 
L 148.634979 -118.456428 
L 148.446587 -118.146556 
L 148.213502 -117.836684 
L 147.929868 -117.526812 
L 147.601399 -117.216939 
L 147.243117 -116.907067 
L 146.876342 -116.597195 
L 146.525759 -116.287323 
L 146.2173 -115.97745 
L 145.9773 -115.667578 
L 145.833112 -115.357706 
L 145.815104 -115.047834 
L 145.95967 -114.737962 
L 146.3127 -114.428089 
L 146.932732 -114.118217 
L 147.892824 -113.808345 
L 149.280035 -113.498473 
L 151.191372 -113.188601 
L 153.725251 -112.878728 
L 156.967993 -112.568856 
L 160.975794 -112.258984 
L 165.753822 -111.949112 
L 171.235543 -111.639239 
L 177.266552 -111.329367 
L 183.597801 -111.019495 
L 189.892522 -110.709623 
L 195.749298 -110.399751 
L 200.740613 -110.089878 
L 204.462553 -109.780006 
L 206.587985 -109.470134 
L 206.9136 -109.160262 
L 205.391466 -108.850389 
L 202.138345 -108.540517 
L 197.420448 -108.230645 
L 191.616465 -107.920773 
L 185.166138 -107.610901 
L 178.514238 -107.301028 
L 172.059968 -106.991156 
L 166.119646 -106.681284 
L 160.906886 -106.371412 
L 156.530455 -106.06154 
L 153.006595 -105.751667 
L 150.2806 -105.441795 
L 148.251961 -105.131923 
L 146.798227 -104.822051 
L 145.79432 -104.512178 
z
" style="stroke: #595959; stroke-width: 1.25"/>
    </defs>
    <g clip-path="url(#pb169ca86f2)">
     <use xlink:href="#mb00632ca0f" x="0" y="432" style="fill: #72b6a1; stroke: #595959; stroke-width: 1.25"/>
    </g>
   </g>
   <g id="PolyCollection_2">
    <defs>
     <path id="md1a2a16342" d="M 302.702038 -95.420389 
L 299.649962 -95.420389 
L 298.57231 -95.713346 
L 296.917468 -96.006303 
L 294.497483 -96.29926 
L 291.130975 -96.592218 
L 286.682504 -96.885175 
L 281.110736 -97.178132 
L 274.515827 -97.471089 
L 267.172543 -97.764046 
L 259.53503 -98.057004 
L 252.203322 -98.349961 
L 245.850619 -98.642918 
L 241.12179 -98.935875 
L 238.523875 -99.228833 
L 238.3344 -99.52179 
L 240.550658 -99.814747 
L 244.892945 -100.107704 
L 250.860236 -100.400661 
L 257.823014 -100.693619 
L 265.129383 -100.986576 
L 272.199904 -101.279533 
L 278.592966 -101.57249 
L 284.033097 -101.865447 
L 288.405157 -102.158405 
L 291.724742 -102.451362 
L 294.097712 -102.744319 
L 295.680163 -103.037276 
L 296.646021 -103.330234 
L 297.164844 -103.623191 
L 297.38889 -103.916148 
L 297.446692 -104.209105 
L 297.440257 -104.502062 
L 297.443879 -104.79502 
L 297.503747 -105.087977 
L 297.638465 -105.380934 
L 297.840962 -105.673891 
L 298.082115 -105.966848 
L 298.315984 -106.259806 
L 298.48621 -106.552763 
L 298.532987 -106.84572 
L 298.400157 -107.138677 
L 298.042212 -107.431635 
L 297.431053 -107.724592 
L 296.562205 -108.017549 
L 295.459739 -108.310506 
L 294.178752 -108.603463 
L 292.804073 -108.896421 
L 291.444178 -109.189378 
L 290.22015 -109.482335 
L 289.250729 -109.775292 
L 288.635708 -110.068249 
L 288.440773 -110.361207 
L 288.686983 -110.654164 
L 289.347369 -110.947121 
L 290.351656 -111.240078 
L 291.598224 -111.533036 
L 292.970784 -111.825993 
L 294.356144 -112.11895 
L 295.65939 -112.411907 
L 296.813728 -112.704864 
L 297.783747 -112.997822 
L 298.562633 -113.290779 
L 299.165122 -113.583736 
L 299.618652 -113.876693 
L 299.954999 -114.16965 
L 300.204011 -114.462608 
L 300.390085 -114.755565 
L 300.531194 -115.048522 
L 300.639691 -115.341479 
L 300.723946 -115.634437 
L 300.789979 -115.927394 
L 300.84259 -116.220351 
L 300.885836 -116.513308 
L 300.922996 -116.806265 
L 300.956291 -117.099223 
L 300.986661 -117.39218 
L 301.013747 -117.685137 
L 301.036148 -117.978094 
L 301.051871 -118.271051 
L 301.058875 -118.564009 
L 301.055601 -118.856966 
L 301.041415 -119.149923 
L 301.016916 -119.44288 
L 300.98408 -119.735838 
L 300.946189 -120.028795 
L 300.907541 -120.321752 
L 300.872917 -120.614709 
L 300.846886 -120.907666 
L 300.833067 -121.200624 
L 300.833502 -121.493581 
L 300.848323 -121.786538 
L 300.875776 -122.079495 
L 300.912625 -122.372452 
L 300.954808 -122.66541 
L 300.998185 -122.958367 
L 301.039192 -123.251324 
L 301.075277 -123.544281 
L 301.105051 -123.837239 
L 301.128193 -124.130196 
L 301.145191 -124.423153 
L 301.206809 -124.423153 
L 301.206809 -124.423153 
L 301.223807 -124.130196 
L 301.246949 -123.837239 
L 301.276723 -123.544281 
L 301.312808 -123.251324 
L 301.353815 -122.958367 
L 301.397192 -122.66541 
L 301.439375 -122.372452 
L 301.476224 -122.079495 
L 301.503677 -121.786538 
L 301.518498 -121.493581 
L 301.518933 -121.200624 
L 301.505114 -120.907666 
L 301.479083 -120.614709 
L 301.444459 -120.321752 
L 301.405811 -120.028795 
L 301.36792 -119.735838 
L 301.335084 -119.44288 
L 301.310585 -119.149923 
L 301.296399 -118.856966 
L 301.293125 -118.564009 
L 301.300129 -118.271051 
L 301.315852 -117.978094 
L 301.338253 -117.685137 
L 301.365339 -117.39218 
L 301.395709 -117.099223 
L 301.429004 -116.806265 
L 301.466164 -116.513308 
L 301.50941 -116.220351 
L 301.562021 -115.927394 
L 301.628054 -115.634437 
L 301.712309 -115.341479 
L 301.820806 -115.048522 
L 301.961915 -114.755565 
L 302.147989 -114.462608 
L 302.397001 -114.16965 
L 302.733348 -113.876693 
L 303.186878 -113.583736 
L 303.789367 -113.290779 
L 304.568253 -112.997822 
L 305.538272 -112.704864 
L 306.69261 -112.411907 
L 307.995856 -112.11895 
L 309.381216 -111.825993 
L 310.753776 -111.533036 
L 312.000344 -111.240078 
L 313.004631 -110.947121 
L 313.665017 -110.654164 
L 313.911227 -110.361207 
L 313.716292 -110.068249 
L 313.101271 -109.775292 
L 312.13185 -109.482335 
L 310.907822 -109.189378 
L 309.547927 -108.896421 
L 308.173248 -108.603463 
L 306.892261 -108.310506 
L 305.789795 -108.017549 
L 304.920947 -107.724592 
L 304.309788 -107.431635 
L 303.951843 -107.138677 
L 303.819013 -106.84572 
L 303.86579 -106.552763 
L 304.036016 -106.259806 
L 304.269885 -105.966848 
L 304.511038 -105.673891 
L 304.713535 -105.380934 
L 304.848253 -105.087977 
L 304.908121 -104.79502 
L 304.911743 -104.502062 
L 304.905308 -104.209105 
L 304.96311 -103.916148 
L 305.187156 -103.623191 
L 305.705979 -103.330234 
L 306.671837 -103.037276 
L 308.254288 -102.744319 
L 310.627258 -102.451362 
L 313.946843 -102.158405 
L 318.318903 -101.865447 
L 323.759034 -101.57249 
L 330.152096 -101.279533 
L 337.222617 -100.986576 
L 344.528986 -100.693619 
L 351.491764 -100.400661 
L 357.459055 -100.107704 
L 361.801342 -99.814747 
L 364.0176 -99.52179 
L 363.828125 -99.228833 
L 361.23021 -98.935875 
L 356.501381 -98.642918 
L 350.148678 -98.349961 
L 342.81697 -98.057004 
L 335.179457 -97.764046 
L 327.836173 -97.471089 
L 321.241264 -97.178132 
L 315.669496 -96.885175 
L 311.221025 -96.592218 
L 307.854517 -96.29926 
L 305.434532 -96.006303 
L 303.77969 -95.713346 
L 302.702038 -95.420389 
z
" style="stroke: #595959; stroke-width: 1.25"/>
    </defs>
    <g clip-path="url(#pb169ca86f2)">
     <use xlink:href="#md1a2a16342" x="0" y="432" style="fill: #e99675; stroke: #595959; stroke-width: 1.25"/>
    </g>
   </g>
   <g id="PolyCollection_3">
    <defs>
     <path id="mc441369c59" d="M 460.179925 -144.079326 
L 456.380075 -144.079326 
L 455.206217 -145.000791 
L 453.482969 -145.922255 
L 451.057726 -146.84372 
L 447.788964 -147.765185 
L 443.575567 -148.686649 
L 438.391217 -149.608114 
L 432.317545 -150.529578 
L 425.567574 -151.451043 
L 418.490629 -152.372508 
L 411.552219 -153.293972 
L 405.287326 -154.215437 
L 400.232175 -155.136902 
L 396.845997 -156.058366 
L 395.4384 -156.979831 
L 396.118202 -157.901296 
L 398.775317 -158.82276 
L 403.099782 -159.744225 
L 408.633296 -160.665689 
L 414.841421 -161.587154 
L 421.190868 -162.508619 
L 427.216887 -163.430083 
L 432.569965 -164.351548 
L 437.037211 -165.273013 
L 440.53989 -166.194477 
L 443.11293 -167.115942 
L 444.874175 -168.037406 
L 445.990825 -168.958871 
L 446.648693 -169.880336 
L 447.027525 -170.8018 
L 447.283619 -171.723265 
L 447.539479 -172.64473 
L 447.879547 -173.566194 
L 448.35077 -174.487659 
L 448.966754 -175.409123 
L 449.71432 -176.330588 
L 450.561339 -177.252053 
L 451.46481 -178.173517 
L 452.378287 -179.094982 
L 453.25796 -180.016447 
L 454.066957 -180.937911 
L 454.777722 -181.859376 
L 455.372536 -182.78084 
L 455.842511 -183.702305 
L 456.185487 -184.62377 
L 456.40337 -185.545234 
L 456.499484 -186.466699 
L 456.476467 -187.388164 
L 456.335154 -188.309628 
L 456.074767 -189.231093 
L 455.694467 -190.152557 
L 455.196105 -191.074022 
L 454.587682 -191.995487 
L 453.886757 -192.916951 
L 453.122886 -193.838416 
L 452.338188 -194.759881 
L 451.585355 -195.681345 
L 450.922951 -196.60281 
L 450.408462 -197.524274 
L 450.09022 -198.445739 
L 449.999784 -199.367204 
L 450.146479 -200.288668 
L 450.515415 -201.210133 
L 451.06959 -202.131598 
L 451.755713 -203.053062 
L 452.512532 -203.974527 
L 453.279847 -204.895991 
L 454.006396 -205.817456 
L 454.655159 -206.738921 
L 455.205431 -207.660385 
L 455.651814 -208.58185 
L 456.000931 -209.503315 
L 456.267039 -210.424779 
L 456.467641 -211.346244 
L 456.619945 -212.267709 
L 456.738585 -213.189173 
L 456.834616 -214.110638 
L 456.91555 -215.032102 
L 456.986049 -215.953567 
L 457.048908 -216.875032 
L 457.106018 -217.796496 
L 457.15912 -218.717961 
L 457.210232 -219.639426 
L 457.261728 -220.56089 
L 457.316131 -221.482355 
L 457.375706 -222.403819 
L 457.442011 -223.325284 
L 457.515539 -224.246749 
L 457.595544 -225.168213 
L 457.680122 -226.089678 
L 457.766498 -227.011143 
L 457.85147 -227.932607 
L 457.931887 -228.854072 
L 458.005078 -229.775536 
L 458.069142 -230.697001 
L 458.123087 -231.618466 
L 458.166795 -232.53993 
L 458.200879 -233.461395 
L 458.226464 -234.38286 
L 458.244953 -235.304324 
L 458.315047 -235.304324 
L 458.315047 -235.304324 
L 458.333536 -234.38286 
L 458.359121 -233.461395 
L 458.393205 -232.53993 
L 458.436913 -231.618466 
L 458.490858 -230.697001 
L 458.554922 -229.775536 
L 458.628113 -228.854072 
L 458.70853 -227.932607 
L 458.793502 -227.011143 
L 458.879878 -226.089678 
L 458.964456 -225.168213 
L 459.044461 -224.246749 
L 459.117989 -223.325284 
L 459.184294 -222.403819 
L 459.243869 -221.482355 
L 459.298272 -220.56089 
L 459.349768 -219.639426 
L 459.40088 -218.717961 
L 459.453982 -217.796496 
L 459.511092 -216.875032 
L 459.573951 -215.953567 
L 459.64445 -215.032102 
L 459.725384 -214.110638 
L 459.821415 -213.189173 
L 459.940055 -212.267709 
L 460.092359 -211.346244 
L 460.292961 -210.424779 
L 460.559069 -209.503315 
L 460.908186 -208.58185 
L 461.354569 -207.660385 
L 461.904841 -206.738921 
L 462.553604 -205.817456 
L 463.280153 -204.895991 
L 464.047468 -203.974527 
L 464.804287 -203.053062 
L 465.49041 -202.131598 
L 466.044585 -201.210133 
L 466.413521 -200.288668 
L 466.560216 -199.367204 
L 466.46978 -198.445739 
L 466.151538 -197.524274 
L 465.637049 -196.60281 
L 464.974645 -195.681345 
L 464.221812 -194.759881 
L 463.437114 -193.838416 
L 462.673243 -192.916951 
L 461.972318 -191.995487 
L 461.363895 -191.074022 
L 460.865533 -190.152557 
L 460.485233 -189.231093 
L 460.224846 -188.309628 
L 460.083533 -187.388164 
L 460.060516 -186.466699 
L 460.15663 -185.545234 
L 460.374513 -184.62377 
L 460.717489 -183.702305 
L 461.187464 -182.78084 
L 461.782278 -181.859376 
L 462.493043 -180.937911 
L 463.30204 -180.016447 
L 464.181713 -179.094982 
L 465.09519 -178.173517 
L 465.998661 -177.252053 
L 466.84568 -176.330588 
L 467.593246 -175.409123 
L 468.20923 -174.487659 
L 468.680453 -173.566194 
L 469.020521 -172.64473 
L 469.276381 -171.723265 
L 469.532475 -170.8018 
L 469.911307 -169.880336 
L 470.569175 -168.958871 
L 471.685825 -168.037406 
L 473.44707 -167.115942 
L 476.02011 -166.194477 
L 479.522789 -165.273013 
L 483.990035 -164.351548 
L 489.343113 -163.430083 
L 495.369132 -162.508619 
L 501.718579 -161.587154 
L 507.926704 -160.665689 
L 513.460218 -159.744225 
L 517.784683 -158.82276 
L 520.441798 -157.901296 
L 521.1216 -156.979831 
L 519.714003 -156.058366 
L 516.327825 -155.136902 
L 511.272674 -154.215437 
L 505.007781 -153.293972 
L 498.069371 -152.372508 
L 490.992426 -151.451043 
L 484.242455 -150.529578 
L 478.168783 -149.608114 
L 472.984433 -148.686649 
L 468.771036 -147.765185 
L 465.502274 -146.84372 
L 463.077031 -145.922255 
L 461.353783 -145.000791 
L 460.179925 -144.079326 
z
" style="stroke: #595959; stroke-width: 1.25"/>
    </defs>
    <g clip-path="url(#pb169ca86f2)">
     <use xlink:href="#mc441369c59" x="0" y="432" style="fill: #95a3c3; stroke: #595959; stroke-width: 1.25"/>
    </g>
   </g>
   <g id="PolyCollection_4">
    <defs>
     <path id="m70091e52f4" d="M 617.112068 -108.963084 
L 613.655932 -108.963084 
L 612.695266 -109.344678 
L 611.324768 -109.726271 
L 609.437011 -110.107865 
L 606.928033 -110.489458 
L 603.713015 -110.871051 
L 599.745051 -111.252645 
L 595.034329 -111.634238 
L 589.663944 -112.015832 
L 583.798105 -112.397425 
L 577.679047 -112.779018 
L 571.610624 -113.160612 
L 565.929153 -113.542205 
L 560.965054 -113.923799 
L 557.001406 -114.305392 
L 554.236917 -114.686986 
L 552.760485 -115.068579 
L 552.5424 -115.450172 
L 553.443851 -115.831766 
L 555.242526 -116.213359 
L 557.66885 -116.594953 
L 560.445573 -116.976546 
L 563.323366 -117.358139 
L 566.106772 -117.739733 
L 568.667563 -118.121326 
L 570.945543 -118.50292 
L 572.939294 -118.884513 
L 574.690731 -119.266106 
L 576.26758 -119.6477 
L 577.747102 -120.029293 
L 579.203147 -120.410887 
L 580.697272 -120.79248 
L 582.273687 -121.174074 
L 583.957272 -121.555667 
L 585.753837 -121.93726 
L 587.651999 -122.318854 
L 589.626269 -122.700447 
L 591.641071 -123.082041 
L 593.655363 -123.463634 
L 595.627386 -123.845227 
L 597.518898 -124.226821 
L 599.298225 -124.608414 
L 600.941639 -124.990008 
L 602.432849 -125.371601 
L 603.760881 -125.753195 
L 604.916963 -126.134788 
L 605.891345 -126.516381 
L 606.671 -126.897975 
L 607.239006 -127.279568 
L 607.576013 -127.661162 
L 607.663733 -128.042755 
L 607.489877 -128.424348 
L 607.053603 -128.805942 
L 606.370272 -129.187535 
L 605.474397 -129.569129 
L 604.419851 -129.950722 
L 603.276961 -130.332315 
L 602.126632 -130.713909 
L 601.052313 -131.095502 
L 600.131088 -131.477096 
L 599.425412 -131.858689 
L 598.976963 -132.240283 
L 598.80366 -132.621876 
L 598.900264 -133.003469 
L 599.242244 -133.385063 
L 599.791915 -133.766656 
L 600.505488 -134.14825 
L 601.339562 -134.529843 
L 602.255926 -134.911436 
L 603.224013 -135.29303 
L 604.221018 -135.674623 
L 605.23021 -136.056217 
L 606.238319 -136.43781 
L 607.23294 -136.819404 
L 608.200722 -137.200997 
L 609.126776 -137.58259 
L 609.995299 -137.964184 
L 610.791122 -138.345777 
L 611.501651 -138.727371 
L 612.118651 -139.108964 
L 612.639425 -139.490557 
L 613.067133 -139.872151 
L 613.410223 -140.253744 
L 613.681135 -140.635338 
L 613.894562 -141.016931 
L 614.065598 -141.398524 
L 614.208085 -141.780118 
L 614.333371 -142.161711 
L 614.449622 -142.543305 
L 614.561682 -142.924898 
L 614.67142 -143.306492 
L 614.778414 -143.688085 
L 614.880795 -144.069678 
L 614.976104 -144.451272 
L 615.062 -144.832865 
L 615.136759 -145.214459 
L 615.199525 -145.596052 
L 615.25034 -145.977645 
L 615.290011 -146.359239 
L 615.319882 -146.740832 
L 615.448118 -146.740832 
L 615.448118 -146.740832 
L 615.477989 -146.359239 
L 615.51766 -145.977645 
L 615.568475 -145.596052 
L 615.631241 -145.214459 
L 615.706 -144.832865 
L 615.791896 -144.451272 
L 615.887205 -144.069678 
L 615.989586 -143.688085 
L 616.09658 -143.306492 
L 616.206318 -142.924898 
L 616.318378 -142.543305 
L 616.434629 -142.161711 
L 616.559915 -141.780118 
L 616.702402 -141.398524 
L 616.873438 -141.016931 
L 617.086865 -140.635338 
L 617.357777 -140.253744 
L 617.700867 -139.872151 
L 618.128575 -139.490557 
L 618.649349 -139.108964 
L 619.266349 -138.727371 
L 619.976878 -138.345777 
L 620.772701 -137.964184 
L 621.641224 -137.58259 
L 622.567278 -137.200997 
L 623.53506 -136.819404 
L 624.529681 -136.43781 
L 625.53779 -136.056217 
L 626.546982 -135.674623 
L 627.543987 -135.29303 
L 628.512074 -134.911436 
L 629.428438 -134.529843 
L 630.262512 -134.14825 
L 630.976085 -133.766656 
L 631.525756 -133.385063 
L 631.867736 -133.003469 
L 631.96434 -132.621876 
L 631.791037 -132.240283 
L 631.342588 -131.858689 
L 630.636912 -131.477096 
L 629.715687 -131.095502 
L 628.641368 -130.713909 
L 627.491039 -130.332315 
L 626.348149 -129.950722 
L 625.293603 -129.569129 
L 624.397728 -129.187535 
L 623.714397 -128.805942 
L 623.278123 -128.424348 
L 623.104267 -128.042755 
L 623.191987 -127.661162 
L 623.528994 -127.279568 
L 624.097 -126.897975 
L 624.876655 -126.516381 
L 625.851037 -126.134788 
L 627.007119 -125.753195 
L 628.335151 -125.371601 
L 629.826361 -124.990008 
L 631.469775 -124.608414 
L 633.249102 -124.226821 
L 635.140614 -123.845227 
L 637.112637 -123.463634 
L 639.126929 -123.082041 
L 641.141731 -122.700447 
L 643.116001 -122.318854 
L 645.014163 -121.93726 
L 646.810728 -121.555667 
L 648.494313 -121.174074 
L 650.070728 -120.79248 
L 651.564853 -120.410887 
L 653.020898 -120.029293 
L 654.50042 -119.6477 
L 656.077269 -119.266106 
L 657.828706 -118.884513 
L 659.822457 -118.50292 
L 662.100437 -118.121326 
L 664.661228 -117.739733 
L 667.444634 -117.358139 
L 670.322427 -116.976546 
L 673.09915 -116.594953 
L 675.525474 -116.213359 
L 677.324149 -115.831766 
L 678.2256 -115.450172 
L 678.007515 -115.068579 
L 676.531083 -114.686986 
L 673.766594 -114.305392 
L 669.802946 -113.923799 
L 664.838847 -113.542205 
L 659.157376 -113.160612 
L 653.088953 -112.779018 
L 646.969895 -112.397425 
L 641.104056 -112.015832 
L 635.733671 -111.634238 
L 631.022949 -111.252645 
L 627.054985 -110.871051 
L 623.839967 -110.489458 
L 621.330989 -110.107865 
L 619.443232 -109.726271 
L 618.072734 -109.344678 
L 617.112068 -108.963084 
z
" style="stroke: #595959; stroke-width: 1.25"/>
    </defs>
    <g clip-path="url(#pb169ca86f2)">
     <use xlink:href="#m70091e52f4" x="0" y="432" style="fill: #db96c0; stroke: #595959; stroke-width: 1.25"/>
    </g>
   </g>
   <g id="PolyCollection_5">
    <defs>
     <path id="m12e3453cda" d="M 773.809587 -91.757667 
L 771.166413 -91.757667 
L 770.305916 -91.988297 
L 769.012673 -92.218927 
L 767.148075 -92.449557 
L 764.570921 -92.680187 
L 761.159563 -92.910817 
L 756.840387 -93.141447 
L 751.618427 -93.372077 
L 745.603477 -93.602707 
L 739.02394 -93.833337 
L 732.221479 -94.063967 
L 725.622848 -94.294597 
L 719.690485 -94.525227 
L 714.859329 -94.755857 
L 711.471989 -94.986487 
L 709.726186 -95.217117 
L 709.6464 -95.447747 
L 711.086177 -95.678377 
L 713.760187 -95.909007 
L 717.298045 -96.139637 
L 721.307258 -96.370267 
L 725.431652 -96.600897 
L 729.394247 -96.831527 
L 733.018663 -97.062157 
L 736.228909 -97.292787 
L 739.03219 -97.523417 
L 741.492014 -97.754047 
L 743.699198 -97.984677 
L 745.746782 -98.215307 
L 747.712362 -98.445937 
L 749.648748 -98.676566 
L 751.581906 -98.907196 
L 753.514012 -99.137826 
L 755.429224 -99.368456 
L 757.300095 -99.599086 
L 759.093213 -99.829716 
L 760.773348 -100.060346 
L 762.305998 -100.290976 
L 763.658647 -100.521606 
L 764.801285 -100.752236 
L 765.70684 -100.982866 
L 766.352099 -101.213496 
L 766.719521 -101.444126 
L 766.800035 -101.674756 
L 766.596544 -101.905386 
L 766.127405 -102.136016 
L 765.428923 -102.366646 
L 764.555745 -102.597276 
L 763.578376 -102.827906 
L 762.577582 -103.058536 
L 761.636269 -103.289166 
L 760.830185 -103.519796 
L 760.219287 -103.750426 
L 759.841597 -103.981056 
L 759.710843 -104.211686 
L 759.818228 -104.442316 
L 760.137609 -104.672946 
L 760.63256 -104.903576 
L 761.263419 -105.134206 
L 761.992674 -105.364836 
L 762.787758 -105.595466 
L 763.621233 -105.826095 
L 764.469192 -106.056725 
L 765.309149 -106.287355 
L 766.118631 -106.517985 
L 766.875262 -106.748615 
L 767.558418 -106.979245 
L 768.151902 -107.209875 
L 768.646693 -107.440505 
L 769.042789 -107.671135 
L 769.349464 -107.901765 
L 769.583724 -108.132395 
L 769.767292 -108.363025 
L 769.92279 -108.593655 
L 770.069986 -108.824285 
L 770.2229 -109.054915 
L 770.388294 -109.285545 
L 770.565737 -109.516175 
L 770.749079 -109.746805 
L 770.928878 -109.977435 
L 771.095168 -110.208065 
L 771.239954 -110.438695 
L 771.358942 -110.669325 
L 771.452236 -110.899955 
L 771.523968 -111.130585 
L 771.581086 -111.361215 
L 771.631665 -111.591845 
L 771.683178 -111.822475 
L 771.741108 -112.053105 
L 771.80817 -112.283735 
L 771.884204 -112.514365 
L 771.96668 -112.744995 
L 772.051575 -112.975625 
L 772.134384 -113.206254 
L 772.211023 -113.436884 
L 772.278453 -113.667514 
L 772.334965 -113.898144 
L 772.380157 -114.128774 
L 772.414694 -114.359404 
L 772.439947 -114.590034 
L 772.536053 -114.590034 
L 772.536053 -114.590034 
L 772.561306 -114.359404 
L 772.595843 -114.128774 
L 772.641035 -113.898144 
L 772.697547 -113.667514 
L 772.764977 -113.436884 
L 772.841616 -113.206254 
L 772.924425 -112.975625 
L 773.00932 -112.744995 
L 773.091796 -112.514365 
L 773.16783 -112.283735 
L 773.234892 -112.053105 
L 773.292822 -111.822475 
L 773.344335 -111.591845 
L 773.394914 -111.361215 
L 773.452032 -111.130585 
L 773.523764 -110.899955 
L 773.617058 -110.669325 
L 773.736046 -110.438695 
L 773.880832 -110.208065 
L 774.047122 -109.977435 
L 774.226921 -109.746805 
L 774.410263 -109.516175 
L 774.587706 -109.285545 
L 774.7531 -109.054915 
L 774.906014 -108.824285 
L 775.05321 -108.593655 
L 775.208708 -108.363025 
L 775.392276 -108.132395 
L 775.626536 -107.901765 
L 775.933211 -107.671135 
L 776.329307 -107.440505 
L 776.824098 -107.209875 
L 777.417582 -106.979245 
L 778.100738 -106.748615 
L 778.857369 -106.517985 
L 779.666851 -106.287355 
L 780.506808 -106.056725 
L 781.354767 -105.826095 
L 782.188242 -105.595466 
L 782.983326 -105.364836 
L 783.712581 -105.134206 
L 784.34344 -104.903576 
L 784.838391 -104.672946 
L 785.157772 -104.442316 
L 785.265157 -104.211686 
L 785.134403 -103.981056 
L 784.756713 -103.750426 
L 784.145815 -103.519796 
L 783.339731 -103.289166 
L 782.398418 -103.058536 
L 781.397624 -102.827906 
L 780.420255 -102.597276 
L 779.547077 -102.366646 
L 778.848595 -102.136016 
L 778.379456 -101.905386 
L 778.175965 -101.674756 
L 778.256479 -101.444126 
L 778.623901 -101.213496 
L 779.26916 -100.982866 
L 780.174715 -100.752236 
L 781.317353 -100.521606 
L 782.670002 -100.290976 
L 784.202652 -100.060346 
L 785.882787 -99.829716 
L 787.675905 -99.599086 
L 789.546776 -99.368456 
L 791.461988 -99.137826 
L 793.394094 -98.907196 
L 795.327252 -98.676566 
L 797.263638 -98.445937 
L 799.229218 -98.215307 
L 801.276802 -97.984677 
L 803.483986 -97.754047 
L 805.94381 -97.523417 
L 808.747091 -97.292787 
L 811.957337 -97.062157 
L 815.581753 -96.831527 
L 819.544348 -96.600897 
L 823.668742 -96.370267 
L 827.677955 -96.139637 
L 831.215813 -95.909007 
L 833.889823 -95.678377 
L 835.3296 -95.447747 
L 835.249814 -95.217117 
L 833.504011 -94.986487 
L 830.116671 -94.755857 
L 825.285515 -94.525227 
L 819.353152 -94.294597 
L 812.754521 -94.063967 
L 805.95206 -93.833337 
L 799.372523 -93.602707 
L 793.357573 -93.372077 
L 788.135613 -93.141447 
L 783.816437 -92.910817 
L 780.405079 -92.680187 
L 777.827925 -92.449557 
L 775.963327 -92.218927 
L 774.670084 -91.988297 
L 773.809587 -91.757667 
z
" style="stroke: #595959; stroke-width: 1.25"/>
    </defs>
    <g clip-path="url(#pb169ca86f2)">
     <use xlink:href="#m12e3453cda" x="0" y="432" style="fill: #a2c865; stroke: #595959; stroke-width: 1.25"/>
    </g>
   </g>
   <g id="line2d_9">
    <path d="M 144.072 322.994018 
L 144.072 324.199004 
" clip-path="url(#pb169ca86f2)" style="fill: none; stroke: #000000"/>
   </g>
   <g id="line2d_10">
    <path d="M 144.072 321.15039 
L 144.072 318.463272 
" clip-path="url(#pb169ca86f2)" style="fill: none; stroke: #000000"/>
   </g>
   <g id="line2d_11">
    <path d="M 138.1806 324.199004 
L 149.9634 324.199004 
" clip-path="url(#pb169ca86f2)" style="fill: none; stroke: #000000; stroke-linecap: round"/>
   </g>
   <g id="line2d_12">
    <path d="M 138.1806 318.463272 
L 149.9634 318.463272 
" clip-path="url(#pb169ca86f2)" style="fill: none; stroke: #000000; stroke-linecap: round"/>
   </g>
   <g id="line2d_13">
    <path d="M 301.176 332.874901 
L 301.176 333.887089 
" clip-path="url(#pb169ca86f2)" style="fill: none; stroke: #000000"/>
   </g>
   <g id="line2d_14">
    <path d="M 301.176 331.127672 
L 301.176 328.77795 
" clip-path="url(#pb169ca86f2)" style="fill: none; stroke: #000000"/>
   </g>
   <g id="line2d_15">
    <path d="M 295.2846 333.887089 
L 307.0674 333.887089 
" clip-path="url(#pb169ca86f2)" style="fill: none; stroke: #000000; stroke-linecap: round"/>
   </g>
   <g id="line2d_16">
    <path d="M 295.2846 328.77795 
L 307.0674 328.77795 
" clip-path="url(#pb169ca86f2)" style="fill: none; stroke: #000000; stroke-linecap: round"/>
   </g>
   <g id="line2d_17">
    <path d="M 458.28 275.662179 
L 458.28 278.602345 
" clip-path="url(#pb169ca86f2)" style="fill: none; stroke: #000000"/>
   </g>
   <g id="line2d_18">
    <path d="M 458.28 263.515923 
L 458.28 245.778534 
" clip-path="url(#pb169ca86f2)" style="fill: none; stroke: #000000"/>
   </g>
   <g id="line2d_19">
    <path d="M 452.3886 278.602345 
L 464.1714 278.602345 
" clip-path="url(#pb169ca86f2)" style="fill: none; stroke: #000000; stroke-linecap: round"/>
   </g>
   <g id="line2d_20">
    <path d="M 452.3886 245.778534 
L 464.1714 245.778534 
" clip-path="url(#pb169ca86f2)" style="fill: none; stroke: #000000; stroke-linecap: round"/>
   </g>
   <g id="line2d_21">
    <path d="M 615.384 317.077538 
L 615.384 318.848867 
" clip-path="url(#pb169ca86f2)" style="fill: none; stroke: #000000"/>
   </g>
   <g id="line2d_22">
    <path d="M 615.384 308.943885 
L 615.384 296.966327 
" clip-path="url(#pb169ca86f2)" style="fill: none; stroke: #000000"/>
   </g>
   <g id="line2d_23">
    <path d="M 609.4926 318.848867 
L 621.2754 318.848867 
" clip-path="url(#pb169ca86f2)" style="fill: none; stroke: #000000; stroke-linecap: round"/>
   </g>
   <g id="line2d_24">
    <path d="M 609.4926 296.966327 
L 621.2754 296.966327 
" clip-path="url(#pb169ca86f2)" style="fill: none; stroke: #000000; stroke-linecap: round"/>
   </g>
   <g id="line2d_25">
    <path d="M 772.488 336.875454 
L 772.488 337.935841 
" clip-path="url(#pb169ca86f2)" style="fill: none; stroke: #000000"/>
   </g>
   <g id="line2d_26">
    <path d="M 772.488 333.152048 
L 772.488 327.572964 
" clip-path="url(#pb169ca86f2)" style="fill: none; stroke: #000000"/>
   </g>
   <g id="line2d_27">
    <path d="M 766.5966 337.935841 
L 778.3794 337.935841 
" clip-path="url(#pb169ca86f2)" style="fill: none; stroke: #000000; stroke-linecap: round"/>
   </g>
   <g id="line2d_28">
    <path d="M 766.5966 327.572964 
L 778.3794 327.572964 
" clip-path="url(#pb169ca86f2)" style="fill: none; stroke: #000000; stroke-linecap: round"/>
   </g>
   <g id="line2d_29">
    <path d="M 132.2892 322.560223 
L 155.8548 322.560223 
" clip-path="url(#pb169ca86f2)" style="fill: none; stroke: #ff0000; stroke-width: 2"/>
   </g>
   <g id="line2d_30">
    <path d="M 289.3932 332.392907 
L 312.9588 332.392907 
" clip-path="url(#pb169ca86f2)" style="fill: none; stroke: #ff0000; stroke-width: 2"/>
   </g>
   <g id="line2d_31">
    <path d="M 446.4972 274.119798 
L 470.0628 274.119798 
" clip-path="url(#pb169ca86f2)" style="fill: none; stroke: #ff0000; stroke-width: 2"/>
   </g>
   <g id="line2d_32">
    <path d="M 603.6012 313.691529 
L 627.1668 313.691529 
" clip-path="url(#pb169ca86f2)" style="fill: none; stroke: #ff0000; stroke-width: 2"/>
   </g>
   <g id="line2d_33">
    <path d="M 760.7052 335.983764 
L 784.2708 335.983764 
" clip-path="url(#pb169ca86f2)" style="fill: none; stroke: #ff0000; stroke-width: 2"/>
   </g>
   <g id="patch_3">
    <path d="M 65.52 358.276 
L 65.52 20.88 
" style="fill: none; stroke: #cccccc; stroke-width: 1.25; stroke-linejoin: miter; stroke-linecap: square"/>
   </g>
   <g id="patch_4">
    <path d="M 851.04 358.276 
L 851.04 20.88 
" style="fill: none; stroke: #cccccc; stroke-width: 1.25; stroke-linejoin: miter; stroke-linecap: square"/>
   </g>
   <g id="patch_5">
    <path d="M 65.52 358.276 
L 851.04 358.276 
" style="fill: none; stroke: #cccccc; stroke-width: 1.25; stroke-linejoin: miter; stroke-linecap: square"/>
   </g>
   <g id="patch_6">
    <path d="M 65.52 20.88 
L 851.04 20.88 
" style="fill: none; stroke: #cccccc; stroke-width: 1.25; stroke-linejoin: miter; stroke-linecap: square"/>
   </g>
   <g id="text_15">
    <g id="patch_7">
     <path d="M 609.165562 64.170425 
L 820.764 64.170425 
L 820.764 28.7498 
L 609.165562 28.7498 
z
" style="fill: #ffffff; opacity: 0.8; stroke: #808080; stroke-linejoin: miter"/>
    </g>
    <!-- Signature: secp384r1 -->
    <g style="fill: #262626" transform="translate(618.165562 51.426988) scale(0.18 -0.18)">
     <defs>
      <path id="DejaVuSans-53" d="M 3425 4513 
L 3425 3897 
Q 3066 4069 2747 4153 
Q 2428 4238 2131 4238 
Q 1616 4238 1336 4038 
Q 1056 3838 1056 3469 
Q 1056 3159 1242 3001 
Q 1428 2844 1947 2747 
L 2328 2669 
Q 3034 2534 3370 2195 
Q 3706 1856 3706 1288 
Q 3706 609 3251 259 
Q 2797 -91 1919 -91 
Q 1588 -91 1214 -16 
Q 841 59 441 206 
L 441 856 
Q 825 641 1194 531 
Q 1563 422 1919 422 
Q 2459 422 2753 634 
Q 3047 847 3047 1241 
Q 3047 1584 2836 1778 
Q 2625 1972 2144 2069 
L 1759 2144 
Q 1053 2284 737 2584 
Q 422 2884 422 3419 
Q 422 4038 858 4394 
Q 1294 4750 2059 4750 
Q 2388 4750 2728 4690 
Q 3069 4631 3425 4513 
z
" transform="scale(0.015625)"/>
      <path id="DejaVuSans-67" d="M 2906 1791 
Q 2906 2416 2648 2759 
Q 2391 3103 1925 3103 
Q 1463 3103 1205 2759 
Q 947 2416 947 1791 
Q 947 1169 1205 825 
Q 1463 481 1925 481 
Q 2391 481 2648 825 
Q 2906 1169 2906 1791 
z
M 3481 434 
Q 3481 -459 3084 -895 
Q 2688 -1331 1869 -1331 
Q 1566 -1331 1297 -1286 
Q 1028 -1241 775 -1147 
L 775 -588 
Q 1028 -725 1275 -790 
Q 1522 -856 1778 -856 
Q 2344 -856 2625 -561 
Q 2906 -266 2906 331 
L 2906 616 
Q 2728 306 2450 153 
Q 2172 0 1784 0 
Q 1141 0 747 490 
Q 353 981 353 1791 
Q 353 2603 747 3093 
Q 1141 3584 1784 3584 
Q 2172 3584 2450 3431 
Q 2728 3278 2906 2969 
L 2906 3500 
L 3481 3500 
L 3481 434 
z
" transform="scale(0.015625)"/>
      <path id="DejaVuSans-3a" d="M 750 794 
L 1409 794 
L 1409 0 
L 750 0 
L 750 794 
z
M 750 3309 
L 1409 3309 
L 1409 2516 
L 750 2516 
L 750 3309 
z
" transform="scale(0.015625)"/>
      <path id="DejaVuSans-63" d="M 3122 3366 
L 3122 2828 
Q 2878 2963 2633 3030 
Q 2388 3097 2138 3097 
Q 1578 3097 1268 2742 
Q 959 2388 959 1747 
Q 959 1106 1268 751 
Q 1578 397 2138 397 
Q 2388 397 2633 464 
Q 2878 531 3122 666 
L 3122 134 
Q 2881 22 2623 -34 
Q 2366 -91 2075 -91 
Q 1284 -91 818 406 
Q 353 903 353 1747 
Q 353 2603 823 3093 
Q 1294 3584 2113 3584 
Q 2378 3584 2631 3529 
Q 2884 3475 3122 3366 
z
" transform="scale(0.015625)"/>
      <path id="DejaVuSans-70" d="M 1159 525 
L 1159 -1331 
L 581 -1331 
L 581 3500 
L 1159 3500 
L 1159 2969 
Q 1341 3281 1617 3432 
Q 1894 3584 2278 3584 
Q 2916 3584 3314 3078 
Q 3713 2572 3713 1747 
Q 3713 922 3314 415 
Q 2916 -91 2278 -91 
Q 1894 -91 1617 61 
Q 1341 213 1159 525 
z
M 3116 1747 
Q 3116 2381 2855 2742 
Q 2594 3103 2138 3103 
Q 1681 3103 1420 2742 
Q 1159 2381 1159 1747 
Q 1159 1113 1420 752 
Q 1681 391 2138 391 
Q 2594 391 2855 752 
Q 3116 1113 3116 1747 
z
" transform="scale(0.015625)"/>
     </defs>
     <use xlink:href="#DejaVuSans-53"/>
     <use xlink:href="#DejaVuSans-69" x="63.476562"/>
     <use xlink:href="#DejaVuSans-67" x="91.259766"/>
     <use xlink:href="#DejaVuSans-6e" x="154.736328"/>
     <use xlink:href="#DejaVuSans-61" x="218.115234"/>
     <use xlink:href="#DejaVuSans-74" x="279.394531"/>
     <use xlink:href="#DejaVuSans-75" x="318.603516"/>
     <use xlink:href="#DejaVuSans-72" x="381.982422"/>
     <use xlink:href="#DejaVuSans-65" x="420.845703"/>
     <use xlink:href="#DejaVuSans-3a" x="482.369141"/>
     <use xlink:href="#DejaVuSans-20" x="516.060547"/>
     <use xlink:href="#DejaVuSans-73" x="547.847656"/>
     <use xlink:href="#DejaVuSans-65" x="599.947266"/>
     <use xlink:href="#DejaVuSans-63" x="661.470703"/>
     <use xlink:href="#DejaVuSans-70" x="716.451172"/>
     <use xlink:href="#DejaVuSans-33" x="779.927734"/>
     <use xlink:href="#DejaVuSans-38" x="843.550781"/>
     <use xlink:href="#DejaVuSans-34" x="907.173828"/>
     <use xlink:href="#DejaVuSans-72" x="970.796875"/>
     <use xlink:href="#DejaVuSans-31" x="1011.910156"/>
    </g>
   </g>
  </g>
 </g>
 <defs>
  <clipPath id="pb169ca86f2">
   <rect x="65.52" y="20.88" width="785.52" height="337.396"/>
  </clipPath>
 </defs>
</svg>
