<?xml version="1.0" encoding="utf-8" standalone="no"?>
<!DOCTYPE svg PUBLIC "-//W3C//DTD SVG 1.1//EN"
  "http://www.w3.org/Graphics/SVG/1.1/DTD/svg11.dtd">
<svg xmlns:xlink="http://www.w3.org/1999/xlink" width="864pt" height="432pt" viewBox="0 0 864 432" xmlns="http://www.w3.org/2000/svg" version="1.1">
 <metadata>
  <rdf:RDF xmlns:dc="http://purl.org/dc/elements/1.1/" xmlns:cc="http://creativecommons.org/ns#" xmlns:rdf="http://www.w3.org/1999/02/22-rdf-syntax-ns#">
   <cc:Work>
    <dc:type rdf:resource="http://purl.org/dc/dcmitype/StillImage"/>
    <dc:date>2026-03-07T11:43:47.636602</dc:date>
    <dc:format>image/svg+xml</dc:format>
    <dc:creator>
     <cc:Agent>
      <dc:title>Matplotlib v3.6.3, https://matplotlib.org/</dc:title>
     </cc:Agent>
    </dc:creator>
   </cc:Work>
  </rdf:RDF>
 </metadata>
 <defs>
  <style type="text/css">*{stroke-linejoin: round; stroke-linecap: butt}</style>
 </defs>
 <g id="figure_1">
  <g id="patch_1">
   <path d="M 0 432 
L 864 432 
L 864 0 
L 0 0 
z
" style="fill: #ffffff"/>
  </g>
  <g id="axes_1">
   <g id="patch_2">
    <path d="M 65.52 358.276 
L 851.04 358.276 
L 851.04 20.88 
L 65.52 20.88 
z
" style="fill: #ffffff"/>
   </g>
   <g id="matplotlib.axis_1">
    <g id="xtick_1">
     <g id="text_1">
      <!-- P-384 -->
      <g style="fill: #262626" transform="translate(109.872 386.01225) scale(0.24 -0.24)">
       <defs>
        <path id="DejaVuSans-50" d="M 1259 4147 
L 1259 2394 
L 2053 2394 
Q 2494 2394 2734 2622 
Q 2975 2850 2975 3272 
Q 2975 3691 2734 3919 
Q 2494 4147 2053 4147 
L 1259 4147 
z
M 628 4666 
L 2053 4666 
Q 2838 4666 3239 4311 
Q 3641 3956 3641 3272 
Q 3641 2581 3239 2228 
Q 2838 1875 2053 1875 
L 1259 1875 
L 1259 0 
L 628 0 
L 628 4666 
z
" transform="scale(0.015625)"/>
        <path id="DejaVuSans-2d" d="M 313 2009 
L 1997 2009 
L 1997 1497 
L 313 1497 
L 313 2009 
z
" transform="scale(0.015625)"/>
        <path id="DejaVuSans-33" d="M 2597 2516 
Q 3050 2419 3304 2112 
Q 3559 1806 3559 1356 
Q 3559 666 3084 287 
Q 2609 -91 1734 -91 
Q 1441 -91 1130 -33 
Q 819 25 488 141 
L 488 750 
Q 750 597 1062 519 
Q 1375 441 1716 441 
Q 2309 441 2620 675 
Q 2931 909 2931 1356 
Q 2931 1769 2642 2001 
Q 2353 2234 1838 2234 
L 1294 2234 
L 1294 2753 
L 1863 2753 
Q 2328 2753 2575 2939 
Q 2822 3125 2822 3475 
Q 2822 3834 2567 4026 
Q 2313 4219 1838 4219 
Q 1578 4219 1281 4162 
Q 984 4106 628 3988 
L 628 4550 
Q 988 4650 1302 4700 
Q 1616 4750 1894 4750 
Q 2613 4750 3031 4423 
Q 3450 4097 3450 3541 
Q 3450 3153 3228 2886 
Q 3006 2619 2597 2516 
z
" transform="scale(0.015625)"/>
        <path id="DejaVuSans-38" d="M 2034 2216 
Q 1584 2216 1326 1975 
Q 1069 1734 1069 1313 
Q 1069 891 1326 650 
Q 1584 409 2034 409 
Q 2484 409 2743 651 
Q 3003 894 3003 1313 
Q 3003 1734 2745 1975 
Q 2488 2216 2034 2216 
z
M 1403 2484 
Q 997 2584 770 2862 
Q 544 3141 544 3541 
Q 544 4100 942 4425 
Q 1341 4750 2034 4750 
Q 2731 4750 3128 4425 
Q 3525 4100 3525 3541 
Q 3525 3141 3298 2862 
Q 3072 2584 2669 2484 
Q 3125 2378 3379 2068 
Q 3634 1759 3634 1313 
Q 3634 634 3220 271 
Q 2806 -91 2034 -91 
Q 1263 -91 848 271 
Q 434 634 434 1313 
Q 434 1759 690 2068 
Q 947 2378 1403 2484 
z
M 1172 3481 
Q 1172 3119 1398 2916 
Q 1625 2713 2034 2713 
Q 2441 2713 2670 2916 
Q 2900 3119 2900 3481 
Q 2900 3844 2670 4047 
Q 2441 4250 2034 4250 
Q 1625 4250 1398 4047 
Q 1172 3844 1172 3481 
z
" transform="scale(0.015625)"/>
        <path id="DejaVuSans-34" d="M 2419 4116 
L 825 1625 
L 2419 1625 
L 2419 4116 
z
M 2253 4666 
L 3047 4666 
L 3047 1625 
L 3713 1625 
L 3713 1100 
L 3047 1100 
L 3047 0 
L 2419 0 
L 2419 1100 
L 313 1100 
L 313 1709 
L 2253 4666 
z
" transform="scale(0.015625)"/>
       </defs>
       <use xlink:href="#DejaVuSans-50"/>
       <use xlink:href="#DejaVuSans-2d" x="58.052734"/>
       <use xlink:href="#DejaVuSans-33" x="94.136719"/>
       <use xlink:href="#DejaVuSans-38" x="157.759766"/>
       <use xlink:href="#DejaVuSans-34" x="221.382812"/>
      </g>
     </g>
    </g>
    <g id="xtick_2">
     <g id="text_2">
      <!-- x448 -->
      <g style="fill: #262626" transform="translate(271.1685 386.01225) scale(0.24 -0.24)">
       <defs>
        <path id="DejaVuSans-78" d="M 3513 3500 
L 2247 1797 
L 3578 0 
L 2900 0 
L 1881 1375 
L 863 0 
L 184 0 
L 1544 1831 
L 300 3500 
L 978 3500 
L 1906 2253 
L 2834 3500 
L 3513 3500 
z
" transform="scale(0.015625)"/>
       </defs>
       <use xlink:href="#DejaVuSans-78"/>
       <use xlink:href="#DejaVuSans-34" x="59.179688"/>
       <use xlink:href="#DejaVuSans-34" x="122.802734"/>
       <use xlink:href="#DejaVuSans-38" x="186.425781"/>
      </g>
     </g>
    </g>
    <g id="xtick_3">
     <g id="text_3">
      <!-- P-384 -->
      <g style="fill: #262626" transform="translate(424.08 386.01225) scale(0.24 -0.24)">
       <use xlink:href="#DejaVuSans-50"/>
       <use xlink:href="#DejaVuSans-2d" x="58.052734"/>
       <use xlink:href="#DejaVuSans-33" x="94.136719"/>
       <use xlink:href="#DejaVuSans-38" x="157.759766"/>
       <use xlink:href="#DejaVuSans-34" x="221.382812"/>
      </g>
      <!-- mlkem768 -->
      <g style="fill: #262626" transform="translate(394.76625 412.887) scale(0.24 -0.24)">
       <defs>
        <path id="DejaVuSans-6d" d="M 3328 2828 
Q 3544 3216 3844 3400 
Q 4144 3584 4550 3584 
Q 5097 3584 5394 3201 
Q 5691 2819 5691 2113 
L 5691 0 
L 5113 0 
L 5113 2094 
Q 5113 2597 4934 2840 
Q 4756 3084 4391 3084 
Q 3944 3084 3684 2787 
Q 3425 2491 3425 1978 
L 3425 0 
L 2847 0 
L 2847 2094 
Q 2847 2600 2669 2842 
Q 2491 3084 2119 3084 
Q 1678 3084 1418 2786 
Q 1159 2488 1159 1978 
L 1159 0 
L 581 0 
L 581 3500 
L 1159 3500 
L 1159 2956 
Q 1356 3278 1631 3431 
Q 1906 3584 2284 3584 
Q 2666 3584 2933 3390 
Q 3200 3197 3328 2828 
z
" transform="scale(0.015625)"/>
        <path id="DejaVuSans-6c" d="M 603 4863 
L 1178 4863 
L 1178 0 
L 603 0 
L 603 4863 
z
" transform="scale(0.015625)"/>
        <path id="DejaVuSans-6b" d="M 581 4863 
L 1159 4863 
L 1159 1991 
L 2875 3500 
L 3609 3500 
L 1753 1863 
L 3688 0 
L 2938 0 
L 1159 1709 
L 1159 0 
L 581 0 
L 581 4863 
z
" transform="scale(0.015625)"/>
        <path id="DejaVuSans-65" d="M 3597 1894 
L 3597 1613 
L 953 1613 
Q 991 1019 1311 708 
Q 1631 397 2203 397 
Q 2534 397 2845 478 
Q 3156 559 3463 722 
L 3463 178 
Q 3153 47 2828 -22 
Q 2503 -91 2169 -91 
Q 1331 -91 842 396 
Q 353 884 353 1716 
Q 353 2575 817 3079 
Q 1281 3584 2069 3584 
Q 2775 3584 3186 3129 
Q 3597 2675 3597 1894 
z
M 3022 2063 
Q 3016 2534 2758 2815 
Q 2500 3097 2075 3097 
Q 1594 3097 1305 2825 
Q 1016 2553 972 2059 
L 3022 2063 
z
" transform="scale(0.015625)"/>
        <path id="DejaVuSans-37" d="M 525 4666 
L 3525 4666 
L 3525 4397 
L 1831 0 
L 1172 0 
L 2766 4134 
L 525 4134 
L 525 4666 
z
" transform="scale(0.015625)"/>
        <path id="DejaVuSans-36" d="M 2113 2584 
Q 1688 2584 1439 2293 
Q 1191 2003 1191 1497 
Q 1191 994 1439 701 
Q 1688 409 2113 409 
Q 2538 409 2786 701 
Q 3034 994 3034 1497 
Q 3034 2003 2786 2293 
Q 2538 2584 2113 2584 
z
M 3366 4563 
L 3366 3988 
Q 3128 4100 2886 4159 
Q 2644 4219 2406 4219 
Q 1781 4219 1451 3797 
Q 1122 3375 1075 2522 
Q 1259 2794 1537 2939 
Q 1816 3084 2150 3084 
Q 2853 3084 3261 2657 
Q 3669 2231 3669 1497 
Q 3669 778 3244 343 
Q 2819 -91 2113 -91 
Q 1303 -91 875 529 
Q 447 1150 447 2328 
Q 447 3434 972 4092 
Q 1497 4750 2381 4750 
Q 2619 4750 2861 4703 
Q 3103 4656 3366 4563 
z
" transform="scale(0.015625)"/>
       </defs>
       <use xlink:href="#DejaVuSans-6d"/>
       <use xlink:href="#DejaVuSans-6c" x="97.412109"/>
       <use xlink:href="#DejaVuSans-6b" x="125.195312"/>
       <use xlink:href="#DejaVuSans-65" x="179.480469"/>
       <use xlink:href="#DejaVuSans-6d" x="241.003906"/>
       <use xlink:href="#DejaVuSans-37" x="338.416016"/>
       <use xlink:href="#DejaVuSans-36" x="402.039062"/>
       <use xlink:href="#DejaVuSans-38" x="465.662109"/>
      </g>
     </g>
    </g>
    <g id="xtick_4">
     <g id="text_4">
      <!-- x448 -->
      <g style="fill: #262626" transform="translate(585.3765 386.01225) scale(0.24 -0.24)">
       <use xlink:href="#DejaVuSans-78"/>
       <use xlink:href="#DejaVuSans-34" x="59.179688"/>
       <use xlink:href="#DejaVuSans-34" x="122.802734"/>
       <use xlink:href="#DejaVuSans-38" x="186.425781"/>
      </g>
      <!-- mlkem768 -->
      <g style="fill: #262626" transform="translate(551.87025 412.887) scale(0.24 -0.24)">
       <use xlink:href="#DejaVuSans-6d"/>
       <use xlink:href="#DejaVuSans-6c" x="97.412109"/>
       <use xlink:href="#DejaVuSans-6b" x="125.195312"/>
       <use xlink:href="#DejaVuSans-65" x="179.480469"/>
       <use xlink:href="#DejaVuSans-6d" x="241.003906"/>
       <use xlink:href="#DejaVuSans-37" x="338.416016"/>
       <use xlink:href="#DejaVuSans-36" x="402.039062"/>
       <use xlink:href="#DejaVuSans-38" x="465.662109"/>
      </g>
     </g>
    </g>
    <g id="xtick_5">
     <g id="text_5">
      <!-- mlkem768 -->
      <g style="fill: #262626" transform="translate(708.97425 386.01225) scale(0.24 -0.24)">
       <use xlink:href="#DejaVuSans-6d"/>
       <use xlink:href="#DejaVuSans-6c" x="97.412109"/>
       <use xlink:href="#DejaVuSans-6b" x="125.195312"/>
       <use xlink:href="#DejaVuSans-65" x="179.480469"/>
       <use xlink:href="#DejaVuSans-6d" x="241.003906"/>
       <use xlink:href="#DejaVuSans-37" x="338.416016"/>
       <use xlink:href="#DejaVuSans-36" x="402.039062"/>
       <use xlink:href="#DejaVuSans-38" x="465.662109"/>
      </g>
     </g>
    </g>
   </g>
   <g id="matplotlib.axis_2">
    <g id="ytick_1">
     <g id="line2d_1">
      <path d="M 65.52 358.276 
L 851.04 358.276 
" clip-path="url(#pe7b63b92fd)" style="fill: none; stroke: #cccccc; stroke-linecap: round"/>
     </g>
     <g id="text_6">
      <!-- 0 -->
      <g style="fill: #262626" transform="translate(43.295 365.874437) scale(0.2 -0.2)">
       <defs>
        <path id="DejaVuSans-30" d="M 2034 4250 
Q 1547 4250 1301 3770 
Q 1056 3291 1056 2328 
Q 1056 1369 1301 889 
Q 1547 409 2034 409 
Q 2525 409 2770 889 
Q 3016 1369 3016 2328 
Q 3016 3291 2770 3770 
Q 2525 4250 2034 4250 
z
M 2034 4750 
Q 2819 4750 3233 4129 
Q 3647 3509 3647 2328 
Q 3647 1150 3233 529 
Q 2819 -91 2034 -91 
Q 1250 -91 836 529 
Q 422 1150 422 2328 
Q 422 3509 836 4129 
Q 1250 4750 2034 4750 
z
" transform="scale(0.015625)"/>
       </defs>
       <use xlink:href="#DejaVuSans-30"/>
      </g>
     </g>
    </g>
    <g id="ytick_2">
     <g id="line2d_2">
      <path d="M 65.52 310.076571 
L 851.04 310.076571 
" clip-path="url(#pe7b63b92fd)" style="fill: none; stroke: #cccccc; stroke-linecap: round"/>
     </g>
     <g id="text_7">
      <!-- 10 -->
      <g style="fill: #262626" transform="translate(30.57 317.675009) scale(0.2 -0.2)">
       <defs>
        <path id="DejaVuSans-31" d="M 794 531 
L 1825 531 
L 1825 4091 
L 703 3866 
L 703 4441 
L 1819 4666 
L 2450 4666 
L 2450 531 
L 3481 531 
L 3481 0 
L 794 0 
L 794 531 
z
" transform="scale(0.015625)"/>
       </defs>
       <use xlink:href="#DejaVuSans-31"/>
       <use xlink:href="#DejaVuSans-30" x="63.623047"/>
      </g>
     </g>
    </g>
    <g id="ytick_3">
     <g id="line2d_3">
      <path d="M 65.52 261.877143 
L 851.04 261.877143 
" clip-path="url(#pe7b63b92fd)" style="fill: none; stroke: #cccccc; stroke-linecap: round"/>
     </g>
     <g id="text_8">
      <!-- 20 -->
      <g style="fill: #262626" transform="translate(30.57 269.47558) scale(0.2 -0.2)">
       <defs>
        <path id="DejaVuSans-32" d="M 1228 531 
L 3431 531 
L 3431 0 
L 469 0 
L 469 531 
Q 828 903 1448 1529 
Q 2069 2156 2228 2338 
Q 2531 2678 2651 2914 
Q 2772 3150 2772 3378 
Q 2772 3750 2511 3984 
Q 2250 4219 1831 4219 
Q 1534 4219 1204 4116 
Q 875 4013 500 3803 
L 500 4441 
Q 881 4594 1212 4672 
Q 1544 4750 1819 4750 
Q 2544 4750 2975 4387 
Q 3406 4025 3406 3419 
Q 3406 3131 3298 2873 
Q 3191 2616 2906 2266 
Q 2828 2175 2409 1742 
Q 1991 1309 1228 531 
z
" transform="scale(0.015625)"/>
       </defs>
       <use xlink:href="#DejaVuSans-32"/>
       <use xlink:href="#DejaVuSans-30" x="63.623047"/>
      </g>
     </g>
    </g>
    <g id="ytick_4">
     <g id="line2d_4">
      <path d="M 65.52 213.677714 
L 851.04 213.677714 
" clip-path="url(#pe7b63b92fd)" style="fill: none; stroke: #cccccc; stroke-linecap: round"/>
     </g>
     <g id="text_9">
      <!-- 30 -->
      <g style="fill: #262626" transform="translate(30.57 221.276152) scale(0.2 -0.2)">
       <use xlink:href="#DejaVuSans-33"/>
       <use xlink:href="#DejaVuSans-30" x="63.623047"/>
      </g>
     </g>
    </g>
    <g id="ytick_5">
     <g id="line2d_5">
      <path d="M 65.52 165.478286 
L 851.04 165.478286 
" clip-path="url(#pe7b63b92fd)" style="fill: none; stroke: #cccccc; stroke-linecap: round"/>
     </g>
     <g id="text_10">
      <!-- 40 -->
      <g style="fill: #262626" transform="translate(30.57 173.076723) scale(0.2 -0.2)">
       <use xlink:href="#DejaVuSans-34"/>
       <use xlink:href="#DejaVuSans-30" x="63.623047"/>
      </g>
     </g>
    </g>
    <g id="ytick_6">
     <g id="line2d_6">
      <path d="M 65.52 117.278857 
L 851.04 117.278857 
" clip-path="url(#pe7b63b92fd)" style="fill: none; stroke: #cccccc; stroke-linecap: round"/>
     </g>
     <g id="text_11">
      <!-- 50 -->
      <g style="fill: #262626" transform="translate(30.57 124.877295) scale(0.2 -0.2)">
       <defs>
        <path id="DejaVuSans-35" d="M 691 4666 
L 3169 4666 
L 3169 4134 
L 1269 4134 
L 1269 2991 
Q 1406 3038 1543 3061 
Q 1681 3084 1819 3084 
Q 2600 3084 3056 2656 
Q 3513 2228 3513 1497 
Q 3513 744 3044 326 
Q 2575 -91 1722 -91 
Q 1428 -91 1123 -41 
Q 819 9 494 109 
L 494 744 
Q 775 591 1075 516 
Q 1375 441 1709 441 
Q 2250 441 2565 725 
Q 2881 1009 2881 1497 
Q 2881 1984 2565 2268 
Q 2250 2553 1709 2553 
Q 1456 2553 1204 2497 
Q 953 2441 691 2322 
L 691 4666 
z
" transform="scale(0.015625)"/>
       </defs>
       <use xlink:href="#DejaVuSans-35"/>
       <use xlink:href="#DejaVuSans-30" x="63.623047"/>
      </g>
     </g>
    </g>
    <g id="ytick_7">
     <g id="line2d_7">
      <path d="M 65.52 69.079429 
L 851.04 69.079429 
" clip-path="url(#pe7b63b92fd)" style="fill: none; stroke: #cccccc; stroke-linecap: round"/>
     </g>
     <g id="text_12">
      <!-- 60 -->
      <g style="fill: #262626" transform="translate(30.57 76.677866) scale(0.2 -0.2)">
       <use xlink:href="#DejaVuSans-36"/>
       <use xlink:href="#DejaVuSans-30" x="63.623047"/>
      </g>
     </g>
    </g>
    <g id="ytick_8">
     <g id="line2d_8">
      <path d="M 65.52 20.88 
L 851.04 20.88 
" clip-path="url(#pe7b63b92fd)" style="fill: none; stroke: #cccccc; stroke-linecap: round"/>
     </g>
     <g id="text_13">
      <!-- 70 -->
      <g style="fill: #262626" transform="translate(30.57 28.478438) scale(0.2 -0.2)">
       <use xlink:href="#DejaVuSans-37"/>
       <use xlink:href="#DejaVuSans-30" x="63.623047"/>
      </g>
     </g>
    </g>
    <g id="text_14">
     <!-- Handshake duration (ms) -->
     <g style="fill: #262626" transform="translate(23.658438 278.323781) rotate(-90) scale(0.14 -0.14)">
      <defs>
       <path id="DejaVuSans-48" d="M 628 4666 
L 1259 4666 
L 1259 2753 
L 3553 2753 
L 3553 4666 
L 4184 4666 
L 4184 0 
L 3553 0 
L 3553 2222 
L 1259 2222 
L 1259 0 
L 628 0 
L 628 4666 
z
" transform="scale(0.015625)"/>
       <path id="DejaVuSans-61" d="M 2194 1759 
Q 1497 1759 1228 1600 
Q 959 1441 959 1056 
Q 959 750 1161 570 
Q 1363 391 1709 391 
Q 2188 391 2477 730 
Q 2766 1069 2766 1631 
L 2766 1759 
L 2194 1759 
z
M 3341 1997 
L 3341 0 
L 2766 0 
L 2766 531 
Q 2569 213 2275 61 
Q 1981 -91 1556 -91 
Q 1019 -91 701 211 
Q 384 513 384 1019 
Q 384 1609 779 1909 
Q 1175 2209 1959 2209 
L 2766 2209 
L 2766 2266 
Q 2766 2663 2505 2880 
Q 2244 3097 1772 3097 
Q 1472 3097 1187 3025 
Q 903 2953 641 2809 
L 641 3341 
Q 956 3463 1253 3523 
Q 1550 3584 1831 3584 
Q 2591 3584 2966 3190 
Q 3341 2797 3341 1997 
z
" transform="scale(0.015625)"/>
       <path id="DejaVuSans-6e" d="M 3513 2113 
L 3513 0 
L 2938 0 
L 2938 2094 
Q 2938 2591 2744 2837 
Q 2550 3084 2163 3084 
Q 1697 3084 1428 2787 
Q 1159 2491 1159 1978 
L 1159 0 
L 581 0 
L 581 3500 
L 1159 3500 
L 1159 2956 
Q 1366 3272 1645 3428 
Q 1925 3584 2291 3584 
Q 2894 3584 3203 3211 
Q 3513 2838 3513 2113 
z
" transform="scale(0.015625)"/>
       <path id="DejaVuSans-64" d="M 2906 2969 
L 2906 4863 
L 3481 4863 
L 3481 0 
L 2906 0 
L 2906 525 
Q 2725 213 2448 61 
Q 2172 -91 1784 -91 
Q 1150 -91 751 415 
Q 353 922 353 1747 
Q 353 2572 751 3078 
Q 1150 3584 1784 3584 
Q 2172 3584 2448 3432 
Q 2725 3281 2906 2969 
z
M 947 1747 
Q 947 1113 1208 752 
Q 1469 391 1925 391 
Q 2381 391 2643 752 
Q 2906 1113 2906 1747 
Q 2906 2381 2643 2742 
Q 2381 3103 1925 3103 
Q 1469 3103 1208 2742 
Q 947 2381 947 1747 
z
" transform="scale(0.015625)"/>
       <path id="DejaVuSans-73" d="M 2834 3397 
L 2834 2853 
Q 2591 2978 2328 3040 
Q 2066 3103 1784 3103 
Q 1356 3103 1142 2972 
Q 928 2841 928 2578 
Q 928 2378 1081 2264 
Q 1234 2150 1697 2047 
L 1894 2003 
Q 2506 1872 2764 1633 
Q 3022 1394 3022 966 
Q 3022 478 2636 193 
Q 2250 -91 1575 -91 
Q 1294 -91 989 -36 
Q 684 19 347 128 
L 347 722 
Q 666 556 975 473 
Q 1284 391 1588 391 
Q 1994 391 2212 530 
Q 2431 669 2431 922 
Q 2431 1156 2273 1281 
Q 2116 1406 1581 1522 
L 1381 1569 
Q 847 1681 609 1914 
Q 372 2147 372 2553 
Q 372 3047 722 3315 
Q 1072 3584 1716 3584 
Q 2034 3584 2315 3537 
Q 2597 3491 2834 3397 
z
" transform="scale(0.015625)"/>
       <path id="DejaVuSans-68" d="M 3513 2113 
L 3513 0 
L 2938 0 
L 2938 2094 
Q 2938 2591 2744 2837 
Q 2550 3084 2163 3084 
Q 1697 3084 1428 2787 
Q 1159 2491 1159 1978 
L 1159 0 
L 581 0 
L 581 4863 
L 1159 4863 
L 1159 2956 
Q 1366 3272 1645 3428 
Q 1925 3584 2291 3584 
Q 2894 3584 3203 3211 
Q 3513 2838 3513 2113 
z
" transform="scale(0.015625)"/>
       <path id="DejaVuSans-20" transform="scale(0.015625)"/>
       <path id="DejaVuSans-75" d="M 544 1381 
L 544 3500 
L 1119 3500 
L 1119 1403 
Q 1119 906 1312 657 
Q 1506 409 1894 409 
Q 2359 409 2629 706 
Q 2900 1003 2900 1516 
L 2900 3500 
L 3475 3500 
L 3475 0 
L 2900 0 
L 2900 538 
Q 2691 219 2414 64 
Q 2138 -91 1772 -91 
Q 1169 -91 856 284 
Q 544 659 544 1381 
z
M 1991 3584 
L 1991 3584 
z
" transform="scale(0.015625)"/>
       <path id="DejaVuSans-72" d="M 2631 2963 
Q 2534 3019 2420 3045 
Q 2306 3072 2169 3072 
Q 1681 3072 1420 2755 
Q 1159 2438 1159 1844 
L 1159 0 
L 581 0 
L 581 3500 
L 1159 3500 
L 1159 2956 
Q 1341 3275 1631 3429 
Q 1922 3584 2338 3584 
Q 2397 3584 2469 3576 
Q 2541 3569 2628 3553 
L 2631 2963 
z
" transform="scale(0.015625)"/>
       <path id="DejaVuSans-74" d="M 1172 4494 
L 1172 3500 
L 2356 3500 
L 2356 3053 
L 1172 3053 
L 1172 1153 
Q 1172 725 1289 603 
Q 1406 481 1766 481 
L 2356 481 
L 2356 0 
L 1766 0 
Q 1100 0 847 248 
Q 594 497 594 1153 
L 594 3053 
L 172 3053 
L 172 3500 
L 594 3500 
L 594 4494 
L 1172 4494 
z
" transform="scale(0.015625)"/>
       <path id="DejaVuSans-69" d="M 603 3500 
L 1178 3500 
L 1178 0 
L 603 0 
L 603 3500 
z
M 603 4863 
L 1178 4863 
L 1178 4134 
L 603 4134 
L 603 4863 
z
" transform="scale(0.015625)"/>
       <path id="DejaVuSans-6f" d="M 1959 3097 
Q 1497 3097 1228 2736 
Q 959 2375 959 1747 
Q 959 1119 1226 758 
Q 1494 397 1959 397 
Q 2419 397 2687 759 
Q 2956 1122 2956 1747 
Q 2956 2369 2687 2733 
Q 2419 3097 1959 3097 
z
M 1959 3584 
Q 2709 3584 3137 3096 
Q 3566 2609 3566 1747 
Q 3566 888 3137 398 
Q 2709 -91 1959 -91 
Q 1206 -91 779 398 
Q 353 888 353 1747 
Q 353 2609 779 3096 
Q 1206 3584 1959 3584 
z
" transform="scale(0.015625)"/>
       <path id="DejaVuSans-28" d="M 1984 4856 
Q 1566 4138 1362 3434 
Q 1159 2731 1159 2009 
Q 1159 1288 1364 580 
Q 1569 -128 1984 -844 
L 1484 -844 
Q 1016 -109 783 600 
Q 550 1309 550 2009 
Q 550 2706 781 3412 
Q 1013 4119 1484 4856 
L 1984 4856 
z
" transform="scale(0.015625)"/>
       <path id="DejaVuSans-29" d="M 513 4856 
L 1013 4856 
Q 1481 4119 1714 3412 
Q 1947 2706 1947 2009 
Q 1947 1309 1714 600 
Q 1481 -109 1013 -844 
L 513 -844 
Q 928 -128 1133 580 
Q 1338 1288 1338 2009 
Q 1338 2731 1133 3434 
Q 928 4138 513 4856 
z
" transform="scale(0.015625)"/>
      </defs>
      <use xlink:href="#DejaVuSans-48"/>
      <use xlink:href="#DejaVuSans-61" x="75.195312"/>
      <use xlink:href="#DejaVuSans-6e" x="136.474609"/>
      <use xlink:href="#DejaVuSans-64" x="199.853516"/>
      <use xlink:href="#DejaVuSans-73" x="263.330078"/>
      <use xlink:href="#DejaVuSans-68" x="315.429688"/>
      <use xlink:href="#DejaVuSans-61" x="378.808594"/>
      <use xlink:href="#DejaVuSans-6b" x="440.087891"/>
      <use xlink:href="#DejaVuSans-65" x="494.373047"/>
      <use xlink:href="#DejaVuSans-20" x="555.896484"/>
      <use xlink:href="#DejaVuSans-64" x="587.683594"/>
      <use xlink:href="#DejaVuSans-75" x="651.160156"/>
      <use xlink:href="#DejaVuSans-72" x="714.539062"/>
      <use xlink:href="#DejaVuSans-61" x="755.652344"/>
      <use xlink:href="#DejaVuSans-74" x="816.931641"/>
      <use xlink:href="#DejaVuSans-69" x="856.140625"/>
      <use xlink:href="#DejaVuSans-6f" x="883.923828"/>
      <use xlink:href="#DejaVuSans-6e" x="945.105469"/>
      <use xlink:href="#DejaVuSans-20" x="1008.484375"/>
      <use xlink:href="#DejaVuSans-28" x="1040.271484"/>
      <use xlink:href="#DejaVuSans-6d" x="1079.285156"/>
      <use xlink:href="#DejaVuSans-73" x="1176.697266"/>
      <use xlink:href="#DejaVuSans-29" x="1228.796875"/>
     </g>
    </g>
   </g>
   <g id="PolyCollection_1">
    <defs>
     <path id="m4cd6e63a7a" d="M 144.144098 -130.602308 
L 143.999902 -130.602308 
L 143.931209 -131.77364 
L 143.827855 -132.944972 
L 143.69425 -134.116304 
L 143.546525 -135.287636 
L 143.407107 -136.458967 
L 143.294206 -137.630299 
L 143.214312 -138.801631 
L 143.164402 -139.972963 
L 143.141519 -141.144295 
L 143.149768 -142.315627 
L 143.197263 -143.486959 
L 143.285545 -144.658291 
L 143.401024 -145.829623 
L 143.515896 -147.000955 
L 143.598292 -148.172287 
L 143.625404 -149.343619 
L 143.592537 -150.514951 
L 143.514401 -151.686283 
L 143.419185 -152.857614 
L 143.338424 -154.028946 
L 143.295973 -155.200278 
L 143.299359 -156.37161 
L 143.337344 -157.542942 
L 143.386546 -158.714274 
L 143.425251 -159.885606 
L 143.446469 -161.056938 
L 143.461328 -162.22827 
L 143.490377 -163.399602 
L 143.549264 -164.570934 
L 143.638744 -165.742266 
L 143.744661 -166.913598 
L 143.845912 -168.08493 
L 143.92379 -169.256261 
L 143.96729 -170.427593 
L 143.973657 -171.598925 
L 143.947012 -172.770257 
L 143.897515 -173.941589 
L 143.84026 -175.112921 
L 143.790945 -176.284253 
L 143.757197 -177.455585 
L 143.729031 -178.626917 
L 143.675171 -179.798249 
L 143.550452 -180.969581 
L 143.314048 -182.140913 
L 142.951469 -183.312245 
L 142.487783 -184.483577 
L 141.977632 -185.654908 
L 141.462117 -186.82624 
L 140.894506 -187.997572 
L 140.054089 -189.168904 
L 138.48786 -190.340236 
L 135.538511 -191.511568 
L 130.516785 -192.6829 
L 123.025166 -193.854232 
L 113.327261 -195.025564 
L 102.543729 -196.196896 
L 92.462804 -197.368228 
L 84.950704 -198.53956 
L 81.2304 -199.710892 
L 81.431471 -200.882224 
L 84.654891 -202.053555 
L 89.461562 -203.224887 
L 94.459066 -204.396219 
L 98.690642 -205.567551 
L 101.739102 -206.738883 
L 103.643084 -207.910215 
L 104.763379 -209.081547 
L 105.66123 -210.252879 
L 106.965272 -211.424211 
L 109.194606 -212.595543 
L 112.573415 -213.766875 
L 116.936542 -214.938207 
L 121.802207 -216.109539 
L 126.582384 -217.280871 
L 130.807294 -218.452202 
L 134.243452 -219.623534 
L 136.874962 -220.794866 
L 138.808796 -221.966198 
L 140.185673 -223.13753 
L 141.135327 -224.308862 
L 141.76621 -225.480194 
L 142.166264 -226.651526 
L 142.405025 -227.822858 
L 142.53831 -228.99419 
L 142.614081 -230.165522 
L 142.673863 -231.336854 
L 142.748296 -232.508186 
L 142.852094 -233.679518 
L 142.983902 -234.850849 
L 143.13165 -236.022181 
L 143.280479 -237.193513 
L 143.419743 -238.364845 
L 143.54608 -239.536177 
L 143.661205 -240.707509 
L 143.766697 -241.878841 
L 143.860495 -243.050173 
L 143.937872 -244.221505 
L 143.995189 -245.392837 
L 144.032643 -246.564169 
L 144.111357 -246.564169 
L 144.111357 -246.564169 
L 144.148811 -245.392837 
L 144.206128 -244.221505 
L 144.283505 -243.050173 
L 144.377303 -241.878841 
L 144.482795 -240.707509 
L 144.59792 -239.536177 
L 144.724257 -238.364845 
L 144.863521 -237.193513 
L 145.01235 -236.022181 
L 145.160098 -234.850849 
L 145.291906 -233.679518 
L 145.395704 -232.508186 
L 145.470137 -231.336854 
L 145.529919 -230.165522 
L 145.60569 -228.99419 
L 145.738975 -227.822858 
L 145.977736 -226.651526 
L 146.37779 -225.480194 
L 147.008673 -224.308862 
L 147.958327 -223.13753 
L 149.335204 -221.966198 
L 151.269038 -220.794866 
L 153.900548 -219.623534 
L 157.336706 -218.452202 
L 161.561616 -217.280871 
L 166.341793 -216.109539 
L 171.207458 -214.938207 
L 175.570585 -213.766875 
L 178.949394 -212.595543 
L 181.178728 -211.424211 
L 182.48277 -210.252879 
L 183.380621 -209.081547 
L 184.500916 -207.910215 
L 186.404898 -206.738883 
L 189.453358 -205.567551 
L 193.684934 -204.396219 
L 198.682438 -203.224887 
L 203.489109 -202.053555 
L 206.712529 -200.882224 
L 206.9136 -199.710892 
L 203.193296 -198.53956 
L 195.681196 -197.368228 
L 185.600271 -196.196896 
L 174.816739 -195.025564 
L 165.118834 -193.854232 
L 157.627215 -192.6829 
L 152.605489 -191.511568 
L 149.65614 -190.340236 
L 148.089911 -189.168904 
L 147.249494 -187.997572 
L 146.681883 -186.82624 
L 146.166368 -185.654908 
L 145.656217 -184.483577 
L 145.192531 -183.312245 
L 144.829952 -182.140913 
L 144.593548 -180.969581 
L 144.468829 -179.798249 
L 144.414969 -178.626917 
L 144.386803 -177.455585 
L 144.353055 -176.284253 
L 144.30374 -175.112921 
L 144.246485 -173.941589 
L 144.196988 -172.770257 
L 144.170343 -171.598925 
L 144.17671 -170.427593 
L 144.22021 -169.256261 
L 144.298088 -168.08493 
L 144.399339 -166.913598 
L 144.505256 -165.742266 
L 144.594736 -164.570934 
L 144.653623 -163.399602 
L 144.682672 -162.22827 
L 144.697531 -161.056938 
L 144.718749 -159.885606 
L 144.757454 -158.714274 
L 144.806656 -157.542942 
L 144.844641 -156.37161 
L 144.848027 -155.200278 
L 144.805576 -154.028946 
L 144.724815 -152.857614 
L 144.629599 -151.686283 
L 144.551463 -150.514951 
L 144.518596 -149.343619 
L 144.545708 -148.172287 
L 144.628104 -147.000955 
L 144.742976 -145.829623 
L 144.858455 -144.658291 
L 144.946737 -143.486959 
L 144.994232 -142.315627 
L 145.002481 -141.144295 
L 144.979598 -139.972963 
L 144.929688 -138.801631 
L 144.849794 -137.630299 
L 144.736893 -136.458967 
L 144.597475 -135.287636 
L 144.44975 -134.116304 
L 144.316145 -132.944972 
L 144.212791 -131.77364 
L 144.144098 -130.602308 
z
" style="stroke: #595959; stroke-width: 1.25"/>
    </defs>
    <g clip-path="url(#pe7b63b92fd)">
     <use xlink:href="#m4cd6e63a7a" x="0" y="432" style="fill: #72b6a1; stroke: #595959; stroke-width: 1.25"/>
    </g>
   </g>
   <g id="PolyCollection_2">
    <defs>
     <path id="maea3ff6f75" d="M 301.217947 -104.179245 
L 301.134053 -104.179245 
L 301.096434 -105.116107 
L 301.03504 -106.052968 
L 300.940383 -106.98983 
L 300.800662 -107.926691 
L 300.601878 -108.863553 
L 300.330372 -109.800414 
L 299.979415 -110.737276 
L 299.558742 -111.674137 
L 299.101895 -112.610999 
L 298.664614 -113.54786 
L 298.311231 -114.484722 
L 298.09367 -115.421583 
L 298.033132 -116.358445 
L 298.113124 -117.295306 
L 298.285264 -118.232168 
L 298.482664 -119.169029 
L 298.634654 -120.105891 
L 298.680337 -121.042752 
L 298.581742 -121.979614 
L 298.336229 -122.916475 
L 297.983287 -123.853337 
L 297.598264 -124.790198 
L 297.269818 -125.72706 
L 297.068217 -126.663921 
L 297.020514 -127.600783 
L 297.107297 -128.537644 
L 297.282643 -129.474505 
L 297.503397 -130.411367 
L 297.748409 -131.348228 
L 298.017328 -132.28509 
L 298.313882 -133.221951 
L 298.62775 -134.158813 
L 298.926606 -135.095674 
L 299.16034 -136.032536 
L 299.271437 -136.969397 
L 299.202586 -137.906259 
L 298.893474 -138.84312 
L 298.262007 -139.779982 
L 297.173374 -140.716843 
L 295.415159 -141.653705 
L 292.711259 -142.590566 
L 288.80517 -143.527428 
L 283.609462 -144.464289 
L 277.360426 -145.401151 
L 270.67285 -146.338012 
L 264.408311 -147.274874 
L 259.366227 -148.211735 
L 255.931372 -149.148597 
L 253.874752 -150.085458 
L 252.445905 -151.02232 
L 250.738662 -151.959181 
L 248.156604 -152.896043 
L 244.745629 -153.832904 
L 241.229363 -154.769766 
L 238.733397 -155.706627 
L 238.3344 -156.643489 
L 240.645697 -157.58035 
L 245.617614 -158.517212 
L 252.610785 -159.454073 
L 260.664477 -160.390935 
L 268.808062 -161.327796 
L 276.28449 -162.264658 
L 282.636736 -163.201519 
L 287.686393 -164.138381 
L 291.463654 -165.075242 
L 294.132834 -166.012104 
L 295.928754 -166.948965 
L 297.103351 -167.885827 
L 297.882401 -168.822688 
L 298.43763 -169.75955 
L 298.878862 -170.696411 
L 299.263739 -171.633273 
L 299.615689 -172.570134 
L 299.940174 -173.506996 
L 300.234534 -174.443857 
L 300.492648 -175.380719 
L 300.707852 -176.31758 
L 300.875896 -177.254442 
L 300.997278 -178.191303 
L 301.077626 -179.128165 
L 301.12595 -180.065026 
L 301.151883 -181.001888 
L 301.163289 -181.938749 
L 301.164997 -182.875611 
L 301.158646 -183.812472 
L 301.143382 -184.749334 
L 301.11725 -185.686195 
L 301.079174 -186.623057 
L 301.03111 -187.559918 
L 300.979391 -188.49678 
L 300.934122 -189.433641 
L 300.906223 -190.370503 
L 300.903211 -191.307364 
L 300.92593 -192.244226 
L 300.96817 -193.181087 
L 301.019408 -194.117949 
L 301.069035 -195.05481 
L 301.109759 -195.991672 
L 301.13881 -196.928533 
L 301.21319 -196.928533 
L 301.21319 -196.928533 
L 301.242241 -195.991672 
L 301.282965 -195.05481 
L 301.332592 -194.117949 
L 301.38383 -193.181087 
L 301.42607 -192.244226 
L 301.448789 -191.307364 
L 301.445777 -190.370503 
L 301.417878 -189.433641 
L 301.372609 -188.49678 
L 301.32089 -187.559918 
L 301.272826 -186.623057 
L 301.23475 -185.686195 
L 301.208618 -184.749334 
L 301.193354 -183.812472 
L 301.187003 -182.875611 
L 301.188711 -181.938749 
L 301.200117 -181.001888 
L 301.22605 -180.065026 
L 301.274374 -179.128165 
L 301.354722 -178.191303 
L 301.476104 -177.254442 
L 301.644148 -176.31758 
L 301.859352 -175.380719 
L 302.117466 -174.443857 
L 302.411826 -173.506996 
L 302.736311 -172.570134 
L 303.088261 -171.633273 
L 303.473138 -170.696411 
L 303.91437 -169.75955 
L 304.469599 -168.822688 
L 305.248649 -167.885827 
L 306.423246 -166.948965 
L 308.219166 -166.012104 
L 310.888346 -165.075242 
L 314.665607 -164.138381 
L 319.715264 -163.201519 
L 326.06751 -162.264658 
L 333.543938 -161.327796 
L 341.687523 -160.390935 
L 349.741215 -159.454073 
L 356.734386 -158.517212 
L 361.706303 -157.58035 
L 364.0176 -156.643489 
L 363.618603 -155.706627 
L 361.122637 -154.769766 
L 357.606371 -153.832904 
L 354.195396 -152.896043 
L 351.613338 -151.959181 
L 349.906095 -151.02232 
L 348.477248 -150.085458 
L 346.420628 -149.148597 
L 342.985773 -148.211735 
L 337.943689 -147.274874 
L 331.67915 -146.338012 
L 324.991574 -145.401151 
L 318.742538 -144.464289 
L 313.54683 -143.527428 
L 309.640741 -142.590566 
L 306.936841 -141.653705 
L 305.178626 -140.716843 
L 304.089993 -139.779982 
L 303.458526 -138.84312 
L 303.149414 -137.906259 
L 303.080563 -136.969397 
L 303.19166 -136.032536 
L 303.425394 -135.095674 
L 303.72425 -134.158813 
L 304.038118 -133.221951 
L 304.334672 -132.28509 
L 304.603591 -131.348228 
L 304.848603 -130.411367 
L 305.069357 -129.474505 
L 305.244703 -128.537644 
L 305.331486 -127.600783 
L 305.283783 -126.663921 
L 305.082182 -125.72706 
L 304.753736 -124.790198 
L 304.368713 -123.853337 
L 304.015771 -122.916475 
L 303.770258 -121.979614 
L 303.671663 -121.042752 
L 303.717346 -120.105891 
L 303.869336 -119.169029 
L 304.066736 -118.232168 
L 304.238876 -117.295306 
L 304.318868 -116.358445 
L 304.25833 -115.421583 
L 304.040769 -114.484722 
L 303.687386 -113.54786 
L 303.250105 -112.610999 
L 302.793258 -111.674137 
L 302.372585 -110.737276 
L 302.021628 -109.800414 
L 301.750122 -108.863553 
L 301.551338 -107.926691 
L 301.411617 -106.98983 
L 301.31696 -106.052968 
L 301.255566 -105.116107 
L 301.217947 -104.179245 
z
" style="stroke: #595959; stroke-width: 1.25"/>
    </defs>
    <g clip-path="url(#pe7b63b92fd)">
     <use xlink:href="#maea3ff6f75" x="0" y="432" style="fill: #e99675; stroke: #595959; stroke-width: 1.25"/>
    </g>
   </g>
   <g id="PolyCollection_3">
    <defs>
     <path id="m180219a98d" d="M 458.364952 -154.350832 
L 458.195048 -154.350832 
L 458.1335 -156.557026 
L 458.039643 -158.76322 
L 457.904141 -160.969415 
L 457.718674 -163.175609 
L 457.477661 -165.381803 
L 457.179956 -167.587998 
L 456.830152 -169.794192 
L 456.439209 -172.000386 
L 456.024203 -174.20658 
L 455.607092 -176.412775 
L 455.212546 -178.618969 
L 454.865103 -180.825163 
L 454.58614 -183.031358 
L 454.391405 -185.237552 
L 454.289708 -187.443746 
L 454.282962 -189.64994 
L 454.367141 -191.856135 
L 454.533277 -194.062329 
L 454.767806 -196.268523 
L 455.052196 -198.474718 
L 455.36265 -200.680912 
L 455.671037 -202.887106 
L 455.947857 -205.093301 
L 456.16703 -207.299495 
L 456.311214 -209.505689 
L 456.375757 -211.711883 
L 456.369653 -213.918078 
L 456.312884 -216.124272 
L 456.230882 -218.330466 
L 456.14786 -220.536661 
L 456.081091 -222.742855 
L 456.037712 -224.949049 
L 456.014653 -227.155244 
L 456.001244 -229.361438 
L 455.983463 -231.567632 
L 455.948594 -233.773826 
L 455.889231 -235.980021 
L 455.805752 -238.186215 
L 455.70652 -240.392409 
L 455.60526 -242.598604 
L 455.515434 -244.804798 
L 455.44214 -247.010992 
L 455.372969 -249.217186 
L 455.270134 -251.423381 
L 455.066766 -253.629575 
L 454.670207 -255.835769 
L 453.97405 -258.041964 
L 452.87834 -260.248158 
L 451.31383 -262.454352 
L 449.262472 -264.660547 
L 446.764419 -266.866741 
L 443.903954 -269.072935 
L 440.774026 -271.279129 
L 437.429911 -273.485324 
L 433.852174 -275.691518 
L 429.94163 -277.897712 
L 425.560431 -280.103907 
L 420.614754 -282.310101 
L 415.153094 -284.516295 
L 409.440098 -286.72249 
L 403.967903 -288.928684 
L 399.386796 -291.134878 
L 396.367828 -293.341072 
L 395.4384 -295.547267 
L 396.84482 -297.753461 
L 400.487034 -299.959655 
L 405.944242 -302.16585 
L 412.577952 -304.372044 
L 419.675129 -306.578238 
L 426.586811 -308.784433 
L 432.827022 -310.990627 
L 438.115826 -313.196821 
L 442.36986 -315.403015 
L 445.656754 -317.60921 
L 448.134247 -319.815404 
L 449.992081 -322.021598 
L 451.408163 -324.227793 
L 452.523372 -326.433987 
L 453.433666 -328.640181 
L 454.194845 -330.846375 
L 454.834182 -333.05257 
L 455.36367 -335.258764 
L 455.791103 -337.464958 
L 456.127006 -339.671153 
L 456.387096 -341.877347 
L 456.591213 -344.083541 
L 456.760283 -346.289736 
L 456.912873 -348.49593 
L 457.062516 -350.702124 
L 457.216397 -352.908318 
L 457.375478 -355.114513 
L 457.535808 -357.320707 
L 457.690574 -359.526901 
L 457.832353 -361.733096 
L 457.955048 -363.93929 
L 458.055118 -366.145484 
L 458.131947 -368.351679 
L 458.187434 -370.557873 
L 458.225118 -372.764067 
L 458.334882 -372.764067 
L 458.334882 -372.764067 
L 458.372566 -370.557873 
L 458.428053 -368.351679 
L 458.504882 -366.145484 
L 458.604952 -363.93929 
L 458.727647 -361.733096 
L 458.869426 -359.526901 
L 459.024192 -357.320707 
L 459.184522 -355.114513 
L 459.343603 -352.908318 
L 459.497484 -350.702124 
L 459.647127 -348.49593 
L 459.799717 -346.289736 
L 459.968787 -344.083541 
L 460.172904 -341.877347 
L 460.432994 -339.671153 
L 460.768897 -337.464958 
L 461.19633 -335.258764 
L 461.725818 -333.05257 
L 462.365155 -330.846375 
L 463.126334 -328.640181 
L 464.036628 -326.433987 
L 465.151837 -324.227793 
L 466.567919 -322.021598 
L 468.425753 -319.815404 
L 470.903246 -317.60921 
L 474.19014 -315.403015 
L 478.444174 -313.196821 
L 483.732978 -310.990627 
L 489.973189 -308.784433 
L 496.884871 -306.578238 
L 503.982048 -304.372044 
L 510.615758 -302.16585 
L 516.072966 -299.959655 
L 519.71518 -297.753461 
L 521.1216 -295.547267 
L 520.192172 -293.341072 
L 517.173204 -291.134878 
L 512.592097 -288.928684 
L 507.119902 -286.72249 
L 501.406906 -284.516295 
L 495.945246 -282.310101 
L 490.999569 -280.103907 
L 486.61837 -277.897712 
L 482.707826 -275.691518 
L 479.130089 -273.485324 
L 475.785974 -271.279129 
L 472.656046 -269.072935 
L 469.795581 -266.866741 
L 467.297528 -264.660547 
L 465.24617 -262.454352 
L 463.68166 -260.248158 
L 462.58595 -258.041964 
L 461.889793 -255.835769 
L 461.493234 -253.629575 
L 461.289866 -251.423381 
L 461.187031 -249.217186 
L 461.11786 -247.010992 
L 461.044566 -244.804798 
L 460.95474 -242.598604 
L 460.85348 -240.392409 
L 460.754248 -238.186215 
L 460.670769 -235.980021 
L 460.611406 -233.773826 
L 460.576537 -231.567632 
L 460.558756 -229.361438 
L 460.545347 -227.155244 
L 460.522288 -224.949049 
L 460.478909 -222.742855 
L 460.41214 -220.536661 
L 460.329118 -218.330466 
L 460.247116 -216.124272 
L 460.190347 -213.918078 
L 460.184243 -211.711883 
L 460.248786 -209.505689 
L 460.39297 -207.299495 
L 460.612143 -205.093301 
L 460.888963 -202.887106 
L 461.19735 -200.680912 
L 461.507804 -198.474718 
L 461.792194 -196.268523 
L 462.026723 -194.062329 
L 462.192859 -191.856135 
L 462.277038 -189.64994 
L 462.270292 -187.443746 
L 462.168595 -185.237552 
L 461.97386 -183.031358 
L 461.694897 -180.825163 
L 461.347454 -178.618969 
L 460.952908 -176.412775 
L 460.535797 -174.20658 
L 460.120791 -172.000386 
L 459.729848 -169.794192 
L 459.380044 -167.587998 
L 459.082339 -165.381803 
L 458.841326 -163.175609 
L 458.655859 -160.969415 
L 458.520357 -158.76322 
L 458.4265 -156.557026 
L 458.364952 -154.350832 
z
" style="stroke: #595959; stroke-width: 1.25"/>
    </defs>
    <g clip-path="url(#pe7b63b92fd)">
     <use xlink:href="#m180219a98d" x="0" y="432" style="fill: #95a3c3; stroke: #595959; stroke-width: 1.25"/>
    </g>
   </g>
   <g id="PolyCollection_4">
    <defs>
     <path id="m6c5898f1cb" d="M 615.425534 -108.514075 
L 615.342466 -108.514075 
L 615.297153 -109.45246 
L 615.227023 -110.390845 
L 615.135718 -111.32923 
L 615.033491 -112.267616 
L 614.929858 -113.206001 
L 614.82757 -114.144386 
L 614.726935 -115.082771 
L 614.63715 -116.021156 
L 614.579944 -116.959541 
L 614.578251 -117.897926 
L 614.64064 -118.836311 
L 614.756119 -119.774696 
L 614.90076 -120.713081 
L 615.04763 -121.651466 
L 615.174448 -122.589851 
L 615.268512 -123.528237 
L 615.328292 -124.466622 
L 615.360679 -125.405007 
L 615.375565 -126.343392 
L 615.38129 -127.281777 
L 615.382813 -128.220162 
L 615.381764 -129.158547 
L 615.376453 -130.096932 
L 615.36054 -131.035317 
L 615.320694 -131.973702 
L 615.235849 -132.912087 
L 615.082616 -133.850472 
L 614.849743 -134.788858 
L 614.55689 -135.727243 
L 614.263497 -136.665628 
L 614.053164 -137.604013 
L 613.9944 -138.542398 
L 614.100694 -139.480783 
L 614.320192 -140.419168 
L 614.5661 -141.357553 
L 614.766972 -142.295938 
L 614.900091 -143.234323 
L 614.986831 -144.172708 
L 615.061098 -145.111093 
L 615.140591 -146.049479 
L 615.220673 -146.987864 
L 615.286477 -147.926249 
L 615.325583 -148.864634 
L 615.329026 -149.803019 
L 615.279184 -150.741404 
L 615.124214 -151.679789 
L 614.731684 -152.618174 
L 613.81801 -153.556559 
L 611.886283 -154.494944 
L 608.261023 -155.433329 
L 602.314035 -156.371714 
L 593.857012 -157.3101 
L 583.484731 -158.248485 
L 572.584997 -159.18687 
L 562.921788 -160.125255 
L 556.00456 -161.06364 
L 552.591266 -162.002025 
L 552.5424 -162.94041 
L 555.022582 -163.878795 
L 558.90601 -164.81718 
L 563.191195 -165.755565 
L 567.250589 -166.69395 
L 570.858438 -167.632335 
L 574.086046 -168.570721 
L 577.175419 -169.509106 
L 580.407778 -170.447491 
L 583.95183 -171.385876 
L 587.757927 -172.324261 
L 591.594708 -173.262646 
L 595.211663 -174.201031 
L 598.48831 -175.139416 
L 601.451371 -176.077801 
L 604.17251 -177.016186 
L 606.656369 -177.954571 
L 608.814225 -178.892956 
L 610.530588 -179.831342 
L 611.754006 -180.769727 
L 612.537539 -181.708112 
L 613.010502 -182.646497 
L 613.318517 -183.584882 
L 613.574516 -184.523267 
L 613.836011 -185.461652 
L 614.106603 -186.400037 
L 614.357505 -187.338422 
L 614.558348 -188.276807 
L 614.699063 -189.215192 
L 614.792008 -190.153577 
L 614.859323 -191.091963 
L 614.917501 -192.030348 
L 614.968845 -192.968733 
L 615.005245 -193.907118 
L 615.021958 -194.845503 
L 615.028891 -195.783888 
L 615.046868 -196.722273 
L 615.091382 -197.660658 
L 615.160088 -198.599043 
L 615.235751 -199.537428 
L 615.299813 -200.475813 
L 615.343155 -201.414198 
L 615.424845 -201.414198 
L 615.424845 -201.414198 
L 615.468187 -200.475813 
L 615.532249 -199.537428 
L 615.607912 -198.599043 
L 615.676618 -197.660658 
L 615.721132 -196.722273 
L 615.739109 -195.783888 
L 615.746042 -194.845503 
L 615.762755 -193.907118 
L 615.799155 -192.968733 
L 615.850499 -192.030348 
L 615.908677 -191.091963 
L 615.975992 -190.153577 
L 616.068937 -189.215192 
L 616.209652 -188.276807 
L 616.410495 -187.338422 
L 616.661397 -186.400037 
L 616.931989 -185.461652 
L 617.193484 -184.523267 
L 617.449483 -183.584882 
L 617.757498 -182.646497 
L 618.230461 -181.708112 
L 619.013994 -180.769727 
L 620.237412 -179.831342 
L 621.953775 -178.892956 
L 624.111631 -177.954571 
L 626.59549 -177.016186 
L 629.316629 -176.077801 
L 632.27969 -175.139416 
L 635.556337 -174.201031 
L 639.173292 -173.262646 
L 643.010073 -172.324261 
L 646.81617 -171.385876 
L 650.360222 -170.447491 
L 653.592581 -169.509106 
L 656.681954 -168.570721 
L 659.909562 -167.632335 
L 663.517411 -166.69395 
L 667.576805 -165.755565 
L 671.86199 -164.81718 
L 675.745418 -163.878795 
L 678.2256 -162.94041 
L 678.176734 -162.002025 
L 674.76344 -161.06364 
L 667.846212 -160.125255 
L 658.183003 -159.18687 
L 647.283269 -158.248485 
L 636.910988 -157.3101 
L 628.453965 -156.371714 
L 622.506977 -155.433329 
L 618.881717 -154.494944 
L 616.94999 -153.556559 
L 616.036316 -152.618174 
L 615.643786 -151.679789 
L 615.488816 -150.741404 
L 615.438974 -149.803019 
L 615.442417 -148.864634 
L 615.481523 -147.926249 
L 615.547327 -146.987864 
L 615.627409 -146.049479 
L 615.706902 -145.111093 
L 615.781169 -144.172708 
L 615.867909 -143.234323 
L 616.001028 -142.295938 
L 616.2019 -141.357553 
L 616.447808 -140.419168 
L 616.667306 -139.480783 
L 616.7736 -138.542398 
L 616.714836 -137.604013 
L 616.504503 -136.665628 
L 616.21111 -135.727243 
L 615.918257 -134.788858 
L 615.685384 -133.850472 
L 615.532151 -132.912087 
L 615.447306 -131.973702 
L 615.40746 -131.035317 
L 615.391547 -130.096932 
L 615.386236 -129.158547 
L 615.385187 -128.220162 
L 615.38671 -127.281777 
L 615.392435 -126.343392 
L 615.407321 -125.405007 
L 615.439708 -124.466622 
L 615.499488 -123.528237 
L 615.593552 -122.589851 
L 615.72037 -121.651466 
L 615.86724 -120.713081 
L 616.011881 -119.774696 
L 616.12736 -118.836311 
L 616.189749 -117.897926 
L 616.188056 -116.959541 
L 616.13085 -116.021156 
L 616.041065 -115.082771 
L 615.94043 -114.144386 
L 615.838142 -113.206001 
L 615.734509 -112.267616 
L 615.632282 -111.32923 
L 615.540977 -110.390845 
L 615.470847 -109.45246 
L 615.425534 -108.514075 
z
" style="stroke: #595959; stroke-width: 1.25"/>
    </defs>
    <g clip-path="url(#pe7b63b92fd)">
     <use xlink:href="#m6c5898f1cb" x="0" y="432" style="fill: #db96c0; stroke: #595959; stroke-width: 1.25"/>
    </g>
   </g>
   <g id="PolyCollection_5">
    <defs>
     <path id="m985feeed93" d="M 772.645751 -94.989572 
L 772.330249 -94.989572 
L 772.146697 -96.152007 
L 771.830371 -97.314441 
L 771.356003 -98.476875 
L 770.740105 -99.639309 
L 770.053918 -100.801743 
L 769.409225 -101.964178 
L 768.918129 -103.126612 
L 768.647799 -104.289046 
L 768.596712 -105.45148 
L 768.705087 -106.613914 
L 768.891547 -107.776349 
L 769.094524 -108.938783 
L 769.295552 -110.101217 
L 769.511995 -111.263651 
L 769.766718 -112.426085 
L 770.059114 -113.58852 
L 770.359449 -114.750954 
L 770.627021 -115.913388 
L 770.833782 -117.075822 
L 770.975923 -118.238257 
L 771.070103 -119.400691 
L 771.141122 -120.563125 
L 771.207724 -121.725559 
L 771.269761 -122.887993 
L 771.299363 -124.050428 
L 771.239686 -125.212862 
L 771.011393 -126.375296 
L 770.51733 -127.53773 
L 769.627883 -128.700164 
L 768.141183 -129.862599 
L 765.752991 -131.025033 
L 762.110715 -132.187467 
L 756.997132 -133.349901 
L 750.56296 -134.512335 
L 743.401255 -135.67477 
L 736.306976 -136.837204 
L 729.836909 -137.999638 
L 724.047659 -139.162072 
L 718.718458 -140.324507 
L 713.931216 -141.486941 
L 710.47859 -142.649375 
L 709.6464 -143.811809 
L 712.454304 -144.974243 
L 718.930151 -146.136678 
L 727.967109 -147.299112 
L 737.825584 -148.461546 
L 746.877636 -149.62398 
L 754.127056 -150.786414 
L 759.315133 -151.948849 
L 762.720913 -153.111283 
L 764.868544 -154.273717 
L 766.287852 -155.436151 
L 767.373906 -156.598585 
L 768.338666 -157.76102 
L 769.234721 -158.923454 
L 770.02343 -160.085888 
L 770.650814 -161.248322 
L 771.097982 -162.410757 
L 771.392499 -163.573191 
L 771.589595 -164.735625 
L 771.743528 -165.898059 
L 771.886849 -167.060493 
L 772.025283 -168.222928 
L 772.145887 -169.385362 
L 772.230884 -170.547796 
L 772.269588 -171.71023 
L 772.264096 -172.872664 
L 772.228071 -174.035099 
L 772.180707 -175.197533 
L 772.139668 -176.359967 
L 772.116778 -177.522401 
L 772.117692 -178.684835 
L 772.143476 -179.84727 
L 772.191275 -181.009704 
L 772.253908 -182.172138 
L 772.320689 -183.334572 
L 772.380693 -184.497006 
L 772.426689 -185.659441 
L 772.456951 -186.821875 
L 772.474109 -187.984309 
L 772.482514 -189.146743 
L 772.486053 -190.309178 
L 772.487226 -191.471612 
L 772.487136 -192.634046 
L 772.485696 -193.79648 
L 772.48162 -194.958914 
L 772.47227 -196.121349 
L 772.453911 -197.283783 
L 772.42312 -198.446217 
L 772.379567 -199.608651 
L 772.328862 -200.771085 
L 772.282908 -201.93352 
L 772.255896 -203.095954 
L 772.257337 -204.258388 
L 772.286705 -205.420822 
L 772.333741 -206.583256 
L 772.384193 -207.745691 
L 772.426657 -208.908125 
L 772.456168 -210.070559 
L 772.519832 -210.070559 
L 772.519832 -210.070559 
L 772.549343 -208.908125 
L 772.591807 -207.745691 
L 772.642259 -206.583256 
L 772.689295 -205.420822 
L 772.718663 -204.258388 
L 772.720104 -203.095954 
L 772.693092 -201.93352 
L 772.647138 -200.771085 
L 772.596433 -199.608651 
L 772.55288 -198.446217 
L 772.522089 -197.283783 
L 772.50373 -196.121349 
L 772.49438 -194.958914 
L 772.490304 -193.79648 
L 772.488864 -192.634046 
L 772.488774 -191.471612 
L 772.489947 -190.309178 
L 772.493486 -189.146743 
L 772.501891 -187.984309 
L 772.519049 -186.821875 
L 772.549311 -185.659441 
L 772.595307 -184.497006 
L 772.655311 -183.334572 
L 772.722092 -182.172138 
L 772.784725 -181.009704 
L 772.832524 -179.84727 
L 772.858308 -178.684835 
L 772.859222 -177.522401 
L 772.836332 -176.359967 
L 772.795293 -175.197533 
L 772.747929 -174.035099 
L 772.711904 -172.872664 
L 772.706412 -171.71023 
L 772.745116 -170.547796 
L 772.830113 -169.385362 
L 772.950717 -168.222928 
L 773.089151 -167.060493 
L 773.232472 -165.898059 
L 773.386405 -164.735625 
L 773.583501 -163.573191 
L 773.878018 -162.410757 
L 774.325186 -161.248322 
L 774.95257 -160.085888 
L 775.741279 -158.923454 
L 776.637334 -157.76102 
L 777.602094 -156.598585 
L 778.688148 -155.436151 
L 780.107456 -154.273717 
L 782.255087 -153.111283 
L 785.660867 -151.948849 
L 790.848944 -150.786414 
L 798.098364 -149.62398 
L 807.150416 -148.461546 
L 817.008891 -147.299112 
L 826.045849 -146.136678 
L 832.521696 -144.974243 
L 835.3296 -143.811809 
L 834.49741 -142.649375 
L 831.044784 -141.486941 
L 826.257542 -140.324507 
L 820.928341 -139.162072 
L 815.139091 -137.999638 
L 808.669024 -136.837204 
L 801.574745 -135.67477 
L 794.41304 -134.512335 
L 787.978868 -133.349901 
L 782.865285 -132.187467 
L 779.223009 -131.025033 
L 776.834817 -129.862599 
L 775.348117 -128.700164 
L 774.45867 -127.53773 
L 773.964607 -126.375296 
L 773.736314 -125.212862 
L 773.676637 -124.050428 
L 773.706239 -122.887993 
L 773.768276 -121.725559 
L 773.834878 -120.563125 
L 773.905897 -119.400691 
L 774.000077 -118.238257 
L 774.142218 -117.075822 
L 774.348979 -115.913388 
L 774.616551 -114.750954 
L 774.916886 -113.58852 
L 775.209282 -112.426085 
L 775.464005 -111.263651 
L 775.680448 -110.101217 
L 775.881476 -108.938783 
L 776.084453 -107.776349 
L 776.270913 -106.613914 
L 776.379288 -105.45148 
L 776.328201 -104.289046 
L 776.057871 -103.126612 
L 775.566775 -101.964178 
L 774.922082 -100.801743 
L 774.235895 -99.639309 
L 773.619997 -98.476875 
L 773.145629 -97.314441 
L 772.829303 -96.152007 
L 772.645751 -94.989572 
z
" style="stroke: #595959; stroke-width: 1.25"/>
    </defs>
    <g clip-path="url(#pe7b63b92fd)">
     <use xlink:href="#m985feeed93" x="0" y="432" style="fill: #a2c865; stroke: #595959; stroke-width: 1.25"/>
    </g>
   </g>
   <g id="line2d_9">
    <path d="M 144.072 233.005685 
L 144.072 246.212329 
" clip-path="url(#pe7b63b92fd)" style="fill: none; stroke: #000000"/>
   </g>
   <g id="line2d_10">
    <path d="M 144.072 221.341423 
L 144.072 205.435612 
" clip-path="url(#pe7b63b92fd)" style="fill: none; stroke: #000000"/>
   </g>
   <g id="line2d_11">
    <path d="M 138.1806 246.212329 
L 149.9634 246.212329 
" clip-path="url(#pe7b63b92fd)" style="fill: none; stroke: #000000; stroke-linecap: round"/>
   </g>
   <g id="line2d_12">
    <path d="M 138.1806 205.435612 
L 149.9634 205.435612 
" clip-path="url(#pe7b63b92fd)" style="fill: none; stroke: #000000; stroke-linecap: round"/>
   </g>
   <g id="line2d_13">
    <path d="M 301.176 283.337938 
L 301.176 294.845552 
" clip-path="url(#pe7b63b92fd)" style="fill: none; stroke: #000000"/>
   </g>
   <g id="line2d_14">
    <path d="M 301.176 274.589742 
L 301.176 262.359137 
" clip-path="url(#pe7b63b92fd)" style="fill: none; stroke: #000000"/>
   </g>
   <g id="line2d_15">
    <path d="M 295.2846 294.845552 
L 307.0674 294.845552 
" clip-path="url(#pe7b63b92fd)" style="fill: none; stroke: #000000; stroke-linecap: round"/>
   </g>
   <g id="line2d_16">
    <path d="M 295.2846 262.359137 
L 307.0674 262.359137 
" clip-path="url(#pe7b63b92fd)" style="fill: none; stroke: #000000; stroke-linecap: round"/>
   </g>
   <g id="line2d_17">
    <path d="M 458.28 151.054607 
L 458.28 177.431744 
" clip-path="url(#pe7b63b92fd)" style="fill: none; stroke: #000000"/>
   </g>
   <g id="line2d_18">
    <path d="M 458.28 133.136469 
L 458.28 107.301575 
" clip-path="url(#pe7b63b92fd)" style="fill: none; stroke: #000000"/>
   </g>
   <g id="line2d_19">
    <path d="M 452.3886 177.431744 
L 464.1714 177.431744 
" clip-path="url(#pe7b63b92fd)" style="fill: none; stroke: #000000; stroke-linecap: round"/>
   </g>
   <g id="line2d_20">
    <path d="M 452.3886 107.301575 
L 464.1714 107.301575 
" clip-path="url(#pe7b63b92fd)" style="fill: none; stroke: #000000; stroke-linecap: round"/>
   </g>
   <g id="line2d_21">
    <path d="M 615.384 270.55304 
L 615.384 277.011763 
" clip-path="url(#pe7b63b92fd)" style="fill: none; stroke: #000000"/>
   </g>
   <g id="line2d_22">
    <path d="M 615.384 262.443486 
L 615.384 250.646676 
" clip-path="url(#pe7b63b92fd)" style="fill: none; stroke: #000000"/>
   </g>
   <g id="line2d_23">
    <path d="M 609.4926 277.011763 
L 621.2754 277.011763 
" clip-path="url(#pe7b63b92fd)" style="fill: none; stroke: #000000; stroke-linecap: round"/>
   </g>
   <g id="line2d_24">
    <path d="M 609.4926 250.646676 
L 621.2754 250.646676 
" clip-path="url(#pe7b63b92fd)" style="fill: none; stroke: #000000; stroke-linecap: round"/>
   </g>
   <g id="line2d_25">
    <path d="M 772.488 294.122561 
L 772.488 302.075466 
" clip-path="url(#pe7b63b92fd)" style="fill: none; stroke: #000000"/>
   </g>
   <g id="line2d_26">
    <path d="M 772.488 286.940846 
L 772.488 276.288772 
" clip-path="url(#pe7b63b92fd)" style="fill: none; stroke: #000000"/>
   </g>
   <g id="line2d_27">
    <path d="M 766.5966 302.075466 
L 778.3794 302.075466 
" clip-path="url(#pe7b63b92fd)" style="fill: none; stroke: #000000; stroke-linecap: round"/>
   </g>
   <g id="line2d_28">
    <path d="M 766.5966 276.288772 
L 778.3794 276.288772 
" clip-path="url(#pe7b63b92fd)" style="fill: none; stroke: #000000; stroke-linecap: round"/>
   </g>
   <g id="line2d_29">
    <path d="M 132.2892 228.956933 
L 155.8548 228.956933 
" clip-path="url(#pe7b63b92fd)" style="fill: none; stroke: #ff0000; stroke-width: 2"/>
   </g>
   <g id="line2d_30">
    <path d="M 289.3932 277.30096 
L 312.9588 277.30096 
" clip-path="url(#pe7b63b92fd)" style="fill: none; stroke: #ff0000; stroke-width: 2"/>
   </g>
   <g id="line2d_31">
    <path d="M 446.4972 138.052811 
L 470.0628 138.052811 
" clip-path="url(#pe7b63b92fd)" style="fill: none; stroke: #ff0000; stroke-width: 2"/>
   </g>
   <g id="line2d_32">
    <path d="M 603.6012 267.468277 
L 627.1668 267.468277 
" clip-path="url(#pe7b63b92fd)" style="fill: none; stroke: #ff0000; stroke-width: 2"/>
   </g>
   <g id="line2d_33">
    <path d="M 760.7052 288.700125 
L 784.2708 288.700125 
" clip-path="url(#pe7b63b92fd)" style="fill: none; stroke: #ff0000; stroke-width: 2"/>
   </g>
   <g id="patch_3">
    <path d="M 65.52 358.276 
L 65.52 20.88 
" style="fill: none; stroke: #cccccc; stroke-width: 1.25; stroke-linejoin: miter; stroke-linecap: square"/>
   </g>
   <g id="patch_4">
    <path d="M 851.04 358.276 
L 851.04 20.88 
" style="fill: none; stroke: #cccccc; stroke-width: 1.25; stroke-linejoin: miter; stroke-linecap: square"/>
   </g>
   <g id="patch_5">
    <path d="M 65.52 358.276 
L 851.04 358.276 
" style="fill: none; stroke: #cccccc; stroke-width: 1.25; stroke-linejoin: miter; stroke-linecap: square"/>
   </g>
   <g id="patch_6">
    <path d="M 65.52 20.88 
L 851.04 20.88 
" style="fill: none; stroke: #cccccc; stroke-width: 1.25; stroke-linejoin: miter; stroke-linecap: square"/>
   </g>
   <g id="text_15">
    <g id="patch_7">
     <path d="M 609.165562 64.170425 
L 820.764 64.170425 
L 820.764 28.7498 
L 609.165562 28.7498 
z
" style="fill: #ffffff; opacity: 0.8; stroke: #808080; stroke-linejoin: miter"/>
    </g>
    <!-- Signature: secp384r1 -->
    <g style="fill: #262626" transform="translate(618.165562 51.426988) scale(0.18 -0.18)">
     <defs>
      <path id="DejaVuSans-53" d="M 3425 4513 
L 3425 3897 
Q 3066 4069 2747 4153 
Q 2428 4238 2131 4238 
Q 1616 4238 1336 4038 
Q 1056 3838 1056 3469 
Q 1056 3159 1242 3001 
Q 1428 2844 1947 2747 
L 2328 2669 
Q 3034 2534 3370 2195 
Q 3706 1856 3706 1288 
Q 3706 609 3251 259 
Q 2797 -91 1919 -91 
Q 1588 -91 1214 -16 
Q 841 59 441 206 
L 441 856 
Q 825 641 1194 531 
Q 1563 422 1919 422 
Q 2459 422 2753 634 
Q 3047 847 3047 1241 
Q 3047 1584 2836 1778 
Q 2625 1972 2144 2069 
L 1759 2144 
Q 1053 2284 737 2584 
Q 422 2884 422 3419 
Q 422 4038 858 4394 
Q 1294 4750 2059 4750 
Q 2388 4750 2728 4690 
Q 3069 4631 3425 4513 
z
" transform="scale(0.015625)"/>
      <path id="DejaVuSans-67" d="M 2906 1791 
Q 2906 2416 2648 2759 
Q 2391 3103 1925 3103 
Q 1463 3103 1205 2759 
Q 947 2416 947 1791 
Q 947 1169 1205 825 
Q 1463 481 1925 481 
Q 2391 481 2648 825 
Q 2906 1169 2906 1791 
z
M 3481 434 
Q 3481 -459 3084 -895 
Q 2688 -1331 1869 -1331 
Q 1566 -1331 1297 -1286 
Q 1028 -1241 775 -1147 
L 775 -588 
Q 1028 -725 1275 -790 
Q 1522 -856 1778 -856 
Q 2344 -856 2625 -561 
Q 2906 -266 2906 331 
L 2906 616 
Q 2728 306 2450 153 
Q 2172 0 1784 0 
Q 1141 0 747 490 
Q 353 981 353 1791 
Q 353 2603 747 3093 
Q 1141 3584 1784 3584 
Q 2172 3584 2450 3431 
Q 2728 3278 2906 2969 
L 2906 3500 
L 3481 3500 
L 3481 434 
z
" transform="scale(0.015625)"/>
      <path id="DejaVuSans-3a" d="M 750 794 
L 1409 794 
L 1409 0 
L 750 0 
L 750 794 
z
M 750 3309 
L 1409 3309 
L 1409 2516 
L 750 2516 
L 750 3309 
z
" transform="scale(0.015625)"/>
      <path id="DejaVuSans-63" d="M 3122 3366 
L 3122 2828 
Q 2878 2963 2633 3030 
Q 2388 3097 2138 3097 
Q 1578 3097 1268 2742 
Q 959 2388 959 1747 
Q 959 1106 1268 751 
Q 1578 397 2138 397 
Q 2388 397 2633 464 
Q 2878 531 3122 666 
L 3122 134 
Q 2881 22 2623 -34 
Q 2366 -91 2075 -91 
Q 1284 -91 818 406 
Q 353 903 353 1747 
Q 353 2603 823 3093 
Q 1294 3584 2113 3584 
Q 2378 3584 2631 3529 
Q 2884 3475 3122 3366 
z
" transform="scale(0.015625)"/>
      <path id="DejaVuSans-70" d="M 1159 525 
L 1159 -1331 
L 581 -1331 
L 581 3500 
L 1159 3500 
L 1159 2969 
Q 1341 3281 1617 3432 
Q 1894 3584 2278 3584 
Q 2916 3584 3314 3078 
Q 3713 2572 3713 1747 
Q 3713 922 3314 415 
Q 2916 -91 2278 -91 
Q 1894 -91 1617 61 
Q 1341 213 1159 525 
z
M 3116 1747 
Q 3116 2381 2855 2742 
Q 2594 3103 2138 3103 
Q 1681 3103 1420 2742 
Q 1159 2381 1159 1747 
Q 1159 1113 1420 752 
Q 1681 391 2138 391 
Q 2594 391 2855 752 
Q 3116 1113 3116 1747 
z
" transform="scale(0.015625)"/>
     </defs>
     <use xlink:href="#DejaVuSans-53"/>
     <use xlink:href="#DejaVuSans-69" x="63.476562"/>
     <use xlink:href="#DejaVuSans-67" x="91.259766"/>
     <use xlink:href="#DejaVuSans-6e" x="154.736328"/>
     <use xlink:href="#DejaVuSans-61" x="218.115234"/>
     <use xlink:href="#DejaVuSans-74" x="279.394531"/>
     <use xlink:href="#DejaVuSans-75" x="318.603516"/>
     <use xlink:href="#DejaVuSans-72" x="381.982422"/>
     <use xlink:href="#DejaVuSans-65" x="420.845703"/>
     <use xlink:href="#DejaVuSans-3a" x="482.369141"/>
     <use xlink:href="#DejaVuSans-20" x="516.060547"/>
     <use xlink:href="#DejaVuSans-73" x="547.847656"/>
     <use xlink:href="#DejaVuSans-65" x="599.947266"/>
     <use xlink:href="#DejaVuSans-63" x="661.470703"/>
     <use xlink:href="#DejaVuSans-70" x="716.451172"/>
     <use xlink:href="#DejaVuSans-33" x="779.927734"/>
     <use xlink:href="#DejaVuSans-38" x="843.550781"/>
     <use xlink:href="#DejaVuSans-34" x="907.173828"/>
     <use xlink:href="#DejaVuSans-72" x="970.796875"/>
     <use xlink:href="#DejaVuSans-31" x="1011.910156"/>
    </g>
   </g>
  </g>
 </g>
 <defs>
  <clipPath id="pe7b63b92fd">
   <rect x="65.52" y="20.88" width="785.52" height="337.396"/>
  </clipPath>
 </defs>
</svg>
