<?xml version="1.0" encoding="utf-8" standalone="no"?>
<!DOCTYPE svg PUBLIC "-//W3C//DTD SVG 1.1//EN"
  "http://www.w3.org/Graphics/SVG/1.1/DTD/svg11.dtd">
<svg xmlns:xlink="http://www.w3.org/1999/xlink" width="864pt" height="432pt" viewBox="0 0 864 432" xmlns="http://www.w3.org/2000/svg" version="1.1">
 <metadata>
  <rdf:RDF xmlns:dc="http://purl.org/dc/elements/1.1/" xmlns:cc="http://creativecommons.org/ns#" xmlns:rdf="http://www.w3.org/1999/02/22-rdf-syntax-ns#">
   <cc:Work>
    <dc:type rdf:resource="http://purl.org/dc/dcmitype/StillImage"/>
    <dc:date>2026-03-07T11:43:48.648695</dc:date>
    <dc:format>image/svg+xml</dc:format>
    <dc:creator>
     <cc:Agent>
      <dc:title>Matplotlib v3.6.3, https://matplotlib.org/</dc:title>
     </cc:Agent>
    </dc:creator>
   </cc:Work>
  </rdf:RDF>
 </metadata>
 <defs>
  <style type="text/css">*{stroke-linejoin: round; stroke-linecap: butt}</style>
 </defs>
 <g id="figure_1">
  <g id="patch_1">
   <path d="M 0 432 
L 864 432 
L 864 0 
L 0 0 
z
" style="fill: #ffffff"/>
  </g>
  <g id="axes_1">
   <g id="patch_2">
    <path d="M 78.21 358.276 
L 851.04 358.276 
L 851.04 20.88 
L 78.21 20.88 
z
" style="fill: #ffffff"/>
   </g>
   <g id="matplotlib.axis_1">
    <g id="xtick_1">
     <g id="text_1">
      <!-- P-521 -->
      <g style="fill: #262626" transform="translate(172.815 386.01225) scale(0.24 -0.24)">
       <defs>
        <path id="DejaVuSans-50" d="M 1259 4147 
L 1259 2394 
L 2053 2394 
Q 2494 2394 2734 2622 
Q 2975 2850 2975 3272 
Q 2975 3691 2734 3919 
Q 2494 4147 2053 4147 
L 1259 4147 
z
M 628 4666 
L 2053 4666 
Q 2838 4666 3239 4311 
Q 3641 3956 3641 3272 
Q 3641 2581 3239 2228 
Q 2838 1875 2053 1875 
L 1259 1875 
L 1259 0 
L 628 0 
L 628 4666 
z
" transform="scale(0.015625)"/>
        <path id="DejaVuSans-2d" d="M 313 2009 
L 1997 2009 
L 1997 1497 
L 313 1497 
L 313 2009 
z
" transform="scale(0.015625)"/>
        <path id="DejaVuSans-35" d="M 691 4666 
L 3169 4666 
L 3169 4134 
L 1269 4134 
L 1269 2991 
Q 1406 3038 1543 3061 
Q 1681 3084 1819 3084 
Q 2600 3084 3056 2656 
Q 3513 2228 3513 1497 
Q 3513 744 3044 326 
Q 2575 -91 1722 -91 
Q 1428 -91 1123 -41 
Q 819 9 494 109 
L 494 744 
Q 775 591 1075 516 
Q 1375 441 1709 441 
Q 2250 441 2565 725 
Q 2881 1009 2881 1497 
Q 2881 1984 2565 2268 
Q 2250 2553 1709 2553 
Q 1456 2553 1204 2497 
Q 953 2441 691 2322 
L 691 4666 
z
" transform="scale(0.015625)"/>
        <path id="DejaVuSans-32" d="M 1228 531 
L 3431 531 
L 3431 0 
L 469 0 
L 469 531 
Q 828 903 1448 1529 
Q 2069 2156 2228 2338 
Q 2531 2678 2651 2914 
Q 2772 3150 2772 3378 
Q 2772 3750 2511 3984 
Q 2250 4219 1831 4219 
Q 1534 4219 1204 4116 
Q 875 4013 500 3803 
L 500 4441 
Q 881 4594 1212 4672 
Q 1544 4750 1819 4750 
Q 2544 4750 2975 4387 
Q 3406 4025 3406 3419 
Q 3406 3131 3298 2873 
Q 3191 2616 2906 2266 
Q 2828 2175 2409 1742 
Q 1991 1309 1228 531 
z
" transform="scale(0.015625)"/>
        <path id="DejaVuSans-31" d="M 794 531 
L 1825 531 
L 1825 4091 
L 703 3866 
L 703 4441 
L 1819 4666 
L 2450 4666 
L 2450 531 
L 3481 531 
L 3481 0 
L 794 0 
L 794 531 
z
" transform="scale(0.015625)"/>
       </defs>
       <use xlink:href="#DejaVuSans-50"/>
       <use xlink:href="#DejaVuSans-2d" x="58.052734"/>
       <use xlink:href="#DejaVuSans-35" x="94.136719"/>
       <use xlink:href="#DejaVuSans-32" x="157.759766"/>
       <use xlink:href="#DejaVuSans-31" x="221.382812"/>
      </g>
     </g>
    </g>
    <g id="xtick_2">
     <g id="text_2">
      <!-- P-521 -->
      <g style="fill: #262626" transform="translate(430.425 386.01225) scale(0.24 -0.24)">
       <use xlink:href="#DejaVuSans-50"/>
       <use xlink:href="#DejaVuSans-2d" x="58.052734"/>
       <use xlink:href="#DejaVuSans-35" x="94.136719"/>
       <use xlink:href="#DejaVuSans-32" x="157.759766"/>
       <use xlink:href="#DejaVuSans-31" x="221.382812"/>
      </g>
      <!-- mlkem1024 -->
      <g style="fill: #262626" transform="translate(393.47625 412.887) scale(0.24 -0.24)">
       <defs>
        <path id="DejaVuSans-6d" d="M 3328 2828 
Q 3544 3216 3844 3400 
Q 4144 3584 4550 3584 
Q 5097 3584 5394 3201 
Q 5691 2819 5691 2113 
L 5691 0 
L 5113 0 
L 5113 2094 
Q 5113 2597 4934 2840 
Q 4756 3084 4391 3084 
Q 3944 3084 3684 2787 
Q 3425 2491 3425 1978 
L 3425 0 
L 2847 0 
L 2847 2094 
Q 2847 2600 2669 2842 
Q 2491 3084 2119 3084 
Q 1678 3084 1418 2786 
Q 1159 2488 1159 1978 
L 1159 0 
L 581 0 
L 581 3500 
L 1159 3500 
L 1159 2956 
Q 1356 3278 1631 3431 
Q 1906 3584 2284 3584 
Q 2666 3584 2933 3390 
Q 3200 3197 3328 2828 
z
" transform="scale(0.015625)"/>
        <path id="DejaVuSans-6c" d="M 603 4863 
L 1178 4863 
L 1178 0 
L 603 0 
L 603 4863 
z
" transform="scale(0.015625)"/>
        <path id="DejaVuSans-6b" d="M 581 4863 
L 1159 4863 
L 1159 1991 
L 2875 3500 
L 3609 3500 
L 1753 1863 
L 3688 0 
L 2938 0 
L 1159 1709 
L 1159 0 
L 581 0 
L 581 4863 
z
" transform="scale(0.015625)"/>
        <path id="DejaVuSans-65" d="M 3597 1894 
L 3597 1613 
L 953 1613 
Q 991 1019 1311 708 
Q 1631 397 2203 397 
Q 2534 397 2845 478 
Q 3156 559 3463 722 
L 3463 178 
Q 3153 47 2828 -22 
Q 2503 -91 2169 -91 
Q 1331 -91 842 396 
Q 353 884 353 1716 
Q 353 2575 817 3079 
Q 1281 3584 2069 3584 
Q 2775 3584 3186 3129 
Q 3597 2675 3597 1894 
z
M 3022 2063 
Q 3016 2534 2758 2815 
Q 2500 3097 2075 3097 
Q 1594 3097 1305 2825 
Q 1016 2553 972 2059 
L 3022 2063 
z
" transform="scale(0.015625)"/>
        <path id="DejaVuSans-30" d="M 2034 4250 
Q 1547 4250 1301 3770 
Q 1056 3291 1056 2328 
Q 1056 1369 1301 889 
Q 1547 409 2034 409 
Q 2525 409 2770 889 
Q 3016 1369 3016 2328 
Q 3016 3291 2770 3770 
Q 2525 4250 2034 4250 
z
M 2034 4750 
Q 2819 4750 3233 4129 
Q 3647 3509 3647 2328 
Q 3647 1150 3233 529 
Q 2819 -91 2034 -91 
Q 1250 -91 836 529 
Q 422 1150 422 2328 
Q 422 3509 836 4129 
Q 1250 4750 2034 4750 
z
" transform="scale(0.015625)"/>
        <path id="DejaVuSans-34" d="M 2419 4116 
L 825 1625 
L 2419 1625 
L 2419 4116 
z
M 2253 4666 
L 3047 4666 
L 3047 1625 
L 3713 1625 
L 3713 1100 
L 3047 1100 
L 3047 0 
L 2419 0 
L 2419 1100 
L 313 1100 
L 313 1709 
L 2253 4666 
z
" transform="scale(0.015625)"/>
       </defs>
       <use xlink:href="#DejaVuSans-6d"/>
       <use xlink:href="#DejaVuSans-6c" x="97.412109"/>
       <use xlink:href="#DejaVuSans-6b" x="125.195312"/>
       <use xlink:href="#DejaVuSans-65" x="179.480469"/>
       <use xlink:href="#DejaVuSans-6d" x="241.003906"/>
       <use xlink:href="#DejaVuSans-31" x="338.416016"/>
       <use xlink:href="#DejaVuSans-30" x="402.039062"/>
       <use xlink:href="#DejaVuSans-32" x="465.662109"/>
       <use xlink:href="#DejaVuSans-34" x="529.285156"/>
      </g>
     </g>
    </g>
    <g id="xtick_3">
     <g id="text_3">
      <!-- mlkem1024 -->
      <g style="fill: #262626" transform="translate(651.08625 386.01225) scale(0.24 -0.24)">
       <use xlink:href="#DejaVuSans-6d"/>
       <use xlink:href="#DejaVuSans-6c" x="97.412109"/>
       <use xlink:href="#DejaVuSans-6b" x="125.195312"/>
       <use xlink:href="#DejaVuSans-65" x="179.480469"/>
       <use xlink:href="#DejaVuSans-6d" x="241.003906"/>
       <use xlink:href="#DejaVuSans-31" x="338.416016"/>
       <use xlink:href="#DejaVuSans-30" x="402.039062"/>
       <use xlink:href="#DejaVuSans-32" x="465.662109"/>
       <use xlink:href="#DejaVuSans-34" x="529.285156"/>
      </g>
     </g>
    </g>
   </g>
   <g id="matplotlib.axis_2">
    <g id="ytick_1">
     <g id="line2d_1">
      <path d="M 78.21 358.276 
L 851.04 358.276 
" clip-path="url(#p370ec9cb89)" style="fill: none; stroke: #cccccc; stroke-linecap: round"/>
     </g>
     <g id="text_4">
      <!-- 0 -->
      <g style="fill: #262626" transform="translate(55.985 365.874437) scale(0.2 -0.2)">
       <use xlink:href="#DejaVuSans-30"/>
      </g>
     </g>
    </g>
    <g id="ytick_2">
     <g id="line2d_2">
      <path d="M 78.21 310.076571 
L 851.04 310.076571 
" clip-path="url(#p370ec9cb89)" style="fill: none; stroke: #cccccc; stroke-linecap: round"/>
     </g>
     <g id="text_5">
      <!-- 20 -->
      <g style="fill: #262626" transform="translate(43.26 317.675009) scale(0.2 -0.2)">
       <use xlink:href="#DejaVuSans-32"/>
       <use xlink:href="#DejaVuSans-30" x="63.623047"/>
      </g>
     </g>
    </g>
    <g id="ytick_3">
     <g id="line2d_3">
      <path d="M 78.21 261.877143 
L 851.04 261.877143 
" clip-path="url(#p370ec9cb89)" style="fill: none; stroke: #cccccc; stroke-linecap: round"/>
     </g>
     <g id="text_6">
      <!-- 40 -->
      <g style="fill: #262626" transform="translate(43.26 269.47558) scale(0.2 -0.2)">
       <use xlink:href="#DejaVuSans-34"/>
       <use xlink:href="#DejaVuSans-30" x="63.623047"/>
      </g>
     </g>
    </g>
    <g id="ytick_4">
     <g id="line2d_4">
      <path d="M 78.21 213.677714 
L 851.04 213.677714 
" clip-path="url(#p370ec9cb89)" style="fill: none; stroke: #cccccc; stroke-linecap: round"/>
     </g>
     <g id="text_7">
      <!-- 60 -->
      <g style="fill: #262626" transform="translate(43.26 221.276152) scale(0.2 -0.2)">
       <defs>
        <path id="DejaVuSans-36" d="M 2113 2584 
Q 1688 2584 1439 2293 
Q 1191 2003 1191 1497 
Q 1191 994 1439 701 
Q 1688 409 2113 409 
Q 2538 409 2786 701 
Q 3034 994 3034 1497 
Q 3034 2003 2786 2293 
Q 2538 2584 2113 2584 
z
M 3366 4563 
L 3366 3988 
Q 3128 4100 2886 4159 
Q 2644 4219 2406 4219 
Q 1781 4219 1451 3797 
Q 1122 3375 1075 2522 
Q 1259 2794 1537 2939 
Q 1816 3084 2150 3084 
Q 2853 3084 3261 2657 
Q 3669 2231 3669 1497 
Q 3669 778 3244 343 
Q 2819 -91 2113 -91 
Q 1303 -91 875 529 
Q 447 1150 447 2328 
Q 447 3434 972 4092 
Q 1497 4750 2381 4750 
Q 2619 4750 2861 4703 
Q 3103 4656 3366 4563 
z
" transform="scale(0.015625)"/>
       </defs>
       <use xlink:href="#DejaVuSans-36"/>
       <use xlink:href="#DejaVuSans-30" x="63.623047"/>
      </g>
     </g>
    </g>
    <g id="ytick_5">
     <g id="line2d_5">
      <path d="M 78.21 165.478286 
L 851.04 165.478286 
" clip-path="url(#p370ec9cb89)" style="fill: none; stroke: #cccccc; stroke-linecap: round"/>
     </g>
     <g id="text_8">
      <!-- 80 -->
      <g style="fill: #262626" transform="translate(43.26 173.076723) scale(0.2 -0.2)">
       <defs>
        <path id="DejaVuSans-38" d="M 2034 2216 
Q 1584 2216 1326 1975 
Q 1069 1734 1069 1313 
Q 1069 891 1326 650 
Q 1584 409 2034 409 
Q 2484 409 2743 651 
Q 3003 894 3003 1313 
Q 3003 1734 2745 1975 
Q 2488 2216 2034 2216 
z
M 1403 2484 
Q 997 2584 770 2862 
Q 544 3141 544 3541 
Q 544 4100 942 4425 
Q 1341 4750 2034 4750 
Q 2731 4750 3128 4425 
Q 3525 4100 3525 3541 
Q 3525 3141 3298 2862 
Q 3072 2584 2669 2484 
Q 3125 2378 3379 2068 
Q 3634 1759 3634 1313 
Q 3634 634 3220 271 
Q 2806 -91 2034 -91 
Q 1263 -91 848 271 
Q 434 634 434 1313 
Q 434 1759 690 2068 
Q 947 2378 1403 2484 
z
M 1172 3481 
Q 1172 3119 1398 2916 
Q 1625 2713 2034 2713 
Q 2441 2713 2670 2916 
Q 2900 3119 2900 3481 
Q 2900 3844 2670 4047 
Q 2441 4250 2034 4250 
Q 1625 4250 1398 4047 
Q 1172 3844 1172 3481 
z
" transform="scale(0.015625)"/>
       </defs>
       <use xlink:href="#DejaVuSans-38"/>
       <use xlink:href="#DejaVuSans-30" x="63.623047"/>
      </g>
     </g>
    </g>
    <g id="ytick_6">
     <g id="line2d_6">
      <path d="M 78.21 117.278857 
L 851.04 117.278857 
" clip-path="url(#p370ec9cb89)" style="fill: none; stroke: #cccccc; stroke-linecap: round"/>
     </g>
     <g id="text_9">
      <!-- 100 -->
      <g style="fill: #262626" transform="translate(30.535 124.877295) scale(0.2 -0.2)">
       <use xlink:href="#DejaVuSans-31"/>
       <use xlink:href="#DejaVuSans-30" x="63.623047"/>
       <use xlink:href="#DejaVuSans-30" x="127.246094"/>
      </g>
     </g>
    </g>
    <g id="ytick_7">
     <g id="line2d_7">
      <path d="M 78.21 69.079429 
L 851.04 69.079429 
" clip-path="url(#p370ec9cb89)" style="fill: none; stroke: #cccccc; stroke-linecap: round"/>
     </g>
     <g id="text_10">
      <!-- 120 -->
      <g style="fill: #262626" transform="translate(30.535 76.677866) scale(0.2 -0.2)">
       <use xlink:href="#DejaVuSans-31"/>
       <use xlink:href="#DejaVuSans-32" x="63.623047"/>
       <use xlink:href="#DejaVuSans-30" x="127.246094"/>
      </g>
     </g>
    </g>
    <g id="ytick_8">
     <g id="line2d_8">
      <path d="M 78.21 20.88 
L 851.04 20.88 
" clip-path="url(#p370ec9cb89)" style="fill: none; stroke: #cccccc; stroke-linecap: round"/>
     </g>
     <g id="text_11">
      <!-- 140 -->
      <g style="fill: #262626" transform="translate(30.535 28.478438) scale(0.2 -0.2)">
       <use xlink:href="#DejaVuSans-31"/>
       <use xlink:href="#DejaVuSans-34" x="63.623047"/>
       <use xlink:href="#DejaVuSans-30" x="127.246094"/>
      </g>
     </g>
    </g>
    <g id="text_12">
     <!-- Handshake duration (ms) -->
     <g style="fill: #262626" transform="translate(23.623437 278.323781) rotate(-90) scale(0.14 -0.14)">
      <defs>
       <path id="DejaVuSans-48" d="M 628 4666 
L 1259 4666 
L 1259 2753 
L 3553 2753 
L 3553 4666 
L 4184 4666 
L 4184 0 
L 3553 0 
L 3553 2222 
L 1259 2222 
L 1259 0 
L 628 0 
L 628 4666 
z
" transform="scale(0.015625)"/>
       <path id="DejaVuSans-61" d="M 2194 1759 
Q 1497 1759 1228 1600 
Q 959 1441 959 1056 
Q 959 750 1161 570 
Q 1363 391 1709 391 
Q 2188 391 2477 730 
Q 2766 1069 2766 1631 
L 2766 1759 
L 2194 1759 
z
M 3341 1997 
L 3341 0 
L 2766 0 
L 2766 531 
Q 2569 213 2275 61 
Q 1981 -91 1556 -91 
Q 1019 -91 701 211 
Q 384 513 384 1019 
Q 384 1609 779 1909 
Q 1175 2209 1959 2209 
L 2766 2209 
L 2766 2266 
Q 2766 2663 2505 2880 
Q 2244 3097 1772 3097 
Q 1472 3097 1187 3025 
Q 903 2953 641 2809 
L 641 3341 
Q 956 3463 1253 3523 
Q 1550 3584 1831 3584 
Q 2591 3584 2966 3190 
Q 3341 2797 3341 1997 
z
" transform="scale(0.015625)"/>
       <path id="DejaVuSans-6e" d="M 3513 2113 
L 3513 0 
L 2938 0 
L 2938 2094 
Q 2938 2591 2744 2837 
Q 2550 3084 2163 3084 
Q 1697 3084 1428 2787 
Q 1159 2491 1159 1978 
L 1159 0 
L 581 0 
L 581 3500 
L 1159 3500 
L 1159 2956 
Q 1366 3272 1645 3428 
Q 1925 3584 2291 3584 
Q 2894 3584 3203 3211 
Q 3513 2838 3513 2113 
z
" transform="scale(0.015625)"/>
       <path id="DejaVuSans-64" d="M 2906 2969 
L 2906 4863 
L 3481 4863 
L 3481 0 
L 2906 0 
L 2906 525 
Q 2725 213 2448 61 
Q 2172 -91 1784 -91 
Q 1150 -91 751 415 
Q 353 922 353 1747 
Q 353 2572 751 3078 
Q 1150 3584 1784 3584 
Q 2172 3584 2448 3432 
Q 2725 3281 2906 2969 
z
M 947 1747 
Q 947 1113 1208 752 
Q 1469 391 1925 391 
Q 2381 391 2643 752 
Q 2906 1113 2906 1747 
Q 2906 2381 2643 2742 
Q 2381 3103 1925 3103 
Q 1469 3103 1208 2742 
Q 947 2381 947 1747 
z
" transform="scale(0.015625)"/>
       <path id="DejaVuSans-73" d="M 2834 3397 
L 2834 2853 
Q 2591 2978 2328 3040 
Q 2066 3103 1784 3103 
Q 1356 3103 1142 2972 
Q 928 2841 928 2578 
Q 928 2378 1081 2264 
Q 1234 2150 1697 2047 
L 1894 2003 
Q 2506 1872 2764 1633 
Q 3022 1394 3022 966 
Q 3022 478 2636 193 
Q 2250 -91 1575 -91 
Q 1294 -91 989 -36 
Q 684 19 347 128 
L 347 722 
Q 666 556 975 473 
Q 1284 391 1588 391 
Q 1994 391 2212 530 
Q 2431 669 2431 922 
Q 2431 1156 2273 1281 
Q 2116 1406 1581 1522 
L 1381 1569 
Q 847 1681 609 1914 
Q 372 2147 372 2553 
Q 372 3047 722 3315 
Q 1072 3584 1716 3584 
Q 2034 3584 2315 3537 
Q 2597 3491 2834 3397 
z
" transform="scale(0.015625)"/>
       <path id="DejaVuSans-68" d="M 3513 2113 
L 3513 0 
L 2938 0 
L 2938 2094 
Q 2938 2591 2744 2837 
Q 2550 3084 2163 3084 
Q 1697 3084 1428 2787 
Q 1159 2491 1159 1978 
L 1159 0 
L 581 0 
L 581 4863 
L 1159 4863 
L 1159 2956 
Q 1366 3272 1645 3428 
Q 1925 3584 2291 3584 
Q 2894 3584 3203 3211 
Q 3513 2838 3513 2113 
z
" transform="scale(0.015625)"/>
       <path id="DejaVuSans-20" transform="scale(0.015625)"/>
       <path id="DejaVuSans-75" d="M 544 1381 
L 544 3500 
L 1119 3500 
L 1119 1403 
Q 1119 906 1312 657 
Q 1506 409 1894 409 
Q 2359 409 2629 706 
Q 2900 1003 2900 1516 
L 2900 3500 
L 3475 3500 
L 3475 0 
L 2900 0 
L 2900 538 
Q 2691 219 2414 64 
Q 2138 -91 1772 -91 
Q 1169 -91 856 284 
Q 544 659 544 1381 
z
M 1991 3584 
L 1991 3584 
z
" transform="scale(0.015625)"/>
       <path id="DejaVuSans-72" d="M 2631 2963 
Q 2534 3019 2420 3045 
Q 2306 3072 2169 3072 
Q 1681 3072 1420 2755 
Q 1159 2438 1159 1844 
L 1159 0 
L 581 0 
L 581 3500 
L 1159 3500 
L 1159 2956 
Q 1341 3275 1631 3429 
Q 1922 3584 2338 3584 
Q 2397 3584 2469 3576 
Q 2541 3569 2628 3553 
L 2631 2963 
z
" transform="scale(0.015625)"/>
       <path id="DejaVuSans-74" d="M 1172 4494 
L 1172 3500 
L 2356 3500 
L 2356 3053 
L 1172 3053 
L 1172 1153 
Q 1172 725 1289 603 
Q 1406 481 1766 481 
L 2356 481 
L 2356 0 
L 1766 0 
Q 1100 0 847 248 
Q 594 497 594 1153 
L 594 3053 
L 172 3053 
L 172 3500 
L 594 3500 
L 594 4494 
L 1172 4494 
z
" transform="scale(0.015625)"/>
       <path id="DejaVuSans-69" d="M 603 3500 
L 1178 3500 
L 1178 0 
L 603 0 
L 603 3500 
z
M 603 4863 
L 1178 4863 
L 1178 4134 
L 603 4134 
L 603 4863 
z
" transform="scale(0.015625)"/>
       <path id="DejaVuSans-6f" d="M 1959 3097 
Q 1497 3097 1228 2736 
Q 959 2375 959 1747 
Q 959 1119 1226 758 
Q 1494 397 1959 397 
Q 2419 397 2687 759 
Q 2956 1122 2956 1747 
Q 2956 2369 2687 2733 
Q 2419 3097 1959 3097 
z
M 1959 3584 
Q 2709 3584 3137 3096 
Q 3566 2609 3566 1747 
Q 3566 888 3137 398 
Q 2709 -91 1959 -91 
Q 1206 -91 779 398 
Q 353 888 353 1747 
Q 353 2609 779 3096 
Q 1206 3584 1959 3584 
z
" transform="scale(0.015625)"/>
       <path id="DejaVuSans-28" d="M 1984 4856 
Q 1566 4138 1362 3434 
Q 1159 2731 1159 2009 
Q 1159 1288 1364 580 
Q 1569 -128 1984 -844 
L 1484 -844 
Q 1016 -109 783 600 
Q 550 1309 550 2009 
Q 550 2706 781 3412 
Q 1013 4119 1484 4856 
L 1984 4856 
z
" transform="scale(0.015625)"/>
       <path id="DejaVuSans-29" d="M 513 4856 
L 1013 4856 
Q 1481 4119 1714 3412 
Q 1947 2706 1947 2009 
Q 1947 1309 1714 600 
Q 1481 -109 1013 -844 
L 513 -844 
Q 928 -128 1133 580 
Q 1338 1288 1338 2009 
Q 1338 2731 1133 3434 
Q 928 4138 513 4856 
z
" transform="scale(0.015625)"/>
      </defs>
      <use xlink:href="#DejaVuSans-48"/>
      <use xlink:href="#DejaVuSans-61" x="75.195312"/>
      <use xlink:href="#DejaVuSans-6e" x="136.474609"/>
      <use xlink:href="#DejaVuSans-64" x="199.853516"/>
      <use xlink:href="#DejaVuSans-73" x="263.330078"/>
      <use xlink:href="#DejaVuSans-68" x="315.429688"/>
      <use xlink:href="#DejaVuSans-61" x="378.808594"/>
      <use xlink:href="#DejaVuSans-6b" x="440.087891"/>
      <use xlink:href="#DejaVuSans-65" x="494.373047"/>
      <use xlink:href="#DejaVuSans-20" x="555.896484"/>
      <use xlink:href="#DejaVuSans-64" x="587.683594"/>
      <use xlink:href="#DejaVuSans-75" x="651.160156"/>
      <use xlink:href="#DejaVuSans-72" x="714.539062"/>
      <use xlink:href="#DejaVuSans-61" x="755.652344"/>
      <use xlink:href="#DejaVuSans-74" x="816.931641"/>
      <use xlink:href="#DejaVuSans-69" x="856.140625"/>
      <use xlink:href="#DejaVuSans-6f" x="883.923828"/>
      <use xlink:href="#DejaVuSans-6e" x="945.105469"/>
      <use xlink:href="#DejaVuSans-20" x="1008.484375"/>
      <use xlink:href="#DejaVuSans-28" x="1040.271484"/>
      <use xlink:href="#DejaVuSans-6d" x="1079.285156"/>
      <use xlink:href="#DejaVuSans-73" x="1176.697266"/>
      <use xlink:href="#DejaVuSans-29" x="1228.796875"/>
     </g>
    </g>
   </g>
   <g id="PolyCollection_1">
    <defs>
     <path id="m5307f0110e" d="M 207.341586 -116.963603 
L 206.688414 -116.963603 
L 206.420742 -118.454769 
L 205.999784 -119.945934 
L 205.386022 -121.4371 
L 204.558744 -122.928266 
L 203.532041 -124.419432 
L 202.365845 -125.910598 
L 201.165076 -127.401764 
L 200.063082 -128.892929 
L 199.191972 -130.384095 
L 198.64918 -131.875261 
L 198.472832 -133.366427 
L 198.63565 -134.857593 
L 199.059241 -136.348759 
L 199.641724 -137.839925 
L 200.286621 -139.33109 
L 200.922111 -140.822256 
L 201.506013 -142.313422 
L 202.019091 -143.804588 
L 202.453766 -145.295754 
L 202.805209 -146.78692 
L 203.068359 -148.278086 
L 203.240268 -149.769251 
L 203.324569 -151.260417 
L 203.334652 -152.751583 
L 203.293571 -154.242749 
L 203.230592 -155.733915 
L 203.175643 -157.225081 
L 203.153584 -158.716246 
L 203.180096 -160.207412 
L 203.260415 -161.698578 
L 203.391041 -163.189744 
L 203.56331 -164.68091 
L 203.766828 -166.172076 
L 203.990632 -167.663242 
L 204.22082 -169.154407 
L 204.43466 -170.645573 
L 204.592081 -172.136739 
L 204.625603 -173.627905 
L 204.429382 -175.119071 
L 203.848503 -176.610237 
L 202.671779 -178.101403 
L 200.63476 -179.592568 
L 197.441916 -181.083734 
L 192.814298 -182.5749 
L 186.559436 -184.066066 
L 178.646469 -185.557232 
L 169.259097 -187.048398 
L 158.800825 -188.539564 
L 147.843909 -190.030729 
L 137.038382 -191.521895 
L 127.01576 -193.013061 
L 118.321302 -194.504227 
L 111.388944 -195.995393 
L 106.547228 -197.486559 
L 104.030028 -198.977724 
L 103.971 -200.46889 
L 106.379577 -201.960056 
L 111.114262 -203.451222 
L 117.87397 -204.942388 
L 126.219128 -206.433554 
L 135.619562 -207.92472 
L 145.51567 -209.415885 
L 155.377631 -210.907051 
L 164.752072 -212.398217 
L 173.291823 -213.889383 
L 180.768682 -215.380549 
L 187.071154 -216.871715 
L 192.190221 -218.362881 
L 196.197102 -219.854046 
L 199.217524 -221.345212 
L 201.406692 -222.836378 
L 202.927907 -224.327544 
L 203.936323 -225.81871 
L 204.568157 -227.309876 
L 204.935099 -228.801041 
L 205.123352 -230.292207 
L 205.196416 -231.783373 
L 205.200344 -233.274539 
L 205.169765 -234.765705 
L 205.132897 -236.256871 
L 205.114052 -237.748037 
L 205.133112 -239.239202 
L 205.202739 -240.730368 
L 205.325276 -242.221534 
L 205.49163 -243.7127 
L 205.683589 -245.203866 
L 205.879249 -246.695032 
L 206.059557 -248.186198 
L 206.213322 -249.677363 
L 206.338762 -251.168529 
L 206.441411 -252.659695 
L 206.529821 -254.150861 
L 206.611266 -255.642027 
L 206.689217 -257.133193 
L 206.763158 -258.624359 
L 206.830152 -260.115524 
L 206.886954 -261.60669 
L 206.931613 -263.097856 
L 206.964071 -264.589022 
L 207.065929 -264.589022 
L 207.065929 -264.589022 
L 207.098387 -263.097856 
L 207.143046 -261.60669 
L 207.199848 -260.115524 
L 207.266842 -258.624359 
L 207.340783 -257.133193 
L 207.418734 -255.642027 
L 207.500179 -254.150861 
L 207.588589 -252.659695 
L 207.691238 -251.168529 
L 207.816678 -249.677363 
L 207.970443 -248.186198 
L 208.150751 -246.695032 
L 208.346411 -245.203866 
L 208.53837 -243.7127 
L 208.704724 -242.221534 
L 208.827261 -240.730368 
L 208.896888 -239.239202 
L 208.915948 -237.748037 
L 208.897103 -236.256871 
L 208.860235 -234.765705 
L 208.829656 -233.274539 
L 208.833584 -231.783373 
L 208.906648 -230.292207 
L 209.094901 -228.801041 
L 209.461843 -227.309876 
L 210.093677 -225.81871 
L 211.102093 -224.327544 
L 212.623308 -222.836378 
L 214.812476 -221.345212 
L 217.832898 -219.854046 
L 221.839779 -218.362881 
L 226.958846 -216.871715 
L 233.261318 -215.380549 
L 240.738177 -213.889383 
L 249.277928 -212.398217 
L 258.652369 -210.907051 
L 268.51433 -209.415885 
L 278.410438 -207.92472 
L 287.810872 -206.433554 
L 296.15603 -204.942388 
L 302.915738 -203.451222 
L 307.650423 -201.960056 
L 310.059 -200.46889 
L 309.999972 -198.977724 
L 307.482772 -197.486559 
L 302.641056 -195.995393 
L 295.708698 -194.504227 
L 287.01424 -193.013061 
L 276.991618 -191.521895 
L 266.186091 -190.030729 
L 255.229175 -188.539564 
L 244.770903 -187.048398 
L 235.383531 -185.557232 
L 227.470564 -184.066066 
L 221.215702 -182.5749 
L 216.588084 -181.083734 
L 213.39524 -179.592568 
L 211.358221 -178.101403 
L 210.181497 -176.610237 
L 209.600618 -175.119071 
L 209.404397 -173.627905 
L 209.437919 -172.136739 
L 209.59534 -170.645573 
L 209.80918 -169.154407 
L 210.039368 -167.663242 
L 210.263172 -166.172076 
L 210.46669 -164.68091 
L 210.638959 -163.189744 
L 210.769585 -161.698578 
L 210.849904 -160.207412 
L 210.876416 -158.716246 
L 210.854357 -157.225081 
L 210.799408 -155.733915 
L 210.736429 -154.242749 
L 210.695348 -152.751583 
L 210.705431 -151.260417 
L 210.789732 -149.769251 
L 210.961641 -148.278086 
L 211.224791 -146.78692 
L 211.576234 -145.295754 
L 212.010909 -143.804588 
L 212.523987 -142.313422 
L 213.107889 -140.822256 
L 213.743379 -139.33109 
L 214.388276 -137.839925 
L 214.970759 -136.348759 
L 215.39435 -134.857593 
L 215.557168 -133.366427 
L 215.38082 -131.875261 
L 214.838028 -130.384095 
L 213.966918 -128.892929 
L 212.864924 -127.401764 
L 211.664155 -125.910598 
L 210.497959 -124.419432 
L 209.471256 -122.928266 
L 208.643978 -121.4371 
L 208.030216 -119.945934 
L 207.609258 -118.454769 
L 207.341586 -116.963603 
z
" style="stroke: #595959; stroke-width: 1.25"/>
    </defs>
    <g clip-path="url(#p370ec9cb89)">
     <use xlink:href="#m5307f0110e" x="0" y="432" style="fill: #72b6a1; stroke: #595959; stroke-width: 1.25"/>
    </g>
   </g>
   <g id="PolyCollection_2">
    <defs>
     <path id="m8e98dae1ac" d="M 465.211524 -136.063087 
L 464.038476 -136.063087 
L 463.508186 -138.550365 
L 462.663151 -141.037643 
L 461.443303 -143.524921 
L 459.856939 -146.012199 
L 458.015338 -148.499477 
L 456.138029 -150.986755 
L 454.513597 -153.474033 
L 453.421637 -155.961311 
L 453.044795 -158.448589 
L 453.41013 -160.935867 
L 454.387095 -163.423146 
L 455.741399 -165.910424 
L 457.217192 -168.397702 
L 458.610198 -170.88498 
L 459.804958 -173.372258 
L 460.770815 -175.859536 
L 461.530257 -178.346814 
L 462.121141 -180.834092 
L 462.570503 -183.32137 
L 462.8872 -185.808648 
L 463.069865 -188.295926 
L 463.120526 -190.783204 
L 463.054396 -193.270482 
L 462.901369 -195.75776 
L 462.70061 -198.245039 
L 462.492565 -200.732317 
L 462.311407 -203.219595 
L 462.177708 -205.706873 
L 462.089675 -208.194151 
L 462.012894 -210.681429 
L 461.870882 -213.168707 
L 461.53793 -215.655985 
L 460.831321 -218.143263 
L 459.497094 -220.630541 
L 457.189723 -223.117819 
L 453.463083 -225.605097 
L 447.808032 -228.092375 
L 439.77085 -230.579653 
L 429.152448 -233.066932 
L 416.229244 -235.55421 
L 401.889508 -238.041488 
L 387.58556 -240.528766 
L 375.073922 -243.016044 
L 366.01606 -245.503322 
L 361.581 -247.9906 
L 362.188635 -250.477878 
L 367.467709 -252.965156 
L 376.417353 -255.452434 
L 387.695938 -257.939712 
L 399.934559 -260.42699 
L 411.983951 -262.914268 
L 423.043186 -265.401546 
L 432.669006 -267.888825 
L 440.704954 -270.376103 
L 447.183532 -272.863381 
L 452.241899 -275.350659 
L 456.066472 -277.837937 
L 458.861697 -280.325215 
L 460.831522 -282.812493 
L 462.165996 -285.299771 
L 463.031564 -287.787049 
L 463.566335 -290.274327 
L 463.880275 -292.761605 
L 464.058114 -295.248883 
L 464.162283 -297.736161 
L 464.234894 -300.223439 
L 464.299671 -302.710718 
L 464.365288 -305.197996 
L 464.430488 -307.685274 
L 464.489842 -310.172552 
L 464.538381 -312.65983 
L 464.573959 -315.147108 
L 464.59739 -317.634386 
L 464.611301 -320.121664 
L 464.618768 -322.608942 
L 464.622399 -325.09622 
L 464.623995 -327.583498 
L 464.624606 -330.070776 
L 464.624735 -332.558054 
L 464.6245 -335.045332 
L 464.623688 -337.532611 
L 464.62167 -340.019889 
L 464.617208 -342.507167 
L 464.608286 -344.994445 
L 464.592146 -347.481723 
L 464.565824 -349.969001 
L 464.527332 -352.456279 
L 464.47729 -354.943557 
L 464.420299 -357.430835 
L 464.365056 -359.918113 
L 464.322525 -362.405391 
L 464.302484 -364.892669 
L 464.309889 -367.379947 
L 464.342884 -369.867225 
L 464.393559 -372.354504 
L 464.451018 -374.841782 
L 464.505155 -377.32906 
L 464.549354 -379.816338 
L 464.581247 -382.303616 
L 464.668753 -382.303616 
L 464.668753 -382.303616 
L 464.700646 -379.816338 
L 464.744845 -377.32906 
L 464.798982 -374.841782 
L 464.856441 -372.354504 
L 464.907116 -369.867225 
L 464.940111 -367.379947 
L 464.947516 -364.892669 
L 464.927475 -362.405391 
L 464.884944 -359.918113 
L 464.829701 -357.430835 
L 464.77271 -354.943557 
L 464.722668 -352.456279 
L 464.684176 -349.969001 
L 464.657854 -347.481723 
L 464.641714 -344.994445 
L 464.632792 -342.507167 
L 464.62833 -340.019889 
L 464.626312 -337.532611 
L 464.6255 -335.045332 
L 464.625265 -332.558054 
L 464.625394 -330.070776 
L 464.626005 -327.583498 
L 464.627601 -325.09622 
L 464.631232 -322.608942 
L 464.638699 -320.121664 
L 464.65261 -317.634386 
L 464.676041 -315.147108 
L 464.711619 -312.65983 
L 464.760158 -310.172552 
L 464.819512 -307.685274 
L 464.884712 -305.197996 
L 464.950329 -302.710718 
L 465.015106 -300.223439 
L 465.087717 -297.736161 
L 465.191886 -295.248883 
L 465.369725 -292.761605 
L 465.683665 -290.274327 
L 466.218436 -287.787049 
L 467.084004 -285.299771 
L 468.418478 -282.812493 
L 470.388303 -280.325215 
L 473.183528 -277.837937 
L 477.008101 -275.350659 
L 482.066468 -272.863381 
L 488.545046 -270.376103 
L 496.580994 -267.888825 
L 506.206814 -265.401546 
L 517.266049 -262.914268 
L 529.315441 -260.42699 
L 541.554062 -257.939712 
L 552.832647 -255.452434 
L 561.782291 -252.965156 
L 567.061365 -250.477878 
L 567.669 -247.9906 
L 563.23394 -245.503322 
L 554.176078 -243.016044 
L 541.66444 -240.528766 
L 527.360492 -238.041488 
L 513.020756 -235.55421 
L 500.097552 -233.066932 
L 489.47915 -230.579653 
L 481.441968 -228.092375 
L 475.786917 -225.605097 
L 472.060277 -223.117819 
L 469.752906 -220.630541 
L 468.418679 -218.143263 
L 467.71207 -215.655985 
L 467.379118 -213.168707 
L 467.237106 -210.681429 
L 467.160325 -208.194151 
L 467.072292 -205.706873 
L 466.938593 -203.219595 
L 466.757435 -200.732317 
L 466.54939 -198.245039 
L 466.348631 -195.75776 
L 466.195604 -193.270482 
L 466.129474 -190.783204 
L 466.180135 -188.295926 
L 466.3628 -185.808648 
L 466.679497 -183.32137 
L 467.128859 -180.834092 
L 467.719743 -178.346814 
L 468.479185 -175.859536 
L 469.445042 -173.372258 
L 470.639802 -170.88498 
L 472.032808 -168.397702 
L 473.508601 -165.910424 
L 474.862905 -163.423146 
L 475.83987 -160.935867 
L 476.205205 -158.448589 
L 475.828363 -155.961311 
L 474.736403 -153.474033 
L 473.111971 -150.986755 
L 471.234662 -148.499477 
L 469.393061 -146.012199 
L 467.806697 -143.524921 
L 466.586849 -141.037643 
L 465.741814 -138.550365 
L 465.211524 -136.063087 
z
" style="stroke: #595959; stroke-width: 1.25"/>
    </defs>
    <g clip-path="url(#p370ec9cb89)">
     <use xlink:href="#m8e98dae1ac" x="0" y="432" style="fill: #e99675; stroke: #595959; stroke-width: 1.25"/>
    </g>
   </g>
   <g id="PolyCollection_3">
    <defs>
     <path id="m9babce8c4a" d="M 722.389071 -96.676279 
L 722.080929 -96.676279 
L 721.871558 -97.537107 
L 721.506478 -98.397935 
L 720.987255 -99.258763 
L 720.395551 -100.119591 
L 719.878893 -100.980419 
L 719.583929 -101.841248 
L 719.583008 -102.702076 
L 719.844324 -103.562904 
L 720.253688 -104.423732 
L 720.666839 -105.28456 
L 720.972898 -106.145388 
L 721.145072 -107.006217 
L 721.242867 -107.867045 
L 721.354392 -108.727873 
L 721.52249 -109.588701 
L 721.716261 -110.449529 
L 721.861507 -111.310357 
L 721.890829 -112.171186 
L 721.776489 -113.032014 
L 721.542663 -113.892842 
L 721.262621 -114.75367 
L 721.033306 -115.614498 
L 720.928041 -116.475326 
L 720.957915 -117.336155 
L 721.075586 -118.196983 
L 721.215993 -119.057811 
L 721.334864 -119.918639 
L 721.416068 -120.779467 
L 721.451094 -121.640295 
L 721.413224 -122.501124 
L 721.250189 -123.361952 
L 720.903736 -124.22278 
L 720.329677 -125.083608 
L 719.457053 -125.944436 
L 718.029322 -126.805264 
L 715.345555 -127.666092 
L 710.075442 -128.526921 
L 700.490812 -129.387749 
L 685.406067 -130.248577 
L 665.58446 -131.109405 
L 644.553864 -131.970233 
L 627.627872 -132.831061 
L 619.191 -133.69189 
L 620.105514 -134.552718 
L 627.403259 -135.413546 
L 636.567016 -136.274374 
L 644.495755 -137.135202 
L 650.881007 -137.99603 
L 657.323584 -138.856859 
L 665.370312 -139.717687 
L 675.174618 -140.578515 
L 685.563908 -141.439343 
L 695.024351 -142.300171 
L 702.608541 -143.160999 
L 708.192895 -144.021828 
L 712.184157 -144.882656 
L 715.086259 -145.743484 
L 717.240253 -146.604312 
L 718.805314 -147.46514 
L 719.871821 -148.325968 
L 720.558363 -149.186797 
L 721.016039 -150.047625 
L 721.368373 -150.908453 
L 721.666989 -151.769281 
L 721.906112 -152.630109 
L 722.068514 -153.490937 
L 722.153816 -154.351766 
L 722.175069 -155.212594 
L 722.144675 -156.073422 
L 722.071675 -156.93425 
L 721.972351 -157.795078 
L 721.878891 -158.655906 
L 721.83021 -159.516735 
L 721.847159 -160.377563 
L 721.914225 -161.238391 
L 721.986767 -162.099219 
L 722.018849 -162.960047 
L 721.990646 -163.820875 
L 721.919561 -164.681704 
L 721.850453 -165.542532 
L 721.828846 -166.40336 
L 721.87203 -167.264188 
L 721.959083 -168.125016 
L 722.046713 -168.985844 
L 722.094915 -169.846673 
L 722.083204 -170.707501 
L 722.014643 -171.568329 
L 721.913783 -172.429157 
L 721.817209 -173.289985 
L 721.753808 -174.150813 
L 721.727409 -175.011642 
L 721.721985 -175.87247 
L 721.726812 -176.733298 
L 721.751832 -177.594126 
L 721.813955 -178.454954 
L 721.912308 -179.315782 
L 722.023026 -180.176611 
L 722.117249 -181.037439 
L 722.180042 -181.898267 
L 722.289958 -181.898267 
L 722.289958 -181.898267 
L 722.352751 -181.037439 
L 722.446974 -180.176611 
L 722.557692 -179.315782 
L 722.656045 -178.454954 
L 722.718168 -177.594126 
L 722.743188 -176.733298 
L 722.748015 -175.87247 
L 722.742591 -175.011642 
L 722.716192 -174.150813 
L 722.652791 -173.289985 
L 722.556217 -172.429157 
L 722.455357 -171.568329 
L 722.386796 -170.707501 
L 722.375085 -169.846673 
L 722.423287 -168.985844 
L 722.510917 -168.125016 
L 722.59797 -167.264188 
L 722.641154 -166.40336 
L 722.619547 -165.542532 
L 722.550439 -164.681704 
L 722.479354 -163.820875 
L 722.451151 -162.960047 
L 722.483233 -162.099219 
L 722.555775 -161.238391 
L 722.622841 -160.377563 
L 722.63979 -159.516735 
L 722.591109 -158.655906 
L 722.497649 -157.795078 
L 722.398325 -156.93425 
L 722.325325 -156.073422 
L 722.294931 -155.212594 
L 722.316184 -154.351766 
L 722.401486 -153.490937 
L 722.563888 -152.630109 
L 722.803011 -151.769281 
L 723.101627 -150.908453 
L 723.453961 -150.047625 
L 723.911637 -149.186797 
L 724.598179 -148.325968 
L 725.664686 -147.46514 
L 727.229747 -146.604312 
L 729.383741 -145.743484 
L 732.285843 -144.882656 
L 736.277105 -144.021828 
L 741.861459 -143.160999 
L 749.445649 -142.300171 
L 758.906092 -141.439343 
L 769.295382 -140.578515 
L 779.099688 -139.717687 
L 787.146416 -138.856859 
L 793.588993 -137.99603 
L 799.974245 -137.135202 
L 807.902984 -136.274374 
L 817.066741 -135.413546 
L 824.364486 -134.552718 
L 825.279 -133.69189 
L 816.842128 -132.831061 
L 799.916136 -131.970233 
L 778.88554 -131.109405 
L 759.063933 -130.248577 
L 743.979188 -129.387749 
L 734.394558 -128.526921 
L 729.124445 -127.666092 
L 726.440678 -126.805264 
L 725.012947 -125.944436 
L 724.140323 -125.083608 
L 723.566264 -124.22278 
L 723.219811 -123.361952 
L 723.056776 -122.501124 
L 723.018906 -121.640295 
L 723.053932 -120.779467 
L 723.135136 -119.918639 
L 723.254007 -119.057811 
L 723.394414 -118.196983 
L 723.512085 -117.336155 
L 723.541959 -116.475326 
L 723.436694 -115.614498 
L 723.207379 -114.75367 
L 722.927337 -113.892842 
L 722.693511 -113.032014 
L 722.579171 -112.171186 
L 722.608493 -111.310357 
L 722.753739 -110.449529 
L 722.94751 -109.588701 
L 723.115608 -108.727873 
L 723.227133 -107.867045 
L 723.324928 -107.006217 
L 723.497102 -106.145388 
L 723.803161 -105.28456 
L 724.216312 -104.423732 
L 724.625676 -103.562904 
L 724.886992 -102.702076 
L 724.886071 -101.841248 
L 724.591107 -100.980419 
L 724.074449 -100.119591 
L 723.482745 -99.258763 
L 722.963522 -98.397935 
L 722.598442 -97.537107 
L 722.389071 -96.676279 
z
" style="stroke: #595959; stroke-width: 1.25"/>
    </defs>
    <g clip-path="url(#p370ec9cb89)">
     <use xlink:href="#m9babce8c4a" x="0" y="432" style="fill: #95a3c3; stroke: #595959; stroke-width: 1.25"/>
    </g>
   </g>
   <g id="line2d_9">
    <path d="M 207.015 239.35596 
L 207.015 250.477978 
" clip-path="url(#p370ec9cb89)" style="fill: none; stroke: #000000"/>
   </g>
   <g id="line2d_10">
    <path d="M 207.015 227.450701 
L 207.015 213.002922 
" clip-path="url(#p370ec9cb89)" style="fill: none; stroke: #000000"/>
   </g>
   <g id="line2d_11">
    <path d="M 197.354625 250.477978 
L 216.675375 250.477978 
" clip-path="url(#p370ec9cb89)" style="fill: none; stroke: #000000; stroke-linecap: round"/>
   </g>
   <g id="line2d_12">
    <path d="M 197.354625 213.002922 
L 216.675375 213.002922 
" clip-path="url(#p370ec9cb89)" style="fill: none; stroke: #000000; stroke-linecap: round"/>
   </g>
   <g id="line2d_13">
    <path d="M 464.625 189.626199 
L 464.625 205.459712 
" clip-path="url(#p370ec9cb89)" style="fill: none; stroke: #000000"/>
   </g>
   <g id="line2d_14">
    <path d="M 464.625 178.082436 
L 464.625 161.140337 
" clip-path="url(#p370ec9cb89)" style="fill: none; stroke: #000000"/>
   </g>
   <g id="line2d_15">
    <path d="M 454.964625 205.459712 
L 474.285375 205.459712 
" clip-path="url(#p370ec9cb89)" style="fill: none; stroke: #000000; stroke-linecap: round"/>
   </g>
   <g id="line2d_16">
    <path d="M 454.964625 161.140337 
L 474.285375 161.140337 
" clip-path="url(#p370ec9cb89)" style="fill: none; stroke: #000000; stroke-linecap: round"/>
   </g>
   <g id="line2d_17">
    <path d="M 722.235 298.870204 
L 722.235 306.654412 
" clip-path="url(#p370ec9cb89)" style="fill: none; stroke: #000000"/>
   </g>
   <g id="line2d_18">
    <path d="M 722.235 293.544167 
L 722.235 285.687661 
" clip-path="url(#p370ec9cb89)" style="fill: none; stroke: #000000"/>
   </g>
   <g id="line2d_19">
    <path d="M 712.574625 306.654412 
L 731.895375 306.654412 
" clip-path="url(#p370ec9cb89)" style="fill: none; stroke: #000000; stroke-linecap: round"/>
   </g>
   <g id="line2d_20">
    <path d="M 712.574625 285.687661 
L 731.895375 285.687661 
" clip-path="url(#p370ec9cb89)" style="fill: none; stroke: #000000; stroke-linecap: round"/>
   </g>
   <g id="line2d_21">
    <path d="M 187.69425 232.668289 
L 226.33575 232.668289 
" clip-path="url(#p370ec9cb89)" style="fill: none; stroke: #ff0000; stroke-width: 2"/>
   </g>
   <g id="line2d_22">
    <path d="M 445.30425 183.577171 
L 483.94575 183.577171 
" clip-path="url(#p370ec9cb89)" style="fill: none; stroke: #ff0000; stroke-width: 2"/>
   </g>
   <g id="line2d_23">
    <path d="M 702.91425 297.219374 
L 741.55575 297.219374 
" clip-path="url(#p370ec9cb89)" style="fill: none; stroke: #ff0000; stroke-width: 2"/>
   </g>
   <g id="patch_3">
    <path d="M 78.21 358.276 
L 78.21 20.88 
" style="fill: none; stroke: #cccccc; stroke-width: 1.25; stroke-linejoin: miter; stroke-linecap: square"/>
   </g>
   <g id="patch_4">
    <path d="M 851.04 358.276 
L 851.04 20.88 
" style="fill: none; stroke: #cccccc; stroke-width: 1.25; stroke-linejoin: miter; stroke-linecap: square"/>
   </g>
   <g id="patch_5">
    <path d="M 78.21 358.276 
L 851.04 358.276 
" style="fill: none; stroke: #cccccc; stroke-width: 1.25; stroke-linejoin: miter; stroke-linecap: square"/>
   </g>
   <g id="patch_6">
    <path d="M 78.21 20.88 
L 851.04 20.88 
" style="fill: none; stroke: #cccccc; stroke-width: 1.25; stroke-linejoin: miter; stroke-linecap: square"/>
   </g>
   <g id="text_13">
    <g id="patch_7">
     <path d="M 609.800062 64.170425 
L 821.3985 64.170425 
L 821.3985 28.7498 
L 609.800062 28.7498 
z
" style="fill: #ffffff; opacity: 0.8; stroke: #808080; stroke-linejoin: miter"/>
    </g>
    <!-- Signature: secp521r1 -->
    <g style="fill: #262626" transform="translate(618.800062 51.426988) scale(0.18 -0.18)">
     <defs>
      <path id="DejaVuSans-53" d="M 3425 4513 
L 3425 3897 
Q 3066 4069 2747 4153 
Q 2428 4238 2131 4238 
Q 1616 4238 1336 4038 
Q 1056 3838 1056 3469 
Q 1056 3159 1242 3001 
Q 1428 2844 1947 2747 
L 2328 2669 
Q 3034 2534 3370 2195 
Q 3706 1856 3706 1288 
Q 3706 609 3251 259 
Q 2797 -91 1919 -91 
Q 1588 -91 1214 -16 
Q 841 59 441 206 
L 441 856 
Q 825 641 1194 531 
Q 1563 422 1919 422 
Q 2459 422 2753 634 
Q 3047 847 3047 1241 
Q 3047 1584 2836 1778 
Q 2625 1972 2144 2069 
L 1759 2144 
Q 1053 2284 737 2584 
Q 422 2884 422 3419 
Q 422 4038 858 4394 
Q 1294 4750 2059 4750 
Q 2388 4750 2728 4690 
Q 3069 4631 3425 4513 
z
" transform="scale(0.015625)"/>
      <path id="DejaVuSans-67" d="M 2906 1791 
Q 2906 2416 2648 2759 
Q 2391 3103 1925 3103 
Q 1463 3103 1205 2759 
Q 947 2416 947 1791 
Q 947 1169 1205 825 
Q 1463 481 1925 481 
Q 2391 481 2648 825 
Q 2906 1169 2906 1791 
z
M 3481 434 
Q 3481 -459 3084 -895 
Q 2688 -1331 1869 -1331 
Q 1566 -1331 1297 -1286 
Q 1028 -1241 775 -1147 
L 775 -588 
Q 1028 -725 1275 -790 
Q 1522 -856 1778 -856 
Q 2344 -856 2625 -561 
Q 2906 -266 2906 331 
L 2906 616 
Q 2728 306 2450 153 
Q 2172 0 1784 0 
Q 1141 0 747 490 
Q 353 981 353 1791 
Q 353 2603 747 3093 
Q 1141 3584 1784 3584 
Q 2172 3584 2450 3431 
Q 2728 3278 2906 2969 
L 2906 3500 
L 3481 3500 
L 3481 434 
z
" transform="scale(0.015625)"/>
      <path id="DejaVuSans-3a" d="M 750 794 
L 1409 794 
L 1409 0 
L 750 0 
L 750 794 
z
M 750 3309 
L 1409 3309 
L 1409 2516 
L 750 2516 
L 750 3309 
z
" transform="scale(0.015625)"/>
      <path id="DejaVuSans-63" d="M 3122 3366 
L 3122 2828 
Q 2878 2963 2633 3030 
Q 2388 3097 2138 3097 
Q 1578 3097 1268 2742 
Q 959 2388 959 1747 
Q 959 1106 1268 751 
Q 1578 397 2138 397 
Q 2388 397 2633 464 
Q 2878 531 3122 666 
L 3122 134 
Q 2881 22 2623 -34 
Q 2366 -91 2075 -91 
Q 1284 -91 818 406 
Q 353 903 353 1747 
Q 353 2603 823 3093 
Q 1294 3584 2113 3584 
Q 2378 3584 2631 3529 
Q 2884 3475 3122 3366 
z
" transform="scale(0.015625)"/>
      <path id="DejaVuSans-70" d="M 1159 525 
L 1159 -1331 
L 581 -1331 
L 581 3500 
L 1159 3500 
L 1159 2969 
Q 1341 3281 1617 3432 
Q 1894 3584 2278 3584 
Q 2916 3584 3314 3078 
Q 3713 2572 3713 1747 
Q 3713 922 3314 415 
Q 2916 -91 2278 -91 
Q 1894 -91 1617 61 
Q 1341 213 1159 525 
z
M 3116 1747 
Q 3116 2381 2855 2742 
Q 2594 3103 2138 3103 
Q 1681 3103 1420 2742 
Q 1159 2381 1159 1747 
Q 1159 1113 1420 752 
Q 1681 391 2138 391 
Q 2594 391 2855 752 
Q 3116 1113 3116 1747 
z
" transform="scale(0.015625)"/>
     </defs>
     <use xlink:href="#DejaVuSans-53"/>
     <use xlink:href="#DejaVuSans-69" x="63.476562"/>
     <use xlink:href="#DejaVuSans-67" x="91.259766"/>
     <use xlink:href="#DejaVuSans-6e" x="154.736328"/>
     <use xlink:href="#DejaVuSans-61" x="218.115234"/>
     <use xlink:href="#DejaVuSans-74" x="279.394531"/>
     <use xlink:href="#DejaVuSans-75" x="318.603516"/>
     <use xlink:href="#DejaVuSans-72" x="381.982422"/>
     <use xlink:href="#DejaVuSans-65" x="420.845703"/>
     <use xlink:href="#DejaVuSans-3a" x="482.369141"/>
     <use xlink:href="#DejaVuSans-20" x="516.060547"/>
     <use xlink:href="#DejaVuSans-73" x="547.847656"/>
     <use xlink:href="#DejaVuSans-65" x="599.947266"/>
     <use xlink:href="#DejaVuSans-63" x="661.470703"/>
     <use xlink:href="#DejaVuSans-70" x="716.451172"/>
     <use xlink:href="#DejaVuSans-35" x="779.927734"/>
     <use xlink:href="#DejaVuSans-32" x="843.550781"/>
     <use xlink:href="#DejaVuSans-31" x="907.173828"/>
     <use xlink:href="#DejaVuSans-72" x="970.796875"/>
     <use xlink:href="#DejaVuSans-31" x="1011.910156"/>
    </g>
   </g>
  </g>
 </g>
 <defs>
  <clipPath id="p370ec9cb89">
   <rect x="78.21" y="20.88" width="772.83" height="337.396"/>
  </clipPath>
 </defs>
</svg>
