<?xml version="1.0" encoding="utf-8" standalone="no"?>
<!DOCTYPE svg PUBLIC "-//W3C//DTD SVG 1.1//EN"
  "http://www.w3.org/Graphics/SVG/1.1/DTD/svg11.dtd">
<svg xmlns:xlink="http://www.w3.org/1999/xlink" width="864pt" height="432pt" viewBox="0 0 864 432" xmlns="http://www.w3.org/2000/svg" version="1.1">
 <metadata>
  <rdf:RDF xmlns:dc="http://purl.org/dc/elements/1.1/" xmlns:cc="http://creativecommons.org/ns#" xmlns:rdf="http://www.w3.org/1999/02/22-rdf-syntax-ns#">
   <cc:Work>
    <dc:type rdf:resource="http://purl.org/dc/dcmitype/StillImage"/>
    <dc:date>2026-03-07T11:40:11.882522</dc:date>
    <dc:format>image/svg+xml</dc:format>
    <dc:creator>
     <cc:Agent>
      <dc:title>Matplotlib v3.6.3, https://matplotlib.org/</dc:title>
     </cc:Agent>
    </dc:creator>
   </cc:Work>
  </rdf:RDF>
 </metadata>
 <defs>
  <style type="text/css">*{stroke-linejoin: round; stroke-linecap: butt}</style>
 </defs>
 <g id="figure_1">
  <g id="patch_1">
   <path d="M 0 432 
L 864 432 
L 864 0 
L 0 0 
z
" style="fill: #ffffff"/>
  </g>
  <g id="axes_1">
   <g id="patch_2">
    <path d="M 51.3 395.14 
L 851.04 395.14 
L 851.04 27.6 
L 51.3 27.6 
z
" style="fill: #ffffff"/>
   </g>
   <g id="matplotlib.axis_1">
    <g id="xtick_1">
     <g id="text_1">
      <!-- P-256 -->
      <g style="fill: #262626" transform="translate(111.324 415.277812) scale(0.14 -0.14)">
       <defs>
        <path id="DejaVuSans-50" d="M 1259 4147 
L 1259 2394 
L 2053 2394 
Q 2494 2394 2734 2622 
Q 2975 2850 2975 3272 
Q 2975 3691 2734 3919 
Q 2494 4147 2053 4147 
L 1259 4147 
z
M 628 4666 
L 2053 4666 
Q 2838 4666 3239 4311 
Q 3641 3956 3641 3272 
Q 3641 2581 3239 2228 
Q 2838 1875 2053 1875 
L 1259 1875 
L 1259 0 
L 628 0 
L 628 4666 
z
" transform="scale(0.015625)"/>
        <path id="DejaVuSans-2d" d="M 313 2009 
L 1997 2009 
L 1997 1497 
L 313 1497 
L 313 2009 
z
" transform="scale(0.015625)"/>
        <path id="DejaVuSans-32" d="M 1228 531 
L 3431 531 
L 3431 0 
L 469 0 
L 469 531 
Q 828 903 1448 1529 
Q 2069 2156 2228 2338 
Q 2531 2678 2651 2914 
Q 2772 3150 2772 3378 
Q 2772 3750 2511 3984 
Q 2250 4219 1831 4219 
Q 1534 4219 1204 4116 
Q 875 4013 500 3803 
L 500 4441 
Q 881 4594 1212 4672 
Q 1544 4750 1819 4750 
Q 2544 4750 2975 4387 
Q 3406 4025 3406 3419 
Q 3406 3131 3298 2873 
Q 3191 2616 2906 2266 
Q 2828 2175 2409 1742 
Q 1991 1309 1228 531 
z
" transform="scale(0.015625)"/>
        <path id="DejaVuSans-35" d="M 691 4666 
L 3169 4666 
L 3169 4134 
L 1269 4134 
L 1269 2991 
Q 1406 3038 1543 3061 
Q 1681 3084 1819 3084 
Q 2600 3084 3056 2656 
Q 3513 2228 3513 1497 
Q 3513 744 3044 326 
Q 2575 -91 1722 -91 
Q 1428 -91 1123 -41 
Q 819 9 494 109 
L 494 744 
Q 775 591 1075 516 
Q 1375 441 1709 441 
Q 2250 441 2565 725 
Q 2881 1009 2881 1497 
Q 2881 1984 2565 2268 
Q 2250 2553 1709 2553 
Q 1456 2553 1204 2497 
Q 953 2441 691 2322 
L 691 4666 
z
" transform="scale(0.015625)"/>
        <path id="DejaVuSans-36" d="M 2113 2584 
Q 1688 2584 1439 2293 
Q 1191 2003 1191 1497 
Q 1191 994 1439 701 
Q 1688 409 2113 409 
Q 2538 409 2786 701 
Q 3034 994 3034 1497 
Q 3034 2003 2786 2293 
Q 2538 2584 2113 2584 
z
M 3366 4563 
L 3366 3988 
Q 3128 4100 2886 4159 
Q 2644 4219 2406 4219 
Q 1781 4219 1451 3797 
Q 1122 3375 1075 2522 
Q 1259 2794 1537 2939 
Q 1816 3084 2150 3084 
Q 2853 3084 3261 2657 
Q 3669 2231 3669 1497 
Q 3669 778 3244 343 
Q 2819 -91 2113 -91 
Q 1303 -91 875 529 
Q 447 1150 447 2328 
Q 447 3434 972 4092 
Q 1497 4750 2381 4750 
Q 2619 4750 2861 4703 
Q 3103 4656 3366 4563 
z
" transform="scale(0.015625)"/>
       </defs>
       <use xlink:href="#DejaVuSans-50"/>
       <use xlink:href="#DejaVuSans-2d" x="58.052734"/>
       <use xlink:href="#DejaVuSans-32" x="94.136719"/>
       <use xlink:href="#DejaVuSans-35" x="157.759766"/>
       <use xlink:href="#DejaVuSans-36" x="221.382812"/>
      </g>
     </g>
    </g>
    <g id="xtick_2">
     <g id="text_2">
      <!-- x25519 -->
      <g style="fill: #262626" transform="translate(264.810125 415.277812) scale(0.14 -0.14)">
       <defs>
        <path id="DejaVuSans-78" d="M 3513 3500 
L 2247 1797 
L 3578 0 
L 2900 0 
L 1881 1375 
L 863 0 
L 184 0 
L 1544 1831 
L 300 3500 
L 978 3500 
L 1906 2253 
L 2834 3500 
L 3513 3500 
z
" transform="scale(0.015625)"/>
        <path id="DejaVuSans-31" d="M 794 531 
L 1825 531 
L 1825 4091 
L 703 3866 
L 703 4441 
L 1819 4666 
L 2450 4666 
L 2450 531 
L 3481 531 
L 3481 0 
L 794 0 
L 794 531 
z
" transform="scale(0.015625)"/>
        <path id="DejaVuSans-39" d="M 703 97 
L 703 672 
Q 941 559 1184 500 
Q 1428 441 1663 441 
Q 2288 441 2617 861 
Q 2947 1281 2994 2138 
Q 2813 1869 2534 1725 
Q 2256 1581 1919 1581 
Q 1219 1581 811 2004 
Q 403 2428 403 3163 
Q 403 3881 828 4315 
Q 1253 4750 1959 4750 
Q 2769 4750 3195 4129 
Q 3622 3509 3622 2328 
Q 3622 1225 3098 567 
Q 2575 -91 1691 -91 
Q 1453 -91 1209 -44 
Q 966 3 703 97 
z
M 1959 2075 
Q 2384 2075 2632 2365 
Q 2881 2656 2881 3163 
Q 2881 3666 2632 3958 
Q 2384 4250 1959 4250 
Q 1534 4250 1286 3958 
Q 1038 3666 1038 3163 
Q 1038 2656 1286 2365 
Q 1534 2075 1959 2075 
z
" transform="scale(0.015625)"/>
       </defs>
       <use xlink:href="#DejaVuSans-78"/>
       <use xlink:href="#DejaVuSans-32" x="59.179688"/>
       <use xlink:href="#DejaVuSans-35" x="122.802734"/>
       <use xlink:href="#DejaVuSans-35" x="186.425781"/>
       <use xlink:href="#DejaVuSans-31" x="250.048828"/>
       <use xlink:href="#DejaVuSans-39" x="313.671875"/>
      </g>
     </g>
    </g>
    <g id="xtick_3">
     <g id="text_3">
      <!-- p256_mlkem512 -->
      <g style="fill: #262626" transform="translate(392.815156 415.277812) scale(0.14 -0.14)">
       <defs>
        <path id="DejaVuSans-70" d="M 1159 525 
L 1159 -1331 
L 581 -1331 
L 581 3500 
L 1159 3500 
L 1159 2969 
Q 1341 3281 1617 3432 
Q 1894 3584 2278 3584 
Q 2916 3584 3314 3078 
Q 3713 2572 3713 1747 
Q 3713 922 3314 415 
Q 2916 -91 2278 -91 
Q 1894 -91 1617 61 
Q 1341 213 1159 525 
z
M 3116 1747 
Q 3116 2381 2855 2742 
Q 2594 3103 2138 3103 
Q 1681 3103 1420 2742 
Q 1159 2381 1159 1747 
Q 1159 1113 1420 752 
Q 1681 391 2138 391 
Q 2594 391 2855 752 
Q 3116 1113 3116 1747 
z
" transform="scale(0.015625)"/>
        <path id="DejaVuSans-5f" d="M 3263 -1063 
L 3263 -1509 
L -63 -1509 
L -63 -1063 
L 3263 -1063 
z
" transform="scale(0.015625)"/>
        <path id="DejaVuSans-6d" d="M 3328 2828 
Q 3544 3216 3844 3400 
Q 4144 3584 4550 3584 
Q 5097 3584 5394 3201 
Q 5691 2819 5691 2113 
L 5691 0 
L 5113 0 
L 5113 2094 
Q 5113 2597 4934 2840 
Q 4756 3084 4391 3084 
Q 3944 3084 3684 2787 
Q 3425 2491 3425 1978 
L 3425 0 
L 2847 0 
L 2847 2094 
Q 2847 2600 2669 2842 
Q 2491 3084 2119 3084 
Q 1678 3084 1418 2786 
Q 1159 2488 1159 1978 
L 1159 0 
L 581 0 
L 581 3500 
L 1159 3500 
L 1159 2956 
Q 1356 3278 1631 3431 
Q 1906 3584 2284 3584 
Q 2666 3584 2933 3390 
Q 3200 3197 3328 2828 
z
" transform="scale(0.015625)"/>
        <path id="DejaVuSans-6c" d="M 603 4863 
L 1178 4863 
L 1178 0 
L 603 0 
L 603 4863 
z
" transform="scale(0.015625)"/>
        <path id="DejaVuSans-6b" d="M 581 4863 
L 1159 4863 
L 1159 1991 
L 2875 3500 
L 3609 3500 
L 1753 1863 
L 3688 0 
L 2938 0 
L 1159 1709 
L 1159 0 
L 581 0 
L 581 4863 
z
" transform="scale(0.015625)"/>
        <path id="DejaVuSans-65" d="M 3597 1894 
L 3597 1613 
L 953 1613 
Q 991 1019 1311 708 
Q 1631 397 2203 397 
Q 2534 397 2845 478 
Q 3156 559 3463 722 
L 3463 178 
Q 3153 47 2828 -22 
Q 2503 -91 2169 -91 
Q 1331 -91 842 396 
Q 353 884 353 1716 
Q 353 2575 817 3079 
Q 1281 3584 2069 3584 
Q 2775 3584 3186 3129 
Q 3597 2675 3597 1894 
z
M 3022 2063 
Q 3016 2534 2758 2815 
Q 2500 3097 2075 3097 
Q 1594 3097 1305 2825 
Q 1016 2553 972 2059 
L 3022 2063 
z
" transform="scale(0.015625)"/>
       </defs>
       <use xlink:href="#DejaVuSans-70"/>
       <use xlink:href="#DejaVuSans-32" x="63.476562"/>
       <use xlink:href="#DejaVuSans-35" x="127.099609"/>
       <use xlink:href="#DejaVuSans-36" x="190.722656"/>
       <use xlink:href="#DejaVuSans-5f" x="254.345703"/>
       <use xlink:href="#DejaVuSans-6d" x="304.345703"/>
       <use xlink:href="#DejaVuSans-6c" x="401.757812"/>
       <use xlink:href="#DejaVuSans-6b" x="429.541016"/>
       <use xlink:href="#DejaVuSans-65" x="483.826172"/>
       <use xlink:href="#DejaVuSans-6d" x="545.349609"/>
       <use xlink:href="#DejaVuSans-35" x="642.761719"/>
       <use xlink:href="#DejaVuSans-31" x="706.384766"/>
       <use xlink:href="#DejaVuSans-32" x="770.007812"/>
      </g>
     </g>
    </g>
    <g id="xtick_4">
     <g id="text_4">
      <!-- x25519_mlkem512 -->
      <g style="fill: #262626" transform="translate(544.156437 415.277812) scale(0.14 -0.14)">
       <use xlink:href="#DejaVuSans-78"/>
       <use xlink:href="#DejaVuSans-32" x="59.179688"/>
       <use xlink:href="#DejaVuSans-35" x="122.802734"/>
       <use xlink:href="#DejaVuSans-35" x="186.425781"/>
       <use xlink:href="#DejaVuSans-31" x="250.048828"/>
       <use xlink:href="#DejaVuSans-39" x="313.671875"/>
       <use xlink:href="#DejaVuSans-5f" x="377.294922"/>
       <use xlink:href="#DejaVuSans-6d" x="427.294922"/>
       <use xlink:href="#DejaVuSans-6c" x="524.707031"/>
       <use xlink:href="#DejaVuSans-6b" x="552.490234"/>
       <use xlink:href="#DejaVuSans-65" x="606.775391"/>
       <use xlink:href="#DejaVuSans-6d" x="668.298828"/>
       <use xlink:href="#DejaVuSans-35" x="765.710938"/>
       <use xlink:href="#DejaVuSans-31" x="829.333984"/>
       <use xlink:href="#DejaVuSans-32" x="892.957031"/>
      </g>
     </g>
    </g>
    <g id="xtick_5">
     <g id="text_5">
      <!-- mlkem512 -->
      <g style="fill: #262626" transform="translate(734.016312 415.277812) scale(0.14 -0.14)">
       <use xlink:href="#DejaVuSans-6d"/>
       <use xlink:href="#DejaVuSans-6c" x="97.412109"/>
       <use xlink:href="#DejaVuSans-6b" x="125.195312"/>
       <use xlink:href="#DejaVuSans-65" x="179.480469"/>
       <use xlink:href="#DejaVuSans-6d" x="241.003906"/>
       <use xlink:href="#DejaVuSans-35" x="338.416016"/>
       <use xlink:href="#DejaVuSans-31" x="402.039062"/>
       <use xlink:href="#DejaVuSans-32" x="465.662109"/>
      </g>
     </g>
    </g>
   </g>
   <g id="matplotlib.axis_2">
    <g id="ytick_1">
     <g id="line2d_1">
      <path d="M 51.3 392.107327 
L 851.04 392.107327 
" clip-path="url(#pa8944e303c)" style="fill: none; stroke: #cccccc; stroke-linecap: round"/>
     </g>
     <g id="text_6">
      <!-- 0 -->
      <g style="fill: #262626" transform="translate(34.80125 396.286467) scale(0.11 -0.11)">
       <defs>
        <path id="DejaVuSans-30" d="M 2034 4250 
Q 1547 4250 1301 3770 
Q 1056 3291 1056 2328 
Q 1056 1369 1301 889 
Q 1547 409 2034 409 
Q 2525 409 2770 889 
Q 3016 1369 3016 2328 
Q 3016 3291 2770 3770 
Q 2525 4250 2034 4250 
z
M 2034 4750 
Q 2819 4750 3233 4129 
Q 3647 3509 3647 2328 
Q 3647 1150 3233 529 
Q 2819 -91 2034 -91 
Q 1250 -91 836 529 
Q 422 1150 422 2328 
Q 422 3509 836 4129 
Q 1250 4750 2034 4750 
z
" transform="scale(0.015625)"/>
       </defs>
       <use xlink:href="#DejaVuSans-30"/>
      </g>
     </g>
    </g>
    <g id="ytick_2">
     <g id="line2d_2">
      <path d="M 51.3 336.364028 
L 851.04 336.364028 
" clip-path="url(#pa8944e303c)" style="fill: none; stroke: #cccccc; stroke-linecap: round"/>
     </g>
     <g id="text_7">
      <!-- 5 -->
      <g style="fill: #262626" transform="translate(34.80125 340.543169) scale(0.11 -0.11)">
       <use xlink:href="#DejaVuSans-35"/>
      </g>
     </g>
    </g>
    <g id="ytick_3">
     <g id="line2d_3">
      <path d="M 51.3 280.62073 
L 851.04 280.62073 
" clip-path="url(#pa8944e303c)" style="fill: none; stroke: #cccccc; stroke-linecap: round"/>
     </g>
     <g id="text_8">
      <!-- 10 -->
      <g style="fill: #262626" transform="translate(27.8025 284.799871) scale(0.11 -0.11)">
       <use xlink:href="#DejaVuSans-31"/>
       <use xlink:href="#DejaVuSans-30" x="63.623047"/>
      </g>
     </g>
    </g>
    <g id="ytick_4">
     <g id="line2d_4">
      <path d="M 51.3 224.877432 
L 851.04 224.877432 
" clip-path="url(#pa8944e303c)" style="fill: none; stroke: #cccccc; stroke-linecap: round"/>
     </g>
     <g id="text_9">
      <!-- 15 -->
      <g style="fill: #262626" transform="translate(27.8025 229.056572) scale(0.11 -0.11)">
       <use xlink:href="#DejaVuSans-31"/>
       <use xlink:href="#DejaVuSans-35" x="63.623047"/>
      </g>
     </g>
    </g>
    <g id="ytick_5">
     <g id="line2d_5">
      <path d="M 51.3 169.134133 
L 851.04 169.134133 
" clip-path="url(#pa8944e303c)" style="fill: none; stroke: #cccccc; stroke-linecap: round"/>
     </g>
     <g id="text_10">
      <!-- 20 -->
      <g style="fill: #262626" transform="translate(27.8025 173.313274) scale(0.11 -0.11)">
       <use xlink:href="#DejaVuSans-32"/>
       <use xlink:href="#DejaVuSans-30" x="63.623047"/>
      </g>
     </g>
    </g>
    <g id="ytick_6">
     <g id="line2d_6">
      <path d="M 51.3 113.390835 
L 851.04 113.390835 
" clip-path="url(#pa8944e303c)" style="fill: none; stroke: #cccccc; stroke-linecap: round"/>
     </g>
     <g id="text_11">
      <!-- 25 -->
      <g style="fill: #262626" transform="translate(27.8025 117.569976) scale(0.11 -0.11)">
       <use xlink:href="#DejaVuSans-32"/>
       <use xlink:href="#DejaVuSans-35" x="63.623047"/>
      </g>
     </g>
    </g>
    <g id="ytick_7">
     <g id="line2d_7">
      <path d="M 51.3 57.647537 
L 851.04 57.647537 
" clip-path="url(#pa8944e303c)" style="fill: none; stroke: #cccccc; stroke-linecap: round"/>
     </g>
     <g id="text_12">
      <!-- 30 -->
      <g style="fill: #262626" transform="translate(27.8025 61.826677) scale(0.11 -0.11)">
       <defs>
        <path id="DejaVuSans-33" d="M 2597 2516 
Q 3050 2419 3304 2112 
Q 3559 1806 3559 1356 
Q 3559 666 3084 287 
Q 2609 -91 1734 -91 
Q 1441 -91 1130 -33 
Q 819 25 488 141 
L 488 750 
Q 750 597 1062 519 
Q 1375 441 1716 441 
Q 2309 441 2620 675 
Q 2931 909 2931 1356 
Q 2931 1769 2642 2001 
Q 2353 2234 1838 2234 
L 1294 2234 
L 1294 2753 
L 1863 2753 
Q 2328 2753 2575 2939 
Q 2822 3125 2822 3475 
Q 2822 3834 2567 4026 
Q 2313 4219 1838 4219 
Q 1578 4219 1281 4162 
Q 984 4106 628 3988 
L 628 4550 
Q 988 4650 1302 4700 
Q 1616 4750 1894 4750 
Q 2613 4750 3031 4423 
Q 3450 4097 3450 3541 
Q 3450 3153 3228 2886 
Q 3006 2619 2597 2516 
z
" transform="scale(0.015625)"/>
       </defs>
       <use xlink:href="#DejaVuSans-33"/>
       <use xlink:href="#DejaVuSans-30" x="63.623047"/>
      </g>
     </g>
    </g>
    <g id="text_13">
     <!-- Handshake duration (ms) -->
     <g style="fill: #262626" transform="translate(21.306875 287.437813) rotate(-90) scale(0.12 -0.12)">
      <defs>
       <path id="DejaVuSans-48" d="M 628 4666 
L 1259 4666 
L 1259 2753 
L 3553 2753 
L 3553 4666 
L 4184 4666 
L 4184 0 
L 3553 0 
L 3553 2222 
L 1259 2222 
L 1259 0 
L 628 0 
L 628 4666 
z
" transform="scale(0.015625)"/>
       <path id="DejaVuSans-61" d="M 2194 1759 
Q 1497 1759 1228 1600 
Q 959 1441 959 1056 
Q 959 750 1161 570 
Q 1363 391 1709 391 
Q 2188 391 2477 730 
Q 2766 1069 2766 1631 
L 2766 1759 
L 2194 1759 
z
M 3341 1997 
L 3341 0 
L 2766 0 
L 2766 531 
Q 2569 213 2275 61 
Q 1981 -91 1556 -91 
Q 1019 -91 701 211 
Q 384 513 384 1019 
Q 384 1609 779 1909 
Q 1175 2209 1959 2209 
L 2766 2209 
L 2766 2266 
Q 2766 2663 2505 2880 
Q 2244 3097 1772 3097 
Q 1472 3097 1187 3025 
Q 903 2953 641 2809 
L 641 3341 
Q 956 3463 1253 3523 
Q 1550 3584 1831 3584 
Q 2591 3584 2966 3190 
Q 3341 2797 3341 1997 
z
" transform="scale(0.015625)"/>
       <path id="DejaVuSans-6e" d="M 3513 2113 
L 3513 0 
L 2938 0 
L 2938 2094 
Q 2938 2591 2744 2837 
Q 2550 3084 2163 3084 
Q 1697 3084 1428 2787 
Q 1159 2491 1159 1978 
L 1159 0 
L 581 0 
L 581 3500 
L 1159 3500 
L 1159 2956 
Q 1366 3272 1645 3428 
Q 1925 3584 2291 3584 
Q 2894 3584 3203 3211 
Q 3513 2838 3513 2113 
z
" transform="scale(0.015625)"/>
       <path id="DejaVuSans-64" d="M 2906 2969 
L 2906 4863 
L 3481 4863 
L 3481 0 
L 2906 0 
L 2906 525 
Q 2725 213 2448 61 
Q 2172 -91 1784 -91 
Q 1150 -91 751 415 
Q 353 922 353 1747 
Q 353 2572 751 3078 
Q 1150 3584 1784 3584 
Q 2172 3584 2448 3432 
Q 2725 3281 2906 2969 
z
M 947 1747 
Q 947 1113 1208 752 
Q 1469 391 1925 391 
Q 2381 391 2643 752 
Q 2906 1113 2906 1747 
Q 2906 2381 2643 2742 
Q 2381 3103 1925 3103 
Q 1469 3103 1208 2742 
Q 947 2381 947 1747 
z
" transform="scale(0.015625)"/>
       <path id="DejaVuSans-73" d="M 2834 3397 
L 2834 2853 
Q 2591 2978 2328 3040 
Q 2066 3103 1784 3103 
Q 1356 3103 1142 2972 
Q 928 2841 928 2578 
Q 928 2378 1081 2264 
Q 1234 2150 1697 2047 
L 1894 2003 
Q 2506 1872 2764 1633 
Q 3022 1394 3022 966 
Q 3022 478 2636 193 
Q 2250 -91 1575 -91 
Q 1294 -91 989 -36 
Q 684 19 347 128 
L 347 722 
Q 666 556 975 473 
Q 1284 391 1588 391 
Q 1994 391 2212 530 
Q 2431 669 2431 922 
Q 2431 1156 2273 1281 
Q 2116 1406 1581 1522 
L 1381 1569 
Q 847 1681 609 1914 
Q 372 2147 372 2553 
Q 372 3047 722 3315 
Q 1072 3584 1716 3584 
Q 2034 3584 2315 3537 
Q 2597 3491 2834 3397 
z
" transform="scale(0.015625)"/>
       <path id="DejaVuSans-68" d="M 3513 2113 
L 3513 0 
L 2938 0 
L 2938 2094 
Q 2938 2591 2744 2837 
Q 2550 3084 2163 3084 
Q 1697 3084 1428 2787 
Q 1159 2491 1159 1978 
L 1159 0 
L 581 0 
L 581 4863 
L 1159 4863 
L 1159 2956 
Q 1366 3272 1645 3428 
Q 1925 3584 2291 3584 
Q 2894 3584 3203 3211 
Q 3513 2838 3513 2113 
z
" transform="scale(0.015625)"/>
       <path id="DejaVuSans-20" transform="scale(0.015625)"/>
       <path id="DejaVuSans-75" d="M 544 1381 
L 544 3500 
L 1119 3500 
L 1119 1403 
Q 1119 906 1312 657 
Q 1506 409 1894 409 
Q 2359 409 2629 706 
Q 2900 1003 2900 1516 
L 2900 3500 
L 3475 3500 
L 3475 0 
L 2900 0 
L 2900 538 
Q 2691 219 2414 64 
Q 2138 -91 1772 -91 
Q 1169 -91 856 284 
Q 544 659 544 1381 
z
M 1991 3584 
L 1991 3584 
z
" transform="scale(0.015625)"/>
       <path id="DejaVuSans-72" d="M 2631 2963 
Q 2534 3019 2420 3045 
Q 2306 3072 2169 3072 
Q 1681 3072 1420 2755 
Q 1159 2438 1159 1844 
L 1159 0 
L 581 0 
L 581 3500 
L 1159 3500 
L 1159 2956 
Q 1341 3275 1631 3429 
Q 1922 3584 2338 3584 
Q 2397 3584 2469 3576 
Q 2541 3569 2628 3553 
L 2631 2963 
z
" transform="scale(0.015625)"/>
       <path id="DejaVuSans-74" d="M 1172 4494 
L 1172 3500 
L 2356 3500 
L 2356 3053 
L 1172 3053 
L 1172 1153 
Q 1172 725 1289 603 
Q 1406 481 1766 481 
L 2356 481 
L 2356 0 
L 1766 0 
Q 1100 0 847 248 
Q 594 497 594 1153 
L 594 3053 
L 172 3053 
L 172 3500 
L 594 3500 
L 594 4494 
L 1172 4494 
z
" transform="scale(0.015625)"/>
       <path id="DejaVuSans-69" d="M 603 3500 
L 1178 3500 
L 1178 0 
L 603 0 
L 603 3500 
z
M 603 4863 
L 1178 4863 
L 1178 4134 
L 603 4134 
L 603 4863 
z
" transform="scale(0.015625)"/>
       <path id="DejaVuSans-6f" d="M 1959 3097 
Q 1497 3097 1228 2736 
Q 959 2375 959 1747 
Q 959 1119 1226 758 
Q 1494 397 1959 397 
Q 2419 397 2687 759 
Q 2956 1122 2956 1747 
Q 2956 2369 2687 2733 
Q 2419 3097 1959 3097 
z
M 1959 3584 
Q 2709 3584 3137 3096 
Q 3566 2609 3566 1747 
Q 3566 888 3137 398 
Q 2709 -91 1959 -91 
Q 1206 -91 779 398 
Q 353 888 353 1747 
Q 353 2609 779 3096 
Q 1206 3584 1959 3584 
z
" transform="scale(0.015625)"/>
       <path id="DejaVuSans-28" d="M 1984 4856 
Q 1566 4138 1362 3434 
Q 1159 2731 1159 2009 
Q 1159 1288 1364 580 
Q 1569 -128 1984 -844 
L 1484 -844 
Q 1016 -109 783 600 
Q 550 1309 550 2009 
Q 550 2706 781 3412 
Q 1013 4119 1484 4856 
L 1984 4856 
z
" transform="scale(0.015625)"/>
       <path id="DejaVuSans-29" d="M 513 4856 
L 1013 4856 
Q 1481 4119 1714 3412 
Q 1947 2706 1947 2009 
Q 1947 1309 1714 600 
Q 1481 -109 1013 -844 
L 513 -844 
Q 928 -128 1133 580 
Q 1338 1288 1338 2009 
Q 1338 2731 1133 3434 
Q 928 4138 513 4856 
z
" transform="scale(0.015625)"/>
      </defs>
      <use xlink:href="#DejaVuSans-48"/>
      <use xlink:href="#DejaVuSans-61" x="75.195312"/>
      <use xlink:href="#DejaVuSans-6e" x="136.474609"/>
      <use xlink:href="#DejaVuSans-64" x="199.853516"/>
      <use xlink:href="#DejaVuSans-73" x="263.330078"/>
      <use xlink:href="#DejaVuSans-68" x="315.429688"/>
      <use xlink:href="#DejaVuSans-61" x="378.808594"/>
      <use xlink:href="#DejaVuSans-6b" x="440.087891"/>
      <use xlink:href="#DejaVuSans-65" x="494.373047"/>
      <use xlink:href="#DejaVuSans-20" x="555.896484"/>
      <use xlink:href="#DejaVuSans-64" x="587.683594"/>
      <use xlink:href="#DejaVuSans-75" x="651.160156"/>
      <use xlink:href="#DejaVuSans-72" x="714.539062"/>
      <use xlink:href="#DejaVuSans-61" x="755.652344"/>
      <use xlink:href="#DejaVuSans-74" x="816.931641"/>
      <use xlink:href="#DejaVuSans-69" x="856.140625"/>
      <use xlink:href="#DejaVuSans-6f" x="883.923828"/>
      <use xlink:href="#DejaVuSans-6e" x="945.105469"/>
      <use xlink:href="#DejaVuSans-20" x="1008.484375"/>
      <use xlink:href="#DejaVuSans-28" x="1040.271484"/>
      <use xlink:href="#DejaVuSans-6d" x="1079.285156"/>
      <use xlink:href="#DejaVuSans-73" x="1176.697266"/>
      <use xlink:href="#DejaVuSans-29" x="1228.796875"/>
     </g>
    </g>
   </g>
   <g id="PolyCollection_1">
    <defs>
     <path id="m4fa30a1432" d="M 131.798891 -53.566364 
L 130.749109 -53.566364 
L 129.864734 -55.864454 
L 128.207116 -58.162545 
L 125.803657 -60.460636 
L 123.136159 -62.758726 
L 120.914664 -65.056817 
L 119.600053 -67.354908 
L 119.178684 -69.652999 
L 119.35483 -71.951089 
L 119.832317 -74.24918 
L 120.429543 -76.547271 
L 121.073696 -78.845361 
L 121.729405 -81.143452 
L 122.236822 -83.441543 
L 122.138382 -85.739633 
L 120.645543 -88.037724 
L 116.755456 -90.335815 
L 109.498568 -92.633906 
L 98.560275 -94.931996 
L 85.343437 -97.230087 
L 73.460939 -99.528178 
L 67.2948 -101.826268 
L 69.215981 -104.124359 
L 78.056972 -106.42245 
L 90.250546 -108.72054 
L 102.222392 -111.018631 
L 111.911391 -113.316722 
L 118.828509 -115.614813 
L 123.377374 -117.912903 
L 126.209065 -120.210994 
L 127.894179 -122.509085 
L 128.85901 -124.807175 
L 129.427221 -127.105266 
L 129.838348 -129.403357 
L 130.22207 -131.701447 
L 130.5917 -133.999538 
L 130.897658 -136.297629 
L 131.101599 -138.59572 
L 131.20933 -140.89381 
L 131.254314 -143.191901 
L 131.269166 -145.489992 
L 131.273047 -147.788082 
L 131.273849 -150.086173 
L 131.273981 -152.384264 
L 131.273998 -154.682354 
L 131.274 -156.980445 
L 131.274 -159.278536 
L 131.274 -161.576627 
L 131.274 -163.874717 
L 131.274 -166.172808 
L 131.274 -168.470899 
L 131.274 -170.768989 
L 131.274 -173.06708 
L 131.274 -175.365171 
L 131.274 -177.663261 
L 131.274 -179.961352 
L 131.274 -182.259443 
L 131.274 -184.557534 
L 131.274 -186.855624 
L 131.274 -189.153715 
L 131.274 -191.451806 
L 131.274 -193.749896 
L 131.274 -196.047987 
L 131.274 -198.346078 
L 131.274 -200.644168 
L 131.274 -202.942259 
L 131.274 -205.24035 
L 131.274 -207.538441 
L 131.274 -209.836531 
L 131.274 -212.134622 
L 131.274 -214.432713 
L 131.274 -216.730803 
L 131.274 -219.028894 
L 131.274 -221.326985 
L 131.274 -223.625075 
L 131.274 -225.923166 
L 131.274 -228.221257 
L 131.274 -230.519348 
L 131.274 -232.817438 
L 131.274 -235.115529 
L 131.274 -237.41362 
L 131.274 -239.71171 
L 131.274 -242.009801 
L 131.274 -244.307892 
L 131.274 -246.605982 
L 131.273997 -248.904073 
L 131.273975 -251.202164 
L 131.273824 -253.500255 
L 131.27302 -255.798345 
L 131.269679 -258.096436 
L 131.258912 -260.394527 
L 131.232281 -262.692617 
L 131.182647 -264.990708 
L 131.115589 -267.288799 
L 131.056468 -269.586889 
L 131.037443 -271.88498 
L 131.070284 -274.183071 
L 131.135072 -276.481162 
L 131.19897 -278.779252 
L 131.241912 -281.077343 
L 131.306088 -281.077343 
L 131.306088 -281.077343 
L 131.34903 -278.779252 
L 131.412928 -276.481162 
L 131.477716 -274.183071 
L 131.510557 -271.88498 
L 131.491532 -269.586889 
L 131.432411 -267.288799 
L 131.365353 -264.990708 
L 131.315719 -262.692617 
L 131.289088 -260.394527 
L 131.278321 -258.096436 
L 131.27498 -255.798345 
L 131.274176 -253.500255 
L 131.274025 -251.202164 
L 131.274003 -248.904073 
L 131.274 -246.605982 
L 131.274 -244.307892 
L 131.274 -242.009801 
L 131.274 -239.71171 
L 131.274 -237.41362 
L 131.274 -235.115529 
L 131.274 -232.817438 
L 131.274 -230.519348 
L 131.274 -228.221257 
L 131.274 -225.923166 
L 131.274 -223.625075 
L 131.274 -221.326985 
L 131.274 -219.028894 
L 131.274 -216.730803 
L 131.274 -214.432713 
L 131.274 -212.134622 
L 131.274 -209.836531 
L 131.274 -207.538441 
L 131.274 -205.24035 
L 131.274 -202.942259 
L 131.274 -200.644168 
L 131.274 -198.346078 
L 131.274 -196.047987 
L 131.274 -193.749896 
L 131.274 -191.451806 
L 131.274 -189.153715 
L 131.274 -186.855624 
L 131.274 -184.557534 
L 131.274 -182.259443 
L 131.274 -179.961352 
L 131.274 -177.663261 
L 131.274 -175.365171 
L 131.274 -173.06708 
L 131.274 -170.768989 
L 131.274 -168.470899 
L 131.274 -166.172808 
L 131.274 -163.874717 
L 131.274 -161.576627 
L 131.274 -159.278536 
L 131.274 -156.980445 
L 131.274002 -154.682354 
L 131.274019 -152.384264 
L 131.274151 -150.086173 
L 131.274953 -147.788082 
L 131.278834 -145.489992 
L 131.293686 -143.191901 
L 131.33867 -140.89381 
L 131.446401 -138.59572 
L 131.650342 -136.297629 
L 131.9563 -133.999538 
L 132.32593 -131.701447 
L 132.709652 -129.403357 
L 133.120779 -127.105266 
L 133.68899 -124.807175 
L 134.653821 -122.509085 
L 136.338935 -120.210994 
L 139.170626 -117.912903 
L 143.719491 -115.614813 
L 150.636609 -113.316722 
L 160.325608 -111.018631 
L 172.297454 -108.72054 
L 184.491028 -106.42245 
L 193.332019 -104.124359 
L 195.2532 -101.826268 
L 189.087061 -99.528178 
L 177.204563 -97.230087 
L 163.987725 -94.931996 
L 153.049432 -92.633906 
L 145.792544 -90.335815 
L 141.902457 -88.037724 
L 140.409618 -85.739633 
L 140.311178 -83.441543 
L 140.818595 -81.143452 
L 141.474304 -78.845361 
L 142.118457 -76.547271 
L 142.715683 -74.24918 
L 143.19317 -71.951089 
L 143.369316 -69.652999 
L 142.947947 -67.354908 
L 141.633336 -65.056817 
L 139.411841 -62.758726 
L 136.744343 -60.460636 
L 134.340884 -58.162545 
L 132.683266 -55.864454 
L 131.798891 -53.566364 
z
" style="stroke: #595959; stroke-width: 1.25"/>
    </defs>
    <g clip-path="url(#pa8944e303c)">
     <use xlink:href="#m4fa30a1432" x="0" y="432" style="fill: #72b6a1; stroke: #595959; stroke-width: 1.25"/>
    </g>
   </g>
   <g id="PolyCollection_2">
    <defs>
     <path id="mc98b386994" d="M 291.712996 -54.029253 
L 290.731004 -54.029253 
L 290.443916 -54.878802 
L 290.036693 -55.72835 
L 289.484595 -56.577899 
L 288.768744 -57.427448 
L 287.880252 -58.276997 
L 286.823164 -59.126545 
L 285.615228 -59.976094 
L 284.286043 -60.825643 
L 282.873073 -61.675192 
L 281.41682 -62.524741 
L 279.956895 -63.374289 
L 278.530332 -64.223838 
L 277.172476 -65.073387 
L 275.919452 -65.922936 
L 274.810274 -66.772485 
L 273.886621 -67.622033 
L 273.189227 -68.471582 
L 272.751415 -69.321131 
L 272.591729 -70.17068 
L 272.708255 -71.020229 
L 273.076771 -71.869777 
L 273.653567 -72.719326 
L 274.382198 -73.568875 
L 275.202295 -74.418424 
L 276.058195 -75.267973 
L 276.905514 -76.117521 
L 277.714644 -76.96707 
L 278.470966 -77.816619 
L 279.172151 -78.666168 
L 279.823216 -79.515717 
L 280.430073 -80.365265 
L 280.992357 -81.214814 
L 281.496399 -82.064363 
L 281.909303 -82.913912 
L 282.175038 -83.763461 
L 282.213287 -84.613009 
L 281.92149 -85.462558 
L 281.180283 -86.312107 
L 279.862433 -87.161656 
L 277.845461 -88.011205 
L 275.028147 -88.860753 
L 271.35063 -89.710302 
L 266.816562 -90.559851 
L 261.513888 -91.4094 
L 255.62893 -92.258948 
L 249.447635 -93.108497 
L 243.339099 -93.958046 
L 237.720108 -94.807595 
L 233.004635 -95.657144 
L 229.547311 -96.506692 
L 227.592844 -97.356241 
L 227.2428 -98.20579 
L 228.447046 -99.055339 
L 231.020828 -99.904888 
L 234.682107 -100.754436 
L 239.099471 -101.603985 
L 243.939844 -102.453534 
L 248.907106 -103.303083 
L 253.766586 -104.152632 
L 258.354525 -105.00218 
L 262.574876 -105.851729 
L 266.387554 -106.701278 
L 269.7926 -107.550827 
L 272.814061 -108.400376 
L 275.486301 -109.249924 
L 277.84427 -110.099473 
L 279.918173 -110.949022 
L 281.732073 -111.798571 
L 283.3053 -112.64812 
L 284.655217 -113.497668 
L 285.799931 -114.347217 
L 286.759934 -115.196766 
L 287.558237 -116.046315 
L 288.219199 -116.895864 
L 288.766605 -117.745412 
L 289.221726 -118.594961 
L 289.601929 -119.44451 
L 289.920144 -120.294059 
L 290.185189 -121.143608 
L 290.402729 -121.993156 
L 290.576554 -122.842705 
L 290.709856 -123.692254 
L 290.806268 -124.541803 
L 290.870499 -125.391351 
L 290.90853 -126.2409 
L 290.927363 -127.090449 
L 290.934438 -127.939998 
L 290.936848 -128.789547 
L 290.940534 -129.639095 
L 290.949659 -130.488644 
L 290.966279 -131.338193 
L 290.990414 -132.187742 
L 291.020446 -133.037291 
L 291.053769 -133.886839 
L 291.087494 -134.736388 
L 291.119054 -135.585937 
L 291.146605 -136.435486 
L 291.169173 -137.285035 
L 291.186594 -138.134583 
L 291.257406 -138.134583 
L 291.257406 -138.134583 
L 291.274827 -137.285035 
L 291.297395 -136.435486 
L 291.324946 -135.585937 
L 291.356506 -134.736388 
L 291.390231 -133.886839 
L 291.423554 -133.037291 
L 291.453586 -132.187742 
L 291.477721 -131.338193 
L 291.494341 -130.488644 
L 291.503466 -129.639095 
L 291.507152 -128.789547 
L 291.509562 -127.939998 
L 291.516637 -127.090449 
L 291.53547 -126.2409 
L 291.573501 -125.391351 
L 291.637732 -124.541803 
L 291.734144 -123.692254 
L 291.867446 -122.842705 
L 292.041271 -121.993156 
L 292.258811 -121.143608 
L 292.523856 -120.294059 
L 292.842071 -119.44451 
L 293.222274 -118.594961 
L 293.677395 -117.745412 
L 294.224801 -116.895864 
L 294.885763 -116.046315 
L 295.684066 -115.196766 
L 296.644069 -114.347217 
L 297.788783 -113.497668 
L 299.1387 -112.64812 
L 300.711927 -111.798571 
L 302.525827 -110.949022 
L 304.59973 -110.099473 
L 306.957699 -109.249924 
L 309.629939 -108.400376 
L 312.6514 -107.550827 
L 316.056446 -106.701278 
L 319.869124 -105.851729 
L 324.089475 -105.00218 
L 328.677414 -104.152632 
L 333.536894 -103.303083 
L 338.504156 -102.453534 
L 343.344529 -101.603985 
L 347.761893 -100.754436 
L 351.423172 -99.904888 
L 353.996954 -99.055339 
L 355.2012 -98.20579 
L 354.851156 -97.356241 
L 352.896689 -96.506692 
L 349.439365 -95.657144 
L 344.723892 -94.807595 
L 339.104901 -93.958046 
L 332.996365 -93.108497 
L 326.81507 -92.258948 
L 320.930112 -91.4094 
L 315.627438 -90.559851 
L 311.09337 -89.710302 
L 307.415853 -88.860753 
L 304.598539 -88.011205 
L 302.581567 -87.161656 
L 301.263717 -86.312107 
L 300.52251 -85.462558 
L 300.230713 -84.613009 
L 300.268962 -83.763461 
L 300.534697 -82.913912 
L 300.947601 -82.064363 
L 301.451643 -81.214814 
L 302.013927 -80.365265 
L 302.620784 -79.515717 
L 303.271849 -78.666168 
L 303.973034 -77.816619 
L 304.729356 -76.96707 
L 305.538486 -76.117521 
L 306.385805 -75.267973 
L 307.241705 -74.418424 
L 308.061802 -73.568875 
L 308.790433 -72.719326 
L 309.367229 -71.869777 
L 309.735745 -71.020229 
L 309.852271 -70.17068 
L 309.692585 -69.321131 
L 309.254773 -68.471582 
L 308.557379 -67.622033 
L 307.633726 -66.772485 
L 306.524548 -65.922936 
L 305.271524 -65.073387 
L 303.913668 -64.223838 
L 302.487105 -63.374289 
L 301.02718 -62.524741 
L 299.570927 -61.675192 
L 298.157957 -60.825643 
L 296.828772 -59.976094 
L 295.620836 -59.126545 
L 294.563748 -58.276997 
L 293.675256 -57.427448 
L 292.959405 -56.577899 
L 292.407307 -55.72835 
L 292.000084 -54.878802 
L 291.712996 -54.029253 
z
" style="stroke: #595959; stroke-width: 1.25"/>
    </defs>
    <g clip-path="url(#pa8944e303c)">
     <use xlink:href="#mc98b386994" x="0" y="432" style="fill: #e99675; stroke: #595959; stroke-width: 1.25"/>
    </g>
   </g>
   <g id="PolyCollection_3">
    <defs>
     <path id="mff1108e4ac" d="M 451.296417 -122.095514 
L 451.043583 -122.095514 
L 450.95469 -124.778323 
L 450.818244 -127.461132 
L 450.618265 -130.143942 
L 450.338431 -132.826751 
L 449.964736 -135.50956 
L 449.488952 -138.192369 
L 448.912394 -140.875179 
L 448.249204 -143.557988 
L 447.528144 -146.240797 
L 446.791966 -148.923607 
L 446.093753 -151.606416 
L 445.490345 -154.289225 
L 445.033836 -156.972035 
L 444.762889 -159.654844 
L 444.696014 -162.337653 
L 444.828624 -165.020463 
L 445.13475 -167.703272 
L 445.57294 -170.386081 
L 446.094595 -173.068891 
L 446.652294 -175.7517 
L 447.205852 -178.434509 
L 447.724768 -181.117319 
L 448.187164 -183.800128 
L 448.576557 -186.482937 
L 448.878503 -189.165747 
L 449.07898 -191.848556 
L 449.165506 -194.531365 
L 449.130693 -197.214175 
L 448.976836 -199.896984 
L 448.719499 -202.579793 
L 448.388336 -205.262603 
L 448.024228 -207.945412 
L 447.673195 -210.628221 
L 447.378698 -213.31103 
L 447.174535 -215.99384 
L 447.080277 -218.676649 
L 447.100173 -221.359458 
L 447.225203 -224.042268 
L 447.436936 -226.725077 
L 447.711519 -229.407886 
L 448.022392 -232.090696 
L 448.340993 -234.773505 
L 448.635279 -237.456314 
L 448.866178 -240.139124 
L 448.982175 -242.821933 
L 448.912454 -245.504742 
L 448.559757 -248.187552 
L 447.795362 -250.870361 
L 446.460024 -253.55317 
L 444.37536 -256.23598 
L 441.369104 -258.918789 
L 437.314059 -261.601598 
L 432.174981 -264.284408 
L 426.05158 -266.967217 
L 419.202233 -269.650026 
L 412.034458 -272.332836 
L 405.056011 -275.015645 
L 398.792798 -277.698454 
L 393.692581 -280.381264 
L 390.041052 -283.064073 
L 387.91554 -285.746882 
L 387.1908 -288.429691 
L 387.594863 -291.112501 
L 388.796833 -293.79531 
L 390.498973 -296.478119 
L 392.50557 -299.160929 
L 394.75044 -301.843738 
L 397.279522 -304.526547 
L 400.199442 -307.209357 
L 403.612355 -309.892166 
L 407.559259 -312.574975 
L 411.988445 -315.257785 
L 416.755653 -317.940594 
L 421.651638 -320.623403 
L 426.445102 -323.306213 
L 430.926309 -325.989022 
L 434.939343 -328.671831 
L 438.39679 -331.354641 
L 441.277229 -334.03745 
L 443.610624 -336.720259 
L 445.458656 -339.403069 
L 446.896197 -342.085878 
L 447.997717 -344.768687 
L 448.829736 -347.451497 
L 449.44835 -350.134306 
L 449.899924 -352.817115 
L 450.222998 -355.499925 
L 450.450029 -358.182734 
L 450.608343 -360.865543 
L 450.720322 -363.548352 
L 450.803226 -366.231162 
L 450.869142 -368.913971 
L 450.92538 -371.59678 
L 450.975394 -374.27959 
L 451.020038 -376.962399 
L 451.058862 -379.645208 
L 451.091168 -382.328018 
L 451.11665 -385.010827 
L 451.135623 -387.693636 
L 451.204377 -387.693636 
L 451.204377 -387.693636 
L 451.22335 -385.010827 
L 451.248832 -382.328018 
L 451.281138 -379.645208 
L 451.319962 -376.962399 
L 451.364606 -374.27959 
L 451.41462 -371.59678 
L 451.470858 -368.913971 
L 451.536774 -366.231162 
L 451.619678 -363.548352 
L 451.731657 -360.865543 
L 451.889971 -358.182734 
L 452.117002 -355.499925 
L 452.440076 -352.817115 
L 452.89165 -350.134306 
L 453.510264 -347.451497 
L 454.342283 -344.768687 
L 455.443803 -342.085878 
L 456.881344 -339.403069 
L 458.729376 -336.720259 
L 461.062771 -334.03745 
L 463.94321 -331.354641 
L 467.400657 -328.671831 
L 471.413691 -325.989022 
L 475.894898 -323.306213 
L 480.688362 -320.623403 
L 485.584347 -317.940594 
L 490.351555 -315.257785 
L 494.780741 -312.574975 
L 498.727645 -309.892166 
L 502.140558 -307.209357 
L 505.060478 -304.526547 
L 507.58956 -301.843738 
L 509.83443 -299.160929 
L 511.841027 -296.478119 
L 513.543167 -293.79531 
L 514.745137 -291.112501 
L 515.1492 -288.429691 
L 514.42446 -285.746882 
L 512.298948 -283.064073 
L 508.647419 -280.381264 
L 503.547202 -277.698454 
L 497.283989 -275.015645 
L 490.305542 -272.332836 
L 483.137767 -269.650026 
L 476.28842 -266.967217 
L 470.165019 -264.284408 
L 465.025941 -261.601598 
L 460.970896 -258.918789 
L 457.96464 -256.23598 
L 455.879976 -253.55317 
L 454.544638 -250.870361 
L 453.780243 -248.187552 
L 453.427546 -245.504742 
L 453.357825 -242.821933 
L 453.473822 -240.139124 
L 453.704721 -237.456314 
L 453.999007 -234.773505 
L 454.317608 -232.090696 
L 454.628481 -229.407886 
L 454.903064 -226.725077 
L 455.114797 -224.042268 
L 455.239827 -221.359458 
L 455.259723 -218.676649 
L 455.165465 -215.99384 
L 454.961302 -213.31103 
L 454.666805 -210.628221 
L 454.315772 -207.945412 
L 453.951664 -205.262603 
L 453.620501 -202.579793 
L 453.363164 -199.896984 
L 453.209307 -197.214175 
L 453.174494 -194.531365 
L 453.26102 -191.848556 
L 453.461497 -189.165747 
L 453.763443 -186.482937 
L 454.152836 -183.800128 
L 454.615232 -181.117319 
L 455.134148 -178.434509 
L 455.687706 -175.7517 
L 456.245405 -173.068891 
L 456.76706 -170.386081 
L 457.20525 -167.703272 
L 457.511376 -165.020463 
L 457.643986 -162.337653 
L 457.577111 -159.654844 
L 457.306164 -156.972035 
L 456.849655 -154.289225 
L 456.246247 -151.606416 
L 455.548034 -148.923607 
L 454.811856 -146.240797 
L 454.090796 -143.557988 
L 453.427606 -140.875179 
L 452.851048 -138.192369 
L 452.375264 -135.50956 
L 452.001569 -132.826751 
L 451.721735 -130.143942 
L 451.521756 -127.461132 
L 451.38531 -124.778323 
L 451.296417 -122.095514 
z
" style="stroke: #595959; stroke-width: 1.25"/>
    </defs>
    <g clip-path="url(#pa8944e303c)">
     <use xlink:href="#mff1108e4ac" x="0" y="432" style="fill: #95a3c3; stroke: #595959; stroke-width: 1.25"/>
    </g>
   </g>
   <g id="PolyCollection_4">
    <defs>
     <path id="m139e3385b4" d="M 611.351308 -58.688317 
L 610.884692 -58.688317 
L 610.747816 -59.557483 
L 610.551057 -60.426648 
L 610.279382 -61.295813 
L 609.919023 -62.164978 
L 609.459722 -63.034143 
L 608.896989 -63.903308 
L 608.233892 -64.772473 
L 607.481859 -65.641638 
L 606.660216 -66.510804 
L 605.794451 -67.379969 
L 604.913576 -68.249134 
L 604.047172 -69.118299 
L 603.222791 -69.987464 
L 602.464171 -70.856629 
L 601.790392 -71.725794 
L 601.215745 -72.594959 
L 600.749907 -73.464125 
L 600.398033 -74.33329 
L 600.160647 -75.202455 
L 600.033506 -76.07162 
L 600.007827 -76.940785 
L 600.071189 -77.80995 
L 600.209173 -78.679115 
L 600.407393 -79.54828 
L 600.653321 -80.417446 
L 600.937252 -81.286611 
L 601.252073 -82.155776 
L 601.59196 -83.024941 
L 601.950549 -83.894106 
L 602.319391 -84.763271 
L 602.687362 -85.632436 
L 603.041341 -86.501601 
L 603.367955 -87.370767 
L 603.655793 -88.239932 
L 603.897312 -89.109097 
L 604.089765 -89.978262 
L 604.234779 -90.847427 
L 604.336557 -91.716592 
L 604.398986 -92.585757 
L 604.422061 -93.454922 
L 604.398061 -94.324088 
L 604.30782 -95.193253 
L 604.117391 -96.062418 
L 603.775434 -96.931583 
L 603.211778 -97.800748 
L 602.337911 -98.669913 
L 601.050398 -99.539078 
L 599.238358 -100.408243 
L 596.795817 -101.277409 
L 593.638934 -102.146574 
L 589.72665 -103.015739 
L 585.08157 -103.884904 
L 579.806448 -104.754069 
L 574.091135 -105.623234 
L 568.205874 -106.492399 
L 562.479464 -107.361565 
L 557.264465 -108.23073 
L 552.895222 -109.099895 
L 549.64678 -109.96906 
L 547.702853 -110.838225 
L 547.1388 -111.70739 
L 547.921778 -112.576555 
L 549.926122 -113.44572 
L 552.958921 -114.314886 
L 556.789462 -115.184051 
L 561.176804 -116.053216 
L 565.891634 -116.922381 
L 570.730868 -117.791546 
L 575.525367 -118.660711 
L 580.142254 -119.529876 
L 584.483578 -120.399041 
L 588.482859 -121.268207 
L 592.100562 -122.137372 
L 595.319189 -123.006537 
L 598.138452 -123.875702 
L 600.570849 -124.744867 
L 602.637906 -125.614032 
L 604.367197 -126.483197 
L 605.790138 -127.352362 
L 606.940409 -128.221528 
L 607.852816 -129.090693 
L 608.562358 -129.959858 
L 609.103378 -130.829023 
L 609.508702 -131.698188 
L 609.808759 -132.567353 
L 610.030736 -133.436518 
L 610.197841 -134.305683 
L 610.328775 -135.174849 
L 610.437509 -136.044014 
L 610.533424 -136.913179 
L 610.621834 -137.782344 
L 610.704826 -138.651509 
L 610.782285 -139.520674 
L 610.852936 -140.389839 
L 610.915248 -141.259004 
L 610.968077 -142.12817 
L 611.011002 -142.997335 
L 611.044379 -143.8665 
L 611.069203 -144.735665 
L 611.166797 -144.735665 
L 611.166797 -144.735665 
L 611.191621 -143.8665 
L 611.224998 -142.997335 
L 611.267923 -142.12817 
L 611.320752 -141.259004 
L 611.383064 -140.389839 
L 611.453715 -139.520674 
L 611.531174 -138.651509 
L 611.614166 -137.782344 
L 611.702576 -136.913179 
L 611.798491 -136.044014 
L 611.907225 -135.174849 
L 612.038159 -134.305683 
L 612.205264 -133.436518 
L 612.427241 -132.567353 
L 612.727298 -131.698188 
L 613.132622 -130.829023 
L 613.673642 -129.959858 
L 614.383184 -129.090693 
L 615.295591 -128.221528 
L 616.445862 -127.352362 
L 617.868803 -126.483197 
L 619.598094 -125.614032 
L 621.665151 -124.744867 
L 624.097548 -123.875702 
L 626.916811 -123.006537 
L 630.135438 -122.137372 
L 633.753141 -121.268207 
L 637.752422 -120.399041 
L 642.093746 -119.529876 
L 646.710633 -118.660711 
L 651.505132 -117.791546 
L 656.344366 -116.922381 
L 661.059196 -116.053216 
L 665.446538 -115.184051 
L 669.277079 -114.314886 
L 672.309878 -113.44572 
L 674.314222 -112.576555 
L 675.0972 -111.70739 
L 674.533147 -110.838225 
L 672.58922 -109.96906 
L 669.340778 -109.099895 
L 664.971535 -108.23073 
L 659.756536 -107.361565 
L 654.030126 -106.492399 
L 648.144865 -105.623234 
L 642.429552 -104.754069 
L 637.15443 -103.884904 
L 632.50935 -103.015739 
L 628.597066 -102.146574 
L 625.440183 -101.277409 
L 622.997642 -100.408243 
L 621.185602 -99.539078 
L 619.898089 -98.669913 
L 619.024222 -97.800748 
L 618.460566 -96.931583 
L 618.118609 -96.062418 
L 617.92818 -95.193253 
L 617.837939 -94.324088 
L 617.813939 -93.454922 
L 617.837014 -92.585757 
L 617.899443 -91.716592 
L 618.001221 -90.847427 
L 618.146235 -89.978262 
L 618.338688 -89.109097 
L 618.580207 -88.239932 
L 618.868045 -87.370767 
L 619.194659 -86.501601 
L 619.548638 -85.632436 
L 619.916609 -84.763271 
L 620.285451 -83.894106 
L 620.64404 -83.024941 
L 620.983927 -82.155776 
L 621.298748 -81.286611 
L 621.582679 -80.417446 
L 621.828607 -79.54828 
L 622.026827 -78.679115 
L 622.164811 -77.80995 
L 622.228173 -76.940785 
L 622.202494 -76.07162 
L 622.075353 -75.202455 
L 621.837967 -74.33329 
L 621.486093 -73.464125 
L 621.020255 -72.594959 
L 620.445608 -71.725794 
L 619.771829 -70.856629 
L 619.013209 -69.987464 
L 618.188828 -69.118299 
L 617.322424 -68.249134 
L 616.441549 -67.379969 
L 615.575784 -66.510804 
L 614.754141 -65.641638 
L 614.002108 -64.772473 
L 613.339011 -63.903308 
L 612.776278 -63.034143 
L 612.316977 -62.164978 
L 611.956618 -61.295813 
L 611.684943 -60.426648 
L 611.488184 -59.557483 
L 611.351308 -58.688317 
z
" style="stroke: #595959; stroke-width: 1.25"/>
    </defs>
    <g clip-path="url(#pa8944e303c)">
     <use xlink:href="#m139e3385b4" x="0" y="432" style="fill: #db96c0; stroke: #595959; stroke-width: 1.25"/>
    </g>
   </g>
   <g id="PolyCollection_5">
    <defs>
     <path id="m3e11b08544" d="M 771.286424 -55.613261 
L 770.845576 -55.613261 
L 770.706156 -56.417296 
L 770.504921 -57.221331 
L 770.229767 -58.025366 
L 769.873442 -58.829402 
L 769.436346 -59.633437 
L 768.928007 -60.437472 
L 768.366266 -61.241507 
L 767.773793 -62.045542 
L 767.172631 -62.849577 
L 766.578487 -63.653612 
L 765.997066 -64.457647 
L 765.42427 -65.261682 
L 764.850753 -66.065717 
L 764.269357 -66.869753 
L 763.682503 -67.673788 
L 763.106242 -68.477823 
L 762.568862 -69.281858 
L 762.104159 -70.085893 
L 761.741772 -70.889928 
L 761.49829 -71.693963 
L 761.372495 -72.497998 
L 761.346385 -73.302033 
L 761.391298 -74.106068 
L 761.476522 -74.910103 
L 761.577066 -75.714139 
L 761.677894 -76.518174 
L 761.773498 -77.322209 
L 761.863578 -78.126244 
L 761.94701 -78.930279 
L 762.01676 -79.734314 
L 762.057857 -80.538349 
L 762.049076 -81.342384 
L 761.967425 -82.146419 
L 761.793237 -82.950454 
L 761.513519 -83.75449 
L 761.121968 -84.558525 
L 760.615593 -85.36256 
L 759.989174 -86.166595 
L 759.229302 -86.97063 
L 758.309254 -87.774665 
L 757.185045 -88.5787 
L 755.792635 -89.382735 
L 754.047014 -90.18677 
L 751.845598 -90.990805 
L 749.079557 -91.794841 
L 745.655901 -92.598876 
L 741.529413 -93.402911 
L 736.737902 -94.206946 
L 731.429363 -95.010981 
L 725.868579 -95.815016 
L 720.415278 -96.619051 
L 715.47502 -97.423086 
L 711.434046 -98.227121 
L 708.595686 -99.031156 
L 707.135663 -99.835192 
L 707.0868 -100.639227 
L 708.353498 -101.443262 
L 710.74736 -102.247297 
L 714.030919 -103.051332 
L 717.957403 -103.855367 
L 722.299086 -104.659402 
L 726.86225 -105.463437 
L 731.490829 -106.267472 
L 736.062542 -107.071507 
L 740.481412 -107.875542 
L 744.66979 -108.679578 
L 748.562217 -109.483613 
L 752.102609 -110.287648 
L 755.245263 -111.091683 
L 757.958899 -111.895718 
L 760.23182 -112.699753 
L 762.075631 -113.503788 
L 763.52543 -114.307823 
L 764.635568 -115.111858 
L 765.471805 -115.915893 
L 766.101911 -116.719929 
L 766.587235 -117.523964 
L 766.977197 -118.327999 
L 767.307468 -119.132034 
L 767.601358 -119.936069 
L 767.873023 -120.740104 
L 768.130968 -121.544139 
L 768.380698 -122.348174 
L 768.626071 -123.152209 
L 768.869578 -123.956244 
L 769.112093 -124.76028 
L 769.352663 -125.564315 
L 769.588632 -126.36835 
L 769.81613 -127.172385 
L 770.030765 -127.97642 
L 770.228301 -128.780455 
L 770.405209 -129.58449 
L 770.559032 -130.388525 
L 770.688588 -131.19256 
L 770.794018 -131.996595 
L 770.876701 -132.800631 
L 770.939034 -133.604666 
L 770.984101 -134.408701 
L 771.015285 -135.212736 
L 771.116715 -135.212736 
L 771.116715 -135.212736 
L 771.147899 -134.408701 
L 771.192966 -133.604666 
L 771.255299 -132.800631 
L 771.337982 -131.996595 
L 771.443412 -131.19256 
L 771.572968 -130.388525 
L 771.726791 -129.58449 
L 771.903699 -128.780455 
L 772.101235 -127.97642 
L 772.31587 -127.172385 
L 772.543368 -126.36835 
L 772.779337 -125.564315 
L 773.019907 -124.76028 
L 773.262422 -123.956244 
L 773.505929 -123.152209 
L 773.751302 -122.348174 
L 774.001032 -121.544139 
L 774.258977 -120.740104 
L 774.530642 -119.936069 
L 774.824532 -119.132034 
L 775.154803 -118.327999 
L 775.544765 -117.523964 
L 776.030089 -116.719929 
L 776.660195 -115.915893 
L 777.496432 -115.111858 
L 778.60657 -114.307823 
L 780.056369 -113.503788 
L 781.90018 -112.699753 
L 784.173101 -111.895718 
L 786.886737 -111.091683 
L 790.029391 -110.287648 
L 793.569783 -109.483613 
L 797.46221 -108.679578 
L 801.650588 -107.875542 
L 806.069458 -107.071507 
L 810.641171 -106.267472 
L 815.26975 -105.463437 
L 819.832914 -104.659402 
L 824.174597 -103.855367 
L 828.101081 -103.051332 
L 831.38464 -102.247297 
L 833.778502 -101.443262 
L 835.0452 -100.639227 
L 834.996337 -99.835192 
L 833.536314 -99.031156 
L 830.697954 -98.227121 
L 826.65698 -97.423086 
L 821.716722 -96.619051 
L 816.263421 -95.815016 
L 810.702637 -95.010981 
L 805.394098 -94.206946 
L 800.602587 -93.402911 
L 796.476099 -92.598876 
L 793.052443 -91.794841 
L 790.286402 -90.990805 
L 788.084986 -90.18677 
L 786.339365 -89.382735 
L 784.946955 -88.5787 
L 783.822746 -87.774665 
L 782.902698 -86.97063 
L 782.142826 -86.166595 
L 781.516407 -85.36256 
L 781.010032 -84.558525 
L 780.618481 -83.75449 
L 780.338763 -82.950454 
L 780.164575 -82.146419 
L 780.082924 -81.342384 
L 780.074143 -80.538349 
L 780.11524 -79.734314 
L 780.18499 -78.930279 
L 780.268422 -78.126244 
L 780.358502 -77.322209 
L 780.454106 -76.518174 
L 780.554934 -75.714139 
L 780.655478 -74.910103 
L 780.740702 -74.106068 
L 780.785615 -73.302033 
L 780.759505 -72.497998 
L 780.63371 -71.693963 
L 780.390228 -70.889928 
L 780.027841 -70.085893 
L 779.563138 -69.281858 
L 779.025758 -68.477823 
L 778.449497 -67.673788 
L 777.862643 -66.869753 
L 777.281247 -66.065717 
L 776.70773 -65.261682 
L 776.134934 -64.457647 
L 775.553513 -63.653612 
L 774.959369 -62.849577 
L 774.358207 -62.045542 
L 773.765734 -61.241507 
L 773.203993 -60.437472 
L 772.695654 -59.633437 
L 772.258558 -58.829402 
L 771.902233 -58.025366 
L 771.627079 -57.221331 
L 771.425844 -56.417296 
L 771.286424 -55.613261 
z
" style="stroke: #595959; stroke-width: 1.25"/>
    </defs>
    <g clip-path="url(#pa8944e303c)">
     <use xlink:href="#m3e11b08544" x="0" y="432" style="fill: #a2c865; stroke: #595959; stroke-width: 1.25"/>
    </g>
   </g>
   <g id="line2d_8">
    <path d="M 131.274 338.482274 
L 131.274 355.428236 
" clip-path="url(#pa8944e303c)" style="fill: none; stroke: #000000"/>
   </g>
   <g id="line2d_9">
    <path d="M 131.274 327.110641 
L 131.274 312.171437 
" clip-path="url(#pa8944e303c)" style="fill: none; stroke: #000000"/>
   </g>
   <g id="line2d_10">
    <path d="M 125.27595 355.428236 
L 137.27205 355.428236 
" clip-path="url(#pa8944e303c)" style="fill: none; stroke: #000000; stroke-linecap: round"/>
   </g>
   <g id="line2d_11">
    <path d="M 125.27595 312.171437 
L 137.27205 312.171437 
" clip-path="url(#pa8944e303c)" style="fill: none; stroke: #000000; stroke-linecap: round"/>
   </g>
   <g id="line2d_12">
    <path d="M 291.222 349.435832 
L 291.222 369.921494 
" clip-path="url(#pa8944e303c)" style="fill: none; stroke: #000000"/>
   </g>
   <g id="line2d_13">
    <path d="M 291.222 331.765206 
L 291.222 312.05995 
" clip-path="url(#pa8944e303c)" style="fill: none; stroke: #000000"/>
   </g>
   <g id="line2d_14">
    <path d="M 285.22395 369.921494 
L 297.22005 369.921494 
" clip-path="url(#pa8944e303c)" style="fill: none; stroke: #000000; stroke-linecap: round"/>
   </g>
   <g id="line2d_15">
    <path d="M 285.22395 312.05995 
L 297.22005 312.05995 
" clip-path="url(#pa8944e303c)" style="fill: none; stroke: #000000; stroke-linecap: round"/>
   </g>
   <g id="line2d_16">
    <path d="M 451.17 152.076684 
L 451.17 190.316587 
" clip-path="url(#pa8944e303c)" style="fill: none; stroke: #000000"/>
   </g>
   <g id="line2d_17">
    <path d="M 451.17 125.515002 
L 451.17 87.079998 
" clip-path="url(#pa8944e303c)" style="fill: none; stroke: #000000"/>
   </g>
   <g id="line2d_18">
    <path d="M 445.17195 190.316587 
L 457.16805 190.316587 
" clip-path="url(#pa8944e303c)" style="fill: none; stroke: #000000; stroke-linecap: round"/>
   </g>
   <g id="line2d_19">
    <path d="M 445.17195 87.079998 
L 457.16805 87.079998 
" clip-path="url(#pa8944e303c)" style="fill: none; stroke: #000000; stroke-linecap: round"/>
   </g>
   <g id="line2d_20">
    <path d="M 611.118 328.11402 
L 611.118 343.722144 
" clip-path="url(#pa8944e303c)" style="fill: none; stroke: #000000"/>
   </g>
   <g id="line2d_21">
    <path d="M 611.118 317.63428 
L 611.118 302.026157 
" clip-path="url(#pa8944e303c)" style="fill: none; stroke: #000000"/>
   </g>
   <g id="line2d_22">
    <path d="M 605.11995 343.722144 
L 617.11605 343.722144 
" clip-path="url(#pa8944e303c)" style="fill: none; stroke: #000000; stroke-linecap: round"/>
   </g>
   <g id="line2d_23">
    <path d="M 605.11995 302.026157 
L 617.11605 302.026157 
" clip-path="url(#pa8944e303c)" style="fill: none; stroke: #000000; stroke-linecap: round"/>
   </g>
   <g id="line2d_24">
    <path d="M 771.066 339.290551 
L 771.066 355.31675 
" clip-path="url(#pa8944e303c)" style="fill: none; stroke: #000000"/>
   </g>
   <g id="line2d_25">
    <path d="M 771.066 328.559967 
L 771.066 312.840356 
" clip-path="url(#pa8944e303c)" style="fill: none; stroke: #000000"/>
   </g>
   <g id="line2d_26">
    <path d="M 765.06795 355.31675 
L 777.06405 355.31675 
" clip-path="url(#pa8944e303c)" style="fill: none; stroke: #000000; stroke-linecap: round"/>
   </g>
   <g id="line2d_27">
    <path d="M 765.06795 312.840356 
L 777.06405 312.840356 
" clip-path="url(#pa8944e303c)" style="fill: none; stroke: #000000; stroke-linecap: round"/>
   </g>
   <g id="line2d_28">
    <path d="M 119.2779 330.901185 
L 143.2701 330.901185 
" clip-path="url(#pa8944e303c)" style="fill: none; stroke: #ff0000; stroke-width: 2"/>
   </g>
   <g id="line2d_29">
    <path d="M 279.2259 335.416392 
L 303.2181 335.416392 
" clip-path="url(#pa8944e303c)" style="fill: none; stroke: #ff0000; stroke-width: 2"/>
   </g>
   <g id="line2d_30">
    <path d="M 439.1739 142.656067 
L 463.1661 142.656067 
" clip-path="url(#pa8944e303c)" style="fill: none; stroke: #ff0000; stroke-width: 2"/>
   </g>
   <g id="line2d_31">
    <path d="M 599.1219 321.870771 
L 623.1141 321.870771 
" clip-path="url(#pa8944e303c)" style="fill: none; stroke: #ff0000; stroke-width: 2"/>
   </g>
   <g id="line2d_32">
    <path d="M 759.0699 333.01943 
L 783.0621 333.01943 
" clip-path="url(#pa8944e303c)" style="fill: none; stroke: #ff0000; stroke-width: 2"/>
   </g>
   <g id="patch_3">
    <path d="M 51.3 395.14 
L 51.3 27.6 
" style="fill: none; stroke: #cccccc; stroke-width: 1.25; stroke-linejoin: miter; stroke-linecap: square"/>
   </g>
   <g id="patch_4">
    <path d="M 851.04 395.14 
L 851.04 27.6 
" style="fill: none; stroke: #cccccc; stroke-width: 1.25; stroke-linejoin: miter; stroke-linecap: square"/>
   </g>
   <g id="patch_5">
    <path d="M 51.3 395.14 
L 851.04 395.14 
" style="fill: none; stroke: #cccccc; stroke-width: 1.25; stroke-linejoin: miter; stroke-linecap: square"/>
   </g>
   <g id="patch_6">
    <path d="M 51.3 27.6 
L 851.04 27.6 
" style="fill: none; stroke: #cccccc; stroke-width: 1.25; stroke-linejoin: miter; stroke-linecap: square"/>
   </g>
   <g id="text_14">
    <!-- Handshake duration on TLS with ed25519 signature algorithm -->
    <g style="fill: #262626" transform="translate(264.396562 21.6) scale(0.12 -0.12)">
     <defs>
      <path id="DejaVuSans-54" d="M -19 4666 
L 3928 4666 
L 3928 4134 
L 2272 4134 
L 2272 0 
L 1638 0 
L 1638 4134 
L -19 4134 
L -19 4666 
z
" transform="scale(0.015625)"/>
      <path id="DejaVuSans-4c" d="M 628 4666 
L 1259 4666 
L 1259 531 
L 3531 531 
L 3531 0 
L 628 0 
L 628 4666 
z
" transform="scale(0.015625)"/>
      <path id="DejaVuSans-53" d="M 3425 4513 
L 3425 3897 
Q 3066 4069 2747 4153 
Q 2428 4238 2131 4238 
Q 1616 4238 1336 4038 
Q 1056 3838 1056 3469 
Q 1056 3159 1242 3001 
Q 1428 2844 1947 2747 
L 2328 2669 
Q 3034 2534 3370 2195 
Q 3706 1856 3706 1288 
Q 3706 609 3251 259 
Q 2797 -91 1919 -91 
Q 1588 -91 1214 -16 
Q 841 59 441 206 
L 441 856 
Q 825 641 1194 531 
Q 1563 422 1919 422 
Q 2459 422 2753 634 
Q 3047 847 3047 1241 
Q 3047 1584 2836 1778 
Q 2625 1972 2144 2069 
L 1759 2144 
Q 1053 2284 737 2584 
Q 422 2884 422 3419 
Q 422 4038 858 4394 
Q 1294 4750 2059 4750 
Q 2388 4750 2728 4690 
Q 3069 4631 3425 4513 
z
" transform="scale(0.015625)"/>
      <path id="DejaVuSans-77" d="M 269 3500 
L 844 3500 
L 1563 769 
L 2278 3500 
L 2956 3500 
L 3675 769 
L 4391 3500 
L 4966 3500 
L 4050 0 
L 3372 0 
L 2619 2869 
L 1863 0 
L 1184 0 
L 269 3500 
z
" transform="scale(0.015625)"/>
      <path id="DejaVuSans-67" d="M 2906 1791 
Q 2906 2416 2648 2759 
Q 2391 3103 1925 3103 
Q 1463 3103 1205 2759 
Q 947 2416 947 1791 
Q 947 1169 1205 825 
Q 1463 481 1925 481 
Q 2391 481 2648 825 
Q 2906 1169 2906 1791 
z
M 3481 434 
Q 3481 -459 3084 -895 
Q 2688 -1331 1869 -1331 
Q 1566 -1331 1297 -1286 
Q 1028 -1241 775 -1147 
L 775 -588 
Q 1028 -725 1275 -790 
Q 1522 -856 1778 -856 
Q 2344 -856 2625 -561 
Q 2906 -266 2906 331 
L 2906 616 
Q 2728 306 2450 153 
Q 2172 0 1784 0 
Q 1141 0 747 490 
Q 353 981 353 1791 
Q 353 2603 747 3093 
Q 1141 3584 1784 3584 
Q 2172 3584 2450 3431 
Q 2728 3278 2906 2969 
L 2906 3500 
L 3481 3500 
L 3481 434 
z
" transform="scale(0.015625)"/>
     </defs>
     <use xlink:href="#DejaVuSans-48"/>
     <use xlink:href="#DejaVuSans-61" x="75.195312"/>
     <use xlink:href="#DejaVuSans-6e" x="136.474609"/>
     <use xlink:href="#DejaVuSans-64" x="199.853516"/>
     <use xlink:href="#DejaVuSans-73" x="263.330078"/>
     <use xlink:href="#DejaVuSans-68" x="315.429688"/>
     <use xlink:href="#DejaVuSans-61" x="378.808594"/>
     <use xlink:href="#DejaVuSans-6b" x="440.087891"/>
     <use xlink:href="#DejaVuSans-65" x="494.373047"/>
     <use xlink:href="#DejaVuSans-20" x="555.896484"/>
     <use xlink:href="#DejaVuSans-64" x="587.683594"/>
     <use xlink:href="#DejaVuSans-75" x="651.160156"/>
     <use xlink:href="#DejaVuSans-72" x="714.539062"/>
     <use xlink:href="#DejaVuSans-61" x="755.652344"/>
     <use xlink:href="#DejaVuSans-74" x="816.931641"/>
     <use xlink:href="#DejaVuSans-69" x="856.140625"/>
     <use xlink:href="#DejaVuSans-6f" x="883.923828"/>
     <use xlink:href="#DejaVuSans-6e" x="945.105469"/>
     <use xlink:href="#DejaVuSans-20" x="1008.484375"/>
     <use xlink:href="#DejaVuSans-6f" x="1040.271484"/>
     <use xlink:href="#DejaVuSans-6e" x="1101.453125"/>
     <use xlink:href="#DejaVuSans-20" x="1164.832031"/>
     <use xlink:href="#DejaVuSans-54" x="1196.619141"/>
     <use xlink:href="#DejaVuSans-4c" x="1257.703125"/>
     <use xlink:href="#DejaVuSans-53" x="1313.416016"/>
     <use xlink:href="#DejaVuSans-20" x="1376.892578"/>
     <use xlink:href="#DejaVuSans-77" x="1408.679688"/>
     <use xlink:href="#DejaVuSans-69" x="1490.466797"/>
     <use xlink:href="#DejaVuSans-74" x="1518.25"/>
     <use xlink:href="#DejaVuSans-68" x="1557.458984"/>
     <use xlink:href="#DejaVuSans-20" x="1620.837891"/>
     <use xlink:href="#DejaVuSans-65" x="1652.625"/>
     <use xlink:href="#DejaVuSans-64" x="1714.148438"/>
     <use xlink:href="#DejaVuSans-32" x="1777.625"/>
     <use xlink:href="#DejaVuSans-35" x="1841.248047"/>
     <use xlink:href="#DejaVuSans-35" x="1904.871094"/>
     <use xlink:href="#DejaVuSans-31" x="1968.494141"/>
     <use xlink:href="#DejaVuSans-39" x="2032.117188"/>
     <use xlink:href="#DejaVuSans-20" x="2095.740234"/>
     <use xlink:href="#DejaVuSans-73" x="2127.527344"/>
     <use xlink:href="#DejaVuSans-69" x="2179.626953"/>
     <use xlink:href="#DejaVuSans-67" x="2207.410156"/>
     <use xlink:href="#DejaVuSans-6e" x="2270.886719"/>
     <use xlink:href="#DejaVuSans-61" x="2334.265625"/>
     <use xlink:href="#DejaVuSans-74" x="2395.544922"/>
     <use xlink:href="#DejaVuSans-75" x="2434.753906"/>
     <use xlink:href="#DejaVuSans-72" x="2498.132812"/>
     <use xlink:href="#DejaVuSans-65" x="2536.996094"/>
     <use xlink:href="#DejaVuSans-20" x="2598.519531"/>
     <use xlink:href="#DejaVuSans-61" x="2630.306641"/>
     <use xlink:href="#DejaVuSans-6c" x="2691.585938"/>
     <use xlink:href="#DejaVuSans-67" x="2719.369141"/>
     <use xlink:href="#DejaVuSans-6f" x="2782.845703"/>
     <use xlink:href="#DejaVuSans-72" x="2844.027344"/>
     <use xlink:href="#DejaVuSans-69" x="2885.140625"/>
     <use xlink:href="#DejaVuSans-74" x="2912.923828"/>
     <use xlink:href="#DejaVuSans-68" x="2952.132812"/>
     <use xlink:href="#DejaVuSans-6d" x="3015.511719"/>
    </g>
   </g>
  </g>
 </g>
 <defs>
  <clipPath id="pa8944e303c">
   <rect x="51.3" y="27.6" width="799.74" height="367.54"/>
  </clipPath>
 </defs>
</svg>
