<?xml version="1.0" encoding="utf-8" standalone="no"?>
<!DOCTYPE svg PUBLIC "-//W3C//DTD SVG 1.1//EN"
  "http://www.w3.org/Graphics/SVG/1.1/DTD/svg11.dtd">
<svg xmlns:xlink="http://www.w3.org/1999/xlink" width="864pt" height="432pt" viewBox="0 0 864 432" xmlns="http://www.w3.org/2000/svg" version="1.1">
 <metadata>
  <rdf:RDF xmlns:dc="http://purl.org/dc/elements/1.1/" xmlns:cc="http://creativecommons.org/ns#" xmlns:rdf="http://www.w3.org/1999/02/22-rdf-syntax-ns#">
   <cc:Work>
    <dc:type rdf:resource="http://purl.org/dc/dcmitype/StillImage"/>
    <dc:date>2026-03-07T11:40:12.265881</dc:date>
    <dc:format>image/svg+xml</dc:format>
    <dc:creator>
     <cc:Agent>
      <dc:title>Matplotlib v3.6.3, https://matplotlib.org/</dc:title>
     </cc:Agent>
    </dc:creator>
   </cc:Work>
  </rdf:RDF>
 </metadata>
 <defs>
  <style type="text/css">*{stroke-linejoin: round; stroke-linecap: butt}</style>
 </defs>
 <g id="figure_1">
  <g id="patch_1">
   <path d="M 0 432 
L 864 432 
L 864 0 
L 0 0 
z
" style="fill: #ffffff"/>
  </g>
  <g id="axes_1">
   <g id="patch_2">
    <path d="M 58.32 395.14 
L 851.04 395.14 
L 851.04 27.6 
L 58.32 27.6 
z
" style="fill: #ffffff"/>
   </g>
   <g id="matplotlib.axis_1">
    <g id="xtick_1">
     <g id="text_1">
      <!-- P-521 -->
      <g style="fill: #262626" transform="translate(170.49 415.277812) scale(0.14 -0.14)">
       <defs>
        <path id="DejaVuSans-50" d="M 1259 4147 
L 1259 2394 
L 2053 2394 
Q 2494 2394 2734 2622 
Q 2975 2850 2975 3272 
Q 2975 3691 2734 3919 
Q 2494 4147 2053 4147 
L 1259 4147 
z
M 628 4666 
L 2053 4666 
Q 2838 4666 3239 4311 
Q 3641 3956 3641 3272 
Q 3641 2581 3239 2228 
Q 2838 1875 2053 1875 
L 1259 1875 
L 1259 0 
L 628 0 
L 628 4666 
z
" transform="scale(0.015625)"/>
        <path id="DejaVuSans-2d" d="M 313 2009 
L 1997 2009 
L 1997 1497 
L 313 1497 
L 313 2009 
z
" transform="scale(0.015625)"/>
        <path id="DejaVuSans-35" d="M 691 4666 
L 3169 4666 
L 3169 4134 
L 1269 4134 
L 1269 2991 
Q 1406 3038 1543 3061 
Q 1681 3084 1819 3084 
Q 2600 3084 3056 2656 
Q 3513 2228 3513 1497 
Q 3513 744 3044 326 
Q 2575 -91 1722 -91 
Q 1428 -91 1123 -41 
Q 819 9 494 109 
L 494 744 
Q 775 591 1075 516 
Q 1375 441 1709 441 
Q 2250 441 2565 725 
Q 2881 1009 2881 1497 
Q 2881 1984 2565 2268 
Q 2250 2553 1709 2553 
Q 1456 2553 1204 2497 
Q 953 2441 691 2322 
L 691 4666 
z
" transform="scale(0.015625)"/>
        <path id="DejaVuSans-32" d="M 1228 531 
L 3431 531 
L 3431 0 
L 469 0 
L 469 531 
Q 828 903 1448 1529 
Q 2069 2156 2228 2338 
Q 2531 2678 2651 2914 
Q 2772 3150 2772 3378 
Q 2772 3750 2511 3984 
Q 2250 4219 1831 4219 
Q 1534 4219 1204 4116 
Q 875 4013 500 3803 
L 500 4441 
Q 881 4594 1212 4672 
Q 1544 4750 1819 4750 
Q 2544 4750 2975 4387 
Q 3406 4025 3406 3419 
Q 3406 3131 3298 2873 
Q 3191 2616 2906 2266 
Q 2828 2175 2409 1742 
Q 1991 1309 1228 531 
z
" transform="scale(0.015625)"/>
        <path id="DejaVuSans-31" d="M 794 531 
L 1825 531 
L 1825 4091 
L 703 3866 
L 703 4441 
L 1819 4666 
L 2450 4666 
L 2450 531 
L 3481 531 
L 3481 0 
L 794 0 
L 794 531 
z
" transform="scale(0.015625)"/>
       </defs>
       <use xlink:href="#DejaVuSans-50"/>
       <use xlink:href="#DejaVuSans-2d" x="58.052734"/>
       <use xlink:href="#DejaVuSans-35" x="94.136719"/>
       <use xlink:href="#DejaVuSans-32" x="157.759766"/>
       <use xlink:href="#DejaVuSans-31" x="221.382812"/>
      </g>
     </g>
    </g>
    <g id="xtick_2">
     <g id="text_2">
      <!-- p521_mlkem1024 -->
      <g style="fill: #262626" transform="translate(391.871406 415.277812) scale(0.14 -0.14)">
       <defs>
        <path id="DejaVuSans-70" d="M 1159 525 
L 1159 -1331 
L 581 -1331 
L 581 3500 
L 1159 3500 
L 1159 2969 
Q 1341 3281 1617 3432 
Q 1894 3584 2278 3584 
Q 2916 3584 3314 3078 
Q 3713 2572 3713 1747 
Q 3713 922 3314 415 
Q 2916 -91 2278 -91 
Q 1894 -91 1617 61 
Q 1341 213 1159 525 
z
M 3116 1747 
Q 3116 2381 2855 2742 
Q 2594 3103 2138 3103 
Q 1681 3103 1420 2742 
Q 1159 2381 1159 1747 
Q 1159 1113 1420 752 
Q 1681 391 2138 391 
Q 2594 391 2855 752 
Q 3116 1113 3116 1747 
z
" transform="scale(0.015625)"/>
        <path id="DejaVuSans-5f" d="M 3263 -1063 
L 3263 -1509 
L -63 -1509 
L -63 -1063 
L 3263 -1063 
z
" transform="scale(0.015625)"/>
        <path id="DejaVuSans-6d" d="M 3328 2828 
Q 3544 3216 3844 3400 
Q 4144 3584 4550 3584 
Q 5097 3584 5394 3201 
Q 5691 2819 5691 2113 
L 5691 0 
L 5113 0 
L 5113 2094 
Q 5113 2597 4934 2840 
Q 4756 3084 4391 3084 
Q 3944 3084 3684 2787 
Q 3425 2491 3425 1978 
L 3425 0 
L 2847 0 
L 2847 2094 
Q 2847 2600 2669 2842 
Q 2491 3084 2119 3084 
Q 1678 3084 1418 2786 
Q 1159 2488 1159 1978 
L 1159 0 
L 581 0 
L 581 3500 
L 1159 3500 
L 1159 2956 
Q 1356 3278 1631 3431 
Q 1906 3584 2284 3584 
Q 2666 3584 2933 3390 
Q 3200 3197 3328 2828 
z
" transform="scale(0.015625)"/>
        <path id="DejaVuSans-6c" d="M 603 4863 
L 1178 4863 
L 1178 0 
L 603 0 
L 603 4863 
z
" transform="scale(0.015625)"/>
        <path id="DejaVuSans-6b" d="M 581 4863 
L 1159 4863 
L 1159 1991 
L 2875 3500 
L 3609 3500 
L 1753 1863 
L 3688 0 
L 2938 0 
L 1159 1709 
L 1159 0 
L 581 0 
L 581 4863 
z
" transform="scale(0.015625)"/>
        <path id="DejaVuSans-65" d="M 3597 1894 
L 3597 1613 
L 953 1613 
Q 991 1019 1311 708 
Q 1631 397 2203 397 
Q 2534 397 2845 478 
Q 3156 559 3463 722 
L 3463 178 
Q 3153 47 2828 -22 
Q 2503 -91 2169 -91 
Q 1331 -91 842 396 
Q 353 884 353 1716 
Q 353 2575 817 3079 
Q 1281 3584 2069 3584 
Q 2775 3584 3186 3129 
Q 3597 2675 3597 1894 
z
M 3022 2063 
Q 3016 2534 2758 2815 
Q 2500 3097 2075 3097 
Q 1594 3097 1305 2825 
Q 1016 2553 972 2059 
L 3022 2063 
z
" transform="scale(0.015625)"/>
        <path id="DejaVuSans-30" d="M 2034 4250 
Q 1547 4250 1301 3770 
Q 1056 3291 1056 2328 
Q 1056 1369 1301 889 
Q 1547 409 2034 409 
Q 2525 409 2770 889 
Q 3016 1369 3016 2328 
Q 3016 3291 2770 3770 
Q 2525 4250 2034 4250 
z
M 2034 4750 
Q 2819 4750 3233 4129 
Q 3647 3509 3647 2328 
Q 3647 1150 3233 529 
Q 2819 -91 2034 -91 
Q 1250 -91 836 529 
Q 422 1150 422 2328 
Q 422 3509 836 4129 
Q 1250 4750 2034 4750 
z
" transform="scale(0.015625)"/>
        <path id="DejaVuSans-34" d="M 2419 4116 
L 825 1625 
L 2419 1625 
L 2419 4116 
z
M 2253 4666 
L 3047 4666 
L 3047 1625 
L 3713 1625 
L 3713 1100 
L 3047 1100 
L 3047 0 
L 2419 0 
L 2419 1100 
L 313 1100 
L 313 1709 
L 2253 4666 
z
" transform="scale(0.015625)"/>
       </defs>
       <use xlink:href="#DejaVuSans-70"/>
       <use xlink:href="#DejaVuSans-35" x="63.476562"/>
       <use xlink:href="#DejaVuSans-32" x="127.099609"/>
       <use xlink:href="#DejaVuSans-31" x="190.722656"/>
       <use xlink:href="#DejaVuSans-5f" x="254.345703"/>
       <use xlink:href="#DejaVuSans-6d" x="304.345703"/>
       <use xlink:href="#DejaVuSans-6c" x="401.757812"/>
       <use xlink:href="#DejaVuSans-6b" x="429.541016"/>
       <use xlink:href="#DejaVuSans-65" x="483.826172"/>
       <use xlink:href="#DejaVuSans-6d" x="545.349609"/>
       <use xlink:href="#DejaVuSans-31" x="642.761719"/>
       <use xlink:href="#DejaVuSans-30" x="706.384766"/>
       <use xlink:href="#DejaVuSans-32" x="770.007812"/>
       <use xlink:href="#DejaVuSans-34" x="833.630859"/>
      </g>
     </g>
    </g>
    <g id="xtick_3">
     <g id="text_3">
      <!-- mlkem1024 -->
      <g style="fill: #262626" transform="translate(677.416562 415.277812) scale(0.14 -0.14)">
       <use xlink:href="#DejaVuSans-6d"/>
       <use xlink:href="#DejaVuSans-6c" x="97.412109"/>
       <use xlink:href="#DejaVuSans-6b" x="125.195312"/>
       <use xlink:href="#DejaVuSans-65" x="179.480469"/>
       <use xlink:href="#DejaVuSans-6d" x="241.003906"/>
       <use xlink:href="#DejaVuSans-31" x="338.416016"/>
       <use xlink:href="#DejaVuSans-30" x="402.039062"/>
       <use xlink:href="#DejaVuSans-32" x="465.662109"/>
       <use xlink:href="#DejaVuSans-34" x="529.285156"/>
      </g>
     </g>
    </g>
   </g>
   <g id="matplotlib.axis_2">
    <g id="ytick_1">
     <g id="line2d_1">
      <path d="M 58.32 348.899484 
L 851.04 348.899484 
" clip-path="url(#p7ec594facc)" style="fill: none; stroke: #cccccc; stroke-linecap: round"/>
     </g>
     <g id="text_4">
      <!-- 20 -->
      <g style="fill: #262626" transform="translate(34.8225 353.078624) scale(0.11 -0.11)">
       <use xlink:href="#DejaVuSans-32"/>
       <use xlink:href="#DejaVuSans-30" x="63.623047"/>
      </g>
     </g>
    </g>
    <g id="ytick_2">
     <g id="line2d_2">
      <path d="M 58.32 292.515722 
L 851.04 292.515722 
" clip-path="url(#p7ec594facc)" style="fill: none; stroke: #cccccc; stroke-linecap: round"/>
     </g>
     <g id="text_5">
      <!-- 40 -->
      <g style="fill: #262626" transform="translate(34.8225 296.694863) scale(0.11 -0.11)">
       <use xlink:href="#DejaVuSans-34"/>
       <use xlink:href="#DejaVuSans-30" x="63.623047"/>
      </g>
     </g>
    </g>
    <g id="ytick_3">
     <g id="line2d_3">
      <path d="M 58.32 236.131961 
L 851.04 236.131961 
" clip-path="url(#p7ec594facc)" style="fill: none; stroke: #cccccc; stroke-linecap: round"/>
     </g>
     <g id="text_6">
      <!-- 60 -->
      <g style="fill: #262626" transform="translate(34.8225 240.311102) scale(0.11 -0.11)">
       <defs>
        <path id="DejaVuSans-36" d="M 2113 2584 
Q 1688 2584 1439 2293 
Q 1191 2003 1191 1497 
Q 1191 994 1439 701 
Q 1688 409 2113 409 
Q 2538 409 2786 701 
Q 3034 994 3034 1497 
Q 3034 2003 2786 2293 
Q 2538 2584 2113 2584 
z
M 3366 4563 
L 3366 3988 
Q 3128 4100 2886 4159 
Q 2644 4219 2406 4219 
Q 1781 4219 1451 3797 
Q 1122 3375 1075 2522 
Q 1259 2794 1537 2939 
Q 1816 3084 2150 3084 
Q 2853 3084 3261 2657 
Q 3669 2231 3669 1497 
Q 3669 778 3244 343 
Q 2819 -91 2113 -91 
Q 1303 -91 875 529 
Q 447 1150 447 2328 
Q 447 3434 972 4092 
Q 1497 4750 2381 4750 
Q 2619 4750 2861 4703 
Q 3103 4656 3366 4563 
z
" transform="scale(0.015625)"/>
       </defs>
       <use xlink:href="#DejaVuSans-36"/>
       <use xlink:href="#DejaVuSans-30" x="63.623047"/>
      </g>
     </g>
    </g>
    <g id="ytick_4">
     <g id="line2d_4">
      <path d="M 58.32 179.7482 
L 851.04 179.7482 
" clip-path="url(#p7ec594facc)" style="fill: none; stroke: #cccccc; stroke-linecap: round"/>
     </g>
     <g id="text_7">
      <!-- 80 -->
      <g style="fill: #262626" transform="translate(34.8225 183.92734) scale(0.11 -0.11)">
       <defs>
        <path id="DejaVuSans-38" d="M 2034 2216 
Q 1584 2216 1326 1975 
Q 1069 1734 1069 1313 
Q 1069 891 1326 650 
Q 1584 409 2034 409 
Q 2484 409 2743 651 
Q 3003 894 3003 1313 
Q 3003 1734 2745 1975 
Q 2488 2216 2034 2216 
z
M 1403 2484 
Q 997 2584 770 2862 
Q 544 3141 544 3541 
Q 544 4100 942 4425 
Q 1341 4750 2034 4750 
Q 2731 4750 3128 4425 
Q 3525 4100 3525 3541 
Q 3525 3141 3298 2862 
Q 3072 2584 2669 2484 
Q 3125 2378 3379 2068 
Q 3634 1759 3634 1313 
Q 3634 634 3220 271 
Q 2806 -91 2034 -91 
Q 1263 -91 848 271 
Q 434 634 434 1313 
Q 434 1759 690 2068 
Q 947 2378 1403 2484 
z
M 1172 3481 
Q 1172 3119 1398 2916 
Q 1625 2713 2034 2713 
Q 2441 2713 2670 2916 
Q 2900 3119 2900 3481 
Q 2900 3844 2670 4047 
Q 2441 4250 2034 4250 
Q 1625 4250 1398 4047 
Q 1172 3844 1172 3481 
z
" transform="scale(0.015625)"/>
       </defs>
       <use xlink:href="#DejaVuSans-38"/>
       <use xlink:href="#DejaVuSans-30" x="63.623047"/>
      </g>
     </g>
    </g>
    <g id="ytick_5">
     <g id="line2d_5">
      <path d="M 58.32 123.364438 
L 851.04 123.364438 
" clip-path="url(#p7ec594facc)" style="fill: none; stroke: #cccccc; stroke-linecap: round"/>
     </g>
     <g id="text_8">
      <!-- 100 -->
      <g style="fill: #262626" transform="translate(27.82375 127.543579) scale(0.11 -0.11)">
       <use xlink:href="#DejaVuSans-31"/>
       <use xlink:href="#DejaVuSans-30" x="63.623047"/>
       <use xlink:href="#DejaVuSans-30" x="127.246094"/>
      </g>
     </g>
    </g>
    <g id="ytick_6">
     <g id="line2d_6">
      <path d="M 58.32 66.980677 
L 851.04 66.980677 
" clip-path="url(#p7ec594facc)" style="fill: none; stroke: #cccccc; stroke-linecap: round"/>
     </g>
     <g id="text_9">
      <!-- 120 -->
      <g style="fill: #262626" transform="translate(27.82375 71.159818) scale(0.11 -0.11)">
       <use xlink:href="#DejaVuSans-31"/>
       <use xlink:href="#DejaVuSans-32" x="63.623047"/>
       <use xlink:href="#DejaVuSans-30" x="127.246094"/>
      </g>
     </g>
    </g>
    <g id="text_10">
     <!-- Handshake duration (ms) -->
     <g style="fill: #262626" transform="translate(21.328125 287.437813) rotate(-90) scale(0.12 -0.12)">
      <defs>
       <path id="DejaVuSans-48" d="M 628 4666 
L 1259 4666 
L 1259 2753 
L 3553 2753 
L 3553 4666 
L 4184 4666 
L 4184 0 
L 3553 0 
L 3553 2222 
L 1259 2222 
L 1259 0 
L 628 0 
L 628 4666 
z
" transform="scale(0.015625)"/>
       <path id="DejaVuSans-61" d="M 2194 1759 
Q 1497 1759 1228 1600 
Q 959 1441 959 1056 
Q 959 750 1161 570 
Q 1363 391 1709 391 
Q 2188 391 2477 730 
Q 2766 1069 2766 1631 
L 2766 1759 
L 2194 1759 
z
M 3341 1997 
L 3341 0 
L 2766 0 
L 2766 531 
Q 2569 213 2275 61 
Q 1981 -91 1556 -91 
Q 1019 -91 701 211 
Q 384 513 384 1019 
Q 384 1609 779 1909 
Q 1175 2209 1959 2209 
L 2766 2209 
L 2766 2266 
Q 2766 2663 2505 2880 
Q 2244 3097 1772 3097 
Q 1472 3097 1187 3025 
Q 903 2953 641 2809 
L 641 3341 
Q 956 3463 1253 3523 
Q 1550 3584 1831 3584 
Q 2591 3584 2966 3190 
Q 3341 2797 3341 1997 
z
" transform="scale(0.015625)"/>
       <path id="DejaVuSans-6e" d="M 3513 2113 
L 3513 0 
L 2938 0 
L 2938 2094 
Q 2938 2591 2744 2837 
Q 2550 3084 2163 3084 
Q 1697 3084 1428 2787 
Q 1159 2491 1159 1978 
L 1159 0 
L 581 0 
L 581 3500 
L 1159 3500 
L 1159 2956 
Q 1366 3272 1645 3428 
Q 1925 3584 2291 3584 
Q 2894 3584 3203 3211 
Q 3513 2838 3513 2113 
z
" transform="scale(0.015625)"/>
       <path id="DejaVuSans-64" d="M 2906 2969 
L 2906 4863 
L 3481 4863 
L 3481 0 
L 2906 0 
L 2906 525 
Q 2725 213 2448 61 
Q 2172 -91 1784 -91 
Q 1150 -91 751 415 
Q 353 922 353 1747 
Q 353 2572 751 3078 
Q 1150 3584 1784 3584 
Q 2172 3584 2448 3432 
Q 2725 3281 2906 2969 
z
M 947 1747 
Q 947 1113 1208 752 
Q 1469 391 1925 391 
Q 2381 391 2643 752 
Q 2906 1113 2906 1747 
Q 2906 2381 2643 2742 
Q 2381 3103 1925 3103 
Q 1469 3103 1208 2742 
Q 947 2381 947 1747 
z
" transform="scale(0.015625)"/>
       <path id="DejaVuSans-73" d="M 2834 3397 
L 2834 2853 
Q 2591 2978 2328 3040 
Q 2066 3103 1784 3103 
Q 1356 3103 1142 2972 
Q 928 2841 928 2578 
Q 928 2378 1081 2264 
Q 1234 2150 1697 2047 
L 1894 2003 
Q 2506 1872 2764 1633 
Q 3022 1394 3022 966 
Q 3022 478 2636 193 
Q 2250 -91 1575 -91 
Q 1294 -91 989 -36 
Q 684 19 347 128 
L 347 722 
Q 666 556 975 473 
Q 1284 391 1588 391 
Q 1994 391 2212 530 
Q 2431 669 2431 922 
Q 2431 1156 2273 1281 
Q 2116 1406 1581 1522 
L 1381 1569 
Q 847 1681 609 1914 
Q 372 2147 372 2553 
Q 372 3047 722 3315 
Q 1072 3584 1716 3584 
Q 2034 3584 2315 3537 
Q 2597 3491 2834 3397 
z
" transform="scale(0.015625)"/>
       <path id="DejaVuSans-68" d="M 3513 2113 
L 3513 0 
L 2938 0 
L 2938 2094 
Q 2938 2591 2744 2837 
Q 2550 3084 2163 3084 
Q 1697 3084 1428 2787 
Q 1159 2491 1159 1978 
L 1159 0 
L 581 0 
L 581 4863 
L 1159 4863 
L 1159 2956 
Q 1366 3272 1645 3428 
Q 1925 3584 2291 3584 
Q 2894 3584 3203 3211 
Q 3513 2838 3513 2113 
z
" transform="scale(0.015625)"/>
       <path id="DejaVuSans-20" transform="scale(0.015625)"/>
       <path id="DejaVuSans-75" d="M 544 1381 
L 544 3500 
L 1119 3500 
L 1119 1403 
Q 1119 906 1312 657 
Q 1506 409 1894 409 
Q 2359 409 2629 706 
Q 2900 1003 2900 1516 
L 2900 3500 
L 3475 3500 
L 3475 0 
L 2900 0 
L 2900 538 
Q 2691 219 2414 64 
Q 2138 -91 1772 -91 
Q 1169 -91 856 284 
Q 544 659 544 1381 
z
M 1991 3584 
L 1991 3584 
z
" transform="scale(0.015625)"/>
       <path id="DejaVuSans-72" d="M 2631 2963 
Q 2534 3019 2420 3045 
Q 2306 3072 2169 3072 
Q 1681 3072 1420 2755 
Q 1159 2438 1159 1844 
L 1159 0 
L 581 0 
L 581 3500 
L 1159 3500 
L 1159 2956 
Q 1341 3275 1631 3429 
Q 1922 3584 2338 3584 
Q 2397 3584 2469 3576 
Q 2541 3569 2628 3553 
L 2631 2963 
z
" transform="scale(0.015625)"/>
       <path id="DejaVuSans-74" d="M 1172 4494 
L 1172 3500 
L 2356 3500 
L 2356 3053 
L 1172 3053 
L 1172 1153 
Q 1172 725 1289 603 
Q 1406 481 1766 481 
L 2356 481 
L 2356 0 
L 1766 0 
Q 1100 0 847 248 
Q 594 497 594 1153 
L 594 3053 
L 172 3053 
L 172 3500 
L 594 3500 
L 594 4494 
L 1172 4494 
z
" transform="scale(0.015625)"/>
       <path id="DejaVuSans-69" d="M 603 3500 
L 1178 3500 
L 1178 0 
L 603 0 
L 603 3500 
z
M 603 4863 
L 1178 4863 
L 1178 4134 
L 603 4134 
L 603 4863 
z
" transform="scale(0.015625)"/>
       <path id="DejaVuSans-6f" d="M 1959 3097 
Q 1497 3097 1228 2736 
Q 959 2375 959 1747 
Q 959 1119 1226 758 
Q 1494 397 1959 397 
Q 2419 397 2687 759 
Q 2956 1122 2956 1747 
Q 2956 2369 2687 2733 
Q 2419 3097 1959 3097 
z
M 1959 3584 
Q 2709 3584 3137 3096 
Q 3566 2609 3566 1747 
Q 3566 888 3137 398 
Q 2709 -91 1959 -91 
Q 1206 -91 779 398 
Q 353 888 353 1747 
Q 353 2609 779 3096 
Q 1206 3584 1959 3584 
z
" transform="scale(0.015625)"/>
       <path id="DejaVuSans-28" d="M 1984 4856 
Q 1566 4138 1362 3434 
Q 1159 2731 1159 2009 
Q 1159 1288 1364 580 
Q 1569 -128 1984 -844 
L 1484 -844 
Q 1016 -109 783 600 
Q 550 1309 550 2009 
Q 550 2706 781 3412 
Q 1013 4119 1484 4856 
L 1984 4856 
z
" transform="scale(0.015625)"/>
       <path id="DejaVuSans-29" d="M 513 4856 
L 1013 4856 
Q 1481 4119 1714 3412 
Q 1947 2706 1947 2009 
Q 1947 1309 1714 600 
Q 1481 -109 1013 -844 
L 513 -844 
Q 928 -128 1133 580 
Q 1338 1288 1338 2009 
Q 1338 2731 1133 3434 
Q 928 4138 513 4856 
z
" transform="scale(0.015625)"/>
      </defs>
      <use xlink:href="#DejaVuSans-48"/>
      <use xlink:href="#DejaVuSans-61" x="75.195312"/>
      <use xlink:href="#DejaVuSans-6e" x="136.474609"/>
      <use xlink:href="#DejaVuSans-64" x="199.853516"/>
      <use xlink:href="#DejaVuSans-73" x="263.330078"/>
      <use xlink:href="#DejaVuSans-68" x="315.429688"/>
      <use xlink:href="#DejaVuSans-61" x="378.808594"/>
      <use xlink:href="#DejaVuSans-6b" x="440.087891"/>
      <use xlink:href="#DejaVuSans-65" x="494.373047"/>
      <use xlink:href="#DejaVuSans-20" x="555.896484"/>
      <use xlink:href="#DejaVuSans-64" x="587.683594"/>
      <use xlink:href="#DejaVuSans-75" x="651.160156"/>
      <use xlink:href="#DejaVuSans-72" x="714.539062"/>
      <use xlink:href="#DejaVuSans-61" x="755.652344"/>
      <use xlink:href="#DejaVuSans-74" x="816.931641"/>
      <use xlink:href="#DejaVuSans-69" x="856.140625"/>
      <use xlink:href="#DejaVuSans-6f" x="883.923828"/>
      <use xlink:href="#DejaVuSans-6e" x="945.105469"/>
      <use xlink:href="#DejaVuSans-20" x="1008.484375"/>
      <use xlink:href="#DejaVuSans-28" x="1040.271484"/>
      <use xlink:href="#DejaVuSans-6d" x="1079.285156"/>
      <use xlink:href="#DejaVuSans-73" x="1176.697266"/>
      <use xlink:href="#DejaVuSans-29" x="1228.796875"/>
     </g>
    </g>
   </g>
   <g id="PolyCollection_1">
    <defs>
     <path id="m3664efed6d" d="M 190.774991 -77.298505 
L 190.105009 -77.298505 
L 189.830448 -79.042873 
L 189.398655 -80.787241 
L 188.769097 -82.531609 
L 187.920529 -84.275977 
L 186.867401 -86.020345 
L 185.671191 -87.764713 
L 184.439519 -89.509081 
L 183.309164 -91.253449 
L 182.415634 -92.997816 
L 181.858872 -94.742184 
L 181.677986 -96.486552 
L 181.844995 -98.23092 
L 182.279487 -99.975288 
L 182.876961 -101.719656 
L 183.538455 -103.464024 
L 184.190301 -105.208392 
L 184.78923 -106.95276 
L 185.315513 -108.697128 
L 185.761376 -110.441496 
L 186.121863 -112.185864 
L 186.391786 -113.930232 
L 186.568119 -115.6746 
L 186.65459 -117.418968 
L 186.664933 -119.163336 
L 186.622795 -120.907704 
L 186.558194 -122.652072 
L 186.501831 -124.39644 
L 186.479204 -126.140808 
L 186.506399 -127.885176 
L 186.588785 -129.629544 
L 186.722772 -131.373912 
L 186.899476 -133.11828 
L 187.108232 -134.862648 
L 187.337795 -136.607016 
L 187.573907 -138.351384 
L 187.79325 -140.095752 
L 187.954724 -141.84012 
L 187.989108 -143.584488 
L 187.787837 -145.328856 
L 187.192009 -147.073224 
L 185.985 -148.817592 
L 183.895554 -150.56196 
L 180.620538 -152.306328 
L 175.87382 -154.050696 
L 169.45798 -155.795063 
L 161.34136 -157.539431 
L 151.712389 -159.283799 
L 140.984957 -161.028167 
L 129.746047 -162.772535 
L 118.662424 -164.516903 
L 108.381853 -166.261271 
L 99.46363 -168.005639 
L 92.352857 -169.750007 
L 87.386531 -171.494375 
L 84.804547 -173.238743 
L 84.744 -174.983111 
L 87.214565 -176.727479 
L 92.071105 -178.471847 
L 99.004785 -180.216215 
L 107.564719 -181.960583 
L 117.207087 -183.704951 
L 127.357887 -185.449319 
L 137.473662 -187.193687 
L 147.089369 -188.938055 
L 155.848904 -190.682423 
L 163.518192 -192.426791 
L 169.982867 -194.171159 
L 175.233682 -195.915527 
L 179.343686 -197.659895 
L 182.441844 -199.404263 
L 184.687353 -201.148631 
L 186.247719 -202.892999 
L 187.282088 -204.637367 
L 187.930184 -206.381735 
L 188.30657 -208.126103 
L 188.499667 -209.870471 
L 188.574612 -211.614839 
L 188.578641 -213.359207 
L 188.547275 -215.103575 
L 188.509458 -216.847943 
L 188.490128 -218.59231 
L 188.509679 -220.336678 
L 188.581098 -222.081046 
L 188.706788 -223.825414 
L 188.877424 -225.569782 
L 189.074323 -227.31415 
L 189.275018 -229.058518 
L 189.459967 -230.802886 
L 189.617689 -232.547254 
L 189.746358 -234.291622 
L 189.851649 -236.03599 
L 189.942334 -237.780358 
L 190.025875 -239.524726 
L 190.105832 -241.269094 
L 190.181677 -243.013462 
L 190.250395 -244.75783 
L 190.308659 -246.502198 
L 190.354467 -248.246566 
L 190.38776 -249.990934 
L 190.49224 -249.990934 
L 190.49224 -249.990934 
L 190.525533 -248.246566 
L 190.571341 -246.502198 
L 190.629605 -244.75783 
L 190.698323 -243.013462 
L 190.774168 -241.269094 
L 190.854125 -239.524726 
L 190.937666 -237.780358 
L 191.028351 -236.03599 
L 191.133642 -234.291622 
L 191.262311 -232.547254 
L 191.420033 -230.802886 
L 191.604982 -229.058518 
L 191.805677 -227.31415 
L 192.002576 -225.569782 
L 192.173212 -223.825414 
L 192.298902 -222.081046 
L 192.370321 -220.336678 
L 192.389872 -218.59231 
L 192.370542 -216.847943 
L 192.332725 -215.103575 
L 192.301359 -213.359207 
L 192.305388 -211.614839 
L 192.380333 -209.870471 
L 192.57343 -208.126103 
L 192.949816 -206.381735 
L 193.597912 -204.637367 
L 194.632281 -202.892999 
L 196.192647 -201.148631 
L 198.438156 -199.404263 
L 201.536314 -197.659895 
L 205.646318 -195.915527 
L 210.897133 -194.171159 
L 217.361808 -192.426791 
L 225.031096 -190.682423 
L 233.790631 -188.938055 
L 243.406338 -187.193687 
L 253.522113 -185.449319 
L 263.672913 -183.704951 
L 273.315281 -181.960583 
L 281.875215 -180.216215 
L 288.808895 -178.471847 
L 293.665435 -176.727479 
L 296.136 -174.983111 
L 296.075453 -173.238743 
L 293.493469 -171.494375 
L 288.527143 -169.750007 
L 281.41637 -168.005639 
L 272.498147 -166.261271 
L 262.217576 -164.516903 
L 251.133953 -162.772535 
L 239.895043 -161.028167 
L 229.167611 -159.283799 
L 219.53864 -157.539431 
L 211.42202 -155.795063 
L 205.00618 -154.050696 
L 200.259462 -152.306328 
L 196.984446 -150.56196 
L 194.895 -148.817592 
L 193.687991 -147.073224 
L 193.092163 -145.328856 
L 192.890892 -143.584488 
L 192.925276 -141.84012 
L 193.08675 -140.095752 
L 193.306093 -138.351384 
L 193.542205 -136.607016 
L 193.771768 -134.862648 
L 193.980524 -133.11828 
L 194.157228 -131.373912 
L 194.291215 -129.629544 
L 194.373601 -127.885176 
L 194.400796 -126.140808 
L 194.378169 -124.39644 
L 194.321806 -122.652072 
L 194.257205 -120.907704 
L 194.215067 -119.163336 
L 194.22541 -117.418968 
L 194.311881 -115.6746 
L 194.488214 -113.930232 
L 194.758137 -112.185864 
L 195.118624 -110.441496 
L 195.564487 -108.697128 
L 196.09077 -106.95276 
L 196.689699 -105.208392 
L 197.341545 -103.464024 
L 198.003039 -101.719656 
L 198.600513 -99.975288 
L 199.035005 -98.23092 
L 199.202014 -96.486552 
L 199.021128 -94.742184 
L 198.464366 -92.997816 
L 197.570836 -91.253449 
L 196.440481 -89.509081 
L 195.208809 -87.764713 
L 194.012599 -86.020345 
L 192.959471 -84.275977 
L 192.110903 -82.531609 
L 191.481345 -80.787241 
L 191.049552 -79.042873 
L 190.774991 -77.298505 
z
" style="stroke: #595959; stroke-width: 1.25"/>
    </defs>
    <g clip-path="url(#p7ec594facc)">
     <use xlink:href="#m3664efed6d" x="0" y="432" style="fill: #72b6a1; stroke: #595959; stroke-width: 1.25"/>
    </g>
   </g>
   <g id="PolyCollection_2">
    <defs>
     <path id="m2fb86eef6a" d="M 455.281619 -99.641109 
L 454.078381 -99.641109 
L 453.534443 -102.55073 
L 452.66766 -105.460352 
L 451.416417 -108.369973 
L 449.789225 -111.279595 
L 447.900228 -114.189216 
L 445.974603 -117.098838 
L 444.308364 -120.008459 
L 443.188301 -122.918081 
L 442.80176 -125.827702 
L 443.176497 -128.737324 
L 444.178606 -131.646945 
L 445.567766 -134.556567 
L 447.08154 -137.466188 
L 448.510397 -140.37581 
L 449.735907 -143.285431 
L 450.726621 -146.195053 
L 451.505609 -149.104674 
L 452.1117 -152.014296 
L 452.572628 -154.923917 
L 452.897475 -157.833539 
L 453.084841 -160.74316 
L 453.136806 -163.652782 
L 453.068974 -166.562403 
L 452.912009 -169.472025 
L 452.706082 -172.381646 
L 452.492683 -175.291268 
L 452.306863 -178.200889 
L 452.169723 -181.110511 
L 452.079424 -184.020132 
L 452.000667 -186.929754 
L 451.855 -189.839375 
L 451.51348 -192.748997 
L 450.788684 -195.658618 
L 449.42012 -198.56824 
L 447.053364 -201.477861 
L 443.230814 -204.387483 
L 437.430221 -207.297104 
L 429.186189 -210.206726 
L 418.294506 -213.116347 
L 405.038703 -216.025969 
L 390.329911 -218.93559 
L 375.657829 -221.845211 
L 362.824183 -224.754833 
L 353.533203 -227.664454 
L 348.984 -230.574076 
L 349.607273 -233.483697 
L 355.022213 -236.393319 
L 364.20219 -239.30294 
L 375.771048 -242.212562 
L 388.324649 -245.122183 
L 400.68415 -248.031805 
L 412.028012 -250.941426 
L 421.901568 -253.851048 
L 430.144334 -256.760669 
L 436.789649 -259.670291 
L 441.9782 -262.579912 
L 445.901205 -265.489534 
L 448.768369 -268.399155 
L 450.788891 -271.308777 
L 452.15771 -274.218398 
L 453.045555 -277.12802 
L 453.594088 -280.037641 
L 453.916109 -282.947263 
L 454.098524 -285.856884 
L 454.205374 -288.766506 
L 454.279854 -291.676127 
L 454.346298 -294.585749 
L 454.413604 -297.49537 
L 454.480482 -300.404992 
L 454.541364 -303.314613 
L 454.591152 -306.224235 
L 454.627645 -309.133856 
L 454.651679 -312.043478 
L 454.665949 -314.953099 
L 454.673608 -317.862721 
L 454.677332 -320.772342 
L 454.678969 -323.681964 
L 454.679596 -326.591585 
L 454.679728 -329.501207 
L 454.679487 -332.410828 
L 454.678655 -335.32045 
L 454.676584 -338.230071 
L 454.672007 -341.139693 
L 454.662856 -344.049314 
L 454.646301 -346.958936 
L 454.619301 -349.868557 
L 454.579819 -352.778178 
L 454.528489 -355.6878 
L 454.470031 -358.597421 
L 454.413366 -361.507043 
L 454.36974 -364.416664 
L 454.349183 -367.326286 
L 454.356779 -370.235907 
L 454.390624 -373.145529 
L 454.442602 -376.05515 
L 454.50154 -378.964772 
L 454.55707 -381.874393 
L 454.602407 -384.784015 
L 454.635121 -387.693636 
L 454.724879 -387.693636 
L 454.724879 -387.693636 
L 454.757593 -384.784015 
L 454.80293 -381.874393 
L 454.85846 -378.964772 
L 454.917398 -376.05515 
L 454.969376 -373.145529 
L 455.003221 -370.235907 
L 455.010817 -367.326286 
L 454.99026 -364.416664 
L 454.946634 -361.507043 
L 454.889969 -358.597421 
L 454.831511 -355.6878 
L 454.780181 -352.778178 
L 454.740699 -349.868557 
L 454.713699 -346.958936 
L 454.697144 -344.049314 
L 454.687993 -341.139693 
L 454.683416 -338.230071 
L 454.681345 -335.32045 
L 454.680513 -332.410828 
L 454.680272 -329.501207 
L 454.680404 -326.591585 
L 454.681031 -323.681964 
L 454.682668 -320.772342 
L 454.686392 -317.862721 
L 454.694051 -314.953099 
L 454.708321 -312.043478 
L 454.732355 -309.133856 
L 454.768848 -306.224235 
L 454.818636 -303.314613 
L 454.879518 -300.404992 
L 454.946396 -297.49537 
L 455.013702 -294.585749 
L 455.080146 -291.676127 
L 455.154626 -288.766506 
L 455.261476 -285.856884 
L 455.443891 -282.947263 
L 455.765912 -280.037641 
L 456.314445 -277.12802 
L 457.20229 -274.218398 
L 458.571109 -271.308777 
L 460.591631 -268.399155 
L 463.458795 -265.489534 
L 467.3818 -262.579912 
L 472.570351 -259.670291 
L 479.215666 -256.760669 
L 487.458432 -253.851048 
L 497.331988 -250.941426 
L 508.67585 -248.031805 
L 521.035351 -245.122183 
L 533.588952 -242.212562 
L 545.15781 -239.30294 
L 554.337787 -236.393319 
L 559.752727 -233.483697 
L 560.376 -230.574076 
L 555.826797 -227.664454 
L 546.535817 -224.754833 
L 533.702171 -221.845211 
L 519.030089 -218.93559 
L 504.321297 -216.025969 
L 491.065494 -213.116347 
L 480.173811 -210.206726 
L 471.929779 -207.297104 
L 466.129186 -204.387483 
L 462.306636 -201.477861 
L 459.93988 -198.56824 
L 458.571316 -195.658618 
L 457.84652 -192.748997 
L 457.505 -189.839375 
L 457.359333 -186.929754 
L 457.280576 -184.020132 
L 457.190277 -181.110511 
L 457.053137 -178.200889 
L 456.867317 -175.291268 
L 456.653918 -172.381646 
L 456.447991 -169.472025 
L 456.291026 -166.562403 
L 456.223194 -163.652782 
L 456.275159 -160.74316 
L 456.462525 -157.833539 
L 456.787372 -154.923917 
L 457.2483 -152.014296 
L 457.854391 -149.104674 
L 458.633379 -146.195053 
L 459.624093 -143.285431 
L 460.849603 -140.37581 
L 462.27846 -137.466188 
L 463.792234 -134.556567 
L 465.181394 -131.646945 
L 466.183503 -128.737324 
L 466.55824 -125.827702 
L 466.171699 -122.918081 
L 465.051636 -120.008459 
L 463.385397 -117.098838 
L 461.459772 -114.189216 
L 459.570775 -111.279595 
L 457.943583 -108.369973 
L 456.69234 -105.460352 
L 455.825557 -102.55073 
L 455.281619 -99.641109 
z
" style="stroke: #595959; stroke-width: 1.25"/>
    </defs>
    <g clip-path="url(#p7ec594facc)">
     <use xlink:href="#m2fb86eef6a" x="0" y="432" style="fill: #e99675; stroke: #595959; stroke-width: 1.25"/>
    </g>
   </g>
   <g id="PolyCollection_3">
    <defs>
     <path id="me4305eb323" d="M 719.078036 -53.566364 
L 718.761964 -53.566364 
L 718.547204 -54.573362 
L 718.172728 -55.58036 
L 717.640142 -56.587358 
L 717.03321 -57.594356 
L 716.503255 -58.601354 
L 716.200699 -59.608352 
L 716.199755 -60.61535 
L 716.467796 -61.622348 
L 716.887696 -62.629346 
L 717.311479 -63.636344 
L 717.625416 -64.643342 
L 717.802021 -65.65034 
L 717.902333 -66.657338 
L 718.016728 -67.664336 
L 718.189152 -68.671334 
L 718.38791 -69.678332 
L 718.536895 -70.68533 
L 718.566972 -71.692328 
L 718.449689 -72.699326 
L 718.209845 -73.706324 
L 717.922595 -74.713322 
L 717.687379 -75.72032 
L 717.579404 -76.727318 
L 717.610047 -77.734316 
L 717.730746 -78.741314 
L 717.874767 -79.748313 
L 717.996698 -80.755311 
L 718.079992 -81.762309 
L 718.115919 -82.769307 
L 718.077075 -83.776305 
L 717.909843 -84.783303 
L 717.554474 -85.790301 
L 716.965641 -86.797299 
L 716.070558 -87.804297 
L 714.606082 -88.811295 
L 711.853244 -89.818293 
L 706.447496 -90.825291 
L 696.616191 -91.832289 
L 681.143217 -92.839287 
L 660.811469 -93.846285 
L 639.239617 -94.853283 
L 621.878008 -95.860281 
L 613.224 -96.867279 
L 614.162051 -97.874277 
L 621.647614 -98.881275 
L 631.047215 -99.888273 
L 639.180013 -100.895271 
L 645.729599 -101.902269 
L 652.337986 -102.909267 
L 660.591809 -103.916265 
L 670.648445 -104.923263 
L 681.30512 -105.930261 
L 691.009042 -106.937259 
L 698.788424 -107.944257 
L 704.5165 -108.951255 
L 708.610483 -109.958254 
L 711.587275 -110.965252 
L 713.796706 -111.97225 
L 715.402046 -112.979248 
L 716.496001 -113.986246 
L 717.200212 -114.993244 
L 717.669667 -116.000242 
L 718.031069 -117.00724 
L 718.337371 -118.014238 
L 718.582647 -119.021236 
L 718.749229 -120.028234 
L 718.836727 -121.035232 
L 718.858527 -122.04223 
L 718.827351 -123.049228 
L 718.752471 -124.056226 
L 718.650591 -125.063224 
L 718.554726 -126.070222 
L 718.504792 -127.07722 
L 718.522178 -128.084218 
L 718.590969 -129.091216 
L 718.665378 -130.098214 
L 718.698286 -131.105212 
L 718.669357 -132.11221 
L 718.596443 -133.119208 
L 718.525556 -134.126206 
L 718.503393 -135.133204 
L 718.547688 -136.140202 
L 718.636982 -137.1472 
L 718.726867 -138.154198 
L 718.776309 -139.161197 
L 718.764297 -140.168195 
L 718.693972 -141.175193 
L 718.590516 -142.182191 
L 718.491456 -143.189189 
L 718.426424 -144.196187 
L 718.399345 -145.203185 
L 718.393782 -146.210183 
L 718.398733 -147.217181 
L 718.424397 -148.224179 
L 718.488119 -149.231177 
L 718.589003 -150.238175 
L 718.70257 -151.245173 
L 718.799219 -152.252171 
L 718.863628 -153.259169 
L 718.976372 -153.259169 
L 718.976372 -153.259169 
L 719.040781 -152.252171 
L 719.13743 -151.245173 
L 719.250997 -150.238175 
L 719.351881 -149.231177 
L 719.415603 -148.224179 
L 719.441267 -147.217181 
L 719.446218 -146.210183 
L 719.440655 -145.203185 
L 719.413576 -144.196187 
L 719.348544 -143.189189 
L 719.249484 -142.182191 
L 719.146028 -141.175193 
L 719.075703 -140.168195 
L 719.063691 -139.161197 
L 719.113133 -138.154198 
L 719.203018 -137.1472 
L 719.292312 -136.140202 
L 719.336607 -135.133204 
L 719.314444 -134.126206 
L 719.243557 -133.119208 
L 719.170643 -132.11221 
L 719.141714 -131.105212 
L 719.174622 -130.098214 
L 719.249031 -129.091216 
L 719.317822 -128.084218 
L 719.335208 -127.07722 
L 719.285274 -126.070222 
L 719.189409 -125.063224 
L 719.087529 -124.056226 
L 719.012649 -123.049228 
L 718.981473 -122.04223 
L 719.003273 -121.035232 
L 719.090771 -120.028234 
L 719.257353 -119.021236 
L 719.502629 -118.014238 
L 719.808931 -117.00724 
L 720.170333 -116.000242 
L 720.639788 -114.993244 
L 721.343999 -113.986246 
L 722.437954 -112.979248 
L 724.043294 -111.97225 
L 726.252725 -110.965252 
L 729.229517 -109.958254 
L 733.3235 -108.951255 
L 739.051576 -107.944257 
L 746.830958 -106.937259 
L 756.53488 -105.930261 
L 767.191555 -104.923263 
L 777.248191 -103.916265 
L 785.502014 -102.909267 
L 792.110401 -101.902269 
L 798.659987 -100.895271 
L 806.792785 -99.888273 
L 816.192386 -98.881275 
L 823.677949 -97.874277 
L 824.616 -96.867279 
L 815.961992 -95.860281 
L 798.600383 -94.853283 
L 777.028531 -93.846285 
L 756.696783 -92.839287 
L 741.223809 -91.832289 
L 731.392504 -90.825291 
L 725.986756 -89.818293 
L 723.233918 -88.811295 
L 721.769442 -87.804297 
L 720.874359 -86.797299 
L 720.285526 -85.790301 
L 719.930157 -84.783303 
L 719.762925 -83.776305 
L 719.724081 -82.769307 
L 719.760008 -81.762309 
L 719.843302 -80.755311 
L 719.965233 -79.748313 
L 720.109254 -78.741314 
L 720.229953 -77.734316 
L 720.260596 -76.727318 
L 720.152621 -75.72032 
L 719.917405 -74.713322 
L 719.630155 -73.706324 
L 719.390311 -72.699326 
L 719.273028 -71.692328 
L 719.303105 -70.68533 
L 719.45209 -69.678332 
L 719.650848 -68.671334 
L 719.823272 -67.664336 
L 719.937667 -66.657338 
L 720.037979 -65.65034 
L 720.214584 -64.643342 
L 720.528521 -63.636344 
L 720.952304 -62.629346 
L 721.372204 -61.622348 
L 721.640245 -60.61535 
L 721.639301 -59.608352 
L 721.336745 -58.601354 
L 720.80679 -57.594356 
L 720.199858 -56.587358 
L 719.667272 -55.58036 
L 719.292796 -54.573362 
L 719.078036 -53.566364 
z
" style="stroke: #595959; stroke-width: 1.25"/>
    </defs>
    <g clip-path="url(#p7ec594facc)">
     <use xlink:href="#me4305eb323" x="0" y="432" style="fill: #95a3c3; stroke: #595959; stroke-width: 1.25"/>
    </g>
   </g>
   <g id="line2d_7">
    <path d="M 190.44 266.17041 
L 190.44 279.180963 
" clip-path="url(#p7ec594facc)" style="fill: none; stroke: #000000"/>
   </g>
   <g id="line2d_8">
    <path d="M 190.44 252.243621 
L 190.44 235.342588 
" clip-path="url(#p7ec594facc)" style="fill: none; stroke: #000000"/>
   </g>
   <g id="line2d_9">
    <path d="M 180.531 279.180963 
L 200.349 279.180963 
" clip-path="url(#p7ec594facc)" style="fill: none; stroke: #000000; stroke-linecap: round"/>
   </g>
   <g id="line2d_10">
    <path d="M 180.531 235.342588 
L 200.349 235.342588 
" clip-path="url(#p7ec594facc)" style="fill: none; stroke: #000000; stroke-linecap: round"/>
   </g>
   <g id="line2d_11">
    <path d="M 454.68 207.996464 
L 454.68 226.51853 
" clip-path="url(#p7ec594facc)" style="fill: none; stroke: #000000"/>
   </g>
   <g id="line2d_12">
    <path d="M 454.68 194.492553 
L 454.68 174.673661 
" clip-path="url(#p7ec594facc)" style="fill: none; stroke: #000000"/>
   </g>
   <g id="line2d_13">
    <path d="M 444.771 226.51853 
L 464.589 226.51853 
" clip-path="url(#p7ec594facc)" style="fill: none; stroke: #000000; stroke-linecap: round"/>
   </g>
   <g id="line2d_14">
    <path d="M 444.771 174.673661 
L 464.589 174.673661 
" clip-path="url(#p7ec594facc)" style="fill: none; stroke: #000000; stroke-linecap: round"/>
   </g>
   <g id="line2d_15">
    <path d="M 718.92 335.790259 
L 718.92 344.896237 
" clip-path="url(#p7ec594facc)" style="fill: none; stroke: #000000"/>
   </g>
   <g id="line2d_16">
    <path d="M 718.92 329.559854 
L 718.92 320.3693 
" clip-path="url(#p7ec594facc)" style="fill: none; stroke: #000000"/>
   </g>
   <g id="line2d_17">
    <path d="M 709.011 344.896237 
L 728.829 344.896237 
" clip-path="url(#p7ec594facc)" style="fill: none; stroke: #000000; stroke-linecap: round"/>
   </g>
   <g id="line2d_18">
    <path d="M 709.011 320.3693 
L 728.829 320.3693 
" clip-path="url(#p7ec594facc)" style="fill: none; stroke: #000000; stroke-linecap: round"/>
   </g>
   <g id="line2d_19">
    <path d="M 170.622 258.347163 
L 210.258 258.347163 
" clip-path="url(#p7ec594facc)" style="fill: none; stroke: #ff0000; stroke-width: 2"/>
   </g>
   <g id="line2d_20">
    <path d="M 434.862 200.920302 
L 474.498 200.920302 
" clip-path="url(#p7ec594facc)" style="fill: none; stroke: #ff0000; stroke-width: 2"/>
   </g>
   <g id="line2d_21">
    <path d="M 699.102 333.859115 
L 738.738 333.859115 
" clip-path="url(#p7ec594facc)" style="fill: none; stroke: #ff0000; stroke-width: 2"/>
   </g>
   <g id="patch_3">
    <path d="M 58.32 395.14 
L 58.32 27.6 
" style="fill: none; stroke: #cccccc; stroke-width: 1.25; stroke-linejoin: miter; stroke-linecap: square"/>
   </g>
   <g id="patch_4">
    <path d="M 851.04 395.14 
L 851.04 27.6 
" style="fill: none; stroke: #cccccc; stroke-width: 1.25; stroke-linejoin: miter; stroke-linecap: square"/>
   </g>
   <g id="patch_5">
    <path d="M 58.32 395.14 
L 851.04 395.14 
" style="fill: none; stroke: #cccccc; stroke-width: 1.25; stroke-linejoin: miter; stroke-linecap: square"/>
   </g>
   <g id="patch_6">
    <path d="M 58.32 27.6 
L 851.04 27.6 
" style="fill: none; stroke: #cccccc; stroke-width: 1.25; stroke-linejoin: miter; stroke-linecap: square"/>
   </g>
   <g id="text_11">
    <!-- Handshake duration on TLS with secp521r1 signature algorithm -->
    <g style="fill: #262626" transform="translate(262.832812 21.6) scale(0.12 -0.12)">
     <defs>
      <path id="DejaVuSans-54" d="M -19 4666 
L 3928 4666 
L 3928 4134 
L 2272 4134 
L 2272 0 
L 1638 0 
L 1638 4134 
L -19 4134 
L -19 4666 
z
" transform="scale(0.015625)"/>
      <path id="DejaVuSans-4c" d="M 628 4666 
L 1259 4666 
L 1259 531 
L 3531 531 
L 3531 0 
L 628 0 
L 628 4666 
z
" transform="scale(0.015625)"/>
      <path id="DejaVuSans-53" d="M 3425 4513 
L 3425 3897 
Q 3066 4069 2747 4153 
Q 2428 4238 2131 4238 
Q 1616 4238 1336 4038 
Q 1056 3838 1056 3469 
Q 1056 3159 1242 3001 
Q 1428 2844 1947 2747 
L 2328 2669 
Q 3034 2534 3370 2195 
Q 3706 1856 3706 1288 
Q 3706 609 3251 259 
Q 2797 -91 1919 -91 
Q 1588 -91 1214 -16 
Q 841 59 441 206 
L 441 856 
Q 825 641 1194 531 
Q 1563 422 1919 422 
Q 2459 422 2753 634 
Q 3047 847 3047 1241 
Q 3047 1584 2836 1778 
Q 2625 1972 2144 2069 
L 1759 2144 
Q 1053 2284 737 2584 
Q 422 2884 422 3419 
Q 422 4038 858 4394 
Q 1294 4750 2059 4750 
Q 2388 4750 2728 4690 
Q 3069 4631 3425 4513 
z
" transform="scale(0.015625)"/>
      <path id="DejaVuSans-77" d="M 269 3500 
L 844 3500 
L 1563 769 
L 2278 3500 
L 2956 3500 
L 3675 769 
L 4391 3500 
L 4966 3500 
L 4050 0 
L 3372 0 
L 2619 2869 
L 1863 0 
L 1184 0 
L 269 3500 
z
" transform="scale(0.015625)"/>
      <path id="DejaVuSans-63" d="M 3122 3366 
L 3122 2828 
Q 2878 2963 2633 3030 
Q 2388 3097 2138 3097 
Q 1578 3097 1268 2742 
Q 959 2388 959 1747 
Q 959 1106 1268 751 
Q 1578 397 2138 397 
Q 2388 397 2633 464 
Q 2878 531 3122 666 
L 3122 134 
Q 2881 22 2623 -34 
Q 2366 -91 2075 -91 
Q 1284 -91 818 406 
Q 353 903 353 1747 
Q 353 2603 823 3093 
Q 1294 3584 2113 3584 
Q 2378 3584 2631 3529 
Q 2884 3475 3122 3366 
z
" transform="scale(0.015625)"/>
      <path id="DejaVuSans-67" d="M 2906 1791 
Q 2906 2416 2648 2759 
Q 2391 3103 1925 3103 
Q 1463 3103 1205 2759 
Q 947 2416 947 1791 
Q 947 1169 1205 825 
Q 1463 481 1925 481 
Q 2391 481 2648 825 
Q 2906 1169 2906 1791 
z
M 3481 434 
Q 3481 -459 3084 -895 
Q 2688 -1331 1869 -1331 
Q 1566 -1331 1297 -1286 
Q 1028 -1241 775 -1147 
L 775 -588 
Q 1028 -725 1275 -790 
Q 1522 -856 1778 -856 
Q 2344 -856 2625 -561 
Q 2906 -266 2906 331 
L 2906 616 
Q 2728 306 2450 153 
Q 2172 0 1784 0 
Q 1141 0 747 490 
Q 353 981 353 1791 
Q 353 2603 747 3093 
Q 1141 3584 1784 3584 
Q 2172 3584 2450 3431 
Q 2728 3278 2906 2969 
L 2906 3500 
L 3481 3500 
L 3481 434 
z
" transform="scale(0.015625)"/>
     </defs>
     <use xlink:href="#DejaVuSans-48"/>
     <use xlink:href="#DejaVuSans-61" x="75.195312"/>
     <use xlink:href="#DejaVuSans-6e" x="136.474609"/>
     <use xlink:href="#DejaVuSans-64" x="199.853516"/>
     <use xlink:href="#DejaVuSans-73" x="263.330078"/>
     <use xlink:href="#DejaVuSans-68" x="315.429688"/>
     <use xlink:href="#DejaVuSans-61" x="378.808594"/>
     <use xlink:href="#DejaVuSans-6b" x="440.087891"/>
     <use xlink:href="#DejaVuSans-65" x="494.373047"/>
     <use xlink:href="#DejaVuSans-20" x="555.896484"/>
     <use xlink:href="#DejaVuSans-64" x="587.683594"/>
     <use xlink:href="#DejaVuSans-75" x="651.160156"/>
     <use xlink:href="#DejaVuSans-72" x="714.539062"/>
     <use xlink:href="#DejaVuSans-61" x="755.652344"/>
     <use xlink:href="#DejaVuSans-74" x="816.931641"/>
     <use xlink:href="#DejaVuSans-69" x="856.140625"/>
     <use xlink:href="#DejaVuSans-6f" x="883.923828"/>
     <use xlink:href="#DejaVuSans-6e" x="945.105469"/>
     <use xlink:href="#DejaVuSans-20" x="1008.484375"/>
     <use xlink:href="#DejaVuSans-6f" x="1040.271484"/>
     <use xlink:href="#DejaVuSans-6e" x="1101.453125"/>
     <use xlink:href="#DejaVuSans-20" x="1164.832031"/>
     <use xlink:href="#DejaVuSans-54" x="1196.619141"/>
     <use xlink:href="#DejaVuSans-4c" x="1257.703125"/>
     <use xlink:href="#DejaVuSans-53" x="1313.416016"/>
     <use xlink:href="#DejaVuSans-20" x="1376.892578"/>
     <use xlink:href="#DejaVuSans-77" x="1408.679688"/>
     <use xlink:href="#DejaVuSans-69" x="1490.466797"/>
     <use xlink:href="#DejaVuSans-74" x="1518.25"/>
     <use xlink:href="#DejaVuSans-68" x="1557.458984"/>
     <use xlink:href="#DejaVuSans-20" x="1620.837891"/>
     <use xlink:href="#DejaVuSans-73" x="1652.625"/>
     <use xlink:href="#DejaVuSans-65" x="1704.724609"/>
     <use xlink:href="#DejaVuSans-63" x="1766.248047"/>
     <use xlink:href="#DejaVuSans-70" x="1821.228516"/>
     <use xlink:href="#DejaVuSans-35" x="1884.705078"/>
     <use xlink:href="#DejaVuSans-32" x="1948.328125"/>
     <use xlink:href="#DejaVuSans-31" x="2011.951172"/>
     <use xlink:href="#DejaVuSans-72" x="2075.574219"/>
     <use xlink:href="#DejaVuSans-31" x="2116.6875"/>
     <use xlink:href="#DejaVuSans-20" x="2180.310547"/>
     <use xlink:href="#DejaVuSans-73" x="2212.097656"/>
     <use xlink:href="#DejaVuSans-69" x="2264.197266"/>
     <use xlink:href="#DejaVuSans-67" x="2291.980469"/>
     <use xlink:href="#DejaVuSans-6e" x="2355.457031"/>
     <use xlink:href="#DejaVuSans-61" x="2418.835938"/>
     <use xlink:href="#DejaVuSans-74" x="2480.115234"/>
     <use xlink:href="#DejaVuSans-75" x="2519.324219"/>
     <use xlink:href="#DejaVuSans-72" x="2582.703125"/>
     <use xlink:href="#DejaVuSans-65" x="2621.566406"/>
     <use xlink:href="#DejaVuSans-20" x="2683.089844"/>
     <use xlink:href="#DejaVuSans-61" x="2714.876953"/>
     <use xlink:href="#DejaVuSans-6c" x="2776.15625"/>
     <use xlink:href="#DejaVuSans-67" x="2803.939453"/>
     <use xlink:href="#DejaVuSans-6f" x="2867.416016"/>
     <use xlink:href="#DejaVuSans-72" x="2928.597656"/>
     <use xlink:href="#DejaVuSans-69" x="2969.710938"/>
     <use xlink:href="#DejaVuSans-74" x="2997.494141"/>
     <use xlink:href="#DejaVuSans-68" x="3036.703125"/>
     <use xlink:href="#DejaVuSans-6d" x="3100.082031"/>
    </g>
   </g>
  </g>
 </g>
 <defs>
  <clipPath id="p7ec594facc">
   <rect x="58.32" y="27.6" width="792.72" height="367.54"/>
  </clipPath>
 </defs>
</svg>
