<?xml version="1.0" encoding="utf-8" standalone="no"?>
<!DOCTYPE svg PUBLIC "-//W3C//DTD SVG 1.1//EN"
  "http://www.w3.org/Graphics/SVG/1.1/DTD/svg11.dtd">
<svg xmlns:xlink="http://www.w3.org/1999/xlink" width="864pt" height="432pt" viewBox="0 0 864 432" xmlns="http://www.w3.org/2000/svg" version="1.1">
 <metadata>
  <rdf:RDF xmlns:dc="http://purl.org/dc/elements/1.1/" xmlns:cc="http://creativecommons.org/ns#" xmlns:rdf="http://www.w3.org/1999/02/22-rdf-syntax-ns#">
   <cc:Work>
    <dc:type rdf:resource="http://purl.org/dc/dcmitype/StillImage"/>
    <dc:date>2026-03-07T11:40:12.600087</dc:date>
    <dc:format>image/svg+xml</dc:format>
    <dc:creator>
     <cc:Agent>
      <dc:title>Matplotlib v3.6.3, https://matplotlib.org/</dc:title>
     </cc:Agent>
    </dc:creator>
   </cc:Work>
  </rdf:RDF>
 </metadata>
 <defs>
  <style type="text/css">*{stroke-linejoin: round; stroke-linecap: butt}</style>
 </defs>
 <g id="figure_1">
  <g id="patch_1">
   <path d="M 0 432 
L 864 432 
L 864 0 
L 0 0 
z
" style="fill: #ffffff"/>
  </g>
  <g id="axes_1">
   <g id="patch_2">
    <path d="M 51.3 395.14 
L 851.04 395.14 
L 851.04 27.6 
L 51.3 27.6 
z
" style="fill: #ffffff"/>
   </g>
   <g id="matplotlib.axis_1">
    <g id="xtick_1">
     <g id="text_1">
      <!-- P-384 -->
      <g style="fill: #262626" transform="translate(111.324 415.277812) scale(0.14 -0.14)">
       <defs>
        <path id="DejaVuSans-50" d="M 1259 4147 
L 1259 2394 
L 2053 2394 
Q 2494 2394 2734 2622 
Q 2975 2850 2975 3272 
Q 2975 3691 2734 3919 
Q 2494 4147 2053 4147 
L 1259 4147 
z
M 628 4666 
L 2053 4666 
Q 2838 4666 3239 4311 
Q 3641 3956 3641 3272 
Q 3641 2581 3239 2228 
Q 2838 1875 2053 1875 
L 1259 1875 
L 1259 0 
L 628 0 
L 628 4666 
z
" transform="scale(0.015625)"/>
        <path id="DejaVuSans-2d" d="M 313 2009 
L 1997 2009 
L 1997 1497 
L 313 1497 
L 313 2009 
z
" transform="scale(0.015625)"/>
        <path id="DejaVuSans-33" d="M 2597 2516 
Q 3050 2419 3304 2112 
Q 3559 1806 3559 1356 
Q 3559 666 3084 287 
Q 2609 -91 1734 -91 
Q 1441 -91 1130 -33 
Q 819 25 488 141 
L 488 750 
Q 750 597 1062 519 
Q 1375 441 1716 441 
Q 2309 441 2620 675 
Q 2931 909 2931 1356 
Q 2931 1769 2642 2001 
Q 2353 2234 1838 2234 
L 1294 2234 
L 1294 2753 
L 1863 2753 
Q 2328 2753 2575 2939 
Q 2822 3125 2822 3475 
Q 2822 3834 2567 4026 
Q 2313 4219 1838 4219 
Q 1578 4219 1281 4162 
Q 984 4106 628 3988 
L 628 4550 
Q 988 4650 1302 4700 
Q 1616 4750 1894 4750 
Q 2613 4750 3031 4423 
Q 3450 4097 3450 3541 
Q 3450 3153 3228 2886 
Q 3006 2619 2597 2516 
z
" transform="scale(0.015625)"/>
        <path id="DejaVuSans-38" d="M 2034 2216 
Q 1584 2216 1326 1975 
Q 1069 1734 1069 1313 
Q 1069 891 1326 650 
Q 1584 409 2034 409 
Q 2484 409 2743 651 
Q 3003 894 3003 1313 
Q 3003 1734 2745 1975 
Q 2488 2216 2034 2216 
z
M 1403 2484 
Q 997 2584 770 2862 
Q 544 3141 544 3541 
Q 544 4100 942 4425 
Q 1341 4750 2034 4750 
Q 2731 4750 3128 4425 
Q 3525 4100 3525 3541 
Q 3525 3141 3298 2862 
Q 3072 2584 2669 2484 
Q 3125 2378 3379 2068 
Q 3634 1759 3634 1313 
Q 3634 634 3220 271 
Q 2806 -91 2034 -91 
Q 1263 -91 848 271 
Q 434 634 434 1313 
Q 434 1759 690 2068 
Q 947 2378 1403 2484 
z
M 1172 3481 
Q 1172 3119 1398 2916 
Q 1625 2713 2034 2713 
Q 2441 2713 2670 2916 
Q 2900 3119 2900 3481 
Q 2900 3844 2670 4047 
Q 2441 4250 2034 4250 
Q 1625 4250 1398 4047 
Q 1172 3844 1172 3481 
z
" transform="scale(0.015625)"/>
        <path id="DejaVuSans-34" d="M 2419 4116 
L 825 1625 
L 2419 1625 
L 2419 4116 
z
M 2253 4666 
L 3047 4666 
L 3047 1625 
L 3713 1625 
L 3713 1100 
L 3047 1100 
L 3047 0 
L 2419 0 
L 2419 1100 
L 313 1100 
L 313 1709 
L 2253 4666 
z
" transform="scale(0.015625)"/>
       </defs>
       <use xlink:href="#DejaVuSans-50"/>
       <use xlink:href="#DejaVuSans-2d" x="58.052734"/>
       <use xlink:href="#DejaVuSans-33" x="94.136719"/>
       <use xlink:href="#DejaVuSans-38" x="157.759766"/>
       <use xlink:href="#DejaVuSans-34" x="221.382812"/>
      </g>
     </g>
    </g>
    <g id="xtick_2">
     <g id="text_2">
      <!-- x448 -->
      <g style="fill: #262626" transform="translate(273.717625 415.277812) scale(0.14 -0.14)">
       <defs>
        <path id="DejaVuSans-78" d="M 3513 3500 
L 2247 1797 
L 3578 0 
L 2900 0 
L 1881 1375 
L 863 0 
L 184 0 
L 1544 1831 
L 300 3500 
L 978 3500 
L 1906 2253 
L 2834 3500 
L 3513 3500 
z
" transform="scale(0.015625)"/>
       </defs>
       <use xlink:href="#DejaVuSans-78"/>
       <use xlink:href="#DejaVuSans-34" x="59.179688"/>
       <use xlink:href="#DejaVuSans-34" x="122.802734"/>
       <use xlink:href="#DejaVuSans-38" x="186.425781"/>
      </g>
     </g>
    </g>
    <g id="xtick_3">
     <g id="text_3">
      <!-- p384_mlkem768 -->
      <g style="fill: #262626" transform="translate(392.815156 415.277812) scale(0.14 -0.14)">
       <defs>
        <path id="DejaVuSans-70" d="M 1159 525 
L 1159 -1331 
L 581 -1331 
L 581 3500 
L 1159 3500 
L 1159 2969 
Q 1341 3281 1617 3432 
Q 1894 3584 2278 3584 
Q 2916 3584 3314 3078 
Q 3713 2572 3713 1747 
Q 3713 922 3314 415 
Q 2916 -91 2278 -91 
Q 1894 -91 1617 61 
Q 1341 213 1159 525 
z
M 3116 1747 
Q 3116 2381 2855 2742 
Q 2594 3103 2138 3103 
Q 1681 3103 1420 2742 
Q 1159 2381 1159 1747 
Q 1159 1113 1420 752 
Q 1681 391 2138 391 
Q 2594 391 2855 752 
Q 3116 1113 3116 1747 
z
" transform="scale(0.015625)"/>
        <path id="DejaVuSans-5f" d="M 3263 -1063 
L 3263 -1509 
L -63 -1509 
L -63 -1063 
L 3263 -1063 
z
" transform="scale(0.015625)"/>
        <path id="DejaVuSans-6d" d="M 3328 2828 
Q 3544 3216 3844 3400 
Q 4144 3584 4550 3584 
Q 5097 3584 5394 3201 
Q 5691 2819 5691 2113 
L 5691 0 
L 5113 0 
L 5113 2094 
Q 5113 2597 4934 2840 
Q 4756 3084 4391 3084 
Q 3944 3084 3684 2787 
Q 3425 2491 3425 1978 
L 3425 0 
L 2847 0 
L 2847 2094 
Q 2847 2600 2669 2842 
Q 2491 3084 2119 3084 
Q 1678 3084 1418 2786 
Q 1159 2488 1159 1978 
L 1159 0 
L 581 0 
L 581 3500 
L 1159 3500 
L 1159 2956 
Q 1356 3278 1631 3431 
Q 1906 3584 2284 3584 
Q 2666 3584 2933 3390 
Q 3200 3197 3328 2828 
z
" transform="scale(0.015625)"/>
        <path id="DejaVuSans-6c" d="M 603 4863 
L 1178 4863 
L 1178 0 
L 603 0 
L 603 4863 
z
" transform="scale(0.015625)"/>
        <path id="DejaVuSans-6b" d="M 581 4863 
L 1159 4863 
L 1159 1991 
L 2875 3500 
L 3609 3500 
L 1753 1863 
L 3688 0 
L 2938 0 
L 1159 1709 
L 1159 0 
L 581 0 
L 581 4863 
z
" transform="scale(0.015625)"/>
        <path id="DejaVuSans-65" d="M 3597 1894 
L 3597 1613 
L 953 1613 
Q 991 1019 1311 708 
Q 1631 397 2203 397 
Q 2534 397 2845 478 
Q 3156 559 3463 722 
L 3463 178 
Q 3153 47 2828 -22 
Q 2503 -91 2169 -91 
Q 1331 -91 842 396 
Q 353 884 353 1716 
Q 353 2575 817 3079 
Q 1281 3584 2069 3584 
Q 2775 3584 3186 3129 
Q 3597 2675 3597 1894 
z
M 3022 2063 
Q 3016 2534 2758 2815 
Q 2500 3097 2075 3097 
Q 1594 3097 1305 2825 
Q 1016 2553 972 2059 
L 3022 2063 
z
" transform="scale(0.015625)"/>
        <path id="DejaVuSans-37" d="M 525 4666 
L 3525 4666 
L 3525 4397 
L 1831 0 
L 1172 0 
L 2766 4134 
L 525 4134 
L 525 4666 
z
" transform="scale(0.015625)"/>
        <path id="DejaVuSans-36" d="M 2113 2584 
Q 1688 2584 1439 2293 
Q 1191 2003 1191 1497 
Q 1191 994 1439 701 
Q 1688 409 2113 409 
Q 2538 409 2786 701 
Q 3034 994 3034 1497 
Q 3034 2003 2786 2293 
Q 2538 2584 2113 2584 
z
M 3366 4563 
L 3366 3988 
Q 3128 4100 2886 4159 
Q 2644 4219 2406 4219 
Q 1781 4219 1451 3797 
Q 1122 3375 1075 2522 
Q 1259 2794 1537 2939 
Q 1816 3084 2150 3084 
Q 2853 3084 3261 2657 
Q 3669 2231 3669 1497 
Q 3669 778 3244 343 
Q 2819 -91 2113 -91 
Q 1303 -91 875 529 
Q 447 1150 447 2328 
Q 447 3434 972 4092 
Q 1497 4750 2381 4750 
Q 2619 4750 2861 4703 
Q 3103 4656 3366 4563 
z
" transform="scale(0.015625)"/>
       </defs>
       <use xlink:href="#DejaVuSans-70"/>
       <use xlink:href="#DejaVuSans-33" x="63.476562"/>
       <use xlink:href="#DejaVuSans-38" x="127.099609"/>
       <use xlink:href="#DejaVuSans-34" x="190.722656"/>
       <use xlink:href="#DejaVuSans-5f" x="254.345703"/>
       <use xlink:href="#DejaVuSans-6d" x="304.345703"/>
       <use xlink:href="#DejaVuSans-6c" x="401.757812"/>
       <use xlink:href="#DejaVuSans-6b" x="429.541016"/>
       <use xlink:href="#DejaVuSans-65" x="483.826172"/>
       <use xlink:href="#DejaVuSans-6d" x="545.349609"/>
       <use xlink:href="#DejaVuSans-37" x="642.761719"/>
       <use xlink:href="#DejaVuSans-36" x="706.384766"/>
       <use xlink:href="#DejaVuSans-38" x="770.007812"/>
      </g>
     </g>
    </g>
    <g id="xtick_4">
     <g id="text_4">
      <!-- x448_mlkem768 -->
      <g style="fill: #262626" transform="translate(553.063937 415.277812) scale(0.14 -0.14)">
       <use xlink:href="#DejaVuSans-78"/>
       <use xlink:href="#DejaVuSans-34" x="59.179688"/>
       <use xlink:href="#DejaVuSans-34" x="122.802734"/>
       <use xlink:href="#DejaVuSans-38" x="186.425781"/>
       <use xlink:href="#DejaVuSans-5f" x="250.048828"/>
       <use xlink:href="#DejaVuSans-6d" x="300.048828"/>
       <use xlink:href="#DejaVuSans-6c" x="397.460938"/>
       <use xlink:href="#DejaVuSans-6b" x="425.244141"/>
       <use xlink:href="#DejaVuSans-65" x="479.529297"/>
       <use xlink:href="#DejaVuSans-6d" x="541.052734"/>
       <use xlink:href="#DejaVuSans-37" x="638.464844"/>
       <use xlink:href="#DejaVuSans-36" x="702.087891"/>
       <use xlink:href="#DejaVuSans-38" x="765.710938"/>
      </g>
     </g>
    </g>
    <g id="xtick_5">
     <g id="text_5">
      <!-- mlkem768 -->
      <g style="fill: #262626" transform="translate(734.016312 415.277812) scale(0.14 -0.14)">
       <use xlink:href="#DejaVuSans-6d"/>
       <use xlink:href="#DejaVuSans-6c" x="97.412109"/>
       <use xlink:href="#DejaVuSans-6b" x="125.195312"/>
       <use xlink:href="#DejaVuSans-65" x="179.480469"/>
       <use xlink:href="#DejaVuSans-6d" x="241.003906"/>
       <use xlink:href="#DejaVuSans-37" x="338.416016"/>
       <use xlink:href="#DejaVuSans-36" x="402.039062"/>
       <use xlink:href="#DejaVuSans-38" x="465.662109"/>
      </g>
     </g>
    </g>
   </g>
   <g id="matplotlib.axis_2">
    <g id="ytick_1">
     <g id="line2d_1">
      <path d="M 51.3 346.035644 
L 851.04 346.035644 
" clip-path="url(#p6a299d9551)" style="fill: none; stroke: #cccccc; stroke-linecap: round"/>
     </g>
     <g id="text_6">
      <!-- 10 -->
      <g style="fill: #262626" transform="translate(27.8025 350.214785) scale(0.11 -0.11)">
       <defs>
        <path id="DejaVuSans-31" d="M 794 531 
L 1825 531 
L 1825 4091 
L 703 3866 
L 703 4441 
L 1819 4666 
L 2450 4666 
L 2450 531 
L 3481 531 
L 3481 0 
L 794 0 
L 794 531 
z
" transform="scale(0.015625)"/>
        <path id="DejaVuSans-30" d="M 2034 4250 
Q 1547 4250 1301 3770 
Q 1056 3291 1056 2328 
Q 1056 1369 1301 889 
Q 1547 409 2034 409 
Q 2525 409 2770 889 
Q 3016 1369 3016 2328 
Q 3016 3291 2770 3770 
Q 2525 4250 2034 4250 
z
M 2034 4750 
Q 2819 4750 3233 4129 
Q 3647 3509 3647 2328 
Q 3647 1150 3233 529 
Q 2819 -91 2034 -91 
Q 1250 -91 836 529 
Q 422 1150 422 2328 
Q 422 3509 836 4129 
Q 1250 4750 2034 4750 
z
" transform="scale(0.015625)"/>
       </defs>
       <use xlink:href="#DejaVuSans-31"/>
       <use xlink:href="#DejaVuSans-30" x="63.623047"/>
      </g>
     </g>
    </g>
    <g id="ytick_2">
     <g id="line2d_2">
      <path d="M 51.3 288.057882 
L 851.04 288.057882 
" clip-path="url(#p6a299d9551)" style="fill: none; stroke: #cccccc; stroke-linecap: round"/>
     </g>
     <g id="text_7">
      <!-- 20 -->
      <g style="fill: #262626" transform="translate(27.8025 292.237022) scale(0.11 -0.11)">
       <defs>
        <path id="DejaVuSans-32" d="M 1228 531 
L 3431 531 
L 3431 0 
L 469 0 
L 469 531 
Q 828 903 1448 1529 
Q 2069 2156 2228 2338 
Q 2531 2678 2651 2914 
Q 2772 3150 2772 3378 
Q 2772 3750 2511 3984 
Q 2250 4219 1831 4219 
Q 1534 4219 1204 4116 
Q 875 4013 500 3803 
L 500 4441 
Q 881 4594 1212 4672 
Q 1544 4750 1819 4750 
Q 2544 4750 2975 4387 
Q 3406 4025 3406 3419 
Q 3406 3131 3298 2873 
Q 3191 2616 2906 2266 
Q 2828 2175 2409 1742 
Q 1991 1309 1228 531 
z
" transform="scale(0.015625)"/>
       </defs>
       <use xlink:href="#DejaVuSans-32"/>
       <use xlink:href="#DejaVuSans-30" x="63.623047"/>
      </g>
     </g>
    </g>
    <g id="ytick_3">
     <g id="line2d_3">
      <path d="M 51.3 230.08012 
L 851.04 230.08012 
" clip-path="url(#p6a299d9551)" style="fill: none; stroke: #cccccc; stroke-linecap: round"/>
     </g>
     <g id="text_8">
      <!-- 30 -->
      <g style="fill: #262626" transform="translate(27.8025 234.25926) scale(0.11 -0.11)">
       <use xlink:href="#DejaVuSans-33"/>
       <use xlink:href="#DejaVuSans-30" x="63.623047"/>
      </g>
     </g>
    </g>
    <g id="ytick_4">
     <g id="line2d_4">
      <path d="M 51.3 172.102357 
L 851.04 172.102357 
" clip-path="url(#p6a299d9551)" style="fill: none; stroke: #cccccc; stroke-linecap: round"/>
     </g>
     <g id="text_9">
      <!-- 40 -->
      <g style="fill: #262626" transform="translate(27.8025 176.281498) scale(0.11 -0.11)">
       <use xlink:href="#DejaVuSans-34"/>
       <use xlink:href="#DejaVuSans-30" x="63.623047"/>
      </g>
     </g>
    </g>
    <g id="ytick_5">
     <g id="line2d_5">
      <path d="M 51.3 114.124595 
L 851.04 114.124595 
" clip-path="url(#p6a299d9551)" style="fill: none; stroke: #cccccc; stroke-linecap: round"/>
     </g>
     <g id="text_10">
      <!-- 50 -->
      <g style="fill: #262626" transform="translate(27.8025 118.303736) scale(0.11 -0.11)">
       <defs>
        <path id="DejaVuSans-35" d="M 691 4666 
L 3169 4666 
L 3169 4134 
L 1269 4134 
L 1269 2991 
Q 1406 3038 1543 3061 
Q 1681 3084 1819 3084 
Q 2600 3084 3056 2656 
Q 3513 2228 3513 1497 
Q 3513 744 3044 326 
Q 2575 -91 1722 -91 
Q 1428 -91 1123 -41 
Q 819 9 494 109 
L 494 744 
Q 775 591 1075 516 
Q 1375 441 1709 441 
Q 2250 441 2565 725 
Q 2881 1009 2881 1497 
Q 2881 1984 2565 2268 
Q 2250 2553 1709 2553 
Q 1456 2553 1204 2497 
Q 953 2441 691 2322 
L 691 4666 
z
" transform="scale(0.015625)"/>
       </defs>
       <use xlink:href="#DejaVuSans-35"/>
       <use xlink:href="#DejaVuSans-30" x="63.623047"/>
      </g>
     </g>
    </g>
    <g id="ytick_6">
     <g id="line2d_6">
      <path d="M 51.3 56.146833 
L 851.04 56.146833 
" clip-path="url(#p6a299d9551)" style="fill: none; stroke: #cccccc; stroke-linecap: round"/>
     </g>
     <g id="text_11">
      <!-- 60 -->
      <g style="fill: #262626" transform="translate(27.8025 60.325974) scale(0.11 -0.11)">
       <use xlink:href="#DejaVuSans-36"/>
       <use xlink:href="#DejaVuSans-30" x="63.623047"/>
      </g>
     </g>
    </g>
    <g id="text_12">
     <!-- Handshake duration (ms) -->
     <g style="fill: #262626" transform="translate(21.306875 287.437813) rotate(-90) scale(0.12 -0.12)">
      <defs>
       <path id="DejaVuSans-48" d="M 628 4666 
L 1259 4666 
L 1259 2753 
L 3553 2753 
L 3553 4666 
L 4184 4666 
L 4184 0 
L 3553 0 
L 3553 2222 
L 1259 2222 
L 1259 0 
L 628 0 
L 628 4666 
z
" transform="scale(0.015625)"/>
       <path id="DejaVuSans-61" d="M 2194 1759 
Q 1497 1759 1228 1600 
Q 959 1441 959 1056 
Q 959 750 1161 570 
Q 1363 391 1709 391 
Q 2188 391 2477 730 
Q 2766 1069 2766 1631 
L 2766 1759 
L 2194 1759 
z
M 3341 1997 
L 3341 0 
L 2766 0 
L 2766 531 
Q 2569 213 2275 61 
Q 1981 -91 1556 -91 
Q 1019 -91 701 211 
Q 384 513 384 1019 
Q 384 1609 779 1909 
Q 1175 2209 1959 2209 
L 2766 2209 
L 2766 2266 
Q 2766 2663 2505 2880 
Q 2244 3097 1772 3097 
Q 1472 3097 1187 3025 
Q 903 2953 641 2809 
L 641 3341 
Q 956 3463 1253 3523 
Q 1550 3584 1831 3584 
Q 2591 3584 2966 3190 
Q 3341 2797 3341 1997 
z
" transform="scale(0.015625)"/>
       <path id="DejaVuSans-6e" d="M 3513 2113 
L 3513 0 
L 2938 0 
L 2938 2094 
Q 2938 2591 2744 2837 
Q 2550 3084 2163 3084 
Q 1697 3084 1428 2787 
Q 1159 2491 1159 1978 
L 1159 0 
L 581 0 
L 581 3500 
L 1159 3500 
L 1159 2956 
Q 1366 3272 1645 3428 
Q 1925 3584 2291 3584 
Q 2894 3584 3203 3211 
Q 3513 2838 3513 2113 
z
" transform="scale(0.015625)"/>
       <path id="DejaVuSans-64" d="M 2906 2969 
L 2906 4863 
L 3481 4863 
L 3481 0 
L 2906 0 
L 2906 525 
Q 2725 213 2448 61 
Q 2172 -91 1784 -91 
Q 1150 -91 751 415 
Q 353 922 353 1747 
Q 353 2572 751 3078 
Q 1150 3584 1784 3584 
Q 2172 3584 2448 3432 
Q 2725 3281 2906 2969 
z
M 947 1747 
Q 947 1113 1208 752 
Q 1469 391 1925 391 
Q 2381 391 2643 752 
Q 2906 1113 2906 1747 
Q 2906 2381 2643 2742 
Q 2381 3103 1925 3103 
Q 1469 3103 1208 2742 
Q 947 2381 947 1747 
z
" transform="scale(0.015625)"/>
       <path id="DejaVuSans-73" d="M 2834 3397 
L 2834 2853 
Q 2591 2978 2328 3040 
Q 2066 3103 1784 3103 
Q 1356 3103 1142 2972 
Q 928 2841 928 2578 
Q 928 2378 1081 2264 
Q 1234 2150 1697 2047 
L 1894 2003 
Q 2506 1872 2764 1633 
Q 3022 1394 3022 966 
Q 3022 478 2636 193 
Q 2250 -91 1575 -91 
Q 1294 -91 989 -36 
Q 684 19 347 128 
L 347 722 
Q 666 556 975 473 
Q 1284 391 1588 391 
Q 1994 391 2212 530 
Q 2431 669 2431 922 
Q 2431 1156 2273 1281 
Q 2116 1406 1581 1522 
L 1381 1569 
Q 847 1681 609 1914 
Q 372 2147 372 2553 
Q 372 3047 722 3315 
Q 1072 3584 1716 3584 
Q 2034 3584 2315 3537 
Q 2597 3491 2834 3397 
z
" transform="scale(0.015625)"/>
       <path id="DejaVuSans-68" d="M 3513 2113 
L 3513 0 
L 2938 0 
L 2938 2094 
Q 2938 2591 2744 2837 
Q 2550 3084 2163 3084 
Q 1697 3084 1428 2787 
Q 1159 2491 1159 1978 
L 1159 0 
L 581 0 
L 581 4863 
L 1159 4863 
L 1159 2956 
Q 1366 3272 1645 3428 
Q 1925 3584 2291 3584 
Q 2894 3584 3203 3211 
Q 3513 2838 3513 2113 
z
" transform="scale(0.015625)"/>
       <path id="DejaVuSans-20" transform="scale(0.015625)"/>
       <path id="DejaVuSans-75" d="M 544 1381 
L 544 3500 
L 1119 3500 
L 1119 1403 
Q 1119 906 1312 657 
Q 1506 409 1894 409 
Q 2359 409 2629 706 
Q 2900 1003 2900 1516 
L 2900 3500 
L 3475 3500 
L 3475 0 
L 2900 0 
L 2900 538 
Q 2691 219 2414 64 
Q 2138 -91 1772 -91 
Q 1169 -91 856 284 
Q 544 659 544 1381 
z
M 1991 3584 
L 1991 3584 
z
" transform="scale(0.015625)"/>
       <path id="DejaVuSans-72" d="M 2631 2963 
Q 2534 3019 2420 3045 
Q 2306 3072 2169 3072 
Q 1681 3072 1420 2755 
Q 1159 2438 1159 1844 
L 1159 0 
L 581 0 
L 581 3500 
L 1159 3500 
L 1159 2956 
Q 1341 3275 1631 3429 
Q 1922 3584 2338 3584 
Q 2397 3584 2469 3576 
Q 2541 3569 2628 3553 
L 2631 2963 
z
" transform="scale(0.015625)"/>
       <path id="DejaVuSans-74" d="M 1172 4494 
L 1172 3500 
L 2356 3500 
L 2356 3053 
L 1172 3053 
L 1172 1153 
Q 1172 725 1289 603 
Q 1406 481 1766 481 
L 2356 481 
L 2356 0 
L 1766 0 
Q 1100 0 847 248 
Q 594 497 594 1153 
L 594 3053 
L 172 3053 
L 172 3500 
L 594 3500 
L 594 4494 
L 1172 4494 
z
" transform="scale(0.015625)"/>
       <path id="DejaVuSans-69" d="M 603 3500 
L 1178 3500 
L 1178 0 
L 603 0 
L 603 3500 
z
M 603 4863 
L 1178 4863 
L 1178 4134 
L 603 4134 
L 603 4863 
z
" transform="scale(0.015625)"/>
       <path id="DejaVuSans-6f" d="M 1959 3097 
Q 1497 3097 1228 2736 
Q 959 2375 959 1747 
Q 959 1119 1226 758 
Q 1494 397 1959 397 
Q 2419 397 2687 759 
Q 2956 1122 2956 1747 
Q 2956 2369 2687 2733 
Q 2419 3097 1959 3097 
z
M 1959 3584 
Q 2709 3584 3137 3096 
Q 3566 2609 3566 1747 
Q 3566 888 3137 398 
Q 2709 -91 1959 -91 
Q 1206 -91 779 398 
Q 353 888 353 1747 
Q 353 2609 779 3096 
Q 1206 3584 1959 3584 
z
" transform="scale(0.015625)"/>
       <path id="DejaVuSans-28" d="M 1984 4856 
Q 1566 4138 1362 3434 
Q 1159 2731 1159 2009 
Q 1159 1288 1364 580 
Q 1569 -128 1984 -844 
L 1484 -844 
Q 1016 -109 783 600 
Q 550 1309 550 2009 
Q 550 2706 781 3412 
Q 1013 4119 1484 4856 
L 1984 4856 
z
" transform="scale(0.015625)"/>
       <path id="DejaVuSans-29" d="M 513 4856 
L 1013 4856 
Q 1481 4119 1714 3412 
Q 1947 2706 1947 2009 
Q 1947 1309 1714 600 
Q 1481 -109 1013 -844 
L 513 -844 
Q 928 -128 1133 580 
Q 1338 1288 1338 2009 
Q 1338 2731 1133 3434 
Q 928 4138 513 4856 
z
" transform="scale(0.015625)"/>
      </defs>
      <use xlink:href="#DejaVuSans-48"/>
      <use xlink:href="#DejaVuSans-61" x="75.195312"/>
      <use xlink:href="#DejaVuSans-6e" x="136.474609"/>
      <use xlink:href="#DejaVuSans-64" x="199.853516"/>
      <use xlink:href="#DejaVuSans-73" x="263.330078"/>
      <use xlink:href="#DejaVuSans-68" x="315.429688"/>
      <use xlink:href="#DejaVuSans-61" x="378.808594"/>
      <use xlink:href="#DejaVuSans-6b" x="440.087891"/>
      <use xlink:href="#DejaVuSans-65" x="494.373047"/>
      <use xlink:href="#DejaVuSans-20" x="555.896484"/>
      <use xlink:href="#DejaVuSans-64" x="587.683594"/>
      <use xlink:href="#DejaVuSans-75" x="651.160156"/>
      <use xlink:href="#DejaVuSans-72" x="714.539062"/>
      <use xlink:href="#DejaVuSans-61" x="755.652344"/>
      <use xlink:href="#DejaVuSans-74" x="816.931641"/>
      <use xlink:href="#DejaVuSans-69" x="856.140625"/>
      <use xlink:href="#DejaVuSans-6f" x="883.923828"/>
      <use xlink:href="#DejaVuSans-6e" x="945.105469"/>
      <use xlink:href="#DejaVuSans-20" x="1008.484375"/>
      <use xlink:href="#DejaVuSans-28" x="1040.271484"/>
      <use xlink:href="#DejaVuSans-6d" x="1079.285156"/>
      <use xlink:href="#DejaVuSans-73" x="1176.697266"/>
      <use xlink:href="#DejaVuSans-29" x="1228.796875"/>
     </g>
    </g>
   </g>
   <g id="PolyCollection_1">
    <defs>
     <path id="mf9dd287b2d" d="M 131.347403 -96.40394 
L 131.200597 -96.40394 
L 131.130661 -97.812903 
L 131.025435 -99.221866 
L 130.889412 -100.630829 
L 130.739013 -102.039792 
L 130.59707 -103.448754 
L 130.482126 -104.857717 
L 130.400785 -106.26668 
L 130.349972 -107.675643 
L 130.326675 -109.084606 
L 130.335073 -110.493569 
L 130.383428 -111.902532 
L 130.473308 -113.311494 
L 130.590878 -114.720457 
L 130.707829 -116.12942 
L 130.791717 -117.538383 
L 130.819319 -118.947346 
L 130.785857 -120.356309 
L 130.706307 -121.765271 
L 130.609367 -123.174234 
L 130.527144 -124.583197 
L 130.483925 -125.99216 
L 130.487373 -127.401123 
L 130.526045 -128.810086 
L 130.576138 -130.219049 
L 130.615543 -131.628011 
L 130.637145 -133.036974 
L 130.652273 -134.445937 
L 130.681848 -135.8549 
L 130.741801 -137.263863 
L 130.832901 -138.672826 
L 130.940735 -140.081788 
L 131.043819 -141.490751 
L 131.123107 -142.899714 
L 131.167395 -144.308677 
L 131.173877 -145.71764 
L 131.146749 -147.126603 
L 131.096356 -148.535566 
L 131.038064 -149.944528 
L 130.987858 -151.353491 
L 130.953498 -152.762454 
L 130.924823 -154.171417 
L 130.869987 -155.58038 
L 130.743011 -156.989343 
L 130.502327 -158.398305 
L 130.133184 -159.807268 
L 129.661104 -161.216231 
L 129.141719 -162.625194 
L 128.616872 -164.034157 
L 128.038985 -165.44312 
L 127.183354 -166.852083 
L 125.588772 -168.261045 
L 122.586032 -169.670008 
L 117.473399 -171.078971 
L 109.846162 -172.487934 
L 99.9727 -173.896897 
L 88.993957 -175.30586 
L 78.73054 -176.714822 
L 71.082451 -178.123785 
L 67.2948 -179.532748 
L 67.499511 -180.941711 
L 70.781284 -182.350674 
L 75.674968 -183.759637 
L 80.76294 -185.1686 
L 85.071119 -186.577562 
L 88.174764 -187.986525 
L 90.113213 -189.395488 
L 91.253788 -190.804451 
L 92.167893 -192.213414 
L 93.495542 -193.622377 
L 95.765232 -195.031339 
L 99.205207 -196.440302 
L 103.647318 -197.849265 
L 108.601065 -199.258228 
L 113.467775 -200.667191 
L 117.769167 -202.076154 
L 121.267529 -203.485116 
L 123.946677 -204.894079 
L 125.915518 -206.303042 
L 127.31732 -207.712005 
L 128.284165 -209.120968 
L 128.926469 -210.529931 
L 129.333765 -211.938894 
L 129.576848 -213.347856 
L 129.712546 -214.756819 
L 129.789689 -216.165782 
L 129.850553 -217.574745 
L 129.926334 -218.983708 
L 130.032011 -220.392671 
L 130.166204 -221.801633 
L 130.316628 -223.210596 
L 130.468151 -224.619559 
L 130.609935 -226.028522 
L 130.738559 -227.437485 
L 130.855768 -228.846448 
L 130.96317 -230.255411 
L 131.058666 -231.664373 
L 131.137443 -233.073336 
L 131.195799 -234.482299 
L 131.23393 -235.891262 
L 131.31407 -235.891262 
L 131.31407 -235.891262 
L 131.352201 -234.482299 
L 131.410557 -233.073336 
L 131.489334 -231.664373 
L 131.58483 -230.255411 
L 131.692232 -228.846448 
L 131.809441 -227.437485 
L 131.938065 -226.028522 
L 132.079849 -224.619559 
L 132.231372 -223.210596 
L 132.381796 -221.801633 
L 132.515989 -220.392671 
L 132.621666 -218.983708 
L 132.697447 -217.574745 
L 132.758311 -216.165782 
L 132.835454 -214.756819 
L 132.971152 -213.347856 
L 133.214235 -211.938894 
L 133.621531 -210.529931 
L 134.263835 -209.120968 
L 135.23068 -207.712005 
L 136.632482 -206.303042 
L 138.601323 -204.894079 
L 141.280471 -203.485116 
L 144.778833 -202.076154 
L 149.080225 -200.667191 
L 153.946935 -199.258228 
L 158.900682 -197.849265 
L 163.342793 -196.440302 
L 166.782768 -195.031339 
L 169.052458 -193.622377 
L 170.380107 -192.213414 
L 171.294212 -190.804451 
L 172.434787 -189.395488 
L 174.373236 -187.986525 
L 177.476881 -186.577562 
L 181.78506 -185.1686 
L 186.873032 -183.759637 
L 191.766716 -182.350674 
L 195.048489 -180.941711 
L 195.2532 -179.532748 
L 191.465549 -178.123785 
L 183.81746 -176.714822 
L 173.554043 -175.30586 
L 162.5753 -173.896897 
L 152.701838 -172.487934 
L 145.074601 -171.078971 
L 139.961968 -169.670008 
L 136.959228 -168.261045 
L 135.364646 -166.852083 
L 134.509015 -165.44312 
L 133.931128 -164.034157 
L 133.406281 -162.625194 
L 132.886896 -161.216231 
L 132.414816 -159.807268 
L 132.045673 -158.398305 
L 131.804989 -156.989343 
L 131.678013 -155.58038 
L 131.623177 -154.171417 
L 131.594502 -152.762454 
L 131.560142 -151.353491 
L 131.509936 -149.944528 
L 131.451644 -148.535566 
L 131.401251 -147.126603 
L 131.374123 -145.71764 
L 131.380605 -144.308677 
L 131.424893 -142.899714 
L 131.504181 -141.490751 
L 131.607265 -140.081788 
L 131.715099 -138.672826 
L 131.806199 -137.263863 
L 131.866152 -135.8549 
L 131.895727 -134.445937 
L 131.910855 -133.036974 
L 131.932457 -131.628011 
L 131.971862 -130.219049 
L 132.021955 -128.810086 
L 132.060627 -127.401123 
L 132.064075 -125.99216 
L 132.020856 -124.583197 
L 131.938633 -123.174234 
L 131.841693 -121.765271 
L 131.762143 -120.356309 
L 131.728681 -118.947346 
L 131.756283 -117.538383 
L 131.840171 -116.12942 
L 131.957122 -114.720457 
L 132.074692 -113.311494 
L 132.164572 -111.902532 
L 132.212927 -110.493569 
L 132.221325 -109.084606 
L 132.198028 -107.675643 
L 132.147215 -106.26668 
L 132.065874 -104.857717 
L 131.95093 -103.448754 
L 131.808987 -102.039792 
L 131.658588 -100.630829 
L 131.522565 -99.221866 
L 131.417339 -97.812903 
L 131.347403 -96.40394 
z
" style="stroke: #595959; stroke-width: 1.25"/>
    </defs>
    <g clip-path="url(#p6a299d9551)">
     <use xlink:href="#mf9dd287b2d" x="0" y="432" style="fill: #72b6a1; stroke: #595959; stroke-width: 1.25"/>
    </g>
   </g>
   <g id="PolyCollection_2">
    <defs>
     <path id="m91ae73fdd2" d="M 291.264706 -64.620367 
L 291.179294 -64.620367 
L 291.140993 -65.747292 
L 291.078488 -66.874217 
L 290.982117 -68.001142 
L 290.839867 -69.128067 
L 290.637485 -70.254992 
L 290.361064 -71.381916 
L 290.003754 -72.508841 
L 289.575465 -73.635766 
L 289.110348 -74.762691 
L 288.665151 -75.889616 
L 288.305371 -77.016541 
L 288.083872 -78.143465 
L 288.022238 -79.27039 
L 288.103678 -80.397315 
L 288.278934 -81.52424 
L 288.479907 -82.651165 
L 288.634649 -83.77809 
L 288.681159 -84.905014 
L 288.580779 -86.031939 
L 288.330822 -87.158864 
L 287.97149 -88.285789 
L 287.579497 -89.412714 
L 287.245106 -90.539639 
L 287.039855 -91.666563 
L 286.991289 -92.793488 
L 287.079643 -93.920413 
L 287.258163 -95.047338 
L 287.482913 -96.174263 
L 287.73236 -97.301188 
L 288.006148 -98.428112 
L 288.30807 -99.555037 
L 288.62762 -100.681962 
L 288.931886 -101.808887 
L 289.169852 -102.935812 
L 289.282959 -104.062737 
L 289.212862 -105.189661 
L 288.898155 -106.316586 
L 288.255256 -107.443511 
L 287.146916 -108.570436 
L 285.356872 -109.697361 
L 282.604024 -110.824286 
L 278.627225 -111.95121 
L 273.337461 -113.078135 
L 266.975301 -114.20506 
L 260.166662 -115.331985 
L 253.788718 -116.45891 
L 248.655359 -117.585835 
L 245.158324 -118.712759 
L 243.064473 -119.839684 
L 241.609761 -120.966609 
L 239.871613 -122.093534 
L 237.242812 -123.220459 
L 233.770089 -124.347384 
L 230.190169 -125.474308 
L 227.64902 -126.601233 
L 227.2428 -127.728158 
L 229.595938 -128.855083 
L 234.65786 -129.982008 
L 241.777626 -131.108933 
L 249.97711 -132.235857 
L 258.268117 -133.362782 
L 265.879888 -134.489707 
L 272.347127 -135.616632 
L 277.488195 -136.743557 
L 281.333835 -137.870482 
L 284.051334 -138.997406 
L 285.879765 -140.124331 
L 287.075625 -141.251256 
L 287.868778 -142.378181 
L 288.434059 -143.505106 
L 288.883277 -144.632031 
L 289.275122 -145.758955 
L 289.633443 -146.88588 
L 289.963802 -148.012805 
L 290.263491 -149.13973 
L 290.526278 -150.266655 
L 290.745377 -151.39358 
L 290.916463 -152.520504 
L 291.040043 -153.647429 
L 291.121845 -154.774354 
L 291.171044 -155.901279 
L 291.197446 -157.028204 
L 291.209059 -158.155129 
L 291.210798 -159.282053 
L 291.204332 -160.408978 
L 291.188792 -161.535903 
L 291.162187 -162.662828 
L 291.123421 -163.789753 
L 291.074487 -164.916678 
L 291.021832 -166.043602 
L 290.975743 -167.170527 
L 290.947339 -168.297452 
L 290.944272 -169.424377 
L 290.967403 -170.551302 
L 291.010407 -171.678227 
L 291.062573 -172.805151 
L 291.113099 -173.932076 
L 291.15456 -175.059001 
L 291.184137 -176.185926 
L 291.259863 -176.185926 
L 291.259863 -176.185926 
L 291.28944 -175.059001 
L 291.330901 -173.932076 
L 291.381427 -172.805151 
L 291.433593 -171.678227 
L 291.476597 -170.551302 
L 291.499728 -169.424377 
L 291.496661 -168.297452 
L 291.468257 -167.170527 
L 291.422168 -166.043602 
L 291.369513 -164.916678 
L 291.320579 -163.789753 
L 291.281813 -162.662828 
L 291.255208 -161.535903 
L 291.239668 -160.408978 
L 291.233202 -159.282053 
L 291.234941 -158.155129 
L 291.246554 -157.028204 
L 291.272956 -155.901279 
L 291.322155 -154.774354 
L 291.403957 -153.647429 
L 291.527537 -152.520504 
L 291.698623 -151.39358 
L 291.917722 -150.266655 
L 292.180509 -149.13973 
L 292.480198 -148.012805 
L 292.810557 -146.88588 
L 293.168878 -145.758955 
L 293.560723 -144.632031 
L 294.009941 -143.505106 
L 294.575222 -142.378181 
L 295.368375 -141.251256 
L 296.564235 -140.124331 
L 298.392666 -138.997406 
L 301.110165 -137.870482 
L 304.955805 -136.743557 
L 310.096873 -135.616632 
L 316.564112 -134.489707 
L 324.175883 -133.362782 
L 332.46689 -132.235857 
L 340.666374 -131.108933 
L 347.78614 -129.982008 
L 352.848062 -128.855083 
L 355.2012 -127.728158 
L 354.79498 -126.601233 
L 352.253831 -125.474308 
L 348.673911 -124.347384 
L 345.201188 -123.220459 
L 342.572387 -122.093534 
L 340.834239 -120.966609 
L 339.379527 -119.839684 
L 337.285676 -118.712759 
L 333.788641 -117.585835 
L 328.655282 -116.45891 
L 322.277338 -115.331985 
L 315.468699 -114.20506 
L 309.106539 -113.078135 
L 303.816775 -111.95121 
L 299.839976 -110.824286 
L 297.087128 -109.697361 
L 295.297084 -108.570436 
L 294.188744 -107.443511 
L 293.545845 -106.316586 
L 293.231138 -105.189661 
L 293.161041 -104.062737 
L 293.274148 -102.935812 
L 293.512114 -101.808887 
L 293.81638 -100.681962 
L 294.13593 -99.555037 
L 294.437852 -98.428112 
L 294.71164 -97.301188 
L 294.961087 -96.174263 
L 295.185837 -95.047338 
L 295.364357 -93.920413 
L 295.452711 -92.793488 
L 295.404145 -91.666563 
L 295.198894 -90.539639 
L 294.864503 -89.412714 
L 294.47251 -88.285789 
L 294.113178 -87.158864 
L 293.863221 -86.031939 
L 293.762841 -84.905014 
L 293.809351 -83.77809 
L 293.964093 -82.651165 
L 294.165066 -81.52424 
L 294.340322 -80.397315 
L 294.421762 -79.27039 
L 294.360128 -78.143465 
L 294.138629 -77.016541 
L 293.778849 -75.889616 
L 293.333652 -74.762691 
L 292.868535 -73.635766 
L 292.440246 -72.508841 
L 292.082936 -71.381916 
L 291.806515 -70.254992 
L 291.604133 -69.128067 
L 291.461883 -68.001142 
L 291.365512 -66.874217 
L 291.303007 -65.747292 
L 291.264706 -64.620367 
z
" style="stroke: #595959; stroke-width: 1.25"/>
    </defs>
    <g clip-path="url(#p6a299d9551)">
     <use xlink:href="#m91ae73fdd2" x="0" y="432" style="fill: #e99675; stroke: #595959; stroke-width: 1.25"/>
    </g>
   </g>
   <g id="PolyCollection_3">
    <defs>
     <path id="m49aa84b34b" d="M 451.25649 -124.970384 
L 451.08351 -124.970384 
L 451.020848 -127.624154 
L 450.925292 -130.277925 
L 450.787337 -132.931695 
L 450.598512 -135.585465 
L 450.353137 -138.239235 
L 450.050043 -140.893005 
L 449.693906 -143.546776 
L 449.295886 -146.200546 
L 448.873367 -148.854316 
L 448.448705 -151.508086 
L 448.047017 -154.161857 
L 447.693284 -156.815627 
L 447.409272 -159.469397 
L 447.211011 -162.123167 
L 447.107473 -164.776937 
L 447.100605 -167.430708 
L 447.186308 -170.084478 
L 447.355451 -172.738248 
L 447.594226 -175.392018 
L 447.883764 -178.045789 
L 448.199838 -180.699559 
L 448.513808 -183.353329 
L 448.795639 -186.007099 
L 449.018779 -188.66087 
L 449.165573 -191.31464 
L 449.231285 -193.96841 
L 449.225071 -196.62218 
L 449.167274 -199.27595 
L 449.083788 -201.929721 
L 448.999263 -204.583491 
L 448.931285 -207.237261 
L 448.887121 -209.891031 
L 448.863644 -212.544802 
L 448.849993 -215.198572 
L 448.831889 -217.852342 
L 448.796389 -220.506112 
L 448.735952 -223.159882 
L 448.650961 -225.813653 
L 448.549933 -228.467423 
L 448.44684 -231.121193 
L 448.355388 -233.774963 
L 448.280767 -236.428734 
L 448.210344 -239.082504 
L 448.105647 -241.736274 
L 447.898598 -244.390044 
L 447.494861 -247.043814 
L 446.7861 -249.697585 
L 445.670555 -252.351355 
L 444.077724 -255.005125 
L 441.989231 -257.658895 
L 439.445957 -260.312666 
L 436.533709 -262.966436 
L 433.347121 -265.620206 
L 429.942469 -268.273976 
L 426.299965 -270.927746 
L 422.31863 -273.581517 
L 417.85812 -276.235287 
L 412.822913 -278.889057 
L 407.262382 -281.542827 
L 401.445966 -284.196598 
L 395.87471 -286.850368 
L 391.210672 -289.504138 
L 388.137053 -292.157908 
L 387.1908 -294.811678 
L 388.62268 -297.465449 
L 392.330828 -300.119219 
L 397.886825 -302.772989 
L 404.640623 -305.426759 
L 411.866278 -308.08053 
L 418.90308 -310.7343 
L 425.256256 -313.38807 
L 430.640801 -316.04184 
L 434.971845 -318.695611 
L 438.318239 -321.349381 
L 440.840582 -324.003151 
L 442.732048 -326.656921 
L 444.173765 -329.310691 
L 445.309162 -331.964462 
L 446.235935 -334.618232 
L 447.010893 -337.272002 
L 447.661803 -339.925772 
L 448.200876 -342.579543 
L 448.636048 -345.233313 
L 448.978031 -347.887083 
L 449.242829 -350.540853 
L 449.450641 -353.194623 
L 449.622772 -355.848394 
L 449.778124 -358.502164 
L 449.930476 -361.155934 
L 450.087143 -363.809704 
L 450.249103 -366.463475 
L 450.412336 -369.117245 
L 450.569904 -371.771015 
L 450.71425 -374.424785 
L 450.839165 -377.078555 
L 450.941047 -379.732326 
L 451.019266 -382.386096 
L 451.075758 -385.039866 
L 451.114124 -387.693636 
L 451.225876 -387.693636 
L 451.225876 -387.693636 
L 451.264242 -385.039866 
L 451.320734 -382.386096 
L 451.398953 -379.732326 
L 451.500835 -377.078555 
L 451.62575 -374.424785 
L 451.770096 -371.771015 
L 451.927664 -369.117245 
L 452.090897 -366.463475 
L 452.252857 -363.809704 
L 452.409524 -361.155934 
L 452.561876 -358.502164 
L 452.717228 -355.848394 
L 452.889359 -353.194623 
L 453.097171 -350.540853 
L 453.361969 -347.887083 
L 453.703952 -345.233313 
L 454.139124 -342.579543 
L 454.678197 -339.925772 
L 455.329107 -337.272002 
L 456.104065 -334.618232 
L 457.030838 -331.964462 
L 458.166235 -329.310691 
L 459.607952 -326.656921 
L 461.499418 -324.003151 
L 464.021761 -321.349381 
L 467.368155 -318.695611 
L 471.699199 -316.04184 
L 477.083744 -313.38807 
L 483.43692 -310.7343 
L 490.473722 -308.08053 
L 497.699377 -305.426759 
L 504.453175 -302.772989 
L 510.009172 -300.119219 
L 513.71732 -297.465449 
L 515.1492 -294.811678 
L 514.202947 -292.157908 
L 511.129328 -289.504138 
L 506.46529 -286.850368 
L 500.894034 -284.196598 
L 495.077618 -281.542827 
L 489.517087 -278.889057 
L 484.48188 -276.235287 
L 480.02137 -273.581517 
L 476.040035 -270.927746 
L 472.397531 -268.273976 
L 468.992879 -265.620206 
L 465.806291 -262.966436 
L 462.894043 -260.312666 
L 460.350769 -257.658895 
L 458.262276 -255.005125 
L 456.669445 -252.351355 
L 455.5539 -249.697585 
L 454.845139 -247.043814 
L 454.441402 -244.390044 
L 454.234353 -241.736274 
L 454.129656 -239.082504 
L 454.059233 -236.428734 
L 453.984612 -233.774963 
L 453.89316 -231.121193 
L 453.790067 -228.467423 
L 453.689039 -225.813653 
L 453.604048 -223.159882 
L 453.543611 -220.506112 
L 453.508111 -217.852342 
L 453.490007 -215.198572 
L 453.476356 -212.544802 
L 453.452879 -209.891031 
L 453.408715 -207.237261 
L 453.340737 -204.583491 
L 453.256212 -201.929721 
L 453.172726 -199.27595 
L 453.114929 -196.62218 
L 453.108715 -193.96841 
L 453.174427 -191.31464 
L 453.321221 -188.66087 
L 453.544361 -186.007099 
L 453.826192 -183.353329 
L 454.140162 -180.699559 
L 454.456236 -178.045789 
L 454.745774 -175.392018 
L 454.984549 -172.738248 
L 455.153692 -170.084478 
L 455.239395 -167.430708 
L 455.232527 -164.776937 
L 455.128989 -162.123167 
L 454.930728 -159.469397 
L 454.646716 -156.815627 
L 454.292983 -154.161857 
L 453.891295 -151.508086 
L 453.466633 -148.854316 
L 453.044114 -146.200546 
L 452.646094 -143.546776 
L 452.289957 -140.893005 
L 451.986863 -138.239235 
L 451.741488 -135.585465 
L 451.552663 -132.931695 
L 451.414708 -130.277925 
L 451.319152 -127.624154 
L 451.25649 -124.970384 
z
" style="stroke: #595959; stroke-width: 1.25"/>
    </defs>
    <g clip-path="url(#p6a299d9551)">
     <use xlink:href="#m49aa84b34b" x="0" y="432" style="fill: #95a3c3; stroke: #595959; stroke-width: 1.25"/>
    </g>
   </g>
   <g id="PolyCollection_4">
    <defs>
     <path id="m45df96e2c7" d="M 611.160286 -69.834615 
L 611.075714 -69.834615 
L 611.029581 -70.963372 
L 610.958181 -72.09213 
L 610.865223 -73.220887 
L 610.761146 -74.349645 
L 610.655637 -75.478402 
L 610.551498 -76.60716 
L 610.44904 -77.735918 
L 610.35763 -78.864675 
L 610.299388 -79.993433 
L 610.297665 -81.12219 
L 610.361183 -82.250948 
L 610.478753 -83.379705 
L 610.626012 -84.508463 
L 610.77554 -85.63722 
L 610.904654 -86.765978 
L 611.000421 -87.894735 
L 611.061283 -89.023493 
L 611.094256 -90.15225 
L 611.109412 -91.281008 
L 611.115241 -92.409765 
L 611.116791 -93.538523 
L 611.115724 -94.66728 
L 611.110316 -95.796038 
L 611.094115 -96.924795 
L 611.053548 -98.053553 
L 610.967167 -99.18231 
L 610.81116 -100.311068 
L 610.574072 -101.439825 
L 610.275917 -102.568583 
L 609.977213 -103.69734 
L 609.763072 -104.826098 
L 609.703244 -105.954855 
L 609.811463 -107.083613 
L 610.034934 -108.21237 
L 610.285294 -109.341128 
L 610.489802 -110.469885 
L 610.625331 -111.598643 
L 610.713641 -112.7274 
L 610.789252 -113.856158 
L 610.870185 -114.984916 
L 610.951717 -116.113673 
L 611.018712 -117.242431 
L 611.058526 -118.371188 
L 611.062031 -119.499946 
L 611.011287 -120.628703 
L 610.853511 -121.757461 
L 610.453875 -122.886218 
L 609.523661 -124.014976 
L 607.556965 -125.143733 
L 603.866078 -126.272491 
L 597.811433 -127.401248 
L 589.201317 -128.530006 
L 578.64127 -129.658763 
L 567.544221 -130.787521 
L 557.706082 -131.916278 
L 550.663634 -133.045036 
L 547.18855 -134.173793 
L 547.1388 -135.302551 
L 549.66388 -136.431308 
L 553.617609 -137.560066 
L 557.980367 -138.688823 
L 562.113246 -139.817581 
L 565.786407 -140.946338 
L 569.072443 -142.075096 
L 572.217742 -143.203853 
L 575.508616 -144.332611 
L 579.116824 -145.461368 
L 582.991822 -146.590126 
L 586.898059 -147.718883 
L 590.58049 -148.847641 
L 593.916453 -149.976399 
L 596.933154 -151.105156 
L 599.703552 -152.233914 
L 602.232376 -153.362671 
L 604.429295 -154.491429 
L 606.176728 -155.620186 
L 607.422294 -156.748944 
L 608.22001 -157.877701 
L 608.701535 -159.006459 
L 609.015127 -160.135216 
L 609.27576 -161.263974 
L 609.541989 -162.392731 
L 609.817479 -163.521489 
L 610.072922 -164.650246 
L 610.277401 -165.779004 
L 610.420664 -166.907761 
L 610.515291 -168.036519 
L 610.583825 -169.165276 
L 610.643056 -170.294034 
L 610.69533 -171.422791 
L 610.732388 -172.551549 
L 610.749404 -173.680306 
L 610.756462 -174.809064 
L 610.774765 -175.937821 
L 610.820085 -177.066579 
L 610.890035 -178.195336 
L 610.967067 -179.324094 
L 611.032289 -180.452851 
L 611.076416 -181.581609 
L 611.159584 -181.581609 
L 611.159584 -181.581609 
L 611.203711 -180.452851 
L 611.268933 -179.324094 
L 611.345965 -178.195336 
L 611.415915 -177.066579 
L 611.461235 -175.937821 
L 611.479538 -174.809064 
L 611.486596 -173.680306 
L 611.503612 -172.551549 
L 611.54067 -171.422791 
L 611.592944 -170.294034 
L 611.652175 -169.165276 
L 611.720709 -168.036519 
L 611.815336 -166.907761 
L 611.958599 -165.779004 
L 612.163078 -164.650246 
L 612.418521 -163.521489 
L 612.694011 -162.392731 
L 612.96024 -161.263974 
L 613.220873 -160.135216 
L 613.534465 -159.006459 
L 614.01599 -157.877701 
L 614.813706 -156.748944 
L 616.059272 -155.620186 
L 617.806705 -154.491429 
L 620.003624 -153.362671 
L 622.532448 -152.233914 
L 625.302846 -151.105156 
L 628.319547 -149.976399 
L 631.65551 -148.847641 
L 635.337941 -147.718883 
L 639.244178 -146.590126 
L 643.119176 -145.461368 
L 646.727384 -144.332611 
L 650.018258 -143.203853 
L 653.163557 -142.075096 
L 656.449593 -140.946338 
L 660.122754 -139.817581 
L 664.255633 -138.688823 
L 668.618391 -137.560066 
L 672.57212 -136.431308 
L 675.0972 -135.302551 
L 675.04745 -134.173793 
L 671.572366 -133.045036 
L 664.529918 -131.916278 
L 654.691779 -130.787521 
L 643.59473 -129.658763 
L 633.034683 -128.530006 
L 624.424567 -127.401248 
L 618.369922 -126.272491 
L 614.679035 -125.143733 
L 612.712339 -124.014976 
L 611.782125 -122.886218 
L 611.382489 -121.757461 
L 611.224713 -120.628703 
L 611.173969 -119.499946 
L 611.177474 -118.371188 
L 611.217288 -117.242431 
L 611.284283 -116.113673 
L 611.365815 -114.984916 
L 611.446748 -113.856158 
L 611.522359 -112.7274 
L 611.610669 -111.598643 
L 611.746198 -110.469885 
L 611.950706 -109.341128 
L 612.201066 -108.21237 
L 612.424537 -107.083613 
L 612.532756 -105.954855 
L 612.472928 -104.826098 
L 612.258787 -103.69734 
L 611.960083 -102.568583 
L 611.661928 -101.439825 
L 611.42484 -100.311068 
L 611.268833 -99.18231 
L 611.182452 -98.053553 
L 611.141885 -96.924795 
L 611.125684 -95.796038 
L 611.120276 -94.66728 
L 611.119209 -93.538523 
L 611.120759 -92.409765 
L 611.126588 -91.281008 
L 611.141744 -90.15225 
L 611.174717 -89.023493 
L 611.235579 -87.894735 
L 611.331346 -86.765978 
L 611.46046 -85.63722 
L 611.609988 -84.508463 
L 611.757247 -83.379705 
L 611.874817 -82.250948 
L 611.938335 -81.12219 
L 611.936612 -79.993433 
L 611.87837 -78.864675 
L 611.78696 -77.735918 
L 611.684502 -76.60716 
L 611.580363 -75.478402 
L 611.474854 -74.349645 
L 611.370777 -73.220887 
L 611.277819 -72.09213 
L 611.206419 -70.963372 
L 611.160286 -69.834615 
z
" style="stroke: #595959; stroke-width: 1.25"/>
    </defs>
    <g clip-path="url(#p6a299d9551)">
     <use xlink:href="#m45df96e2c7" x="0" y="432" style="fill: #db96c0; stroke: #595959; stroke-width: 1.25"/>
    </g>
   </g>
   <g id="PolyCollection_5">
    <defs>
     <path id="m38cac003a8" d="M 771.226606 -53.566364 
L 770.905394 -53.566364 
L 770.718518 -54.964624 
L 770.396466 -56.362884 
L 769.913511 -57.761144 
L 769.286464 -59.159404 
L 768.587855 -60.557664 
L 767.931491 -61.955924 
L 767.431504 -63.354184 
L 767.156281 -64.752444 
L 767.104269 -66.150704 
L 767.214607 -67.548964 
L 767.404441 -68.947224 
L 767.611094 -70.345484 
L 767.81576 -71.743744 
L 768.036122 -73.142004 
L 768.295455 -74.540264 
L 768.593145 -75.938524 
L 768.898917 -77.336784 
L 769.171332 -78.735044 
L 769.381836 -80.133304 
L 769.52655 -81.531564 
L 769.622436 -82.929824 
L 769.694739 -84.328084 
L 769.762547 -85.726344 
L 769.825708 -87.124604 
L 769.855846 -88.522864 
L 769.795088 -89.921124 
L 769.562662 -91.319384 
L 769.059656 -92.717644 
L 768.154108 -94.115904 
L 766.640494 -95.514164 
L 764.209069 -96.912424 
L 760.500859 -98.310684 
L 755.294706 -99.708944 
L 748.744059 -101.107205 
L 741.452707 -102.505465 
L 734.230004 -103.903725 
L 727.64281 -105.301985 
L 721.74876 -106.700245 
L 716.323086 -108.098505 
L 711.449182 -109.496765 
L 707.934055 -110.895025 
L 707.0868 -112.293285 
L 709.945535 -113.691545 
L 716.538612 -115.089805 
L 725.739163 -116.488065 
L 735.776102 -117.886325 
L 744.99202 -119.284585 
L 752.372674 -120.682845 
L 757.654669 -122.081105 
L 761.122103 -123.479365 
L 763.308611 -124.877625 
L 764.753613 -126.275885 
L 765.859328 -127.674145 
L 766.841552 -129.072405 
L 767.753828 -130.470665 
L 768.556815 -131.868925 
L 769.195556 -133.267185 
L 769.650819 -134.665445 
L 769.950667 -136.063705 
L 770.151331 -137.461965 
L 770.308051 -138.860225 
L 770.453967 -140.258485 
L 770.594906 -141.656745 
L 770.717694 -143.055005 
L 770.80423 -144.453265 
L 770.843634 -145.851525 
L 770.838042 -147.249785 
L 770.801366 -148.648045 
L 770.753144 -150.046305 
L 770.711363 -151.444565 
L 770.688058 -152.842825 
L 770.688988 -154.241086 
L 770.715239 -155.639346 
L 770.763903 -157.037606 
L 770.82767 -158.435866 
L 770.89566 -159.834126 
L 770.956751 -161.232386 
L 771.003579 -162.630646 
L 771.034389 -164.028906 
L 771.051858 -165.427166 
L 771.060415 -166.825426 
L 771.064018 -168.223686 
L 771.065212 -169.621946 
L 771.065121 -171.020206 
L 771.063654 -172.418466 
L 771.059504 -173.816726 
L 771.049986 -175.214986 
L 771.031294 -176.613246 
L 770.999946 -178.011506 
L 770.955604 -179.409766 
L 770.903981 -180.808026 
L 770.857196 -182.206286 
L 770.829694 -183.604546 
L 770.831162 -185.002806 
L 770.861061 -186.401066 
L 770.908949 -187.799326 
L 770.960314 -189.197586 
L 771.003547 -190.595846 
L 771.033592 -191.994106 
L 771.098408 -191.994106 
L 771.098408 -191.994106 
L 771.128453 -190.595846 
L 771.171686 -189.197586 
L 771.223051 -187.799326 
L 771.270939 -186.401066 
L 771.300838 -185.002806 
L 771.302306 -183.604546 
L 771.274804 -182.206286 
L 771.228019 -180.808026 
L 771.176396 -179.409766 
L 771.132054 -178.011506 
L 771.100706 -176.613246 
L 771.082014 -175.214986 
L 771.072496 -173.816726 
L 771.068346 -172.418466 
L 771.066879 -171.020206 
L 771.066788 -169.621946 
L 771.067982 -168.223686 
L 771.071585 -166.825426 
L 771.080142 -165.427166 
L 771.097611 -164.028906 
L 771.128421 -162.630646 
L 771.175249 -161.232386 
L 771.23634 -159.834126 
L 771.30433 -158.435866 
L 771.368097 -157.037606 
L 771.416761 -155.639346 
L 771.443012 -154.241086 
L 771.443942 -152.842825 
L 771.420637 -151.444565 
L 771.378856 -150.046305 
L 771.330634 -148.648045 
L 771.293958 -147.249785 
L 771.288366 -145.851525 
L 771.32777 -144.453265 
L 771.414306 -143.055005 
L 771.537094 -141.656745 
L 771.678033 -140.258485 
L 771.823949 -138.860225 
L 771.980669 -137.461965 
L 772.181333 -136.063705 
L 772.481181 -134.665445 
L 772.936444 -133.267185 
L 773.575185 -131.868925 
L 774.378172 -130.470665 
L 775.290448 -129.072405 
L 776.272672 -127.674145 
L 777.378387 -126.275885 
L 778.823389 -124.877625 
L 781.009897 -123.479365 
L 784.477331 -122.081105 
L 789.759326 -120.682845 
L 797.13998 -119.284585 
L 806.355898 -117.886325 
L 816.392837 -116.488065 
L 825.593388 -115.089805 
L 832.186465 -113.691545 
L 835.0452 -112.293285 
L 834.197945 -110.895025 
L 830.682818 -109.496765 
L 825.808914 -108.098505 
L 820.38324 -106.700245 
L 814.48919 -105.301985 
L 807.901996 -103.903725 
L 800.679293 -102.505465 
L 793.387941 -101.107205 
L 786.837294 -99.708944 
L 781.631141 -98.310684 
L 777.922931 -96.912424 
L 775.491506 -95.514164 
L 773.977892 -94.115904 
L 773.072344 -92.717644 
L 772.569338 -91.319384 
L 772.336912 -89.921124 
L 772.276154 -88.522864 
L 772.306292 -87.124604 
L 772.369453 -85.726344 
L 772.437261 -84.328084 
L 772.509564 -82.929824 
L 772.60545 -81.531564 
L 772.750164 -80.133304 
L 772.960668 -78.735044 
L 773.233083 -77.336784 
L 773.538855 -75.938524 
L 773.836545 -74.540264 
L 774.095878 -73.142004 
L 774.31624 -71.743744 
L 774.520906 -70.345484 
L 774.727559 -68.947224 
L 774.917393 -67.548964 
L 775.027731 -66.150704 
L 774.975719 -64.752444 
L 774.700496 -63.354184 
L 774.200509 -61.955924 
L 773.544145 -60.557664 
L 772.845536 -59.159404 
L 772.218489 -57.761144 
L 771.735534 -56.362884 
L 771.413482 -54.964624 
L 771.226606 -53.566364 
z
" style="stroke: #595959; stroke-width: 1.25"/>
    </defs>
    <g clip-path="url(#p6a299d9551)">
     <use xlink:href="#m38cac003a8" x="0" y="432" style="fill: #a2c865; stroke: #595959; stroke-width: 1.25"/>
    </g>
   </g>
   <g id="line2d_7">
    <path d="M 131.274 253.329202 
L 131.274 269.215109 
" clip-path="url(#p6a299d9551)" style="fill: none; stroke: #000000"/>
   </g>
   <g id="line2d_8">
    <path d="M 131.274 239.298584 
L 131.274 220.165922 
" clip-path="url(#p6a299d9551)" style="fill: none; stroke: #000000"/>
   </g>
   <g id="line2d_9">
    <path d="M 125.27595 269.215109 
L 137.27205 269.215109 
" clip-path="url(#p6a299d9551)" style="fill: none; stroke: #000000; stroke-linecap: round"/>
   </g>
   <g id="line2d_10">
    <path d="M 125.27595 220.165922 
L 137.27205 220.165922 
" clip-path="url(#p6a299d9551)" style="fill: none; stroke: #000000; stroke-linecap: round"/>
   </g>
   <g id="line2d_11">
    <path d="M 291.222 313.87248 
L 291.222 327.714671 
" clip-path="url(#p6a299d9551)" style="fill: none; stroke: #000000"/>
   </g>
   <g id="line2d_12">
    <path d="M 291.222 303.349517 
L 291.222 288.637659 
" clip-path="url(#p6a299d9551)" style="fill: none; stroke: #000000"/>
   </g>
   <g id="line2d_13">
    <path d="M 285.22395 327.714671 
L 297.22005 327.714671 
" clip-path="url(#p6a299d9551)" style="fill: none; stroke: #000000; stroke-linecap: round"/>
   </g>
   <g id="line2d_14">
    <path d="M 285.22395 288.637659 
L 297.22005 288.637659 
" clip-path="url(#p6a299d9551)" style="fill: none; stroke: #000000; stroke-linecap: round"/>
   </g>
   <g id="line2d_15">
    <path d="M 451.17 154.752512 
L 451.17 186.480842 
" clip-path="url(#p6a299d9551)" style="fill: none; stroke: #000000"/>
   </g>
   <g id="line2d_16">
    <path d="M 451.17 133.199279 
L 451.17 102.123198 
" clip-path="url(#p6a299d9551)" style="fill: none; stroke: #000000"/>
   </g>
   <g id="line2d_17">
    <path d="M 445.17195 186.480842 
L 457.16805 186.480842 
" clip-path="url(#p6a299d9551)" style="fill: none; stroke: #000000; stroke-linecap: round"/>
   </g>
   <g id="line2d_18">
    <path d="M 445.17195 102.123198 
L 457.16805 102.123198 
" clip-path="url(#p6a299d9551)" style="fill: none; stroke: #000000; stroke-linecap: round"/>
   </g>
   <g id="line2d_19">
    <path d="M 611.118 298.493879 
L 611.118 306.262899 
" clip-path="url(#p6a299d9551)" style="fill: none; stroke: #000000"/>
   </g>
   <g id="line2d_20">
    <path d="M 611.118 288.739121 
L 611.118 274.549063 
" clip-path="url(#p6a299d9551)" style="fill: none; stroke: #000000"/>
   </g>
   <g id="line2d_21">
    <path d="M 605.11995 306.262899 
L 617.11605 306.262899 
" clip-path="url(#p6a299d9551)" style="fill: none; stroke: #000000; stroke-linecap: round"/>
   </g>
   <g id="line2d_22">
    <path d="M 605.11995 274.549063 
L 617.11605 274.549063 
" clip-path="url(#p6a299d9551)" style="fill: none; stroke: #000000; stroke-linecap: round"/>
   </g>
   <g id="line2d_23">
    <path d="M 771.066 326.845005 
L 771.066 336.411336 
" clip-path="url(#p6a299d9551)" style="fill: none; stroke: #000000"/>
   </g>
   <g id="line2d_24">
    <path d="M 771.066 318.206318 
L 771.066 305.393233 
" clip-path="url(#p6a299d9551)" style="fill: none; stroke: #000000"/>
   </g>
   <g id="line2d_25">
    <path d="M 765.06795 336.411336 
L 777.06405 336.411336 
" clip-path="url(#p6a299d9551)" style="fill: none; stroke: #000000; stroke-linecap: round"/>
   </g>
   <g id="line2d_26">
    <path d="M 765.06795 305.393233 
L 777.06405 305.393233 
" clip-path="url(#p6a299d9551)" style="fill: none; stroke: #000000; stroke-linecap: round"/>
   </g>
   <g id="line2d_27">
    <path d="M 119.2779 248.45907 
L 143.2701 248.45907 
" clip-path="url(#p6a299d9551)" style="fill: none; stroke: #ff0000; stroke-width: 2"/>
   </g>
   <g id="line2d_28">
    <path d="M 279.2259 306.610766 
L 303.2181 306.610766 
" clip-path="url(#p6a299d9551)" style="fill: none; stroke: #ff0000; stroke-width: 2"/>
   </g>
   <g id="line2d_29">
    <path d="M 439.1739 139.113011 
L 463.1661 139.113011 
" clip-path="url(#p6a299d9551)" style="fill: none; stroke: #ff0000; stroke-width: 2"/>
   </g>
   <g id="line2d_30">
    <path d="M 599.1219 294.783302 
L 623.1141 294.783302 
" clip-path="url(#p6a299d9551)" style="fill: none; stroke: #ff0000; stroke-width: 2"/>
   </g>
   <g id="line2d_31">
    <path d="M 759.0699 320.322507 
L 783.0621 320.322507 
" clip-path="url(#p6a299d9551)" style="fill: none; stroke: #ff0000; stroke-width: 2"/>
   </g>
   <g id="patch_3">
    <path d="M 51.3 395.14 
L 51.3 27.6 
" style="fill: none; stroke: #cccccc; stroke-width: 1.25; stroke-linejoin: miter; stroke-linecap: square"/>
   </g>
   <g id="patch_4">
    <path d="M 851.04 395.14 
L 851.04 27.6 
" style="fill: none; stroke: #cccccc; stroke-width: 1.25; stroke-linejoin: miter; stroke-linecap: square"/>
   </g>
   <g id="patch_5">
    <path d="M 51.3 395.14 
L 851.04 395.14 
" style="fill: none; stroke: #cccccc; stroke-width: 1.25; stroke-linejoin: miter; stroke-linecap: square"/>
   </g>
   <g id="patch_6">
    <path d="M 51.3 27.6 
L 851.04 27.6 
" style="fill: none; stroke: #cccccc; stroke-width: 1.25; stroke-linejoin: miter; stroke-linecap: square"/>
   </g>
   <g id="text_13">
    <!-- Handshake duration on TLS with secp384r1 signature algorithm -->
    <g style="fill: #262626" transform="translate(259.322812 21.6) scale(0.12 -0.12)">
     <defs>
      <path id="DejaVuSans-54" d="M -19 4666 
L 3928 4666 
L 3928 4134 
L 2272 4134 
L 2272 0 
L 1638 0 
L 1638 4134 
L -19 4134 
L -19 4666 
z
" transform="scale(0.015625)"/>
      <path id="DejaVuSans-4c" d="M 628 4666 
L 1259 4666 
L 1259 531 
L 3531 531 
L 3531 0 
L 628 0 
L 628 4666 
z
" transform="scale(0.015625)"/>
      <path id="DejaVuSans-53" d="M 3425 4513 
L 3425 3897 
Q 3066 4069 2747 4153 
Q 2428 4238 2131 4238 
Q 1616 4238 1336 4038 
Q 1056 3838 1056 3469 
Q 1056 3159 1242 3001 
Q 1428 2844 1947 2747 
L 2328 2669 
Q 3034 2534 3370 2195 
Q 3706 1856 3706 1288 
Q 3706 609 3251 259 
Q 2797 -91 1919 -91 
Q 1588 -91 1214 -16 
Q 841 59 441 206 
L 441 856 
Q 825 641 1194 531 
Q 1563 422 1919 422 
Q 2459 422 2753 634 
Q 3047 847 3047 1241 
Q 3047 1584 2836 1778 
Q 2625 1972 2144 2069 
L 1759 2144 
Q 1053 2284 737 2584 
Q 422 2884 422 3419 
Q 422 4038 858 4394 
Q 1294 4750 2059 4750 
Q 2388 4750 2728 4690 
Q 3069 4631 3425 4513 
z
" transform="scale(0.015625)"/>
      <path id="DejaVuSans-77" d="M 269 3500 
L 844 3500 
L 1563 769 
L 2278 3500 
L 2956 3500 
L 3675 769 
L 4391 3500 
L 4966 3500 
L 4050 0 
L 3372 0 
L 2619 2869 
L 1863 0 
L 1184 0 
L 269 3500 
z
" transform="scale(0.015625)"/>
      <path id="DejaVuSans-63" d="M 3122 3366 
L 3122 2828 
Q 2878 2963 2633 3030 
Q 2388 3097 2138 3097 
Q 1578 3097 1268 2742 
Q 959 2388 959 1747 
Q 959 1106 1268 751 
Q 1578 397 2138 397 
Q 2388 397 2633 464 
Q 2878 531 3122 666 
L 3122 134 
Q 2881 22 2623 -34 
Q 2366 -91 2075 -91 
Q 1284 -91 818 406 
Q 353 903 353 1747 
Q 353 2603 823 3093 
Q 1294 3584 2113 3584 
Q 2378 3584 2631 3529 
Q 2884 3475 3122 3366 
z
" transform="scale(0.015625)"/>
      <path id="DejaVuSans-67" d="M 2906 1791 
Q 2906 2416 2648 2759 
Q 2391 3103 1925 3103 
Q 1463 3103 1205 2759 
Q 947 2416 947 1791 
Q 947 1169 1205 825 
Q 1463 481 1925 481 
Q 2391 481 2648 825 
Q 2906 1169 2906 1791 
z
M 3481 434 
Q 3481 -459 3084 -895 
Q 2688 -1331 1869 -1331 
Q 1566 -1331 1297 -1286 
Q 1028 -1241 775 -1147 
L 775 -588 
Q 1028 -725 1275 -790 
Q 1522 -856 1778 -856 
Q 2344 -856 2625 -561 
Q 2906 -266 2906 331 
L 2906 616 
Q 2728 306 2450 153 
Q 2172 0 1784 0 
Q 1141 0 747 490 
Q 353 981 353 1791 
Q 353 2603 747 3093 
Q 1141 3584 1784 3584 
Q 2172 3584 2450 3431 
Q 2728 3278 2906 2969 
L 2906 3500 
L 3481 3500 
L 3481 434 
z
" transform="scale(0.015625)"/>
     </defs>
     <use xlink:href="#DejaVuSans-48"/>
     <use xlink:href="#DejaVuSans-61" x="75.195312"/>
     <use xlink:href="#DejaVuSans-6e" x="136.474609"/>
     <use xlink:href="#DejaVuSans-64" x="199.853516"/>
     <use xlink:href="#DejaVuSans-73" x="263.330078"/>
     <use xlink:href="#DejaVuSans-68" x="315.429688"/>
     <use xlink:href="#DejaVuSans-61" x="378.808594"/>
     <use xlink:href="#DejaVuSans-6b" x="440.087891"/>
     <use xlink:href="#DejaVuSans-65" x="494.373047"/>
     <use xlink:href="#DejaVuSans-20" x="555.896484"/>
     <use xlink:href="#DejaVuSans-64" x="587.683594"/>
     <use xlink:href="#DejaVuSans-75" x="651.160156"/>
     <use xlink:href="#DejaVuSans-72" x="714.539062"/>
     <use xlink:href="#DejaVuSans-61" x="755.652344"/>
     <use xlink:href="#DejaVuSans-74" x="816.931641"/>
     <use xlink:href="#DejaVuSans-69" x="856.140625"/>
     <use xlink:href="#DejaVuSans-6f" x="883.923828"/>
     <use xlink:href="#DejaVuSans-6e" x="945.105469"/>
     <use xlink:href="#DejaVuSans-20" x="1008.484375"/>
     <use xlink:href="#DejaVuSans-6f" x="1040.271484"/>
     <use xlink:href="#DejaVuSans-6e" x="1101.453125"/>
     <use xlink:href="#DejaVuSans-20" x="1164.832031"/>
     <use xlink:href="#DejaVuSans-54" x="1196.619141"/>
     <use xlink:href="#DejaVuSans-4c" x="1257.703125"/>
     <use xlink:href="#DejaVuSans-53" x="1313.416016"/>
     <use xlink:href="#DejaVuSans-20" x="1376.892578"/>
     <use xlink:href="#DejaVuSans-77" x="1408.679688"/>
     <use xlink:href="#DejaVuSans-69" x="1490.466797"/>
     <use xlink:href="#DejaVuSans-74" x="1518.25"/>
     <use xlink:href="#DejaVuSans-68" x="1557.458984"/>
     <use xlink:href="#DejaVuSans-20" x="1620.837891"/>
     <use xlink:href="#DejaVuSans-73" x="1652.625"/>
     <use xlink:href="#DejaVuSans-65" x="1704.724609"/>
     <use xlink:href="#DejaVuSans-63" x="1766.248047"/>
     <use xlink:href="#DejaVuSans-70" x="1821.228516"/>
     <use xlink:href="#DejaVuSans-33" x="1884.705078"/>
     <use xlink:href="#DejaVuSans-38" x="1948.328125"/>
     <use xlink:href="#DejaVuSans-34" x="2011.951172"/>
     <use xlink:href="#DejaVuSans-72" x="2075.574219"/>
     <use xlink:href="#DejaVuSans-31" x="2116.6875"/>
     <use xlink:href="#DejaVuSans-20" x="2180.310547"/>
     <use xlink:href="#DejaVuSans-73" x="2212.097656"/>
     <use xlink:href="#DejaVuSans-69" x="2264.197266"/>
     <use xlink:href="#DejaVuSans-67" x="2291.980469"/>
     <use xlink:href="#DejaVuSans-6e" x="2355.457031"/>
     <use xlink:href="#DejaVuSans-61" x="2418.835938"/>
     <use xlink:href="#DejaVuSans-74" x="2480.115234"/>
     <use xlink:href="#DejaVuSans-75" x="2519.324219"/>
     <use xlink:href="#DejaVuSans-72" x="2582.703125"/>
     <use xlink:href="#DejaVuSans-65" x="2621.566406"/>
     <use xlink:href="#DejaVuSans-20" x="2683.089844"/>
     <use xlink:href="#DejaVuSans-61" x="2714.876953"/>
     <use xlink:href="#DejaVuSans-6c" x="2776.15625"/>
     <use xlink:href="#DejaVuSans-67" x="2803.939453"/>
     <use xlink:href="#DejaVuSans-6f" x="2867.416016"/>
     <use xlink:href="#DejaVuSans-72" x="2928.597656"/>
     <use xlink:href="#DejaVuSans-69" x="2969.710938"/>
     <use xlink:href="#DejaVuSans-74" x="2997.494141"/>
     <use xlink:href="#DejaVuSans-68" x="3036.703125"/>
     <use xlink:href="#DejaVuSans-6d" x="3100.082031"/>
    </g>
   </g>
  </g>
 </g>
 <defs>
  <clipPath id="p6a299d9551">
   <rect x="51.3" y="27.6" width="799.74" height="367.54"/>
  </clipPath>
 </defs>
</svg>
